%TF.GenerationSoftware,KiCad,Pcbnew,9.0.5*%
%TF.CreationDate,2026-09-28T19:19:17+01:00*%
%TF.ProjectId,phone_board,70686f6e-655f-4626-9f61-72642e6b6963,rev?*%
%TF.SameCoordinates,Original*%
%TF.FileFunction,Legend,Bot*%
%TF.FilePolarity,Positive*%
%FSLAX46Y46*%
G04 Gerber Fmt 4.6, Leading zero omitted, Abs format (unit mm)*
G04 Created by KiCad (PCBNEW 9.0.5) date 2026-09-28 19:19:17*
%MOMM*%
%LPD*%
G01*
G04 APERTURE LIST*
G04 Aperture macros list*
%AMHorizOval*
0 Thick line with rounded ends*
0 $1 width*
0 $2 $3 position (X,Y) of the first rounded end (center of the circle)*
0 $4 $5 position (X,Y) of the second rounded end (center of the circle)*
0 Add line between two ends*
20,1,$1,$2,$3,$4,$5,0*
0 Add two circle primitives to create the rounded ends*
1,1,$1,$2,$3*
1,1,$1,$4,$5*%
G04 Aperture macros list end*
%ADD10C,0.150000*%
%ADD11HorizOval,1.200000X0.141421X0.141421X-0.141421X-0.141421X0*%
%ADD12C,1.200000*%
%ADD13C,0.850000*%
%ADD14C,2.200000*%
%ADD15C,0.650000*%
%ADD16O,1.000000X2.100000*%
%ADD17O,1.000000X1.600000*%
G04 APERTURE END LIST*
D10*
X55190476Y-17954819D02*
X55666666Y-17954819D01*
X55666666Y-17954819D02*
X55666666Y-16954819D01*
X54857142Y-17954819D02*
X54857142Y-16954819D01*
X54857142Y-16954819D02*
X54476190Y-16954819D01*
X54476190Y-16954819D02*
X54380952Y-17002438D01*
X54380952Y-17002438D02*
X54333333Y-17050057D01*
X54333333Y-17050057D02*
X54285714Y-17145295D01*
X54285714Y-17145295D02*
X54285714Y-17288152D01*
X54285714Y-17288152D02*
X54333333Y-17383390D01*
X54333333Y-17383390D02*
X54380952Y-17431009D01*
X54380952Y-17431009D02*
X54476190Y-17478628D01*
X54476190Y-17478628D02*
X54857142Y-17478628D01*
X53333333Y-17002438D02*
X53428571Y-16954819D01*
X53428571Y-16954819D02*
X53571428Y-16954819D01*
X53571428Y-16954819D02*
X53714285Y-17002438D01*
X53714285Y-17002438D02*
X53809523Y-17097676D01*
X53809523Y-17097676D02*
X53857142Y-17192914D01*
X53857142Y-17192914D02*
X53904761Y-17383390D01*
X53904761Y-17383390D02*
X53904761Y-17526247D01*
X53904761Y-17526247D02*
X53857142Y-17716723D01*
X53857142Y-17716723D02*
X53809523Y-17811961D01*
X53809523Y-17811961D02*
X53714285Y-17907200D01*
X53714285Y-17907200D02*
X53571428Y-17954819D01*
X53571428Y-17954819D02*
X53476190Y-17954819D01*
X53476190Y-17954819D02*
X53333333Y-17907200D01*
X53333333Y-17907200D02*
X53285714Y-17859580D01*
X53285714Y-17859580D02*
X53285714Y-17526247D01*
X53285714Y-17526247D02*
X53476190Y-17526247D01*
X55190476Y-7259580D02*
X55238095Y-7307200D01*
X55238095Y-7307200D02*
X55380952Y-7354819D01*
X55380952Y-7354819D02*
X55476190Y-7354819D01*
X55476190Y-7354819D02*
X55619047Y-7307200D01*
X55619047Y-7307200D02*
X55714285Y-7211961D01*
X55714285Y-7211961D02*
X55761904Y-7116723D01*
X55761904Y-7116723D02*
X55809523Y-6926247D01*
X55809523Y-6926247D02*
X55809523Y-6783390D01*
X55809523Y-6783390D02*
X55761904Y-6592914D01*
X55761904Y-6592914D02*
X55714285Y-6497676D01*
X55714285Y-6497676D02*
X55619047Y-6402438D01*
X55619047Y-6402438D02*
X55476190Y-6354819D01*
X55476190Y-6354819D02*
X55380952Y-6354819D01*
X55380952Y-6354819D02*
X55238095Y-6402438D01*
X55238095Y-6402438D02*
X55190476Y-6450057D01*
X54761904Y-7354819D02*
X54761904Y-6354819D01*
X54761904Y-6831009D02*
X54190476Y-6831009D01*
X54190476Y-7354819D02*
X54190476Y-6354819D01*
X53285714Y-6688152D02*
X53285714Y-7354819D01*
X53523809Y-6307200D02*
X53761904Y-7021485D01*
X53761904Y-7021485D02*
X53142857Y-7021485D01*
X37523811Y-15859580D02*
X37571430Y-15907200D01*
X37571430Y-15907200D02*
X37714287Y-15954819D01*
X37714287Y-15954819D02*
X37809525Y-15954819D01*
X37809525Y-15954819D02*
X37952382Y-15907200D01*
X37952382Y-15907200D02*
X38047620Y-15811961D01*
X38047620Y-15811961D02*
X38095239Y-15716723D01*
X38095239Y-15716723D02*
X38142858Y-15526247D01*
X38142858Y-15526247D02*
X38142858Y-15383390D01*
X38142858Y-15383390D02*
X38095239Y-15192914D01*
X38095239Y-15192914D02*
X38047620Y-15097676D01*
X38047620Y-15097676D02*
X37952382Y-15002438D01*
X37952382Y-15002438D02*
X37809525Y-14954819D01*
X37809525Y-14954819D02*
X37714287Y-14954819D01*
X37714287Y-14954819D02*
X37571430Y-15002438D01*
X37571430Y-15002438D02*
X37523811Y-15050057D01*
X37095239Y-15954819D02*
X37095239Y-14954819D01*
X37095239Y-15431009D02*
X36523811Y-15431009D01*
X36523811Y-15954819D02*
X36523811Y-14954819D01*
X35619049Y-15288152D02*
X35619049Y-15954819D01*
X35857144Y-14907200D02*
X36095239Y-15621485D01*
X36095239Y-15621485D02*
X35476192Y-15621485D01*
X33904763Y-15954819D02*
X33904763Y-14954819D01*
X33904763Y-15907200D02*
X34000001Y-15954819D01*
X34000001Y-15954819D02*
X34190477Y-15954819D01*
X34190477Y-15954819D02*
X34285715Y-15907200D01*
X34285715Y-15907200D02*
X34333334Y-15859580D01*
X34333334Y-15859580D02*
X34380953Y-15764342D01*
X34380953Y-15764342D02*
X34380953Y-15478628D01*
X34380953Y-15478628D02*
X34333334Y-15383390D01*
X34333334Y-15383390D02*
X34285715Y-15335771D01*
X34285715Y-15335771D02*
X34190477Y-15288152D01*
X34190477Y-15288152D02*
X34000001Y-15288152D01*
X34000001Y-15288152D02*
X33904763Y-15335771D01*
X33047620Y-15907200D02*
X33142858Y-15954819D01*
X33142858Y-15954819D02*
X33333334Y-15954819D01*
X33333334Y-15954819D02*
X33428572Y-15907200D01*
X33428572Y-15907200D02*
X33476191Y-15811961D01*
X33476191Y-15811961D02*
X33476191Y-15431009D01*
X33476191Y-15431009D02*
X33428572Y-15335771D01*
X33428572Y-15335771D02*
X33333334Y-15288152D01*
X33333334Y-15288152D02*
X33142858Y-15288152D01*
X33142858Y-15288152D02*
X33047620Y-15335771D01*
X33047620Y-15335771D02*
X33000001Y-15431009D01*
X33000001Y-15431009D02*
X33000001Y-15526247D01*
X33000001Y-15526247D02*
X33476191Y-15621485D01*
X32714286Y-15288152D02*
X32333334Y-15288152D01*
X32571429Y-14954819D02*
X32571429Y-15811961D01*
X32571429Y-15811961D02*
X32523810Y-15907200D01*
X32523810Y-15907200D02*
X32428572Y-15954819D01*
X32428572Y-15954819D02*
X32333334Y-15954819D01*
X31619048Y-15907200D02*
X31714286Y-15954819D01*
X31714286Y-15954819D02*
X31904762Y-15954819D01*
X31904762Y-15954819D02*
X32000000Y-15907200D01*
X32000000Y-15907200D02*
X32047619Y-15811961D01*
X32047619Y-15811961D02*
X32047619Y-15431009D01*
X32047619Y-15431009D02*
X32000000Y-15335771D01*
X32000000Y-15335771D02*
X31904762Y-15288152D01*
X31904762Y-15288152D02*
X31714286Y-15288152D01*
X31714286Y-15288152D02*
X31619048Y-15335771D01*
X31619048Y-15335771D02*
X31571429Y-15431009D01*
X31571429Y-15431009D02*
X31571429Y-15526247D01*
X31571429Y-15526247D02*
X32047619Y-15621485D01*
X30714286Y-15907200D02*
X30809524Y-15954819D01*
X30809524Y-15954819D02*
X31000000Y-15954819D01*
X31000000Y-15954819D02*
X31095238Y-15907200D01*
X31095238Y-15907200D02*
X31142857Y-15859580D01*
X31142857Y-15859580D02*
X31190476Y-15764342D01*
X31190476Y-15764342D02*
X31190476Y-15478628D01*
X31190476Y-15478628D02*
X31142857Y-15383390D01*
X31142857Y-15383390D02*
X31095238Y-15335771D01*
X31095238Y-15335771D02*
X31000000Y-15288152D01*
X31000000Y-15288152D02*
X30809524Y-15288152D01*
X30809524Y-15288152D02*
X30714286Y-15335771D01*
X30428571Y-15288152D02*
X30047619Y-15288152D01*
X30285714Y-14954819D02*
X30285714Y-15811961D01*
X30285714Y-15811961D02*
X30238095Y-15907200D01*
X30238095Y-15907200D02*
X30142857Y-15954819D01*
X30142857Y-15954819D02*
X30047619Y-15954819D01*
X29571428Y-15954819D02*
X29666666Y-15907200D01*
X29666666Y-15907200D02*
X29714285Y-15859580D01*
X29714285Y-15859580D02*
X29761904Y-15764342D01*
X29761904Y-15764342D02*
X29761904Y-15478628D01*
X29761904Y-15478628D02*
X29714285Y-15383390D01*
X29714285Y-15383390D02*
X29666666Y-15335771D01*
X29666666Y-15335771D02*
X29571428Y-15288152D01*
X29571428Y-15288152D02*
X29428571Y-15288152D01*
X29428571Y-15288152D02*
X29333333Y-15335771D01*
X29333333Y-15335771D02*
X29285714Y-15383390D01*
X29285714Y-15383390D02*
X29238095Y-15478628D01*
X29238095Y-15478628D02*
X29238095Y-15764342D01*
X29238095Y-15764342D02*
X29285714Y-15859580D01*
X29285714Y-15859580D02*
X29333333Y-15907200D01*
X29333333Y-15907200D02*
X29428571Y-15954819D01*
X29428571Y-15954819D02*
X29571428Y-15954819D01*
X28809523Y-15954819D02*
X28809523Y-15288152D01*
X28809523Y-15478628D02*
X28761904Y-15383390D01*
X28761904Y-15383390D02*
X28714285Y-15335771D01*
X28714285Y-15335771D02*
X28619047Y-15288152D01*
X28619047Y-15288152D02*
X28523809Y-15288152D01*
X27428570Y-15954819D02*
X27428570Y-15288152D01*
X27428570Y-15478628D02*
X27380951Y-15383390D01*
X27380951Y-15383390D02*
X27333332Y-15335771D01*
X27333332Y-15335771D02*
X27238094Y-15288152D01*
X27238094Y-15288152D02*
X27142856Y-15288152D01*
X26428570Y-15907200D02*
X26523808Y-15954819D01*
X26523808Y-15954819D02*
X26714284Y-15954819D01*
X26714284Y-15954819D02*
X26809522Y-15907200D01*
X26809522Y-15907200D02*
X26857141Y-15811961D01*
X26857141Y-15811961D02*
X26857141Y-15431009D01*
X26857141Y-15431009D02*
X26809522Y-15335771D01*
X26809522Y-15335771D02*
X26714284Y-15288152D01*
X26714284Y-15288152D02*
X26523808Y-15288152D01*
X26523808Y-15288152D02*
X26428570Y-15335771D01*
X26428570Y-15335771D02*
X26380951Y-15431009D01*
X26380951Y-15431009D02*
X26380951Y-15526247D01*
X26380951Y-15526247D02*
X26857141Y-15621485D01*
X26047617Y-15288152D02*
X25809522Y-15954819D01*
X25809522Y-15954819D02*
X25571427Y-15288152D01*
X23857141Y-15859580D02*
X23904760Y-15907200D01*
X23904760Y-15907200D02*
X24047617Y-15954819D01*
X24047617Y-15954819D02*
X24142855Y-15954819D01*
X24142855Y-15954819D02*
X24285712Y-15907200D01*
X24285712Y-15907200D02*
X24380950Y-15811961D01*
X24380950Y-15811961D02*
X24428569Y-15716723D01*
X24428569Y-15716723D02*
X24476188Y-15526247D01*
X24476188Y-15526247D02*
X24476188Y-15383390D01*
X24476188Y-15383390D02*
X24428569Y-15192914D01*
X24428569Y-15192914D02*
X24380950Y-15097676D01*
X24380950Y-15097676D02*
X24285712Y-15002438D01*
X24285712Y-15002438D02*
X24142855Y-14954819D01*
X24142855Y-14954819D02*
X24047617Y-14954819D01*
X24047617Y-14954819D02*
X23904760Y-15002438D01*
X23904760Y-15002438D02*
X23857141Y-15050057D01*
%LPC*%
D11*
%TO.C,S2*%
X52704000Y-19296000D03*
D12*
X56296102Y-19296000D03*
X56296102Y-15703898D03*
X52704000Y-15703898D03*
%TD*%
D13*
%TO.C,SW1*%
X32500000Y-1800000D03*
X29500000Y-1800000D03*
%TD*%
D11*
%TO.C,S1*%
X52704000Y-8696000D03*
D12*
X56296102Y-8696000D03*
X56296102Y-5103898D03*
X52704000Y-5103898D03*
%TD*%
D14*
%TO.C,H1*%
X46700000Y-30800000D03*
%TD*%
D15*
%TO.C,J1*%
X28110000Y-26700000D03*
X33890000Y-26700000D03*
D16*
X26680000Y-26170000D03*
D17*
X26680000Y-30350000D03*
D16*
X35320000Y-26170000D03*
D17*
X35320000Y-30350000D03*
%TD*%
D14*
%TO.C,H2*%
X23000000Y-2600000D03*
%TD*%
%LPD*%
M02*
