%TF.GenerationSoftware,KiCad,Pcbnew,9.0.5*%
%TF.CreationDate,2026-09-17T15:51:22+01:00*%
%TF.ProjectId,phone_board,70686f6e-655f-4626-9f61-72642e6b6963,rev?*%
%TF.SameCoordinates,Original*%
%TF.FileFunction,Paste,Top*%
%TF.FilePolarity,Positive*%
%FSLAX46Y46*%
G04 Gerber Fmt 4.6, Leading zero omitted, Abs format (unit mm)*
G04 Created by KiCad (PCBNEW 9.0.5) date 2026-09-17 15:51:22*
%MOMM*%
%LPD*%
G01*
G04 APERTURE LIST*
G04 Aperture macros list*
%AMRoundRect*
0 Rectangle with rounded corners*
0 $1 Rounding radius*
0 $2 $3 $4 $5 $6 $7 $8 $9 X,Y pos of 4 corners*
0 Add a 4 corners polygon primitive as box body*
4,1,4,$2,$3,$4,$5,$6,$7,$8,$9,$2,$3,0*
0 Add four circle primitives for the rounded corners*
1,1,$1+$1,$2,$3*
1,1,$1+$1,$4,$5*
1,1,$1+$1,$6,$7*
1,1,$1+$1,$8,$9*
0 Add four rect primitives between the rounded corners*
20,1,$1+$1,$2,$3,$4,$5,0*
20,1,$1+$1,$4,$5,$6,$7,0*
20,1,$1+$1,$6,$7,$8,$9,0*
20,1,$1+$1,$8,$9,$2,$3,0*%
%AMOutline5P*
0 Free polygon, 5 corners , with rotation*
0 The origin of the aperture is its center*
0 number of corners: always 5*
0 $1 to $10 corner X, Y*
0 $11 Rotation angle, in degrees counterclockwise*
0 create outline with 5 corners*
4,1,5,$1,$2,$3,$4,$5,$6,$7,$8,$9,$10,$1,$2,$11*%
%AMOutline6P*
0 Free polygon, 6 corners , with rotation*
0 The origin of the aperture is its center*
0 number of corners: always 6*
0 $1 to $12 corner X, Y*
0 $13 Rotation angle, in degrees counterclockwise*
0 create outline with 6 corners*
4,1,6,$1,$2,$3,$4,$5,$6,$7,$8,$9,$10,$11,$12,$1,$2,$13*%
%AMOutline7P*
0 Free polygon, 7 corners , with rotation*
0 The origin of the aperture is its center*
0 number of corners: always 7*
0 $1 to $14 corner X, Y*
0 $15 Rotation angle, in degrees counterclockwise*
0 create outline with 7 corners*
4,1,7,$1,$2,$3,$4,$5,$6,$7,$8,$9,$10,$11,$12,$13,$14,$1,$2,$15*%
%AMOutline8P*
0 Free polygon, 8 corners , with rotation*
0 The origin of the aperture is its center*
0 number of corners: always 8*
0 $1 to $16 corner X, Y*
0 $17 Rotation angle, in degrees counterclockwise*
0 create outline with 8 corners*
4,1,8,$1,$2,$3,$4,$5,$6,$7,$8,$9,$10,$11,$12,$13,$14,$15,$16,$1,$2,$17*%
G04 Aperture macros list end*
%ADD10RoundRect,0.135000X0.185000X-0.135000X0.185000X0.135000X-0.185000X0.135000X-0.185000X-0.135000X0*%
%ADD11RoundRect,0.135000X-0.135000X-0.185000X0.135000X-0.185000X0.135000X0.185000X-0.135000X0.185000X0*%
%ADD12RoundRect,0.140000X0.170000X-0.140000X0.170000X0.140000X-0.170000X0.140000X-0.170000X-0.140000X0*%
%ADD13R,1.000000X0.750000*%
%ADD14R,0.600000X1.450000*%
%ADD15R,0.300000X1.450000*%
%ADD16RoundRect,0.225000X0.250000X-0.225000X0.250000X0.225000X-0.250000X0.225000X-0.250000X-0.225000X0*%
%ADD17RoundRect,0.140000X-0.140000X-0.170000X0.140000X-0.170000X0.140000X0.170000X-0.140000X0.170000X0*%
%ADD18R,0.500000X0.300000*%
%ADD19RoundRect,0.225000X-0.225000X-0.250000X0.225000X-0.250000X0.225000X0.250000X-0.225000X0.250000X0*%
%ADD20RoundRect,0.087500X0.250000X0.087500X-0.250000X0.087500X-0.250000X-0.087500X0.250000X-0.087500X0*%
%ADD21RoundRect,0.150000X-0.512500X-0.150000X0.512500X-0.150000X0.512500X0.150000X-0.512500X0.150000X0*%
%ADD22RoundRect,0.250000X0.250000X0.475000X-0.250000X0.475000X-0.250000X-0.475000X0.250000X-0.475000X0*%
%ADD23RoundRect,0.150000X0.150000X-0.587500X0.150000X0.587500X-0.150000X0.587500X-0.150000X-0.587500X0*%
%ADD24RoundRect,0.250000X-0.300000X-1.600000X0.300000X-1.600000X0.300000X1.600000X-0.300000X1.600000X0*%
%ADD25RoundRect,0.250000X-0.250000X-0.475000X0.250000X-0.475000X0.250000X0.475000X-0.250000X0.475000X0*%
%ADD26R,0.700000X0.700000*%
%ADD27RoundRect,0.087500X0.087500X-0.725000X0.087500X0.725000X-0.087500X0.725000X-0.087500X-0.725000X0*%
%ADD28RoundRect,0.250000X-0.250000X-1.500000X0.250000X-1.500000X0.250000X1.500000X-0.250000X1.500000X0*%
%ADD29RoundRect,0.250001X-0.499999X-1.449999X0.499999X-1.449999X0.499999X1.449999X-0.499999X1.449999X0*%
%ADD30RoundRect,0.160000X-0.160000X-0.160000X0.160000X-0.160000X0.160000X0.160000X-0.160000X0.160000X0*%
%ADD31RoundRect,0.062500X-0.375000X-0.062500X0.375000X-0.062500X0.375000X0.062500X-0.375000X0.062500X0*%
%ADD32RoundRect,0.062500X-0.062500X-0.375000X0.062500X-0.375000X0.062500X0.375000X-0.062500X0.375000X0*%
%ADD33R,0.400000X0.800000*%
%ADD34R,0.800000X0.400000*%
%ADD35Outline5P,-0.600000X0.204000X-0.204000X0.600000X0.600000X0.600000X0.600000X-0.600000X-0.600000X-0.600000X90.000000*%
%ADD36R,1.200000X1.200000*%
%ADD37R,0.800000X0.800000*%
%ADD38RoundRect,0.150000X0.150000X0.500000X-0.150000X0.500000X-0.150000X-0.500000X0.150000X-0.500000X0*%
%ADD39RoundRect,0.175000X0.350000X0.175000X-0.350000X0.175000X-0.350000X-0.175000X0.350000X-0.175000X0*%
G04 APERTURE END LIST*
D10*
%TO.C,R21*%
X53000000Y-7010000D03*
X53000000Y-5990000D03*
%TD*%
D11*
%TO.C,R19*%
X44490000Y-20400000D03*
X45510000Y-20400000D03*
%TD*%
%TO.C,R25*%
X51490000Y-20200000D03*
X52510000Y-20200000D03*
%TD*%
D12*
%TO.C,C15*%
X10600000Y-30480000D03*
X10600000Y-29520000D03*
%TD*%
%TO.C,C14*%
X54600000Y-11480000D03*
X54600000Y-10520000D03*
%TD*%
D11*
%TO.C,R6*%
X35490000Y-19000000D03*
X36510000Y-19000000D03*
%TD*%
D10*
%TO.C,R20*%
X51500000Y-7010000D03*
X51500000Y-5990000D03*
%TD*%
D13*
%TO.C,SW2*%
X26600000Y-16725000D03*
X32600000Y-16725000D03*
X26600000Y-20475000D03*
X32600000Y-20475000D03*
%TD*%
%TO.C,SW3*%
X19600000Y-29525000D03*
X25600000Y-29525000D03*
X19600000Y-33275000D03*
X25600000Y-33275000D03*
%TD*%
D10*
%TO.C,R11*%
X22500000Y-6510000D03*
X22500000Y-5490000D03*
%TD*%
D14*
%TO.C,J1*%
X29750000Y-28255000D03*
X30550000Y-28255000D03*
D15*
X31750000Y-28255000D03*
X32750000Y-28255000D03*
X33250000Y-28255000D03*
X34250000Y-28255000D03*
D14*
X35450000Y-28255000D03*
X36250000Y-28255000D03*
X36250000Y-28255000D03*
X35450000Y-28255000D03*
D15*
X34750000Y-28255000D03*
X33750000Y-28255000D03*
X32250000Y-28255000D03*
X31250000Y-28255000D03*
D14*
X30550000Y-28255000D03*
X29750000Y-28255000D03*
%TD*%
D12*
%TO.C,C13*%
X38200000Y-15480000D03*
X38200000Y-14520000D03*
%TD*%
D10*
%TO.C,R1*%
X29500000Y-26010000D03*
X29500000Y-24990000D03*
%TD*%
D11*
%TO.C,R26*%
X42990000Y-27200000D03*
X44010000Y-27200000D03*
%TD*%
%TO.C,R7*%
X35490000Y-17600000D03*
X36510000Y-17600000D03*
%TD*%
%TO.C,R27*%
X30990000Y-6200000D03*
X32010000Y-6200000D03*
%TD*%
D16*
%TO.C,C3*%
X46500000Y-24275000D03*
X46500000Y-22725000D03*
%TD*%
D17*
%TO.C,C9*%
X10520000Y-20600000D03*
X11480000Y-20600000D03*
%TD*%
D18*
%TO.C,U7*%
X7800000Y-29600000D03*
X7800000Y-30400000D03*
X9200000Y-30400000D03*
X9200000Y-29600000D03*
%TD*%
D10*
%TO.C,R12*%
X18000000Y-27910000D03*
X18000000Y-26890000D03*
%TD*%
%TO.C,R23*%
X50500000Y-23510000D03*
X50500000Y-22490000D03*
%TD*%
D19*
%TO.C,C2*%
X39225000Y-19300000D03*
X40775000Y-19300000D03*
%TD*%
D10*
%TO.C,R15*%
X51800000Y-11510000D03*
X51800000Y-10490000D03*
%TD*%
D16*
%TO.C,C5*%
X37000000Y-8775000D03*
X37000000Y-7225000D03*
%TD*%
D12*
%TO.C,C20*%
X54500000Y-6980000D03*
X54500000Y-6020000D03*
%TD*%
D20*
%TO.C,U4*%
X45212500Y-8500000D03*
X45212500Y-8000000D03*
X45212500Y-7500000D03*
X43787500Y-7500000D03*
X43787500Y-8000000D03*
X43787500Y-8500000D03*
%TD*%
D11*
%TO.C,R22*%
X50990000Y-15000000D03*
X52010000Y-15000000D03*
%TD*%
D10*
%TO.C,R2*%
X37600000Y-25110000D03*
X37600000Y-24090000D03*
%TD*%
D11*
%TO.C,R8*%
X46990000Y-7100000D03*
X48010000Y-7100000D03*
%TD*%
D10*
%TO.C,R13*%
X41000000Y-15510000D03*
X41000000Y-14490000D03*
%TD*%
D11*
%TO.C,R5*%
X40090000Y-32200000D03*
X41110000Y-32200000D03*
%TD*%
D21*
%TO.C,U3*%
X28362500Y-9550000D03*
X28362500Y-10500000D03*
X28362500Y-11450000D03*
X30637500Y-11450000D03*
X30637500Y-9550000D03*
%TD*%
D22*
%TO.C,C7*%
X41750000Y-11500000D03*
X39850000Y-11500000D03*
%TD*%
D17*
%TO.C,C16*%
X27920000Y-7600000D03*
X28880000Y-7600000D03*
%TD*%
D23*
%TO.C,Q1*%
X42650000Y-31237500D03*
X44550000Y-31237500D03*
X43600000Y-29362500D03*
%TD*%
D19*
%TO.C,C4*%
X28725000Y-14000000D03*
X30275000Y-14000000D03*
%TD*%
D24*
%TO.C,L1*%
X39300000Y-8000000D03*
X42300000Y-8000000D03*
%TD*%
D11*
%TO.C,R18*%
X46990000Y-19800000D03*
X48010000Y-19800000D03*
%TD*%
D17*
%TO.C,C11*%
X21520000Y-2600000D03*
X22480000Y-2600000D03*
%TD*%
D12*
%TO.C,C23*%
X53500000Y-23480000D03*
X53500000Y-22520000D03*
%TD*%
D25*
%TO.C,C6*%
X44050000Y-11000000D03*
X45950000Y-11000000D03*
%TD*%
D19*
%TO.C,C8*%
X7225000Y-20600000D03*
X8775000Y-20600000D03*
%TD*%
D11*
%TO.C,R4*%
X40090000Y-30600000D03*
X41110000Y-30600000D03*
%TD*%
%TO.C,R9*%
X46990000Y-8500000D03*
X48010000Y-8500000D03*
%TD*%
D10*
%TO.C,R10*%
X34500000Y-11510000D03*
X34500000Y-10490000D03*
%TD*%
D26*
%TO.C,D1*%
X24085000Y-2050000D03*
X24085000Y-3150000D03*
X25915000Y-3150000D03*
X25915000Y-2050000D03*
%TD*%
D10*
%TO.C,R14*%
X39600000Y-15510000D03*
X39600000Y-14490000D03*
%TD*%
D27*
%TO.C,U6*%
X46500000Y-17612500D03*
X47000000Y-17612500D03*
X47500000Y-17612500D03*
X48000000Y-17612500D03*
X48500000Y-17612500D03*
X48500000Y-13387500D03*
X48000000Y-13387500D03*
X47500000Y-13387500D03*
X47000000Y-13387500D03*
X46500000Y-13387500D03*
%TD*%
D12*
%TO.C,C12*%
X44500000Y-15980000D03*
X44500000Y-15020000D03*
%TD*%
D10*
%TO.C,R16*%
X53200000Y-11510000D03*
X53200000Y-10490000D03*
%TD*%
D21*
%TO.C,U1*%
X31862500Y-23250000D03*
X31862500Y-24200000D03*
X31862500Y-25150000D03*
X34137500Y-25150000D03*
X34137500Y-24200000D03*
X34137500Y-23250000D03*
%TD*%
D11*
%TO.C,R3*%
X40090000Y-29000000D03*
X41110000Y-29000000D03*
%TD*%
D25*
%TO.C,C1*%
X37250000Y-22000000D03*
X39150000Y-22000000D03*
%TD*%
D12*
%TO.C,C10*%
X24000000Y-6480000D03*
X24000000Y-5520000D03*
%TD*%
D10*
%TO.C,R24*%
X52000000Y-23510000D03*
X52000000Y-22490000D03*
%TD*%
D11*
%TO.C,R17*%
X43490000Y-18600000D03*
X44510000Y-18600000D03*
%TD*%
D28*
%TO.C,J2*%
X49000000Y-27150000D03*
X51000000Y-27150000D03*
D29*
X46650000Y-32900000D03*
X53350000Y-32900000D03*
%TD*%
D30*
%TO.C,U2*%
X42100000Y-23100000D03*
X42100000Y-23900000D03*
X42900000Y-23100000D03*
X42900000Y-23900000D03*
D31*
X41062500Y-22750000D03*
X41062500Y-23250000D03*
X41062500Y-23750000D03*
X41062500Y-24250000D03*
D32*
X41750000Y-24937500D03*
X42250000Y-24937500D03*
X42750000Y-24937500D03*
X43250000Y-24937500D03*
D31*
X43937500Y-24250000D03*
X43937500Y-23750000D03*
X43937500Y-23250000D03*
X43937500Y-22750000D03*
D32*
X43250000Y-22062500D03*
X42750000Y-22062500D03*
X42250000Y-22062500D03*
X41750000Y-22062500D03*
%TD*%
D33*
%TO.C,U5*%
X6400000Y-17500000D03*
X7250000Y-17500000D03*
X8100000Y-17500000D03*
X8950000Y-17500000D03*
X9800000Y-17500000D03*
X10650000Y-17500000D03*
X11500000Y-17500000D03*
X12350000Y-17500000D03*
X13200000Y-17500000D03*
X14050000Y-17500000D03*
X14900000Y-17500000D03*
X15750000Y-17500000D03*
X16600000Y-17500000D03*
X17450000Y-17500000D03*
X18300000Y-17500000D03*
D34*
X19350000Y-16450000D03*
X19350000Y-15600000D03*
X19350000Y-14750000D03*
X19350000Y-13900000D03*
X19350000Y-13050000D03*
X19350000Y-12200000D03*
X19350000Y-11350000D03*
X19350000Y-10500000D03*
X19350000Y-9650000D03*
X19350000Y-8800000D03*
X19350000Y-7950000D03*
X19350000Y-7100000D03*
X19350000Y-6250000D03*
X19350000Y-5400000D03*
X19350000Y-4550000D03*
D33*
X18300000Y-3500000D03*
X17450000Y-3500000D03*
X16600000Y-3500000D03*
X15750000Y-3500000D03*
X14900000Y-3500000D03*
X14050000Y-3500000D03*
X13200000Y-3500000D03*
X12350000Y-3500000D03*
X11500000Y-3500000D03*
X10650000Y-3500000D03*
X9800000Y-3500000D03*
X8950000Y-3500000D03*
X8100000Y-3500000D03*
X7250000Y-3500000D03*
X6400000Y-3500000D03*
D34*
X5350000Y-4550000D03*
X5350000Y-5400000D03*
X5350000Y-6250000D03*
X5350000Y-7100000D03*
X5350000Y-7950000D03*
X5350000Y-8800000D03*
X5350000Y-9650000D03*
X5350000Y-10500000D03*
X5350000Y-11350000D03*
X5350000Y-12200000D03*
X5350000Y-13050000D03*
X5350000Y-13900000D03*
X5350000Y-14750000D03*
X5350000Y-15600000D03*
X5350000Y-16450000D03*
D35*
X10700000Y-12150000D03*
D36*
X12350000Y-12150000D03*
X14000000Y-12150000D03*
X10700000Y-10500000D03*
X12350000Y-10500000D03*
X14000000Y-10500000D03*
X10700000Y-8850000D03*
X12350000Y-8850000D03*
X14000000Y-8850000D03*
D37*
X5350000Y-17500000D03*
X19350000Y-17500000D03*
X19350000Y-3500000D03*
X5350000Y-3500000D03*
%TD*%
D38*
%TO.C,SW1*%
X35250000Y-3750000D03*
X32250000Y-3750000D03*
X30750000Y-3750000D03*
D39*
X36675000Y-2900000D03*
X36675000Y-700000D03*
X29325000Y-2900000D03*
X29325000Y-700000D03*
%TD*%
M02*
