%TF.GenerationSoftware,KiCad,Pcbnew,9.0.5*%
%TF.CreationDate,2026-09-28T21:15:24+01:00*%
%TF.ProjectId,phone_board,70686f6e-655f-4626-9f61-72642e6b6963,rev?*%
%TF.SameCoordinates,Original*%
%TF.FileFunction,Copper,L3,Inr*%
%TF.FilePolarity,Positive*%
%FSLAX46Y46*%
G04 Gerber Fmt 4.6, Leading zero omitted, Abs format (unit mm)*
G04 Created by KiCad (PCBNEW 9.0.5) date 2026-09-28 21:15:24*
%MOMM*%
%LPD*%
G01*
G04 APERTURE LIST*
G04 Aperture macros list*
%AMHorizOval*
0 Thick line with rounded ends*
0 $1 width*
0 $2 $3 position (X,Y) of the first rounded end (center of the circle)*
0 $4 $5 position (X,Y) of the second rounded end (center of the circle)*
0 Add line between two ends*
20,1,$1,$2,$3,$4,$5,0*
0 Add two circle primitives to create the rounded ends*
1,1,$1,$2,$3*
1,1,$1,$4,$5*%
G04 Aperture macros list end*
%TA.AperFunction,HeatsinkPad*%
%ADD10O,1.000000X2.100000*%
%TD*%
%TA.AperFunction,HeatsinkPad*%
%ADD11O,1.000000X1.600000*%
%TD*%
%TA.AperFunction,ComponentPad*%
%ADD12HorizOval,1.200000X0.141421X0.141421X-0.141421X-0.141421X0*%
%TD*%
%TA.AperFunction,ComponentPad*%
%ADD13C,1.200000*%
%TD*%
%TA.AperFunction,ViaPad*%
%ADD14C,0.600000*%
%TD*%
%TA.AperFunction,ViaPad*%
%ADD15C,0.500000*%
%TD*%
%TA.AperFunction,Conductor*%
%ADD16C,0.400000*%
%TD*%
%TA.AperFunction,Conductor*%
%ADD17C,0.200000*%
%TD*%
%TA.AperFunction,Conductor*%
%ADD18C,0.500000*%
%TD*%
%TA.AperFunction,Conductor*%
%ADD19C,0.300000*%
%TD*%
G04 APERTURE END LIST*
D10*
%TO.N,/GND*%
%TO.C,J1*%
X19680000Y-26170000D03*
D11*
X19680000Y-30350000D03*
D10*
X28320000Y-26170000D03*
D11*
X28320000Y-30350000D03*
%TD*%
D12*
%TO.N,/+5V_HTR*%
%TO.C,S1*%
X54704000Y-8296000D03*
D13*
%TO.N,/CH4_RL*%
X58296102Y-8296000D03*
%TO.N,/+5V_HTR*%
X58296102Y-4703898D03*
%TO.N,/GND*%
X54704000Y-4703898D03*
%TD*%
D12*
%TO.N,/+5V_HTR*%
%TO.C,S2*%
X54704000Y-20296000D03*
D13*
%TO.N,/LPG_RL*%
X58296102Y-20296000D03*
%TO.N,/+5V_HTR*%
X58296102Y-16703898D03*
%TO.N,/GND*%
X54704000Y-16703898D03*
%TD*%
D14*
%TO.N,/GND*%
X11660000Y-21819999D03*
X46250000Y-26000000D03*
X44375000Y-20600000D03*
D15*
X11525000Y-7675000D03*
D14*
X34519999Y-9120000D03*
D15*
X13175000Y-9325000D03*
X45100000Y-23100000D03*
D14*
X54839999Y-26899999D03*
X6580000Y-21819999D03*
X38850000Y-12600000D03*
X48215500Y-5300000D03*
X49759999Y-24359999D03*
X49759999Y-26899999D03*
X46000000Y-11000000D03*
X24359999Y-11660000D03*
X14200000Y-26899999D03*
D15*
X11525000Y-9325000D03*
D14*
X42139999Y-4040000D03*
X49759999Y-1500000D03*
X9120000Y-21819999D03*
X54839999Y-1500000D03*
X35000000Y-7225000D03*
X49759999Y-16739999D03*
X14200000Y-21819999D03*
D15*
X45900000Y-23900000D03*
D14*
X25500000Y-14000000D03*
X40897800Y-25226000D03*
X57379999Y-26899999D03*
X21300000Y-21200000D03*
X52299999Y-29439999D03*
X20700000Y-15500000D03*
X47219999Y-1500000D03*
X44679999Y-1500000D03*
X25600000Y-18400000D03*
X52299999Y-21819999D03*
X14200000Y-24359999D03*
X52299999Y-1500000D03*
X21819999Y-9120000D03*
X42788000Y-6500000D03*
X8886480Y-17192734D03*
X14200000Y-29800000D03*
D15*
X13175000Y-7675000D03*
D14*
%TO.N,/VBUS*%
X21633500Y-24034500D03*
X47102200Y-21775900D03*
X25781800Y-21984500D03*
%TO.N,/USB_DP*%
X23300500Y-22147900D03*
X18363100Y-7650000D03*
%TO.N,/USB_DN*%
X17200200Y-8269200D03*
X19909800Y-20460800D03*
%TO.N,/BQ_TS*%
X42501000Y-27189000D03*
X43240600Y-22315500D03*
%TO.N,/VBAT*%
X32611100Y-8047900D03*
X41276700Y-23137400D03*
X39786000Y-15511600D03*
%TO.N,/BQ_EN1*%
X44842300Y-31392800D03*
X44981900Y-28839800D03*
%TO.N,/PGOOD_N*%
X48133700Y-24891400D03*
X42390900Y-16142900D03*
X15725800Y-13450100D03*
%TO.N,/CHG_N*%
X21084300Y-19358700D03*
X41887400Y-18422600D03*
X47226300Y-24831100D03*
%TO.N,/VSYS*%
X44900000Y-6100000D03*
X43620900Y-20395400D03*
X47828100Y-23498900D03*
X37300000Y-6100000D03*
%TO.N,/BQ_ISET*%
X43536600Y-29070800D03*
X44166600Y-22062500D03*
%TO.N,/+3V3*%
X30050000Y-6283300D03*
X31847700Y-1750000D03*
X10520000Y-20500000D03*
X16800000Y-25000000D03*
X44402100Y-15356500D03*
X23340900Y-15812100D03*
X47717500Y-16966000D03*
%TO.N,/PWR_EN*%
X29947700Y-15575100D03*
X26005600Y-15729400D03*
X37175100Y-4855500D03*
%TO.N,/HTR_EN*%
X17573800Y-14576500D03*
X34874100Y-11715900D03*
X43523000Y-7083000D03*
%TO.N,/+5V_HTR*%
X45990000Y-5000000D03*
X43050000Y-12300000D03*
%TO.N,/CH4_FB*%
X16066300Y-12415000D03*
X47509900Y-3109100D03*
%TO.N,/LPG_FB*%
X52510000Y-27387600D03*
X11556600Y-16359800D03*
%TO.N,/I2C_SDA*%
X47200000Y-12200000D03*
X45157700Y-20567400D03*
X4900000Y-27400000D03*
X15750000Y-16700000D03*
%TO.N,/I2C_SCL*%
X4900000Y-31600000D03*
X16600000Y-17900000D03*
X39046600Y-20796500D03*
X42601400Y-14043300D03*
%TO.N,/ADS_RDY*%
X43810700Y-18677000D03*
X20192400Y-17537700D03*
%TO.N,/LED_DIN*%
X31914000Y-3421100D03*
X15750000Y-2377200D03*
%TO.N,/TXD0*%
X20201700Y-848300D03*
X21592000Y-12442700D03*
%TO.N,/RXD0*%
X14829100Y-2378800D03*
X23608800Y-12708800D03*
%TO.N,/ESP_EN*%
X26037800Y-19941100D03*
X6474500Y-2354300D03*
%TO.N,/CH4_RL*%
X49163600Y-10339700D03*
%TO.N,/LPG_RL*%
X53768600Y-24221400D03*
%TO.N,/LPG_TAP*%
X47138900Y-17807500D03*
X47806900Y-20744100D03*
%TO.N,/HTR_SENSE*%
X46000000Y-14662400D03*
X46394000Y-2602800D03*
%TD*%
D16*
%TO.N,/VBUS*%
X47102200Y-21590300D02*
X45247400Y-19735500D01*
X47102200Y-21775900D02*
X47102200Y-21590300D01*
X21633500Y-24034500D02*
X24059800Y-24034500D01*
X43063500Y-19735500D02*
X40486500Y-22312500D01*
X25781800Y-22312500D02*
X25781800Y-21984500D01*
X24059800Y-24034500D02*
X25781800Y-22312500D01*
X45247400Y-19735500D02*
X43063500Y-19735500D01*
X40486500Y-22312500D02*
X25781800Y-22312500D01*
D17*
%TO.N,/USB_DP*%
X20372000Y-19426700D02*
X18251200Y-17305900D01*
X18363100Y-7886500D02*
X18363100Y-7650000D01*
X15169300Y-16955700D02*
X15169300Y-11080300D01*
X15519500Y-17305900D02*
X15169300Y-16955700D01*
X23300500Y-22147900D02*
X23093100Y-22147900D01*
X20372100Y-19426800D02*
X20372000Y-19426800D01*
X15169300Y-11080300D02*
X18363100Y-7886500D01*
X18251200Y-17305900D02*
X15519500Y-17305900D01*
X20372000Y-19426800D02*
X20372000Y-19426700D01*
X23093100Y-22147800D02*
X20372100Y-19426800D01*
X23093100Y-22147900D02*
X23093100Y-22147800D01*
%TO.N,/USB_DN*%
X18108800Y-20460700D02*
X19909800Y-20460700D01*
X17200200Y-8269200D02*
X14803700Y-10665700D01*
X14803700Y-17155600D02*
X18108800Y-20460700D01*
X14803700Y-10665700D02*
X14803700Y-17155600D01*
X19909800Y-20460700D02*
X19909800Y-20460800D01*
%TO.N,/BQ_TS*%
X43240600Y-26449400D02*
X42501000Y-27189000D01*
X43240600Y-22315500D02*
X43240600Y-26449400D01*
D18*
%TO.N,/VBAT*%
X37628800Y-15511600D02*
X32611100Y-10493900D01*
X32611100Y-10493900D02*
X32611100Y-8047900D01*
X39786000Y-15511600D02*
X37628800Y-15511600D01*
D17*
%TO.N,/PGOOD_N*%
X20554800Y-13758500D02*
X16034200Y-13758500D01*
X21746100Y-14949800D02*
X20554800Y-13758500D01*
X16034200Y-13758500D02*
X15725800Y-13450100D01*
X42390900Y-16142900D02*
X29039600Y-16142900D01*
X29039600Y-16142900D02*
X27846500Y-14949800D01*
X27846500Y-14949800D02*
X21746100Y-14949800D01*
%TO.N,/CHG_N*%
X26137000Y-19008100D02*
X26722500Y-18422600D01*
X26722500Y-18422600D02*
X41887400Y-18422600D01*
X21084300Y-19358700D02*
X21434900Y-19008100D01*
X21434900Y-19008100D02*
X26137000Y-19008100D01*
D18*
%TO.N,/VSYS*%
X47261500Y-22609000D02*
X46941400Y-22609000D01*
X48508600Y-11336400D02*
X44900000Y-7727800D01*
X43620900Y-20842500D02*
X43620900Y-20395400D01*
X46941400Y-22609000D02*
X45641900Y-21309500D01*
X47261500Y-22609000D02*
X48508600Y-21361900D01*
X44087900Y-21309500D02*
X43620900Y-20842500D01*
X45641900Y-21309500D02*
X44087900Y-21309500D01*
X48508600Y-21361900D02*
X48508600Y-11336400D01*
X47261500Y-22609000D02*
X47261500Y-22932300D01*
X44900000Y-7727800D02*
X44900000Y-6100000D01*
X47261500Y-22932300D02*
X47828100Y-23498900D01*
D17*
%TO.N,/BQ_ISET*%
X44166600Y-28440800D02*
X44166600Y-22062500D01*
X43536600Y-29070800D02*
X44166600Y-28440800D01*
D19*
%TO.N,/+3V3*%
X30050000Y-6283300D02*
X30050000Y-3547700D01*
X30050000Y-3547700D02*
X31847700Y-1750000D01*
D17*
%TO.N,/PWR_EN*%
X37175100Y-4855500D02*
X34985800Y-4855500D01*
X29947700Y-9893600D02*
X29947700Y-15575100D01*
X34985800Y-4855500D02*
X29947700Y-9893600D01*
%TO.N,/HTR_EN*%
X38890100Y-11715900D02*
X34874100Y-11715900D01*
X43523000Y-7083000D02*
X38890100Y-11715900D01*
D18*
%TO.N,/+5V_HTR*%
X53532200Y-9467800D02*
X52192900Y-9467800D01*
X54704000Y-20296000D02*
X52192900Y-17784900D01*
X58296100Y-16703900D02*
X54704000Y-20296000D01*
X58296100Y-4703900D02*
X54704000Y-8296000D01*
X52192900Y-9467800D02*
X50457800Y-9467800D01*
X54704000Y-8296000D02*
X53532200Y-9467800D01*
X52192900Y-17784900D02*
X52192900Y-9467800D01*
X50457800Y-9467800D02*
X45990000Y-5000000D01*
D17*
%TO.N,/CH4_FB*%
X25186500Y-13388300D02*
X17039600Y-13388300D01*
X17039600Y-13388300D02*
X16066300Y-12415000D01*
X47464500Y-3154500D02*
X35420300Y-3154500D01*
X35420300Y-3154500D02*
X25186500Y-13388300D01*
X47509900Y-3109100D02*
X47464500Y-3154500D01*
%TO.N,/LPG_FB*%
X27857200Y-27500400D02*
X29998200Y-29641400D01*
X12516300Y-16359800D02*
X23656900Y-27500400D01*
X29998200Y-29641400D02*
X50256200Y-29641400D01*
X23656900Y-27500400D02*
X27857200Y-27500400D01*
X11556600Y-16359800D02*
X12516300Y-16359800D01*
X50256200Y-29641400D02*
X52510000Y-27387600D01*
%TO.N,/I2C_SDA*%
X47200000Y-12200000D02*
X47200000Y-16700000D01*
X47200000Y-16700000D02*
X15750000Y-16700000D01*
%TO.N,/I2C_SCL*%
X23521100Y-22727300D02*
X24244600Y-22003800D01*
X20020300Y-19572400D02*
X20715200Y-20267300D01*
X24244600Y-20953000D02*
X25837800Y-19359800D01*
X16600000Y-17900000D02*
X18272300Y-19572300D01*
X22046200Y-22727300D02*
X23521100Y-22727300D01*
X20715300Y-20267300D02*
X20715300Y-21396400D01*
X20715300Y-21396400D02*
X22046200Y-22727300D01*
X20020300Y-19572300D02*
X20020300Y-19572400D01*
X24244600Y-22003800D02*
X24244600Y-20953000D01*
X37247000Y-18996900D02*
X39046600Y-20796500D01*
X26779900Y-19359800D02*
X27142800Y-18996900D01*
X20715200Y-20267300D02*
X20715300Y-20267300D01*
X25837800Y-19359800D02*
X26779900Y-19359800D01*
X18272300Y-19572300D02*
X20020300Y-19572300D01*
X27142800Y-18996900D02*
X37247000Y-18996900D01*
%TO.N,/ADS_RDY*%
X42671400Y-17537700D02*
X43810700Y-18677000D01*
X20192400Y-17537700D02*
X42671400Y-17537700D01*
%TO.N,/TXD0*%
X20201700Y-11052400D02*
X21592000Y-12442700D01*
X20201700Y-848300D02*
X20201700Y-11052400D01*
%TO.N,/RXD0*%
X18914900Y-6464600D02*
X18914900Y-10606500D01*
X14829100Y-2378800D02*
X18914900Y-6464600D01*
X21307000Y-12998600D02*
X23319000Y-12998600D01*
X23319000Y-12998600D02*
X23608800Y-12708800D01*
X18914900Y-10606500D02*
X21307000Y-12998600D01*
%TO.N,/ESP_EN*%
X19732800Y-23079000D02*
X23666700Y-23079000D01*
X6474500Y-9820700D02*
X19732800Y-23079000D01*
X26037800Y-20707900D02*
X26037800Y-19941100D01*
X23666700Y-23079000D02*
X26037800Y-20707900D01*
X6474500Y-2354300D02*
X6474500Y-9820700D01*
%TO.N,/LPG_RL*%
X54370700Y-24221400D02*
X53768600Y-24221400D01*
X58296100Y-20296000D02*
X54370700Y-24221400D01*
%TO.N,/LPG_TAP*%
X47138900Y-20076100D02*
X47806900Y-20744100D01*
X47138900Y-17807500D02*
X47138900Y-20076100D01*
%TO.N,/HTR_SENSE*%
X46000000Y-14662400D02*
X44305000Y-12967400D01*
X48073600Y-3325800D02*
X48073600Y-2798600D01*
X46453600Y-2543200D02*
X46394000Y-2602800D01*
X46266400Y-3931200D02*
X47468200Y-3931200D01*
X47818200Y-2543200D02*
X46453600Y-2543200D01*
X48073600Y-2798600D02*
X47818200Y-2543200D01*
X44305000Y-5892600D02*
X46266400Y-3931200D01*
X44305000Y-12967400D02*
X44305000Y-5892600D01*
X47468200Y-3931200D02*
X48073600Y-3325800D01*
%TD*%
%TA.AperFunction,Conductor*%
%TO.N,/GND*%
G36*
X19790160Y-319407D02*
G01*
X19826124Y-368907D01*
X19826124Y-430093D01*
X19801974Y-469501D01*
X19761191Y-510285D01*
X19761188Y-510288D01*
X19761187Y-510289D01*
X19688717Y-635810D01*
X19651200Y-775825D01*
X19651200Y-920774D01*
X19688717Y-1060789D01*
X19761187Y-1186310D01*
X19761189Y-1186312D01*
X19761191Y-1186315D01*
X19822205Y-1247329D01*
X19849981Y-1301844D01*
X19851200Y-1317331D01*
X19851200Y-10808110D01*
X19832293Y-10866301D01*
X19782793Y-10902265D01*
X19721607Y-10902265D01*
X19682196Y-10878114D01*
X19294396Y-10490314D01*
X19266619Y-10435797D01*
X19265400Y-10420310D01*
X19265400Y-6418457D01*
X19265400Y-6418456D01*
X19241514Y-6329312D01*
X19231799Y-6312485D01*
X19231798Y-6312483D01*
X19231798Y-6312482D01*
X19211432Y-6277208D01*
X19195370Y-6249388D01*
X15973632Y-3027650D01*
X15945855Y-2973133D01*
X15955426Y-2912701D01*
X15994135Y-2871910D01*
X16088015Y-2817709D01*
X16190509Y-2715215D01*
X16190512Y-2715210D01*
X16262982Y-2589689D01*
X16262982Y-2589687D01*
X16262984Y-2589685D01*
X16300500Y-2449675D01*
X16300500Y-2304725D01*
X16262984Y-2164715D01*
X16262982Y-2164712D01*
X16262982Y-2164710D01*
X16190512Y-2039189D01*
X16190510Y-2039187D01*
X16190509Y-2039185D01*
X16088015Y-1936691D01*
X16088012Y-1936689D01*
X16088010Y-1936687D01*
X15962488Y-1864217D01*
X15962489Y-1864217D01*
X15932896Y-1856287D01*
X15822475Y-1826700D01*
X15677525Y-1826700D01*
X15622978Y-1841316D01*
X15537510Y-1864217D01*
X15411989Y-1936687D01*
X15411983Y-1936692D01*
X15358751Y-1989923D01*
X15304234Y-2017699D01*
X15243802Y-2008127D01*
X15218748Y-1989924D01*
X15167115Y-1938291D01*
X15167112Y-1938289D01*
X15167110Y-1938287D01*
X15041588Y-1865817D01*
X15041589Y-1865817D01*
X15011996Y-1857887D01*
X14901575Y-1828300D01*
X14756625Y-1828300D01*
X14694890Y-1844841D01*
X14616610Y-1865817D01*
X14491089Y-1938287D01*
X14388587Y-2040789D01*
X14316117Y-2166310D01*
X14278600Y-2306325D01*
X14278600Y-2451274D01*
X14316117Y-2591289D01*
X14388587Y-2716810D01*
X14388589Y-2716812D01*
X14388591Y-2716815D01*
X14491085Y-2819309D01*
X14491087Y-2819310D01*
X14491089Y-2819312D01*
X14616611Y-2891782D01*
X14616612Y-2891782D01*
X14616615Y-2891784D01*
X14756625Y-2929300D01*
X14842910Y-2929300D01*
X14901101Y-2948207D01*
X14912914Y-2958296D01*
X18535404Y-6580786D01*
X18563181Y-6635303D01*
X18564400Y-6650790D01*
X18564400Y-7004999D01*
X18545493Y-7063190D01*
X18495993Y-7099154D01*
X18439781Y-7100627D01*
X18435575Y-7099500D01*
X18290625Y-7099500D01*
X18228890Y-7116041D01*
X18150610Y-7137017D01*
X18025089Y-7209487D01*
X17922587Y-7311989D01*
X17850117Y-7437510D01*
X17812600Y-7577525D01*
X17812600Y-7722477D01*
X17844053Y-7839858D01*
X17842970Y-7860525D01*
X17846208Y-7880969D01*
X17841405Y-7890394D01*
X17840852Y-7900960D01*
X17818431Y-7935486D01*
X17798564Y-7955353D01*
X17744047Y-7983130D01*
X17683615Y-7973559D01*
X17642823Y-7934847D01*
X17640709Y-7931185D01*
X17538215Y-7828691D01*
X17538212Y-7828689D01*
X17538210Y-7828687D01*
X17412688Y-7756217D01*
X17412689Y-7756217D01*
X17383096Y-7748287D01*
X17272675Y-7718700D01*
X17127725Y-7718700D01*
X17065990Y-7735241D01*
X16987710Y-7756217D01*
X16862189Y-7828687D01*
X16759687Y-7931189D01*
X16687217Y-8056710D01*
X16649700Y-8196725D01*
X16649700Y-8283010D01*
X16630793Y-8341201D01*
X16620704Y-8353014D01*
X14523230Y-10450488D01*
X14497943Y-10494287D01*
X14484038Y-10518370D01*
X14477086Y-10530411D01*
X14453200Y-10619557D01*
X14453200Y-17064710D01*
X14434293Y-17122901D01*
X14384793Y-17158865D01*
X14323607Y-17158865D01*
X14284196Y-17134714D01*
X6853996Y-9704514D01*
X6826219Y-9649997D01*
X6825000Y-9634510D01*
X6825000Y-2823331D01*
X6843907Y-2765140D01*
X6853990Y-2753333D01*
X6915009Y-2692315D01*
X6936249Y-2655527D01*
X6987482Y-2566789D01*
X6987482Y-2566787D01*
X6987484Y-2566785D01*
X7025000Y-2426775D01*
X7025000Y-2281825D01*
X6987484Y-2141815D01*
X6987482Y-2141812D01*
X6987482Y-2141810D01*
X6915012Y-2016289D01*
X6915010Y-2016287D01*
X6915009Y-2016285D01*
X6812515Y-1913791D01*
X6812512Y-1913789D01*
X6812510Y-1913787D01*
X6686988Y-1841317D01*
X6686989Y-1841317D01*
X6616670Y-1822475D01*
X6546975Y-1803800D01*
X6402025Y-1803800D01*
X6340290Y-1820341D01*
X6262010Y-1841317D01*
X6136489Y-1913787D01*
X6033987Y-2016289D01*
X5961517Y-2141810D01*
X5924000Y-2281825D01*
X5924000Y-2426774D01*
X5961517Y-2566789D01*
X6033987Y-2692310D01*
X6033989Y-2692312D01*
X6033991Y-2692315D01*
X6095005Y-2753329D01*
X6122781Y-2807844D01*
X6124000Y-2823331D01*
X6124000Y-9866844D01*
X6147886Y-9955988D01*
X6194030Y-10035912D01*
X9013627Y-12855509D01*
X11830003Y-15671885D01*
X11857780Y-15726402D01*
X11848209Y-15786834D01*
X11804944Y-15830099D01*
X11744512Y-15839670D01*
X11734382Y-15837517D01*
X11629075Y-15809300D01*
X11484125Y-15809300D01*
X11440181Y-15821075D01*
X11344110Y-15846817D01*
X11218589Y-15919287D01*
X11116087Y-16021789D01*
X11043617Y-16147310D01*
X11020117Y-16235013D01*
X11006100Y-16287325D01*
X11006100Y-16432275D01*
X11021298Y-16488993D01*
X11043617Y-16572289D01*
X11116087Y-16697810D01*
X11116089Y-16697812D01*
X11116091Y-16697815D01*
X11218585Y-16800309D01*
X11218587Y-16800310D01*
X11218589Y-16800312D01*
X11344111Y-16872782D01*
X11344112Y-16872782D01*
X11344115Y-16872784D01*
X11484125Y-16910300D01*
X11484126Y-16910300D01*
X11629074Y-16910300D01*
X11629075Y-16910300D01*
X11769085Y-16872784D01*
X11769087Y-16872782D01*
X11769089Y-16872782D01*
X11894610Y-16800312D01*
X11894610Y-16800311D01*
X11894615Y-16800309D01*
X11925122Y-16769802D01*
X11955629Y-16739296D01*
X12010146Y-16711519D01*
X12025632Y-16710300D01*
X12330110Y-16710300D01*
X12388301Y-16729207D01*
X12400114Y-16739296D01*
X23441688Y-27780870D01*
X23521612Y-27827014D01*
X23610756Y-27850900D01*
X23610757Y-27850900D01*
X23703044Y-27850900D01*
X27671010Y-27850900D01*
X27729201Y-27869807D01*
X27741014Y-27879896D01*
X29717731Y-29856612D01*
X29717730Y-29856612D01*
X29782987Y-29921868D01*
X29782989Y-29921870D01*
X29804352Y-29934204D01*
X29862912Y-29968014D01*
X29952056Y-29991900D01*
X29952058Y-29991900D01*
X50302342Y-29991900D01*
X50302344Y-29991900D01*
X50391488Y-29968014D01*
X50471412Y-29921870D01*
X50495638Y-29897644D01*
X55199500Y-29897644D01*
X55199500Y-30102355D01*
X55231521Y-30304529D01*
X55294780Y-30499219D01*
X55387712Y-30681609D01*
X55387714Y-30681613D01*
X55508029Y-30847213D01*
X55508031Y-30847215D01*
X55508034Y-30847219D01*
X55652781Y-30991966D01*
X55652784Y-30991968D01*
X55652786Y-30991970D01*
X55818386Y-31112285D01*
X55818390Y-31112287D01*
X56000781Y-31205220D01*
X56195466Y-31268477D01*
X56195467Y-31268477D01*
X56195470Y-31268478D01*
X56397645Y-31300500D01*
X56397648Y-31300500D01*
X56602355Y-31300500D01*
X56804529Y-31268478D01*
X56804530Y-31268477D01*
X56804534Y-31268477D01*
X56999219Y-31205220D01*
X57181610Y-31112287D01*
X57347219Y-30991966D01*
X57491966Y-30847219D01*
X57612287Y-30681610D01*
X57705220Y-30499219D01*
X57768477Y-30304534D01*
X57800500Y-30102352D01*
X57800500Y-29897648D01*
X57800500Y-29897644D01*
X57768478Y-29695470D01*
X57768477Y-29695466D01*
X57705220Y-29500781D01*
X57612287Y-29318390D01*
X57612285Y-29318386D01*
X57491970Y-29152786D01*
X57491968Y-29152784D01*
X57491966Y-29152781D01*
X57347219Y-29008034D01*
X57347215Y-29008031D01*
X57347213Y-29008029D01*
X57181613Y-28887714D01*
X57181609Y-28887712D01*
X56999219Y-28794780D01*
X56804529Y-28731521D01*
X56602355Y-28699500D01*
X56602352Y-28699500D01*
X56397648Y-28699500D01*
X56397645Y-28699500D01*
X56195470Y-28731521D01*
X56000780Y-28794780D01*
X55818390Y-28887712D01*
X55818386Y-28887714D01*
X55652786Y-29008029D01*
X55508029Y-29152786D01*
X55387714Y-29318386D01*
X55387712Y-29318390D01*
X55294780Y-29500780D01*
X55231521Y-29695470D01*
X55199500Y-29897644D01*
X50495638Y-29897644D01*
X52426186Y-27967096D01*
X52480703Y-27939319D01*
X52496190Y-27938100D01*
X52582474Y-27938100D01*
X52582475Y-27938100D01*
X52722485Y-27900584D01*
X52722487Y-27900582D01*
X52722489Y-27900582D01*
X52848010Y-27828112D01*
X52848010Y-27828111D01*
X52848015Y-27828109D01*
X52950509Y-27725615D01*
X52950512Y-27725610D01*
X53022982Y-27600089D01*
X53022982Y-27600087D01*
X53022984Y-27600085D01*
X53060500Y-27460075D01*
X53060500Y-27315125D01*
X53022984Y-27175115D01*
X53022982Y-27175112D01*
X53022982Y-27175110D01*
X52950512Y-27049589D01*
X52950510Y-27049587D01*
X52950509Y-27049585D01*
X52848015Y-26947091D01*
X52848012Y-26947089D01*
X52848010Y-26947087D01*
X52722488Y-26874617D01*
X52722489Y-26874617D01*
X52692896Y-26866687D01*
X52582475Y-26837100D01*
X52437525Y-26837100D01*
X52385706Y-26850985D01*
X52297510Y-26874617D01*
X52171989Y-26947087D01*
X52069487Y-27049589D01*
X51997017Y-27175110D01*
X51959500Y-27315125D01*
X51959500Y-27401410D01*
X51940593Y-27459601D01*
X51930504Y-27471414D01*
X50140014Y-29261904D01*
X50085497Y-29289681D01*
X50070010Y-29290900D01*
X45528593Y-29290900D01*
X45470402Y-29271993D01*
X45434438Y-29222493D01*
X45434438Y-29161307D01*
X45442856Y-29142400D01*
X45494883Y-29052286D01*
X45494884Y-29052285D01*
X45532400Y-28912275D01*
X45532400Y-28767325D01*
X45494884Y-28627315D01*
X45494882Y-28627312D01*
X45494882Y-28627310D01*
X45422412Y-28501789D01*
X45422410Y-28501787D01*
X45422409Y-28501785D01*
X45319915Y-28399291D01*
X45319912Y-28399289D01*
X45319910Y-28399287D01*
X45194388Y-28326817D01*
X45194389Y-28326817D01*
X45142081Y-28312801D01*
X45054375Y-28289300D01*
X44909425Y-28289300D01*
X44865697Y-28301017D01*
X44769410Y-28326817D01*
X44665600Y-28386753D01*
X44605752Y-28399475D01*
X44549856Y-28374588D01*
X44519263Y-28321600D01*
X44517100Y-28301017D01*
X44517100Y-24758625D01*
X46675800Y-24758625D01*
X46675800Y-24903575D01*
X46691957Y-24963874D01*
X46713317Y-25043589D01*
X46785787Y-25169110D01*
X46785789Y-25169112D01*
X46785791Y-25169115D01*
X46888285Y-25271609D01*
X46888287Y-25271610D01*
X46888289Y-25271612D01*
X47013811Y-25344082D01*
X47013812Y-25344082D01*
X47013815Y-25344084D01*
X47153825Y-25381600D01*
X47153826Y-25381600D01*
X47298774Y-25381600D01*
X47298775Y-25381600D01*
X47438785Y-25344084D01*
X47438787Y-25344082D01*
X47438789Y-25344082D01*
X47564315Y-25271609D01*
X47579845Y-25256079D01*
X47634361Y-25228300D01*
X47694793Y-25237870D01*
X47719850Y-25256074D01*
X47795685Y-25331909D01*
X47795687Y-25331910D01*
X47795689Y-25331912D01*
X47921211Y-25404382D01*
X47921212Y-25404382D01*
X47921215Y-25404384D01*
X48061225Y-25441900D01*
X48061226Y-25441900D01*
X48206174Y-25441900D01*
X48206175Y-25441900D01*
X48346185Y-25404384D01*
X48346187Y-25404382D01*
X48346189Y-25404382D01*
X48471710Y-25331912D01*
X48471710Y-25331911D01*
X48471715Y-25331909D01*
X48574209Y-25229415D01*
X48583984Y-25212485D01*
X48646682Y-25103889D01*
X48646682Y-25103887D01*
X48646684Y-25103885D01*
X48684200Y-24963875D01*
X48684200Y-24818925D01*
X48646684Y-24678915D01*
X48646682Y-24678912D01*
X48646682Y-24678910D01*
X48574212Y-24553389D01*
X48574210Y-24553387D01*
X48574209Y-24553385D01*
X48471715Y-24450891D01*
X48471712Y-24450889D01*
X48471710Y-24450887D01*
X48346188Y-24378417D01*
X48346189Y-24378417D01*
X48316596Y-24370487D01*
X48206175Y-24340900D01*
X48061225Y-24340900D01*
X47999490Y-24357441D01*
X47921210Y-24378417D01*
X47795684Y-24450891D01*
X47780149Y-24466425D01*
X47725631Y-24494200D01*
X47665200Y-24484625D01*
X47640148Y-24466424D01*
X47564315Y-24390591D01*
X47564312Y-24390589D01*
X47564310Y-24390587D01*
X47438788Y-24318117D01*
X47438789Y-24318117D01*
X47348317Y-24293875D01*
X47298775Y-24280600D01*
X47153825Y-24280600D01*
X47104283Y-24293875D01*
X47013810Y-24318117D01*
X46888289Y-24390587D01*
X46785787Y-24493089D01*
X46713317Y-24618610D01*
X46682296Y-24734382D01*
X46675800Y-24758625D01*
X44517100Y-24758625D01*
X44517100Y-24148925D01*
X53218100Y-24148925D01*
X53218100Y-24293875D01*
X53239172Y-24372515D01*
X53255617Y-24433889D01*
X53328087Y-24559410D01*
X53328089Y-24559412D01*
X53328091Y-24559415D01*
X53430585Y-24661909D01*
X53430587Y-24661910D01*
X53430589Y-24661912D01*
X53556111Y-24734382D01*
X53556112Y-24734382D01*
X53556115Y-24734384D01*
X53696125Y-24771900D01*
X53696126Y-24771900D01*
X53841074Y-24771900D01*
X53841075Y-24771900D01*
X53981085Y-24734384D01*
X53981087Y-24734382D01*
X53981089Y-24734382D01*
X54106610Y-24661912D01*
X54106610Y-24661911D01*
X54106615Y-24661909D01*
X54149914Y-24618610D01*
X54167629Y-24600896D01*
X54222146Y-24573119D01*
X54237632Y-24571900D01*
X54416842Y-24571900D01*
X54416844Y-24571900D01*
X54505988Y-24548014D01*
X54516612Y-24541880D01*
X54585912Y-24501870D01*
X57949244Y-21138536D01*
X58003759Y-21110761D01*
X58043129Y-21113472D01*
X58043250Y-21112867D01*
X58047968Y-21113805D01*
X58047990Y-21113807D01*
X58048017Y-21113815D01*
X58048018Y-21113815D01*
X58048020Y-21113816D01*
X58212335Y-21146500D01*
X58212336Y-21146500D01*
X58379868Y-21146500D01*
X58379869Y-21146500D01*
X58544184Y-21113816D01*
X58698965Y-21049703D01*
X58838264Y-20956626D01*
X58956728Y-20838162D01*
X59049805Y-20698863D01*
X59113918Y-20544082D01*
X59146602Y-20379767D01*
X59146602Y-20212233D01*
X59113918Y-20047918D01*
X59049805Y-19893137D01*
X58956728Y-19753838D01*
X58838264Y-19635374D01*
X58698965Y-19542297D01*
X58698966Y-19542297D01*
X58698964Y-19542296D01*
X58544187Y-19478185D01*
X58544181Y-19478183D01*
X58379871Y-19445500D01*
X58379869Y-19445500D01*
X58212335Y-19445500D01*
X58212332Y-19445500D01*
X58048022Y-19478183D01*
X58048016Y-19478185D01*
X57893239Y-19542296D01*
X57753940Y-19635374D01*
X57753936Y-19635377D01*
X57635479Y-19753834D01*
X57635476Y-19753838D01*
X57542398Y-19893137D01*
X57478287Y-20047914D01*
X57478285Y-20047920D01*
X57445602Y-20212230D01*
X57445602Y-20379769D01*
X57478288Y-20544093D01*
X57478301Y-20544135D01*
X57478300Y-20544154D01*
X57479235Y-20548852D01*
X57478203Y-20549057D01*
X57477085Y-20605308D01*
X57453561Y-20642855D01*
X54281074Y-23815343D01*
X54226557Y-23843120D01*
X54166125Y-23833549D01*
X54141069Y-23815345D01*
X54106615Y-23780891D01*
X54106612Y-23780889D01*
X54106610Y-23780887D01*
X53981088Y-23708417D01*
X53981089Y-23708417D01*
X53936573Y-23696489D01*
X53841075Y-23670900D01*
X53696125Y-23670900D01*
X53635043Y-23687267D01*
X53556110Y-23708417D01*
X53430589Y-23780887D01*
X53328087Y-23883389D01*
X53255617Y-24008910D01*
X53218100Y-24148925D01*
X44517100Y-24148925D01*
X44517100Y-22531531D01*
X44536007Y-22473340D01*
X44546090Y-22461533D01*
X44607109Y-22400515D01*
X44679584Y-22274985D01*
X44717100Y-22134975D01*
X44717100Y-21990025D01*
X44702255Y-21934623D01*
X44705458Y-21873521D01*
X44743963Y-21825971D01*
X44797882Y-21810000D01*
X45393578Y-21810000D01*
X45451769Y-21828907D01*
X45463582Y-21838996D01*
X46540900Y-22916314D01*
X46540899Y-22916314D01*
X46604039Y-22979453D01*
X46634086Y-23009500D01*
X46748214Y-23075392D01*
X46748216Y-23075392D01*
X46753472Y-23078427D01*
X46791153Y-23120276D01*
X46791863Y-23119867D01*
X46793790Y-23123205D01*
X46794413Y-23123897D01*
X46795061Y-23125407D01*
X46860996Y-23239609D01*
X46861000Y-23239614D01*
X47289896Y-23668511D01*
X47311470Y-23705872D01*
X47312633Y-23705391D01*
X47315117Y-23711388D01*
X47387587Y-23836910D01*
X47387589Y-23836912D01*
X47387591Y-23836915D01*
X47490085Y-23939409D01*
X47490087Y-23939410D01*
X47490089Y-23939412D01*
X47615611Y-24011882D01*
X47615612Y-24011882D01*
X47615615Y-24011884D01*
X47755625Y-24049400D01*
X47755626Y-24049400D01*
X47900574Y-24049400D01*
X47900575Y-24049400D01*
X48040585Y-24011884D01*
X48166115Y-23939409D01*
X48268609Y-23836915D01*
X48277212Y-23822015D01*
X48341082Y-23711389D01*
X48341082Y-23711387D01*
X48341084Y-23711385D01*
X48378600Y-23571375D01*
X48378600Y-23426425D01*
X48341084Y-23286415D01*
X48341082Y-23286412D01*
X48341082Y-23286410D01*
X48268612Y-23160889D01*
X48268610Y-23160887D01*
X48268609Y-23160885D01*
X48166115Y-23058391D01*
X48166112Y-23058389D01*
X48166110Y-23058387D01*
X48040588Y-22985917D01*
X48034591Y-22983433D01*
X48035072Y-22982270D01*
X47997710Y-22960696D01*
X47877667Y-22840653D01*
X47849890Y-22786136D01*
X47859461Y-22725704D01*
X47877661Y-22700652D01*
X48909100Y-21669214D01*
X48922223Y-21646485D01*
X48974990Y-21555090D01*
X48974990Y-21555088D01*
X48974992Y-21555086D01*
X49009100Y-21427792D01*
X49009100Y-21296007D01*
X49009100Y-11270508D01*
X48974992Y-11143214D01*
X48974990Y-11143211D01*
X48974990Y-11143209D01*
X48909102Y-11029089D01*
X48905379Y-11024237D01*
X48884952Y-10966562D01*
X48902327Y-10907896D01*
X48950867Y-10870646D01*
X49009539Y-10868339D01*
X49091125Y-10890200D01*
X49091126Y-10890200D01*
X49236074Y-10890200D01*
X49236075Y-10890200D01*
X49376085Y-10852684D01*
X49376087Y-10852682D01*
X49376089Y-10852682D01*
X49501610Y-10780212D01*
X49501610Y-10780211D01*
X49501615Y-10780209D01*
X49604109Y-10677715D01*
X49651158Y-10596224D01*
X49676582Y-10552189D01*
X49676582Y-10552187D01*
X49676584Y-10552185D01*
X49714100Y-10412175D01*
X49714100Y-10267225D01*
X49676584Y-10127215D01*
X49676582Y-10127212D01*
X49676582Y-10127210D01*
X49604112Y-10001689D01*
X49604110Y-10001687D01*
X49604109Y-10001685D01*
X49501615Y-9899191D01*
X49501612Y-9899189D01*
X49501610Y-9899187D01*
X49376088Y-9826717D01*
X49376089Y-9826717D01*
X49346496Y-9818787D01*
X49236075Y-9789200D01*
X49091125Y-9789200D01*
X49029390Y-9805741D01*
X48951110Y-9826717D01*
X48825589Y-9899187D01*
X48723087Y-10001689D01*
X48650617Y-10127210D01*
X48650616Y-10127215D01*
X48613100Y-10267225D01*
X48613100Y-10412175D01*
X48626268Y-10461318D01*
X48634935Y-10493663D01*
X48631733Y-10554764D01*
X48593227Y-10602314D01*
X48534127Y-10618150D01*
X48477005Y-10596224D01*
X48469304Y-10589290D01*
X45429496Y-7549482D01*
X45401719Y-7494965D01*
X45400500Y-7479478D01*
X45400500Y-6360634D01*
X45411666Y-6318963D01*
X45410500Y-6318480D01*
X45412977Y-6312496D01*
X45412984Y-6312485D01*
X45450500Y-6172475D01*
X45450500Y-6027525D01*
X45412984Y-5887515D01*
X45412982Y-5887512D01*
X45412982Y-5887510D01*
X45340512Y-5761989D01*
X45340510Y-5761987D01*
X45340509Y-5761985D01*
X45238015Y-5659491D01*
X45238012Y-5659489D01*
X45238010Y-5659487D01*
X45220274Y-5649247D01*
X45179334Y-5603777D01*
X45172940Y-5542927D01*
X45199770Y-5493510D01*
X45387170Y-5306110D01*
X45441685Y-5278335D01*
X45502117Y-5287906D01*
X45542906Y-5326612D01*
X45549487Y-5338010D01*
X45549489Y-5338012D01*
X45549491Y-5338015D01*
X45651985Y-5440509D01*
X45651987Y-5440510D01*
X45651989Y-5440512D01*
X45777511Y-5512982D01*
X45777512Y-5512982D01*
X45777515Y-5512984D01*
X45777517Y-5512984D01*
X45783505Y-5515465D01*
X45783022Y-5516629D01*
X45820388Y-5538202D01*
X50057300Y-9775114D01*
X50057299Y-9775114D01*
X50108902Y-9826716D01*
X50150486Y-9868300D01*
X50203991Y-9899191D01*
X50264614Y-9934192D01*
X50391907Y-9968300D01*
X50391908Y-9968300D01*
X51593400Y-9968300D01*
X51651591Y-9987207D01*
X51687555Y-10036707D01*
X51692400Y-10067300D01*
X51692400Y-17719008D01*
X51692400Y-17850792D01*
X51708162Y-17909616D01*
X51726509Y-17978090D01*
X51792396Y-18092209D01*
X51792397Y-18092210D01*
X51792398Y-18092211D01*
X51792400Y-18092214D01*
X52771934Y-19071748D01*
X53740387Y-20040201D01*
X53768164Y-20094718D01*
X53761848Y-20148088D01*
X53744764Y-20189334D01*
X53744763Y-20189338D01*
X53712079Y-20353651D01*
X53712079Y-20521190D01*
X53729324Y-20607885D01*
X53742855Y-20675912D01*
X53744763Y-20685501D01*
X53744763Y-20685503D01*
X53808872Y-20840279D01*
X53808878Y-20840290D01*
X53853308Y-20906783D01*
X53901952Y-20979583D01*
X54020417Y-21098048D01*
X54097890Y-21149814D01*
X54159709Y-21191121D01*
X54159720Y-21191127D01*
X54205792Y-21210210D01*
X54314498Y-21255237D01*
X54478812Y-21287921D01*
X54478813Y-21287921D01*
X54646345Y-21287921D01*
X54646346Y-21287921D01*
X54810660Y-21255237D01*
X54965442Y-21191125D01*
X55104741Y-21098048D01*
X55506048Y-20696741D01*
X55599125Y-20557442D01*
X55663237Y-20402660D01*
X55695921Y-20238346D01*
X55695921Y-20070812D01*
X55695920Y-20070808D01*
X55695444Y-20065976D01*
X55697396Y-20065783D01*
X55703648Y-20012832D01*
X55723559Y-19984253D01*
X58125775Y-17582037D01*
X58180290Y-17554262D01*
X58207412Y-17554798D01*
X58207499Y-17553921D01*
X58212330Y-17554397D01*
X58212335Y-17554398D01*
X58212340Y-17554398D01*
X58379868Y-17554398D01*
X58379869Y-17554398D01*
X58544184Y-17521714D01*
X58698965Y-17457601D01*
X58838264Y-17364524D01*
X58956728Y-17246060D01*
X59049805Y-17106761D01*
X59113918Y-16951980D01*
X59146602Y-16787665D01*
X59146602Y-16620131D01*
X59113918Y-16455816D01*
X59049805Y-16301035D01*
X58956728Y-16161736D01*
X58838264Y-16043272D01*
X58698965Y-15950195D01*
X58698966Y-15950195D01*
X58698964Y-15950194D01*
X58544187Y-15886083D01*
X58544181Y-15886081D01*
X58379871Y-15853398D01*
X58379869Y-15853398D01*
X58212335Y-15853398D01*
X58212332Y-15853398D01*
X58048022Y-15886081D01*
X58048016Y-15886083D01*
X57893239Y-15950194D01*
X57753940Y-16043272D01*
X57753936Y-16043275D01*
X57635479Y-16161732D01*
X57635476Y-16161736D01*
X57542398Y-16301035D01*
X57478287Y-16455812D01*
X57478285Y-16455818D01*
X57445602Y-16620128D01*
X57445602Y-16787664D01*
X57446079Y-16792510D01*
X57444132Y-16792701D01*
X57437857Y-16845677D01*
X57417959Y-16874225D01*
X55015748Y-19276436D01*
X54961231Y-19304213D01*
X54934119Y-19303682D01*
X54934033Y-19304556D01*
X54929188Y-19304079D01*
X54761654Y-19304079D01*
X54761651Y-19304079D01*
X54597338Y-19336763D01*
X54597334Y-19336764D01*
X54556088Y-19353848D01*
X54495091Y-19358647D01*
X54448201Y-19332387D01*
X52722396Y-17606582D01*
X52694619Y-17552065D01*
X52693400Y-17536578D01*
X52693400Y-16528898D01*
X53821176Y-16528898D01*
X54400891Y-16528898D01*
X54377852Y-16568803D01*
X54354000Y-16657820D01*
X54354000Y-16749976D01*
X54377852Y-16838993D01*
X54400891Y-16878898D01*
X53821177Y-16878898D01*
X53838586Y-16966417D01*
X53838586Y-16966419D01*
X53906429Y-17130206D01*
X54004923Y-17277613D01*
X54130284Y-17402974D01*
X54277691Y-17501468D01*
X54441473Y-17569309D01*
X54441484Y-17569312D01*
X54529000Y-17586719D01*
X54529000Y-17007007D01*
X54568905Y-17030046D01*
X54657922Y-17053898D01*
X54750078Y-17053898D01*
X54839095Y-17030046D01*
X54879000Y-17007007D01*
X54879000Y-17586718D01*
X54966515Y-17569312D01*
X54966526Y-17569309D01*
X55130308Y-17501468D01*
X55277715Y-17402974D01*
X55403076Y-17277613D01*
X55501570Y-17130206D01*
X55569413Y-16966419D01*
X55569413Y-16966417D01*
X55586823Y-16878898D01*
X55007109Y-16878898D01*
X55030148Y-16838993D01*
X55054000Y-16749976D01*
X55054000Y-16657820D01*
X55030148Y-16568803D01*
X55007109Y-16528898D01*
X55586823Y-16528898D01*
X55569413Y-16441378D01*
X55569413Y-16441376D01*
X55501570Y-16277589D01*
X55403076Y-16130182D01*
X55277715Y-16004821D01*
X55130308Y-15906327D01*
X54966520Y-15838484D01*
X54879000Y-15821075D01*
X54879000Y-16400789D01*
X54839095Y-16377750D01*
X54750078Y-16353898D01*
X54657922Y-16353898D01*
X54568905Y-16377750D01*
X54529000Y-16400789D01*
X54529000Y-15821075D01*
X54441480Y-15838484D01*
X54441478Y-15838484D01*
X54277691Y-15906327D01*
X54130284Y-16004821D01*
X54004923Y-16130182D01*
X53906429Y-16277589D01*
X53838586Y-16441376D01*
X53838586Y-16441378D01*
X53821176Y-16528898D01*
X52693400Y-16528898D01*
X52693400Y-13441444D01*
X52712307Y-13383253D01*
X52761807Y-13347289D01*
X52822993Y-13347289D01*
X52841894Y-13355704D01*
X52884011Y-13380021D01*
X52960435Y-13400499D01*
X52960437Y-13400500D01*
X52960438Y-13400500D01*
X53039562Y-13400500D01*
X59600500Y-13400500D01*
X59658691Y-13419407D01*
X59694655Y-13468907D01*
X59699500Y-13499500D01*
X59699500Y-30996461D01*
X59699248Y-31003524D01*
X59682706Y-31234806D01*
X59680695Y-31248787D01*
X59632163Y-31471881D01*
X59628184Y-31485433D01*
X59548394Y-31699363D01*
X59542526Y-31712213D01*
X59433103Y-31912604D01*
X59425467Y-31924486D01*
X59288642Y-32107263D01*
X59279392Y-32117939D01*
X59117939Y-32279392D01*
X59107263Y-32288642D01*
X58924486Y-32425467D01*
X58912604Y-32433103D01*
X58712213Y-32542526D01*
X58699363Y-32548394D01*
X58485433Y-32628184D01*
X58471881Y-32632163D01*
X58248787Y-32680695D01*
X58234806Y-32682706D01*
X58031124Y-32697274D01*
X58003522Y-32699248D01*
X57996462Y-32699500D01*
X13449000Y-32699500D01*
X13390809Y-32680593D01*
X13354845Y-32631093D01*
X13350000Y-32600500D01*
X13350000Y-29971204D01*
X18880000Y-29971204D01*
X18880000Y-30174999D01*
X18880001Y-30175000D01*
X19380000Y-30175000D01*
X19380000Y-30525000D01*
X18880001Y-30525000D01*
X18880000Y-30525001D01*
X18880000Y-30728795D01*
X18910742Y-30883349D01*
X18971048Y-31028940D01*
X18971052Y-31028949D01*
X19058599Y-31159969D01*
X19058602Y-31159973D01*
X19170026Y-31271397D01*
X19170030Y-31271400D01*
X19301050Y-31358947D01*
X19301059Y-31358951D01*
X19446646Y-31419255D01*
X19446653Y-31419257D01*
X19505000Y-31430862D01*
X19505000Y-30895374D01*
X19564204Y-30929556D01*
X19640504Y-30950000D01*
X19719496Y-30950000D01*
X19795796Y-30929556D01*
X19855000Y-30895374D01*
X19855000Y-31430861D01*
X19913346Y-31419257D01*
X19913353Y-31419255D01*
X20058940Y-31358951D01*
X20058949Y-31358947D01*
X20189969Y-31271400D01*
X20189973Y-31271397D01*
X20301397Y-31159973D01*
X20301400Y-31159969D01*
X20388947Y-31028949D01*
X20388951Y-31028940D01*
X20449257Y-30883349D01*
X20479999Y-30728795D01*
X20480000Y-30728792D01*
X20480000Y-30525001D01*
X20479999Y-30525000D01*
X19980000Y-30525000D01*
X19980000Y-30175000D01*
X20479999Y-30175000D01*
X20480000Y-30174999D01*
X20480000Y-29971207D01*
X20479999Y-29971204D01*
X27520000Y-29971204D01*
X27520000Y-30174999D01*
X27520001Y-30175000D01*
X28020000Y-30175000D01*
X28020000Y-30525000D01*
X27520001Y-30525000D01*
X27520000Y-30525001D01*
X27520000Y-30728795D01*
X27550742Y-30883349D01*
X27611048Y-31028940D01*
X27611052Y-31028949D01*
X27698599Y-31159969D01*
X27698602Y-31159973D01*
X27810026Y-31271397D01*
X27810030Y-31271400D01*
X27941050Y-31358947D01*
X27941059Y-31358951D01*
X28086646Y-31419255D01*
X28086653Y-31419257D01*
X28145000Y-31430862D01*
X28145000Y-30895374D01*
X28204204Y-30929556D01*
X28280504Y-30950000D01*
X28359496Y-30950000D01*
X28435796Y-30929556D01*
X28495000Y-30895374D01*
X28495000Y-31430861D01*
X28553346Y-31419257D01*
X28553353Y-31419255D01*
X28698940Y-31358951D01*
X28698949Y-31358947D01*
X28756749Y-31320325D01*
X44291800Y-31320325D01*
X44291800Y-31465275D01*
X44321387Y-31575696D01*
X44329317Y-31605289D01*
X44401787Y-31730810D01*
X44401789Y-31730812D01*
X44401791Y-31730815D01*
X44504285Y-31833309D01*
X44504287Y-31833310D01*
X44504289Y-31833312D01*
X44629811Y-31905782D01*
X44629812Y-31905782D01*
X44629815Y-31905784D01*
X44769825Y-31943300D01*
X44769826Y-31943300D01*
X44914774Y-31943300D01*
X44914775Y-31943300D01*
X45054785Y-31905784D01*
X45054787Y-31905782D01*
X45054789Y-31905782D01*
X45180310Y-31833312D01*
X45180310Y-31833311D01*
X45180315Y-31833309D01*
X45282809Y-31730815D01*
X45355284Y-31605285D01*
X45392800Y-31465275D01*
X45392800Y-31320325D01*
X45355284Y-31180315D01*
X45355282Y-31180312D01*
X45355282Y-31180310D01*
X45282812Y-31054789D01*
X45282810Y-31054787D01*
X45282809Y-31054785D01*
X45180315Y-30952291D01*
X45180312Y-30952289D01*
X45180310Y-30952287D01*
X45054788Y-30879817D01*
X45054789Y-30879817D01*
X45025196Y-30871887D01*
X44914775Y-30842300D01*
X44769825Y-30842300D01*
X44708090Y-30858841D01*
X44629810Y-30879817D01*
X44504289Y-30952287D01*
X44401787Y-31054789D01*
X44329317Y-31180310D01*
X44297112Y-31300500D01*
X44291800Y-31320325D01*
X28756749Y-31320325D01*
X28829969Y-31271400D01*
X28829973Y-31271397D01*
X28857539Y-31243832D01*
X28941397Y-31159973D01*
X28941400Y-31159969D01*
X29028947Y-31028949D01*
X29028951Y-31028940D01*
X29089257Y-30883349D01*
X29119999Y-30728795D01*
X29120000Y-30728792D01*
X29120000Y-30525001D01*
X29119999Y-30525000D01*
X28620000Y-30525000D01*
X28620000Y-30175000D01*
X29119999Y-30175000D01*
X29120000Y-30174999D01*
X29120000Y-29971207D01*
X29119999Y-29971204D01*
X29089257Y-29816650D01*
X29028951Y-29671059D01*
X29028947Y-29671050D01*
X28941400Y-29540030D01*
X28941397Y-29540026D01*
X28829973Y-29428602D01*
X28829969Y-29428599D01*
X28698949Y-29341052D01*
X28698940Y-29341048D01*
X28553354Y-29280744D01*
X28553348Y-29280742D01*
X28495000Y-29269136D01*
X28495000Y-29804625D01*
X28435796Y-29770444D01*
X28359496Y-29750000D01*
X28280504Y-29750000D01*
X28204204Y-29770444D01*
X28145000Y-29804625D01*
X28145000Y-29269136D01*
X28086651Y-29280742D01*
X28086645Y-29280744D01*
X27941059Y-29341048D01*
X27941050Y-29341052D01*
X27810030Y-29428599D01*
X27810026Y-29428602D01*
X27698602Y-29540026D01*
X27698599Y-29540030D01*
X27611052Y-29671050D01*
X27611048Y-29671059D01*
X27550742Y-29816650D01*
X27520000Y-29971204D01*
X20479999Y-29971204D01*
X20449257Y-29816650D01*
X20388951Y-29671059D01*
X20388947Y-29671050D01*
X20301400Y-29540030D01*
X20301397Y-29540026D01*
X20189973Y-29428602D01*
X20189969Y-29428599D01*
X20058949Y-29341052D01*
X20058940Y-29341048D01*
X19913354Y-29280744D01*
X19913348Y-29280742D01*
X19855000Y-29269136D01*
X19855000Y-29804625D01*
X19795796Y-29770444D01*
X19719496Y-29750000D01*
X19640504Y-29750000D01*
X19564204Y-29770444D01*
X19505000Y-29804625D01*
X19505000Y-29269136D01*
X19446651Y-29280742D01*
X19446645Y-29280744D01*
X19301059Y-29341048D01*
X19301050Y-29341052D01*
X19170030Y-29428599D01*
X19170026Y-29428602D01*
X19058602Y-29540026D01*
X19058599Y-29540030D01*
X18971052Y-29671050D01*
X18971048Y-29671059D01*
X18910742Y-29816650D01*
X18880000Y-29971204D01*
X13350000Y-29971204D01*
X13350000Y-24927525D01*
X16249500Y-24927525D01*
X16249500Y-25072475D01*
X16259562Y-25110026D01*
X16287017Y-25212489D01*
X16359487Y-25338010D01*
X16359489Y-25338012D01*
X16359491Y-25338015D01*
X16461985Y-25440509D01*
X16461987Y-25440510D01*
X16461989Y-25440512D01*
X16587511Y-25512982D01*
X16587512Y-25512982D01*
X16587515Y-25512984D01*
X16727525Y-25550500D01*
X16727526Y-25550500D01*
X16872474Y-25550500D01*
X16872475Y-25550500D01*
X16907168Y-25541204D01*
X18880000Y-25541204D01*
X18880000Y-25994999D01*
X18880001Y-25995000D01*
X19380000Y-25995000D01*
X19380000Y-26345000D01*
X18880001Y-26345000D01*
X18880000Y-26345001D01*
X18880000Y-26798795D01*
X18910742Y-26953349D01*
X18971048Y-27098940D01*
X18971052Y-27098949D01*
X19058599Y-27229969D01*
X19058602Y-27229973D01*
X19170026Y-27341397D01*
X19170030Y-27341400D01*
X19301050Y-27428947D01*
X19301059Y-27428951D01*
X19446646Y-27489255D01*
X19446653Y-27489257D01*
X19505000Y-27500862D01*
X19505000Y-26965374D01*
X19564204Y-26999556D01*
X19640504Y-27020000D01*
X19719496Y-27020000D01*
X19795796Y-26999556D01*
X19855000Y-26965374D01*
X19855000Y-27500861D01*
X19913346Y-27489257D01*
X19913353Y-27489255D01*
X20058940Y-27428951D01*
X20058949Y-27428947D01*
X20189969Y-27341400D01*
X20189973Y-27341397D01*
X20301397Y-27229973D01*
X20301400Y-27229969D01*
X20388947Y-27098949D01*
X20388951Y-27098940D01*
X20449257Y-26953348D01*
X20450670Y-26948693D01*
X20451708Y-26949008D01*
X20479142Y-26900022D01*
X20534706Y-26874405D01*
X20594716Y-26886341D01*
X20632078Y-26923216D01*
X20689495Y-27022665D01*
X20787335Y-27120505D01*
X20907164Y-27189688D01*
X21040817Y-27225500D01*
X21040819Y-27225500D01*
X21179181Y-27225500D01*
X21179183Y-27225500D01*
X21312836Y-27189688D01*
X21432665Y-27120505D01*
X21530505Y-27022665D01*
X21599688Y-26902836D01*
X21635500Y-26769183D01*
X21635500Y-26630817D01*
X21599688Y-26497164D01*
X21530505Y-26377335D01*
X21432665Y-26279495D01*
X21312836Y-26210312D01*
X21179183Y-26174500D01*
X21040817Y-26174500D01*
X20907164Y-26210312D01*
X20787335Y-26279495D01*
X20689493Y-26377337D01*
X20664736Y-26420218D01*
X20619266Y-26461159D01*
X20558416Y-26467554D01*
X20505428Y-26436962D01*
X20480542Y-26381066D01*
X20480000Y-26370718D01*
X20480000Y-26345001D01*
X20479999Y-26345000D01*
X19980000Y-26345000D01*
X19980000Y-25995000D01*
X20479999Y-25995000D01*
X20480000Y-25994999D01*
X20480000Y-25541207D01*
X20479999Y-25541204D01*
X20449257Y-25386650D01*
X20388951Y-25241059D01*
X20388947Y-25241050D01*
X20301400Y-25110030D01*
X20301397Y-25110026D01*
X20189973Y-24998602D01*
X20189969Y-24998599D01*
X20058949Y-24911052D01*
X20058940Y-24911048D01*
X19913354Y-24850744D01*
X19913348Y-24850742D01*
X19855000Y-24839136D01*
X19855000Y-25374625D01*
X19795796Y-25340444D01*
X19719496Y-25320000D01*
X19640504Y-25320000D01*
X19564204Y-25340444D01*
X19505000Y-25374625D01*
X19505000Y-24839136D01*
X19446651Y-24850742D01*
X19446645Y-24850744D01*
X19301059Y-24911048D01*
X19301050Y-24911052D01*
X19170030Y-24998599D01*
X19170026Y-24998602D01*
X19058602Y-25110026D01*
X19058599Y-25110030D01*
X18971052Y-25241050D01*
X18971048Y-25241059D01*
X18910742Y-25386650D01*
X18880000Y-25541204D01*
X16907168Y-25541204D01*
X17012485Y-25512984D01*
X17012487Y-25512982D01*
X17012489Y-25512982D01*
X17120510Y-25450616D01*
X17120516Y-25450611D01*
X17138015Y-25440509D01*
X17240509Y-25338015D01*
X17298328Y-25237870D01*
X17312982Y-25212489D01*
X17312982Y-25212487D01*
X17312984Y-25212485D01*
X17350500Y-25072475D01*
X17350500Y-24927525D01*
X17312984Y-24787515D01*
X17312982Y-24787512D01*
X17312982Y-24787510D01*
X17240512Y-24661989D01*
X17240510Y-24661987D01*
X17240509Y-24661985D01*
X17138015Y-24559491D01*
X17138012Y-24559489D01*
X17138010Y-24559487D01*
X17012488Y-24487017D01*
X17012489Y-24487017D01*
X16914594Y-24460786D01*
X16872475Y-24449500D01*
X16727525Y-24449500D01*
X16685406Y-24460786D01*
X16587510Y-24487017D01*
X16461989Y-24559487D01*
X16359487Y-24661989D01*
X16287017Y-24787510D01*
X16255918Y-24903574D01*
X16249500Y-24927525D01*
X13350000Y-24927525D01*
X13350000Y-23650001D01*
X13350000Y-23650000D01*
X13349999Y-23650000D01*
X4649000Y-23650000D01*
X4590809Y-23631093D01*
X4554845Y-23581593D01*
X4550000Y-23551000D01*
X4550000Y-20427525D01*
X9969500Y-20427525D01*
X9969500Y-20572475D01*
X9991890Y-20656034D01*
X10007017Y-20712489D01*
X10079487Y-20838010D01*
X10079489Y-20838012D01*
X10079491Y-20838015D01*
X10181985Y-20940509D01*
X10181987Y-20940510D01*
X10181989Y-20940512D01*
X10307511Y-21012982D01*
X10307512Y-21012982D01*
X10307515Y-21012984D01*
X10447525Y-21050500D01*
X10447526Y-21050500D01*
X10592474Y-21050500D01*
X10592475Y-21050500D01*
X10732485Y-21012984D01*
X10732487Y-21012982D01*
X10732489Y-21012982D01*
X10858010Y-20940512D01*
X10858010Y-20940511D01*
X10858015Y-20940509D01*
X10960509Y-20838015D01*
X10965075Y-20830107D01*
X11032982Y-20712489D01*
X11032982Y-20712487D01*
X11032984Y-20712485D01*
X11070500Y-20572475D01*
X11070500Y-20427525D01*
X11032984Y-20287515D01*
X11032982Y-20287512D01*
X11032982Y-20287510D01*
X10960512Y-20161989D01*
X10960510Y-20161987D01*
X10960509Y-20161985D01*
X10858015Y-20059491D01*
X10858012Y-20059489D01*
X10858010Y-20059487D01*
X10732488Y-19987017D01*
X10732489Y-19987017D01*
X10702896Y-19979087D01*
X10592475Y-19949500D01*
X10447525Y-19949500D01*
X10408660Y-19959914D01*
X10307510Y-19987017D01*
X10181989Y-20059487D01*
X10079487Y-20161989D01*
X10007017Y-20287510D01*
X9976163Y-20402659D01*
X9969500Y-20427525D01*
X4550000Y-20427525D01*
X4550000Y-399500D01*
X4568907Y-341309D01*
X4618407Y-305345D01*
X4649000Y-300500D01*
X19731969Y-300500D01*
X19790160Y-319407D01*
G37*
%TD.AperFunction*%
%TA.AperFunction,Conductor*%
G36*
X43042507Y-20490338D02*
G01*
X43085772Y-20533603D01*
X43093188Y-20552923D01*
X43107450Y-20606148D01*
X43107451Y-20606150D01*
X43107916Y-20607885D01*
X43109490Y-20610612D01*
X43111441Y-20614879D01*
X43112997Y-20628412D01*
X43120400Y-20656034D01*
X43120400Y-20776608D01*
X43120400Y-20908392D01*
X43140835Y-20984658D01*
X43154509Y-21035690D01*
X43220396Y-21149809D01*
X43220400Y-21149814D01*
X43687399Y-21616814D01*
X43687400Y-21616814D01*
X43697623Y-21627037D01*
X43698850Y-21629446D01*
X43701190Y-21630797D01*
X43712630Y-21656491D01*
X43725400Y-21681554D01*
X43724977Y-21684222D01*
X43726077Y-21686692D01*
X43720228Y-21714208D01*
X43715829Y-21741986D01*
X43713356Y-21746541D01*
X43673551Y-21815486D01*
X43628081Y-21856427D01*
X43567231Y-21862823D01*
X43538314Y-21851723D01*
X43453086Y-21802516D01*
X43377116Y-21782160D01*
X43313075Y-21765000D01*
X43168125Y-21765000D01*
X43106390Y-21781541D01*
X43028110Y-21802517D01*
X42902589Y-21874987D01*
X42800087Y-21977489D01*
X42727617Y-22103010D01*
X42719052Y-22134975D01*
X42690100Y-22243025D01*
X42690100Y-22387975D01*
X42710281Y-22463291D01*
X42727617Y-22527989D01*
X42800087Y-22653510D01*
X42800089Y-22653512D01*
X42800091Y-22653515D01*
X42861105Y-22714529D01*
X42888881Y-22769044D01*
X42890100Y-22784531D01*
X42890100Y-26263210D01*
X42871193Y-26321401D01*
X42861104Y-26333214D01*
X42584814Y-26609504D01*
X42530297Y-26637281D01*
X42514810Y-26638500D01*
X42428525Y-26638500D01*
X42366790Y-26655041D01*
X42288510Y-26676017D01*
X42162989Y-26748487D01*
X42060487Y-26850989D01*
X41988017Y-26976510D01*
X41950500Y-27116525D01*
X41950500Y-27261474D01*
X41988017Y-27401489D01*
X42060487Y-27527010D01*
X42060489Y-27527012D01*
X42060491Y-27527015D01*
X42162985Y-27629509D01*
X42162987Y-27629510D01*
X42162989Y-27629512D01*
X42288511Y-27701982D01*
X42288512Y-27701982D01*
X42288515Y-27701984D01*
X42428525Y-27739500D01*
X42428526Y-27739500D01*
X42573474Y-27739500D01*
X42573475Y-27739500D01*
X42713485Y-27701984D01*
X42713487Y-27701982D01*
X42713489Y-27701982D01*
X42839010Y-27629512D01*
X42839010Y-27629511D01*
X42839015Y-27629509D01*
X42941509Y-27527015D01*
X42941512Y-27527010D01*
X43013982Y-27401489D01*
X43013982Y-27401487D01*
X43013984Y-27401485D01*
X43051500Y-27261475D01*
X43051500Y-27175188D01*
X43070407Y-27116997D01*
X43080490Y-27105190D01*
X43521069Y-26664612D01*
X43567214Y-26584688D01*
X43591100Y-26495544D01*
X43591100Y-22784531D01*
X43593568Y-22776933D01*
X43592319Y-22769044D01*
X43602843Y-22748388D01*
X43610007Y-22726340D01*
X43620090Y-22714533D01*
X43647098Y-22687525D01*
X43701613Y-22659750D01*
X43762045Y-22669321D01*
X43805310Y-22712586D01*
X43816100Y-22757531D01*
X43816100Y-28254610D01*
X43797193Y-28312801D01*
X43787104Y-28324614D01*
X43620414Y-28491304D01*
X43565897Y-28519081D01*
X43550410Y-28520300D01*
X43464125Y-28520300D01*
X43402390Y-28536841D01*
X43324110Y-28557817D01*
X43198589Y-28630287D01*
X43096087Y-28732789D01*
X43023617Y-28858310D01*
X42986100Y-28998325D01*
X42986100Y-29143277D01*
X42992263Y-29166276D01*
X42989062Y-29227377D01*
X42950557Y-29274928D01*
X42896637Y-29290900D01*
X30184389Y-29290900D01*
X30126198Y-29271993D01*
X30114385Y-29261904D01*
X28507784Y-27655302D01*
X28480007Y-27600785D01*
X28489578Y-27540353D01*
X28532843Y-27497088D01*
X28549054Y-27490560D01*
X28553349Y-27489257D01*
X28698940Y-27428951D01*
X28698949Y-27428947D01*
X28829969Y-27341400D01*
X28829973Y-27341397D01*
X28941397Y-27229973D01*
X28941400Y-27229969D01*
X29028947Y-27098949D01*
X29028951Y-27098940D01*
X29089257Y-26953349D01*
X29119999Y-26798795D01*
X29120000Y-26798792D01*
X29120000Y-26345001D01*
X29119999Y-26345000D01*
X28620000Y-26345000D01*
X28620000Y-25995000D01*
X29119999Y-25995000D01*
X29120000Y-25994999D01*
X29120000Y-25541207D01*
X29119999Y-25541204D01*
X29089257Y-25386650D01*
X29028951Y-25241059D01*
X29028947Y-25241050D01*
X28941400Y-25110030D01*
X28941397Y-25110026D01*
X28829973Y-24998602D01*
X28829969Y-24998599D01*
X28698949Y-24911052D01*
X28698940Y-24911048D01*
X28553354Y-24850744D01*
X28553348Y-24850742D01*
X28495000Y-24839136D01*
X28495000Y-25374625D01*
X28435796Y-25340444D01*
X28359496Y-25320000D01*
X28280504Y-25320000D01*
X28204204Y-25340444D01*
X28145000Y-25374625D01*
X28145000Y-24839136D01*
X28086651Y-24850742D01*
X28086645Y-24850744D01*
X27941059Y-24911048D01*
X27941050Y-24911052D01*
X27810030Y-24998599D01*
X27810026Y-24998602D01*
X27698602Y-25110026D01*
X27698599Y-25110030D01*
X27611052Y-25241050D01*
X27611048Y-25241059D01*
X27550742Y-25386650D01*
X27520000Y-25541204D01*
X27520000Y-25994999D01*
X27520001Y-25995000D01*
X28020000Y-25995000D01*
X28020000Y-26345000D01*
X27520001Y-26345000D01*
X27520000Y-26345001D01*
X27520000Y-26370718D01*
X27501093Y-26428909D01*
X27451593Y-26464873D01*
X27390407Y-26464873D01*
X27340907Y-26428909D01*
X27335264Y-26420218D01*
X27310506Y-26377337D01*
X27310505Y-26377335D01*
X27212665Y-26279495D01*
X27092836Y-26210312D01*
X26959183Y-26174500D01*
X26820817Y-26174500D01*
X26687164Y-26210312D01*
X26567335Y-26279495D01*
X26469495Y-26377335D01*
X26400312Y-26497164D01*
X26364500Y-26630817D01*
X26364500Y-26769183D01*
X26400312Y-26902836D01*
X26442850Y-26976515D01*
X26457218Y-27001400D01*
X26469940Y-27061248D01*
X26445053Y-27117144D01*
X26392065Y-27147737D01*
X26371482Y-27149900D01*
X23843090Y-27149900D01*
X23784899Y-27130993D01*
X23773086Y-27120904D01*
X21379904Y-24727722D01*
X21352127Y-24673205D01*
X21361698Y-24612773D01*
X21404963Y-24569508D01*
X21465395Y-24559937D01*
X21475532Y-24562092D01*
X21561022Y-24584999D01*
X21561024Y-24585000D01*
X21561025Y-24585000D01*
X21705974Y-24585000D01*
X21705975Y-24585000D01*
X21845985Y-24547484D01*
X21931237Y-24498263D01*
X21980736Y-24485000D01*
X24119109Y-24485000D01*
X24209469Y-24460787D01*
X24209472Y-24460787D01*
X24222703Y-24457241D01*
X24233687Y-24454299D01*
X24336414Y-24394989D01*
X25939408Y-22791996D01*
X25993925Y-22764219D01*
X26009412Y-22763000D01*
X40545807Y-22763000D01*
X40545809Y-22763000D01*
X40643215Y-22736900D01*
X40660387Y-22732299D01*
X40669770Y-22726881D01*
X40677972Y-22723908D01*
X40700252Y-22723157D01*
X40722062Y-22718521D01*
X40730209Y-22722148D01*
X40739123Y-22721848D01*
X40757591Y-22734338D01*
X40777959Y-22743406D01*
X40782418Y-22751129D01*
X40789805Y-22756125D01*
X40797404Y-22777084D01*
X40808553Y-22796393D01*
X40807621Y-22805261D01*
X40810661Y-22813646D01*
X40804488Y-22835070D01*
X40802159Y-22857243D01*
X40797454Y-22866479D01*
X40763716Y-22924913D01*
X40726200Y-23064925D01*
X40726200Y-23209874D01*
X40763717Y-23349889D01*
X40836187Y-23475410D01*
X40836189Y-23475412D01*
X40836191Y-23475415D01*
X40938685Y-23577909D01*
X40938687Y-23577910D01*
X40938689Y-23577912D01*
X41064211Y-23650382D01*
X41064212Y-23650382D01*
X41064215Y-23650384D01*
X41204225Y-23687900D01*
X41204226Y-23687900D01*
X41349174Y-23687900D01*
X41349175Y-23687900D01*
X41489185Y-23650384D01*
X41489187Y-23650382D01*
X41489189Y-23650382D01*
X41614710Y-23577912D01*
X41614710Y-23577911D01*
X41614715Y-23577909D01*
X41717209Y-23475415D01*
X41732802Y-23448407D01*
X41789682Y-23349889D01*
X41789682Y-23349887D01*
X41789684Y-23349885D01*
X41827200Y-23209875D01*
X41827200Y-23064925D01*
X41789684Y-22924915D01*
X41789682Y-22924912D01*
X41789682Y-22924910D01*
X41717212Y-22799389D01*
X41717210Y-22799387D01*
X41717209Y-22799385D01*
X41614715Y-22696891D01*
X41614712Y-22696889D01*
X41614710Y-22696887D01*
X41489188Y-22624417D01*
X41489189Y-22624417D01*
X41450361Y-22614013D01*
X41349175Y-22586900D01*
X41204225Y-22586900D01*
X41131635Y-22606350D01*
X41076138Y-22621221D01*
X41015037Y-22618018D01*
X40967487Y-22579513D01*
X40951651Y-22520413D01*
X40973578Y-22463291D01*
X40980492Y-22455610D01*
X42927560Y-20508542D01*
X42982075Y-20480767D01*
X43042507Y-20490338D01*
G37*
%TD.AperFunction*%
%TA.AperFunction,Conductor*%
G36*
X21234804Y-20785186D02*
G01*
X22657414Y-22207796D01*
X22685191Y-22262313D01*
X22675620Y-22322745D01*
X22632355Y-22366010D01*
X22587410Y-22376800D01*
X22232390Y-22376800D01*
X22174199Y-22357893D01*
X22162386Y-22347804D01*
X21094796Y-21280214D01*
X21067019Y-21225697D01*
X21065800Y-21210210D01*
X21065800Y-20855190D01*
X21084707Y-20796999D01*
X21134207Y-20761035D01*
X21195393Y-20761035D01*
X21234804Y-20785186D01*
G37*
%TD.AperFunction*%
%TA.AperFunction,Conductor*%
G36*
X44628957Y-20204907D02*
G01*
X44664921Y-20254407D01*
X44664921Y-20315593D01*
X44656502Y-20334501D01*
X44644717Y-20354912D01*
X44644716Y-20354914D01*
X44644716Y-20354915D01*
X44638057Y-20379767D01*
X44607200Y-20494925D01*
X44607200Y-20639877D01*
X44619124Y-20684376D01*
X44617653Y-20712455D01*
X44617653Y-20740593D01*
X44616064Y-20742779D01*
X44615923Y-20745478D01*
X44598224Y-20767334D01*
X44581689Y-20790093D01*
X44579118Y-20790928D01*
X44577418Y-20793028D01*
X44523498Y-20809000D01*
X44336222Y-20809000D01*
X44278031Y-20790093D01*
X44266218Y-20780004D01*
X44165892Y-20679678D01*
X44138115Y-20625161D01*
X44140269Y-20584052D01*
X44171400Y-20467875D01*
X44171400Y-20322925D01*
X44168104Y-20310624D01*
X44171305Y-20249522D01*
X44209810Y-20201972D01*
X44263730Y-20186000D01*
X44570766Y-20186000D01*
X44628957Y-20204907D01*
G37*
%TD.AperFunction*%
%TA.AperFunction,Conductor*%
G36*
X19724741Y-17069407D02*
G01*
X19760705Y-17118907D01*
X19760705Y-17180093D01*
X19752286Y-17199000D01*
X19679417Y-17325210D01*
X19679416Y-17325215D01*
X19641900Y-17465225D01*
X19641900Y-17610175D01*
X19663343Y-17690200D01*
X19679417Y-17750189D01*
X19751887Y-17875710D01*
X19751889Y-17875712D01*
X19751891Y-17875715D01*
X19854385Y-17978209D01*
X19854387Y-17978210D01*
X19854389Y-17978212D01*
X19979911Y-18050682D01*
X19979912Y-18050682D01*
X19979915Y-18050684D01*
X20119925Y-18088200D01*
X20119926Y-18088200D01*
X20264874Y-18088200D01*
X20264875Y-18088200D01*
X20404885Y-18050684D01*
X20404887Y-18050682D01*
X20404889Y-18050682D01*
X20530410Y-17978212D01*
X20530410Y-17978211D01*
X20530415Y-17978209D01*
X20566369Y-17942255D01*
X20591429Y-17917196D01*
X20645946Y-17889419D01*
X20661432Y-17888200D01*
X26610701Y-17888200D01*
X26668892Y-17907107D01*
X26704856Y-17956607D01*
X26704856Y-18017793D01*
X26668892Y-18067293D01*
X26636326Y-18082825D01*
X26587212Y-18095986D01*
X26507288Y-18142130D01*
X26020814Y-18628604D01*
X25966297Y-18656381D01*
X25950810Y-18657600D01*
X21388756Y-18657600D01*
X21299612Y-18681486D01*
X21299611Y-18681486D01*
X21299609Y-18681487D01*
X21219689Y-18727629D01*
X21219686Y-18727631D01*
X21168114Y-18779204D01*
X21113597Y-18806981D01*
X21098111Y-18808200D01*
X21011825Y-18808200D01*
X20950090Y-18824741D01*
X20871810Y-18845717D01*
X20746289Y-18918187D01*
X20643788Y-19020688D01*
X20641637Y-19024415D01*
X20596165Y-19065355D01*
X20535315Y-19071748D01*
X20485898Y-19044916D01*
X18660486Y-17219504D01*
X18632709Y-17164987D01*
X18642280Y-17104555D01*
X18685545Y-17061290D01*
X18730490Y-17050500D01*
X19666550Y-17050500D01*
X19724741Y-17069407D01*
G37*
%TD.AperFunction*%
%TA.AperFunction,Conductor*%
G36*
X43921743Y-7567436D02*
G01*
X43952336Y-7620424D01*
X43954500Y-7641008D01*
X43954500Y-13013544D01*
X43972845Y-13082007D01*
X43973087Y-13082913D01*
X43973089Y-13082918D01*
X43978384Y-13102683D01*
X43978385Y-13102684D01*
X43978386Y-13102688D01*
X44024530Y-13182612D01*
X45420505Y-14578587D01*
X45448281Y-14633102D01*
X45449500Y-14648589D01*
X45449500Y-14734874D01*
X45487017Y-14874889D01*
X45559487Y-15000410D01*
X45559489Y-15000412D01*
X45559491Y-15000415D01*
X45661985Y-15102909D01*
X45661987Y-15102910D01*
X45661989Y-15102912D01*
X45787511Y-15175382D01*
X45787512Y-15175382D01*
X45787515Y-15175384D01*
X45927525Y-15212900D01*
X45927526Y-15212900D01*
X46072474Y-15212900D01*
X46072475Y-15212900D01*
X46212485Y-15175384D01*
X46212487Y-15175382D01*
X46212489Y-15175382D01*
X46338010Y-15102912D01*
X46338010Y-15102911D01*
X46338015Y-15102909D01*
X46440509Y-15000415D01*
X46463208Y-14961100D01*
X46512982Y-14874889D01*
X46512982Y-14874887D01*
X46512984Y-14874885D01*
X46550500Y-14734875D01*
X46550500Y-14589925D01*
X46512984Y-14449915D01*
X46512982Y-14449912D01*
X46512982Y-14449910D01*
X46440512Y-14324389D01*
X46440510Y-14324387D01*
X46440509Y-14324385D01*
X46338015Y-14221891D01*
X46338012Y-14221889D01*
X46338010Y-14221887D01*
X46212488Y-14149417D01*
X46212489Y-14149417D01*
X46132213Y-14127907D01*
X46072475Y-14111900D01*
X46072474Y-14111900D01*
X45986190Y-14111900D01*
X45927999Y-14092993D01*
X45916186Y-14082904D01*
X44684496Y-12851214D01*
X44656719Y-12796697D01*
X44655500Y-12781210D01*
X44655500Y-8430122D01*
X44674407Y-8371931D01*
X44723907Y-8335967D01*
X44785093Y-8335967D01*
X44824504Y-8360118D01*
X47979104Y-11514718D01*
X48006881Y-11569235D01*
X48008100Y-11584722D01*
X48008100Y-16344927D01*
X47989193Y-16403118D01*
X47939693Y-16439082D01*
X47883477Y-16440554D01*
X47789975Y-16415500D01*
X47649500Y-16415500D01*
X47591309Y-16396593D01*
X47555345Y-16347093D01*
X47550500Y-16316500D01*
X47550500Y-12669031D01*
X47569407Y-12610840D01*
X47579490Y-12599033D01*
X47640509Y-12538015D01*
X47653696Y-12515175D01*
X47712982Y-12412489D01*
X47712982Y-12412487D01*
X47712984Y-12412485D01*
X47750500Y-12272475D01*
X47750500Y-12127525D01*
X47712984Y-11987515D01*
X47712982Y-11987512D01*
X47712982Y-11987510D01*
X47640512Y-11861989D01*
X47640510Y-11861987D01*
X47640509Y-11861985D01*
X47538015Y-11759491D01*
X47538012Y-11759489D01*
X47538010Y-11759487D01*
X47412488Y-11687017D01*
X47412489Y-11687017D01*
X47309944Y-11659540D01*
X47272475Y-11649500D01*
X47127525Y-11649500D01*
X47090056Y-11659540D01*
X46987510Y-11687017D01*
X46861989Y-11759487D01*
X46759487Y-11861989D01*
X46687017Y-11987510D01*
X46649500Y-12127525D01*
X46649500Y-12272474D01*
X46687017Y-12412489D01*
X46759487Y-12538010D01*
X46759489Y-12538012D01*
X46759491Y-12538015D01*
X46820505Y-12599029D01*
X46848281Y-12653544D01*
X46849500Y-12669031D01*
X46849500Y-16250500D01*
X46830593Y-16308691D01*
X46781093Y-16344655D01*
X46750500Y-16349500D01*
X43034481Y-16349500D01*
X42976290Y-16330593D01*
X42940326Y-16281093D01*
X42938854Y-16224879D01*
X42941399Y-16215377D01*
X42941400Y-16215375D01*
X42941400Y-16070425D01*
X42909184Y-15950195D01*
X42903884Y-15930415D01*
X42903882Y-15930412D01*
X42903882Y-15930410D01*
X42831412Y-15804889D01*
X42831410Y-15804887D01*
X42831409Y-15804885D01*
X42728915Y-15702391D01*
X42728912Y-15702389D01*
X42728910Y-15702387D01*
X42603388Y-15629917D01*
X42603389Y-15629917D01*
X42490301Y-15599615D01*
X42463375Y-15592400D01*
X42318425Y-15592400D01*
X42291499Y-15599615D01*
X42178410Y-15629917D01*
X42052889Y-15702387D01*
X42052884Y-15702391D01*
X41991871Y-15763404D01*
X41937354Y-15791181D01*
X41921868Y-15792400D01*
X40409698Y-15792400D01*
X40351507Y-15773493D01*
X40315543Y-15723993D01*
X40314072Y-15667776D01*
X40319485Y-15647575D01*
X40336500Y-15584075D01*
X40336500Y-15439125D01*
X40298984Y-15299115D01*
X40290272Y-15284025D01*
X43851600Y-15284025D01*
X43851600Y-15428975D01*
X43871335Y-15502625D01*
X43889117Y-15568989D01*
X43961587Y-15694510D01*
X43961589Y-15694512D01*
X43961591Y-15694515D01*
X44064085Y-15797009D01*
X44064087Y-15797010D01*
X44064089Y-15797012D01*
X44189611Y-15869482D01*
X44189612Y-15869482D01*
X44189615Y-15869484D01*
X44329625Y-15907000D01*
X44329626Y-15907000D01*
X44474574Y-15907000D01*
X44474575Y-15907000D01*
X44614585Y-15869484D01*
X44614587Y-15869482D01*
X44614589Y-15869482D01*
X44740110Y-15797012D01*
X44740110Y-15797011D01*
X44740115Y-15797009D01*
X44842609Y-15694515D01*
X44852194Y-15677913D01*
X44915082Y-15568989D01*
X44915082Y-15568987D01*
X44915084Y-15568985D01*
X44952600Y-15428975D01*
X44952600Y-15284025D01*
X44915084Y-15144015D01*
X44915082Y-15144012D01*
X44915082Y-15144010D01*
X44842612Y-15018489D01*
X44842610Y-15018487D01*
X44842609Y-15018485D01*
X44740115Y-14915991D01*
X44740112Y-14915989D01*
X44740110Y-14915987D01*
X44614588Y-14843517D01*
X44614589Y-14843517D01*
X44584996Y-14835587D01*
X44474575Y-14806000D01*
X44329625Y-14806000D01*
X44267890Y-14822541D01*
X44189610Y-14843517D01*
X44064089Y-14915987D01*
X43961587Y-15018489D01*
X43889117Y-15144010D01*
X43853640Y-15276413D01*
X43851600Y-15284025D01*
X40290272Y-15284025D01*
X40285877Y-15276413D01*
X40226512Y-15173589D01*
X40226510Y-15173587D01*
X40226509Y-15173585D01*
X40124015Y-15071091D01*
X40124012Y-15071089D01*
X40124010Y-15071087D01*
X39998488Y-14998617D01*
X39998489Y-14998617D01*
X39936862Y-14982104D01*
X39858475Y-14961100D01*
X39713525Y-14961100D01*
X39666855Y-14973605D01*
X39573513Y-14998616D01*
X39567521Y-15001099D01*
X39567038Y-14999934D01*
X39525365Y-15011100D01*
X37877122Y-15011100D01*
X37818931Y-14992193D01*
X37807118Y-14982104D01*
X36795839Y-13970825D01*
X42050900Y-13970825D01*
X42050900Y-14115775D01*
X42072839Y-14197652D01*
X42088417Y-14255789D01*
X42160887Y-14381310D01*
X42160889Y-14381312D01*
X42160891Y-14381315D01*
X42263385Y-14483809D01*
X42263387Y-14483810D01*
X42263389Y-14483812D01*
X42388911Y-14556282D01*
X42388912Y-14556282D01*
X42388915Y-14556284D01*
X42528925Y-14593800D01*
X42528926Y-14593800D01*
X42673874Y-14593800D01*
X42673875Y-14593800D01*
X42813885Y-14556284D01*
X42813887Y-14556282D01*
X42813889Y-14556282D01*
X42939410Y-14483812D01*
X42939410Y-14483811D01*
X42939415Y-14483809D01*
X43041909Y-14381315D01*
X43051900Y-14364010D01*
X43114382Y-14255789D01*
X43114382Y-14255787D01*
X43114384Y-14255785D01*
X43151900Y-14115775D01*
X43151900Y-13970825D01*
X43114384Y-13830815D01*
X43114382Y-13830812D01*
X43114382Y-13830810D01*
X43041912Y-13705289D01*
X43041910Y-13705287D01*
X43041909Y-13705285D01*
X42939415Y-13602791D01*
X42939412Y-13602789D01*
X42939410Y-13602787D01*
X42813888Y-13530317D01*
X42813889Y-13530317D01*
X42698879Y-13499500D01*
X42673875Y-13492800D01*
X42528925Y-13492800D01*
X42503921Y-13499500D01*
X42388910Y-13530317D01*
X42263389Y-13602787D01*
X42160887Y-13705289D01*
X42088417Y-13830810D01*
X42052509Y-13964821D01*
X42050900Y-13970825D01*
X36795839Y-13970825D01*
X35157092Y-12332078D01*
X35145889Y-12310090D01*
X35132024Y-12289684D01*
X35132226Y-12283274D01*
X35129315Y-12277561D01*
X35133174Y-12253192D01*
X35133952Y-12228529D01*
X35134791Y-12227525D01*
X42499500Y-12227525D01*
X42499500Y-12372474D01*
X42537017Y-12512489D01*
X42609487Y-12638010D01*
X42609489Y-12638012D01*
X42609491Y-12638015D01*
X42711985Y-12740509D01*
X42711987Y-12740510D01*
X42711989Y-12740512D01*
X42837511Y-12812982D01*
X42837512Y-12812982D01*
X42837515Y-12812984D01*
X42977525Y-12850500D01*
X42977526Y-12850500D01*
X43122474Y-12850500D01*
X43122475Y-12850500D01*
X43262485Y-12812984D01*
X43262487Y-12812982D01*
X43262489Y-12812982D01*
X43388010Y-12740512D01*
X43388010Y-12740511D01*
X43388015Y-12740509D01*
X43490509Y-12638015D01*
X43491485Y-12636325D01*
X43562982Y-12512489D01*
X43562982Y-12512487D01*
X43562984Y-12512485D01*
X43600500Y-12372475D01*
X43600500Y-12227525D01*
X43562984Y-12087515D01*
X43562982Y-12087512D01*
X43562982Y-12087510D01*
X43490512Y-11961989D01*
X43490510Y-11961987D01*
X43490509Y-11961985D01*
X43388015Y-11859491D01*
X43388012Y-11859489D01*
X43388010Y-11859487D01*
X43262488Y-11787017D01*
X43262489Y-11787017D01*
X43159761Y-11759491D01*
X43122475Y-11749500D01*
X42977525Y-11749500D01*
X42940239Y-11759491D01*
X42837510Y-11787017D01*
X42711989Y-11859487D01*
X42609487Y-11961989D01*
X42537017Y-12087510D01*
X42499500Y-12227525D01*
X35134791Y-12227525D01*
X35137811Y-12223913D01*
X35138886Y-12217129D01*
X35171458Y-12180187D01*
X35174440Y-12178160D01*
X35212115Y-12156409D01*
X35248621Y-12119902D01*
X35273129Y-12095396D01*
X35327646Y-12067619D01*
X35343132Y-12066400D01*
X38936242Y-12066400D01*
X38936244Y-12066400D01*
X39025388Y-12042514D01*
X39036012Y-12036380D01*
X39105312Y-11996370D01*
X43439186Y-7662496D01*
X43493703Y-7634719D01*
X43509190Y-7633500D01*
X43595474Y-7633500D01*
X43595475Y-7633500D01*
X43735485Y-7595984D01*
X43806000Y-7555271D01*
X43865847Y-7542550D01*
X43921743Y-7567436D01*
G37*
%TD.AperFunction*%
%TA.AperFunction,Conductor*%
G36*
X15634141Y-13995459D02*
G01*
X15653325Y-14000600D01*
X15741975Y-14000600D01*
X15744325Y-14000712D01*
X15770836Y-14010745D01*
X15797802Y-14019507D01*
X15799248Y-14021498D01*
X15801549Y-14022369D01*
X15809605Y-14029587D01*
X15818987Y-14038969D01*
X15818989Y-14038970D01*
X15818991Y-14038972D01*
X15898908Y-14085112D01*
X15898906Y-14085112D01*
X15898910Y-14085113D01*
X15898912Y-14085114D01*
X15988056Y-14109000D01*
X17036576Y-14109000D01*
X17094767Y-14127907D01*
X17130731Y-14177407D01*
X17130731Y-14238593D01*
X17122312Y-14257500D01*
X17060817Y-14364010D01*
X17023300Y-14504025D01*
X17023300Y-14648974D01*
X17060817Y-14788989D01*
X17133287Y-14914510D01*
X17133289Y-14914512D01*
X17133291Y-14914515D01*
X17235785Y-15017009D01*
X17235787Y-15017010D01*
X17235789Y-15017012D01*
X17361311Y-15089482D01*
X17361312Y-15089482D01*
X17361315Y-15089484D01*
X17501325Y-15127000D01*
X17501326Y-15127000D01*
X17646274Y-15127000D01*
X17646275Y-15127000D01*
X17786285Y-15089484D01*
X17786287Y-15089482D01*
X17786289Y-15089482D01*
X17911810Y-15017012D01*
X17911810Y-15017011D01*
X17911815Y-15017009D01*
X18014309Y-14914515D01*
X18037187Y-14874889D01*
X18086782Y-14788989D01*
X18086782Y-14788987D01*
X18086784Y-14788985D01*
X18124300Y-14648975D01*
X18124300Y-14504025D01*
X18086784Y-14364015D01*
X18086782Y-14364012D01*
X18086782Y-14364010D01*
X18025288Y-14257500D01*
X18012566Y-14197652D01*
X18037452Y-14141756D01*
X18090440Y-14111163D01*
X18111024Y-14109000D01*
X20368610Y-14109000D01*
X20426801Y-14127907D01*
X20438614Y-14137996D01*
X21530888Y-15230270D01*
X21610812Y-15276414D01*
X21699956Y-15300300D01*
X21699957Y-15300300D01*
X21792244Y-15300300D01*
X22835169Y-15300300D01*
X22893360Y-15319207D01*
X22929324Y-15368707D01*
X22929324Y-15429893D01*
X22905174Y-15469301D01*
X22900391Y-15474085D01*
X22900388Y-15474088D01*
X22900387Y-15474089D01*
X22827917Y-15599610D01*
X22808551Y-15671885D01*
X22790400Y-15739625D01*
X22790400Y-15884575D01*
X22807983Y-15950194D01*
X22827917Y-16024589D01*
X22900387Y-16150110D01*
X22900389Y-16150112D01*
X22900391Y-16150115D01*
X22930774Y-16180498D01*
X22958550Y-16235013D01*
X22948979Y-16295445D01*
X22905714Y-16338710D01*
X22860769Y-16349500D01*
X16219032Y-16349500D01*
X16160841Y-16330593D01*
X16149029Y-16320504D01*
X16088015Y-16259491D01*
X16088010Y-16259487D01*
X15962488Y-16187017D01*
X15962489Y-16187017D01*
X15906288Y-16171958D01*
X15822475Y-16149500D01*
X15677525Y-16149500D01*
X15644422Y-16158369D01*
X15583322Y-16155168D01*
X15535772Y-16116662D01*
X15519800Y-16062743D01*
X15519800Y-14093841D01*
X15525353Y-14076748D01*
X15526209Y-14058800D01*
X15534574Y-14048368D01*
X15538707Y-14035650D01*
X15553246Y-14025086D01*
X15564489Y-14011068D01*
X15577388Y-14007546D01*
X15588207Y-13999686D01*
X15608083Y-13999165D01*
X15623514Y-13994953D01*
X15634141Y-13995459D01*
G37*
%TD.AperFunction*%
%TA.AperFunction,Conductor*%
G36*
X29626291Y-9540932D02*
G01*
X29669556Y-9584197D01*
X29679127Y-9644629D01*
X29667083Y-9678641D01*
X29621086Y-9758310D01*
X29597200Y-9847457D01*
X29597200Y-15106068D01*
X29578293Y-15164259D01*
X29568204Y-15176071D01*
X29507191Y-15237084D01*
X29507187Y-15237089D01*
X29434717Y-15362610D01*
X29397200Y-15502625D01*
X29397200Y-15647575D01*
X29397199Y-15647575D01*
X29402613Y-15667778D01*
X29401141Y-15695858D01*
X29401141Y-15723993D01*
X29399551Y-15726180D01*
X29399410Y-15728880D01*
X29381714Y-15750731D01*
X29365177Y-15773493D01*
X29362604Y-15774328D01*
X29360904Y-15776429D01*
X29306986Y-15792400D01*
X29225790Y-15792400D01*
X29167599Y-15773493D01*
X29155786Y-15763404D01*
X28622651Y-15230269D01*
X28061712Y-14669330D01*
X27981788Y-14623186D01*
X27892644Y-14599300D01*
X27892642Y-14599300D01*
X21932290Y-14599300D01*
X21874099Y-14580393D01*
X21862286Y-14570304D01*
X21199786Y-13907804D01*
X21172009Y-13853287D01*
X21181580Y-13792855D01*
X21224845Y-13749590D01*
X21269790Y-13738800D01*
X25232642Y-13738800D01*
X25232644Y-13738800D01*
X25321788Y-13714914D01*
X25338466Y-13705285D01*
X25401712Y-13668770D01*
X29511346Y-9559135D01*
X29565859Y-9531361D01*
X29626291Y-9540932D01*
G37*
%TD.AperFunction*%
%TA.AperFunction,Conductor*%
G36*
X58003523Y-300751D02*
G01*
X58234806Y-317293D01*
X58248787Y-319304D01*
X58471881Y-367836D01*
X58485433Y-371815D01*
X58581891Y-407791D01*
X58699366Y-451606D01*
X58712205Y-457469D01*
X58912607Y-566898D01*
X58924483Y-574530D01*
X59107263Y-711357D01*
X59117939Y-720607D01*
X59279392Y-882060D01*
X59288642Y-892736D01*
X59425467Y-1075513D01*
X59433103Y-1087395D01*
X59542526Y-1287786D01*
X59548394Y-1300636D01*
X59628184Y-1514566D01*
X59632163Y-1528118D01*
X59680695Y-1751212D01*
X59682706Y-1765193D01*
X59699248Y-1996475D01*
X59699500Y-2003538D01*
X59699500Y-11500500D01*
X59680593Y-11558691D01*
X59631093Y-11594655D01*
X59600500Y-11599500D01*
X52960435Y-11599500D01*
X52884011Y-11619978D01*
X52884007Y-11619980D01*
X52841900Y-11644291D01*
X52782052Y-11657013D01*
X52726156Y-11632126D01*
X52695563Y-11579138D01*
X52693400Y-11558555D01*
X52693400Y-10067300D01*
X52712307Y-10009109D01*
X52761807Y-9973145D01*
X52792400Y-9968300D01*
X53598090Y-9968300D01*
X53598092Y-9968300D01*
X53725386Y-9934192D01*
X53725388Y-9934190D01*
X53725390Y-9934190D01*
X53839509Y-9868303D01*
X53839509Y-9868302D01*
X53839514Y-9868300D01*
X54392252Y-9315560D01*
X54446767Y-9287785D01*
X54473889Y-9288321D01*
X54473976Y-9287444D01*
X54478807Y-9287920D01*
X54478812Y-9287921D01*
X54478817Y-9287921D01*
X54646345Y-9287921D01*
X54646346Y-9287921D01*
X54810660Y-9255237D01*
X54965442Y-9191125D01*
X55104741Y-9098048D01*
X55506048Y-8696741D01*
X55599125Y-8557442D01*
X55663237Y-8402660D01*
X55695921Y-8238346D01*
X55695921Y-8212230D01*
X57445602Y-8212230D01*
X57445602Y-8379769D01*
X57478285Y-8544079D01*
X57478287Y-8544085D01*
X57542398Y-8698862D01*
X57542399Y-8698863D01*
X57635476Y-8838162D01*
X57753940Y-8956626D01*
X57893239Y-9049703D01*
X58048020Y-9113816D01*
X58212335Y-9146500D01*
X58212336Y-9146500D01*
X58379868Y-9146500D01*
X58379869Y-9146500D01*
X58544184Y-9113816D01*
X58698965Y-9049703D01*
X58838264Y-8956626D01*
X58956728Y-8838162D01*
X59049805Y-8698863D01*
X59113918Y-8544082D01*
X59146602Y-8379767D01*
X59146602Y-8212233D01*
X59113918Y-8047918D01*
X59049805Y-7893137D01*
X58956728Y-7753838D01*
X58838264Y-7635374D01*
X58736588Y-7567436D01*
X58698964Y-7542296D01*
X58544187Y-7478185D01*
X58544181Y-7478183D01*
X58379871Y-7445500D01*
X58379869Y-7445500D01*
X58212335Y-7445500D01*
X58212332Y-7445500D01*
X58048022Y-7478183D01*
X58048016Y-7478185D01*
X57893239Y-7542296D01*
X57753940Y-7635374D01*
X57753936Y-7635377D01*
X57635479Y-7753834D01*
X57635476Y-7753838D01*
X57542398Y-7893137D01*
X57478287Y-8047914D01*
X57478285Y-8047920D01*
X57445602Y-8212230D01*
X55695921Y-8212230D01*
X55695921Y-8070812D01*
X55694652Y-8064434D01*
X55694570Y-8055130D01*
X55701100Y-8034409D01*
X55703648Y-8012832D01*
X55711413Y-8001685D01*
X55712962Y-7996774D01*
X55716831Y-7993909D01*
X55723559Y-7984253D01*
X58125775Y-5582037D01*
X58180290Y-5554262D01*
X58207412Y-5554798D01*
X58207499Y-5553921D01*
X58212330Y-5554397D01*
X58212335Y-5554398D01*
X58212340Y-5554398D01*
X58379868Y-5554398D01*
X58379869Y-5554398D01*
X58544184Y-5521714D01*
X58698965Y-5457601D01*
X58838264Y-5364524D01*
X58956728Y-5246060D01*
X59049805Y-5106761D01*
X59113918Y-4951980D01*
X59146602Y-4787665D01*
X59146602Y-4620131D01*
X59113918Y-4455816D01*
X59049805Y-4301035D01*
X58956728Y-4161736D01*
X58838264Y-4043272D01*
X58698965Y-3950195D01*
X58698966Y-3950195D01*
X58698964Y-3950194D01*
X58544187Y-3886083D01*
X58544181Y-3886081D01*
X58379871Y-3853398D01*
X58379869Y-3853398D01*
X58212335Y-3853398D01*
X58212332Y-3853398D01*
X58048022Y-3886081D01*
X58048016Y-3886083D01*
X57893239Y-3950194D01*
X57753940Y-4043272D01*
X57753936Y-4043275D01*
X57635479Y-4161732D01*
X57635476Y-4161736D01*
X57542398Y-4301035D01*
X57478287Y-4455812D01*
X57478285Y-4455818D01*
X57445602Y-4620128D01*
X57445602Y-4787664D01*
X57446079Y-4792510D01*
X57444132Y-4792701D01*
X57437857Y-4845677D01*
X57417959Y-4874225D01*
X55015748Y-7276436D01*
X54961231Y-7304213D01*
X54934119Y-7303682D01*
X54934033Y-7304556D01*
X54929188Y-7304079D01*
X54761654Y-7304079D01*
X54761651Y-7304079D01*
X54597340Y-7336763D01*
X54597338Y-7336763D01*
X54442562Y-7400872D01*
X54442551Y-7400878D01*
X54303259Y-7493952D01*
X54303255Y-7493955D01*
X53901955Y-7895255D01*
X53901952Y-7895259D01*
X53808878Y-8034551D01*
X53808872Y-8034562D01*
X53744763Y-8189338D01*
X53744763Y-8189340D01*
X53712079Y-8353651D01*
X53712079Y-8521187D01*
X53712556Y-8526033D01*
X53710612Y-8526224D01*
X53704330Y-8579210D01*
X53684436Y-8607748D01*
X53353883Y-8938303D01*
X53299366Y-8966081D01*
X53283879Y-8967300D01*
X50706122Y-8967300D01*
X50647931Y-8948393D01*
X50636118Y-8938304D01*
X46528202Y-4830388D01*
X46506629Y-4793022D01*
X46505465Y-4793505D01*
X46502982Y-4787511D01*
X46430512Y-4661989D01*
X46430510Y-4661987D01*
X46430509Y-4661985D01*
X46328015Y-4559491D01*
X46307565Y-4547683D01*
X46299803Y-4540682D01*
X46293014Y-4528898D01*
X53821176Y-4528898D01*
X54400891Y-4528898D01*
X54377852Y-4568803D01*
X54354000Y-4657820D01*
X54354000Y-4749976D01*
X54377852Y-4838993D01*
X54400891Y-4878898D01*
X53821177Y-4878898D01*
X53838586Y-4966417D01*
X53838586Y-4966419D01*
X53906429Y-5130206D01*
X54004923Y-5277613D01*
X54130284Y-5402974D01*
X54277691Y-5501468D01*
X54441473Y-5569309D01*
X54441484Y-5569312D01*
X54529000Y-5586719D01*
X54529000Y-5007007D01*
X54568905Y-5030046D01*
X54657922Y-5053898D01*
X54750078Y-5053898D01*
X54839095Y-5030046D01*
X54879000Y-5007007D01*
X54879000Y-5586718D01*
X54966515Y-5569312D01*
X54966526Y-5569309D01*
X55130308Y-5501468D01*
X55277715Y-5402974D01*
X55403076Y-5277613D01*
X55501570Y-5130206D01*
X55569413Y-4966419D01*
X55569413Y-4966417D01*
X55586823Y-4878898D01*
X55007109Y-4878898D01*
X55030148Y-4838993D01*
X55054000Y-4749976D01*
X55054000Y-4657820D01*
X55030148Y-4568803D01*
X55007109Y-4528898D01*
X55586823Y-4528898D01*
X55569413Y-4441378D01*
X55569413Y-4441376D01*
X55501570Y-4277589D01*
X55403076Y-4130182D01*
X55277715Y-4004821D01*
X55130308Y-3906327D01*
X54966520Y-3838484D01*
X54879000Y-3821075D01*
X54879000Y-4400789D01*
X54839095Y-4377750D01*
X54750078Y-4353898D01*
X54657922Y-4353898D01*
X54568905Y-4377750D01*
X54529000Y-4400789D01*
X54529000Y-3821075D01*
X54441480Y-3838484D01*
X54441478Y-3838484D01*
X54277691Y-3906327D01*
X54130284Y-4004821D01*
X54004923Y-4130182D01*
X53906429Y-4277589D01*
X53838586Y-4441376D01*
X53838586Y-4441378D01*
X53821176Y-4528898D01*
X46293014Y-4528898D01*
X46289492Y-4522785D01*
X46275673Y-4507437D01*
X46274562Y-4496871D01*
X46269259Y-4487665D01*
X46271437Y-4467125D01*
X46269279Y-4446587D01*
X46274667Y-4436663D01*
X46275711Y-4426821D01*
X46286512Y-4414847D01*
X46296110Y-4397171D01*
X46382586Y-4310696D01*
X46437103Y-4282919D01*
X46452589Y-4281700D01*
X47514342Y-4281700D01*
X47514344Y-4281700D01*
X47603488Y-4257814D01*
X47683412Y-4211670D01*
X48354070Y-3541012D01*
X48400214Y-3461088D01*
X48403958Y-3447115D01*
X48407212Y-3434971D01*
X48407212Y-3434970D01*
X48424100Y-3371943D01*
X48424100Y-2752457D01*
X48420891Y-2740481D01*
X48400214Y-2663312D01*
X48395719Y-2655527D01*
X48395718Y-2655524D01*
X48357708Y-2589689D01*
X48354070Y-2583388D01*
X48033412Y-2262730D01*
X47953488Y-2216586D01*
X47953487Y-2216585D01*
X47953486Y-2216585D01*
X47948065Y-2215133D01*
X47948065Y-2215132D01*
X47894986Y-2200910D01*
X47864344Y-2192700D01*
X47864342Y-2192700D01*
X46803431Y-2192700D01*
X46745240Y-2173793D01*
X46733433Y-2163709D01*
X46732015Y-2162291D01*
X46732012Y-2162289D01*
X46732010Y-2162287D01*
X46606488Y-2089817D01*
X46606489Y-2089817D01*
X46549411Y-2074523D01*
X46466475Y-2052300D01*
X46321525Y-2052300D01*
X46259790Y-2068841D01*
X46181510Y-2089817D01*
X46055989Y-2162287D01*
X45953487Y-2264789D01*
X45881017Y-2390310D01*
X45843500Y-2530325D01*
X45843500Y-2675280D01*
X45844599Y-2679380D01*
X45841395Y-2740481D01*
X45802889Y-2788030D01*
X45748972Y-2804000D01*
X35374156Y-2804000D01*
X35359810Y-2807844D01*
X35317021Y-2819309D01*
X35317020Y-2819308D01*
X35285015Y-2827884D01*
X35205088Y-2874030D01*
X25070314Y-13008804D01*
X25015797Y-13036581D01*
X25000310Y-13037800D01*
X24219583Y-13037800D01*
X24161392Y-13018893D01*
X24125428Y-12969393D01*
X24123956Y-12913178D01*
X24159300Y-12781275D01*
X24159300Y-12636325D01*
X24121784Y-12496315D01*
X24121782Y-12496312D01*
X24121782Y-12496310D01*
X24049312Y-12370789D01*
X24049310Y-12370787D01*
X24049309Y-12370785D01*
X23946815Y-12268291D01*
X23946812Y-12268289D01*
X23946810Y-12268287D01*
X23821288Y-12195817D01*
X23821289Y-12195817D01*
X23762338Y-12180021D01*
X23681275Y-12158300D01*
X23536325Y-12158300D01*
X23474590Y-12174841D01*
X23396310Y-12195817D01*
X23270789Y-12268287D01*
X23168287Y-12370789D01*
X23095817Y-12496310D01*
X23091483Y-12512485D01*
X23074805Y-12574724D01*
X23041483Y-12626038D01*
X22984361Y-12647964D01*
X22979180Y-12648100D01*
X22235902Y-12648100D01*
X22177711Y-12629193D01*
X22141747Y-12579693D01*
X22140276Y-12523475D01*
X22142500Y-12515175D01*
X22142500Y-12370225D01*
X22131077Y-12327596D01*
X22104984Y-12230215D01*
X22104982Y-12230212D01*
X22104982Y-12230210D01*
X22032512Y-12104689D01*
X22032510Y-12104687D01*
X22032509Y-12104685D01*
X21930015Y-12002191D01*
X21930012Y-12002189D01*
X21930010Y-12002187D01*
X21804488Y-11929717D01*
X21804489Y-11929717D01*
X21774896Y-11921787D01*
X21664475Y-11892200D01*
X21664474Y-11892200D01*
X21578190Y-11892200D01*
X21519999Y-11873293D01*
X21508186Y-11863204D01*
X20581196Y-10936214D01*
X20553419Y-10881697D01*
X20552200Y-10866210D01*
X20552200Y-6210825D01*
X29499500Y-6210825D01*
X29499500Y-6355774D01*
X29537017Y-6495789D01*
X29609487Y-6621310D01*
X29609489Y-6621312D01*
X29609491Y-6621315D01*
X29711985Y-6723809D01*
X29711987Y-6723810D01*
X29711989Y-6723812D01*
X29837511Y-6796282D01*
X29837512Y-6796282D01*
X29837515Y-6796284D01*
X29977525Y-6833800D01*
X29977526Y-6833800D01*
X30122474Y-6833800D01*
X30122475Y-6833800D01*
X30262485Y-6796284D01*
X30262487Y-6796282D01*
X30262489Y-6796282D01*
X30388010Y-6723812D01*
X30388010Y-6723811D01*
X30388015Y-6723809D01*
X30490509Y-6621315D01*
X30495320Y-6612982D01*
X30562982Y-6495789D01*
X30562982Y-6495787D01*
X30562984Y-6495785D01*
X30600500Y-6355775D01*
X30600500Y-6210825D01*
X30562984Y-6070815D01*
X30562982Y-6070812D01*
X30562982Y-6070810D01*
X30490512Y-5945289D01*
X30490507Y-5945283D01*
X30479494Y-5934269D01*
X30451718Y-5879752D01*
X30450500Y-5864268D01*
X30450500Y-3754600D01*
X30469407Y-3696409D01*
X30479496Y-3684596D01*
X30815467Y-3348625D01*
X31363500Y-3348625D01*
X31363500Y-3493575D01*
X31384891Y-3573407D01*
X31401017Y-3633589D01*
X31473487Y-3759110D01*
X31473489Y-3759112D01*
X31473491Y-3759115D01*
X31575985Y-3861609D01*
X31575987Y-3861610D01*
X31575989Y-3861612D01*
X31701511Y-3934082D01*
X31701512Y-3934082D01*
X31701515Y-3934084D01*
X31841525Y-3971600D01*
X31841526Y-3971600D01*
X31986474Y-3971600D01*
X31986475Y-3971600D01*
X32126485Y-3934084D01*
X32126487Y-3934082D01*
X32126489Y-3934082D01*
X32252010Y-3861612D01*
X32252010Y-3861611D01*
X32252015Y-3861609D01*
X32354509Y-3759115D01*
X32380792Y-3713592D01*
X32426982Y-3633589D01*
X32426982Y-3633587D01*
X32426984Y-3633585D01*
X32464500Y-3493575D01*
X32464500Y-3348625D01*
X32426984Y-3208615D01*
X32426982Y-3208612D01*
X32426982Y-3208610D01*
X32354512Y-3083089D01*
X32354510Y-3083087D01*
X32354509Y-3083085D01*
X32252015Y-2980591D01*
X32252012Y-2980589D01*
X32252010Y-2980587D01*
X32126488Y-2908117D01*
X32126489Y-2908117D01*
X32065526Y-2891782D01*
X31986475Y-2870600D01*
X31841525Y-2870600D01*
X31779790Y-2887141D01*
X31701510Y-2908117D01*
X31575989Y-2980587D01*
X31473487Y-3083089D01*
X31401017Y-3208610D01*
X31401016Y-3208615D01*
X31363500Y-3348625D01*
X30815467Y-3348625D01*
X31834596Y-2329496D01*
X31889113Y-2301719D01*
X31904600Y-2300500D01*
X31920174Y-2300500D01*
X31920175Y-2300500D01*
X32060185Y-2262984D01*
X32060187Y-2262982D01*
X32060189Y-2262982D01*
X32185710Y-2190512D01*
X32185710Y-2190511D01*
X32185715Y-2190509D01*
X32288209Y-2088015D01*
X32315475Y-2040789D01*
X32360682Y-1962489D01*
X32360682Y-1962487D01*
X32360684Y-1962485D01*
X32398200Y-1822475D01*
X32398200Y-1738391D01*
X35874500Y-1738391D01*
X35874500Y-1861608D01*
X35898536Y-1982450D01*
X35945688Y-2096285D01*
X35945689Y-2096286D01*
X36014142Y-2198733D01*
X36101267Y-2285858D01*
X36203714Y-2354311D01*
X36317548Y-2401463D01*
X36438394Y-2425500D01*
X36438396Y-2425500D01*
X36561604Y-2425500D01*
X36561606Y-2425500D01*
X36682452Y-2401463D01*
X36796286Y-2354311D01*
X36898733Y-2285858D01*
X36985858Y-2198733D01*
X37054311Y-2096286D01*
X37101463Y-1982452D01*
X37125500Y-1861606D01*
X37125500Y-1738394D01*
X37125499Y-1738391D01*
X38874500Y-1738391D01*
X38874500Y-1861608D01*
X38898536Y-1982450D01*
X38945688Y-2096285D01*
X38945689Y-2096286D01*
X39014142Y-2198733D01*
X39101267Y-2285858D01*
X39203714Y-2354311D01*
X39317548Y-2401463D01*
X39438394Y-2425500D01*
X39438396Y-2425500D01*
X39561604Y-2425500D01*
X39561606Y-2425500D01*
X39682452Y-2401463D01*
X39796286Y-2354311D01*
X39898733Y-2285858D01*
X39985858Y-2198733D01*
X40054311Y-2096286D01*
X40101463Y-1982452D01*
X40125500Y-1861606D01*
X40125500Y-1738394D01*
X40101463Y-1617548D01*
X40054311Y-1503714D01*
X39985858Y-1401267D01*
X39898733Y-1314142D01*
X39816417Y-1259140D01*
X39796285Y-1245688D01*
X39682450Y-1198536D01*
X39561608Y-1174500D01*
X39561606Y-1174500D01*
X39438394Y-1174500D01*
X39438391Y-1174500D01*
X39317549Y-1198536D01*
X39203714Y-1245688D01*
X39101267Y-1314142D01*
X39101263Y-1314145D01*
X39014145Y-1401263D01*
X39014142Y-1401267D01*
X38945688Y-1503714D01*
X38898536Y-1617549D01*
X38874500Y-1738391D01*
X37125499Y-1738391D01*
X37101463Y-1617548D01*
X37054311Y-1503714D01*
X36985858Y-1401267D01*
X36898733Y-1314142D01*
X36816417Y-1259140D01*
X36796285Y-1245688D01*
X36682450Y-1198536D01*
X36561608Y-1174500D01*
X36561606Y-1174500D01*
X36438394Y-1174500D01*
X36438391Y-1174500D01*
X36317549Y-1198536D01*
X36203714Y-1245688D01*
X36101267Y-1314142D01*
X36101263Y-1314145D01*
X36014145Y-1401263D01*
X36014142Y-1401267D01*
X35945688Y-1503714D01*
X35898536Y-1617549D01*
X35874500Y-1738391D01*
X32398200Y-1738391D01*
X32398200Y-1677525D01*
X32360684Y-1537515D01*
X32360682Y-1537512D01*
X32360682Y-1537510D01*
X32288212Y-1411989D01*
X32288210Y-1411987D01*
X32288209Y-1411985D01*
X32185715Y-1309491D01*
X32185712Y-1309489D01*
X32185710Y-1309487D01*
X32060188Y-1237017D01*
X32060189Y-1237017D01*
X32030596Y-1229087D01*
X31920175Y-1199500D01*
X31775225Y-1199500D01*
X31713490Y-1216041D01*
X31635210Y-1237017D01*
X31509689Y-1309487D01*
X31407187Y-1411989D01*
X31334717Y-1537510D01*
X31297200Y-1677525D01*
X31297200Y-1693099D01*
X31278293Y-1751290D01*
X31268204Y-1763103D01*
X29729516Y-3301791D01*
X29676794Y-3393108D01*
X29676792Y-3393112D01*
X29662322Y-3447112D01*
X29662323Y-3447113D01*
X29649500Y-3494970D01*
X29649500Y-5864268D01*
X29630593Y-5922459D01*
X29620506Y-5934269D01*
X29609492Y-5945283D01*
X29609487Y-5945289D01*
X29537017Y-6070810D01*
X29499500Y-6210825D01*
X20552200Y-6210825D01*
X20552200Y-1317331D01*
X20571107Y-1259140D01*
X20581190Y-1247333D01*
X20642209Y-1186315D01*
X20642212Y-1186310D01*
X20714682Y-1060789D01*
X20714682Y-1060787D01*
X20714684Y-1060785D01*
X20752200Y-920775D01*
X20752200Y-775825D01*
X20714684Y-635815D01*
X20714682Y-635812D01*
X20714682Y-635810D01*
X20642212Y-510289D01*
X20642210Y-510287D01*
X20642209Y-510285D01*
X20601425Y-469501D01*
X20573650Y-414987D01*
X20583221Y-354555D01*
X20626486Y-311290D01*
X20671431Y-300500D01*
X57952405Y-300500D01*
X57996462Y-300500D01*
X58003523Y-300751D01*
G37*
%TD.AperFunction*%
%TA.AperFunction,Conductor*%
G36*
X46016102Y-3523907D02*
G01*
X46052066Y-3573407D01*
X46052066Y-3634593D01*
X46027916Y-3674001D01*
X44024530Y-5677388D01*
X44011764Y-5699500D01*
X43997047Y-5724989D01*
X43978387Y-5757309D01*
X43954500Y-5846457D01*
X43954500Y-6524991D01*
X43935593Y-6583182D01*
X43886093Y-6619146D01*
X43824907Y-6619146D01*
X43806000Y-6610728D01*
X43735486Y-6570016D01*
X43665480Y-6551258D01*
X43595475Y-6532500D01*
X43450525Y-6532500D01*
X43388790Y-6549041D01*
X43310510Y-6570017D01*
X43184989Y-6642487D01*
X43082487Y-6744989D01*
X43010017Y-6870510D01*
X42972500Y-7010525D01*
X42972500Y-7096810D01*
X42953593Y-7155001D01*
X42943504Y-7166814D01*
X38773914Y-11336404D01*
X38719397Y-11364181D01*
X38703910Y-11365400D01*
X35343132Y-11365400D01*
X35284941Y-11346493D01*
X35273129Y-11336404D01*
X35212115Y-11275391D01*
X35212110Y-11275387D01*
X35086588Y-11202917D01*
X35086589Y-11202917D01*
X35056996Y-11194987D01*
X34946575Y-11165400D01*
X34801625Y-11165400D01*
X34739890Y-11181941D01*
X34661610Y-11202917D01*
X34536089Y-11275387D01*
X34433589Y-11377887D01*
X34413661Y-11412404D01*
X34368191Y-11453344D01*
X34307341Y-11459739D01*
X34257921Y-11432907D01*
X33140596Y-10315582D01*
X33112819Y-10261065D01*
X33111600Y-10245578D01*
X33111600Y-8308534D01*
X33122766Y-8266863D01*
X33121600Y-8266380D01*
X33124077Y-8260396D01*
X33124084Y-8260385D01*
X33161600Y-8120375D01*
X33161600Y-7975425D01*
X33124084Y-7835415D01*
X33124082Y-7835412D01*
X33124082Y-7835410D01*
X33051612Y-7709889D01*
X33051610Y-7709887D01*
X33051609Y-7709885D01*
X32949115Y-7607391D01*
X32929358Y-7595984D01*
X32921675Y-7591548D01*
X32880735Y-7546078D01*
X32874340Y-7485228D01*
X32901170Y-7435810D01*
X35101985Y-5234996D01*
X35156502Y-5207219D01*
X35171989Y-5206000D01*
X36706068Y-5206000D01*
X36764259Y-5224907D01*
X36776071Y-5234996D01*
X36837084Y-5296008D01*
X36837089Y-5296012D01*
X36962611Y-5368482D01*
X36962609Y-5368482D01*
X36962613Y-5368483D01*
X36962615Y-5368484D01*
X37077102Y-5399161D01*
X37128413Y-5432483D01*
X37150340Y-5489604D01*
X37134505Y-5548705D01*
X37092878Y-5583328D01*
X37093134Y-5583771D01*
X37090557Y-5585258D01*
X37089369Y-5586247D01*
X37087515Y-5587015D01*
X36961989Y-5659487D01*
X36859487Y-5761989D01*
X36787017Y-5887510D01*
X36749500Y-6027525D01*
X36749500Y-6172474D01*
X36787017Y-6312489D01*
X36859487Y-6438010D01*
X36859489Y-6438012D01*
X36859491Y-6438015D01*
X36961985Y-6540509D01*
X36961987Y-6540510D01*
X36961989Y-6540512D01*
X37087511Y-6612982D01*
X37087512Y-6612982D01*
X37087515Y-6612984D01*
X37227525Y-6650500D01*
X37227526Y-6650500D01*
X37372474Y-6650500D01*
X37372475Y-6650500D01*
X37512485Y-6612984D01*
X37512487Y-6612982D01*
X37512489Y-6612982D01*
X37638010Y-6540512D01*
X37638010Y-6540511D01*
X37638015Y-6540509D01*
X37740509Y-6438015D01*
X37751801Y-6418457D01*
X37812982Y-6312489D01*
X37812982Y-6312487D01*
X37812984Y-6312485D01*
X37850500Y-6172475D01*
X37850500Y-6027525D01*
X37812984Y-5887515D01*
X37812982Y-5887512D01*
X37812982Y-5887510D01*
X37740512Y-5761989D01*
X37740510Y-5761987D01*
X37740509Y-5761985D01*
X37638015Y-5659491D01*
X37638012Y-5659489D01*
X37638010Y-5659487D01*
X37512488Y-5587017D01*
X37512489Y-5587017D01*
X37493911Y-5582039D01*
X37397998Y-5556339D01*
X37346685Y-5523016D01*
X37324759Y-5465894D01*
X37340595Y-5406794D01*
X37382223Y-5372174D01*
X37381966Y-5371729D01*
X37384557Y-5370232D01*
X37385744Y-5369246D01*
X37387577Y-5368486D01*
X37387585Y-5368484D01*
X37513115Y-5296009D01*
X37615609Y-5193515D01*
X37688084Y-5067985D01*
X37725600Y-4927975D01*
X37725600Y-4783025D01*
X37688084Y-4643015D01*
X37688082Y-4643012D01*
X37688082Y-4643010D01*
X37615612Y-4517489D01*
X37615610Y-4517487D01*
X37615609Y-4517485D01*
X37513115Y-4414991D01*
X37513112Y-4414989D01*
X37513110Y-4414987D01*
X37387588Y-4342517D01*
X37387589Y-4342517D01*
X37357996Y-4334587D01*
X37247575Y-4305000D01*
X37102625Y-4305000D01*
X37040890Y-4321541D01*
X36962610Y-4342517D01*
X36837089Y-4414987D01*
X36837084Y-4414991D01*
X36776071Y-4476004D01*
X36721554Y-4503781D01*
X36706068Y-4505000D01*
X34939656Y-4505000D01*
X34885097Y-4519618D01*
X34850507Y-4528887D01*
X34770842Y-4574883D01*
X34710994Y-4587605D01*
X34655098Y-4562719D01*
X34624505Y-4509731D01*
X34630901Y-4448880D01*
X34651335Y-4419146D01*
X35536486Y-3533996D01*
X35591003Y-3506219D01*
X35606490Y-3505000D01*
X45957911Y-3505000D01*
X46016102Y-3523907D01*
G37*
%TD.AperFunction*%
%TD*%
M02*
