%TF.GenerationSoftware,KiCad,Pcbnew,9.0.5*%
%TF.CreationDate,2026-09-17T15:51:22+01:00*%
%TF.ProjectId,phone_board,70686f6e-655f-4626-9f61-72642e6b6963,rev?*%
%TF.SameCoordinates,Original*%
%TF.FileFunction,Legend,Top*%
%TF.FilePolarity,Positive*%
%FSLAX46Y46*%
G04 Gerber Fmt 4.6, Leading zero omitted, Abs format (unit mm)*
G04 Created by KiCad (PCBNEW 9.0.5) date 2026-09-17 15:51:22*
%MOMM*%
%LPD*%
G01*
G04 APERTURE LIST*
G04 Aperture macros list*
%AMRoundRect*
0 Rectangle with rounded corners*
0 $1 Rounding radius*
0 $2 $3 $4 $5 $6 $7 $8 $9 X,Y pos of 4 corners*
0 Add a 4 corners polygon primitive as box body*
4,1,4,$2,$3,$4,$5,$6,$7,$8,$9,$2,$3,0*
0 Add four circle primitives for the rounded corners*
1,1,$1+$1,$2,$3*
1,1,$1+$1,$4,$5*
1,1,$1+$1,$6,$7*
1,1,$1+$1,$8,$9*
0 Add four rect primitives between the rounded corners*
20,1,$1+$1,$2,$3,$4,$5,0*
20,1,$1+$1,$4,$5,$6,$7,0*
20,1,$1+$1,$6,$7,$8,$9,0*
20,1,$1+$1,$8,$9,$2,$3,0*%
%AMHorizOval*
0 Thick line with rounded ends*
0 $1 width*
0 $2 $3 position (X,Y) of the first rounded end (center of the circle)*
0 $4 $5 position (X,Y) of the second rounded end (center of the circle)*
0 Add line between two ends*
20,1,$1,$2,$3,$4,$5,0*
0 Add two circle primitives to create the rounded ends*
1,1,$1,$2,$3*
1,1,$1,$4,$5*%
%AMOutline5P*
0 Free polygon, 5 corners , with rotation*
0 The origin of the aperture is its center*
0 number of corners: always 5*
0 $1 to $10 corner X, Y*
0 $11 Rotation angle, in degrees counterclockwise*
0 create outline with 5 corners*
4,1,5,$1,$2,$3,$4,$5,$6,$7,$8,$9,$10,$1,$2,$11*%
%AMOutline6P*
0 Free polygon, 6 corners , with rotation*
0 The origin of the aperture is its center*
0 number of corners: always 6*
0 $1 to $12 corner X, Y*
0 $13 Rotation angle, in degrees counterclockwise*
0 create outline with 6 corners*
4,1,6,$1,$2,$3,$4,$5,$6,$7,$8,$9,$10,$11,$12,$1,$2,$13*%
%AMOutline7P*
0 Free polygon, 7 corners , with rotation*
0 The origin of the aperture is its center*
0 number of corners: always 7*
0 $1 to $14 corner X, Y*
0 $15 Rotation angle, in degrees counterclockwise*
0 create outline with 7 corners*
4,1,7,$1,$2,$3,$4,$5,$6,$7,$8,$9,$10,$11,$12,$13,$14,$1,$2,$15*%
%AMOutline8P*
0 Free polygon, 8 corners , with rotation*
0 The origin of the aperture is its center*
0 number of corners: always 8*
0 $1 to $16 corner X, Y*
0 $17 Rotation angle, in degrees counterclockwise*
0 create outline with 8 corners*
4,1,8,$1,$2,$3,$4,$5,$6,$7,$8,$9,$10,$11,$12,$13,$14,$15,$16,$1,$2,$17*%
G04 Aperture macros list end*
%ADD10C,0.120000*%
%ADD11C,0.150000*%
%ADD12C,0.096000*%
%ADD13C,0.100000*%
%ADD14C,0.080000*%
%ADD15RoundRect,0.135000X0.185000X-0.135000X0.185000X0.135000X-0.185000X0.135000X-0.185000X-0.135000X0*%
%ADD16RoundRect,0.135000X-0.135000X-0.185000X0.135000X-0.185000X0.135000X0.185000X-0.135000X0.185000X0*%
%ADD17RoundRect,0.140000X0.170000X-0.140000X0.170000X0.140000X-0.170000X0.140000X-0.170000X-0.140000X0*%
%ADD18C,2.200000*%
%ADD19R,1.000000X0.750000*%
%ADD20C,1.000000*%
%ADD21HorizOval,1.200000X0.141421X0.141421X-0.141421X-0.141421X0*%
%ADD22C,1.200000*%
%ADD23C,0.650000*%
%ADD24R,0.600000X1.450000*%
%ADD25R,0.300000X1.450000*%
%ADD26O,1.000000X2.100000*%
%ADD27O,1.000000X1.600000*%
%ADD28RoundRect,0.225000X0.250000X-0.225000X0.250000X0.225000X-0.250000X0.225000X-0.250000X-0.225000X0*%
%ADD29RoundRect,0.140000X-0.140000X-0.170000X0.140000X-0.170000X0.140000X0.170000X-0.140000X0.170000X0*%
%ADD30R,0.500000X0.300000*%
%ADD31RoundRect,0.225000X-0.225000X-0.250000X0.225000X-0.250000X0.225000X0.250000X-0.225000X0.250000X0*%
%ADD32RoundRect,0.087500X0.250000X0.087500X-0.250000X0.087500X-0.250000X-0.087500X0.250000X-0.087500X0*%
%ADD33RoundRect,0.150000X-0.512500X-0.150000X0.512500X-0.150000X0.512500X0.150000X-0.512500X0.150000X0*%
%ADD34RoundRect,0.250000X0.250000X0.475000X-0.250000X0.475000X-0.250000X-0.475000X0.250000X-0.475000X0*%
%ADD35RoundRect,0.150000X0.150000X-0.587500X0.150000X0.587500X-0.150000X0.587500X-0.150000X-0.587500X0*%
%ADD36RoundRect,0.250000X-0.300000X-1.600000X0.300000X-1.600000X0.300000X1.600000X-0.300000X1.600000X0*%
%ADD37RoundRect,0.250000X-0.250000X-0.475000X0.250000X-0.475000X0.250000X0.475000X-0.250000X0.475000X0*%
%ADD38R,0.700000X0.700000*%
%ADD39RoundRect,0.087500X0.087500X-0.725000X0.087500X0.725000X-0.087500X0.725000X-0.087500X-0.725000X0*%
%ADD40RoundRect,0.250000X-0.250000X-1.500000X0.250000X-1.500000X0.250000X1.500000X-0.250000X1.500000X0*%
%ADD41RoundRect,0.250001X-0.499999X-1.449999X0.499999X-1.449999X0.499999X1.449999X-0.499999X1.449999X0*%
%ADD42RoundRect,0.062500X-0.375000X-0.062500X0.375000X-0.062500X0.375000X0.062500X-0.375000X0.062500X0*%
%ADD43RoundRect,0.062500X-0.062500X-0.375000X0.062500X-0.375000X0.062500X0.375000X-0.062500X0.375000X0*%
%ADD44R,1.600000X1.600000*%
%ADD45R,0.400000X0.800000*%
%ADD46R,0.800000X0.400000*%
%ADD47Outline5P,-0.600000X0.204000X-0.204000X0.600000X0.600000X0.600000X0.600000X-0.600000X-0.600000X-0.600000X90.000000*%
%ADD48R,1.200000X1.200000*%
%ADD49R,0.800000X0.800000*%
%ADD50C,0.850000*%
%ADD51RoundRect,0.150000X0.150000X0.500000X-0.150000X0.500000X-0.150000X-0.500000X0.150000X-0.500000X0*%
%ADD52RoundRect,0.175000X0.350000X0.175000X-0.350000X0.175000X-0.350000X-0.175000X0.350000X-0.175000X0*%
G04 APERTURE END LIST*
D10*
X16914285Y-34444807D02*
X17028571Y-34482902D01*
X17028571Y-34482902D02*
X17066666Y-34520998D01*
X17066666Y-34520998D02*
X17104762Y-34597188D01*
X17104762Y-34597188D02*
X17104762Y-34711474D01*
X17104762Y-34711474D02*
X17066666Y-34787664D01*
X17066666Y-34787664D02*
X17028571Y-34825760D01*
X17028571Y-34825760D02*
X16952381Y-34863855D01*
X16952381Y-34863855D02*
X16647619Y-34863855D01*
X16647619Y-34863855D02*
X16647619Y-34063855D01*
X16647619Y-34063855D02*
X16914285Y-34063855D01*
X16914285Y-34063855D02*
X16990476Y-34101950D01*
X16990476Y-34101950D02*
X17028571Y-34140045D01*
X17028571Y-34140045D02*
X17066666Y-34216236D01*
X17066666Y-34216236D02*
X17066666Y-34292426D01*
X17066666Y-34292426D02*
X17028571Y-34368617D01*
X17028571Y-34368617D02*
X16990476Y-34406712D01*
X16990476Y-34406712D02*
X16914285Y-34444807D01*
X16914285Y-34444807D02*
X16647619Y-34444807D01*
X17600000Y-34063855D02*
X17752381Y-34063855D01*
X17752381Y-34063855D02*
X17828571Y-34101950D01*
X17828571Y-34101950D02*
X17904762Y-34178140D01*
X17904762Y-34178140D02*
X17942857Y-34330521D01*
X17942857Y-34330521D02*
X17942857Y-34597188D01*
X17942857Y-34597188D02*
X17904762Y-34749569D01*
X17904762Y-34749569D02*
X17828571Y-34825760D01*
X17828571Y-34825760D02*
X17752381Y-34863855D01*
X17752381Y-34863855D02*
X17600000Y-34863855D01*
X17600000Y-34863855D02*
X17523809Y-34825760D01*
X17523809Y-34825760D02*
X17447619Y-34749569D01*
X17447619Y-34749569D02*
X17409523Y-34597188D01*
X17409523Y-34597188D02*
X17409523Y-34330521D01*
X17409523Y-34330521D02*
X17447619Y-34178140D01*
X17447619Y-34178140D02*
X17523809Y-34101950D01*
X17523809Y-34101950D02*
X17600000Y-34063855D01*
X18438095Y-34063855D02*
X18590476Y-34063855D01*
X18590476Y-34063855D02*
X18666666Y-34101950D01*
X18666666Y-34101950D02*
X18742857Y-34178140D01*
X18742857Y-34178140D02*
X18780952Y-34330521D01*
X18780952Y-34330521D02*
X18780952Y-34597188D01*
X18780952Y-34597188D02*
X18742857Y-34749569D01*
X18742857Y-34749569D02*
X18666666Y-34825760D01*
X18666666Y-34825760D02*
X18590476Y-34863855D01*
X18590476Y-34863855D02*
X18438095Y-34863855D01*
X18438095Y-34863855D02*
X18361904Y-34825760D01*
X18361904Y-34825760D02*
X18285714Y-34749569D01*
X18285714Y-34749569D02*
X18247618Y-34597188D01*
X18247618Y-34597188D02*
X18247618Y-34330521D01*
X18247618Y-34330521D02*
X18285714Y-34178140D01*
X18285714Y-34178140D02*
X18361904Y-34101950D01*
X18361904Y-34101950D02*
X18438095Y-34063855D01*
X19009523Y-34063855D02*
X19466666Y-34063855D01*
X19238094Y-34863855D02*
X19238094Y-34063855D01*
X23861905Y-18963855D02*
X23595238Y-18582902D01*
X23404762Y-18963855D02*
X23404762Y-18163855D01*
X23404762Y-18163855D02*
X23709524Y-18163855D01*
X23709524Y-18163855D02*
X23785714Y-18201950D01*
X23785714Y-18201950D02*
X23823809Y-18240045D01*
X23823809Y-18240045D02*
X23861905Y-18316236D01*
X23861905Y-18316236D02*
X23861905Y-18430521D01*
X23861905Y-18430521D02*
X23823809Y-18506712D01*
X23823809Y-18506712D02*
X23785714Y-18544807D01*
X23785714Y-18544807D02*
X23709524Y-18582902D01*
X23709524Y-18582902D02*
X23404762Y-18582902D01*
X24166666Y-18925760D02*
X24280952Y-18963855D01*
X24280952Y-18963855D02*
X24471428Y-18963855D01*
X24471428Y-18963855D02*
X24547619Y-18925760D01*
X24547619Y-18925760D02*
X24585714Y-18887664D01*
X24585714Y-18887664D02*
X24623809Y-18811474D01*
X24623809Y-18811474D02*
X24623809Y-18735283D01*
X24623809Y-18735283D02*
X24585714Y-18659093D01*
X24585714Y-18659093D02*
X24547619Y-18620998D01*
X24547619Y-18620998D02*
X24471428Y-18582902D01*
X24471428Y-18582902D02*
X24319047Y-18544807D01*
X24319047Y-18544807D02*
X24242857Y-18506712D01*
X24242857Y-18506712D02*
X24204762Y-18468617D01*
X24204762Y-18468617D02*
X24166666Y-18392426D01*
X24166666Y-18392426D02*
X24166666Y-18316236D01*
X24166666Y-18316236D02*
X24204762Y-18240045D01*
X24204762Y-18240045D02*
X24242857Y-18201950D01*
X24242857Y-18201950D02*
X24319047Y-18163855D01*
X24319047Y-18163855D02*
X24509524Y-18163855D01*
X24509524Y-18163855D02*
X24623809Y-18201950D01*
X24852381Y-18163855D02*
X25309524Y-18163855D01*
X25080952Y-18963855D02*
X25080952Y-18163855D01*
D11*
X52619048Y-24673866D02*
X53380953Y-24673866D01*
X53000000Y-25054819D02*
X53000000Y-24292914D01*
D10*
X38304762Y-1963855D02*
X38457143Y-1963855D01*
X38457143Y-1963855D02*
X38533333Y-2001950D01*
X38533333Y-2001950D02*
X38609524Y-2078140D01*
X38609524Y-2078140D02*
X38647619Y-2230521D01*
X38647619Y-2230521D02*
X38647619Y-2497188D01*
X38647619Y-2497188D02*
X38609524Y-2649569D01*
X38609524Y-2649569D02*
X38533333Y-2725760D01*
X38533333Y-2725760D02*
X38457143Y-2763855D01*
X38457143Y-2763855D02*
X38304762Y-2763855D01*
X38304762Y-2763855D02*
X38228571Y-2725760D01*
X38228571Y-2725760D02*
X38152381Y-2649569D01*
X38152381Y-2649569D02*
X38114285Y-2497188D01*
X38114285Y-2497188D02*
X38114285Y-2230521D01*
X38114285Y-2230521D02*
X38152381Y-2078140D01*
X38152381Y-2078140D02*
X38228571Y-2001950D01*
X38228571Y-2001950D02*
X38304762Y-1963855D01*
X38990476Y-2763855D02*
X38990476Y-1963855D01*
X38990476Y-1963855D02*
X39447619Y-2763855D01*
X39447619Y-2763855D02*
X39447619Y-1963855D01*
D11*
X59809523Y-15559580D02*
X59761904Y-15607200D01*
X59761904Y-15607200D02*
X59619047Y-15654819D01*
X59619047Y-15654819D02*
X59523809Y-15654819D01*
X59523809Y-15654819D02*
X59380952Y-15607200D01*
X59380952Y-15607200D02*
X59285714Y-15511961D01*
X59285714Y-15511961D02*
X59238095Y-15416723D01*
X59238095Y-15416723D02*
X59190476Y-15226247D01*
X59190476Y-15226247D02*
X59190476Y-15083390D01*
X59190476Y-15083390D02*
X59238095Y-14892914D01*
X59238095Y-14892914D02*
X59285714Y-14797676D01*
X59285714Y-14797676D02*
X59380952Y-14702438D01*
X59380952Y-14702438D02*
X59523809Y-14654819D01*
X59523809Y-14654819D02*
X59619047Y-14654819D01*
X59619047Y-14654819D02*
X59761904Y-14702438D01*
X59761904Y-14702438D02*
X59809523Y-14750057D01*
X60238095Y-15654819D02*
X60238095Y-14654819D01*
X60238095Y-15131009D02*
X60809523Y-15131009D01*
X60809523Y-15654819D02*
X60809523Y-14654819D01*
X61714285Y-14988152D02*
X61714285Y-15654819D01*
X61476190Y-14607200D02*
X61238095Y-15321485D01*
X61238095Y-15321485D02*
X61857142Y-15321485D01*
X55309523Y-28654819D02*
X54833333Y-28654819D01*
X54833333Y-28654819D02*
X54833333Y-27654819D01*
X55642857Y-28654819D02*
X55642857Y-27654819D01*
X55642857Y-27654819D02*
X56023809Y-27654819D01*
X56023809Y-27654819D02*
X56119047Y-27702438D01*
X56119047Y-27702438D02*
X56166666Y-27750057D01*
X56166666Y-27750057D02*
X56214285Y-27845295D01*
X56214285Y-27845295D02*
X56214285Y-27988152D01*
X56214285Y-27988152D02*
X56166666Y-28083390D01*
X56166666Y-28083390D02*
X56119047Y-28131009D01*
X56119047Y-28131009D02*
X56023809Y-28178628D01*
X56023809Y-28178628D02*
X55642857Y-28178628D01*
X57166666Y-27702438D02*
X57071428Y-27654819D01*
X57071428Y-27654819D02*
X56928571Y-27654819D01*
X56928571Y-27654819D02*
X56785714Y-27702438D01*
X56785714Y-27702438D02*
X56690476Y-27797676D01*
X56690476Y-27797676D02*
X56642857Y-27892914D01*
X56642857Y-27892914D02*
X56595238Y-28083390D01*
X56595238Y-28083390D02*
X56595238Y-28226247D01*
X56595238Y-28226247D02*
X56642857Y-28416723D01*
X56642857Y-28416723D02*
X56690476Y-28511961D01*
X56690476Y-28511961D02*
X56785714Y-28607200D01*
X56785714Y-28607200D02*
X56928571Y-28654819D01*
X56928571Y-28654819D02*
X57023809Y-28654819D01*
X57023809Y-28654819D02*
X57166666Y-28607200D01*
X57166666Y-28607200D02*
X57214285Y-28559580D01*
X57214285Y-28559580D02*
X57214285Y-28226247D01*
X57214285Y-28226247D02*
X57023809Y-28226247D01*
X47619048Y-24673866D02*
X48380953Y-24673866D01*
D12*
X52614285Y-5148099D02*
X52414285Y-4862385D01*
X52271428Y-5148099D02*
X52271428Y-4548099D01*
X52271428Y-4548099D02*
X52499999Y-4548099D01*
X52499999Y-4548099D02*
X52557142Y-4576670D01*
X52557142Y-4576670D02*
X52585713Y-4605242D01*
X52585713Y-4605242D02*
X52614285Y-4662385D01*
X52614285Y-4662385D02*
X52614285Y-4748099D01*
X52614285Y-4748099D02*
X52585713Y-4805242D01*
X52585713Y-4805242D02*
X52557142Y-4833813D01*
X52557142Y-4833813D02*
X52499999Y-4862385D01*
X52499999Y-4862385D02*
X52271428Y-4862385D01*
X52842856Y-4605242D02*
X52871428Y-4576670D01*
X52871428Y-4576670D02*
X52928571Y-4548099D01*
X52928571Y-4548099D02*
X53071428Y-4548099D01*
X53071428Y-4548099D02*
X53128571Y-4576670D01*
X53128571Y-4576670D02*
X53157142Y-4605242D01*
X53157142Y-4605242D02*
X53185713Y-4662385D01*
X53185713Y-4662385D02*
X53185713Y-4719528D01*
X53185713Y-4719528D02*
X53157142Y-4805242D01*
X53157142Y-4805242D02*
X52814285Y-5148099D01*
X52814285Y-5148099D02*
X53185713Y-5148099D01*
X53757142Y-5148099D02*
X53414285Y-5148099D01*
X53585714Y-5148099D02*
X53585714Y-4548099D01*
X53585714Y-4548099D02*
X53528571Y-4633813D01*
X53528571Y-4633813D02*
X53471428Y-4690956D01*
X53471428Y-4690956D02*
X53414285Y-4719528D01*
D13*
X51614285Y-19302371D02*
X51414285Y-19016657D01*
X51271428Y-19302371D02*
X51271428Y-18702371D01*
X51271428Y-18702371D02*
X51499999Y-18702371D01*
X51499999Y-18702371D02*
X51557142Y-18730942D01*
X51557142Y-18730942D02*
X51585713Y-18759514D01*
X51585713Y-18759514D02*
X51614285Y-18816657D01*
X51614285Y-18816657D02*
X51614285Y-18902371D01*
X51614285Y-18902371D02*
X51585713Y-18959514D01*
X51585713Y-18959514D02*
X51557142Y-18988085D01*
X51557142Y-18988085D02*
X51499999Y-19016657D01*
X51499999Y-19016657D02*
X51271428Y-19016657D01*
X51842856Y-18759514D02*
X51871428Y-18730942D01*
X51871428Y-18730942D02*
X51928571Y-18702371D01*
X51928571Y-18702371D02*
X52071428Y-18702371D01*
X52071428Y-18702371D02*
X52128571Y-18730942D01*
X52128571Y-18730942D02*
X52157142Y-18759514D01*
X52157142Y-18759514D02*
X52185713Y-18816657D01*
X52185713Y-18816657D02*
X52185713Y-18873800D01*
X52185713Y-18873800D02*
X52157142Y-18959514D01*
X52157142Y-18959514D02*
X51814285Y-19302371D01*
X51814285Y-19302371D02*
X52185713Y-19302371D01*
X52728571Y-18702371D02*
X52442857Y-18702371D01*
X52442857Y-18702371D02*
X52414285Y-18988085D01*
X52414285Y-18988085D02*
X52442857Y-18959514D01*
X52442857Y-18959514D02*
X52500000Y-18930942D01*
X52500000Y-18930942D02*
X52642857Y-18930942D01*
X52642857Y-18930942D02*
X52700000Y-18959514D01*
X52700000Y-18959514D02*
X52728571Y-18988085D01*
X52728571Y-18988085D02*
X52757142Y-19045228D01*
X52757142Y-19045228D02*
X52757142Y-19188085D01*
X52757142Y-19188085D02*
X52728571Y-19245228D01*
X52728571Y-19245228D02*
X52700000Y-19273800D01*
X52700000Y-19273800D02*
X52642857Y-19302371D01*
X52642857Y-19302371D02*
X52500000Y-19302371D01*
X52500000Y-19302371D02*
X52442857Y-19273800D01*
X52442857Y-19273800D02*
X52414285Y-19245228D01*
D12*
X10214285Y-28610956D02*
X10185713Y-28639528D01*
X10185713Y-28639528D02*
X10099999Y-28668099D01*
X10099999Y-28668099D02*
X10042856Y-28668099D01*
X10042856Y-28668099D02*
X9957142Y-28639528D01*
X9957142Y-28639528D02*
X9899999Y-28582385D01*
X9899999Y-28582385D02*
X9871428Y-28525242D01*
X9871428Y-28525242D02*
X9842856Y-28410956D01*
X9842856Y-28410956D02*
X9842856Y-28325242D01*
X9842856Y-28325242D02*
X9871428Y-28210956D01*
X9871428Y-28210956D02*
X9899999Y-28153813D01*
X9899999Y-28153813D02*
X9957142Y-28096670D01*
X9957142Y-28096670D02*
X10042856Y-28068099D01*
X10042856Y-28068099D02*
X10099999Y-28068099D01*
X10099999Y-28068099D02*
X10185713Y-28096670D01*
X10185713Y-28096670D02*
X10214285Y-28125242D01*
X10785713Y-28668099D02*
X10442856Y-28668099D01*
X10614285Y-28668099D02*
X10614285Y-28068099D01*
X10614285Y-28068099D02*
X10557142Y-28153813D01*
X10557142Y-28153813D02*
X10499999Y-28210956D01*
X10499999Y-28210956D02*
X10442856Y-28239528D01*
X11328571Y-28068099D02*
X11042857Y-28068099D01*
X11042857Y-28068099D02*
X11014285Y-28353813D01*
X11014285Y-28353813D02*
X11042857Y-28325242D01*
X11042857Y-28325242D02*
X11100000Y-28296670D01*
X11100000Y-28296670D02*
X11242857Y-28296670D01*
X11242857Y-28296670D02*
X11300000Y-28325242D01*
X11300000Y-28325242D02*
X11328571Y-28353813D01*
X11328571Y-28353813D02*
X11357142Y-28410956D01*
X11357142Y-28410956D02*
X11357142Y-28553813D01*
X11357142Y-28553813D02*
X11328571Y-28610956D01*
X11328571Y-28610956D02*
X11300000Y-28639528D01*
X11300000Y-28639528D02*
X11242857Y-28668099D01*
X11242857Y-28668099D02*
X11100000Y-28668099D01*
X11100000Y-28668099D02*
X11042857Y-28639528D01*
X11042857Y-28639528D02*
X11014285Y-28610956D01*
X54815436Y-13426143D02*
X54844008Y-13454715D01*
X54844008Y-13454715D02*
X54872579Y-13540429D01*
X54872579Y-13540429D02*
X54872579Y-13597572D01*
X54872579Y-13597572D02*
X54844008Y-13683286D01*
X54844008Y-13683286D02*
X54786865Y-13740429D01*
X54786865Y-13740429D02*
X54729722Y-13769000D01*
X54729722Y-13769000D02*
X54615436Y-13797572D01*
X54615436Y-13797572D02*
X54529722Y-13797572D01*
X54529722Y-13797572D02*
X54415436Y-13769000D01*
X54415436Y-13769000D02*
X54358293Y-13740429D01*
X54358293Y-13740429D02*
X54301150Y-13683286D01*
X54301150Y-13683286D02*
X54272579Y-13597572D01*
X54272579Y-13597572D02*
X54272579Y-13540429D01*
X54272579Y-13540429D02*
X54301150Y-13454715D01*
X54301150Y-13454715D02*
X54329722Y-13426143D01*
X54872579Y-12854715D02*
X54872579Y-13197572D01*
X54872579Y-13026143D02*
X54272579Y-13026143D01*
X54272579Y-13026143D02*
X54358293Y-13083286D01*
X54358293Y-13083286D02*
X54415436Y-13140429D01*
X54415436Y-13140429D02*
X54444008Y-13197572D01*
X54472579Y-12340429D02*
X54872579Y-12340429D01*
X54244008Y-12483286D02*
X54672579Y-12626143D01*
X54672579Y-12626143D02*
X54672579Y-12254714D01*
X35900000Y-20437058D02*
X35700000Y-20151344D01*
X35557143Y-20437058D02*
X35557143Y-19837058D01*
X35557143Y-19837058D02*
X35785714Y-19837058D01*
X35785714Y-19837058D02*
X35842857Y-19865629D01*
X35842857Y-19865629D02*
X35871428Y-19894201D01*
X35871428Y-19894201D02*
X35900000Y-19951344D01*
X35900000Y-19951344D02*
X35900000Y-20037058D01*
X35900000Y-20037058D02*
X35871428Y-20094201D01*
X35871428Y-20094201D02*
X35842857Y-20122772D01*
X35842857Y-20122772D02*
X35785714Y-20151344D01*
X35785714Y-20151344D02*
X35557143Y-20151344D01*
X36414286Y-19837058D02*
X36300000Y-19837058D01*
X36300000Y-19837058D02*
X36242857Y-19865629D01*
X36242857Y-19865629D02*
X36214286Y-19894201D01*
X36214286Y-19894201D02*
X36157143Y-19979915D01*
X36157143Y-19979915D02*
X36128571Y-20094201D01*
X36128571Y-20094201D02*
X36128571Y-20322772D01*
X36128571Y-20322772D02*
X36157143Y-20379915D01*
X36157143Y-20379915D02*
X36185714Y-20408487D01*
X36185714Y-20408487D02*
X36242857Y-20437058D01*
X36242857Y-20437058D02*
X36357143Y-20437058D01*
X36357143Y-20437058D02*
X36414286Y-20408487D01*
X36414286Y-20408487D02*
X36442857Y-20379915D01*
X36442857Y-20379915D02*
X36471428Y-20322772D01*
X36471428Y-20322772D02*
X36471428Y-20179915D01*
X36471428Y-20179915D02*
X36442857Y-20122772D01*
X36442857Y-20122772D02*
X36414286Y-20094201D01*
X36414286Y-20094201D02*
X36357143Y-20065629D01*
X36357143Y-20065629D02*
X36242857Y-20065629D01*
X36242857Y-20065629D02*
X36185714Y-20094201D01*
X36185714Y-20094201D02*
X36157143Y-20122772D01*
X36157143Y-20122772D02*
X36128571Y-20179915D01*
D13*
X50602371Y-6885714D02*
X50316657Y-7085714D01*
X50602371Y-7228571D02*
X50002371Y-7228571D01*
X50002371Y-7228571D02*
X50002371Y-7000000D01*
X50002371Y-7000000D02*
X50030942Y-6942857D01*
X50030942Y-6942857D02*
X50059514Y-6914286D01*
X50059514Y-6914286D02*
X50116657Y-6885714D01*
X50116657Y-6885714D02*
X50202371Y-6885714D01*
X50202371Y-6885714D02*
X50259514Y-6914286D01*
X50259514Y-6914286D02*
X50288085Y-6942857D01*
X50288085Y-6942857D02*
X50316657Y-7000000D01*
X50316657Y-7000000D02*
X50316657Y-7228571D01*
X50059514Y-6657143D02*
X50030942Y-6628571D01*
X50030942Y-6628571D02*
X50002371Y-6571429D01*
X50002371Y-6571429D02*
X50002371Y-6428571D01*
X50002371Y-6428571D02*
X50030942Y-6371429D01*
X50030942Y-6371429D02*
X50059514Y-6342857D01*
X50059514Y-6342857D02*
X50116657Y-6314286D01*
X50116657Y-6314286D02*
X50173800Y-6314286D01*
X50173800Y-6314286D02*
X50259514Y-6342857D01*
X50259514Y-6342857D02*
X50602371Y-6685714D01*
X50602371Y-6685714D02*
X50602371Y-6314286D01*
X50002371Y-5942857D02*
X50002371Y-5885714D01*
X50002371Y-5885714D02*
X50030942Y-5828571D01*
X50030942Y-5828571D02*
X50059514Y-5800000D01*
X50059514Y-5800000D02*
X50116657Y-5771428D01*
X50116657Y-5771428D02*
X50230942Y-5742857D01*
X50230942Y-5742857D02*
X50373800Y-5742857D01*
X50373800Y-5742857D02*
X50488085Y-5771428D01*
X50488085Y-5771428D02*
X50545228Y-5800000D01*
X50545228Y-5800000D02*
X50573800Y-5828571D01*
X50573800Y-5828571D02*
X50602371Y-5885714D01*
X50602371Y-5885714D02*
X50602371Y-5942857D01*
X50602371Y-5942857D02*
X50573800Y-6000000D01*
X50573800Y-6000000D02*
X50545228Y-6028571D01*
X50545228Y-6028571D02*
X50488085Y-6057142D01*
X50488085Y-6057142D02*
X50373800Y-6085714D01*
X50373800Y-6085714D02*
X50230942Y-6085714D01*
X50230942Y-6085714D02*
X50116657Y-6057142D01*
X50116657Y-6057142D02*
X50059514Y-6028571D01*
X50059514Y-6028571D02*
X50030942Y-6000000D01*
X50030942Y-6000000D02*
X50002371Y-5942857D01*
X21602371Y-6385714D02*
X21316657Y-6585714D01*
X21602371Y-6728571D02*
X21002371Y-6728571D01*
X21002371Y-6728571D02*
X21002371Y-6500000D01*
X21002371Y-6500000D02*
X21030942Y-6442857D01*
X21030942Y-6442857D02*
X21059514Y-6414286D01*
X21059514Y-6414286D02*
X21116657Y-6385714D01*
X21116657Y-6385714D02*
X21202371Y-6385714D01*
X21202371Y-6385714D02*
X21259514Y-6414286D01*
X21259514Y-6414286D02*
X21288085Y-6442857D01*
X21288085Y-6442857D02*
X21316657Y-6500000D01*
X21316657Y-6500000D02*
X21316657Y-6728571D01*
X21602371Y-5814286D02*
X21602371Y-6157143D01*
X21602371Y-5985714D02*
X21002371Y-5985714D01*
X21002371Y-5985714D02*
X21088085Y-6042857D01*
X21088085Y-6042857D02*
X21145228Y-6100000D01*
X21145228Y-6100000D02*
X21173800Y-6157143D01*
X21602371Y-5242857D02*
X21602371Y-5585714D01*
X21602371Y-5414285D02*
X21002371Y-5414285D01*
X21002371Y-5414285D02*
X21088085Y-5471428D01*
X21088085Y-5471428D02*
X21145228Y-5528571D01*
X21145228Y-5528571D02*
X21173800Y-5585714D01*
X56240904Y-18387299D02*
X56321716Y-18346893D01*
X56321716Y-18346893D02*
X56422731Y-18245878D01*
X56422731Y-18245878D02*
X56442935Y-18185269D01*
X56442935Y-18185269D02*
X56442935Y-18144863D01*
X56442935Y-18144863D02*
X56422731Y-18084253D01*
X56422731Y-18084253D02*
X56382325Y-18043847D01*
X56382325Y-18043847D02*
X56321716Y-18023644D01*
X56321716Y-18023644D02*
X56281310Y-18023644D01*
X56281310Y-18023644D02*
X56220701Y-18043847D01*
X56220701Y-18043847D02*
X56119686Y-18104457D01*
X56119686Y-18104457D02*
X56059077Y-18124660D01*
X56059077Y-18124660D02*
X56018670Y-18124660D01*
X56018670Y-18124660D02*
X55958061Y-18104457D01*
X55958061Y-18104457D02*
X55917655Y-18064050D01*
X55917655Y-18064050D02*
X55897452Y-18003441D01*
X55897452Y-18003441D02*
X55897452Y-17963035D01*
X55897452Y-17963035D02*
X55917655Y-17902426D01*
X55917655Y-17902426D02*
X56018670Y-17801411D01*
X56018670Y-17801411D02*
X56099483Y-17761005D01*
X56281310Y-17619583D02*
X56281310Y-17579177D01*
X56281310Y-17579177D02*
X56301513Y-17518568D01*
X56301513Y-17518568D02*
X56402529Y-17417553D01*
X56402529Y-17417553D02*
X56463138Y-17397349D01*
X56463138Y-17397349D02*
X56503544Y-17397349D01*
X56503544Y-17397349D02*
X56564153Y-17417553D01*
X56564153Y-17417553D02*
X56604559Y-17457959D01*
X56604559Y-17457959D02*
X56644965Y-17538771D01*
X56644965Y-17538771D02*
X56644965Y-18023644D01*
X56644965Y-18023644D02*
X56907605Y-17761004D01*
X32799999Y-26327371D02*
X32799999Y-26755942D01*
X32799999Y-26755942D02*
X32771428Y-26841657D01*
X32771428Y-26841657D02*
X32714285Y-26898800D01*
X32714285Y-26898800D02*
X32628571Y-26927371D01*
X32628571Y-26927371D02*
X32571428Y-26927371D01*
X33399999Y-26927371D02*
X33057142Y-26927371D01*
X33228571Y-26927371D02*
X33228571Y-26327371D01*
X33228571Y-26327371D02*
X33171428Y-26413085D01*
X33171428Y-26413085D02*
X33114285Y-26470228D01*
X33114285Y-26470228D02*
X33057142Y-26498800D01*
D12*
X36223856Y-15215436D02*
X36195284Y-15244008D01*
X36195284Y-15244008D02*
X36109570Y-15272579D01*
X36109570Y-15272579D02*
X36052427Y-15272579D01*
X36052427Y-15272579D02*
X35966713Y-15244008D01*
X35966713Y-15244008D02*
X35909570Y-15186865D01*
X35909570Y-15186865D02*
X35880999Y-15129722D01*
X35880999Y-15129722D02*
X35852427Y-15015436D01*
X35852427Y-15015436D02*
X35852427Y-14929722D01*
X35852427Y-14929722D02*
X35880999Y-14815436D01*
X35880999Y-14815436D02*
X35909570Y-14758293D01*
X35909570Y-14758293D02*
X35966713Y-14701150D01*
X35966713Y-14701150D02*
X36052427Y-14672579D01*
X36052427Y-14672579D02*
X36109570Y-14672579D01*
X36109570Y-14672579D02*
X36195284Y-14701150D01*
X36195284Y-14701150D02*
X36223856Y-14729722D01*
X36795284Y-15272579D02*
X36452427Y-15272579D01*
X36623856Y-15272579D02*
X36623856Y-14672579D01*
X36623856Y-14672579D02*
X36566713Y-14758293D01*
X36566713Y-14758293D02*
X36509570Y-14815436D01*
X36509570Y-14815436D02*
X36452427Y-14844008D01*
X36995285Y-14672579D02*
X37366713Y-14672579D01*
X37366713Y-14672579D02*
X37166713Y-14901150D01*
X37166713Y-14901150D02*
X37252428Y-14901150D01*
X37252428Y-14901150D02*
X37309571Y-14929722D01*
X37309571Y-14929722D02*
X37338142Y-14958293D01*
X37338142Y-14958293D02*
X37366713Y-15015436D01*
X37366713Y-15015436D02*
X37366713Y-15158293D01*
X37366713Y-15158293D02*
X37338142Y-15215436D01*
X37338142Y-15215436D02*
X37309571Y-15244008D01*
X37309571Y-15244008D02*
X37252428Y-15272579D01*
X37252428Y-15272579D02*
X37080999Y-15272579D01*
X37080999Y-15272579D02*
X37023856Y-15244008D01*
X37023856Y-15244008D02*
X36995285Y-15215436D01*
D13*
X28602371Y-25599999D02*
X28316657Y-25799999D01*
X28602371Y-25942856D02*
X28002371Y-25942856D01*
X28002371Y-25942856D02*
X28002371Y-25714285D01*
X28002371Y-25714285D02*
X28030942Y-25657142D01*
X28030942Y-25657142D02*
X28059514Y-25628571D01*
X28059514Y-25628571D02*
X28116657Y-25599999D01*
X28116657Y-25599999D02*
X28202371Y-25599999D01*
X28202371Y-25599999D02*
X28259514Y-25628571D01*
X28259514Y-25628571D02*
X28288085Y-25657142D01*
X28288085Y-25657142D02*
X28316657Y-25714285D01*
X28316657Y-25714285D02*
X28316657Y-25942856D01*
X28602371Y-25028571D02*
X28602371Y-25371428D01*
X28602371Y-25199999D02*
X28002371Y-25199999D01*
X28002371Y-25199999D02*
X28088085Y-25257142D01*
X28088085Y-25257142D02*
X28145228Y-25314285D01*
X28145228Y-25314285D02*
X28173800Y-25371428D01*
D12*
X45474714Y-26008098D02*
X45274714Y-25722384D01*
X45131857Y-26008098D02*
X45131857Y-25408098D01*
X45131857Y-25408098D02*
X45360428Y-25408098D01*
X45360428Y-25408098D02*
X45417571Y-25436669D01*
X45417571Y-25436669D02*
X45446142Y-25465241D01*
X45446142Y-25465241D02*
X45474714Y-25522384D01*
X45474714Y-25522384D02*
X45474714Y-25608098D01*
X45474714Y-25608098D02*
X45446142Y-25665241D01*
X45446142Y-25665241D02*
X45417571Y-25693812D01*
X45417571Y-25693812D02*
X45360428Y-25722384D01*
X45360428Y-25722384D02*
X45131857Y-25722384D01*
X45703285Y-25465241D02*
X45731857Y-25436669D01*
X45731857Y-25436669D02*
X45789000Y-25408098D01*
X45789000Y-25408098D02*
X45931857Y-25408098D01*
X45931857Y-25408098D02*
X45989000Y-25436669D01*
X45989000Y-25436669D02*
X46017571Y-25465241D01*
X46017571Y-25465241D02*
X46046142Y-25522384D01*
X46046142Y-25522384D02*
X46046142Y-25579527D01*
X46046142Y-25579527D02*
X46017571Y-25665241D01*
X46017571Y-25665241D02*
X45674714Y-26008098D01*
X45674714Y-26008098D02*
X46046142Y-26008098D01*
X46560429Y-25408098D02*
X46446143Y-25408098D01*
X46446143Y-25408098D02*
X46389000Y-25436669D01*
X46389000Y-25436669D02*
X46360429Y-25465241D01*
X46360429Y-25465241D02*
X46303286Y-25550955D01*
X46303286Y-25550955D02*
X46274714Y-25665241D01*
X46274714Y-25665241D02*
X46274714Y-25893812D01*
X46274714Y-25893812D02*
X46303286Y-25950955D01*
X46303286Y-25950955D02*
X46331857Y-25979527D01*
X46331857Y-25979527D02*
X46389000Y-26008098D01*
X46389000Y-26008098D02*
X46503286Y-26008098D01*
X46503286Y-26008098D02*
X46560429Y-25979527D01*
X46560429Y-25979527D02*
X46589000Y-25950955D01*
X46589000Y-25950955D02*
X46617571Y-25893812D01*
X46617571Y-25893812D02*
X46617571Y-25750955D01*
X46617571Y-25750955D02*
X46589000Y-25693812D01*
X46589000Y-25693812D02*
X46560429Y-25665241D01*
X46560429Y-25665241D02*
X46503286Y-25636669D01*
X46503286Y-25636669D02*
X46389000Y-25636669D01*
X46389000Y-25636669D02*
X46331857Y-25665241D01*
X46331857Y-25665241D02*
X46303286Y-25693812D01*
X46303286Y-25693812D02*
X46274714Y-25750955D01*
D13*
X35900000Y-16702371D02*
X35700000Y-16416657D01*
X35557143Y-16702371D02*
X35557143Y-16102371D01*
X35557143Y-16102371D02*
X35785714Y-16102371D01*
X35785714Y-16102371D02*
X35842857Y-16130942D01*
X35842857Y-16130942D02*
X35871428Y-16159514D01*
X35871428Y-16159514D02*
X35900000Y-16216657D01*
X35900000Y-16216657D02*
X35900000Y-16302371D01*
X35900000Y-16302371D02*
X35871428Y-16359514D01*
X35871428Y-16359514D02*
X35842857Y-16388085D01*
X35842857Y-16388085D02*
X35785714Y-16416657D01*
X35785714Y-16416657D02*
X35557143Y-16416657D01*
X36100000Y-16102371D02*
X36500000Y-16102371D01*
X36500000Y-16102371D02*
X36242857Y-16702371D01*
D12*
X31114285Y-7637059D02*
X30914285Y-7351345D01*
X30771428Y-7637059D02*
X30771428Y-7037059D01*
X30771428Y-7037059D02*
X30999999Y-7037059D01*
X30999999Y-7037059D02*
X31057142Y-7065630D01*
X31057142Y-7065630D02*
X31085713Y-7094202D01*
X31085713Y-7094202D02*
X31114285Y-7151345D01*
X31114285Y-7151345D02*
X31114285Y-7237059D01*
X31114285Y-7237059D02*
X31085713Y-7294202D01*
X31085713Y-7294202D02*
X31057142Y-7322773D01*
X31057142Y-7322773D02*
X30999999Y-7351345D01*
X30999999Y-7351345D02*
X30771428Y-7351345D01*
X31342856Y-7094202D02*
X31371428Y-7065630D01*
X31371428Y-7065630D02*
X31428571Y-7037059D01*
X31428571Y-7037059D02*
X31571428Y-7037059D01*
X31571428Y-7037059D02*
X31628571Y-7065630D01*
X31628571Y-7065630D02*
X31657142Y-7094202D01*
X31657142Y-7094202D02*
X31685713Y-7151345D01*
X31685713Y-7151345D02*
X31685713Y-7208488D01*
X31685713Y-7208488D02*
X31657142Y-7294202D01*
X31657142Y-7294202D02*
X31314285Y-7637059D01*
X31314285Y-7637059D02*
X31685713Y-7637059D01*
X31885714Y-7037059D02*
X32285714Y-7037059D01*
X32285714Y-7037059D02*
X32028571Y-7637059D01*
D13*
X56240904Y-5387299D02*
X56321716Y-5346893D01*
X56321716Y-5346893D02*
X56422731Y-5245878D01*
X56422731Y-5245878D02*
X56442935Y-5185269D01*
X56442935Y-5185269D02*
X56442935Y-5144863D01*
X56442935Y-5144863D02*
X56422731Y-5084253D01*
X56422731Y-5084253D02*
X56382325Y-5043847D01*
X56382325Y-5043847D02*
X56321716Y-5023644D01*
X56321716Y-5023644D02*
X56281310Y-5023644D01*
X56281310Y-5023644D02*
X56220701Y-5043847D01*
X56220701Y-5043847D02*
X56119686Y-5104457D01*
X56119686Y-5104457D02*
X56059077Y-5124660D01*
X56059077Y-5124660D02*
X56018670Y-5124660D01*
X56018670Y-5124660D02*
X55958061Y-5104457D01*
X55958061Y-5104457D02*
X55917655Y-5064050D01*
X55917655Y-5064050D02*
X55897452Y-5003441D01*
X55897452Y-5003441D02*
X55897452Y-4963035D01*
X55897452Y-4963035D02*
X55917655Y-4902426D01*
X55917655Y-4902426D02*
X56018670Y-4801411D01*
X56018670Y-4801411D02*
X56099483Y-4761005D01*
X56907605Y-4761004D02*
X56665168Y-5003441D01*
X56786387Y-4882223D02*
X56362123Y-4457959D01*
X56362123Y-4457959D02*
X56382326Y-4558974D01*
X56382326Y-4558974D02*
X56382326Y-4639786D01*
X56382326Y-4639786D02*
X56362123Y-4700395D01*
D12*
X47974714Y-21540956D02*
X47946142Y-21569528D01*
X47946142Y-21569528D02*
X47860428Y-21598099D01*
X47860428Y-21598099D02*
X47803285Y-21598099D01*
X47803285Y-21598099D02*
X47717571Y-21569528D01*
X47717571Y-21569528D02*
X47660428Y-21512385D01*
X47660428Y-21512385D02*
X47631857Y-21455242D01*
X47631857Y-21455242D02*
X47603285Y-21340956D01*
X47603285Y-21340956D02*
X47603285Y-21255242D01*
X47603285Y-21255242D02*
X47631857Y-21140956D01*
X47631857Y-21140956D02*
X47660428Y-21083813D01*
X47660428Y-21083813D02*
X47717571Y-21026670D01*
X47717571Y-21026670D02*
X47803285Y-20998099D01*
X47803285Y-20998099D02*
X47860428Y-20998099D01*
X47860428Y-20998099D02*
X47946142Y-21026670D01*
X47946142Y-21026670D02*
X47974714Y-21055242D01*
X48174714Y-20998099D02*
X48546142Y-20998099D01*
X48546142Y-20998099D02*
X48346142Y-21226670D01*
X48346142Y-21226670D02*
X48431857Y-21226670D01*
X48431857Y-21226670D02*
X48489000Y-21255242D01*
X48489000Y-21255242D02*
X48517571Y-21283813D01*
X48517571Y-21283813D02*
X48546142Y-21340956D01*
X48546142Y-21340956D02*
X48546142Y-21483813D01*
X48546142Y-21483813D02*
X48517571Y-21540956D01*
X48517571Y-21540956D02*
X48489000Y-21569528D01*
X48489000Y-21569528D02*
X48431857Y-21598099D01*
X48431857Y-21598099D02*
X48260428Y-21598099D01*
X48260428Y-21598099D02*
X48203285Y-21569528D01*
X48203285Y-21569528D02*
X48174714Y-21540956D01*
D13*
X10900000Y-19655228D02*
X10871428Y-19683800D01*
X10871428Y-19683800D02*
X10785714Y-19712371D01*
X10785714Y-19712371D02*
X10728571Y-19712371D01*
X10728571Y-19712371D02*
X10642857Y-19683800D01*
X10642857Y-19683800D02*
X10585714Y-19626657D01*
X10585714Y-19626657D02*
X10557143Y-19569514D01*
X10557143Y-19569514D02*
X10528571Y-19455228D01*
X10528571Y-19455228D02*
X10528571Y-19369514D01*
X10528571Y-19369514D02*
X10557143Y-19255228D01*
X10557143Y-19255228D02*
X10585714Y-19198085D01*
X10585714Y-19198085D02*
X10642857Y-19140942D01*
X10642857Y-19140942D02*
X10728571Y-19112371D01*
X10728571Y-19112371D02*
X10785714Y-19112371D01*
X10785714Y-19112371D02*
X10871428Y-19140942D01*
X10871428Y-19140942D02*
X10900000Y-19169514D01*
X11185714Y-19712371D02*
X11300000Y-19712371D01*
X11300000Y-19712371D02*
X11357143Y-19683800D01*
X11357143Y-19683800D02*
X11385714Y-19655228D01*
X11385714Y-19655228D02*
X11442857Y-19569514D01*
X11442857Y-19569514D02*
X11471428Y-19455228D01*
X11471428Y-19455228D02*
X11471428Y-19226657D01*
X11471428Y-19226657D02*
X11442857Y-19169514D01*
X11442857Y-19169514D02*
X11414286Y-19140942D01*
X11414286Y-19140942D02*
X11357143Y-19112371D01*
X11357143Y-19112371D02*
X11242857Y-19112371D01*
X11242857Y-19112371D02*
X11185714Y-19140942D01*
X11185714Y-19140942D02*
X11157143Y-19169514D01*
X11157143Y-19169514D02*
X11128571Y-19226657D01*
X11128571Y-19226657D02*
X11128571Y-19369514D01*
X11128571Y-19369514D02*
X11157143Y-19426657D01*
X11157143Y-19426657D02*
X11185714Y-19455228D01*
X11185714Y-19455228D02*
X11242857Y-19483800D01*
X11242857Y-19483800D02*
X11357143Y-19483800D01*
X11357143Y-19483800D02*
X11414286Y-19455228D01*
X11414286Y-19455228D02*
X11442857Y-19426657D01*
X11442857Y-19426657D02*
X11471428Y-19369514D01*
X8042857Y-27972371D02*
X8042857Y-28458085D01*
X8042857Y-28458085D02*
X8071428Y-28515228D01*
X8071428Y-28515228D02*
X8100000Y-28543800D01*
X8100000Y-28543800D02*
X8157142Y-28572371D01*
X8157142Y-28572371D02*
X8271428Y-28572371D01*
X8271428Y-28572371D02*
X8328571Y-28543800D01*
X8328571Y-28543800D02*
X8357142Y-28515228D01*
X8357142Y-28515228D02*
X8385714Y-28458085D01*
X8385714Y-28458085D02*
X8385714Y-27972371D01*
X8614285Y-27972371D02*
X9014285Y-27972371D01*
X9014285Y-27972371D02*
X8757142Y-28572371D01*
D12*
X17614285Y-26048099D02*
X17414285Y-25762385D01*
X17271428Y-26048099D02*
X17271428Y-25448099D01*
X17271428Y-25448099D02*
X17499999Y-25448099D01*
X17499999Y-25448099D02*
X17557142Y-25476670D01*
X17557142Y-25476670D02*
X17585713Y-25505242D01*
X17585713Y-25505242D02*
X17614285Y-25562385D01*
X17614285Y-25562385D02*
X17614285Y-25648099D01*
X17614285Y-25648099D02*
X17585713Y-25705242D01*
X17585713Y-25705242D02*
X17557142Y-25733813D01*
X17557142Y-25733813D02*
X17499999Y-25762385D01*
X17499999Y-25762385D02*
X17271428Y-25762385D01*
X18185713Y-26048099D02*
X17842856Y-26048099D01*
X18014285Y-26048099D02*
X18014285Y-25448099D01*
X18014285Y-25448099D02*
X17957142Y-25533813D01*
X17957142Y-25533813D02*
X17899999Y-25590956D01*
X17899999Y-25590956D02*
X17842856Y-25619528D01*
X18414285Y-25505242D02*
X18442857Y-25476670D01*
X18442857Y-25476670D02*
X18500000Y-25448099D01*
X18500000Y-25448099D02*
X18642857Y-25448099D01*
X18642857Y-25448099D02*
X18700000Y-25476670D01*
X18700000Y-25476670D02*
X18728571Y-25505242D01*
X18728571Y-25505242D02*
X18757142Y-25562385D01*
X18757142Y-25562385D02*
X18757142Y-25619528D01*
X18757142Y-25619528D02*
X18728571Y-25705242D01*
X18728571Y-25705242D02*
X18385714Y-26048099D01*
X18385714Y-26048099D02*
X18757142Y-26048099D01*
X50114285Y-21648099D02*
X49914285Y-21362385D01*
X49771428Y-21648099D02*
X49771428Y-21048099D01*
X49771428Y-21048099D02*
X49999999Y-21048099D01*
X49999999Y-21048099D02*
X50057142Y-21076670D01*
X50057142Y-21076670D02*
X50085713Y-21105242D01*
X50085713Y-21105242D02*
X50114285Y-21162385D01*
X50114285Y-21162385D02*
X50114285Y-21248099D01*
X50114285Y-21248099D02*
X50085713Y-21305242D01*
X50085713Y-21305242D02*
X50057142Y-21333813D01*
X50057142Y-21333813D02*
X49999999Y-21362385D01*
X49999999Y-21362385D02*
X49771428Y-21362385D01*
X50342856Y-21105242D02*
X50371428Y-21076670D01*
X50371428Y-21076670D02*
X50428571Y-21048099D01*
X50428571Y-21048099D02*
X50571428Y-21048099D01*
X50571428Y-21048099D02*
X50628571Y-21076670D01*
X50628571Y-21076670D02*
X50657142Y-21105242D01*
X50657142Y-21105242D02*
X50685713Y-21162385D01*
X50685713Y-21162385D02*
X50685713Y-21219528D01*
X50685713Y-21219528D02*
X50657142Y-21305242D01*
X50657142Y-21305242D02*
X50314285Y-21648099D01*
X50314285Y-21648099D02*
X50685713Y-21648099D01*
X50885714Y-21048099D02*
X51257142Y-21048099D01*
X51257142Y-21048099D02*
X51057142Y-21276670D01*
X51057142Y-21276670D02*
X51142857Y-21276670D01*
X51142857Y-21276670D02*
X51200000Y-21305242D01*
X51200000Y-21305242D02*
X51228571Y-21333813D01*
X51228571Y-21333813D02*
X51257142Y-21390956D01*
X51257142Y-21390956D02*
X51257142Y-21533813D01*
X51257142Y-21533813D02*
X51228571Y-21590956D01*
X51228571Y-21590956D02*
X51200000Y-21619528D01*
X51200000Y-21619528D02*
X51142857Y-21648099D01*
X51142857Y-21648099D02*
X50971428Y-21648099D01*
X50971428Y-21648099D02*
X50914285Y-21619528D01*
X50914285Y-21619528D02*
X50885714Y-21590956D01*
D13*
X39900000Y-18085228D02*
X39871428Y-18113800D01*
X39871428Y-18113800D02*
X39785714Y-18142371D01*
X39785714Y-18142371D02*
X39728571Y-18142371D01*
X39728571Y-18142371D02*
X39642857Y-18113800D01*
X39642857Y-18113800D02*
X39585714Y-18056657D01*
X39585714Y-18056657D02*
X39557143Y-17999514D01*
X39557143Y-17999514D02*
X39528571Y-17885228D01*
X39528571Y-17885228D02*
X39528571Y-17799514D01*
X39528571Y-17799514D02*
X39557143Y-17685228D01*
X39557143Y-17685228D02*
X39585714Y-17628085D01*
X39585714Y-17628085D02*
X39642857Y-17570942D01*
X39642857Y-17570942D02*
X39728571Y-17542371D01*
X39728571Y-17542371D02*
X39785714Y-17542371D01*
X39785714Y-17542371D02*
X39871428Y-17570942D01*
X39871428Y-17570942D02*
X39900000Y-17599514D01*
X40128571Y-17599514D02*
X40157143Y-17570942D01*
X40157143Y-17570942D02*
X40214286Y-17542371D01*
X40214286Y-17542371D02*
X40357143Y-17542371D01*
X40357143Y-17542371D02*
X40414286Y-17570942D01*
X40414286Y-17570942D02*
X40442857Y-17599514D01*
X40442857Y-17599514D02*
X40471428Y-17656657D01*
X40471428Y-17656657D02*
X40471428Y-17713800D01*
X40471428Y-17713800D02*
X40442857Y-17799514D01*
X40442857Y-17799514D02*
X40100000Y-18142371D01*
X40100000Y-18142371D02*
X40471428Y-18142371D01*
X50902371Y-11385714D02*
X50616657Y-11585714D01*
X50902371Y-11728571D02*
X50302371Y-11728571D01*
X50302371Y-11728571D02*
X50302371Y-11500000D01*
X50302371Y-11500000D02*
X50330942Y-11442857D01*
X50330942Y-11442857D02*
X50359514Y-11414286D01*
X50359514Y-11414286D02*
X50416657Y-11385714D01*
X50416657Y-11385714D02*
X50502371Y-11385714D01*
X50502371Y-11385714D02*
X50559514Y-11414286D01*
X50559514Y-11414286D02*
X50588085Y-11442857D01*
X50588085Y-11442857D02*
X50616657Y-11500000D01*
X50616657Y-11500000D02*
X50616657Y-11728571D01*
X50902371Y-10814286D02*
X50902371Y-11157143D01*
X50902371Y-10985714D02*
X50302371Y-10985714D01*
X50302371Y-10985714D02*
X50388085Y-11042857D01*
X50388085Y-11042857D02*
X50445228Y-11100000D01*
X50445228Y-11100000D02*
X50473800Y-11157143D01*
X50302371Y-10271428D02*
X50302371Y-10557142D01*
X50302371Y-10557142D02*
X50588085Y-10585714D01*
X50588085Y-10585714D02*
X50559514Y-10557142D01*
X50559514Y-10557142D02*
X50530942Y-10500000D01*
X50530942Y-10500000D02*
X50530942Y-10357142D01*
X50530942Y-10357142D02*
X50559514Y-10300000D01*
X50559514Y-10300000D02*
X50588085Y-10271428D01*
X50588085Y-10271428D02*
X50645228Y-10242857D01*
X50645228Y-10242857D02*
X50788085Y-10242857D01*
X50788085Y-10242857D02*
X50845228Y-10271428D01*
X50845228Y-10271428D02*
X50873800Y-10300000D01*
X50873800Y-10300000D02*
X50902371Y-10357142D01*
X50902371Y-10357142D02*
X50902371Y-10500000D01*
X50902371Y-10500000D02*
X50873800Y-10557142D01*
X50873800Y-10557142D02*
X50845228Y-10585714D01*
X35785228Y-8099999D02*
X35813800Y-8128571D01*
X35813800Y-8128571D02*
X35842371Y-8214285D01*
X35842371Y-8214285D02*
X35842371Y-8271428D01*
X35842371Y-8271428D02*
X35813800Y-8357142D01*
X35813800Y-8357142D02*
X35756657Y-8414285D01*
X35756657Y-8414285D02*
X35699514Y-8442856D01*
X35699514Y-8442856D02*
X35585228Y-8471428D01*
X35585228Y-8471428D02*
X35499514Y-8471428D01*
X35499514Y-8471428D02*
X35385228Y-8442856D01*
X35385228Y-8442856D02*
X35328085Y-8414285D01*
X35328085Y-8414285D02*
X35270942Y-8357142D01*
X35270942Y-8357142D02*
X35242371Y-8271428D01*
X35242371Y-8271428D02*
X35242371Y-8214285D01*
X35242371Y-8214285D02*
X35270942Y-8128571D01*
X35270942Y-8128571D02*
X35299514Y-8099999D01*
X35242371Y-7557142D02*
X35242371Y-7842856D01*
X35242371Y-7842856D02*
X35528085Y-7871428D01*
X35528085Y-7871428D02*
X35499514Y-7842856D01*
X35499514Y-7842856D02*
X35470942Y-7785714D01*
X35470942Y-7785714D02*
X35470942Y-7642856D01*
X35470942Y-7642856D02*
X35499514Y-7585714D01*
X35499514Y-7585714D02*
X35528085Y-7557142D01*
X35528085Y-7557142D02*
X35585228Y-7528571D01*
X35585228Y-7528571D02*
X35728085Y-7528571D01*
X35728085Y-7528571D02*
X35785228Y-7557142D01*
X35785228Y-7557142D02*
X35813800Y-7585714D01*
X35813800Y-7585714D02*
X35842371Y-7642856D01*
X35842371Y-7642856D02*
X35842371Y-7785714D01*
X35842371Y-7785714D02*
X35813800Y-7842856D01*
X35813800Y-7842856D02*
X35785228Y-7871428D01*
D14*
X52747381Y-8197429D02*
X52723572Y-8221239D01*
X52723572Y-8221239D02*
X52652143Y-8245048D01*
X52652143Y-8245048D02*
X52604524Y-8245048D01*
X52604524Y-8245048D02*
X52533096Y-8221239D01*
X52533096Y-8221239D02*
X52485477Y-8173619D01*
X52485477Y-8173619D02*
X52461667Y-8126000D01*
X52461667Y-8126000D02*
X52437858Y-8030762D01*
X52437858Y-8030762D02*
X52437858Y-7959334D01*
X52437858Y-7959334D02*
X52461667Y-7864096D01*
X52461667Y-7864096D02*
X52485477Y-7816477D01*
X52485477Y-7816477D02*
X52533096Y-7768858D01*
X52533096Y-7768858D02*
X52604524Y-7745048D01*
X52604524Y-7745048D02*
X52652143Y-7745048D01*
X52652143Y-7745048D02*
X52723572Y-7768858D01*
X52723572Y-7768858D02*
X52747381Y-7792667D01*
X52937858Y-7792667D02*
X52961667Y-7768858D01*
X52961667Y-7768858D02*
X53009286Y-7745048D01*
X53009286Y-7745048D02*
X53128334Y-7745048D01*
X53128334Y-7745048D02*
X53175953Y-7768858D01*
X53175953Y-7768858D02*
X53199762Y-7792667D01*
X53199762Y-7792667D02*
X53223572Y-7840286D01*
X53223572Y-7840286D02*
X53223572Y-7887905D01*
X53223572Y-7887905D02*
X53199762Y-7959334D01*
X53199762Y-7959334D02*
X52914048Y-8245048D01*
X52914048Y-8245048D02*
X53223572Y-8245048D01*
X53533095Y-7745048D02*
X53580714Y-7745048D01*
X53580714Y-7745048D02*
X53628333Y-7768858D01*
X53628333Y-7768858D02*
X53652143Y-7792667D01*
X53652143Y-7792667D02*
X53675952Y-7840286D01*
X53675952Y-7840286D02*
X53699762Y-7935524D01*
X53699762Y-7935524D02*
X53699762Y-8054572D01*
X53699762Y-8054572D02*
X53675952Y-8149810D01*
X53675952Y-8149810D02*
X53652143Y-8197429D01*
X53652143Y-8197429D02*
X53628333Y-8221239D01*
X53628333Y-8221239D02*
X53580714Y-8245048D01*
X53580714Y-8245048D02*
X53533095Y-8245048D01*
X53533095Y-8245048D02*
X53485476Y-8221239D01*
X53485476Y-8221239D02*
X53461667Y-8197429D01*
X53461667Y-8197429D02*
X53437857Y-8149810D01*
X53437857Y-8149810D02*
X53414048Y-8054572D01*
X53414048Y-8054572D02*
X53414048Y-7935524D01*
X53414048Y-7935524D02*
X53437857Y-7840286D01*
X53437857Y-7840286D02*
X53461667Y-7792667D01*
X53461667Y-7792667D02*
X53485476Y-7768858D01*
X53485476Y-7768858D02*
X53533095Y-7745048D01*
D12*
X44042857Y-6008099D02*
X44042857Y-6493813D01*
X44042857Y-6493813D02*
X44071428Y-6550956D01*
X44071428Y-6550956D02*
X44100000Y-6579528D01*
X44100000Y-6579528D02*
X44157142Y-6608099D01*
X44157142Y-6608099D02*
X44271428Y-6608099D01*
X44271428Y-6608099D02*
X44328571Y-6579528D01*
X44328571Y-6579528D02*
X44357142Y-6550956D01*
X44357142Y-6550956D02*
X44385714Y-6493813D01*
X44385714Y-6493813D02*
X44385714Y-6008099D01*
X44928571Y-6208099D02*
X44928571Y-6608099D01*
X44785713Y-5979528D02*
X44642856Y-6408099D01*
X44642856Y-6408099D02*
X45014285Y-6408099D01*
D13*
X51114285Y-14102371D02*
X50914285Y-13816657D01*
X50771428Y-14102371D02*
X50771428Y-13502371D01*
X50771428Y-13502371D02*
X50999999Y-13502371D01*
X50999999Y-13502371D02*
X51057142Y-13530942D01*
X51057142Y-13530942D02*
X51085713Y-13559514D01*
X51085713Y-13559514D02*
X51114285Y-13616657D01*
X51114285Y-13616657D02*
X51114285Y-13702371D01*
X51114285Y-13702371D02*
X51085713Y-13759514D01*
X51085713Y-13759514D02*
X51057142Y-13788085D01*
X51057142Y-13788085D02*
X50999999Y-13816657D01*
X50999999Y-13816657D02*
X50771428Y-13816657D01*
X51342856Y-13559514D02*
X51371428Y-13530942D01*
X51371428Y-13530942D02*
X51428571Y-13502371D01*
X51428571Y-13502371D02*
X51571428Y-13502371D01*
X51571428Y-13502371D02*
X51628571Y-13530942D01*
X51628571Y-13530942D02*
X51657142Y-13559514D01*
X51657142Y-13559514D02*
X51685713Y-13616657D01*
X51685713Y-13616657D02*
X51685713Y-13673800D01*
X51685713Y-13673800D02*
X51657142Y-13759514D01*
X51657142Y-13759514D02*
X51314285Y-14102371D01*
X51314285Y-14102371D02*
X51685713Y-14102371D01*
X51914285Y-13559514D02*
X51942857Y-13530942D01*
X51942857Y-13530942D02*
X52000000Y-13502371D01*
X52000000Y-13502371D02*
X52142857Y-13502371D01*
X52142857Y-13502371D02*
X52200000Y-13530942D01*
X52200000Y-13530942D02*
X52228571Y-13559514D01*
X52228571Y-13559514D02*
X52257142Y-13616657D01*
X52257142Y-13616657D02*
X52257142Y-13673800D01*
X52257142Y-13673800D02*
X52228571Y-13759514D01*
X52228571Y-13759514D02*
X51885714Y-14102371D01*
X51885714Y-14102371D02*
X52257142Y-14102371D01*
X36702371Y-24699999D02*
X36416657Y-24899999D01*
X36702371Y-25042856D02*
X36102371Y-25042856D01*
X36102371Y-25042856D02*
X36102371Y-24814285D01*
X36102371Y-24814285D02*
X36130942Y-24757142D01*
X36130942Y-24757142D02*
X36159514Y-24728571D01*
X36159514Y-24728571D02*
X36216657Y-24699999D01*
X36216657Y-24699999D02*
X36302371Y-24699999D01*
X36302371Y-24699999D02*
X36359514Y-24728571D01*
X36359514Y-24728571D02*
X36388085Y-24757142D01*
X36388085Y-24757142D02*
X36416657Y-24814285D01*
X36416657Y-24814285D02*
X36416657Y-25042856D01*
X36159514Y-24471428D02*
X36130942Y-24442856D01*
X36130942Y-24442856D02*
X36102371Y-24385714D01*
X36102371Y-24385714D02*
X36102371Y-24242856D01*
X36102371Y-24242856D02*
X36130942Y-24185714D01*
X36130942Y-24185714D02*
X36159514Y-24157142D01*
X36159514Y-24157142D02*
X36216657Y-24128571D01*
X36216657Y-24128571D02*
X36273800Y-24128571D01*
X36273800Y-24128571D02*
X36359514Y-24157142D01*
X36359514Y-24157142D02*
X36702371Y-24499999D01*
X36702371Y-24499999D02*
X36702371Y-24128571D01*
X47400000Y-6202371D02*
X47200000Y-5916657D01*
X47057143Y-6202371D02*
X47057143Y-5602371D01*
X47057143Y-5602371D02*
X47285714Y-5602371D01*
X47285714Y-5602371D02*
X47342857Y-5630942D01*
X47342857Y-5630942D02*
X47371428Y-5659514D01*
X47371428Y-5659514D02*
X47400000Y-5716657D01*
X47400000Y-5716657D02*
X47400000Y-5802371D01*
X47400000Y-5802371D02*
X47371428Y-5859514D01*
X47371428Y-5859514D02*
X47342857Y-5888085D01*
X47342857Y-5888085D02*
X47285714Y-5916657D01*
X47285714Y-5916657D02*
X47057143Y-5916657D01*
X47742857Y-5859514D02*
X47685714Y-5830942D01*
X47685714Y-5830942D02*
X47657143Y-5802371D01*
X47657143Y-5802371D02*
X47628571Y-5745228D01*
X47628571Y-5745228D02*
X47628571Y-5716657D01*
X47628571Y-5716657D02*
X47657143Y-5659514D01*
X47657143Y-5659514D02*
X47685714Y-5630942D01*
X47685714Y-5630942D02*
X47742857Y-5602371D01*
X47742857Y-5602371D02*
X47857143Y-5602371D01*
X47857143Y-5602371D02*
X47914286Y-5630942D01*
X47914286Y-5630942D02*
X47942857Y-5659514D01*
X47942857Y-5659514D02*
X47971428Y-5716657D01*
X47971428Y-5716657D02*
X47971428Y-5745228D01*
X47971428Y-5745228D02*
X47942857Y-5802371D01*
X47942857Y-5802371D02*
X47914286Y-5830942D01*
X47914286Y-5830942D02*
X47857143Y-5859514D01*
X47857143Y-5859514D02*
X47742857Y-5859514D01*
X47742857Y-5859514D02*
X47685714Y-5888085D01*
X47685714Y-5888085D02*
X47657143Y-5916657D01*
X47657143Y-5916657D02*
X47628571Y-5973800D01*
X47628571Y-5973800D02*
X47628571Y-6088085D01*
X47628571Y-6088085D02*
X47657143Y-6145228D01*
X47657143Y-6145228D02*
X47685714Y-6173800D01*
X47685714Y-6173800D02*
X47742857Y-6202371D01*
X47742857Y-6202371D02*
X47857143Y-6202371D01*
X47857143Y-6202371D02*
X47914286Y-6173800D01*
X47914286Y-6173800D02*
X47942857Y-6145228D01*
X47942857Y-6145228D02*
X47971428Y-6088085D01*
X47971428Y-6088085D02*
X47971428Y-5973800D01*
X47971428Y-5973800D02*
X47942857Y-5916657D01*
X47942857Y-5916657D02*
X47914286Y-5888085D01*
X47914286Y-5888085D02*
X47857143Y-5859514D01*
D12*
X42214713Y-15272579D02*
X42014713Y-14986865D01*
X41871856Y-15272579D02*
X41871856Y-14672579D01*
X41871856Y-14672579D02*
X42100427Y-14672579D01*
X42100427Y-14672579D02*
X42157570Y-14701150D01*
X42157570Y-14701150D02*
X42186141Y-14729722D01*
X42186141Y-14729722D02*
X42214713Y-14786865D01*
X42214713Y-14786865D02*
X42214713Y-14872579D01*
X42214713Y-14872579D02*
X42186141Y-14929722D01*
X42186141Y-14929722D02*
X42157570Y-14958293D01*
X42157570Y-14958293D02*
X42100427Y-14986865D01*
X42100427Y-14986865D02*
X41871856Y-14986865D01*
X42786141Y-15272579D02*
X42443284Y-15272579D01*
X42614713Y-15272579D02*
X42614713Y-14672579D01*
X42614713Y-14672579D02*
X42557570Y-14758293D01*
X42557570Y-14758293D02*
X42500427Y-14815436D01*
X42500427Y-14815436D02*
X42443284Y-14844008D01*
X42986142Y-14672579D02*
X43357570Y-14672579D01*
X43357570Y-14672579D02*
X43157570Y-14901150D01*
X43157570Y-14901150D02*
X43243285Y-14901150D01*
X43243285Y-14901150D02*
X43300428Y-14929722D01*
X43300428Y-14929722D02*
X43328999Y-14958293D01*
X43328999Y-14958293D02*
X43357570Y-15015436D01*
X43357570Y-15015436D02*
X43357570Y-15158293D01*
X43357570Y-15158293D02*
X43328999Y-15215436D01*
X43328999Y-15215436D02*
X43300428Y-15244008D01*
X43300428Y-15244008D02*
X43243285Y-15272579D01*
X43243285Y-15272579D02*
X43071856Y-15272579D01*
X43071856Y-15272579D02*
X43014713Y-15244008D01*
X43014713Y-15244008D02*
X42986142Y-15215436D01*
X40500000Y-33637059D02*
X40300000Y-33351345D01*
X40157143Y-33637059D02*
X40157143Y-33037059D01*
X40157143Y-33037059D02*
X40385714Y-33037059D01*
X40385714Y-33037059D02*
X40442857Y-33065630D01*
X40442857Y-33065630D02*
X40471428Y-33094202D01*
X40471428Y-33094202D02*
X40500000Y-33151345D01*
X40500000Y-33151345D02*
X40500000Y-33237059D01*
X40500000Y-33237059D02*
X40471428Y-33294202D01*
X40471428Y-33294202D02*
X40442857Y-33322773D01*
X40442857Y-33322773D02*
X40385714Y-33351345D01*
X40385714Y-33351345D02*
X40157143Y-33351345D01*
X41042857Y-33037059D02*
X40757143Y-33037059D01*
X40757143Y-33037059D02*
X40728571Y-33322773D01*
X40728571Y-33322773D02*
X40757143Y-33294202D01*
X40757143Y-33294202D02*
X40814286Y-33265630D01*
X40814286Y-33265630D02*
X40957143Y-33265630D01*
X40957143Y-33265630D02*
X41014286Y-33294202D01*
X41014286Y-33294202D02*
X41042857Y-33322773D01*
X41042857Y-33322773D02*
X41071428Y-33379916D01*
X41071428Y-33379916D02*
X41071428Y-33522773D01*
X41071428Y-33522773D02*
X41042857Y-33579916D01*
X41042857Y-33579916D02*
X41014286Y-33608488D01*
X41014286Y-33608488D02*
X40957143Y-33637059D01*
X40957143Y-33637059D02*
X40814286Y-33637059D01*
X40814286Y-33637059D02*
X40757143Y-33608488D01*
X40757143Y-33608488D02*
X40728571Y-33579916D01*
X26133857Y-10085079D02*
X26133857Y-10570793D01*
X26133857Y-10570793D02*
X26162428Y-10627936D01*
X26162428Y-10627936D02*
X26191000Y-10656508D01*
X26191000Y-10656508D02*
X26248142Y-10685079D01*
X26248142Y-10685079D02*
X26362428Y-10685079D01*
X26362428Y-10685079D02*
X26419571Y-10656508D01*
X26419571Y-10656508D02*
X26448142Y-10627936D01*
X26448142Y-10627936D02*
X26476714Y-10570793D01*
X26476714Y-10570793D02*
X26476714Y-10085079D01*
X26705285Y-10085079D02*
X27076713Y-10085079D01*
X27076713Y-10085079D02*
X26876713Y-10313650D01*
X26876713Y-10313650D02*
X26962428Y-10313650D01*
X26962428Y-10313650D02*
X27019571Y-10342222D01*
X27019571Y-10342222D02*
X27048142Y-10370793D01*
X27048142Y-10370793D02*
X27076713Y-10427936D01*
X27076713Y-10427936D02*
X27076713Y-10570793D01*
X27076713Y-10570793D02*
X27048142Y-10627936D01*
X27048142Y-10627936D02*
X27019571Y-10656508D01*
X27019571Y-10656508D02*
X26962428Y-10685079D01*
X26962428Y-10685079D02*
X26790999Y-10685079D01*
X26790999Y-10685079D02*
X26733856Y-10656508D01*
X26733856Y-10656508D02*
X26705285Y-10627936D01*
D13*
X40700000Y-13395228D02*
X40671428Y-13423800D01*
X40671428Y-13423800D02*
X40585714Y-13452371D01*
X40585714Y-13452371D02*
X40528571Y-13452371D01*
X40528571Y-13452371D02*
X40442857Y-13423800D01*
X40442857Y-13423800D02*
X40385714Y-13366657D01*
X40385714Y-13366657D02*
X40357143Y-13309514D01*
X40357143Y-13309514D02*
X40328571Y-13195228D01*
X40328571Y-13195228D02*
X40328571Y-13109514D01*
X40328571Y-13109514D02*
X40357143Y-12995228D01*
X40357143Y-12995228D02*
X40385714Y-12938085D01*
X40385714Y-12938085D02*
X40442857Y-12880942D01*
X40442857Y-12880942D02*
X40528571Y-12852371D01*
X40528571Y-12852371D02*
X40585714Y-12852371D01*
X40585714Y-12852371D02*
X40671428Y-12880942D01*
X40671428Y-12880942D02*
X40700000Y-12909514D01*
X40900000Y-12852371D02*
X41300000Y-12852371D01*
X41300000Y-12852371D02*
X41042857Y-13452371D01*
D12*
X25973856Y-7815436D02*
X25945284Y-7844008D01*
X25945284Y-7844008D02*
X25859570Y-7872579D01*
X25859570Y-7872579D02*
X25802427Y-7872579D01*
X25802427Y-7872579D02*
X25716713Y-7844008D01*
X25716713Y-7844008D02*
X25659570Y-7786865D01*
X25659570Y-7786865D02*
X25630999Y-7729722D01*
X25630999Y-7729722D02*
X25602427Y-7615436D01*
X25602427Y-7615436D02*
X25602427Y-7529722D01*
X25602427Y-7529722D02*
X25630999Y-7415436D01*
X25630999Y-7415436D02*
X25659570Y-7358293D01*
X25659570Y-7358293D02*
X25716713Y-7301150D01*
X25716713Y-7301150D02*
X25802427Y-7272579D01*
X25802427Y-7272579D02*
X25859570Y-7272579D01*
X25859570Y-7272579D02*
X25945284Y-7301150D01*
X25945284Y-7301150D02*
X25973856Y-7329722D01*
X26545284Y-7872579D02*
X26202427Y-7872579D01*
X26373856Y-7872579D02*
X26373856Y-7272579D01*
X26373856Y-7272579D02*
X26316713Y-7358293D01*
X26316713Y-7358293D02*
X26259570Y-7415436D01*
X26259570Y-7415436D02*
X26202427Y-7444008D01*
X27059571Y-7272579D02*
X26945285Y-7272579D01*
X26945285Y-7272579D02*
X26888142Y-7301150D01*
X26888142Y-7301150D02*
X26859571Y-7329722D01*
X26859571Y-7329722D02*
X26802428Y-7415436D01*
X26802428Y-7415436D02*
X26773856Y-7529722D01*
X26773856Y-7529722D02*
X26773856Y-7758293D01*
X26773856Y-7758293D02*
X26802428Y-7815436D01*
X26802428Y-7815436D02*
X26830999Y-7844008D01*
X26830999Y-7844008D02*
X26888142Y-7872579D01*
X26888142Y-7872579D02*
X27002428Y-7872579D01*
X27002428Y-7872579D02*
X27059571Y-7844008D01*
X27059571Y-7844008D02*
X27088142Y-7815436D01*
X27088142Y-7815436D02*
X27116713Y-7758293D01*
X27116713Y-7758293D02*
X27116713Y-7615436D01*
X27116713Y-7615436D02*
X27088142Y-7558293D01*
X27088142Y-7558293D02*
X27059571Y-7529722D01*
X27059571Y-7529722D02*
X27002428Y-7501150D01*
X27002428Y-7501150D02*
X26888142Y-7501150D01*
X26888142Y-7501150D02*
X26830999Y-7529722D01*
X26830999Y-7529722D02*
X26802428Y-7558293D01*
X26802428Y-7558293D02*
X26773856Y-7615436D01*
X40983857Y-28005242D02*
X40926714Y-27976670D01*
X40926714Y-27976670D02*
X40869571Y-27919528D01*
X40869571Y-27919528D02*
X40783857Y-27833813D01*
X40783857Y-27833813D02*
X40726714Y-27805242D01*
X40726714Y-27805242D02*
X40669571Y-27805242D01*
X40698142Y-27948099D02*
X40641000Y-27919528D01*
X40641000Y-27919528D02*
X40583857Y-27862385D01*
X40583857Y-27862385D02*
X40555285Y-27748099D01*
X40555285Y-27748099D02*
X40555285Y-27548099D01*
X40555285Y-27548099D02*
X40583857Y-27433813D01*
X40583857Y-27433813D02*
X40641000Y-27376670D01*
X40641000Y-27376670D02*
X40698142Y-27348099D01*
X40698142Y-27348099D02*
X40812428Y-27348099D01*
X40812428Y-27348099D02*
X40869571Y-27376670D01*
X40869571Y-27376670D02*
X40926714Y-27433813D01*
X40926714Y-27433813D02*
X40955285Y-27548099D01*
X40955285Y-27548099D02*
X40955285Y-27748099D01*
X40955285Y-27748099D02*
X40926714Y-27862385D01*
X40926714Y-27862385D02*
X40869571Y-27919528D01*
X40869571Y-27919528D02*
X40812428Y-27948099D01*
X40812428Y-27948099D02*
X40698142Y-27948099D01*
X41526713Y-27948099D02*
X41183856Y-27948099D01*
X41355285Y-27948099D02*
X41355285Y-27348099D01*
X41355285Y-27348099D02*
X41298142Y-27433813D01*
X41298142Y-27433813D02*
X41240999Y-27490956D01*
X41240999Y-27490956D02*
X41183856Y-27519528D01*
X27075285Y-14215436D02*
X27046713Y-14244008D01*
X27046713Y-14244008D02*
X26960999Y-14272579D01*
X26960999Y-14272579D02*
X26903856Y-14272579D01*
X26903856Y-14272579D02*
X26818142Y-14244008D01*
X26818142Y-14244008D02*
X26760999Y-14186865D01*
X26760999Y-14186865D02*
X26732428Y-14129722D01*
X26732428Y-14129722D02*
X26703856Y-14015436D01*
X26703856Y-14015436D02*
X26703856Y-13929722D01*
X26703856Y-13929722D02*
X26732428Y-13815436D01*
X26732428Y-13815436D02*
X26760999Y-13758293D01*
X26760999Y-13758293D02*
X26818142Y-13701150D01*
X26818142Y-13701150D02*
X26903856Y-13672579D01*
X26903856Y-13672579D02*
X26960999Y-13672579D01*
X26960999Y-13672579D02*
X27046713Y-13701150D01*
X27046713Y-13701150D02*
X27075285Y-13729722D01*
X27589571Y-13872579D02*
X27589571Y-14272579D01*
X27446713Y-13644008D02*
X27303856Y-14072579D01*
X27303856Y-14072579D02*
X27675285Y-14072579D01*
D13*
X40700000Y-5322371D02*
X40414286Y-5322371D01*
X40414286Y-5322371D02*
X40414286Y-4722371D01*
X41214285Y-5322371D02*
X40871428Y-5322371D01*
X41042857Y-5322371D02*
X41042857Y-4722371D01*
X41042857Y-4722371D02*
X40985714Y-4808085D01*
X40985714Y-4808085D02*
X40928571Y-4865228D01*
X40928571Y-4865228D02*
X40871428Y-4893800D01*
D12*
X49174714Y-20072579D02*
X48974714Y-19786865D01*
X48831857Y-20072579D02*
X48831857Y-19472579D01*
X48831857Y-19472579D02*
X49060428Y-19472579D01*
X49060428Y-19472579D02*
X49117571Y-19501150D01*
X49117571Y-19501150D02*
X49146142Y-19529722D01*
X49146142Y-19529722D02*
X49174714Y-19586865D01*
X49174714Y-19586865D02*
X49174714Y-19672579D01*
X49174714Y-19672579D02*
X49146142Y-19729722D01*
X49146142Y-19729722D02*
X49117571Y-19758293D01*
X49117571Y-19758293D02*
X49060428Y-19786865D01*
X49060428Y-19786865D02*
X48831857Y-19786865D01*
X49746142Y-20072579D02*
X49403285Y-20072579D01*
X49574714Y-20072579D02*
X49574714Y-19472579D01*
X49574714Y-19472579D02*
X49517571Y-19558293D01*
X49517571Y-19558293D02*
X49460428Y-19615436D01*
X49460428Y-19615436D02*
X49403285Y-19644008D01*
X50089000Y-19729722D02*
X50031857Y-19701150D01*
X50031857Y-19701150D02*
X50003286Y-19672579D01*
X50003286Y-19672579D02*
X49974714Y-19615436D01*
X49974714Y-19615436D02*
X49974714Y-19586865D01*
X49974714Y-19586865D02*
X50003286Y-19529722D01*
X50003286Y-19529722D02*
X50031857Y-19501150D01*
X50031857Y-19501150D02*
X50089000Y-19472579D01*
X50089000Y-19472579D02*
X50203286Y-19472579D01*
X50203286Y-19472579D02*
X50260429Y-19501150D01*
X50260429Y-19501150D02*
X50289000Y-19529722D01*
X50289000Y-19529722D02*
X50317571Y-19586865D01*
X50317571Y-19586865D02*
X50317571Y-19615436D01*
X50317571Y-19615436D02*
X50289000Y-19672579D01*
X50289000Y-19672579D02*
X50260429Y-19701150D01*
X50260429Y-19701150D02*
X50203286Y-19729722D01*
X50203286Y-19729722D02*
X50089000Y-19729722D01*
X50089000Y-19729722D02*
X50031857Y-19758293D01*
X50031857Y-19758293D02*
X50003286Y-19786865D01*
X50003286Y-19786865D02*
X49974714Y-19844008D01*
X49974714Y-19844008D02*
X49974714Y-19958293D01*
X49974714Y-19958293D02*
X50003286Y-20015436D01*
X50003286Y-20015436D02*
X50031857Y-20044008D01*
X50031857Y-20044008D02*
X50089000Y-20072579D01*
X50089000Y-20072579D02*
X50203286Y-20072579D01*
X50203286Y-20072579D02*
X50260429Y-20044008D01*
X50260429Y-20044008D02*
X50289000Y-20015436D01*
X50289000Y-20015436D02*
X50317571Y-19958293D01*
X50317571Y-19958293D02*
X50317571Y-19844008D01*
X50317571Y-19844008D02*
X50289000Y-19786865D01*
X50289000Y-19786865D02*
X50260429Y-19758293D01*
X50260429Y-19758293D02*
X50203286Y-19729722D01*
D13*
X21614285Y-1655228D02*
X21585713Y-1683800D01*
X21585713Y-1683800D02*
X21499999Y-1712371D01*
X21499999Y-1712371D02*
X21442856Y-1712371D01*
X21442856Y-1712371D02*
X21357142Y-1683800D01*
X21357142Y-1683800D02*
X21299999Y-1626657D01*
X21299999Y-1626657D02*
X21271428Y-1569514D01*
X21271428Y-1569514D02*
X21242856Y-1455228D01*
X21242856Y-1455228D02*
X21242856Y-1369514D01*
X21242856Y-1369514D02*
X21271428Y-1255228D01*
X21271428Y-1255228D02*
X21299999Y-1198085D01*
X21299999Y-1198085D02*
X21357142Y-1140942D01*
X21357142Y-1140942D02*
X21442856Y-1112371D01*
X21442856Y-1112371D02*
X21499999Y-1112371D01*
X21499999Y-1112371D02*
X21585713Y-1140942D01*
X21585713Y-1140942D02*
X21614285Y-1169514D01*
X22185713Y-1712371D02*
X21842856Y-1712371D01*
X22014285Y-1712371D02*
X22014285Y-1112371D01*
X22014285Y-1112371D02*
X21957142Y-1198085D01*
X21957142Y-1198085D02*
X21899999Y-1255228D01*
X21899999Y-1255228D02*
X21842856Y-1283800D01*
X22757142Y-1712371D02*
X22414285Y-1712371D01*
X22585714Y-1712371D02*
X22585714Y-1112371D01*
X22585714Y-1112371D02*
X22528571Y-1198085D01*
X22528571Y-1198085D02*
X22471428Y-1255228D01*
X22471428Y-1255228D02*
X22414285Y-1283800D01*
D12*
X54869916Y-25426142D02*
X54898488Y-25454714D01*
X54898488Y-25454714D02*
X54927059Y-25540428D01*
X54927059Y-25540428D02*
X54927059Y-25597571D01*
X54927059Y-25597571D02*
X54898488Y-25683285D01*
X54898488Y-25683285D02*
X54841345Y-25740428D01*
X54841345Y-25740428D02*
X54784202Y-25768999D01*
X54784202Y-25768999D02*
X54669916Y-25797571D01*
X54669916Y-25797571D02*
X54584202Y-25797571D01*
X54584202Y-25797571D02*
X54469916Y-25768999D01*
X54469916Y-25768999D02*
X54412773Y-25740428D01*
X54412773Y-25740428D02*
X54355630Y-25683285D01*
X54355630Y-25683285D02*
X54327059Y-25597571D01*
X54327059Y-25597571D02*
X54327059Y-25540428D01*
X54327059Y-25540428D02*
X54355630Y-25454714D01*
X54355630Y-25454714D02*
X54384202Y-25426142D01*
X54384202Y-25197571D02*
X54355630Y-25168999D01*
X54355630Y-25168999D02*
X54327059Y-25111857D01*
X54327059Y-25111857D02*
X54327059Y-24968999D01*
X54327059Y-24968999D02*
X54355630Y-24911857D01*
X54355630Y-24911857D02*
X54384202Y-24883285D01*
X54384202Y-24883285D02*
X54441345Y-24854714D01*
X54441345Y-24854714D02*
X54498488Y-24854714D01*
X54498488Y-24854714D02*
X54584202Y-24883285D01*
X54584202Y-24883285D02*
X54927059Y-25226142D01*
X54927059Y-25226142D02*
X54927059Y-24854714D01*
X54327059Y-24654713D02*
X54327059Y-24283285D01*
X54327059Y-24283285D02*
X54555630Y-24483285D01*
X54555630Y-24483285D02*
X54555630Y-24397570D01*
X54555630Y-24397570D02*
X54584202Y-24340428D01*
X54584202Y-24340428D02*
X54612773Y-24311856D01*
X54612773Y-24311856D02*
X54669916Y-24283285D01*
X54669916Y-24283285D02*
X54812773Y-24283285D01*
X54812773Y-24283285D02*
X54869916Y-24311856D01*
X54869916Y-24311856D02*
X54898488Y-24340428D01*
X54898488Y-24340428D02*
X54927059Y-24397570D01*
X54927059Y-24397570D02*
X54927059Y-24568999D01*
X54927059Y-24568999D02*
X54898488Y-24626142D01*
X54898488Y-24626142D02*
X54869916Y-24654713D01*
X44900000Y-12889916D02*
X44871428Y-12918488D01*
X44871428Y-12918488D02*
X44785714Y-12947059D01*
X44785714Y-12947059D02*
X44728571Y-12947059D01*
X44728571Y-12947059D02*
X44642857Y-12918488D01*
X44642857Y-12918488D02*
X44585714Y-12861345D01*
X44585714Y-12861345D02*
X44557143Y-12804202D01*
X44557143Y-12804202D02*
X44528571Y-12689916D01*
X44528571Y-12689916D02*
X44528571Y-12604202D01*
X44528571Y-12604202D02*
X44557143Y-12489916D01*
X44557143Y-12489916D02*
X44585714Y-12432773D01*
X44585714Y-12432773D02*
X44642857Y-12375630D01*
X44642857Y-12375630D02*
X44728571Y-12347059D01*
X44728571Y-12347059D02*
X44785714Y-12347059D01*
X44785714Y-12347059D02*
X44871428Y-12375630D01*
X44871428Y-12375630D02*
X44900000Y-12404202D01*
X45414286Y-12347059D02*
X45300000Y-12347059D01*
X45300000Y-12347059D02*
X45242857Y-12375630D01*
X45242857Y-12375630D02*
X45214286Y-12404202D01*
X45214286Y-12404202D02*
X45157143Y-12489916D01*
X45157143Y-12489916D02*
X45128571Y-12604202D01*
X45128571Y-12604202D02*
X45128571Y-12832773D01*
X45128571Y-12832773D02*
X45157143Y-12889916D01*
X45157143Y-12889916D02*
X45185714Y-12918488D01*
X45185714Y-12918488D02*
X45242857Y-12947059D01*
X45242857Y-12947059D02*
X45357143Y-12947059D01*
X45357143Y-12947059D02*
X45414286Y-12918488D01*
X45414286Y-12918488D02*
X45442857Y-12889916D01*
X45442857Y-12889916D02*
X45471428Y-12832773D01*
X45471428Y-12832773D02*
X45471428Y-12689916D01*
X45471428Y-12689916D02*
X45442857Y-12632773D01*
X45442857Y-12632773D02*
X45414286Y-12604202D01*
X45414286Y-12604202D02*
X45357143Y-12575630D01*
X45357143Y-12575630D02*
X45242857Y-12575630D01*
X45242857Y-12575630D02*
X45185714Y-12604202D01*
X45185714Y-12604202D02*
X45157143Y-12632773D01*
X45157143Y-12632773D02*
X45128571Y-12689916D01*
X7900000Y-22239915D02*
X7871428Y-22268487D01*
X7871428Y-22268487D02*
X7785714Y-22297058D01*
X7785714Y-22297058D02*
X7728571Y-22297058D01*
X7728571Y-22297058D02*
X7642857Y-22268487D01*
X7642857Y-22268487D02*
X7585714Y-22211344D01*
X7585714Y-22211344D02*
X7557143Y-22154201D01*
X7557143Y-22154201D02*
X7528571Y-22039915D01*
X7528571Y-22039915D02*
X7528571Y-21954201D01*
X7528571Y-21954201D02*
X7557143Y-21839915D01*
X7557143Y-21839915D02*
X7585714Y-21782772D01*
X7585714Y-21782772D02*
X7642857Y-21725629D01*
X7642857Y-21725629D02*
X7728571Y-21697058D01*
X7728571Y-21697058D02*
X7785714Y-21697058D01*
X7785714Y-21697058D02*
X7871428Y-21725629D01*
X7871428Y-21725629D02*
X7900000Y-21754201D01*
X8242857Y-21954201D02*
X8185714Y-21925629D01*
X8185714Y-21925629D02*
X8157143Y-21897058D01*
X8157143Y-21897058D02*
X8128571Y-21839915D01*
X8128571Y-21839915D02*
X8128571Y-21811344D01*
X8128571Y-21811344D02*
X8157143Y-21754201D01*
X8157143Y-21754201D02*
X8185714Y-21725629D01*
X8185714Y-21725629D02*
X8242857Y-21697058D01*
X8242857Y-21697058D02*
X8357143Y-21697058D01*
X8357143Y-21697058D02*
X8414286Y-21725629D01*
X8414286Y-21725629D02*
X8442857Y-21754201D01*
X8442857Y-21754201D02*
X8471428Y-21811344D01*
X8471428Y-21811344D02*
X8471428Y-21839915D01*
X8471428Y-21839915D02*
X8442857Y-21897058D01*
X8442857Y-21897058D02*
X8414286Y-21925629D01*
X8414286Y-21925629D02*
X8357143Y-21954201D01*
X8357143Y-21954201D02*
X8242857Y-21954201D01*
X8242857Y-21954201D02*
X8185714Y-21982772D01*
X8185714Y-21982772D02*
X8157143Y-22011344D01*
X8157143Y-22011344D02*
X8128571Y-22068487D01*
X8128571Y-22068487D02*
X8128571Y-22182772D01*
X8128571Y-22182772D02*
X8157143Y-22239915D01*
X8157143Y-22239915D02*
X8185714Y-22268487D01*
X8185714Y-22268487D02*
X8242857Y-22297058D01*
X8242857Y-22297058D02*
X8357143Y-22297058D01*
X8357143Y-22297058D02*
X8414286Y-22268487D01*
X8414286Y-22268487D02*
X8442857Y-22239915D01*
X8442857Y-22239915D02*
X8471428Y-22182772D01*
X8471428Y-22182772D02*
X8471428Y-22068487D01*
X8471428Y-22068487D02*
X8442857Y-22011344D01*
X8442857Y-22011344D02*
X8414286Y-21982772D01*
X8414286Y-21982772D02*
X8357143Y-21954201D01*
X38725285Y-30872579D02*
X38525285Y-30586865D01*
X38382428Y-30872579D02*
X38382428Y-30272579D01*
X38382428Y-30272579D02*
X38610999Y-30272579D01*
X38610999Y-30272579D02*
X38668142Y-30301150D01*
X38668142Y-30301150D02*
X38696713Y-30329722D01*
X38696713Y-30329722D02*
X38725285Y-30386865D01*
X38725285Y-30386865D02*
X38725285Y-30472579D01*
X38725285Y-30472579D02*
X38696713Y-30529722D01*
X38696713Y-30529722D02*
X38668142Y-30558293D01*
X38668142Y-30558293D02*
X38610999Y-30586865D01*
X38610999Y-30586865D02*
X38382428Y-30586865D01*
X39239571Y-30472579D02*
X39239571Y-30872579D01*
X39096713Y-30244008D02*
X38953856Y-30672579D01*
X38953856Y-30672579D02*
X39325285Y-30672579D01*
X47400000Y-9937059D02*
X47200000Y-9651345D01*
X47057143Y-9937059D02*
X47057143Y-9337059D01*
X47057143Y-9337059D02*
X47285714Y-9337059D01*
X47285714Y-9337059D02*
X47342857Y-9365630D01*
X47342857Y-9365630D02*
X47371428Y-9394202D01*
X47371428Y-9394202D02*
X47400000Y-9451345D01*
X47400000Y-9451345D02*
X47400000Y-9537059D01*
X47400000Y-9537059D02*
X47371428Y-9594202D01*
X47371428Y-9594202D02*
X47342857Y-9622773D01*
X47342857Y-9622773D02*
X47285714Y-9651345D01*
X47285714Y-9651345D02*
X47057143Y-9651345D01*
X47685714Y-9937059D02*
X47800000Y-9937059D01*
X47800000Y-9937059D02*
X47857143Y-9908488D01*
X47857143Y-9908488D02*
X47885714Y-9879916D01*
X47885714Y-9879916D02*
X47942857Y-9794202D01*
X47942857Y-9794202D02*
X47971428Y-9679916D01*
X47971428Y-9679916D02*
X47971428Y-9451345D01*
X47971428Y-9451345D02*
X47942857Y-9394202D01*
X47942857Y-9394202D02*
X47914286Y-9365630D01*
X47914286Y-9365630D02*
X47857143Y-9337059D01*
X47857143Y-9337059D02*
X47742857Y-9337059D01*
X47742857Y-9337059D02*
X47685714Y-9365630D01*
X47685714Y-9365630D02*
X47657143Y-9394202D01*
X47657143Y-9394202D02*
X47628571Y-9451345D01*
X47628571Y-9451345D02*
X47628571Y-9594202D01*
X47628571Y-9594202D02*
X47657143Y-9651345D01*
X47657143Y-9651345D02*
X47685714Y-9679916D01*
X47685714Y-9679916D02*
X47742857Y-9708488D01*
X47742857Y-9708488D02*
X47857143Y-9708488D01*
X47857143Y-9708488D02*
X47914286Y-9679916D01*
X47914286Y-9679916D02*
X47942857Y-9651345D01*
X47942857Y-9651345D02*
X47971428Y-9594202D01*
D13*
X33602371Y-11385714D02*
X33316657Y-11585714D01*
X33602371Y-11728571D02*
X33002371Y-11728571D01*
X33002371Y-11728571D02*
X33002371Y-11500000D01*
X33002371Y-11500000D02*
X33030942Y-11442857D01*
X33030942Y-11442857D02*
X33059514Y-11414286D01*
X33059514Y-11414286D02*
X33116657Y-11385714D01*
X33116657Y-11385714D02*
X33202371Y-11385714D01*
X33202371Y-11385714D02*
X33259514Y-11414286D01*
X33259514Y-11414286D02*
X33288085Y-11442857D01*
X33288085Y-11442857D02*
X33316657Y-11500000D01*
X33316657Y-11500000D02*
X33316657Y-11728571D01*
X33602371Y-10814286D02*
X33602371Y-11157143D01*
X33602371Y-10985714D02*
X33002371Y-10985714D01*
X33002371Y-10985714D02*
X33088085Y-11042857D01*
X33088085Y-11042857D02*
X33145228Y-11100000D01*
X33145228Y-11100000D02*
X33173800Y-11157143D01*
X33002371Y-10442857D02*
X33002371Y-10385714D01*
X33002371Y-10385714D02*
X33030942Y-10328571D01*
X33030942Y-10328571D02*
X33059514Y-10300000D01*
X33059514Y-10300000D02*
X33116657Y-10271428D01*
X33116657Y-10271428D02*
X33230942Y-10242857D01*
X33230942Y-10242857D02*
X33373800Y-10242857D01*
X33373800Y-10242857D02*
X33488085Y-10271428D01*
X33488085Y-10271428D02*
X33545228Y-10300000D01*
X33545228Y-10300000D02*
X33573800Y-10328571D01*
X33573800Y-10328571D02*
X33602371Y-10385714D01*
X33602371Y-10385714D02*
X33602371Y-10442857D01*
X33602371Y-10442857D02*
X33573800Y-10500000D01*
X33573800Y-10500000D02*
X33545228Y-10528571D01*
X33545228Y-10528571D02*
X33488085Y-10557142D01*
X33488085Y-10557142D02*
X33373800Y-10585714D01*
X33373800Y-10585714D02*
X33230942Y-10585714D01*
X33230942Y-10585714D02*
X33116657Y-10557142D01*
X33116657Y-10557142D02*
X33059514Y-10528571D01*
X33059514Y-10528571D02*
X33030942Y-10500000D01*
X33030942Y-10500000D02*
X33002371Y-10442857D01*
D12*
X27036857Y-2872579D02*
X27036857Y-2272579D01*
X27036857Y-2272579D02*
X27179714Y-2272579D01*
X27179714Y-2272579D02*
X27265428Y-2301150D01*
X27265428Y-2301150D02*
X27322571Y-2358293D01*
X27322571Y-2358293D02*
X27351142Y-2415436D01*
X27351142Y-2415436D02*
X27379714Y-2529722D01*
X27379714Y-2529722D02*
X27379714Y-2615436D01*
X27379714Y-2615436D02*
X27351142Y-2729722D01*
X27351142Y-2729722D02*
X27322571Y-2786865D01*
X27322571Y-2786865D02*
X27265428Y-2844008D01*
X27265428Y-2844008D02*
X27179714Y-2872579D01*
X27179714Y-2872579D02*
X27036857Y-2872579D01*
X27951142Y-2872579D02*
X27608285Y-2872579D01*
X27779714Y-2872579D02*
X27779714Y-2272579D01*
X27779714Y-2272579D02*
X27722571Y-2358293D01*
X27722571Y-2358293D02*
X27665428Y-2415436D01*
X27665428Y-2415436D02*
X27608285Y-2444008D01*
X37613856Y-13648099D02*
X37413856Y-13362385D01*
X37270999Y-13648099D02*
X37270999Y-13048099D01*
X37270999Y-13048099D02*
X37499570Y-13048099D01*
X37499570Y-13048099D02*
X37556713Y-13076670D01*
X37556713Y-13076670D02*
X37585284Y-13105242D01*
X37585284Y-13105242D02*
X37613856Y-13162385D01*
X37613856Y-13162385D02*
X37613856Y-13248099D01*
X37613856Y-13248099D02*
X37585284Y-13305242D01*
X37585284Y-13305242D02*
X37556713Y-13333813D01*
X37556713Y-13333813D02*
X37499570Y-13362385D01*
X37499570Y-13362385D02*
X37270999Y-13362385D01*
X38185284Y-13648099D02*
X37842427Y-13648099D01*
X38013856Y-13648099D02*
X38013856Y-13048099D01*
X38013856Y-13048099D02*
X37956713Y-13133813D01*
X37956713Y-13133813D02*
X37899570Y-13190956D01*
X37899570Y-13190956D02*
X37842427Y-13219528D01*
X38699571Y-13248099D02*
X38699571Y-13648099D01*
X38556713Y-13019528D02*
X38413856Y-13448099D01*
X38413856Y-13448099D02*
X38785285Y-13448099D01*
X47015357Y-11298099D02*
X47015357Y-11783813D01*
X47015357Y-11783813D02*
X47043928Y-11840956D01*
X47043928Y-11840956D02*
X47072500Y-11869528D01*
X47072500Y-11869528D02*
X47129642Y-11898099D01*
X47129642Y-11898099D02*
X47243928Y-11898099D01*
X47243928Y-11898099D02*
X47301071Y-11869528D01*
X47301071Y-11869528D02*
X47329642Y-11840956D01*
X47329642Y-11840956D02*
X47358214Y-11783813D01*
X47358214Y-11783813D02*
X47358214Y-11298099D01*
X47901071Y-11298099D02*
X47786785Y-11298099D01*
X47786785Y-11298099D02*
X47729642Y-11326670D01*
X47729642Y-11326670D02*
X47701071Y-11355242D01*
X47701071Y-11355242D02*
X47643928Y-11440956D01*
X47643928Y-11440956D02*
X47615356Y-11555242D01*
X47615356Y-11555242D02*
X47615356Y-11783813D01*
X47615356Y-11783813D02*
X47643928Y-11840956D01*
X47643928Y-11840956D02*
X47672499Y-11869528D01*
X47672499Y-11869528D02*
X47729642Y-11898099D01*
X47729642Y-11898099D02*
X47843928Y-11898099D01*
X47843928Y-11898099D02*
X47901071Y-11869528D01*
X47901071Y-11869528D02*
X47929642Y-11840956D01*
X47929642Y-11840956D02*
X47958213Y-11783813D01*
X47958213Y-11783813D02*
X47958213Y-11640956D01*
X47958213Y-11640956D02*
X47929642Y-11583813D01*
X47929642Y-11583813D02*
X47901071Y-11555242D01*
X47901071Y-11555242D02*
X47843928Y-11526670D01*
X47843928Y-11526670D02*
X47729642Y-11526670D01*
X47729642Y-11526670D02*
X47672499Y-11555242D01*
X47672499Y-11555242D02*
X47643928Y-11583813D01*
X47643928Y-11583813D02*
X47615356Y-11640956D01*
D14*
X42447381Y-13861629D02*
X42423572Y-13885439D01*
X42423572Y-13885439D02*
X42352143Y-13909248D01*
X42352143Y-13909248D02*
X42304524Y-13909248D01*
X42304524Y-13909248D02*
X42233096Y-13885439D01*
X42233096Y-13885439D02*
X42185477Y-13837819D01*
X42185477Y-13837819D02*
X42161667Y-13790200D01*
X42161667Y-13790200D02*
X42137858Y-13694962D01*
X42137858Y-13694962D02*
X42137858Y-13623534D01*
X42137858Y-13623534D02*
X42161667Y-13528296D01*
X42161667Y-13528296D02*
X42185477Y-13480677D01*
X42185477Y-13480677D02*
X42233096Y-13433058D01*
X42233096Y-13433058D02*
X42304524Y-13409248D01*
X42304524Y-13409248D02*
X42352143Y-13409248D01*
X42352143Y-13409248D02*
X42423572Y-13433058D01*
X42423572Y-13433058D02*
X42447381Y-13456867D01*
X42923572Y-13909248D02*
X42637858Y-13909248D01*
X42780715Y-13909248D02*
X42780715Y-13409248D01*
X42780715Y-13409248D02*
X42733096Y-13480677D01*
X42733096Y-13480677D02*
X42685477Y-13528296D01*
X42685477Y-13528296D02*
X42637858Y-13552105D01*
X43114048Y-13456867D02*
X43137857Y-13433058D01*
X43137857Y-13433058D02*
X43185476Y-13409248D01*
X43185476Y-13409248D02*
X43304524Y-13409248D01*
X43304524Y-13409248D02*
X43352143Y-13433058D01*
X43352143Y-13433058D02*
X43375952Y-13456867D01*
X43375952Y-13456867D02*
X43399762Y-13504486D01*
X43399762Y-13504486D02*
X43399762Y-13552105D01*
X43399762Y-13552105D02*
X43375952Y-13623534D01*
X43375952Y-13623534D02*
X43090238Y-13909248D01*
X43090238Y-13909248D02*
X43399762Y-13909248D01*
D12*
X52814285Y-9648099D02*
X52614285Y-9362385D01*
X52471428Y-9648099D02*
X52471428Y-9048099D01*
X52471428Y-9048099D02*
X52699999Y-9048099D01*
X52699999Y-9048099D02*
X52757142Y-9076670D01*
X52757142Y-9076670D02*
X52785713Y-9105242D01*
X52785713Y-9105242D02*
X52814285Y-9162385D01*
X52814285Y-9162385D02*
X52814285Y-9248099D01*
X52814285Y-9248099D02*
X52785713Y-9305242D01*
X52785713Y-9305242D02*
X52757142Y-9333813D01*
X52757142Y-9333813D02*
X52699999Y-9362385D01*
X52699999Y-9362385D02*
X52471428Y-9362385D01*
X53385713Y-9648099D02*
X53042856Y-9648099D01*
X53214285Y-9648099D02*
X53214285Y-9048099D01*
X53214285Y-9048099D02*
X53157142Y-9133813D01*
X53157142Y-9133813D02*
X53099999Y-9190956D01*
X53099999Y-9190956D02*
X53042856Y-9219528D01*
X53900000Y-9048099D02*
X53785714Y-9048099D01*
X53785714Y-9048099D02*
X53728571Y-9076670D01*
X53728571Y-9076670D02*
X53700000Y-9105242D01*
X53700000Y-9105242D02*
X53642857Y-9190956D01*
X53642857Y-9190956D02*
X53614285Y-9305242D01*
X53614285Y-9305242D02*
X53614285Y-9533813D01*
X53614285Y-9533813D02*
X53642857Y-9590956D01*
X53642857Y-9590956D02*
X53671428Y-9619528D01*
X53671428Y-9619528D02*
X53728571Y-9648099D01*
X53728571Y-9648099D02*
X53842857Y-9648099D01*
X53842857Y-9648099D02*
X53900000Y-9619528D01*
X53900000Y-9619528D02*
X53928571Y-9590956D01*
X53928571Y-9590956D02*
X53957142Y-9533813D01*
X53957142Y-9533813D02*
X53957142Y-9390956D01*
X53957142Y-9390956D02*
X53928571Y-9333813D01*
X53928571Y-9333813D02*
X53900000Y-9305242D01*
X53900000Y-9305242D02*
X53842857Y-9276670D01*
X53842857Y-9276670D02*
X53728571Y-9276670D01*
X53728571Y-9276670D02*
X53671428Y-9305242D01*
X53671428Y-9305242D02*
X53642857Y-9333813D01*
X53642857Y-9333813D02*
X53614285Y-9390956D01*
D13*
X32542857Y-21472371D02*
X32542857Y-21958085D01*
X32542857Y-21958085D02*
X32571428Y-22015228D01*
X32571428Y-22015228D02*
X32600000Y-22043800D01*
X32600000Y-22043800D02*
X32657142Y-22072371D01*
X32657142Y-22072371D02*
X32771428Y-22072371D01*
X32771428Y-22072371D02*
X32828571Y-22043800D01*
X32828571Y-22043800D02*
X32857142Y-22015228D01*
X32857142Y-22015228D02*
X32885714Y-21958085D01*
X32885714Y-21958085D02*
X32885714Y-21472371D01*
X33485713Y-22072371D02*
X33142856Y-22072371D01*
X33314285Y-22072371D02*
X33314285Y-21472371D01*
X33314285Y-21472371D02*
X33257142Y-21558085D01*
X33257142Y-21558085D02*
X33199999Y-21615228D01*
X33199999Y-21615228D02*
X33142856Y-21643800D01*
D12*
X38725285Y-29272579D02*
X38525285Y-28986865D01*
X38382428Y-29272579D02*
X38382428Y-28672579D01*
X38382428Y-28672579D02*
X38610999Y-28672579D01*
X38610999Y-28672579D02*
X38668142Y-28701150D01*
X38668142Y-28701150D02*
X38696713Y-28729722D01*
X38696713Y-28729722D02*
X38725285Y-28786865D01*
X38725285Y-28786865D02*
X38725285Y-28872579D01*
X38725285Y-28872579D02*
X38696713Y-28929722D01*
X38696713Y-28929722D02*
X38668142Y-28958293D01*
X38668142Y-28958293D02*
X38610999Y-28986865D01*
X38610999Y-28986865D02*
X38382428Y-28986865D01*
X38925285Y-28672579D02*
X39296713Y-28672579D01*
X39296713Y-28672579D02*
X39096713Y-28901150D01*
X39096713Y-28901150D02*
X39182428Y-28901150D01*
X39182428Y-28901150D02*
X39239571Y-28929722D01*
X39239571Y-28929722D02*
X39268142Y-28958293D01*
X39268142Y-28958293D02*
X39296713Y-29015436D01*
X39296713Y-29015436D02*
X39296713Y-29158293D01*
X39296713Y-29158293D02*
X39268142Y-29215436D01*
X39268142Y-29215436D02*
X39239571Y-29244008D01*
X39239571Y-29244008D02*
X39182428Y-29272579D01*
X39182428Y-29272579D02*
X39010999Y-29272579D01*
X39010999Y-29272579D02*
X38953856Y-29244008D01*
X38953856Y-29244008D02*
X38925285Y-29215436D01*
X35555285Y-22215436D02*
X35526713Y-22244008D01*
X35526713Y-22244008D02*
X35440999Y-22272579D01*
X35440999Y-22272579D02*
X35383856Y-22272579D01*
X35383856Y-22272579D02*
X35298142Y-22244008D01*
X35298142Y-22244008D02*
X35240999Y-22186865D01*
X35240999Y-22186865D02*
X35212428Y-22129722D01*
X35212428Y-22129722D02*
X35183856Y-22015436D01*
X35183856Y-22015436D02*
X35183856Y-21929722D01*
X35183856Y-21929722D02*
X35212428Y-21815436D01*
X35212428Y-21815436D02*
X35240999Y-21758293D01*
X35240999Y-21758293D02*
X35298142Y-21701150D01*
X35298142Y-21701150D02*
X35383856Y-21672579D01*
X35383856Y-21672579D02*
X35440999Y-21672579D01*
X35440999Y-21672579D02*
X35526713Y-21701150D01*
X35526713Y-21701150D02*
X35555285Y-21729722D01*
X36126713Y-22272579D02*
X35783856Y-22272579D01*
X35955285Y-22272579D02*
X35955285Y-21672579D01*
X35955285Y-21672579D02*
X35898142Y-21758293D01*
X35898142Y-21758293D02*
X35840999Y-21815436D01*
X35840999Y-21815436D02*
X35783856Y-21844008D01*
X23614285Y-7819916D02*
X23585713Y-7848488D01*
X23585713Y-7848488D02*
X23499999Y-7877059D01*
X23499999Y-7877059D02*
X23442856Y-7877059D01*
X23442856Y-7877059D02*
X23357142Y-7848488D01*
X23357142Y-7848488D02*
X23299999Y-7791345D01*
X23299999Y-7791345D02*
X23271428Y-7734202D01*
X23271428Y-7734202D02*
X23242856Y-7619916D01*
X23242856Y-7619916D02*
X23242856Y-7534202D01*
X23242856Y-7534202D02*
X23271428Y-7419916D01*
X23271428Y-7419916D02*
X23299999Y-7362773D01*
X23299999Y-7362773D02*
X23357142Y-7305630D01*
X23357142Y-7305630D02*
X23442856Y-7277059D01*
X23442856Y-7277059D02*
X23499999Y-7277059D01*
X23499999Y-7277059D02*
X23585713Y-7305630D01*
X23585713Y-7305630D02*
X23614285Y-7334202D01*
X24185713Y-7877059D02*
X23842856Y-7877059D01*
X24014285Y-7877059D02*
X24014285Y-7277059D01*
X24014285Y-7277059D02*
X23957142Y-7362773D01*
X23957142Y-7362773D02*
X23899999Y-7419916D01*
X23899999Y-7419916D02*
X23842856Y-7448488D01*
X24557142Y-7277059D02*
X24614285Y-7277059D01*
X24614285Y-7277059D02*
X24671428Y-7305630D01*
X24671428Y-7305630D02*
X24700000Y-7334202D01*
X24700000Y-7334202D02*
X24728571Y-7391345D01*
X24728571Y-7391345D02*
X24757142Y-7505630D01*
X24757142Y-7505630D02*
X24757142Y-7648488D01*
X24757142Y-7648488D02*
X24728571Y-7762773D01*
X24728571Y-7762773D02*
X24700000Y-7819916D01*
X24700000Y-7819916D02*
X24671428Y-7848488D01*
X24671428Y-7848488D02*
X24614285Y-7877059D01*
X24614285Y-7877059D02*
X24557142Y-7877059D01*
X24557142Y-7877059D02*
X24500000Y-7848488D01*
X24500000Y-7848488D02*
X24471428Y-7819916D01*
X24471428Y-7819916D02*
X24442857Y-7762773D01*
X24442857Y-7762773D02*
X24414285Y-7648488D01*
X24414285Y-7648488D02*
X24414285Y-7505630D01*
X24414285Y-7505630D02*
X24442857Y-7391345D01*
X24442857Y-7391345D02*
X24471428Y-7334202D01*
X24471428Y-7334202D02*
X24500000Y-7305630D01*
X24500000Y-7305630D02*
X24557142Y-7277059D01*
D14*
X50237381Y-24765048D02*
X50070715Y-24526953D01*
X49951667Y-24765048D02*
X49951667Y-24265048D01*
X49951667Y-24265048D02*
X50142143Y-24265048D01*
X50142143Y-24265048D02*
X50189762Y-24288858D01*
X50189762Y-24288858D02*
X50213572Y-24312667D01*
X50213572Y-24312667D02*
X50237381Y-24360286D01*
X50237381Y-24360286D02*
X50237381Y-24431715D01*
X50237381Y-24431715D02*
X50213572Y-24479334D01*
X50213572Y-24479334D02*
X50189762Y-24503143D01*
X50189762Y-24503143D02*
X50142143Y-24526953D01*
X50142143Y-24526953D02*
X49951667Y-24526953D01*
X50427858Y-24312667D02*
X50451667Y-24288858D01*
X50451667Y-24288858D02*
X50499286Y-24265048D01*
X50499286Y-24265048D02*
X50618334Y-24265048D01*
X50618334Y-24265048D02*
X50665953Y-24288858D01*
X50665953Y-24288858D02*
X50689762Y-24312667D01*
X50689762Y-24312667D02*
X50713572Y-24360286D01*
X50713572Y-24360286D02*
X50713572Y-24407905D01*
X50713572Y-24407905D02*
X50689762Y-24479334D01*
X50689762Y-24479334D02*
X50404048Y-24765048D01*
X50404048Y-24765048D02*
X50713572Y-24765048D01*
X51142143Y-24431715D02*
X51142143Y-24765048D01*
X51023095Y-24241239D02*
X50904048Y-24598381D01*
X50904048Y-24598381D02*
X51213571Y-24598381D01*
D13*
X43614285Y-17702371D02*
X43414285Y-17416657D01*
X43271428Y-17702371D02*
X43271428Y-17102371D01*
X43271428Y-17102371D02*
X43499999Y-17102371D01*
X43499999Y-17102371D02*
X43557142Y-17130942D01*
X43557142Y-17130942D02*
X43585713Y-17159514D01*
X43585713Y-17159514D02*
X43614285Y-17216657D01*
X43614285Y-17216657D02*
X43614285Y-17302371D01*
X43614285Y-17302371D02*
X43585713Y-17359514D01*
X43585713Y-17359514D02*
X43557142Y-17388085D01*
X43557142Y-17388085D02*
X43499999Y-17416657D01*
X43499999Y-17416657D02*
X43271428Y-17416657D01*
X44185713Y-17702371D02*
X43842856Y-17702371D01*
X44014285Y-17702371D02*
X44014285Y-17102371D01*
X44014285Y-17102371D02*
X43957142Y-17188085D01*
X43957142Y-17188085D02*
X43899999Y-17245228D01*
X43899999Y-17245228D02*
X43842856Y-17273800D01*
X44385714Y-17102371D02*
X44785714Y-17102371D01*
X44785714Y-17102371D02*
X44528571Y-17702371D01*
D12*
X55173285Y-29672579D02*
X55173285Y-30101150D01*
X55173285Y-30101150D02*
X55144714Y-30186865D01*
X55144714Y-30186865D02*
X55087571Y-30244008D01*
X55087571Y-30244008D02*
X55001857Y-30272579D01*
X55001857Y-30272579D02*
X54944714Y-30272579D01*
X55430428Y-29729722D02*
X55459000Y-29701150D01*
X55459000Y-29701150D02*
X55516143Y-29672579D01*
X55516143Y-29672579D02*
X55659000Y-29672579D01*
X55659000Y-29672579D02*
X55716143Y-29701150D01*
X55716143Y-29701150D02*
X55744714Y-29729722D01*
X55744714Y-29729722D02*
X55773285Y-29786865D01*
X55773285Y-29786865D02*
X55773285Y-29844008D01*
X55773285Y-29844008D02*
X55744714Y-29929722D01*
X55744714Y-29929722D02*
X55401857Y-30272579D01*
X55401857Y-30272579D02*
X55773285Y-30272579D01*
D13*
X42042857Y-20342371D02*
X42042857Y-20828085D01*
X42042857Y-20828085D02*
X42071428Y-20885228D01*
X42071428Y-20885228D02*
X42100000Y-20913800D01*
X42100000Y-20913800D02*
X42157142Y-20942371D01*
X42157142Y-20942371D02*
X42271428Y-20942371D01*
X42271428Y-20942371D02*
X42328571Y-20913800D01*
X42328571Y-20913800D02*
X42357142Y-20885228D01*
X42357142Y-20885228D02*
X42385714Y-20828085D01*
X42385714Y-20828085D02*
X42385714Y-20342371D01*
X42642856Y-20399514D02*
X42671428Y-20370942D01*
X42671428Y-20370942D02*
X42728571Y-20342371D01*
X42728571Y-20342371D02*
X42871428Y-20342371D01*
X42871428Y-20342371D02*
X42928571Y-20370942D01*
X42928571Y-20370942D02*
X42957142Y-20399514D01*
X42957142Y-20399514D02*
X42985713Y-20456657D01*
X42985713Y-20456657D02*
X42985713Y-20513800D01*
X42985713Y-20513800D02*
X42957142Y-20599514D01*
X42957142Y-20599514D02*
X42614285Y-20942371D01*
X42614285Y-20942371D02*
X42985713Y-20942371D01*
X21322371Y-16907142D02*
X21808085Y-16907142D01*
X21808085Y-16907142D02*
X21865228Y-16878571D01*
X21865228Y-16878571D02*
X21893800Y-16850000D01*
X21893800Y-16850000D02*
X21922371Y-16792857D01*
X21922371Y-16792857D02*
X21922371Y-16678571D01*
X21922371Y-16678571D02*
X21893800Y-16621428D01*
X21893800Y-16621428D02*
X21865228Y-16592857D01*
X21865228Y-16592857D02*
X21808085Y-16564285D01*
X21808085Y-16564285D02*
X21322371Y-16564285D01*
X21322371Y-15992857D02*
X21322371Y-16278571D01*
X21322371Y-16278571D02*
X21608085Y-16307143D01*
X21608085Y-16307143D02*
X21579514Y-16278571D01*
X21579514Y-16278571D02*
X21550942Y-16221429D01*
X21550942Y-16221429D02*
X21550942Y-16078571D01*
X21550942Y-16078571D02*
X21579514Y-16021429D01*
X21579514Y-16021429D02*
X21608085Y-15992857D01*
X21608085Y-15992857D02*
X21665228Y-15964286D01*
X21665228Y-15964286D02*
X21808085Y-15964286D01*
X21808085Y-15964286D02*
X21865228Y-15992857D01*
X21865228Y-15992857D02*
X21893800Y-16021429D01*
X21893800Y-16021429D02*
X21922371Y-16078571D01*
X21922371Y-16078571D02*
X21922371Y-16221429D01*
X21922371Y-16221429D02*
X21893800Y-16278571D01*
X21893800Y-16278571D02*
X21865228Y-16307143D01*
D12*
X26576713Y-5588488D02*
X26662428Y-5617059D01*
X26662428Y-5617059D02*
X26805285Y-5617059D01*
X26805285Y-5617059D02*
X26862428Y-5588488D01*
X26862428Y-5588488D02*
X26890999Y-5559916D01*
X26890999Y-5559916D02*
X26919570Y-5502773D01*
X26919570Y-5502773D02*
X26919570Y-5445630D01*
X26919570Y-5445630D02*
X26890999Y-5388488D01*
X26890999Y-5388488D02*
X26862428Y-5359916D01*
X26862428Y-5359916D02*
X26805285Y-5331345D01*
X26805285Y-5331345D02*
X26690999Y-5302773D01*
X26690999Y-5302773D02*
X26633856Y-5274202D01*
X26633856Y-5274202D02*
X26605285Y-5245630D01*
X26605285Y-5245630D02*
X26576713Y-5188488D01*
X26576713Y-5188488D02*
X26576713Y-5131345D01*
X26576713Y-5131345D02*
X26605285Y-5074202D01*
X26605285Y-5074202D02*
X26633856Y-5045630D01*
X26633856Y-5045630D02*
X26690999Y-5017059D01*
X26690999Y-5017059D02*
X26833856Y-5017059D01*
X26833856Y-5017059D02*
X26919570Y-5045630D01*
X27119571Y-5017059D02*
X27262428Y-5617059D01*
X27262428Y-5617059D02*
X27376714Y-5188488D01*
X27376714Y-5188488D02*
X27490999Y-5617059D01*
X27490999Y-5617059D02*
X27633857Y-5017059D01*
X28176713Y-5617059D02*
X27833856Y-5617059D01*
X28005285Y-5617059D02*
X28005285Y-5017059D01*
X28005285Y-5017059D02*
X27948142Y-5102773D01*
X27948142Y-5102773D02*
X27890999Y-5159916D01*
X27890999Y-5159916D02*
X27833856Y-5188488D01*
D10*
%TO.C,R21*%
X52620000Y-6653641D02*
X52620000Y-6346359D01*
X53380000Y-6653641D02*
X53380000Y-6346359D01*
%TO.C,R19*%
X44846359Y-20020000D02*
X45153641Y-20020000D01*
X44846359Y-20780000D02*
X45153641Y-20780000D01*
%TO.C,R25*%
X51846359Y-19820000D02*
X52153641Y-19820000D01*
X51846359Y-20580000D02*
X52153641Y-20580000D01*
%TO.C,C15*%
X10240000Y-30107836D02*
X10240000Y-29892164D01*
X10960000Y-30107836D02*
X10960000Y-29892164D01*
%TO.C,C14*%
X54240000Y-11107836D02*
X54240000Y-10892164D01*
X54960000Y-11107836D02*
X54960000Y-10892164D01*
%TO.C,R6*%
X35846359Y-18620000D02*
X36153641Y-18620000D01*
X35846359Y-19380000D02*
X36153641Y-19380000D01*
%TO.C,R20*%
X51120000Y-6653641D02*
X51120000Y-6346359D01*
X51880000Y-6653641D02*
X51880000Y-6346359D01*
%TO.C,SW2*%
X26850000Y-17600000D02*
X26850000Y-19600000D01*
X27850000Y-16300000D02*
X28300000Y-15850000D01*
X27850000Y-20900000D02*
X28300000Y-21350000D01*
X28300000Y-15850000D02*
X30900000Y-15850000D01*
X28300000Y-21350000D02*
X30900000Y-21350000D01*
X31350000Y-16300000D02*
X30900000Y-15850000D01*
X31350000Y-20900000D02*
X30900000Y-21350000D01*
X32350000Y-17600000D02*
X32350000Y-19600000D01*
%TO.C,SW3*%
X19850000Y-30400000D02*
X19850000Y-32400000D01*
X20850000Y-29100000D02*
X21300000Y-28650000D01*
X20850000Y-33700000D02*
X21300000Y-34150000D01*
X21300000Y-28650000D02*
X23900000Y-28650000D01*
X21300000Y-34150000D02*
X23900000Y-34150000D01*
X24350000Y-29100000D02*
X23900000Y-28650000D01*
X24350000Y-33700000D02*
X23900000Y-34150000D01*
X25350000Y-30400000D02*
X25350000Y-32400000D01*
%TO.C,TP4*%
X23500000Y-25600000D02*
G75*
G02*
X22100000Y-25600000I-700000J0D01*
G01*
X22100000Y-25600000D02*
G75*
G02*
X23500000Y-25600000I700000J0D01*
G01*
%TO.C,R11*%
X22120000Y-6153641D02*
X22120000Y-5846359D01*
X22880000Y-6153641D02*
X22880000Y-5846359D01*
%TO.C,TP3*%
X25800000Y-23000000D02*
G75*
G02*
X24400000Y-23000000I-700000J0D01*
G01*
X24400000Y-23000000D02*
G75*
G02*
X25800000Y-23000000I700000J0D01*
G01*
%TO.C,S2*%
X54570458Y-21459949D02*
X54570458Y-22539949D01*
X54570458Y-22539949D02*
X55720459Y-22539949D01*
X55720459Y-21459948D02*
X54570458Y-21459949D01*
X55720459Y-21459948D02*
G75*
G02*
X55720459Y-22539949I4779592J-540001D01*
G01*
%TO.C,J1*%
X28300000Y-30400000D02*
X28300000Y-32400000D01*
X28300000Y-34300000D02*
X28300000Y-36200000D01*
X28300000Y-36200000D02*
X37700000Y-36200000D01*
X37700000Y-30400000D02*
X37700000Y-32400000D01*
X37700000Y-34300000D02*
X37700000Y-36200000D01*
%TO.C,C13*%
X37840000Y-15107836D02*
X37840000Y-14892164D01*
X38560000Y-15107836D02*
X38560000Y-14892164D01*
%TO.C,R1*%
X29120000Y-25653641D02*
X29120000Y-25346359D01*
X29880000Y-25653641D02*
X29880000Y-25346359D01*
%TO.C,R26*%
X43346359Y-26820000D02*
X43653641Y-26820000D01*
X43346359Y-27580000D02*
X43653641Y-27580000D01*
%TO.C,R7*%
X35846359Y-17220000D02*
X36153641Y-17220000D01*
X35846359Y-17980000D02*
X36153641Y-17980000D01*
%TO.C,R27*%
X31346359Y-5820000D02*
X31653641Y-5820000D01*
X31346359Y-6580000D02*
X31653641Y-6580000D01*
%TO.C,S1*%
X54570458Y-8459949D02*
X54570458Y-9539949D01*
X54570458Y-9539949D02*
X55720459Y-9539949D01*
X55720459Y-8459948D02*
X54570458Y-8459949D01*
X55720459Y-8459948D02*
G75*
G02*
X55720459Y-9539949I4779592J-540001D01*
G01*
%TO.C,C3*%
X45990000Y-23640580D02*
X45990000Y-23359420D01*
X47010000Y-23640580D02*
X47010000Y-23359420D01*
%TO.C,C9*%
X10892164Y-20240000D02*
X11107836Y-20240000D01*
X10892164Y-20960000D02*
X11107836Y-20960000D01*
%TO.C,U7*%
X7750000Y-29140000D02*
X9250000Y-29140000D01*
X7750000Y-30860000D02*
X9250000Y-30860000D01*
X7300000Y-29400000D02*
X7020000Y-29400000D01*
X7300000Y-29120000D01*
X7300000Y-29400000D01*
G36*
X7300000Y-29400000D02*
G01*
X7020000Y-29400000D01*
X7300000Y-29120000D01*
X7300000Y-29400000D01*
G37*
%TO.C,R12*%
X17620000Y-27553641D02*
X17620000Y-27246359D01*
X18380000Y-27553641D02*
X18380000Y-27246359D01*
%TO.C,R23*%
X50120000Y-23153641D02*
X50120000Y-22846359D01*
X50880000Y-23153641D02*
X50880000Y-22846359D01*
%TO.C,C2*%
X39859420Y-18790000D02*
X40140580Y-18790000D01*
X39859420Y-19810000D02*
X40140580Y-19810000D01*
%TO.C,R15*%
X51420000Y-11153641D02*
X51420000Y-10846359D01*
X52180000Y-11153641D02*
X52180000Y-10846359D01*
%TO.C,C5*%
X36490000Y-8140580D02*
X36490000Y-7859420D01*
X37510000Y-8140580D02*
X37510000Y-7859420D01*
%TO.C,C20*%
X54140000Y-6607836D02*
X54140000Y-6392164D01*
X54860000Y-6607836D02*
X54860000Y-6392164D01*
%TO.C,TP1*%
X21200000Y-23000000D02*
G75*
G02*
X19800000Y-23000000I-700000J0D01*
G01*
X19800000Y-23000000D02*
G75*
G02*
X21200000Y-23000000I700000J0D01*
G01*
%TO.C,TP6*%
X51700000Y-2200000D02*
G75*
G02*
X50300000Y-2200000I-700000J0D01*
G01*
X50300000Y-2200000D02*
G75*
G02*
X51700000Y-2200000I700000J0D01*
G01*
%TO.C,U4*%
X43790000Y-7065000D02*
X45210000Y-7065000D01*
X44925568Y-8935000D02*
X43790000Y-8935000D01*
X45360000Y-9130000D02*
X45080000Y-9130000D01*
X45220000Y-8940000D01*
X45360000Y-9130000D01*
G36*
X45360000Y-9130000D02*
G01*
X45080000Y-9130000D01*
X45220000Y-8940000D01*
X45360000Y-9130000D01*
G37*
%TO.C,R22*%
X51346359Y-14620000D02*
X51653641Y-14620000D01*
X51346359Y-15380000D02*
X51653641Y-15380000D01*
%TO.C,R2*%
X37220000Y-24753641D02*
X37220000Y-24446359D01*
X37980000Y-24753641D02*
X37980000Y-24446359D01*
%TO.C,R8*%
X47346359Y-6720000D02*
X47653641Y-6720000D01*
X47346359Y-7480000D02*
X47653641Y-7480000D01*
%TO.C,R13*%
X40620000Y-15153641D02*
X40620000Y-14846359D01*
X41380000Y-15153641D02*
X41380000Y-14846359D01*
%TO.C,R5*%
X40446359Y-31820000D02*
X40753641Y-31820000D01*
X40446359Y-32580000D02*
X40753641Y-32580000D01*
%TO.C,U3*%
X28590000Y-8940000D02*
X30410000Y-8940000D01*
X28590000Y-8990000D02*
X28590000Y-8940000D01*
X28590000Y-12060000D02*
X28590000Y-12010000D01*
X30410000Y-8940000D02*
X30410000Y-8990000D01*
X30410000Y-10110000D02*
X30410000Y-10890000D01*
X30410000Y-12010000D02*
X30410000Y-12060000D01*
X30410000Y-12060000D02*
X28590000Y-12060000D01*
X28050000Y-8990000D02*
X27810000Y-8660000D01*
X28290000Y-8660000D01*
X28050000Y-8990000D01*
G36*
X28050000Y-8990000D02*
G01*
X27810000Y-8660000D01*
X28290000Y-8660000D01*
X28050000Y-8990000D01*
G37*
%TO.C,C7*%
X41061252Y-10765000D02*
X40538748Y-10765000D01*
X41061252Y-12235000D02*
X40538748Y-12235000D01*
%TO.C,C16*%
X28292164Y-7240000D02*
X28507836Y-7240000D01*
X28292164Y-7960000D02*
X28507836Y-7960000D01*
%TO.C,Q1*%
X42040000Y-29540000D02*
X43040000Y-29540000D01*
X42040000Y-31060000D02*
X42040000Y-29540000D01*
X42090000Y-31060000D02*
X42040000Y-31060000D01*
X43990000Y-31060000D02*
X43210000Y-31060000D01*
X44160000Y-29540000D02*
X45160000Y-29540000D01*
X45160000Y-29540000D02*
X45160000Y-31060000D01*
X45160000Y-31060000D02*
X45110000Y-31060000D01*
X43550000Y-31840000D02*
X43220000Y-31600000D01*
X43550000Y-31360000D01*
X43550000Y-31840000D01*
G36*
X43550000Y-31840000D02*
G01*
X43220000Y-31600000D01*
X43550000Y-31360000D01*
X43550000Y-31840000D01*
G37*
%TO.C,C4*%
X29359420Y-13490000D02*
X29640580Y-13490000D01*
X29359420Y-14510000D02*
X29640580Y-14510000D01*
%TO.C,L1*%
X38690000Y-5890000D02*
X42910000Y-5890000D01*
X42910000Y-10110000D02*
X38690000Y-10110000D01*
%TO.C,R18*%
X47346359Y-19420000D02*
X47653641Y-19420000D01*
X47346359Y-20180000D02*
X47653641Y-20180000D01*
%TO.C,C11*%
X21892164Y-2240000D02*
X22107836Y-2240000D01*
X21892164Y-2960000D02*
X22107836Y-2960000D01*
%TO.C,C23*%
X53140000Y-23107836D02*
X53140000Y-22892164D01*
X53860000Y-23107836D02*
X53860000Y-22892164D01*
%TO.C,C6*%
X44738748Y-10265000D02*
X45261252Y-10265000D01*
X44738748Y-11735000D02*
X45261252Y-11735000D01*
%TO.C,C8*%
X7859420Y-20090000D02*
X8140580Y-20090000D01*
X7859420Y-21110000D02*
X8140580Y-21110000D01*
%TO.C,R4*%
X40446359Y-30220000D02*
X40753641Y-30220000D01*
X40446359Y-30980000D02*
X40753641Y-30980000D01*
%TO.C,R9*%
X47346359Y-8120000D02*
X47653641Y-8120000D01*
X47346359Y-8880000D02*
X47653641Y-8880000D01*
%TO.C,R10*%
X34120000Y-11153641D02*
X34120000Y-10846359D01*
X34880000Y-11153641D02*
X34880000Y-10846359D01*
%TO.C,D1*%
X23400000Y-3750000D02*
X23400000Y-1750000D01*
X23400000Y-3750000D02*
X26600000Y-3750000D01*
X23700000Y-1450000D02*
X23400000Y-1750000D01*
X23700000Y-1450000D02*
X26600000Y-1450000D01*
X26600000Y-1450000D02*
X26600000Y-3750000D01*
%TO.C,R14*%
X39220000Y-15153641D02*
X39220000Y-14846359D01*
X39980000Y-15153641D02*
X39980000Y-14846359D01*
%TO.C,U6*%
X45890000Y-13890000D02*
X46065000Y-13890000D01*
X45890000Y-17110000D02*
X45890000Y-13890000D01*
X46065000Y-17110000D02*
X45890000Y-17110000D01*
X48935000Y-13890000D02*
X49110000Y-13890000D01*
X49110000Y-13890000D02*
X49110000Y-17110000D01*
X49110000Y-17110000D02*
X48935000Y-17110000D01*
X46060000Y-17660000D02*
X45730000Y-17900000D01*
X45730000Y-17420000D01*
X46060000Y-17660000D01*
G36*
X46060000Y-17660000D02*
G01*
X45730000Y-17900000D01*
X45730000Y-17420000D01*
X46060000Y-17660000D01*
G37*
%TO.C,C12*%
X44140000Y-15607836D02*
X44140000Y-15392164D01*
X44860000Y-15607836D02*
X44860000Y-15392164D01*
%TO.C,R16*%
X52820000Y-11153641D02*
X52820000Y-10846359D01*
X53580000Y-11153641D02*
X53580000Y-10846359D01*
%TO.C,U1*%
X32090000Y-22640000D02*
X33910000Y-22640000D01*
X32090000Y-22690000D02*
X32090000Y-22640000D01*
X32090000Y-25760000D02*
X32090000Y-25710000D01*
X33910000Y-22640000D02*
X33910000Y-22690000D01*
X33910000Y-25710000D02*
X33910000Y-25760000D01*
X33910000Y-25760000D02*
X32090000Y-25760000D01*
X31550000Y-22690000D02*
X31310000Y-22360000D01*
X31790000Y-22360000D01*
X31550000Y-22690000D01*
G36*
X31550000Y-22690000D02*
G01*
X31310000Y-22360000D01*
X31790000Y-22360000D01*
X31550000Y-22690000D01*
G37*
%TO.C,R3*%
X40446359Y-28620000D02*
X40753641Y-28620000D01*
X40446359Y-29380000D02*
X40753641Y-29380000D01*
%TO.C,C1*%
X37938748Y-21265000D02*
X38461252Y-21265000D01*
X37938748Y-22735000D02*
X38461252Y-22735000D01*
%TO.C,C10*%
X23640000Y-6107836D02*
X23640000Y-5892164D01*
X24360000Y-6107836D02*
X24360000Y-5892164D01*
%TO.C,R24*%
X51620000Y-23153641D02*
X51620000Y-22846359D01*
X52380000Y-23153641D02*
X52380000Y-22846359D01*
%TO.C,R17*%
X43846359Y-18220000D02*
X44153641Y-18220000D01*
X43846359Y-18980000D02*
X44153641Y-18980000D01*
%TO.C,TP5*%
X44200000Y-34000000D02*
G75*
G02*
X42800000Y-34000000I-700000J0D01*
G01*
X42800000Y-34000000D02*
G75*
G02*
X44200000Y-34000000I700000J0D01*
G01*
%TO.C,J2*%
X45940000Y-26690000D02*
X46960000Y-26690000D01*
X45940000Y-30940000D02*
X45940000Y-26690000D01*
X46960000Y-26690000D02*
X46960000Y-28290000D01*
X46960000Y-28290000D02*
X48240000Y-28290000D01*
X47660000Y-34510000D02*
X52340000Y-34510000D01*
X48240000Y-28290000D02*
X48240000Y-25400000D01*
X53040000Y-26690000D02*
X53040000Y-28290000D01*
X53040000Y-28290000D02*
X51760000Y-28290000D01*
X54060000Y-26690000D02*
X53040000Y-26690000D01*
X54060000Y-30940000D02*
X54060000Y-26690000D01*
%TO.C,U2*%
X40890000Y-21890000D02*
X41365000Y-21890000D01*
X40890000Y-22365000D02*
X40890000Y-21890000D01*
X40890000Y-25110000D02*
X40890000Y-24635000D01*
X41365000Y-25110000D02*
X40890000Y-25110000D01*
X43635000Y-21890000D02*
X44110000Y-21890000D01*
X44110000Y-21890000D02*
X44110000Y-22365000D01*
X44110000Y-24635000D02*
X44110000Y-25110000D01*
X44110000Y-25110000D02*
X43635000Y-25110000D01*
X40360000Y-22750000D02*
X40030000Y-22990000D01*
X40030000Y-22510000D01*
X40360000Y-22750000D01*
G36*
X40360000Y-22750000D02*
G01*
X40030000Y-22990000D01*
X40030000Y-22510000D01*
X40360000Y-22750000D01*
G37*
%TO.C,TP2*%
X23500000Y-23000000D02*
G75*
G02*
X22100000Y-23000000I-700000J0D01*
G01*
X22100000Y-23000000D02*
G75*
G02*
X23500000Y-23000000I700000J0D01*
G01*
%TO.C,U5*%
X-800000Y-18575000D02*
X-800000Y-16125000D01*
X-800000Y-18575000D02*
X1650000Y-18575000D01*
X-550000Y-2700000D02*
X20150000Y-2700000D01*
X-550000Y-18300000D02*
X-550000Y-2700000D01*
X20150000Y-2700000D02*
X20150000Y-18300000D01*
X20150000Y-18300000D02*
X-550000Y-18300000D01*
X6640000Y-18811000D02*
X6160000Y-18811000D01*
X6400000Y-18475000D01*
X6640000Y-18811000D01*
G36*
X6640000Y-18811000D02*
G01*
X6160000Y-18811000D01*
X6400000Y-18475000D01*
X6640000Y-18811000D01*
G37*
%TO.C,SW1*%
X29550000Y-2200000D02*
X29550000Y-1400000D01*
X31600000Y-3300000D02*
X31400000Y-3300000D01*
X34600000Y-3300000D02*
X32900000Y-3300000D01*
X36450000Y-2200000D02*
X36450000Y-1400000D01*
%TD*%
%LPC*%
D15*
%TO.C,R21*%
X53000000Y-7010000D03*
X53000000Y-5990000D03*
%TD*%
D16*
%TO.C,R19*%
X44490000Y-20400000D03*
X45510000Y-20400000D03*
%TD*%
%TO.C,R25*%
X51490000Y-20200000D03*
X52510000Y-20200000D03*
%TD*%
D17*
%TO.C,C15*%
X10600000Y-30480000D03*
X10600000Y-29520000D03*
%TD*%
%TO.C,C14*%
X54600000Y-11480000D03*
X54600000Y-10520000D03*
%TD*%
D16*
%TO.C,R6*%
X35490000Y-19000000D03*
X36510000Y-19000000D03*
%TD*%
D15*
%TO.C,R20*%
X51500000Y-7010000D03*
X51500000Y-5990000D03*
%TD*%
D18*
%TO.C,H2*%
X24200000Y-12900000D03*
%TD*%
D19*
%TO.C,SW2*%
X26600000Y-16725000D03*
X32600000Y-16725000D03*
X26600000Y-20475000D03*
X32600000Y-20475000D03*
%TD*%
%TO.C,SW3*%
X19600000Y-29525000D03*
X25600000Y-29525000D03*
X19600000Y-33275000D03*
X25600000Y-33275000D03*
%TD*%
D20*
%TO.C,TP4*%
X22800000Y-25600000D03*
%TD*%
D15*
%TO.C,R11*%
X22500000Y-6510000D03*
X22500000Y-5490000D03*
%TD*%
D20*
%TO.C,TP3*%
X25100000Y-23000000D03*
%TD*%
D21*
%TO.C,S2*%
X58704000Y-23796000D03*
D22*
X62296102Y-23796000D03*
X62296102Y-20203898D03*
X58704000Y-20203898D03*
%TD*%
D23*
%TO.C,J1*%
X30110000Y-29700000D03*
X35890000Y-29700000D03*
D24*
X29750000Y-28255000D03*
X30550000Y-28255000D03*
D25*
X31750000Y-28255000D03*
X32750000Y-28255000D03*
X33250000Y-28255000D03*
X34250000Y-28255000D03*
D24*
X35450000Y-28255000D03*
X36250000Y-28255000D03*
X36250000Y-28255000D03*
X35450000Y-28255000D03*
D25*
X34750000Y-28255000D03*
X33750000Y-28255000D03*
X32250000Y-28255000D03*
X31250000Y-28255000D03*
D24*
X30550000Y-28255000D03*
X29750000Y-28255000D03*
D26*
X28680000Y-29170000D03*
D27*
X28680000Y-33350000D03*
D26*
X37320000Y-29170000D03*
D27*
X37320000Y-33350000D03*
%TD*%
D17*
%TO.C,C13*%
X38200000Y-15480000D03*
X38200000Y-14520000D03*
%TD*%
D15*
%TO.C,R1*%
X29500000Y-26010000D03*
X29500000Y-24990000D03*
%TD*%
D16*
%TO.C,R26*%
X42990000Y-27200000D03*
X44010000Y-27200000D03*
%TD*%
%TO.C,R7*%
X35490000Y-17600000D03*
X36510000Y-17600000D03*
%TD*%
%TO.C,R27*%
X30990000Y-6200000D03*
X32010000Y-6200000D03*
%TD*%
D21*
%TO.C,S1*%
X58704000Y-10796000D03*
D22*
X62296102Y-10796000D03*
X62296102Y-7203898D03*
X58704000Y-7203898D03*
%TD*%
D28*
%TO.C,C3*%
X46500000Y-24275000D03*
X46500000Y-22725000D03*
%TD*%
D29*
%TO.C,C9*%
X10520000Y-20600000D03*
X11480000Y-20600000D03*
%TD*%
D30*
%TO.C,U7*%
X7800000Y-29600000D03*
X7800000Y-30400000D03*
X9200000Y-30400000D03*
X9200000Y-29600000D03*
%TD*%
D15*
%TO.C,R12*%
X18000000Y-27910000D03*
X18000000Y-26890000D03*
%TD*%
%TO.C,R23*%
X50500000Y-23510000D03*
X50500000Y-22490000D03*
%TD*%
D31*
%TO.C,C2*%
X39225000Y-19300000D03*
X40775000Y-19300000D03*
%TD*%
D15*
%TO.C,R15*%
X51800000Y-11510000D03*
X51800000Y-10490000D03*
%TD*%
D28*
%TO.C,C5*%
X37000000Y-8775000D03*
X37000000Y-7225000D03*
%TD*%
D17*
%TO.C,C20*%
X54500000Y-6980000D03*
X54500000Y-6020000D03*
%TD*%
D20*
%TO.C,TP1*%
X20500000Y-23000000D03*
%TD*%
%TO.C,TP6*%
X51000000Y-2200000D03*
%TD*%
D32*
%TO.C,U4*%
X45212500Y-8500000D03*
X45212500Y-8000000D03*
X45212500Y-7500000D03*
X43787500Y-7500000D03*
X43787500Y-8000000D03*
X43787500Y-8500000D03*
%TD*%
D16*
%TO.C,R22*%
X50990000Y-15000000D03*
X52010000Y-15000000D03*
%TD*%
D15*
%TO.C,R2*%
X37600000Y-25110000D03*
X37600000Y-24090000D03*
%TD*%
D16*
%TO.C,R8*%
X46990000Y-7100000D03*
X48010000Y-7100000D03*
%TD*%
D15*
%TO.C,R13*%
X41000000Y-15510000D03*
X41000000Y-14490000D03*
%TD*%
D16*
%TO.C,R5*%
X40090000Y-32200000D03*
X41110000Y-32200000D03*
%TD*%
D33*
%TO.C,U3*%
X28362500Y-9550000D03*
X28362500Y-10500000D03*
X28362500Y-11450000D03*
X30637500Y-11450000D03*
X30637500Y-9550000D03*
%TD*%
D34*
%TO.C,C7*%
X41750000Y-11500000D03*
X39850000Y-11500000D03*
%TD*%
D29*
%TO.C,C16*%
X27920000Y-7600000D03*
X28880000Y-7600000D03*
%TD*%
D35*
%TO.C,Q1*%
X42650000Y-31237500D03*
X44550000Y-31237500D03*
X43600000Y-29362500D03*
%TD*%
D31*
%TO.C,C4*%
X28725000Y-14000000D03*
X30275000Y-14000000D03*
%TD*%
D36*
%TO.C,L1*%
X39300000Y-8000000D03*
X42300000Y-8000000D03*
%TD*%
D16*
%TO.C,R18*%
X46990000Y-19800000D03*
X48010000Y-19800000D03*
%TD*%
D29*
%TO.C,C11*%
X21520000Y-2600000D03*
X22480000Y-2600000D03*
%TD*%
D17*
%TO.C,C23*%
X53500000Y-23480000D03*
X53500000Y-22520000D03*
%TD*%
D37*
%TO.C,C6*%
X44050000Y-11000000D03*
X45950000Y-11000000D03*
%TD*%
D31*
%TO.C,C8*%
X7225000Y-20600000D03*
X8775000Y-20600000D03*
%TD*%
D16*
%TO.C,R4*%
X40090000Y-30600000D03*
X41110000Y-30600000D03*
%TD*%
%TO.C,R9*%
X46990000Y-8500000D03*
X48010000Y-8500000D03*
%TD*%
D15*
%TO.C,R10*%
X34500000Y-11510000D03*
X34500000Y-10490000D03*
%TD*%
D38*
%TO.C,D1*%
X24085000Y-2050000D03*
X24085000Y-3150000D03*
X25915000Y-3150000D03*
X25915000Y-2050000D03*
%TD*%
D15*
%TO.C,R14*%
X39600000Y-15510000D03*
X39600000Y-14490000D03*
%TD*%
D39*
%TO.C,U6*%
X46500000Y-17612500D03*
X47000000Y-17612500D03*
X47500000Y-17612500D03*
X48000000Y-17612500D03*
X48500000Y-17612500D03*
X48500000Y-13387500D03*
X48000000Y-13387500D03*
X47500000Y-13387500D03*
X47000000Y-13387500D03*
X46500000Y-13387500D03*
%TD*%
D17*
%TO.C,C12*%
X44500000Y-15980000D03*
X44500000Y-15020000D03*
%TD*%
D15*
%TO.C,R16*%
X53200000Y-11510000D03*
X53200000Y-10490000D03*
%TD*%
D33*
%TO.C,U1*%
X31862500Y-23250000D03*
X31862500Y-24200000D03*
X31862500Y-25150000D03*
X34137500Y-25150000D03*
X34137500Y-24200000D03*
X34137500Y-23250000D03*
%TD*%
D16*
%TO.C,R3*%
X40090000Y-29000000D03*
X41110000Y-29000000D03*
%TD*%
D37*
%TO.C,C1*%
X37250000Y-22000000D03*
X39150000Y-22000000D03*
%TD*%
D17*
%TO.C,C10*%
X24000000Y-6480000D03*
X24000000Y-5520000D03*
%TD*%
D18*
%TO.C,H1*%
X62000000Y-32500000D03*
%TD*%
D15*
%TO.C,R24*%
X52000000Y-23510000D03*
X52000000Y-22490000D03*
%TD*%
D16*
%TO.C,R17*%
X43490000Y-18600000D03*
X44510000Y-18600000D03*
%TD*%
D20*
%TO.C,TP5*%
X43500000Y-34000000D03*
%TD*%
D40*
%TO.C,J2*%
X49000000Y-27150000D03*
X51000000Y-27150000D03*
D41*
X46650000Y-32900000D03*
X53350000Y-32900000D03*
%TD*%
D42*
%TO.C,U2*%
X41062500Y-22750000D03*
X41062500Y-23250000D03*
X41062500Y-23750000D03*
X41062500Y-24250000D03*
D43*
X41750000Y-24937500D03*
X42250000Y-24937500D03*
X42750000Y-24937500D03*
X43250000Y-24937500D03*
D42*
X43937500Y-24250000D03*
X43937500Y-23750000D03*
X43937500Y-23250000D03*
X43937500Y-22750000D03*
D43*
X43250000Y-22062500D03*
X42750000Y-22062500D03*
X42250000Y-22062500D03*
X41750000Y-22062500D03*
D44*
X42500000Y-23500000D03*
%TD*%
D20*
%TO.C,TP2*%
X22800000Y-23000000D03*
%TD*%
D45*
%TO.C,U5*%
X6400000Y-17500000D03*
X7250000Y-17500000D03*
X8100000Y-17500000D03*
X8950000Y-17500000D03*
X9800000Y-17500000D03*
X10650000Y-17500000D03*
X11500000Y-17500000D03*
X12350000Y-17500000D03*
X13200000Y-17500000D03*
X14050000Y-17500000D03*
X14900000Y-17500000D03*
X15750000Y-17500000D03*
X16600000Y-17500000D03*
X17450000Y-17500000D03*
X18300000Y-17500000D03*
D46*
X19350000Y-16450000D03*
X19350000Y-15600000D03*
X19350000Y-14750000D03*
X19350000Y-13900000D03*
X19350000Y-13050000D03*
X19350000Y-12200000D03*
X19350000Y-11350000D03*
X19350000Y-10500000D03*
X19350000Y-9650000D03*
X19350000Y-8800000D03*
X19350000Y-7950000D03*
X19350000Y-7100000D03*
X19350000Y-6250000D03*
X19350000Y-5400000D03*
X19350000Y-4550000D03*
D45*
X18300000Y-3500000D03*
X17450000Y-3500000D03*
X16600000Y-3500000D03*
X15750000Y-3500000D03*
X14900000Y-3500000D03*
X14050000Y-3500000D03*
X13200000Y-3500000D03*
X12350000Y-3500000D03*
X11500000Y-3500000D03*
X10650000Y-3500000D03*
X9800000Y-3500000D03*
X8950000Y-3500000D03*
X8100000Y-3500000D03*
X7250000Y-3500000D03*
X6400000Y-3500000D03*
D46*
X5350000Y-4550000D03*
X5350000Y-5400000D03*
X5350000Y-6250000D03*
X5350000Y-7100000D03*
X5350000Y-7950000D03*
X5350000Y-8800000D03*
X5350000Y-9650000D03*
X5350000Y-10500000D03*
X5350000Y-11350000D03*
X5350000Y-12200000D03*
X5350000Y-13050000D03*
X5350000Y-13900000D03*
X5350000Y-14750000D03*
X5350000Y-15600000D03*
X5350000Y-16450000D03*
D47*
X10700000Y-12150000D03*
D48*
X12350000Y-12150000D03*
X14000000Y-12150000D03*
X10700000Y-10500000D03*
X12350000Y-10500000D03*
X14000000Y-10500000D03*
X10700000Y-8850000D03*
X12350000Y-8850000D03*
X14000000Y-8850000D03*
D49*
X5350000Y-17500000D03*
X19350000Y-17500000D03*
X19350000Y-3500000D03*
X5350000Y-3500000D03*
%TD*%
D50*
%TO.C,SW1*%
X34500000Y-1800000D03*
X31500000Y-1800000D03*
D51*
X35250000Y-3750000D03*
X32250000Y-3750000D03*
X30750000Y-3750000D03*
D52*
X36675000Y-2900000D03*
X36675000Y-700000D03*
X29325000Y-2900000D03*
X29325000Y-700000D03*
%TD*%
%LPD*%
M02*
