M48
; DRILL file {KiCad 9.0.5} date 2026-09-17T15:51:22+0100
; FORMAT={-:-/ absolute / metric / decimal}
; #@! TF.CreationDate,2026-09-17T15:51:22+01:00
; #@! TF.GenerationSoftware,Kicad,Pcbnew,9.0.5
; #@! TF.FileFunction,MixedPlating,1,4
FMAT,2
METRIC
; #@! TA.AperFunction,Plated,PTH,ViaDrill
T1C0.200
; #@! TA.AperFunction,Plated,PTH,ViaDrill
T2C0.300
; #@! TA.AperFunction,Plated,PTH,ComponentDrill
T3C0.600
; #@! TA.AperFunction,Plated,PTH,ComponentDrill
T4C0.700
; #@! TA.AperFunction,NonPlated,NPTH,ComponentDrill
T5C0.650
; #@! TA.AperFunction,NonPlated,NPTH,ComponentDrill
T6C0.850
; #@! TA.AperFunction,NonPlated,NPTH,ComponentDrill
T7C2.200
%
G90
G05
T1
X11.525Y-9.675
X11.525Y-11.325
X13.175Y-9.675
X13.175Y-11.325
X42.1Y-23.1
X42.9Y-23.9
T2
X1.5Y-34.52
X4.04Y-34.52
X6.2Y-34.2
X6.4Y-29.6
X6.425Y-4.376
X6.58Y-1.5
X6.58Y-19.28
X6.58Y-26.9
X7.2Y-33.6
X9.12Y-19.28
X9.12Y-26.9
X9.12Y-34.52
X10.52Y-22.5
X10.6Y-28.5
X11.347Y-2.64
X11.392Y-18.368
X11.5Y-4.355
X11.66Y-26.9
X11.66Y-29.44
X11.66Y-34.52
X13.042Y-15.604
X13.739Y-18.36
X14.044Y-16.606
X14.2Y-1.5
X14.9Y-16.646
X15.75Y-18.7
X16.445Y-2.632
X16.6Y-19.9
X16.74Y-1.5
X16.8Y-28.6
X16.892Y-20.938
X19.28Y-1.5
X19.28Y-34.52
X19.997Y-25.964
X20.7Y-17.5
X21.766Y-5.982
X21.82Y-9.12
X21.82Y-24.36
X21.82Y-34.52
X22.124Y-22.017
X23.17Y-6.0
X23.6Y-4.0
X24.36Y-21.82
X24.36Y-24.36
X24.36Y-26.9
X24.36Y-34.52
X24.782Y-17.952
X25.13Y-19.482
X25.135Y-3.738
X25.334Y-21.611
X26.068Y-10.809
X26.9Y-26.9
X26.9Y-29.44
X26.9Y-34.52
X27.2Y-10.5
X27.3Y-12.861
X29.44Y-4.04
X30.747Y-22.026
X32.424Y-25.986
X32.998Y-24.985
X33.704Y-11.512
X34.52Y-14.2
X35.805Y-19.78
X36.0Y-7.225
X37.06Y-4.04
X37.25Y-20.787
X37.251Y-17.368
X38.3Y-6.1
X38.453Y-20.072
X39.362Y-32.0
X39.6Y-1.5
X39.6Y-4.04
X39.6Y-16.74
X39.6Y-34.52
X39.604Y-25.292
X39.648Y-28.267
X39.85Y-12.6
X39.874Y-27.077
X40.168Y-22.75
X41.155Y-22.062
X41.655Y-31.219
X42.14Y-1.5
X42.14Y-4.04
X42.14Y-34.52
X42.311Y-17.285
X43.788Y-6.5
X43.837Y-25.447
X43.851Y-22.062
X44.05Y-12.3
X44.149Y-19.378
X44.68Y-1.5
X44.68Y-4.04
X44.821Y-25.896
X44.828Y-22.75
X44.84Y-23.725
X45.171Y-13.885
X45.305Y-30.574
X45.553Y-18.636
X45.755Y-25.02
X45.866Y-13.387
X45.9Y-6.1
X46.99Y-5.0
X47.0Y-11.0
X47.22Y-1.5
X47.803Y-20.575
X49.76Y-4.04
X49.76Y-6.58
X49.76Y-16.74
X49.76Y-21.82
X49.76Y-24.36
X49.997Y-11.691
X51.236Y-14.226
X51.73Y-20.98
X52.3Y-1.5
X52.3Y-4.04
X52.3Y-19.28
X54.84Y-1.5
X54.84Y-4.04
X54.84Y-16.74
X54.84Y-19.28
X54.84Y-26.9
X54.84Y-29.44
X57.38Y-1.5
X57.38Y-4.04
X57.38Y-14.2
X57.38Y-16.74
X57.38Y-26.9
X57.38Y-29.44
X57.38Y-31.98
X57.38Y-34.52
X59.92Y-1.5
X59.92Y-16.74
X59.92Y-29.44
X59.92Y-34.52
X62.46Y-1.5
X62.46Y-4.04
X62.46Y-26.9
X62.46Y-29.44
T4
X58.704Y-7.204
X58.704Y-10.796
X58.704Y-20.204
X58.704Y-23.796
X62.296Y-7.204
X62.296Y-10.796
X62.296Y-20.204
X62.296Y-23.796
T5
X30.11Y-29.7
X35.89Y-29.7
T6
X31.5Y-1.8
X34.5Y-1.8
T7
X24.2Y-12.9
X62.0Y-32.5
T3
X28.68Y-28.62G85X28.68Y-29.72
G05
X28.68Y-33.05G85X28.68Y-33.65
G05
X37.32Y-28.62G85X37.32Y-29.72
G05
X37.32Y-33.05G85X37.32Y-33.65
G05
M30
