%TF.GenerationSoftware,KiCad,Pcbnew,9.0.5*%
%TF.CreationDate,2026-09-28T19:19:17+01:00*%
%TF.ProjectId,phone_board,70686f6e-655f-4626-9f61-72642e6b6963,rev?*%
%TF.SameCoordinates,Original*%
%TF.FileFunction,Paste,Top*%
%TF.FilePolarity,Positive*%
%FSLAX46Y46*%
G04 Gerber Fmt 4.6, Leading zero omitted, Abs format (unit mm)*
G04 Created by KiCad (PCBNEW 9.0.5) date 2026-09-28 19:19:17*
%MOMM*%
%LPD*%
G01*
G04 APERTURE LIST*
G04 Aperture macros list*
%AMRoundRect*
0 Rectangle with rounded corners*
0 $1 Rounding radius*
0 $2 $3 $4 $5 $6 $7 $8 $9 X,Y pos of 4 corners*
0 Add a 4 corners polygon primitive as box body*
4,1,4,$2,$3,$4,$5,$6,$7,$8,$9,$2,$3,0*
0 Add four circle primitives for the rounded corners*
1,1,$1+$1,$2,$3*
1,1,$1+$1,$4,$5*
1,1,$1+$1,$6,$7*
1,1,$1+$1,$8,$9*
0 Add four rect primitives between the rounded corners*
20,1,$1+$1,$2,$3,$4,$5,0*
20,1,$1+$1,$4,$5,$6,$7,0*
20,1,$1+$1,$6,$7,$8,$9,0*
20,1,$1+$1,$8,$9,$2,$3,0*%
%AMOutline5P*
0 Free polygon, 5 corners , with rotation*
0 The origin of the aperture is its center*
0 number of corners: always 5*
0 $1 to $10 corner X, Y*
0 $11 Rotation angle, in degrees counterclockwise*
0 create outline with 5 corners*
4,1,5,$1,$2,$3,$4,$5,$6,$7,$8,$9,$10,$1,$2,$11*%
%AMOutline6P*
0 Free polygon, 6 corners , with rotation*
0 The origin of the aperture is its center*
0 number of corners: always 6*
0 $1 to $12 corner X, Y*
0 $13 Rotation angle, in degrees counterclockwise*
0 create outline with 6 corners*
4,1,6,$1,$2,$3,$4,$5,$6,$7,$8,$9,$10,$11,$12,$1,$2,$13*%
%AMOutline7P*
0 Free polygon, 7 corners , with rotation*
0 The origin of the aperture is its center*
0 number of corners: always 7*
0 $1 to $14 corner X, Y*
0 $15 Rotation angle, in degrees counterclockwise*
0 create outline with 7 corners*
4,1,7,$1,$2,$3,$4,$5,$6,$7,$8,$9,$10,$11,$12,$13,$14,$1,$2,$15*%
%AMOutline8P*
0 Free polygon, 8 corners , with rotation*
0 The origin of the aperture is its center*
0 number of corners: always 8*
0 $1 to $16 corner X, Y*
0 $17 Rotation angle, in degrees counterclockwise*
0 create outline with 8 corners*
4,1,8,$1,$2,$3,$4,$5,$6,$7,$8,$9,$10,$11,$12,$13,$14,$15,$16,$1,$2,$17*%
G04 Aperture macros list end*
%ADD10RoundRect,0.135000X-0.135000X-0.185000X0.135000X-0.185000X0.135000X0.185000X-0.135000X0.185000X0*%
%ADD11RoundRect,0.135000X0.185000X-0.135000X0.185000X0.135000X-0.185000X0.135000X-0.185000X-0.135000X0*%
%ADD12RoundRect,0.140000X0.170000X-0.140000X0.170000X0.140000X-0.170000X0.140000X-0.170000X-0.140000X0*%
%ADD13RoundRect,0.140000X-0.140000X-0.170000X0.140000X-0.170000X0.140000X0.170000X-0.140000X0.170000X0*%
%ADD14RoundRect,0.225000X0.250000X-0.225000X0.250000X0.225000X-0.250000X0.225000X-0.250000X-0.225000X0*%
%ADD15RoundRect,0.150000X0.150000X-0.587500X0.150000X0.587500X-0.150000X0.587500X-0.150000X-0.587500X0*%
%ADD16RoundRect,0.150000X0.150000X0.500000X-0.150000X0.500000X-0.150000X-0.500000X0.150000X-0.500000X0*%
%ADD17RoundRect,0.175000X0.350000X0.175000X-0.350000X0.175000X-0.350000X-0.175000X0.350000X-0.175000X0*%
%ADD18R,0.700000X0.700000*%
%ADD19RoundRect,0.225000X-0.225000X-0.250000X0.225000X-0.250000X0.225000X0.250000X-0.225000X0.250000X0*%
%ADD20R,0.500000X0.300000*%
%ADD21R,0.400000X0.800000*%
%ADD22R,0.800000X0.400000*%
%ADD23Outline5P,-0.600000X0.204000X-0.204000X0.600000X0.600000X0.600000X0.600000X-0.600000X-0.600000X-0.600000X90.000000*%
%ADD24R,1.200000X1.200000*%
%ADD25R,0.800000X0.800000*%
%ADD26RoundRect,0.250000X-0.250000X-0.475000X0.250000X-0.475000X0.250000X0.475000X-0.250000X0.475000X0*%
%ADD27RoundRect,0.087500X0.087500X-0.725000X0.087500X0.725000X-0.087500X0.725000X-0.087500X-0.725000X0*%
%ADD28RoundRect,0.150000X-0.512500X-0.150000X0.512500X-0.150000X0.512500X0.150000X-0.512500X0.150000X0*%
%ADD29R,1.000000X0.750000*%
%ADD30R,0.600000X1.450000*%
%ADD31R,0.300000X1.450000*%
%ADD32RoundRect,0.160000X-0.160000X-0.160000X0.160000X-0.160000X0.160000X0.160000X-0.160000X0.160000X0*%
%ADD33RoundRect,0.062500X-0.375000X-0.062500X0.375000X-0.062500X0.375000X0.062500X-0.375000X0.062500X0*%
%ADD34RoundRect,0.062500X-0.062500X-0.375000X0.062500X-0.375000X0.062500X0.375000X-0.062500X0.375000X0*%
%ADD35RoundRect,0.087500X0.250000X0.087500X-0.250000X0.087500X-0.250000X-0.087500X0.250000X-0.087500X0*%
%ADD36RoundRect,0.250000X1.500000X-0.250000X1.500000X0.250000X-1.500000X0.250000X-1.500000X-0.250000X0*%
%ADD37RoundRect,0.250001X1.449999X-0.499999X1.449999X0.499999X-1.449999X0.499999X-1.449999X-0.499999X0*%
%ADD38RoundRect,0.250000X-0.300000X-1.600000X0.300000X-1.600000X0.300000X1.600000X-0.300000X1.600000X0*%
%ADD39RoundRect,0.250000X0.250000X0.475000X-0.250000X0.475000X-0.250000X-0.475000X0.250000X-0.475000X0*%
G04 APERTURE END LIST*
D10*
%TO.C,R5*%
X38090000Y-29800000D03*
X39110000Y-29800000D03*
%TD*%
%TO.C,R9*%
X44990000Y-8500000D03*
X46010000Y-8500000D03*
%TD*%
D11*
%TO.C,R21*%
X47500000Y-11010000D03*
X47500000Y-9990000D03*
%TD*%
D12*
%TO.C,C15*%
X10600000Y-28480000D03*
X10600000Y-27520000D03*
%TD*%
D11*
%TO.C,R24*%
X48300000Y-15810000D03*
X48300000Y-14790000D03*
%TD*%
D10*
%TO.C,R18*%
X45290000Y-19750000D03*
X46310000Y-19750000D03*
%TD*%
D13*
%TO.C,C12*%
X47420000Y-19750000D03*
X48380000Y-19750000D03*
%TD*%
D11*
%TO.C,R1*%
X27500000Y-23010000D03*
X27500000Y-21990000D03*
%TD*%
D14*
%TO.C,C5*%
X35000000Y-8775000D03*
X35000000Y-7225000D03*
%TD*%
D10*
%TO.C,R12*%
X17090000Y-25600000D03*
X18110000Y-25600000D03*
%TD*%
D15*
%TO.C,Q1*%
X40650000Y-30537500D03*
X42550000Y-30537500D03*
X41600000Y-28662500D03*
%TD*%
D16*
%TO.C,SW1*%
X33250000Y-3750000D03*
X30250000Y-3750000D03*
X28750000Y-3750000D03*
D17*
X34675000Y-2900000D03*
X34675000Y-700000D03*
X27325000Y-2900000D03*
X27325000Y-700000D03*
%TD*%
D11*
%TO.C,R22*%
X45500000Y-3010000D03*
X45500000Y-1990000D03*
%TD*%
D18*
%TO.C,D1*%
X21285000Y-6450000D03*
X21285000Y-7550000D03*
X23115000Y-7550000D03*
X23115000Y-6450000D03*
%TD*%
D10*
%TO.C,R17*%
X41090000Y-19750000D03*
X42110000Y-19750000D03*
%TD*%
D13*
%TO.C,C16*%
X25920000Y-7600000D03*
X26880000Y-7600000D03*
%TD*%
D11*
%TO.C,R15*%
X45000000Y-24010000D03*
X45000000Y-22990000D03*
%TD*%
D10*
%TO.C,R19*%
X43190000Y-19750000D03*
X44210000Y-19750000D03*
%TD*%
%TO.C,R8*%
X44990000Y-7100000D03*
X46010000Y-7100000D03*
%TD*%
D11*
%TO.C,R25*%
X47500000Y-3010000D03*
X47500000Y-1990000D03*
%TD*%
D19*
%TO.C,C8*%
X7225000Y-18600000D03*
X8775000Y-18600000D03*
%TD*%
D11*
%TO.C,R13*%
X39000000Y-15510000D03*
X39000000Y-14490000D03*
%TD*%
D10*
%TO.C,R7*%
X33890000Y-17600000D03*
X34910000Y-17600000D03*
%TD*%
D19*
%TO.C,C2*%
X37225000Y-19300000D03*
X38775000Y-19300000D03*
%TD*%
D20*
%TO.C,U7*%
X7800000Y-27600000D03*
X7800000Y-28400000D03*
X9200000Y-28400000D03*
X9200000Y-27600000D03*
%TD*%
D10*
%TO.C,R6*%
X33890000Y-19000000D03*
X34910000Y-19000000D03*
%TD*%
D12*
%TO.C,C20*%
X49000000Y-10980000D03*
X49000000Y-10020000D03*
%TD*%
D10*
%TO.C,R27*%
X28990000Y-6200000D03*
X30010000Y-6200000D03*
%TD*%
D11*
%TO.C,R11*%
X22500000Y-10510000D03*
X22500000Y-9490000D03*
%TD*%
D10*
%TO.C,R3*%
X38090000Y-26600000D03*
X39110000Y-26600000D03*
%TD*%
D21*
%TO.C,U5*%
X6400000Y-15500000D03*
X7250000Y-15500000D03*
X8100000Y-15500000D03*
X8950000Y-15500000D03*
X9800000Y-15500000D03*
X10650000Y-15500000D03*
X11500000Y-15500000D03*
X12350000Y-15500000D03*
X13200000Y-15500000D03*
X14050000Y-15500000D03*
X14900000Y-15500000D03*
X15750000Y-15500000D03*
X16600000Y-15500000D03*
X17450000Y-15500000D03*
X18300000Y-15500000D03*
D22*
X19350000Y-14450000D03*
X19350000Y-13600000D03*
X19350000Y-12750000D03*
X19350000Y-11900000D03*
X19350000Y-11050000D03*
X19350000Y-10200000D03*
X19350000Y-9350000D03*
X19350000Y-8500000D03*
X19350000Y-7650000D03*
X19350000Y-6800000D03*
X19350000Y-5950000D03*
X19350000Y-5100000D03*
X19350000Y-4250000D03*
X19350000Y-3400000D03*
X19350000Y-2550000D03*
D21*
X18300000Y-1500000D03*
X17450000Y-1500000D03*
X16600000Y-1500000D03*
X15750000Y-1500000D03*
X14900000Y-1500000D03*
X14050000Y-1500000D03*
X13200000Y-1500000D03*
X12350000Y-1500000D03*
X11500000Y-1500000D03*
X10650000Y-1500000D03*
X9800000Y-1500000D03*
X8950000Y-1500000D03*
X8100000Y-1500000D03*
X7250000Y-1500000D03*
X6400000Y-1500000D03*
D22*
X5350000Y-2550000D03*
X5350000Y-3400000D03*
X5350000Y-4250000D03*
X5350000Y-5100000D03*
X5350000Y-5950000D03*
X5350000Y-6800000D03*
X5350000Y-7650000D03*
X5350000Y-8500000D03*
X5350000Y-9350000D03*
X5350000Y-10200000D03*
X5350000Y-11050000D03*
X5350000Y-11900000D03*
X5350000Y-12750000D03*
X5350000Y-13600000D03*
X5350000Y-14450000D03*
D23*
X10700000Y-10150000D03*
D24*
X12350000Y-10150000D03*
X14000000Y-10150000D03*
X10700000Y-8500000D03*
X12350000Y-8500000D03*
X14000000Y-8500000D03*
X10700000Y-6850000D03*
X12350000Y-6850000D03*
X14000000Y-6850000D03*
D25*
X5350000Y-15500000D03*
X19350000Y-15500000D03*
X19350000Y-1500000D03*
X5350000Y-1500000D03*
%TD*%
D19*
%TO.C,C3*%
X44225000Y-21100000D03*
X45775000Y-21100000D03*
%TD*%
D12*
%TO.C,C13*%
X36200000Y-15480000D03*
X36200000Y-14520000D03*
%TD*%
D26*
%TO.C,C6*%
X42050000Y-11000000D03*
X43950000Y-11000000D03*
%TD*%
D27*
%TO.C,U6*%
X44500000Y-17612500D03*
X45000000Y-17612500D03*
X45500000Y-17612500D03*
X46000000Y-17612500D03*
X46500000Y-17612500D03*
X46500000Y-13387500D03*
X46000000Y-13387500D03*
X45500000Y-13387500D03*
X45000000Y-13387500D03*
X44500000Y-13387500D03*
%TD*%
D28*
%TO.C,U1*%
X29862500Y-20250000D03*
X29862500Y-21200000D03*
X29862500Y-22150000D03*
X32137500Y-22150000D03*
X32137500Y-21200000D03*
X32137500Y-20250000D03*
%TD*%
D11*
%TO.C,R23*%
X48300000Y-13810000D03*
X48300000Y-12790000D03*
%TD*%
D29*
%TO.C,SW3*%
X18800000Y-27125000D03*
X24800000Y-27125000D03*
X18800000Y-30875000D03*
X24800000Y-30875000D03*
%TD*%
D30*
%TO.C,J1*%
X27750000Y-25255000D03*
X28550000Y-25255000D03*
D31*
X29750000Y-25255000D03*
X30750000Y-25255000D03*
X31250000Y-25255000D03*
X32250000Y-25255000D03*
D30*
X33450000Y-25255000D03*
X34250000Y-25255000D03*
X34250000Y-25255000D03*
X33450000Y-25255000D03*
D31*
X32750000Y-25255000D03*
X31750000Y-25255000D03*
X30250000Y-25255000D03*
X29250000Y-25255000D03*
D30*
X28550000Y-25255000D03*
X27750000Y-25255000D03*
%TD*%
D11*
%TO.C,R10*%
X32500000Y-11510000D03*
X32500000Y-10490000D03*
%TD*%
%TO.C,R16*%
X46500000Y-24010000D03*
X46500000Y-22990000D03*
%TD*%
D10*
%TO.C,R26*%
X40390000Y-32200000D03*
X41410000Y-32200000D03*
%TD*%
D32*
%TO.C,U2*%
X40100000Y-23100000D03*
X40100000Y-23900000D03*
X40900000Y-23100000D03*
X40900000Y-23900000D03*
D33*
X39062500Y-22750000D03*
X39062500Y-23250000D03*
X39062500Y-23750000D03*
X39062500Y-24250000D03*
D34*
X39750000Y-24937500D03*
X40250000Y-24937500D03*
X40750000Y-24937500D03*
X41250000Y-24937500D03*
D33*
X41937500Y-24250000D03*
X41937500Y-23750000D03*
X41937500Y-23250000D03*
X41937500Y-22750000D03*
D34*
X41250000Y-22062500D03*
X40750000Y-22062500D03*
X40250000Y-22062500D03*
X39750000Y-22062500D03*
%TD*%
D12*
%TO.C,C11*%
X24700000Y-7480000D03*
X24700000Y-6520000D03*
%TD*%
D11*
%TO.C,R20*%
X46000000Y-11010000D03*
X46000000Y-9990000D03*
%TD*%
D12*
%TO.C,C10*%
X24000000Y-10480000D03*
X24000000Y-9520000D03*
%TD*%
D26*
%TO.C,C1*%
X35250000Y-22000000D03*
X37150000Y-22000000D03*
%TD*%
D11*
%TO.C,R2*%
X37000000Y-26010000D03*
X37000000Y-24990000D03*
%TD*%
D10*
%TO.C,R4*%
X38090000Y-28200000D03*
X39110000Y-28200000D03*
%TD*%
D29*
%TO.C,SW2*%
X18800000Y-20025000D03*
X24800000Y-20025000D03*
X18800000Y-23775000D03*
X24800000Y-23775000D03*
%TD*%
D35*
%TO.C,U4*%
X43212500Y-8500000D03*
X43212500Y-8000000D03*
X43212500Y-7500000D03*
X41787500Y-7500000D03*
X41787500Y-8000000D03*
X41787500Y-8500000D03*
%TD*%
D28*
%TO.C,U3*%
X26362500Y-9550000D03*
X26362500Y-10500000D03*
X26362500Y-11450000D03*
X28637500Y-11450000D03*
X28637500Y-9550000D03*
%TD*%
D12*
%TO.C,C14*%
X48000000Y-23980000D03*
X48000000Y-23020000D03*
%TD*%
D11*
%TO.C,R14*%
X37600000Y-15510000D03*
X37600000Y-14490000D03*
%TD*%
D36*
%TO.C,J2*%
X51550000Y-29100000D03*
X51550000Y-27100000D03*
D37*
X57300000Y-31450000D03*
X57300000Y-24750000D03*
%TD*%
D13*
%TO.C,C9*%
X10520000Y-18600000D03*
X11480000Y-18600000D03*
%TD*%
D38*
%TO.C,L1*%
X37300000Y-8000000D03*
X40300000Y-8000000D03*
%TD*%
D19*
%TO.C,C4*%
X26725000Y-14000000D03*
X28275000Y-14000000D03*
%TD*%
D39*
%TO.C,C7*%
X39750000Y-11500000D03*
X37850000Y-11500000D03*
%TD*%
D13*
%TO.C,C23*%
X47520000Y-21700000D03*
X48480000Y-21700000D03*
%TD*%
M02*
