%TF.GenerationSoftware,KiCad,Pcbnew,9.0.5*%
%TF.CreationDate,2026-09-17T15:51:22+01:00*%
%TF.ProjectId,phone_board,70686f6e-655f-4626-9f61-72642e6b6963,rev?*%
%TF.SameCoordinates,Original*%
%TF.FileFunction,Legend,Bot*%
%TF.FilePolarity,Positive*%
%FSLAX46Y46*%
G04 Gerber Fmt 4.6, Leading zero omitted, Abs format (unit mm)*
G04 Created by KiCad (PCBNEW 9.0.5) date 2026-09-17 15:51:22*
%MOMM*%
%LPD*%
G01*
G04 APERTURE LIST*
G04 Aperture macros list*
%AMHorizOval*
0 Thick line with rounded ends*
0 $1 width*
0 $2 $3 position (X,Y) of the first rounded end (center of the circle)*
0 $4 $5 position (X,Y) of the second rounded end (center of the circle)*
0 Add line between two ends*
20,1,$1,$2,$3,$4,$5,0*
0 Add two circle primitives to create the rounded ends*
1,1,$1,$2,$3*
1,1,$1,$4,$5*%
G04 Aperture macros list end*
%ADD10C,0.150000*%
%ADD11C,2.200000*%
%ADD12HorizOval,1.200000X0.141421X0.141421X-0.141421X-0.141421X0*%
%ADD13C,1.200000*%
%ADD14C,0.650000*%
%ADD15O,1.000000X2.100000*%
%ADD16O,1.000000X1.600000*%
%ADD17C,0.850000*%
G04 APERTURE END LIST*
D10*
X39523811Y-33359580D02*
X39571430Y-33407200D01*
X39571430Y-33407200D02*
X39714287Y-33454819D01*
X39714287Y-33454819D02*
X39809525Y-33454819D01*
X39809525Y-33454819D02*
X39952382Y-33407200D01*
X39952382Y-33407200D02*
X40047620Y-33311961D01*
X40047620Y-33311961D02*
X40095239Y-33216723D01*
X40095239Y-33216723D02*
X40142858Y-33026247D01*
X40142858Y-33026247D02*
X40142858Y-32883390D01*
X40142858Y-32883390D02*
X40095239Y-32692914D01*
X40095239Y-32692914D02*
X40047620Y-32597676D01*
X40047620Y-32597676D02*
X39952382Y-32502438D01*
X39952382Y-32502438D02*
X39809525Y-32454819D01*
X39809525Y-32454819D02*
X39714287Y-32454819D01*
X39714287Y-32454819D02*
X39571430Y-32502438D01*
X39571430Y-32502438D02*
X39523811Y-32550057D01*
X39095239Y-33454819D02*
X39095239Y-32454819D01*
X39095239Y-32931009D02*
X38523811Y-32931009D01*
X38523811Y-33454819D02*
X38523811Y-32454819D01*
X37619049Y-32788152D02*
X37619049Y-33454819D01*
X37857144Y-32407200D02*
X38095239Y-33121485D01*
X38095239Y-33121485D02*
X37476192Y-33121485D01*
X35904763Y-33454819D02*
X35904763Y-32454819D01*
X35904763Y-33407200D02*
X36000001Y-33454819D01*
X36000001Y-33454819D02*
X36190477Y-33454819D01*
X36190477Y-33454819D02*
X36285715Y-33407200D01*
X36285715Y-33407200D02*
X36333334Y-33359580D01*
X36333334Y-33359580D02*
X36380953Y-33264342D01*
X36380953Y-33264342D02*
X36380953Y-32978628D01*
X36380953Y-32978628D02*
X36333334Y-32883390D01*
X36333334Y-32883390D02*
X36285715Y-32835771D01*
X36285715Y-32835771D02*
X36190477Y-32788152D01*
X36190477Y-32788152D02*
X36000001Y-32788152D01*
X36000001Y-32788152D02*
X35904763Y-32835771D01*
X35047620Y-33407200D02*
X35142858Y-33454819D01*
X35142858Y-33454819D02*
X35333334Y-33454819D01*
X35333334Y-33454819D02*
X35428572Y-33407200D01*
X35428572Y-33407200D02*
X35476191Y-33311961D01*
X35476191Y-33311961D02*
X35476191Y-32931009D01*
X35476191Y-32931009D02*
X35428572Y-32835771D01*
X35428572Y-32835771D02*
X35333334Y-32788152D01*
X35333334Y-32788152D02*
X35142858Y-32788152D01*
X35142858Y-32788152D02*
X35047620Y-32835771D01*
X35047620Y-32835771D02*
X35000001Y-32931009D01*
X35000001Y-32931009D02*
X35000001Y-33026247D01*
X35000001Y-33026247D02*
X35476191Y-33121485D01*
X34714286Y-32788152D02*
X34333334Y-32788152D01*
X34571429Y-32454819D02*
X34571429Y-33311961D01*
X34571429Y-33311961D02*
X34523810Y-33407200D01*
X34523810Y-33407200D02*
X34428572Y-33454819D01*
X34428572Y-33454819D02*
X34333334Y-33454819D01*
X33619048Y-33407200D02*
X33714286Y-33454819D01*
X33714286Y-33454819D02*
X33904762Y-33454819D01*
X33904762Y-33454819D02*
X34000000Y-33407200D01*
X34000000Y-33407200D02*
X34047619Y-33311961D01*
X34047619Y-33311961D02*
X34047619Y-32931009D01*
X34047619Y-32931009D02*
X34000000Y-32835771D01*
X34000000Y-32835771D02*
X33904762Y-32788152D01*
X33904762Y-32788152D02*
X33714286Y-32788152D01*
X33714286Y-32788152D02*
X33619048Y-32835771D01*
X33619048Y-32835771D02*
X33571429Y-32931009D01*
X33571429Y-32931009D02*
X33571429Y-33026247D01*
X33571429Y-33026247D02*
X34047619Y-33121485D01*
X32714286Y-33407200D02*
X32809524Y-33454819D01*
X32809524Y-33454819D02*
X33000000Y-33454819D01*
X33000000Y-33454819D02*
X33095238Y-33407200D01*
X33095238Y-33407200D02*
X33142857Y-33359580D01*
X33142857Y-33359580D02*
X33190476Y-33264342D01*
X33190476Y-33264342D02*
X33190476Y-32978628D01*
X33190476Y-32978628D02*
X33142857Y-32883390D01*
X33142857Y-32883390D02*
X33095238Y-32835771D01*
X33095238Y-32835771D02*
X33000000Y-32788152D01*
X33000000Y-32788152D02*
X32809524Y-32788152D01*
X32809524Y-32788152D02*
X32714286Y-32835771D01*
X32428571Y-32788152D02*
X32047619Y-32788152D01*
X32285714Y-32454819D02*
X32285714Y-33311961D01*
X32285714Y-33311961D02*
X32238095Y-33407200D01*
X32238095Y-33407200D02*
X32142857Y-33454819D01*
X32142857Y-33454819D02*
X32047619Y-33454819D01*
X31571428Y-33454819D02*
X31666666Y-33407200D01*
X31666666Y-33407200D02*
X31714285Y-33359580D01*
X31714285Y-33359580D02*
X31761904Y-33264342D01*
X31761904Y-33264342D02*
X31761904Y-32978628D01*
X31761904Y-32978628D02*
X31714285Y-32883390D01*
X31714285Y-32883390D02*
X31666666Y-32835771D01*
X31666666Y-32835771D02*
X31571428Y-32788152D01*
X31571428Y-32788152D02*
X31428571Y-32788152D01*
X31428571Y-32788152D02*
X31333333Y-32835771D01*
X31333333Y-32835771D02*
X31285714Y-32883390D01*
X31285714Y-32883390D02*
X31238095Y-32978628D01*
X31238095Y-32978628D02*
X31238095Y-33264342D01*
X31238095Y-33264342D02*
X31285714Y-33359580D01*
X31285714Y-33359580D02*
X31333333Y-33407200D01*
X31333333Y-33407200D02*
X31428571Y-33454819D01*
X31428571Y-33454819D02*
X31571428Y-33454819D01*
X30809523Y-33454819D02*
X30809523Y-32788152D01*
X30809523Y-32978628D02*
X30761904Y-32883390D01*
X30761904Y-32883390D02*
X30714285Y-32835771D01*
X30714285Y-32835771D02*
X30619047Y-32788152D01*
X30619047Y-32788152D02*
X30523809Y-32788152D01*
X29428570Y-33454819D02*
X29428570Y-32788152D01*
X29428570Y-32978628D02*
X29380951Y-32883390D01*
X29380951Y-32883390D02*
X29333332Y-32835771D01*
X29333332Y-32835771D02*
X29238094Y-32788152D01*
X29238094Y-32788152D02*
X29142856Y-32788152D01*
X28428570Y-33407200D02*
X28523808Y-33454819D01*
X28523808Y-33454819D02*
X28714284Y-33454819D01*
X28714284Y-33454819D02*
X28809522Y-33407200D01*
X28809522Y-33407200D02*
X28857141Y-33311961D01*
X28857141Y-33311961D02*
X28857141Y-32931009D01*
X28857141Y-32931009D02*
X28809522Y-32835771D01*
X28809522Y-32835771D02*
X28714284Y-32788152D01*
X28714284Y-32788152D02*
X28523808Y-32788152D01*
X28523808Y-32788152D02*
X28428570Y-32835771D01*
X28428570Y-32835771D02*
X28380951Y-32931009D01*
X28380951Y-32931009D02*
X28380951Y-33026247D01*
X28380951Y-33026247D02*
X28857141Y-33121485D01*
X28047617Y-32788152D02*
X27809522Y-33454819D01*
X27809522Y-33454819D02*
X27571427Y-32788152D01*
X26095236Y-32931009D02*
X25952379Y-32978628D01*
X25952379Y-32978628D02*
X25904760Y-33026247D01*
X25904760Y-33026247D02*
X25857141Y-33121485D01*
X25857141Y-33121485D02*
X25857141Y-33264342D01*
X25857141Y-33264342D02*
X25904760Y-33359580D01*
X25904760Y-33359580D02*
X25952379Y-33407200D01*
X25952379Y-33407200D02*
X26047617Y-33454819D01*
X26047617Y-33454819D02*
X26428569Y-33454819D01*
X26428569Y-33454819D02*
X26428569Y-32454819D01*
X26428569Y-32454819D02*
X26095236Y-32454819D01*
X26095236Y-32454819D02*
X25999998Y-32502438D01*
X25999998Y-32502438D02*
X25952379Y-32550057D01*
X25952379Y-32550057D02*
X25904760Y-32645295D01*
X25904760Y-32645295D02*
X25904760Y-32740533D01*
X25904760Y-32740533D02*
X25952379Y-32835771D01*
X25952379Y-32835771D02*
X25999998Y-32883390D01*
X25999998Y-32883390D02*
X26095236Y-32931009D01*
X26095236Y-32931009D02*
X26428569Y-32931009D01*
%LPC*%
D11*
%TO.C,H2*%
X24200000Y-12900000D03*
%TD*%
D12*
%TO.C,S2*%
X58704000Y-23796000D03*
D13*
X62296102Y-23796000D03*
X62296102Y-20203898D03*
X58704000Y-20203898D03*
%TD*%
D14*
%TO.C,J1*%
X30110000Y-29700000D03*
X35890000Y-29700000D03*
D15*
X28680000Y-29170000D03*
D16*
X28680000Y-33350000D03*
D15*
X37320000Y-29170000D03*
D16*
X37320000Y-33350000D03*
%TD*%
D12*
%TO.C,S1*%
X58704000Y-10796000D03*
D13*
X62296102Y-10796000D03*
X62296102Y-7203898D03*
X58704000Y-7203898D03*
%TD*%
D11*
%TO.C,H1*%
X62000000Y-32500000D03*
%TD*%
D17*
%TO.C,SW1*%
X34500000Y-1800000D03*
X31500000Y-1800000D03*
%TD*%
%LPD*%
M02*
