%TF.GenerationSoftware,KiCad,Pcbnew,9.0.5*%
%TF.CreationDate,2026-09-28T19:19:17+01:00*%
%TF.ProjectId,phone_board,70686f6e-655f-4626-9f61-72642e6b6963,rev?*%
%TF.SameCoordinates,Original*%
%TF.FileFunction,Copper,L2,Inr*%
%TF.FilePolarity,Positive*%
%FSLAX46Y46*%
G04 Gerber Fmt 4.6, Leading zero omitted, Abs format (unit mm)*
G04 Created by KiCad (PCBNEW 9.0.5) date 2026-09-28 19:19:17*
%MOMM*%
%LPD*%
G01*
G04 APERTURE LIST*
G04 Aperture macros list*
%AMHorizOval*
0 Thick line with rounded ends*
0 $1 width*
0 $2 $3 position (X,Y) of the first rounded end (center of the circle)*
0 $4 $5 position (X,Y) of the second rounded end (center of the circle)*
0 Add line between two ends*
20,1,$1,$2,$3,$4,$5,0*
0 Add two circle primitives to create the rounded ends*
1,1,$1,$2,$3*
1,1,$1,$4,$5*%
G04 Aperture macros list end*
%TA.AperFunction,ComponentPad*%
%ADD10HorizOval,1.200000X0.141421X0.141421X-0.141421X-0.141421X0*%
%TD*%
%TA.AperFunction,ComponentPad*%
%ADD11C,1.200000*%
%TD*%
%TA.AperFunction,HeatsinkPad*%
%ADD12O,1.000000X2.100000*%
%TD*%
%TA.AperFunction,HeatsinkPad*%
%ADD13O,1.000000X1.600000*%
%TD*%
%TA.AperFunction,ViaPad*%
%ADD14C,0.600000*%
%TD*%
%TA.AperFunction,ViaPad*%
%ADD15C,0.500000*%
%TD*%
G04 APERTURE END LIST*
D10*
%TO.N,/+5V_HTR*%
%TO.C,S2*%
X52704000Y-19296000D03*
D11*
%TO.N,/LPG_RL*%
X56296102Y-19296000D03*
%TO.N,/+5V_HTR*%
X56296102Y-15703898D03*
%TO.N,/GND*%
X52704000Y-15703898D03*
%TD*%
D10*
%TO.N,/+5V_HTR*%
%TO.C,S1*%
X52704000Y-8696000D03*
D11*
%TO.N,/CH4_RL*%
X56296102Y-8696000D03*
%TO.N,/+5V_HTR*%
X56296102Y-5103898D03*
%TO.N,/GND*%
X52704000Y-5103898D03*
%TD*%
D12*
%TO.N,/GND*%
%TO.C,J1*%
X26680000Y-26170000D03*
D13*
X26680000Y-30350000D03*
D12*
X35320000Y-26170000D03*
D13*
X35320000Y-30350000D03*
%TD*%
D14*
%TO.N,/GND*%
X9120000Y-24359999D03*
D15*
X13175000Y-9325000D03*
D14*
X6580000Y-24359999D03*
X34000000Y-7225000D03*
X34519999Y-16739999D03*
X37059999Y-1500000D03*
D15*
X11525000Y-7675000D03*
D14*
X54839999Y-1500000D03*
X57379999Y-1500000D03*
X37850000Y-12600000D03*
X49759999Y-11660000D03*
D15*
X13175000Y-7675000D03*
D14*
X52299999Y-1500000D03*
X39599999Y-1500000D03*
X37059999Y-29439999D03*
X6200000Y-32200000D03*
X45000000Y-11000000D03*
D15*
X40900000Y-23900000D03*
D14*
X25200000Y-10500000D03*
X11660000Y-24359999D03*
X11660000Y-26899999D03*
D15*
X40100000Y-23100000D03*
D14*
X49759999Y-1500000D03*
X41788000Y-6500000D03*
X49759999Y-24359999D03*
X28800000Y-21200000D03*
X44679999Y-4040000D03*
X20700000Y-15500000D03*
X44679999Y-26899999D03*
X45497404Y-15410976D03*
X42139999Y-4040000D03*
X37059999Y-4040000D03*
X31979999Y-16739999D03*
X10600000Y-26500000D03*
X26899999Y-4040000D03*
D15*
X11525000Y-9325000D03*
D14*
%TO.N,/VBUS*%
X28589200Y-24077100D03*
X41627900Y-21232100D03*
X39254800Y-31891700D03*
X32793500Y-24034500D03*
%TO.N,/USB_DP*%
X20902500Y-10928600D03*
X28379100Y-21903400D03*
%TO.N,/USB_DN*%
X31389500Y-23849300D03*
X33276900Y-20608900D03*
X20276300Y-9506600D03*
%TO.N,/BQ_TS*%
X37020100Y-23533100D03*
X38333900Y-25809700D03*
%TO.N,/VBAT*%
X41925500Y-24929600D03*
X39105000Y-17740400D03*
X37493800Y-24129200D03*
X43339300Y-29883200D03*
%TO.N,/BQ_EN1*%
X39858000Y-25836800D03*
X43051400Y-31645100D03*
%TO.N,/PGOOD_N*%
X37006400Y-27365600D03*
X15130500Y-17213800D03*
X37704400Y-17813700D03*
%TO.N,/CHG_N*%
X42836800Y-24250000D03*
X34910000Y-19800300D03*
%TO.N,/VSYS*%
X42857600Y-23224400D03*
X37986400Y-20061400D03*
X43900000Y-6100000D03*
X41093900Y-15725000D03*
X39981300Y-19501200D03*
X36300000Y-6100000D03*
%TO.N,/BQ_ILIM*%
X42284100Y-21801600D03*
X38431700Y-29024900D03*
%TO.N,/BQ_ISET*%
X39168700Y-22062500D03*
X38090000Y-30595200D03*
%TO.N,/+3V3*%
X47944900Y-18076100D03*
X28253200Y-10500000D03*
X43687900Y-18592700D03*
X45328200Y-12114200D03*
X10520000Y-20500000D03*
X16800000Y-26600000D03*
D15*
X23255000Y-9654300D03*
D14*
%TO.N,/PWR_EN*%
X25567500Y-13805000D03*
X27535400Y-5808600D03*
%TO.N,/HTR_EN*%
X33876700Y-11510000D03*
X42522600Y-7082700D03*
X17935400Y-14145800D03*
%TO.N,/+5V_HTR*%
X44990000Y-5000000D03*
X42050000Y-12300000D03*
X45608700Y-24618700D03*
%TO.N,/BOOT*%
X8927300Y-14644700D03*
X19269500Y-25105200D03*
%TO.N,/CH4_FB*%
X42040000Y-1352700D03*
X12994200Y-16363600D03*
X23272800Y-13861500D03*
%TO.N,/LPG_FB*%
X18431300Y-13395300D03*
X48097500Y-1392500D03*
X20534900Y-13395300D03*
%TO.N,/I2C_SDA*%
X15750000Y-16700000D03*
X43629900Y-13788000D03*
X42367300Y-18977700D03*
X6400000Y-27600000D03*
%TO.N,/I2C_SCL*%
X43746900Y-12979100D03*
X46849000Y-20381100D03*
X16600000Y-17900000D03*
X7200000Y-31600000D03*
%TO.N,/ADS_RDY*%
X18119800Y-16363400D03*
X40455300Y-16149700D03*
%TO.N,/LED_DIN*%
X17982700Y-2355100D03*
X21654000Y-8378900D03*
%TO.N,/TXD0*%
X21325500Y-13112000D03*
X14427700Y-2359900D03*
%TO.N,/RXD0*%
X10674100Y-2352600D03*
X25552300Y-13026700D03*
%TO.N,/ESP_EN*%
X12788400Y-17347900D03*
X21580600Y-9407900D03*
X6400000Y-2370900D03*
%TO.N,/CH4_RL*%
X45211300Y-10221300D03*
%TO.N,/LPG_RL*%
X49083500Y-13810000D03*
%TO.N,/HTR_SENSE*%
X44812200Y-22255700D03*
X46426600Y-12120100D03*
%TD*%
%TA.AperFunction,Conductor*%
%TO.N,/GND*%
G36*
X58003523Y-300751D02*
G01*
X58234806Y-317293D01*
X58248787Y-319304D01*
X58471881Y-367836D01*
X58485433Y-371815D01*
X58622649Y-422992D01*
X58699366Y-451606D01*
X58712205Y-457469D01*
X58912607Y-566898D01*
X58924486Y-574532D01*
X59107263Y-711357D01*
X59117939Y-720607D01*
X59279392Y-882060D01*
X59288642Y-892736D01*
X59425467Y-1075513D01*
X59433103Y-1087395D01*
X59542526Y-1287786D01*
X59548394Y-1300636D01*
X59628184Y-1514566D01*
X59632163Y-1528118D01*
X59680695Y-1751212D01*
X59682706Y-1765193D01*
X59699248Y-1996475D01*
X59699500Y-2003538D01*
X59699500Y-30996461D01*
X59699248Y-31003524D01*
X59682706Y-31234806D01*
X59680695Y-31248787D01*
X59632163Y-31471881D01*
X59628184Y-31485433D01*
X59548394Y-31699363D01*
X59542526Y-31712213D01*
X59433103Y-31912604D01*
X59425467Y-31924486D01*
X59288642Y-32107263D01*
X59279392Y-32117939D01*
X59117939Y-32279392D01*
X59107263Y-32288642D01*
X58924486Y-32425467D01*
X58912604Y-32433103D01*
X58712213Y-32542526D01*
X58699363Y-32548394D01*
X58485433Y-32628184D01*
X58471881Y-32632163D01*
X58248787Y-32680695D01*
X58234806Y-32682706D01*
X58031124Y-32697274D01*
X58003522Y-32699248D01*
X57996462Y-32699500D01*
X2003538Y-32699500D01*
X1996477Y-32699248D01*
X1966467Y-32697101D01*
X1765193Y-32682706D01*
X1751212Y-32680695D01*
X1528118Y-32632163D01*
X1514566Y-32628184D01*
X1300636Y-32548394D01*
X1287786Y-32542526D01*
X1087395Y-32433103D01*
X1075513Y-32425467D01*
X892736Y-32288642D01*
X882060Y-32279392D01*
X720607Y-32117939D01*
X711357Y-32107263D01*
X709053Y-32104185D01*
X574530Y-31924483D01*
X566896Y-31912604D01*
X566722Y-31912285D01*
X457469Y-31712205D01*
X451605Y-31699363D01*
X444090Y-31679215D01*
X387514Y-31527525D01*
X6649500Y-31527525D01*
X6649500Y-31672475D01*
X6661585Y-31717575D01*
X6687017Y-31812489D01*
X6759487Y-31938010D01*
X6759489Y-31938012D01*
X6759491Y-31938015D01*
X6861985Y-32040509D01*
X6861987Y-32040510D01*
X6861989Y-32040512D01*
X6987511Y-32112982D01*
X6987512Y-32112982D01*
X6987515Y-32112984D01*
X7127525Y-32150500D01*
X7127526Y-32150500D01*
X7272474Y-32150500D01*
X7272475Y-32150500D01*
X7412485Y-32112984D01*
X7412487Y-32112982D01*
X7412489Y-32112982D01*
X7538010Y-32040512D01*
X7538010Y-32040511D01*
X7538015Y-32040509D01*
X7640509Y-31938015D01*
X7686943Y-31857589D01*
X7709093Y-31819225D01*
X38704300Y-31819225D01*
X38704300Y-31964174D01*
X38741817Y-32104189D01*
X38814287Y-32229710D01*
X38814289Y-32229712D01*
X38814291Y-32229715D01*
X38916785Y-32332209D01*
X38916787Y-32332210D01*
X38916789Y-32332212D01*
X39042311Y-32404682D01*
X39042312Y-32404682D01*
X39042315Y-32404684D01*
X39182325Y-32442200D01*
X39182326Y-32442200D01*
X39327274Y-32442200D01*
X39327275Y-32442200D01*
X39467285Y-32404684D01*
X39467287Y-32404682D01*
X39467289Y-32404682D01*
X39592810Y-32332212D01*
X39592810Y-32332211D01*
X39592815Y-32332209D01*
X39695309Y-32229715D01*
X39695312Y-32229710D01*
X39767782Y-32104189D01*
X39767782Y-32104187D01*
X39767784Y-32104185D01*
X39805300Y-31964175D01*
X39805300Y-31819225D01*
X39767784Y-31679215D01*
X39767782Y-31679212D01*
X39767782Y-31679210D01*
X39731078Y-31615639D01*
X39706244Y-31572625D01*
X42500900Y-31572625D01*
X42500900Y-31717574D01*
X42538417Y-31857589D01*
X42610887Y-31983110D01*
X42610889Y-31983112D01*
X42610891Y-31983115D01*
X42713385Y-32085609D01*
X42713387Y-32085610D01*
X42713389Y-32085612D01*
X42838911Y-32158082D01*
X42838912Y-32158082D01*
X42838915Y-32158084D01*
X42978925Y-32195600D01*
X42978926Y-32195600D01*
X43123874Y-32195600D01*
X43123875Y-32195600D01*
X43263885Y-32158084D01*
X43263887Y-32158082D01*
X43263889Y-32158082D01*
X43389410Y-32085612D01*
X43389410Y-32085611D01*
X43389415Y-32085609D01*
X43491909Y-31983115D01*
X43517948Y-31938015D01*
X43564382Y-31857589D01*
X43564382Y-31857587D01*
X43564384Y-31857585D01*
X43601900Y-31717575D01*
X43601900Y-31572625D01*
X43564384Y-31432615D01*
X43564382Y-31432612D01*
X43564382Y-31432610D01*
X43491912Y-31307089D01*
X43491910Y-31307087D01*
X43491909Y-31307085D01*
X43389415Y-31204591D01*
X43389412Y-31204589D01*
X43389410Y-31204587D01*
X43263888Y-31132117D01*
X43263889Y-31132117D01*
X43234296Y-31124187D01*
X43123875Y-31094600D01*
X42978925Y-31094600D01*
X42917190Y-31111141D01*
X42838910Y-31132117D01*
X42713389Y-31204587D01*
X42610887Y-31307089D01*
X42538417Y-31432610D01*
X42500900Y-31572625D01*
X39706244Y-31572625D01*
X39695309Y-31553685D01*
X39592815Y-31451191D01*
X39592812Y-31451189D01*
X39592810Y-31451187D01*
X39467288Y-31378717D01*
X39467289Y-31378717D01*
X39437696Y-31370787D01*
X39327275Y-31341200D01*
X39182325Y-31341200D01*
X39120590Y-31357741D01*
X39042310Y-31378717D01*
X38916789Y-31451187D01*
X38814287Y-31553689D01*
X38741817Y-31679210D01*
X38704300Y-31819225D01*
X7709093Y-31819225D01*
X7712982Y-31812489D01*
X7712982Y-31812487D01*
X7712984Y-31812485D01*
X7750500Y-31672475D01*
X7750500Y-31527525D01*
X7712984Y-31387515D01*
X7712982Y-31387512D01*
X7712982Y-31387510D01*
X7640512Y-31261989D01*
X7640510Y-31261987D01*
X7640509Y-31261985D01*
X7538015Y-31159491D01*
X7538012Y-31159489D01*
X7538010Y-31159487D01*
X7412488Y-31087017D01*
X7412489Y-31087017D01*
X7382896Y-31079087D01*
X7272475Y-31049500D01*
X7127525Y-31049500D01*
X7065790Y-31066041D01*
X6987510Y-31087017D01*
X6861989Y-31159487D01*
X6759487Y-31261989D01*
X6687017Y-31387510D01*
X6674931Y-31432615D01*
X6649500Y-31527525D01*
X387514Y-31527525D01*
X371815Y-31485433D01*
X367836Y-31471882D01*
X359293Y-31432610D01*
X334805Y-31320043D01*
X340910Y-31259165D01*
X381634Y-31213500D01*
X431542Y-31200000D01*
X4549999Y-31200000D01*
X4550000Y-31200000D01*
X4550000Y-29971204D01*
X25880000Y-29971204D01*
X25880000Y-30174999D01*
X25880001Y-30175000D01*
X26380000Y-30175000D01*
X26380000Y-30525000D01*
X25880001Y-30525000D01*
X25880000Y-30525001D01*
X25880000Y-30728795D01*
X25910742Y-30883349D01*
X25971048Y-31028940D01*
X25971052Y-31028949D01*
X26058599Y-31159969D01*
X26058602Y-31159973D01*
X26170026Y-31271397D01*
X26170030Y-31271400D01*
X26301050Y-31358947D01*
X26301059Y-31358951D01*
X26446646Y-31419255D01*
X26446653Y-31419257D01*
X26505000Y-31430862D01*
X26505000Y-30895374D01*
X26564204Y-30929556D01*
X26640504Y-30950000D01*
X26719496Y-30950000D01*
X26795796Y-30929556D01*
X26855000Y-30895374D01*
X26855000Y-31430861D01*
X26913346Y-31419257D01*
X26913353Y-31419255D01*
X27058940Y-31358951D01*
X27058949Y-31358947D01*
X27189969Y-31271400D01*
X27189973Y-31271397D01*
X27301397Y-31159973D01*
X27301400Y-31159969D01*
X27388947Y-31028949D01*
X27388951Y-31028940D01*
X27449257Y-30883349D01*
X27479999Y-30728795D01*
X27480000Y-30728792D01*
X27480000Y-30525001D01*
X27479999Y-30525000D01*
X26980000Y-30525000D01*
X26980000Y-30175000D01*
X27479999Y-30175000D01*
X27480000Y-30174999D01*
X27480000Y-29971207D01*
X27479999Y-29971204D01*
X34520000Y-29971204D01*
X34520000Y-30174999D01*
X34520001Y-30175000D01*
X35020000Y-30175000D01*
X35020000Y-30525000D01*
X34520001Y-30525000D01*
X34520000Y-30525001D01*
X34520000Y-30728795D01*
X34550742Y-30883349D01*
X34611048Y-31028940D01*
X34611052Y-31028949D01*
X34698599Y-31159969D01*
X34698602Y-31159973D01*
X34810026Y-31271397D01*
X34810030Y-31271400D01*
X34941050Y-31358947D01*
X34941059Y-31358951D01*
X35086646Y-31419255D01*
X35086653Y-31419257D01*
X35145000Y-31430862D01*
X35145000Y-30895374D01*
X35204204Y-30929556D01*
X35280504Y-30950000D01*
X35359496Y-30950000D01*
X35435796Y-30929556D01*
X35495000Y-30895374D01*
X35495000Y-31430861D01*
X35553346Y-31419257D01*
X35553353Y-31419255D01*
X35698940Y-31358951D01*
X35698949Y-31358947D01*
X35829969Y-31271400D01*
X35829973Y-31271397D01*
X35941397Y-31159973D01*
X35941400Y-31159969D01*
X36028947Y-31028949D01*
X36028951Y-31028940D01*
X36089257Y-30883349D01*
X36119999Y-30728795D01*
X36120000Y-30728792D01*
X36120000Y-30525001D01*
X36119999Y-30525000D01*
X35620000Y-30525000D01*
X35620000Y-30522725D01*
X37539500Y-30522725D01*
X37539500Y-30667675D01*
X37555877Y-30728795D01*
X37577017Y-30807689D01*
X37649487Y-30933210D01*
X37649489Y-30933212D01*
X37649491Y-30933215D01*
X37751985Y-31035709D01*
X37751987Y-31035710D01*
X37751989Y-31035712D01*
X37877511Y-31108182D01*
X37877512Y-31108182D01*
X37877515Y-31108184D01*
X38017525Y-31145700D01*
X38017526Y-31145700D01*
X38162474Y-31145700D01*
X38162475Y-31145700D01*
X38302485Y-31108184D01*
X38302487Y-31108182D01*
X38302489Y-31108182D01*
X38428010Y-31035712D01*
X38428010Y-31035711D01*
X38428015Y-31035709D01*
X38530509Y-30933215D01*
X38602984Y-30807685D01*
X38632470Y-30697644D01*
X45399500Y-30697644D01*
X45399500Y-30902355D01*
X45431521Y-31104529D01*
X45494780Y-31299219D01*
X45587712Y-31481609D01*
X45587714Y-31481613D01*
X45708029Y-31647213D01*
X45708031Y-31647215D01*
X45708034Y-31647219D01*
X45852781Y-31791966D01*
X45852784Y-31791968D01*
X45852786Y-31791970D01*
X46018386Y-31912285D01*
X46018390Y-31912287D01*
X46200781Y-32005220D01*
X46395466Y-32068477D01*
X46395467Y-32068477D01*
X46395470Y-32068478D01*
X46597645Y-32100500D01*
X46597648Y-32100500D01*
X46802355Y-32100500D01*
X47004529Y-32068478D01*
X47004530Y-32068477D01*
X47004534Y-32068477D01*
X47199219Y-32005220D01*
X47381610Y-31912287D01*
X47547219Y-31791966D01*
X47691966Y-31647219D01*
X47778928Y-31527525D01*
X47812285Y-31481613D01*
X47812287Y-31481610D01*
X47905220Y-31299219D01*
X47968477Y-31104534D01*
X47968478Y-31104529D01*
X48000500Y-30902355D01*
X48000500Y-30697644D01*
X47968478Y-30495470D01*
X47936218Y-30396184D01*
X47905220Y-30300781D01*
X47812287Y-30118390D01*
X47812285Y-30118386D01*
X47691970Y-29952786D01*
X47691968Y-29952784D01*
X47691966Y-29952781D01*
X47547219Y-29808034D01*
X47547215Y-29808031D01*
X47547213Y-29808029D01*
X47381613Y-29687714D01*
X47381609Y-29687712D01*
X47199219Y-29594780D01*
X47004529Y-29531521D01*
X46802355Y-29499500D01*
X46802352Y-29499500D01*
X46597648Y-29499500D01*
X46597645Y-29499500D01*
X46395470Y-29531521D01*
X46200780Y-29594780D01*
X46018390Y-29687712D01*
X46018386Y-29687714D01*
X45852786Y-29808029D01*
X45708029Y-29952786D01*
X45587714Y-30118386D01*
X45587712Y-30118390D01*
X45494780Y-30300780D01*
X45431521Y-30495470D01*
X45399500Y-30697644D01*
X38632470Y-30697644D01*
X38640500Y-30667675D01*
X38640500Y-30522725D01*
X38602984Y-30382715D01*
X38602982Y-30382712D01*
X38602982Y-30382710D01*
X38530512Y-30257189D01*
X38530510Y-30257187D01*
X38530509Y-30257185D01*
X38428015Y-30154691D01*
X38428012Y-30154689D01*
X38428010Y-30154687D01*
X38302488Y-30082217D01*
X38302489Y-30082217D01*
X38272896Y-30074287D01*
X38162475Y-30044700D01*
X38017525Y-30044700D01*
X37955790Y-30061241D01*
X37877510Y-30082217D01*
X37751989Y-30154687D01*
X37649487Y-30257189D01*
X37577017Y-30382710D01*
X37577016Y-30382715D01*
X37539500Y-30522725D01*
X35620000Y-30522725D01*
X35620000Y-30175000D01*
X36119999Y-30175000D01*
X36120000Y-30174999D01*
X36120000Y-29971207D01*
X36119999Y-29971204D01*
X36090629Y-29823550D01*
X36090629Y-29823549D01*
X36090628Y-29823546D01*
X36089256Y-29816648D01*
X36086803Y-29810725D01*
X42788800Y-29810725D01*
X42788800Y-29955675D01*
X42818387Y-30066096D01*
X42826317Y-30095689D01*
X42898787Y-30221210D01*
X42898789Y-30221212D01*
X42898791Y-30221215D01*
X43001285Y-30323709D01*
X43001287Y-30323710D01*
X43001289Y-30323712D01*
X43126811Y-30396182D01*
X43126812Y-30396182D01*
X43126815Y-30396184D01*
X43266825Y-30433700D01*
X43266826Y-30433700D01*
X43411774Y-30433700D01*
X43411775Y-30433700D01*
X43551785Y-30396184D01*
X43551787Y-30396182D01*
X43551789Y-30396182D01*
X43677310Y-30323712D01*
X43677310Y-30323711D01*
X43677315Y-30323709D01*
X43779809Y-30221215D01*
X43779812Y-30221210D01*
X43852282Y-30095689D01*
X43852282Y-30095687D01*
X43852284Y-30095685D01*
X43889800Y-29955675D01*
X43889800Y-29810725D01*
X43852284Y-29670715D01*
X43852282Y-29670712D01*
X43852282Y-29670710D01*
X43779812Y-29545189D01*
X43779810Y-29545187D01*
X43779809Y-29545185D01*
X43677315Y-29442691D01*
X43677312Y-29442689D01*
X43677310Y-29442687D01*
X43551788Y-29370217D01*
X43551789Y-29370217D01*
X43522196Y-29362287D01*
X43411775Y-29332700D01*
X43266825Y-29332700D01*
X43205090Y-29349241D01*
X43126810Y-29370217D01*
X43001289Y-29442687D01*
X42898787Y-29545189D01*
X42826317Y-29670710D01*
X42821761Y-29687713D01*
X42788800Y-29810725D01*
X36086803Y-29810725D01*
X36028951Y-29671059D01*
X36028947Y-29671050D01*
X35941400Y-29540030D01*
X35941397Y-29540026D01*
X35829973Y-29428602D01*
X35829969Y-29428599D01*
X35698949Y-29341052D01*
X35698940Y-29341048D01*
X35553354Y-29280744D01*
X35553348Y-29280742D01*
X35495000Y-29269136D01*
X35495000Y-29804625D01*
X35435796Y-29770444D01*
X35359496Y-29750000D01*
X35280504Y-29750000D01*
X35204204Y-29770444D01*
X35145000Y-29804625D01*
X35145000Y-29269136D01*
X35086651Y-29280742D01*
X35086645Y-29280744D01*
X34941059Y-29341048D01*
X34941050Y-29341052D01*
X34810030Y-29428599D01*
X34810026Y-29428602D01*
X34698602Y-29540026D01*
X34698599Y-29540030D01*
X34611052Y-29671050D01*
X34611048Y-29671059D01*
X34550742Y-29816650D01*
X34520000Y-29971204D01*
X27479999Y-29971204D01*
X27449257Y-29816650D01*
X27388951Y-29671059D01*
X27388947Y-29671050D01*
X27301400Y-29540030D01*
X27301397Y-29540026D01*
X27189973Y-29428602D01*
X27189969Y-29428599D01*
X27058949Y-29341052D01*
X27058940Y-29341048D01*
X26913354Y-29280744D01*
X26913348Y-29280742D01*
X26855000Y-29269136D01*
X26855000Y-29804625D01*
X26795796Y-29770444D01*
X26719496Y-29750000D01*
X26640504Y-29750000D01*
X26564204Y-29770444D01*
X26505000Y-29804625D01*
X26505000Y-29269136D01*
X26446651Y-29280742D01*
X26446645Y-29280744D01*
X26301059Y-29341048D01*
X26301050Y-29341052D01*
X26170030Y-29428599D01*
X26170026Y-29428602D01*
X26058602Y-29540026D01*
X26058599Y-29540030D01*
X25971052Y-29671050D01*
X25971048Y-29671059D01*
X25910742Y-29816650D01*
X25880000Y-29971204D01*
X4550000Y-29971204D01*
X4550000Y-29300000D01*
X7200000Y-29300000D01*
X7200001Y-29300000D01*
X9799999Y-29300000D01*
X9800000Y-29300000D01*
X9800000Y-26700000D01*
X7200000Y-26700000D01*
X7200000Y-29300000D01*
X4550000Y-29300000D01*
X4550000Y-27527525D01*
X5849500Y-27527525D01*
X5849500Y-27672474D01*
X5887017Y-27812489D01*
X5959487Y-27938010D01*
X5959489Y-27938012D01*
X5959491Y-27938015D01*
X6061985Y-28040509D01*
X6061987Y-28040510D01*
X6061989Y-28040512D01*
X6187511Y-28112982D01*
X6187512Y-28112982D01*
X6187515Y-28112984D01*
X6327525Y-28150500D01*
X6327526Y-28150500D01*
X6472474Y-28150500D01*
X6472475Y-28150500D01*
X6612485Y-28112984D01*
X6612487Y-28112982D01*
X6612489Y-28112982D01*
X6738010Y-28040512D01*
X6738010Y-28040511D01*
X6738015Y-28040509D01*
X6840509Y-27938015D01*
X6912984Y-27812485D01*
X6950500Y-27672475D01*
X6950500Y-27527525D01*
X6912984Y-27387515D01*
X6912982Y-27387512D01*
X6912982Y-27387510D01*
X6840512Y-27261989D01*
X6840510Y-27261987D01*
X6840509Y-27261985D01*
X6738015Y-27159491D01*
X6738012Y-27159489D01*
X6738010Y-27159487D01*
X6612488Y-27087017D01*
X6612489Y-27087017D01*
X6582896Y-27079087D01*
X6472475Y-27049500D01*
X6327525Y-27049500D01*
X6265790Y-27066041D01*
X6187510Y-27087017D01*
X6061989Y-27159487D01*
X5959487Y-27261989D01*
X5887017Y-27387510D01*
X5849500Y-27527525D01*
X4550000Y-27527525D01*
X4550000Y-23399500D01*
X4568907Y-23341309D01*
X4618407Y-23305345D01*
X4649000Y-23300500D01*
X14600500Y-23300500D01*
X14658691Y-23319407D01*
X14694655Y-23368907D01*
X14699500Y-23399500D01*
X14699500Y-29039564D01*
X14719978Y-29115988D01*
X14719980Y-29115992D01*
X14759538Y-29184508D01*
X14759540Y-29184511D01*
X14815489Y-29240460D01*
X14815491Y-29240461D01*
X14884007Y-29280019D01*
X14884011Y-29280021D01*
X14960435Y-29300499D01*
X14960437Y-29300500D01*
X14960438Y-29300500D01*
X16039563Y-29300500D01*
X16039563Y-29300499D01*
X16115989Y-29280021D01*
X16184511Y-29240460D01*
X16240460Y-29184511D01*
X16280021Y-29115989D01*
X16300500Y-29039562D01*
X16300500Y-28952425D01*
X37881200Y-28952425D01*
X37881200Y-29097375D01*
X37904548Y-29184511D01*
X37918717Y-29237389D01*
X37991187Y-29362910D01*
X37991189Y-29362912D01*
X37991191Y-29362915D01*
X38093685Y-29465409D01*
X38093687Y-29465410D01*
X38093689Y-29465412D01*
X38219211Y-29537882D01*
X38219212Y-29537882D01*
X38219215Y-29537884D01*
X38359225Y-29575400D01*
X38359226Y-29575400D01*
X38504174Y-29575400D01*
X38504175Y-29575400D01*
X38644185Y-29537884D01*
X38644187Y-29537882D01*
X38644189Y-29537882D01*
X38769710Y-29465412D01*
X38769710Y-29465411D01*
X38769715Y-29465409D01*
X38872209Y-29362915D01*
X38889654Y-29332700D01*
X38944682Y-29237389D01*
X38944682Y-29237387D01*
X38944684Y-29237385D01*
X38982200Y-29097375D01*
X38982200Y-28952425D01*
X38944684Y-28812415D01*
X38944682Y-28812412D01*
X38944682Y-28812410D01*
X38872212Y-28686889D01*
X38872210Y-28686887D01*
X38872209Y-28686885D01*
X38769715Y-28584391D01*
X38769712Y-28584389D01*
X38769710Y-28584387D01*
X38644188Y-28511917D01*
X38644189Y-28511917D01*
X38614596Y-28503987D01*
X38504175Y-28474400D01*
X38359225Y-28474400D01*
X38297490Y-28490941D01*
X38219210Y-28511917D01*
X38093689Y-28584387D01*
X37991187Y-28686889D01*
X37918717Y-28812410D01*
X37918716Y-28812415D01*
X37881200Y-28952425D01*
X16300500Y-28952425D01*
X16300500Y-27117349D01*
X16319407Y-27059158D01*
X16368907Y-27023194D01*
X16430093Y-27023194D01*
X16459772Y-27038810D01*
X16461992Y-27040514D01*
X16587511Y-27112982D01*
X16587512Y-27112982D01*
X16587515Y-27112984D01*
X16727525Y-27150500D01*
X16727526Y-27150500D01*
X16872474Y-27150500D01*
X16872475Y-27150500D01*
X17012485Y-27112984D01*
X17012487Y-27112982D01*
X17012489Y-27112982D01*
X17138010Y-27040512D01*
X17138010Y-27040511D01*
X17138015Y-27040509D01*
X17240509Y-26938015D01*
X17260820Y-26902835D01*
X17312982Y-26812489D01*
X17312982Y-26812487D01*
X17312984Y-26812485D01*
X17350500Y-26672475D01*
X17350500Y-26527525D01*
X17312984Y-26387515D01*
X17312982Y-26387512D01*
X17312982Y-26387510D01*
X17293342Y-26353493D01*
X17240512Y-26261989D01*
X17240510Y-26261987D01*
X17240509Y-26261985D01*
X17138015Y-26159491D01*
X17138012Y-26159489D01*
X17138010Y-26159487D01*
X17012488Y-26087017D01*
X17012489Y-26087017D01*
X16982896Y-26079087D01*
X16872475Y-26049500D01*
X16727525Y-26049500D01*
X16665790Y-26066041D01*
X16587510Y-26087017D01*
X16461986Y-26159489D01*
X16459765Y-26161194D01*
X16457874Y-26161863D01*
X16456365Y-26162735D01*
X16456203Y-26162455D01*
X16402088Y-26181616D01*
X16343423Y-26164237D01*
X16306177Y-26115694D01*
X16300500Y-26082650D01*
X16300500Y-25032725D01*
X18719000Y-25032725D01*
X18719000Y-25177675D01*
X18735984Y-25241059D01*
X18756517Y-25317689D01*
X18828987Y-25443210D01*
X18828989Y-25443212D01*
X18828991Y-25443215D01*
X18931485Y-25545709D01*
X18931487Y-25545710D01*
X18931489Y-25545712D01*
X19057011Y-25618182D01*
X19057012Y-25618182D01*
X19057015Y-25618184D01*
X19197025Y-25655700D01*
X19197026Y-25655700D01*
X19341974Y-25655700D01*
X19341975Y-25655700D01*
X19481985Y-25618184D01*
X19481987Y-25618182D01*
X19481989Y-25618182D01*
X19607510Y-25545712D01*
X19607510Y-25545711D01*
X19607515Y-25545709D01*
X19612020Y-25541204D01*
X25880000Y-25541204D01*
X25880000Y-25994999D01*
X25880001Y-25995000D01*
X26380000Y-25995000D01*
X26380000Y-26345000D01*
X25880001Y-26345000D01*
X25880000Y-26345001D01*
X25880000Y-26798795D01*
X25910742Y-26953349D01*
X25971048Y-27098940D01*
X25971052Y-27098949D01*
X26058599Y-27229969D01*
X26058602Y-27229973D01*
X26170026Y-27341397D01*
X26170030Y-27341400D01*
X26301050Y-27428947D01*
X26301059Y-27428951D01*
X26446646Y-27489255D01*
X26446653Y-27489257D01*
X26505000Y-27500862D01*
X26505000Y-26965374D01*
X26564204Y-26999556D01*
X26640504Y-27020000D01*
X26719496Y-27020000D01*
X26795796Y-26999556D01*
X26855000Y-26965374D01*
X26855000Y-27500861D01*
X26913346Y-27489257D01*
X26913353Y-27489255D01*
X27058940Y-27428951D01*
X27058949Y-27428947D01*
X27189969Y-27341400D01*
X27189973Y-27341397D01*
X27301397Y-27229973D01*
X27301400Y-27229969D01*
X27388947Y-27098949D01*
X27388951Y-27098940D01*
X27449257Y-26953348D01*
X27450670Y-26948693D01*
X27451708Y-26949008D01*
X27479142Y-26900022D01*
X27534706Y-26874405D01*
X27594716Y-26886341D01*
X27632078Y-26923216D01*
X27689495Y-27022665D01*
X27787335Y-27120505D01*
X27907164Y-27189688D01*
X28040817Y-27225500D01*
X28040819Y-27225500D01*
X28179181Y-27225500D01*
X28179183Y-27225500D01*
X28312836Y-27189688D01*
X28432665Y-27120505D01*
X28530505Y-27022665D01*
X28599688Y-26902836D01*
X28635500Y-26769183D01*
X28635500Y-26630817D01*
X33364500Y-26630817D01*
X33364500Y-26769183D01*
X33400312Y-26902836D01*
X33469495Y-27022665D01*
X33567335Y-27120505D01*
X33687164Y-27189688D01*
X33820817Y-27225500D01*
X33820819Y-27225500D01*
X33959181Y-27225500D01*
X33959183Y-27225500D01*
X34092836Y-27189688D01*
X34212665Y-27120505D01*
X34310505Y-27022665D01*
X34367920Y-26923217D01*
X34413387Y-26882278D01*
X34474237Y-26875882D01*
X34527226Y-26906474D01*
X34548518Y-26948939D01*
X34549330Y-26948693D01*
X34550742Y-26953348D01*
X34611048Y-27098940D01*
X34611052Y-27098949D01*
X34698599Y-27229969D01*
X34698602Y-27229973D01*
X34810026Y-27341397D01*
X34810030Y-27341400D01*
X34941050Y-27428947D01*
X34941059Y-27428951D01*
X35086646Y-27489255D01*
X35086653Y-27489257D01*
X35145000Y-27500862D01*
X35145000Y-26965374D01*
X35204204Y-26999556D01*
X35280504Y-27020000D01*
X35359496Y-27020000D01*
X35435796Y-26999556D01*
X35495000Y-26965374D01*
X35495000Y-27500861D01*
X35553346Y-27489257D01*
X35553353Y-27489255D01*
X35698940Y-27428951D01*
X35698949Y-27428947D01*
X35829969Y-27341400D01*
X35829973Y-27341397D01*
X35878245Y-27293125D01*
X36455900Y-27293125D01*
X36455900Y-27438074D01*
X36493417Y-27578089D01*
X36565887Y-27703610D01*
X36565889Y-27703612D01*
X36565891Y-27703615D01*
X36668385Y-27806109D01*
X36668387Y-27806110D01*
X36668389Y-27806112D01*
X36793911Y-27878582D01*
X36793912Y-27878582D01*
X36793915Y-27878584D01*
X36933925Y-27916100D01*
X36933926Y-27916100D01*
X37078874Y-27916100D01*
X37078875Y-27916100D01*
X37218885Y-27878584D01*
X37218887Y-27878582D01*
X37218889Y-27878582D01*
X37344410Y-27806112D01*
X37344410Y-27806111D01*
X37344415Y-27806109D01*
X37446909Y-27703615D01*
X37519384Y-27578085D01*
X37556900Y-27438075D01*
X37556900Y-27293125D01*
X37519384Y-27153115D01*
X37519382Y-27153112D01*
X37519382Y-27153110D01*
X37446912Y-27027589D01*
X37446910Y-27027587D01*
X37446909Y-27027585D01*
X37344415Y-26925091D01*
X37344412Y-26925089D01*
X37344410Y-26925087D01*
X37218888Y-26852617D01*
X37218889Y-26852617D01*
X37156273Y-26835839D01*
X37078875Y-26815100D01*
X36933925Y-26815100D01*
X36872190Y-26831641D01*
X36793910Y-26852617D01*
X36668389Y-26925087D01*
X36565887Y-27027589D01*
X36493417Y-27153110D01*
X36455900Y-27293125D01*
X35878245Y-27293125D01*
X35941397Y-27229973D01*
X35941402Y-27229966D01*
X36028947Y-27098949D01*
X36028951Y-27098940D01*
X36089257Y-26953349D01*
X36119999Y-26798795D01*
X36120000Y-26798792D01*
X36120000Y-26345001D01*
X36119999Y-26345000D01*
X35620000Y-26345000D01*
X35620000Y-25995000D01*
X36119999Y-25995000D01*
X36120000Y-25994999D01*
X36120000Y-25737225D01*
X37783400Y-25737225D01*
X37783400Y-25882174D01*
X37820917Y-26022189D01*
X37893387Y-26147710D01*
X37893389Y-26147712D01*
X37893391Y-26147715D01*
X37995885Y-26250209D01*
X37995887Y-26250210D01*
X37995889Y-26250212D01*
X38121411Y-26322682D01*
X38121412Y-26322682D01*
X38121415Y-26322684D01*
X38261425Y-26360200D01*
X38261426Y-26360200D01*
X38406374Y-26360200D01*
X38406375Y-26360200D01*
X38546385Y-26322684D01*
X38546387Y-26322682D01*
X38546389Y-26322682D01*
X38671910Y-26250212D01*
X38671910Y-26250211D01*
X38671915Y-26250209D01*
X38774409Y-26147715D01*
X38774412Y-26147710D01*
X38846882Y-26022189D01*
X38846882Y-26022187D01*
X38846884Y-26022185D01*
X38884400Y-25882175D01*
X38884400Y-25764325D01*
X39307500Y-25764325D01*
X39307500Y-25909274D01*
X39345017Y-26049289D01*
X39417487Y-26174810D01*
X39417489Y-26174812D01*
X39417491Y-26174815D01*
X39519985Y-26277309D01*
X39519987Y-26277310D01*
X39519989Y-26277312D01*
X39645511Y-26349782D01*
X39645512Y-26349782D01*
X39645515Y-26349784D01*
X39785525Y-26387300D01*
X39785526Y-26387300D01*
X39930474Y-26387300D01*
X39930475Y-26387300D01*
X40070485Y-26349784D01*
X40070487Y-26349782D01*
X40070489Y-26349782D01*
X40196010Y-26277312D01*
X40196010Y-26277311D01*
X40196015Y-26277309D01*
X40298509Y-26174815D01*
X40304616Y-26164237D01*
X40370982Y-26049289D01*
X40370982Y-26049287D01*
X40370984Y-26049285D01*
X40408500Y-25909275D01*
X40408500Y-25764325D01*
X40370984Y-25624315D01*
X40370982Y-25624312D01*
X40370982Y-25624310D01*
X40298512Y-25498789D01*
X40298510Y-25498787D01*
X40298509Y-25498785D01*
X40196015Y-25396291D01*
X40196012Y-25396289D01*
X40196010Y-25396287D01*
X40070488Y-25323817D01*
X40070489Y-25323817D01*
X39969351Y-25296717D01*
X39930475Y-25286300D01*
X39785525Y-25286300D01*
X39746649Y-25296717D01*
X39645510Y-25323817D01*
X39519989Y-25396287D01*
X39417487Y-25498789D01*
X39345017Y-25624310D01*
X39307500Y-25764325D01*
X38884400Y-25764325D01*
X38884400Y-25737225D01*
X38846884Y-25597215D01*
X38846882Y-25597212D01*
X38846882Y-25597210D01*
X38774412Y-25471689D01*
X38774410Y-25471687D01*
X38774409Y-25471685D01*
X38671915Y-25369191D01*
X38671912Y-25369189D01*
X38671910Y-25369187D01*
X38546388Y-25296717D01*
X38546389Y-25296717D01*
X38507512Y-25286300D01*
X38406375Y-25259200D01*
X38261425Y-25259200D01*
X38199690Y-25275741D01*
X38121410Y-25296717D01*
X37995889Y-25369187D01*
X37893387Y-25471689D01*
X37820917Y-25597210D01*
X37783400Y-25737225D01*
X36120000Y-25737225D01*
X36120000Y-25541207D01*
X36119999Y-25541204D01*
X36089257Y-25386650D01*
X36028951Y-25241059D01*
X36028947Y-25241050D01*
X35941400Y-25110030D01*
X35941397Y-25110026D01*
X35829973Y-24998602D01*
X35829969Y-24998599D01*
X35731721Y-24932951D01*
X35698948Y-24911052D01*
X35698940Y-24911048D01*
X35568759Y-24857125D01*
X41375000Y-24857125D01*
X41375000Y-25002074D01*
X41412517Y-25142089D01*
X41484987Y-25267610D01*
X41484989Y-25267612D01*
X41484991Y-25267615D01*
X41587485Y-25370109D01*
X41587487Y-25370110D01*
X41587489Y-25370112D01*
X41713011Y-25442582D01*
X41713012Y-25442582D01*
X41713015Y-25442584D01*
X41853025Y-25480100D01*
X41853026Y-25480100D01*
X41997974Y-25480100D01*
X41997975Y-25480100D01*
X42137985Y-25442584D01*
X42137987Y-25442582D01*
X42137989Y-25442582D01*
X42263510Y-25370112D01*
X42263510Y-25370111D01*
X42263515Y-25370109D01*
X42366009Y-25267615D01*
X42366012Y-25267610D01*
X42438482Y-25142089D01*
X42438482Y-25142087D01*
X42438484Y-25142085D01*
X42476000Y-25002075D01*
X42476000Y-24857125D01*
X42476000Y-24850636D01*
X42478623Y-24850636D01*
X42487734Y-24801449D01*
X42532111Y-24759327D01*
X42592772Y-24751334D01*
X42618224Y-24760723D01*
X42618317Y-24760500D01*
X42624000Y-24762853D01*
X42624247Y-24762945D01*
X42624315Y-24762984D01*
X42764325Y-24800500D01*
X42764326Y-24800500D01*
X42909274Y-24800500D01*
X42909275Y-24800500D01*
X43049285Y-24762984D01*
X43049287Y-24762982D01*
X43049289Y-24762982D01*
X43174810Y-24690512D01*
X43174810Y-24690511D01*
X43174815Y-24690509D01*
X43277309Y-24588015D01*
X43287878Y-24569709D01*
X43301437Y-24546225D01*
X45058200Y-24546225D01*
X45058200Y-24691175D01*
X45076776Y-24760500D01*
X45095717Y-24831189D01*
X45168187Y-24956710D01*
X45168189Y-24956712D01*
X45168191Y-24956715D01*
X45270685Y-25059209D01*
X45270687Y-25059210D01*
X45270689Y-25059212D01*
X45396211Y-25131682D01*
X45396212Y-25131682D01*
X45396215Y-25131684D01*
X45536225Y-25169200D01*
X45536226Y-25169200D01*
X45681174Y-25169200D01*
X45681175Y-25169200D01*
X45821185Y-25131684D01*
X45821187Y-25131682D01*
X45821189Y-25131682D01*
X45946710Y-25059212D01*
X45946710Y-25059211D01*
X45946715Y-25059209D01*
X46049209Y-24956715D01*
X46086160Y-24892715D01*
X46121682Y-24831189D01*
X46121682Y-24831187D01*
X46121684Y-24831185D01*
X46159200Y-24691175D01*
X46159200Y-24546225D01*
X46121684Y-24406215D01*
X46121682Y-24406212D01*
X46121682Y-24406210D01*
X46049212Y-24280689D01*
X46049210Y-24280687D01*
X46049209Y-24280685D01*
X45946715Y-24178191D01*
X45946712Y-24178189D01*
X45946710Y-24178187D01*
X45821188Y-24105717D01*
X45821189Y-24105717D01*
X45785309Y-24096103D01*
X45681175Y-24068200D01*
X45536225Y-24068200D01*
X45474490Y-24084741D01*
X45396210Y-24105717D01*
X45270689Y-24178187D01*
X45168187Y-24280689D01*
X45095717Y-24406210D01*
X45065868Y-24517609D01*
X45058200Y-24546225D01*
X43301437Y-24546225D01*
X43333758Y-24490243D01*
X43333762Y-24490236D01*
X43336730Y-24485094D01*
X43349784Y-24462485D01*
X43387300Y-24322475D01*
X43387300Y-24177525D01*
X43349784Y-24037515D01*
X43349782Y-24037512D01*
X43349782Y-24037510D01*
X43277312Y-23911989D01*
X43277310Y-23911987D01*
X43277309Y-23911985D01*
X43181858Y-23816534D01*
X43154083Y-23762020D01*
X43163654Y-23701588D01*
X43191604Y-23667986D01*
X43195609Y-23664912D01*
X43195615Y-23664909D01*
X43298109Y-23562415D01*
X43370584Y-23436885D01*
X43408100Y-23296875D01*
X43408100Y-23151925D01*
X43370584Y-23011915D01*
X43370582Y-23011912D01*
X43370582Y-23011910D01*
X43298112Y-22886389D01*
X43298110Y-22886387D01*
X43298109Y-22886385D01*
X43195615Y-22783891D01*
X43195612Y-22783889D01*
X43195610Y-22783887D01*
X43070088Y-22711417D01*
X43070089Y-22711417D01*
X43025614Y-22699500D01*
X42930075Y-22673900D01*
X42785125Y-22673900D01*
X42723390Y-22690441D01*
X42645110Y-22711417D01*
X42519589Y-22783887D01*
X42417087Y-22886389D01*
X42344617Y-23011910D01*
X42342418Y-23020117D01*
X42307100Y-23151925D01*
X42307100Y-23296875D01*
X42309370Y-23305345D01*
X42344617Y-23436889D01*
X42417087Y-23562410D01*
X42417089Y-23562412D01*
X42417091Y-23562415D01*
X42512540Y-23657864D01*
X42540316Y-23712379D01*
X42530745Y-23772811D01*
X42502805Y-23806406D01*
X42498789Y-23809487D01*
X42396287Y-23911989D01*
X42323817Y-24037510D01*
X42286300Y-24177525D01*
X42286300Y-24328964D01*
X42283684Y-24328964D01*
X42274545Y-24378188D01*
X42230149Y-24420291D01*
X42169484Y-24428257D01*
X42144074Y-24418878D01*
X42143983Y-24419100D01*
X42138312Y-24416751D01*
X42138054Y-24416656D01*
X42137985Y-24416616D01*
X42099168Y-24406215D01*
X41997975Y-24379100D01*
X41853025Y-24379100D01*
X41791290Y-24395641D01*
X41713010Y-24416617D01*
X41587489Y-24489087D01*
X41484987Y-24591589D01*
X41412517Y-24717110D01*
X41375000Y-24857125D01*
X35568759Y-24857125D01*
X35553354Y-24850744D01*
X35553348Y-24850742D01*
X35495000Y-24839136D01*
X35495000Y-25374625D01*
X35435796Y-25340444D01*
X35359496Y-25320000D01*
X35280504Y-25320000D01*
X35204204Y-25340444D01*
X35145000Y-25374625D01*
X35145000Y-24839136D01*
X35086651Y-24850742D01*
X35086645Y-24850744D01*
X34941059Y-24911048D01*
X34941050Y-24911052D01*
X34810030Y-24998599D01*
X34810026Y-24998602D01*
X34698602Y-25110026D01*
X34698599Y-25110030D01*
X34611052Y-25241050D01*
X34611048Y-25241059D01*
X34550742Y-25386650D01*
X34520000Y-25541204D01*
X34520000Y-25994999D01*
X34520001Y-25995000D01*
X35020000Y-25995000D01*
X35020000Y-26345000D01*
X34520001Y-26345000D01*
X34520000Y-26345001D01*
X34520000Y-26370718D01*
X34501093Y-26428909D01*
X34451593Y-26464873D01*
X34390407Y-26464873D01*
X34340907Y-26428909D01*
X34335264Y-26420218D01*
X34310506Y-26377337D01*
X34310505Y-26377335D01*
X34212665Y-26279495D01*
X34092836Y-26210312D01*
X33959183Y-26174500D01*
X33820817Y-26174500D01*
X33687164Y-26210312D01*
X33567335Y-26279495D01*
X33469495Y-26377335D01*
X33400312Y-26497164D01*
X33364500Y-26630817D01*
X28635500Y-26630817D01*
X28599688Y-26497164D01*
X28530505Y-26377335D01*
X28432665Y-26279495D01*
X28312836Y-26210312D01*
X28179183Y-26174500D01*
X28040817Y-26174500D01*
X27907164Y-26210312D01*
X27787335Y-26279495D01*
X27689493Y-26377337D01*
X27664736Y-26420218D01*
X27619266Y-26461159D01*
X27558416Y-26467554D01*
X27505428Y-26436962D01*
X27480542Y-26381066D01*
X27480000Y-26370718D01*
X27480000Y-26345001D01*
X27479999Y-26345000D01*
X26980000Y-26345000D01*
X26980000Y-25995000D01*
X27479999Y-25995000D01*
X27480000Y-25994999D01*
X27480000Y-25541207D01*
X27479999Y-25541204D01*
X27449257Y-25386650D01*
X27388951Y-25241059D01*
X27388947Y-25241050D01*
X27301400Y-25110030D01*
X27301397Y-25110026D01*
X27189973Y-24998602D01*
X27189969Y-24998599D01*
X27058949Y-24911052D01*
X27058940Y-24911048D01*
X26913354Y-24850744D01*
X26913348Y-24850742D01*
X26855000Y-24839136D01*
X26855000Y-25374625D01*
X26795796Y-25340444D01*
X26719496Y-25320000D01*
X26640504Y-25320000D01*
X26564204Y-25340444D01*
X26505000Y-25374625D01*
X26505000Y-24839136D01*
X26446651Y-24850742D01*
X26446645Y-24850744D01*
X26301059Y-24911048D01*
X26301050Y-24911052D01*
X26170030Y-24998599D01*
X26170026Y-24998602D01*
X26058602Y-25110026D01*
X26058599Y-25110030D01*
X25971052Y-25241050D01*
X25971048Y-25241059D01*
X25910742Y-25386650D01*
X25880000Y-25541204D01*
X19612020Y-25541204D01*
X19710009Y-25443215D01*
X19710373Y-25442584D01*
X19782482Y-25317689D01*
X19782482Y-25317687D01*
X19782484Y-25317685D01*
X19820000Y-25177675D01*
X19820000Y-25032725D01*
X19782484Y-24892715D01*
X19782482Y-24892712D01*
X19782482Y-24892710D01*
X19710012Y-24767189D01*
X19710010Y-24767187D01*
X19710009Y-24767185D01*
X19607515Y-24664691D01*
X19607512Y-24664689D01*
X19607510Y-24664687D01*
X19481988Y-24592217D01*
X19481989Y-24592217D01*
X19452396Y-24584287D01*
X19341975Y-24554700D01*
X19197025Y-24554700D01*
X19141011Y-24569709D01*
X19057010Y-24592217D01*
X18931489Y-24664687D01*
X18828987Y-24767189D01*
X18756517Y-24892710D01*
X18739368Y-24956710D01*
X18719000Y-25032725D01*
X16300500Y-25032725D01*
X16300500Y-24004625D01*
X28038700Y-24004625D01*
X28038700Y-24149575D01*
X28046189Y-24177525D01*
X28076217Y-24289589D01*
X28148687Y-24415110D01*
X28148689Y-24415112D01*
X28148691Y-24415115D01*
X28251185Y-24517609D01*
X28251187Y-24517610D01*
X28251189Y-24517612D01*
X28376711Y-24590082D01*
X28376712Y-24590082D01*
X28376715Y-24590084D01*
X28516725Y-24627600D01*
X28516726Y-24627600D01*
X28661674Y-24627600D01*
X28661675Y-24627600D01*
X28801685Y-24590084D01*
X28801687Y-24590082D01*
X28801689Y-24590082D01*
X28927210Y-24517612D01*
X28927210Y-24517611D01*
X28927215Y-24517609D01*
X29029709Y-24415115D01*
X29029712Y-24415110D01*
X29102182Y-24289589D01*
X29102182Y-24289587D01*
X29102184Y-24289585D01*
X29139700Y-24149575D01*
X29139700Y-24004625D01*
X29102184Y-23864615D01*
X29059791Y-23791189D01*
X29051498Y-23776825D01*
X30839000Y-23776825D01*
X30839000Y-23921774D01*
X30876517Y-24061789D01*
X30948987Y-24187310D01*
X30948989Y-24187312D01*
X30948991Y-24187315D01*
X31051485Y-24289809D01*
X31051487Y-24289810D01*
X31051489Y-24289812D01*
X31177011Y-24362282D01*
X31177012Y-24362282D01*
X31177015Y-24362284D01*
X31317025Y-24399800D01*
X31317026Y-24399800D01*
X31461974Y-24399800D01*
X31461975Y-24399800D01*
X31601985Y-24362284D01*
X31601987Y-24362282D01*
X31601989Y-24362282D01*
X31727510Y-24289812D01*
X31727510Y-24289811D01*
X31727515Y-24289809D01*
X31830009Y-24187315D01*
X31851799Y-24149574D01*
X31902482Y-24061789D01*
X31902482Y-24061787D01*
X31902484Y-24061785D01*
X31929215Y-23962025D01*
X32243000Y-23962025D01*
X32243000Y-24106975D01*
X32264526Y-24187310D01*
X32280517Y-24246989D01*
X32352987Y-24372510D01*
X32352989Y-24372512D01*
X32352991Y-24372515D01*
X32455485Y-24475009D01*
X32455487Y-24475010D01*
X32455489Y-24475012D01*
X32581011Y-24547482D01*
X32581012Y-24547482D01*
X32581015Y-24547484D01*
X32721025Y-24585000D01*
X32721026Y-24585000D01*
X32865974Y-24585000D01*
X32865975Y-24585000D01*
X33005985Y-24547484D01*
X33005987Y-24547482D01*
X33005989Y-24547482D01*
X33131510Y-24475012D01*
X33131510Y-24475011D01*
X33131515Y-24475009D01*
X33234009Y-24372515D01*
X33239917Y-24362282D01*
X33306482Y-24246989D01*
X33306482Y-24246987D01*
X33306484Y-24246985D01*
X33344000Y-24106975D01*
X33344000Y-23962025D01*
X33306484Y-23822015D01*
X33306482Y-23822012D01*
X33306482Y-23822010D01*
X33234012Y-23696489D01*
X33234010Y-23696487D01*
X33234009Y-23696485D01*
X33131515Y-23593991D01*
X33131512Y-23593989D01*
X33131510Y-23593987D01*
X33037780Y-23539872D01*
X33005988Y-23521517D01*
X33005989Y-23521517D01*
X32967803Y-23511285D01*
X32865975Y-23484000D01*
X32721025Y-23484000D01*
X32659290Y-23500541D01*
X32581010Y-23521517D01*
X32455489Y-23593987D01*
X32352987Y-23696489D01*
X32280517Y-23822010D01*
X32251605Y-23929911D01*
X32243000Y-23962025D01*
X31929215Y-23962025D01*
X31940000Y-23921775D01*
X31940000Y-23776825D01*
X31902484Y-23636815D01*
X31902482Y-23636812D01*
X31902482Y-23636810D01*
X31830012Y-23511289D01*
X31830010Y-23511287D01*
X31830009Y-23511285D01*
X31779349Y-23460625D01*
X36469600Y-23460625D01*
X36469600Y-23605575D01*
X36485499Y-23664909D01*
X36507117Y-23745589D01*
X36579587Y-23871110D01*
X36579589Y-23871112D01*
X36579591Y-23871115D01*
X36682085Y-23973609D01*
X36682087Y-23973610D01*
X36682089Y-23973612D01*
X36807611Y-24046082D01*
X36807612Y-24046082D01*
X36807615Y-24046084D01*
X36869924Y-24062779D01*
X36921238Y-24096103D01*
X36943164Y-24153225D01*
X36943300Y-24158406D01*
X36943300Y-24201674D01*
X36980817Y-24341689D01*
X37053287Y-24467210D01*
X37053289Y-24467212D01*
X37053291Y-24467215D01*
X37155785Y-24569709D01*
X37155787Y-24569710D01*
X37155789Y-24569712D01*
X37281311Y-24642182D01*
X37281312Y-24642182D01*
X37281315Y-24642184D01*
X37421325Y-24679700D01*
X37421326Y-24679700D01*
X37566274Y-24679700D01*
X37566275Y-24679700D01*
X37706285Y-24642184D01*
X37706287Y-24642182D01*
X37706289Y-24642182D01*
X37831810Y-24569712D01*
X37831810Y-24569711D01*
X37831815Y-24569709D01*
X37934309Y-24467215D01*
X37937040Y-24462485D01*
X38006782Y-24341689D01*
X38006782Y-24341687D01*
X38006784Y-24341685D01*
X38044300Y-24201675D01*
X38044300Y-24056725D01*
X38006784Y-23916715D01*
X38006782Y-23916712D01*
X38006782Y-23916710D01*
X37934312Y-23791189D01*
X37934310Y-23791187D01*
X37934309Y-23791185D01*
X37831815Y-23688691D01*
X37831812Y-23688689D01*
X37831810Y-23688687D01*
X37706288Y-23616217D01*
X37706286Y-23616216D01*
X37643975Y-23599519D01*
X37592662Y-23566195D01*
X37570736Y-23509073D01*
X37570600Y-23503893D01*
X37570600Y-23460625D01*
X37546024Y-23368907D01*
X37533084Y-23320615D01*
X37533082Y-23320612D01*
X37533082Y-23320610D01*
X37460612Y-23195089D01*
X37460610Y-23195087D01*
X37460609Y-23195085D01*
X37358115Y-23092591D01*
X37358112Y-23092589D01*
X37358110Y-23092587D01*
X37232588Y-23020117D01*
X37232589Y-23020117D01*
X37201960Y-23011910D01*
X37092575Y-22982600D01*
X36947625Y-22982600D01*
X36885890Y-22999141D01*
X36807610Y-23020117D01*
X36682089Y-23092587D01*
X36579587Y-23195089D01*
X36507117Y-23320610D01*
X36483490Y-23408787D01*
X36469600Y-23460625D01*
X31779349Y-23460625D01*
X31727515Y-23408791D01*
X31727512Y-23408789D01*
X31727510Y-23408787D01*
X31601988Y-23336317D01*
X31601989Y-23336317D01*
X31572396Y-23328387D01*
X31461975Y-23298800D01*
X31317025Y-23298800D01*
X31255290Y-23315341D01*
X31177010Y-23336317D01*
X31051489Y-23408787D01*
X30948987Y-23511289D01*
X30876517Y-23636810D01*
X30839000Y-23776825D01*
X29051498Y-23776825D01*
X29029710Y-23739087D01*
X29029709Y-23739085D01*
X28927215Y-23636591D01*
X28927212Y-23636589D01*
X28927210Y-23636587D01*
X28801688Y-23564117D01*
X28801689Y-23564117D01*
X28711206Y-23539872D01*
X28661675Y-23526600D01*
X28516725Y-23526600D01*
X28467194Y-23539872D01*
X28376710Y-23564117D01*
X28251189Y-23636587D01*
X28148687Y-23739089D01*
X28076217Y-23864610D01*
X28060900Y-23921774D01*
X28038700Y-24004625D01*
X16300500Y-24004625D01*
X16300500Y-21960437D01*
X16300499Y-21960435D01*
X16280021Y-21884011D01*
X16280019Y-21884007D01*
X16274205Y-21873936D01*
X16249372Y-21830925D01*
X27828600Y-21830925D01*
X27828600Y-21975875D01*
X27838840Y-22014089D01*
X27866117Y-22115889D01*
X27938587Y-22241410D01*
X27938589Y-22241412D01*
X27938591Y-22241415D01*
X28041085Y-22343909D01*
X28041087Y-22343910D01*
X28041089Y-22343912D01*
X28166611Y-22416382D01*
X28166612Y-22416382D01*
X28166615Y-22416384D01*
X28306625Y-22453900D01*
X28306626Y-22453900D01*
X28451574Y-22453900D01*
X28451575Y-22453900D01*
X28591585Y-22416384D01*
X28591587Y-22416382D01*
X28591589Y-22416382D01*
X28717110Y-22343912D01*
X28717110Y-22343911D01*
X28717115Y-22343909D01*
X28819609Y-22241415D01*
X28853205Y-22183225D01*
X28892082Y-22115889D01*
X28892082Y-22115887D01*
X28892084Y-22115885D01*
X28925808Y-21990025D01*
X38618200Y-21990025D01*
X38618200Y-22134975D01*
X38631129Y-22183225D01*
X38655717Y-22274989D01*
X38728187Y-22400510D01*
X38728189Y-22400512D01*
X38728191Y-22400515D01*
X38830685Y-22503009D01*
X38830687Y-22503010D01*
X38830689Y-22503012D01*
X38956211Y-22575482D01*
X38956212Y-22575482D01*
X38956215Y-22575484D01*
X39096225Y-22613000D01*
X39096226Y-22613000D01*
X39241174Y-22613000D01*
X39241175Y-22613000D01*
X39381185Y-22575484D01*
X39381187Y-22575482D01*
X39381189Y-22575482D01*
X39506710Y-22503012D01*
X39506710Y-22503011D01*
X39506715Y-22503009D01*
X39609209Y-22400515D01*
X39609212Y-22400510D01*
X39681682Y-22274989D01*
X39681682Y-22274987D01*
X39681684Y-22274985D01*
X39719200Y-22134975D01*
X39719200Y-21990025D01*
X39681684Y-21850015D01*
X39681682Y-21850012D01*
X39681682Y-21850010D01*
X39609212Y-21724489D01*
X39609210Y-21724487D01*
X39609209Y-21724485D01*
X39506715Y-21621991D01*
X39506712Y-21621989D01*
X39506710Y-21621987D01*
X39381188Y-21549517D01*
X39381189Y-21549517D01*
X39351596Y-21541587D01*
X39241175Y-21512000D01*
X39096225Y-21512000D01*
X39034490Y-21528541D01*
X38956210Y-21549517D01*
X38830689Y-21621987D01*
X38728187Y-21724489D01*
X38655717Y-21850010D01*
X38618200Y-21990025D01*
X28925808Y-21990025D01*
X28929600Y-21975875D01*
X28929600Y-21830925D01*
X28892084Y-21690915D01*
X28892082Y-21690912D01*
X28892082Y-21690910D01*
X28819612Y-21565389D01*
X28819610Y-21565387D01*
X28819609Y-21565385D01*
X28717115Y-21462891D01*
X28717112Y-21462889D01*
X28717110Y-21462887D01*
X28591588Y-21390417D01*
X28591589Y-21390417D01*
X28561996Y-21382487D01*
X28451575Y-21352900D01*
X28306625Y-21352900D01*
X28244890Y-21369441D01*
X28166610Y-21390417D01*
X28041089Y-21462887D01*
X27938587Y-21565389D01*
X27866117Y-21690910D01*
X27851602Y-21745082D01*
X27828600Y-21830925D01*
X16249372Y-21830925D01*
X16240461Y-21815491D01*
X16240460Y-21815489D01*
X16184511Y-21759540D01*
X16184508Y-21759538D01*
X16115992Y-21719980D01*
X16115988Y-21719978D01*
X16039564Y-21699500D01*
X16039562Y-21699500D01*
X4649000Y-21699500D01*
X4590809Y-21680593D01*
X4554845Y-21631093D01*
X4550000Y-21600500D01*
X4550000Y-21159625D01*
X41077400Y-21159625D01*
X41077400Y-21304574D01*
X41114917Y-21444589D01*
X41187387Y-21570110D01*
X41187389Y-21570112D01*
X41187391Y-21570115D01*
X41289885Y-21672609D01*
X41289887Y-21672610D01*
X41289889Y-21672612D01*
X41415411Y-21745082D01*
X41415412Y-21745082D01*
X41415415Y-21745084D01*
X41555425Y-21782600D01*
X41555426Y-21782600D01*
X41634736Y-21782600D01*
X41692927Y-21801507D01*
X41728891Y-21851007D01*
X41732889Y-21868674D01*
X41733600Y-21874074D01*
X41733600Y-21874075D01*
X41756740Y-21960435D01*
X41771117Y-22014089D01*
X41843587Y-22139610D01*
X41843589Y-22139612D01*
X41843591Y-22139615D01*
X41946085Y-22242109D01*
X41946087Y-22242110D01*
X41946089Y-22242112D01*
X42071611Y-22314582D01*
X42071612Y-22314582D01*
X42071615Y-22314584D01*
X42211625Y-22352100D01*
X42211626Y-22352100D01*
X42356574Y-22352100D01*
X42356575Y-22352100D01*
X42496585Y-22314584D01*
X42496587Y-22314582D01*
X42496589Y-22314582D01*
X42622110Y-22242112D01*
X42622110Y-22242111D01*
X42622115Y-22242109D01*
X42680999Y-22183225D01*
X44261700Y-22183225D01*
X44261700Y-22328174D01*
X44299217Y-22468189D01*
X44371687Y-22593710D01*
X44371689Y-22593712D01*
X44371691Y-22593715D01*
X44474185Y-22696209D01*
X44474187Y-22696210D01*
X44474189Y-22696212D01*
X44599711Y-22768682D01*
X44599712Y-22768682D01*
X44599715Y-22768684D01*
X44739725Y-22806200D01*
X44739726Y-22806200D01*
X44884674Y-22806200D01*
X44884675Y-22806200D01*
X45024685Y-22768684D01*
X45024687Y-22768682D01*
X45024689Y-22768682D01*
X45150210Y-22696212D01*
X45150210Y-22696211D01*
X45150215Y-22696209D01*
X45252709Y-22593715D01*
X45305077Y-22503012D01*
X45325182Y-22468189D01*
X45325182Y-22468187D01*
X45325184Y-22468185D01*
X45362700Y-22328175D01*
X45362700Y-22183225D01*
X45325184Y-22043215D01*
X45325182Y-22043212D01*
X45325182Y-22043210D01*
X45252712Y-21917689D01*
X45252710Y-21917687D01*
X45252709Y-21917685D01*
X45150215Y-21815191D01*
X45150212Y-21815189D01*
X45150210Y-21815187D01*
X45024688Y-21742717D01*
X45024689Y-21742717D01*
X44973963Y-21729125D01*
X44884675Y-21705200D01*
X44739725Y-21705200D01*
X44684573Y-21719978D01*
X44599710Y-21742717D01*
X44474189Y-21815187D01*
X44371687Y-21917689D01*
X44299217Y-22043210D01*
X44261700Y-22183225D01*
X42680999Y-22183225D01*
X42724609Y-22139615D01*
X42797084Y-22014085D01*
X42834600Y-21874075D01*
X42834600Y-21729125D01*
X42797084Y-21589115D01*
X42797082Y-21589112D01*
X42797082Y-21589110D01*
X42724612Y-21463589D01*
X42724610Y-21463587D01*
X42724609Y-21463585D01*
X42622115Y-21361091D01*
X42622112Y-21361089D01*
X42622110Y-21361087D01*
X42496588Y-21288617D01*
X42496589Y-21288617D01*
X42389797Y-21260002D01*
X42356575Y-21251100D01*
X42277264Y-21251100D01*
X42219073Y-21232193D01*
X42183109Y-21182693D01*
X42179111Y-21165026D01*
X42178400Y-21159632D01*
X42178400Y-21159625D01*
X42140884Y-21019615D01*
X42140882Y-21019612D01*
X42140882Y-21019610D01*
X42068412Y-20894089D01*
X42068410Y-20894087D01*
X42068409Y-20894085D01*
X41965915Y-20791591D01*
X41965912Y-20791589D01*
X41965910Y-20791587D01*
X41840388Y-20719117D01*
X41840389Y-20719117D01*
X41810796Y-20711187D01*
X41700375Y-20681600D01*
X41555425Y-20681600D01*
X41493690Y-20698141D01*
X41415410Y-20719117D01*
X41289889Y-20791587D01*
X41187387Y-20894089D01*
X41114917Y-21019610D01*
X41077400Y-21159625D01*
X4550000Y-21159625D01*
X4550000Y-20427525D01*
X9969500Y-20427525D01*
X9969500Y-20572475D01*
X9975158Y-20593589D01*
X10007017Y-20712489D01*
X10079487Y-20838010D01*
X10079489Y-20838012D01*
X10079491Y-20838015D01*
X10181985Y-20940509D01*
X10181987Y-20940510D01*
X10181989Y-20940512D01*
X10307511Y-21012982D01*
X10307512Y-21012982D01*
X10307515Y-21012984D01*
X10447525Y-21050500D01*
X10447526Y-21050500D01*
X10592474Y-21050500D01*
X10592475Y-21050500D01*
X10732485Y-21012984D01*
X10732487Y-21012982D01*
X10732489Y-21012982D01*
X10858010Y-20940512D01*
X10858010Y-20940511D01*
X10858015Y-20940509D01*
X10960509Y-20838015D01*
X10970108Y-20821389D01*
X11032982Y-20712489D01*
X11032982Y-20712487D01*
X11032984Y-20712485D01*
X11070500Y-20572475D01*
X11070500Y-20536425D01*
X32726400Y-20536425D01*
X32726400Y-20681375D01*
X32734736Y-20712485D01*
X32763917Y-20821389D01*
X32836387Y-20946910D01*
X32836389Y-20946912D01*
X32836391Y-20946915D01*
X32938885Y-21049409D01*
X32938887Y-21049410D01*
X32938889Y-21049412D01*
X33064411Y-21121882D01*
X33064412Y-21121882D01*
X33064415Y-21121884D01*
X33204425Y-21159400D01*
X33204426Y-21159400D01*
X33349374Y-21159400D01*
X33349375Y-21159400D01*
X33489385Y-21121884D01*
X33489387Y-21121882D01*
X33489389Y-21121882D01*
X33583755Y-21067400D01*
X33614910Y-21049412D01*
X33614910Y-21049411D01*
X33614915Y-21049409D01*
X33717409Y-20946915D01*
X33789884Y-20821385D01*
X33827400Y-20681375D01*
X33827400Y-20536425D01*
X33789884Y-20396415D01*
X33789882Y-20396412D01*
X33789882Y-20396410D01*
X33717412Y-20270889D01*
X33717410Y-20270887D01*
X33717409Y-20270885D01*
X33614915Y-20168391D01*
X33614912Y-20168389D01*
X33614910Y-20168387D01*
X33489388Y-20095917D01*
X33489389Y-20095917D01*
X33459796Y-20087987D01*
X33349375Y-20058400D01*
X33204425Y-20058400D01*
X33142690Y-20074941D01*
X33064410Y-20095917D01*
X32938889Y-20168387D01*
X32836387Y-20270889D01*
X32763917Y-20396410D01*
X32763916Y-20396415D01*
X32726400Y-20536425D01*
X11070500Y-20536425D01*
X11070500Y-20427525D01*
X11032984Y-20287515D01*
X11032982Y-20287512D01*
X11032982Y-20287510D01*
X10960512Y-20161989D01*
X10960510Y-20161987D01*
X10960509Y-20161985D01*
X10858015Y-20059491D01*
X10858012Y-20059489D01*
X10858010Y-20059487D01*
X10732488Y-19987017D01*
X10732489Y-19987017D01*
X10702896Y-19979087D01*
X10592475Y-19949500D01*
X10447525Y-19949500D01*
X10420233Y-19956813D01*
X10307510Y-19987017D01*
X10181989Y-20059487D01*
X10079487Y-20161989D01*
X10007017Y-20287510D01*
X9977837Y-20396410D01*
X9969500Y-20427525D01*
X4550000Y-20427525D01*
X4550000Y-19727825D01*
X34359500Y-19727825D01*
X34359500Y-19872775D01*
X34377971Y-19941709D01*
X34397017Y-20012789D01*
X34469487Y-20138310D01*
X34469489Y-20138312D01*
X34469491Y-20138315D01*
X34571985Y-20240809D01*
X34571987Y-20240810D01*
X34571989Y-20240812D01*
X34697511Y-20313282D01*
X34697512Y-20313282D01*
X34697515Y-20313284D01*
X34837525Y-20350800D01*
X34837526Y-20350800D01*
X34982474Y-20350800D01*
X34982475Y-20350800D01*
X35122485Y-20313284D01*
X35122487Y-20313282D01*
X35122489Y-20313282D01*
X35248010Y-20240812D01*
X35248010Y-20240811D01*
X35248015Y-20240809D01*
X35350509Y-20138315D01*
X35353071Y-20133877D01*
X35422982Y-20012789D01*
X35422982Y-20012787D01*
X35422984Y-20012785D01*
X35429377Y-19988925D01*
X37435900Y-19988925D01*
X37435900Y-20133875D01*
X37445209Y-20168615D01*
X37473417Y-20273889D01*
X37545887Y-20399410D01*
X37545889Y-20399412D01*
X37545891Y-20399415D01*
X37648385Y-20501909D01*
X37648387Y-20501910D01*
X37648389Y-20501912D01*
X37773911Y-20574382D01*
X37773912Y-20574382D01*
X37773915Y-20574384D01*
X37913925Y-20611900D01*
X37913926Y-20611900D01*
X38058874Y-20611900D01*
X38058875Y-20611900D01*
X38198885Y-20574384D01*
X38198887Y-20574382D01*
X38198889Y-20574382D01*
X38324410Y-20501912D01*
X38324410Y-20501911D01*
X38324415Y-20501909D01*
X38426909Y-20399415D01*
X38479327Y-20308625D01*
X46298500Y-20308625D01*
X46298500Y-20453574D01*
X46336017Y-20593589D01*
X46408487Y-20719110D01*
X46408489Y-20719112D01*
X46408491Y-20719115D01*
X46510985Y-20821609D01*
X46510987Y-20821610D01*
X46510989Y-20821612D01*
X46636511Y-20894082D01*
X46636512Y-20894082D01*
X46636515Y-20894084D01*
X46776525Y-20931600D01*
X46776526Y-20931600D01*
X46921474Y-20931600D01*
X46921475Y-20931600D01*
X47061485Y-20894084D01*
X47061487Y-20894082D01*
X47061489Y-20894082D01*
X47187010Y-20821612D01*
X47187010Y-20821611D01*
X47187015Y-20821609D01*
X47289509Y-20719115D01*
X47293337Y-20712485D01*
X47361982Y-20593589D01*
X47361982Y-20593587D01*
X47361984Y-20593585D01*
X47399500Y-20453575D01*
X47399500Y-20308625D01*
X47361984Y-20168615D01*
X47361982Y-20168612D01*
X47361982Y-20168610D01*
X47289512Y-20043089D01*
X47289510Y-20043087D01*
X47289509Y-20043085D01*
X47187015Y-19940591D01*
X47187012Y-19940589D01*
X47187010Y-19940587D01*
X47061488Y-19868117D01*
X47061489Y-19868117D01*
X47031896Y-19860187D01*
X46921475Y-19830600D01*
X46776525Y-19830600D01*
X46740362Y-19840290D01*
X46636510Y-19868117D01*
X46510989Y-19940587D01*
X46408487Y-20043089D01*
X46336017Y-20168610D01*
X46298500Y-20308625D01*
X38479327Y-20308625D01*
X38499384Y-20273885D01*
X38536900Y-20133875D01*
X38536900Y-19988925D01*
X38499384Y-19848915D01*
X38499382Y-19848912D01*
X38499382Y-19848910D01*
X38426912Y-19723389D01*
X38426910Y-19723387D01*
X38426909Y-19723385D01*
X38324415Y-19620891D01*
X38324412Y-19620889D01*
X38324410Y-19620887D01*
X38198890Y-19548418D01*
X38198887Y-19548417D01*
X38198885Y-19548416D01*
X38084858Y-19517862D01*
X38073616Y-19514849D01*
X38058875Y-19510900D01*
X37913925Y-19510900D01*
X37875530Y-19521188D01*
X37773910Y-19548417D01*
X37648389Y-19620887D01*
X37545887Y-19723389D01*
X37473417Y-19848910D01*
X37467022Y-19872777D01*
X37435900Y-19988925D01*
X35429377Y-19988925D01*
X35460500Y-19872775D01*
X35460500Y-19727825D01*
X35422984Y-19587815D01*
X35422982Y-19587812D01*
X35422982Y-19587810D01*
X35350512Y-19462289D01*
X35350510Y-19462287D01*
X35350509Y-19462285D01*
X35316949Y-19428725D01*
X39430800Y-19428725D01*
X39430800Y-19573674D01*
X39468317Y-19713689D01*
X39540787Y-19839210D01*
X39540789Y-19839212D01*
X39540791Y-19839215D01*
X39643285Y-19941709D01*
X39643287Y-19941710D01*
X39643289Y-19941712D01*
X39768811Y-20014182D01*
X39768812Y-20014182D01*
X39768815Y-20014184D01*
X39908825Y-20051700D01*
X39908826Y-20051700D01*
X40053774Y-20051700D01*
X40053775Y-20051700D01*
X40193785Y-20014184D01*
X40193787Y-20014182D01*
X40193789Y-20014182D01*
X40319310Y-19941712D01*
X40319310Y-19941711D01*
X40319315Y-19941709D01*
X40421809Y-19839215D01*
X40426783Y-19830600D01*
X40494282Y-19713689D01*
X40494282Y-19713687D01*
X40494284Y-19713685D01*
X40531800Y-19573675D01*
X40531800Y-19428725D01*
X40494284Y-19288715D01*
X40494282Y-19288712D01*
X40494282Y-19288710D01*
X40421812Y-19163189D01*
X40421810Y-19163187D01*
X40421809Y-19163185D01*
X40319315Y-19060691D01*
X40319312Y-19060689D01*
X40319310Y-19060687D01*
X40193791Y-18988218D01*
X40193786Y-18988216D01*
X40123780Y-18969458D01*
X40053775Y-18950700D01*
X39908825Y-18950700D01*
X39847090Y-18967241D01*
X39768810Y-18988217D01*
X39643289Y-19060687D01*
X39540787Y-19163189D01*
X39468317Y-19288710D01*
X39430800Y-19428725D01*
X35316949Y-19428725D01*
X35248015Y-19359791D01*
X35248012Y-19359789D01*
X35248010Y-19359787D01*
X35122488Y-19287317D01*
X35122489Y-19287317D01*
X35092896Y-19279387D01*
X34982475Y-19249800D01*
X34837525Y-19249800D01*
X34775790Y-19266341D01*
X34697510Y-19287317D01*
X34571989Y-19359787D01*
X34469487Y-19462289D01*
X34397017Y-19587810D01*
X34370840Y-19685503D01*
X34359500Y-19727825D01*
X4550000Y-19727825D01*
X4550000Y-18905225D01*
X41816800Y-18905225D01*
X41816800Y-19050174D01*
X41854317Y-19190189D01*
X41926787Y-19315710D01*
X41926789Y-19315712D01*
X41926791Y-19315715D01*
X42029285Y-19418209D01*
X42029287Y-19418210D01*
X42029289Y-19418212D01*
X42154811Y-19490682D01*
X42154812Y-19490682D01*
X42154815Y-19490684D01*
X42294825Y-19528200D01*
X42294826Y-19528200D01*
X42439774Y-19528200D01*
X42439775Y-19528200D01*
X42579785Y-19490684D01*
X42579787Y-19490682D01*
X42579789Y-19490682D01*
X42705310Y-19418212D01*
X42705310Y-19418211D01*
X42705315Y-19418209D01*
X42769873Y-19353651D01*
X51712079Y-19353651D01*
X51712079Y-19521190D01*
X51744763Y-19685501D01*
X51744763Y-19685503D01*
X51808872Y-19840279D01*
X51808878Y-19840290D01*
X51830586Y-19872777D01*
X51901952Y-19979583D01*
X52020417Y-20098048D01*
X52080681Y-20138315D01*
X52159709Y-20191121D01*
X52159720Y-20191127D01*
X52216896Y-20214809D01*
X52314498Y-20255237D01*
X52478812Y-20287921D01*
X52478813Y-20287921D01*
X52646345Y-20287921D01*
X52646346Y-20287921D01*
X52810660Y-20255237D01*
X52965442Y-20191125D01*
X53104741Y-20098048D01*
X53506048Y-19696741D01*
X53599125Y-19557442D01*
X53663237Y-19402660D01*
X53695921Y-19238346D01*
X53695921Y-19212230D01*
X55445602Y-19212230D01*
X55445602Y-19379769D01*
X55478285Y-19544079D01*
X55478287Y-19544085D01*
X55542398Y-19698862D01*
X55542399Y-19698863D01*
X55635476Y-19838162D01*
X55753940Y-19956626D01*
X55893239Y-20049703D01*
X56048020Y-20113816D01*
X56212335Y-20146500D01*
X56212336Y-20146500D01*
X56379868Y-20146500D01*
X56379869Y-20146500D01*
X56544184Y-20113816D01*
X56698965Y-20049703D01*
X56838264Y-19956626D01*
X56956728Y-19838162D01*
X57049805Y-19698863D01*
X57113918Y-19544082D01*
X57146602Y-19379767D01*
X57146602Y-19212233D01*
X57113918Y-19047918D01*
X57049805Y-18893137D01*
X56956728Y-18753838D01*
X56838264Y-18635374D01*
X56698965Y-18542297D01*
X56698966Y-18542297D01*
X56698964Y-18542296D01*
X56544187Y-18478185D01*
X56544181Y-18478183D01*
X56379871Y-18445500D01*
X56379869Y-18445500D01*
X56212335Y-18445500D01*
X56212332Y-18445500D01*
X56048022Y-18478183D01*
X56048016Y-18478185D01*
X55893239Y-18542296D01*
X55753940Y-18635374D01*
X55753936Y-18635377D01*
X55635479Y-18753834D01*
X55635476Y-18753838D01*
X55542398Y-18893137D01*
X55478287Y-19047914D01*
X55478285Y-19047920D01*
X55445602Y-19212230D01*
X53695921Y-19212230D01*
X53695921Y-19070812D01*
X53663237Y-18906498D01*
X53621272Y-18805185D01*
X53599127Y-18751720D01*
X53599121Y-18751709D01*
X53541299Y-18665174D01*
X53506048Y-18612417D01*
X53387583Y-18493952D01*
X53315070Y-18445500D01*
X53248290Y-18400878D01*
X53248279Y-18400872D01*
X53093502Y-18336763D01*
X52929190Y-18304079D01*
X52929188Y-18304079D01*
X52761654Y-18304079D01*
X52761651Y-18304079D01*
X52597340Y-18336763D01*
X52597338Y-18336763D01*
X52442562Y-18400872D01*
X52442551Y-18400878D01*
X52303259Y-18493952D01*
X52303255Y-18493955D01*
X51901955Y-18895255D01*
X51901952Y-18895259D01*
X51808878Y-19034551D01*
X51808872Y-19034562D01*
X51744763Y-19189338D01*
X51744763Y-19189340D01*
X51712079Y-19353651D01*
X42769873Y-19353651D01*
X42807809Y-19315715D01*
X42823398Y-19288715D01*
X42880282Y-19190189D01*
X42880282Y-19190187D01*
X42880284Y-19190185D01*
X42917800Y-19050175D01*
X42917800Y-18905225D01*
X42880284Y-18765215D01*
X42880282Y-18765212D01*
X42880282Y-18765210D01*
X42807812Y-18639689D01*
X42807810Y-18639687D01*
X42807809Y-18639685D01*
X42705315Y-18537191D01*
X42705312Y-18537189D01*
X42705310Y-18537187D01*
X42675931Y-18520225D01*
X43137400Y-18520225D01*
X43137400Y-18665175D01*
X43164205Y-18765210D01*
X43174917Y-18805189D01*
X43247387Y-18930710D01*
X43247389Y-18930712D01*
X43247391Y-18930715D01*
X43349885Y-19033209D01*
X43349887Y-19033210D01*
X43349889Y-19033212D01*
X43475411Y-19105682D01*
X43475412Y-19105682D01*
X43475415Y-19105684D01*
X43615425Y-19143200D01*
X43615426Y-19143200D01*
X43760374Y-19143200D01*
X43760375Y-19143200D01*
X43900385Y-19105684D01*
X43900387Y-19105682D01*
X43900389Y-19105682D01*
X44025910Y-19033212D01*
X44025910Y-19033211D01*
X44025915Y-19033209D01*
X44128409Y-18930715D01*
X44200884Y-18805185D01*
X44238400Y-18665175D01*
X44238400Y-18520225D01*
X44200884Y-18380215D01*
X44200882Y-18380212D01*
X44200882Y-18380210D01*
X44128412Y-18254689D01*
X44128410Y-18254687D01*
X44128409Y-18254685D01*
X44025915Y-18152191D01*
X44025912Y-18152189D01*
X44025910Y-18152187D01*
X43905856Y-18082873D01*
X43905853Y-18082873D01*
X43900386Y-18079716D01*
X43830380Y-18060958D01*
X43760375Y-18042200D01*
X43615425Y-18042200D01*
X43553690Y-18058741D01*
X43475410Y-18079717D01*
X43349889Y-18152187D01*
X43247387Y-18254689D01*
X43174917Y-18380210D01*
X43165832Y-18414115D01*
X43137400Y-18520225D01*
X42675931Y-18520225D01*
X42579788Y-18464717D01*
X42579789Y-18464717D01*
X42526731Y-18450500D01*
X42439775Y-18427200D01*
X42294825Y-18427200D01*
X42233090Y-18443741D01*
X42154810Y-18464717D01*
X42029289Y-18537187D01*
X41926787Y-18639689D01*
X41854317Y-18765210D01*
X41816800Y-18905225D01*
X4550000Y-18905225D01*
X4550000Y-17275425D01*
X12237900Y-17275425D01*
X12237900Y-17420375D01*
X12252722Y-17475689D01*
X12275417Y-17560389D01*
X12347887Y-17685910D01*
X12347889Y-17685912D01*
X12347891Y-17685915D01*
X12450385Y-17788409D01*
X12450387Y-17788410D01*
X12450389Y-17788412D01*
X12575911Y-17860882D01*
X12575912Y-17860882D01*
X12575915Y-17860884D01*
X12715925Y-17898400D01*
X12715926Y-17898400D01*
X12860874Y-17898400D01*
X12860875Y-17898400D01*
X13000885Y-17860884D01*
X13000887Y-17860882D01*
X13000889Y-17860882D01*
X13058665Y-17827525D01*
X16049500Y-17827525D01*
X16049500Y-17972474D01*
X16087017Y-18112489D01*
X16159487Y-18238010D01*
X16159489Y-18238012D01*
X16159491Y-18238015D01*
X16261985Y-18340509D01*
X16261987Y-18340510D01*
X16261989Y-18340512D01*
X16387511Y-18412982D01*
X16387512Y-18412982D01*
X16387515Y-18412984D01*
X16527525Y-18450500D01*
X16527526Y-18450500D01*
X16672474Y-18450500D01*
X16672475Y-18450500D01*
X16812485Y-18412984D01*
X16812487Y-18412982D01*
X16812489Y-18412982D01*
X16938010Y-18340512D01*
X16938010Y-18340511D01*
X16938015Y-18340509D01*
X17040509Y-18238015D01*
X17090062Y-18152187D01*
X17112982Y-18112489D01*
X17112982Y-18112487D01*
X17112984Y-18112485D01*
X17150500Y-17972475D01*
X17150500Y-17827525D01*
X17127376Y-17741225D01*
X37153900Y-17741225D01*
X37153900Y-17886174D01*
X37191417Y-18026189D01*
X37263887Y-18151710D01*
X37263889Y-18151712D01*
X37263891Y-18151715D01*
X37366385Y-18254209D01*
X37366387Y-18254210D01*
X37366389Y-18254212D01*
X37491911Y-18326682D01*
X37491912Y-18326682D01*
X37491915Y-18326684D01*
X37631925Y-18364200D01*
X37631926Y-18364200D01*
X37776874Y-18364200D01*
X37776875Y-18364200D01*
X37916885Y-18326684D01*
X37916887Y-18326682D01*
X37916889Y-18326682D01*
X38042410Y-18254212D01*
X38042410Y-18254211D01*
X38042415Y-18254209D01*
X38144909Y-18151715D01*
X38146722Y-18148575D01*
X38217382Y-18026189D01*
X38217382Y-18026187D01*
X38217384Y-18026185D01*
X38254900Y-17886175D01*
X38254900Y-17741225D01*
X38240386Y-17687058D01*
X38240386Y-17687056D01*
X38235260Y-17667925D01*
X38554500Y-17667925D01*
X38554500Y-17812874D01*
X38592017Y-17952889D01*
X38664487Y-18078410D01*
X38664489Y-18078412D01*
X38664491Y-18078415D01*
X38766985Y-18180909D01*
X38766987Y-18180910D01*
X38766989Y-18180912D01*
X38892511Y-18253382D01*
X38892512Y-18253382D01*
X38892515Y-18253384D01*
X39032525Y-18290900D01*
X39032526Y-18290900D01*
X39177474Y-18290900D01*
X39177475Y-18290900D01*
X39317485Y-18253384D01*
X39317487Y-18253382D01*
X39317489Y-18253382D01*
X39443010Y-18180912D01*
X39443010Y-18180911D01*
X39443015Y-18180909D01*
X39545509Y-18078415D01*
X39588689Y-18003625D01*
X47394400Y-18003625D01*
X47394400Y-18148575D01*
X47395368Y-18152187D01*
X47431917Y-18288589D01*
X47504387Y-18414110D01*
X47504389Y-18414112D01*
X47504391Y-18414115D01*
X47606885Y-18516609D01*
X47606887Y-18516610D01*
X47606889Y-18516612D01*
X47732411Y-18589082D01*
X47732412Y-18589082D01*
X47732415Y-18589084D01*
X47872425Y-18626600D01*
X47872426Y-18626600D01*
X48017374Y-18626600D01*
X48017375Y-18626600D01*
X48157385Y-18589084D01*
X48157387Y-18589082D01*
X48157389Y-18589082D01*
X48282910Y-18516612D01*
X48282910Y-18516611D01*
X48282915Y-18516609D01*
X48385409Y-18414115D01*
X48386063Y-18412982D01*
X48457882Y-18288589D01*
X48457882Y-18288587D01*
X48457884Y-18288585D01*
X48495400Y-18148575D01*
X48495400Y-18003625D01*
X48457884Y-17863615D01*
X48457882Y-17863612D01*
X48457882Y-17863610D01*
X48385412Y-17738089D01*
X48385410Y-17738087D01*
X48385409Y-17738085D01*
X48282915Y-17635591D01*
X48282912Y-17635589D01*
X48282910Y-17635587D01*
X48157388Y-17563117D01*
X48157389Y-17563117D01*
X48127796Y-17555187D01*
X48017375Y-17525600D01*
X47872425Y-17525600D01*
X47810690Y-17542141D01*
X47732410Y-17563117D01*
X47606889Y-17635587D01*
X47504387Y-17738089D01*
X47431917Y-17863610D01*
X47431916Y-17863615D01*
X47394400Y-18003625D01*
X39588689Y-18003625D01*
X39606674Y-17972475D01*
X39617982Y-17952889D01*
X39617982Y-17952887D01*
X39617984Y-17952885D01*
X39655500Y-17812875D01*
X39655500Y-17667925D01*
X39617984Y-17527915D01*
X39617982Y-17527912D01*
X39617982Y-17527910D01*
X39545512Y-17402389D01*
X39545510Y-17402387D01*
X39545509Y-17402385D01*
X39443015Y-17299891D01*
X39443012Y-17299889D01*
X39443010Y-17299887D01*
X39317488Y-17227417D01*
X39317489Y-17227417D01*
X39287896Y-17219487D01*
X39177475Y-17189900D01*
X39032525Y-17189900D01*
X38970790Y-17206441D01*
X38892510Y-17227417D01*
X38766989Y-17299887D01*
X38664487Y-17402389D01*
X38592017Y-17527910D01*
X38554500Y-17667925D01*
X38235260Y-17667925D01*
X38217384Y-17601215D01*
X38217382Y-17601211D01*
X38144912Y-17475689D01*
X38144910Y-17475687D01*
X38144909Y-17475685D01*
X38042415Y-17373191D01*
X38042412Y-17373189D01*
X38042410Y-17373187D01*
X37916888Y-17300717D01*
X37916889Y-17300717D01*
X37822506Y-17275427D01*
X37776875Y-17263200D01*
X37631925Y-17263200D01*
X37596986Y-17272562D01*
X37491910Y-17300717D01*
X37366389Y-17373187D01*
X37263887Y-17475689D01*
X37191417Y-17601210D01*
X37153900Y-17741225D01*
X17127376Y-17741225D01*
X17112984Y-17687515D01*
X17112982Y-17687512D01*
X17112982Y-17687510D01*
X17040512Y-17561989D01*
X17040510Y-17561987D01*
X17040509Y-17561985D01*
X16938015Y-17459491D01*
X16938012Y-17459489D01*
X16938010Y-17459487D01*
X16812488Y-17387017D01*
X16812489Y-17387017D01*
X16760875Y-17373187D01*
X16672475Y-17349500D01*
X16527525Y-17349500D01*
X16465790Y-17366041D01*
X16387510Y-17387017D01*
X16261989Y-17459487D01*
X16159487Y-17561989D01*
X16087017Y-17687510D01*
X16049500Y-17827525D01*
X13058665Y-17827525D01*
X13126410Y-17788412D01*
X13126410Y-17788411D01*
X13126415Y-17788409D01*
X13228909Y-17685915D01*
X13299807Y-17563117D01*
X13301382Y-17560389D01*
X13301382Y-17560387D01*
X13301384Y-17560385D01*
X13338900Y-17420375D01*
X13338900Y-17275425D01*
X13302968Y-17141325D01*
X14580000Y-17141325D01*
X14580000Y-17286275D01*
X14583870Y-17300717D01*
X14617517Y-17426289D01*
X14689987Y-17551810D01*
X14689989Y-17551812D01*
X14689991Y-17551815D01*
X14792485Y-17654309D01*
X14792487Y-17654310D01*
X14792489Y-17654312D01*
X14918011Y-17726782D01*
X14918012Y-17726782D01*
X14918015Y-17726784D01*
X15058025Y-17764300D01*
X15058026Y-17764300D01*
X15202974Y-17764300D01*
X15202975Y-17764300D01*
X15342985Y-17726784D01*
X15342987Y-17726782D01*
X15342989Y-17726782D01*
X15468510Y-17654312D01*
X15468510Y-17654311D01*
X15468515Y-17654309D01*
X15571009Y-17551815D01*
X15614963Y-17475685D01*
X15643482Y-17426289D01*
X15643482Y-17426287D01*
X15643484Y-17426285D01*
X15670924Y-17323875D01*
X15704249Y-17272562D01*
X15761370Y-17250636D01*
X15766551Y-17250500D01*
X15822474Y-17250500D01*
X15822475Y-17250500D01*
X15962485Y-17212984D01*
X15962487Y-17212982D01*
X15962489Y-17212982D01*
X16088010Y-17140512D01*
X16088010Y-17140511D01*
X16088015Y-17140509D01*
X16190509Y-17038015D01*
X16262984Y-16912485D01*
X16300500Y-16772475D01*
X16300500Y-16627525D01*
X16262984Y-16487515D01*
X16262982Y-16487512D01*
X16262982Y-16487510D01*
X16190512Y-16361989D01*
X16190510Y-16361987D01*
X16190509Y-16361985D01*
X16119449Y-16290925D01*
X17569300Y-16290925D01*
X17569300Y-16435875D01*
X17569354Y-16436075D01*
X17606817Y-16575889D01*
X17679287Y-16701410D01*
X17679289Y-16701412D01*
X17679291Y-16701415D01*
X17781785Y-16803909D01*
X17781787Y-16803910D01*
X17781789Y-16803912D01*
X17907311Y-16876382D01*
X17907312Y-16876382D01*
X17907315Y-16876384D01*
X18047325Y-16913900D01*
X18047326Y-16913900D01*
X18192274Y-16913900D01*
X18192275Y-16913900D01*
X18332285Y-16876384D01*
X18332287Y-16876382D01*
X18332289Y-16876382D01*
X18457810Y-16803912D01*
X18457810Y-16803911D01*
X18457815Y-16803909D01*
X18560309Y-16701415D01*
X18560655Y-16700816D01*
X18632782Y-16575889D01*
X18632782Y-16575887D01*
X18632784Y-16575885D01*
X18670300Y-16435875D01*
X18670300Y-16290925D01*
X18632784Y-16150915D01*
X18590239Y-16077225D01*
X39904800Y-16077225D01*
X39904800Y-16222174D01*
X39942317Y-16362189D01*
X40014787Y-16487710D01*
X40014789Y-16487712D01*
X40014791Y-16487715D01*
X40117285Y-16590209D01*
X40117287Y-16590210D01*
X40117289Y-16590212D01*
X40242811Y-16662682D01*
X40242812Y-16662682D01*
X40242815Y-16662684D01*
X40382825Y-16700200D01*
X40382826Y-16700200D01*
X40527774Y-16700200D01*
X40527775Y-16700200D01*
X40667785Y-16662684D01*
X40667787Y-16662682D01*
X40667789Y-16662682D01*
X40793310Y-16590212D01*
X40793310Y-16590211D01*
X40793315Y-16590209D01*
X40895809Y-16487715D01*
X40895925Y-16487515D01*
X40925739Y-16435875D01*
X40968284Y-16362185D01*
X40971849Y-16348878D01*
X41005172Y-16297564D01*
X41062293Y-16275636D01*
X41067476Y-16275500D01*
X41166374Y-16275500D01*
X41166375Y-16275500D01*
X41306385Y-16237984D01*
X41306387Y-16237982D01*
X41306389Y-16237982D01*
X41431910Y-16165512D01*
X41431910Y-16165511D01*
X41431915Y-16165509D01*
X41534409Y-16063015D01*
X41556019Y-16025585D01*
X41606882Y-15937489D01*
X41606882Y-15937487D01*
X41606884Y-15937485D01*
X41644400Y-15797475D01*
X41644400Y-15652525D01*
X41611274Y-15528898D01*
X51821176Y-15528898D01*
X52400891Y-15528898D01*
X52377852Y-15568803D01*
X52354000Y-15657820D01*
X52354000Y-15749976D01*
X52377852Y-15838993D01*
X52400891Y-15878898D01*
X51821177Y-15878898D01*
X51838586Y-15966417D01*
X51838586Y-15966419D01*
X51906429Y-16130206D01*
X52004923Y-16277613D01*
X52130284Y-16402974D01*
X52277691Y-16501468D01*
X52441473Y-16569309D01*
X52441484Y-16569312D01*
X52529000Y-16586719D01*
X52529000Y-16007007D01*
X52568905Y-16030046D01*
X52657922Y-16053898D01*
X52750078Y-16053898D01*
X52839095Y-16030046D01*
X52879000Y-16007007D01*
X52879000Y-16586718D01*
X52966515Y-16569312D01*
X52966526Y-16569309D01*
X53130308Y-16501468D01*
X53277715Y-16402974D01*
X53403076Y-16277613D01*
X53501570Y-16130206D01*
X53569413Y-15966419D01*
X53569413Y-15966417D01*
X53586823Y-15878898D01*
X53007109Y-15878898D01*
X53030148Y-15838993D01*
X53054000Y-15749976D01*
X53054000Y-15657820D01*
X53043900Y-15620128D01*
X55445602Y-15620128D01*
X55445602Y-15787667D01*
X55478285Y-15951977D01*
X55478287Y-15951983D01*
X55542398Y-16106760D01*
X55570956Y-16149500D01*
X55635476Y-16246060D01*
X55753940Y-16364524D01*
X55893239Y-16457601D01*
X56048020Y-16521714D01*
X56212335Y-16554398D01*
X56212336Y-16554398D01*
X56379868Y-16554398D01*
X56379869Y-16554398D01*
X56544184Y-16521714D01*
X56698965Y-16457601D01*
X56838264Y-16364524D01*
X56956728Y-16246060D01*
X57049805Y-16106761D01*
X57113918Y-15951980D01*
X57146602Y-15787665D01*
X57146602Y-15620131D01*
X57113918Y-15455816D01*
X57049805Y-15301035D01*
X56956728Y-15161736D01*
X56838264Y-15043272D01*
X56698965Y-14950195D01*
X56698966Y-14950195D01*
X56698964Y-14950194D01*
X56544187Y-14886083D01*
X56544181Y-14886081D01*
X56379871Y-14853398D01*
X56379869Y-14853398D01*
X56212335Y-14853398D01*
X56212332Y-14853398D01*
X56048022Y-14886081D01*
X56048016Y-14886083D01*
X55893239Y-14950194D01*
X55753940Y-15043272D01*
X55753936Y-15043275D01*
X55635479Y-15161732D01*
X55635476Y-15161736D01*
X55542398Y-15301035D01*
X55478287Y-15455812D01*
X55478285Y-15455818D01*
X55445602Y-15620128D01*
X53043900Y-15620128D01*
X53030148Y-15568803D01*
X53007109Y-15528898D01*
X53586823Y-15528898D01*
X53569413Y-15441378D01*
X53569413Y-15441376D01*
X53501570Y-15277589D01*
X53403076Y-15130182D01*
X53277715Y-15004821D01*
X53130308Y-14906327D01*
X52966520Y-14838484D01*
X52879000Y-14821075D01*
X52879000Y-15400789D01*
X52839095Y-15377750D01*
X52750078Y-15353898D01*
X52657922Y-15353898D01*
X52568905Y-15377750D01*
X52529000Y-15400789D01*
X52529000Y-14821075D01*
X52441480Y-14838484D01*
X52441478Y-14838484D01*
X52277691Y-14906327D01*
X52130284Y-15004821D01*
X52004923Y-15130182D01*
X51906429Y-15277589D01*
X51838586Y-15441376D01*
X51838586Y-15441378D01*
X51821176Y-15528898D01*
X41611274Y-15528898D01*
X41606884Y-15512515D01*
X41606882Y-15512511D01*
X41606882Y-15512510D01*
X41534412Y-15386989D01*
X41534410Y-15386987D01*
X41534409Y-15386985D01*
X41431915Y-15284491D01*
X41431912Y-15284489D01*
X41431910Y-15284487D01*
X41306388Y-15212017D01*
X41306389Y-15212017D01*
X41276796Y-15204087D01*
X41166375Y-15174500D01*
X41021425Y-15174500D01*
X40959690Y-15191041D01*
X40881410Y-15212017D01*
X40755889Y-15284487D01*
X40653387Y-15386989D01*
X40580917Y-15512511D01*
X40580915Y-15512515D01*
X40577349Y-15525825D01*
X40544024Y-15577139D01*
X40486903Y-15599064D01*
X40481723Y-15599200D01*
X40382825Y-15599200D01*
X40321090Y-15615741D01*
X40242810Y-15636717D01*
X40117289Y-15709187D01*
X40014787Y-15811689D01*
X39942317Y-15937210D01*
X39904800Y-16077225D01*
X18590239Y-16077225D01*
X18582032Y-16063010D01*
X18560312Y-16025389D01*
X18560310Y-16025387D01*
X18560309Y-16025385D01*
X18457815Y-15922891D01*
X18457812Y-15922889D01*
X18457810Y-15922887D01*
X18332288Y-15850417D01*
X18332289Y-15850417D01*
X18243646Y-15826665D01*
X18192275Y-15812900D01*
X18047325Y-15812900D01*
X17995954Y-15826665D01*
X17907310Y-15850417D01*
X17781789Y-15922887D01*
X17679287Y-16025389D01*
X17606817Y-16150910D01*
X17597142Y-16187017D01*
X17569300Y-16290925D01*
X16119449Y-16290925D01*
X16088015Y-16259491D01*
X16088012Y-16259489D01*
X16088010Y-16259487D01*
X15962488Y-16187017D01*
X15962489Y-16187017D01*
X15932896Y-16179087D01*
X15822475Y-16149500D01*
X15677525Y-16149500D01*
X15617779Y-16165509D01*
X15537510Y-16187017D01*
X15411989Y-16259487D01*
X15309487Y-16361989D01*
X15237017Y-16487510D01*
X15236962Y-16487715D01*
X15210435Y-16586718D01*
X15209576Y-16589923D01*
X15176251Y-16641238D01*
X15119130Y-16663164D01*
X15113949Y-16663300D01*
X15058025Y-16663300D01*
X14996290Y-16679841D01*
X14918010Y-16700817D01*
X14792489Y-16773287D01*
X14689987Y-16875789D01*
X14617517Y-17001310D01*
X14607683Y-17038010D01*
X14580000Y-17141325D01*
X13302968Y-17141325D01*
X13301384Y-17135415D01*
X13301382Y-17135412D01*
X13301382Y-17135410D01*
X13228912Y-17009889D01*
X13228910Y-17009887D01*
X13228909Y-17009885D01*
X13227493Y-17008469D01*
X13226843Y-17007193D01*
X13224960Y-17004739D01*
X13225415Y-17004389D01*
X13199718Y-16953955D01*
X13209289Y-16893523D01*
X13247999Y-16852732D01*
X13332210Y-16804112D01*
X13332210Y-16804111D01*
X13332215Y-16804109D01*
X13434709Y-16701615D01*
X13434712Y-16701610D01*
X13507182Y-16576089D01*
X13507182Y-16576087D01*
X13507184Y-16576085D01*
X13544700Y-16436075D01*
X13544700Y-16291125D01*
X13507184Y-16151115D01*
X13507182Y-16151112D01*
X13507182Y-16151110D01*
X13434712Y-16025589D01*
X13434710Y-16025587D01*
X13434709Y-16025585D01*
X13332215Y-15923091D01*
X13332212Y-15923089D01*
X13332210Y-15923087D01*
X13206688Y-15850617D01*
X13206689Y-15850617D01*
X13163308Y-15838993D01*
X13066675Y-15813100D01*
X12921725Y-15813100D01*
X12871108Y-15826663D01*
X12781710Y-15850617D01*
X12656189Y-15923087D01*
X12553687Y-16025589D01*
X12481217Y-16151110D01*
X12455775Y-16246060D01*
X12443700Y-16291125D01*
X12443700Y-16436075D01*
X12457536Y-16487710D01*
X12481217Y-16576089D01*
X12553687Y-16701610D01*
X12553689Y-16701612D01*
X12553691Y-16701615D01*
X12555105Y-16703029D01*
X12555754Y-16704304D01*
X12557640Y-16706761D01*
X12557184Y-16707110D01*
X12582881Y-16757544D01*
X12573310Y-16817976D01*
X12534601Y-16858767D01*
X12450387Y-16907389D01*
X12347887Y-17009889D01*
X12275417Y-17135410D01*
X12254632Y-17212982D01*
X12237900Y-17275425D01*
X4550000Y-17275425D01*
X4550000Y-14572225D01*
X8376800Y-14572225D01*
X8376800Y-14717174D01*
X8414317Y-14857189D01*
X8486787Y-14982710D01*
X8486789Y-14982712D01*
X8486791Y-14982715D01*
X8589285Y-15085209D01*
X8589287Y-15085210D01*
X8589289Y-15085212D01*
X8714811Y-15157682D01*
X8714812Y-15157682D01*
X8714815Y-15157684D01*
X8854825Y-15195200D01*
X8854826Y-15195200D01*
X8999774Y-15195200D01*
X8999775Y-15195200D01*
X9139785Y-15157684D01*
X9139787Y-15157682D01*
X9139789Y-15157682D01*
X9265310Y-15085212D01*
X9265310Y-15085211D01*
X9265315Y-15085209D01*
X9367809Y-14982715D01*
X9367812Y-14982710D01*
X9440282Y-14857189D01*
X9440282Y-14857187D01*
X9440284Y-14857185D01*
X9477800Y-14717175D01*
X9477800Y-14572225D01*
X9440284Y-14432215D01*
X9440282Y-14432212D01*
X9440282Y-14432210D01*
X9367812Y-14306689D01*
X9367810Y-14306687D01*
X9367809Y-14306685D01*
X9265315Y-14204191D01*
X9265312Y-14204189D01*
X9265310Y-14204187D01*
X9175910Y-14152572D01*
X9139788Y-14131717D01*
X9139789Y-14131717D01*
X9110196Y-14123787D01*
X8999775Y-14094200D01*
X8854825Y-14094200D01*
X8793090Y-14110741D01*
X8714810Y-14131717D01*
X8589289Y-14204187D01*
X8486787Y-14306689D01*
X8414317Y-14432210D01*
X8376800Y-14572225D01*
X4550000Y-14572225D01*
X4550000Y-14073325D01*
X17384900Y-14073325D01*
X17384900Y-14218275D01*
X17392198Y-14245512D01*
X17422417Y-14358289D01*
X17494887Y-14483810D01*
X17494889Y-14483812D01*
X17494891Y-14483815D01*
X17597385Y-14586309D01*
X17597387Y-14586310D01*
X17597389Y-14586312D01*
X17722911Y-14658782D01*
X17722912Y-14658782D01*
X17722915Y-14658784D01*
X17862925Y-14696300D01*
X17862926Y-14696300D01*
X18007874Y-14696300D01*
X18007875Y-14696300D01*
X18147885Y-14658784D01*
X18147887Y-14658782D01*
X18147889Y-14658782D01*
X18273410Y-14586312D01*
X18273410Y-14586311D01*
X18273415Y-14586309D01*
X18375909Y-14483815D01*
X18375912Y-14483810D01*
X18448382Y-14358289D01*
X18448382Y-14358287D01*
X18448384Y-14358285D01*
X18485900Y-14218275D01*
X18485900Y-14073325D01*
X18480839Y-14054437D01*
X18484040Y-13993338D01*
X18522543Y-13945787D01*
X18550834Y-13933190D01*
X18643785Y-13908284D01*
X18643787Y-13908282D01*
X18643789Y-13908282D01*
X18769310Y-13835812D01*
X18769310Y-13835811D01*
X18769315Y-13835809D01*
X18871809Y-13733315D01*
X18929832Y-13632817D01*
X18944282Y-13607789D01*
X18944282Y-13607787D01*
X18944284Y-13607785D01*
X18981800Y-13467775D01*
X18981800Y-13322825D01*
X19984400Y-13322825D01*
X19984400Y-13467775D01*
X20013268Y-13575510D01*
X20021917Y-13607789D01*
X20094387Y-13733310D01*
X20094389Y-13733312D01*
X20094391Y-13733315D01*
X20196885Y-13835809D01*
X20196887Y-13835810D01*
X20196889Y-13835812D01*
X20322411Y-13908282D01*
X20322412Y-13908282D01*
X20322415Y-13908284D01*
X20462425Y-13945800D01*
X20462426Y-13945800D01*
X20607374Y-13945800D01*
X20607375Y-13945800D01*
X20747385Y-13908284D01*
X20747387Y-13908282D01*
X20747389Y-13908282D01*
X20872910Y-13835812D01*
X20872910Y-13835811D01*
X20872915Y-13835809D01*
X20919699Y-13789025D01*
X22722300Y-13789025D01*
X22722300Y-13933975D01*
X22746018Y-14022489D01*
X22759817Y-14073989D01*
X22832287Y-14199510D01*
X22832289Y-14199512D01*
X22832291Y-14199515D01*
X22934785Y-14302009D01*
X22934787Y-14302010D01*
X22934789Y-14302012D01*
X23060311Y-14374482D01*
X23060312Y-14374482D01*
X23060315Y-14374484D01*
X23200325Y-14412000D01*
X23200326Y-14412000D01*
X23345274Y-14412000D01*
X23345275Y-14412000D01*
X23485285Y-14374484D01*
X23485287Y-14374482D01*
X23485289Y-14374482D01*
X23610810Y-14302012D01*
X23610810Y-14302011D01*
X23610815Y-14302009D01*
X23713309Y-14199515D01*
X23743046Y-14148010D01*
X23785782Y-14073989D01*
X23785782Y-14073987D01*
X23785784Y-14073985D01*
X23823300Y-13933975D01*
X23823300Y-13789025D01*
X23785784Y-13649015D01*
X23785782Y-13649012D01*
X23785782Y-13649010D01*
X23713312Y-13523489D01*
X23713310Y-13523487D01*
X23713309Y-13523485D01*
X23610815Y-13420991D01*
X23610812Y-13420989D01*
X23610810Y-13420987D01*
X23485288Y-13348517D01*
X23485289Y-13348517D01*
X23395601Y-13324485D01*
X23345275Y-13311000D01*
X23200325Y-13311000D01*
X23156194Y-13322825D01*
X23060310Y-13348517D01*
X22934789Y-13420987D01*
X22832287Y-13523489D01*
X22759817Y-13649010D01*
X22722300Y-13789025D01*
X20919699Y-13789025D01*
X20975409Y-13733315D01*
X20975412Y-13733310D01*
X20975572Y-13733034D01*
X20994802Y-13699724D01*
X21010028Y-13673352D01*
X21055496Y-13632413D01*
X21116346Y-13626016D01*
X21121367Y-13627222D01*
X21253022Y-13662499D01*
X21253024Y-13662500D01*
X21253025Y-13662500D01*
X21397974Y-13662500D01*
X21397975Y-13662500D01*
X21537985Y-13624984D01*
X21537987Y-13624982D01*
X21537989Y-13624982D01*
X21663510Y-13552512D01*
X21663510Y-13552511D01*
X21663515Y-13552509D01*
X21766009Y-13450015D01*
X21780383Y-13425119D01*
X21838482Y-13324489D01*
X21838482Y-13324487D01*
X21838484Y-13324485D01*
X21876000Y-13184475D01*
X21876000Y-13039525D01*
X21853144Y-12954225D01*
X25001800Y-12954225D01*
X25001800Y-13099175D01*
X25026563Y-13191589D01*
X25039317Y-13239189D01*
X25111785Y-13364707D01*
X25113886Y-13367444D01*
X25114711Y-13369774D01*
X25115035Y-13370335D01*
X25114931Y-13370394D01*
X25134313Y-13425119D01*
X25121084Y-13477216D01*
X25054516Y-13592513D01*
X25035763Y-13662500D01*
X25017000Y-13732525D01*
X25017000Y-13877475D01*
X25032139Y-13933974D01*
X25054517Y-14017489D01*
X25126987Y-14143010D01*
X25126989Y-14143012D01*
X25126991Y-14143015D01*
X25229485Y-14245509D01*
X25229487Y-14245510D01*
X25229489Y-14245512D01*
X25355011Y-14317982D01*
X25355012Y-14317982D01*
X25355015Y-14317984D01*
X25495025Y-14355500D01*
X25495026Y-14355500D01*
X25639974Y-14355500D01*
X25639975Y-14355500D01*
X25779985Y-14317984D01*
X25779987Y-14317982D01*
X25779989Y-14317982D01*
X25905510Y-14245512D01*
X25905510Y-14245511D01*
X25905515Y-14245509D01*
X26008009Y-14143015D01*
X26017827Y-14126010D01*
X26080482Y-14017489D01*
X26080482Y-14017487D01*
X26080484Y-14017485D01*
X26118000Y-13877475D01*
X26118000Y-13732525D01*
X26118000Y-13732524D01*
X26117999Y-13732518D01*
X26113446Y-13715525D01*
X43079400Y-13715525D01*
X43079400Y-13860475D01*
X43102260Y-13945787D01*
X43116917Y-14000489D01*
X43189387Y-14126010D01*
X43189389Y-14126012D01*
X43189391Y-14126015D01*
X43291885Y-14228509D01*
X43291887Y-14228510D01*
X43291889Y-14228512D01*
X43417411Y-14300982D01*
X43417412Y-14300982D01*
X43417415Y-14300984D01*
X43557425Y-14338500D01*
X43557426Y-14338500D01*
X43702374Y-14338500D01*
X43702375Y-14338500D01*
X43842385Y-14300984D01*
X43842387Y-14300982D01*
X43842389Y-14300982D01*
X43967910Y-14228512D01*
X43967910Y-14228511D01*
X43967915Y-14228509D01*
X44070409Y-14126015D01*
X44070412Y-14126010D01*
X44142882Y-14000489D01*
X44142882Y-14000487D01*
X44142884Y-14000485D01*
X44180400Y-13860475D01*
X44180400Y-13737525D01*
X48533000Y-13737525D01*
X48533000Y-13882475D01*
X48546621Y-13933310D01*
X48570517Y-14022489D01*
X48642987Y-14148010D01*
X48642989Y-14148012D01*
X48642991Y-14148015D01*
X48745485Y-14250509D01*
X48745487Y-14250510D01*
X48745489Y-14250512D01*
X48871011Y-14322982D01*
X48871012Y-14322982D01*
X48871015Y-14322984D01*
X49011025Y-14360500D01*
X49011026Y-14360500D01*
X49155974Y-14360500D01*
X49155975Y-14360500D01*
X49295985Y-14322984D01*
X49295987Y-14322982D01*
X49295989Y-14322982D01*
X49421510Y-14250512D01*
X49421510Y-14250511D01*
X49421515Y-14250509D01*
X49524009Y-14148015D01*
X49566748Y-14073989D01*
X49596482Y-14022489D01*
X49596482Y-14022487D01*
X49596484Y-14022485D01*
X49634000Y-13882475D01*
X49634000Y-13737525D01*
X49596484Y-13597515D01*
X49596482Y-13597512D01*
X49596482Y-13597510D01*
X49524012Y-13471989D01*
X49524010Y-13471987D01*
X49524009Y-13471985D01*
X49421515Y-13369491D01*
X49421512Y-13369489D01*
X49421510Y-13369487D01*
X49295988Y-13297017D01*
X49295989Y-13297017D01*
X49266396Y-13289087D01*
X49155975Y-13259500D01*
X49011025Y-13259500D01*
X48949290Y-13276041D01*
X48871010Y-13297017D01*
X48745489Y-13369487D01*
X48642987Y-13471989D01*
X48570517Y-13597510D01*
X48556718Y-13649010D01*
X48533000Y-13737525D01*
X44180400Y-13737525D01*
X44180400Y-13715525D01*
X44142884Y-13575515D01*
X44142882Y-13575512D01*
X44142882Y-13575510D01*
X44102583Y-13505711D01*
X44089861Y-13445863D01*
X44114747Y-13389967D01*
X44118297Y-13386226D01*
X44187409Y-13317115D01*
X44259884Y-13191585D01*
X44297400Y-13051575D01*
X44297400Y-12906625D01*
X44259884Y-12766615D01*
X44259882Y-12766612D01*
X44259882Y-12766610D01*
X44187412Y-12641089D01*
X44187410Y-12641087D01*
X44187409Y-12641085D01*
X44084915Y-12538591D01*
X44084912Y-12538589D01*
X44084910Y-12538587D01*
X43959388Y-12466117D01*
X43959389Y-12466117D01*
X43907495Y-12452212D01*
X43819375Y-12428600D01*
X43674425Y-12428600D01*
X43612690Y-12445141D01*
X43534410Y-12466117D01*
X43408889Y-12538587D01*
X43306387Y-12641089D01*
X43233917Y-12766610D01*
X43196400Y-12906625D01*
X43196400Y-13051574D01*
X43233917Y-13191589D01*
X43274216Y-13261388D01*
X43286938Y-13321236D01*
X43262051Y-13377132D01*
X43258484Y-13380891D01*
X43189391Y-13449984D01*
X43189387Y-13449989D01*
X43116917Y-13575510D01*
X43093608Y-13662499D01*
X43079400Y-13715525D01*
X26113446Y-13715525D01*
X26080484Y-13592515D01*
X26080482Y-13592511D01*
X26008465Y-13467775D01*
X26008009Y-13466985D01*
X26008003Y-13466979D01*
X26005914Y-13464256D01*
X26005088Y-13461925D01*
X26004765Y-13461365D01*
X26004868Y-13461305D01*
X25985486Y-13406582D01*
X25998715Y-13354485D01*
X26065284Y-13239185D01*
X26102800Y-13099175D01*
X26102800Y-12954225D01*
X26065284Y-12814215D01*
X26065282Y-12814212D01*
X26065282Y-12814210D01*
X25992812Y-12688689D01*
X25992810Y-12688687D01*
X25992809Y-12688685D01*
X25890315Y-12586191D01*
X25890312Y-12586189D01*
X25890310Y-12586187D01*
X25764788Y-12513717D01*
X25764789Y-12513717D01*
X25735196Y-12505787D01*
X25624775Y-12476200D01*
X25479825Y-12476200D01*
X25418090Y-12492741D01*
X25339810Y-12513717D01*
X25214289Y-12586187D01*
X25111787Y-12688689D01*
X25039317Y-12814210D01*
X25011725Y-12917185D01*
X25001800Y-12954225D01*
X21853144Y-12954225D01*
X21838484Y-12899515D01*
X21838482Y-12899512D01*
X21838482Y-12899510D01*
X21766012Y-12773989D01*
X21766010Y-12773987D01*
X21766009Y-12773985D01*
X21663515Y-12671491D01*
X21663512Y-12671489D01*
X21663510Y-12671487D01*
X21537988Y-12599017D01*
X21537989Y-12599017D01*
X21490107Y-12586187D01*
X21397975Y-12561500D01*
X21253025Y-12561500D01*
X21191290Y-12578041D01*
X21113010Y-12599017D01*
X20987489Y-12671487D01*
X20884989Y-12773987D01*
X20850371Y-12833947D01*
X20804901Y-12874887D01*
X20744051Y-12881282D01*
X20739040Y-12880080D01*
X20607375Y-12844800D01*
X20462425Y-12844800D01*
X20441153Y-12850500D01*
X20322410Y-12882317D01*
X20196889Y-12954787D01*
X20094387Y-13057289D01*
X20021917Y-13182810D01*
X20006811Y-13239187D01*
X19984400Y-13322825D01*
X18981800Y-13322825D01*
X18944284Y-13182815D01*
X18944282Y-13182812D01*
X18944282Y-13182810D01*
X18871812Y-13057289D01*
X18871810Y-13057287D01*
X18871809Y-13057285D01*
X18769315Y-12954791D01*
X18769312Y-12954789D01*
X18769310Y-12954787D01*
X18643788Y-12882317D01*
X18643789Y-12882317D01*
X18525047Y-12850500D01*
X18503775Y-12844800D01*
X18358825Y-12844800D01*
X18337553Y-12850500D01*
X18218810Y-12882317D01*
X18093289Y-12954787D01*
X17990787Y-13057289D01*
X17918317Y-13182810D01*
X17880800Y-13322825D01*
X17880800Y-13467774D01*
X17885861Y-13486662D01*
X17882658Y-13547763D01*
X17844153Y-13595313D01*
X17815858Y-13607911D01*
X17722915Y-13632815D01*
X17722911Y-13632817D01*
X17597389Y-13705287D01*
X17494887Y-13807789D01*
X17422417Y-13933310D01*
X17389960Y-14054440D01*
X17384900Y-14073325D01*
X4550000Y-14073325D01*
X4550000Y-12227525D01*
X41499500Y-12227525D01*
X41499500Y-12372475D01*
X41511004Y-12415408D01*
X41537017Y-12512489D01*
X41609487Y-12638010D01*
X41609489Y-12638012D01*
X41609491Y-12638015D01*
X41711985Y-12740509D01*
X41711987Y-12740510D01*
X41711989Y-12740512D01*
X41837511Y-12812982D01*
X41837512Y-12812982D01*
X41837515Y-12812984D01*
X41977525Y-12850500D01*
X41977526Y-12850500D01*
X42122474Y-12850500D01*
X42122475Y-12850500D01*
X42262485Y-12812984D01*
X42262487Y-12812982D01*
X42262489Y-12812982D01*
X42388010Y-12740512D01*
X42388010Y-12740511D01*
X42388015Y-12740509D01*
X42490509Y-12638015D01*
X42496762Y-12627184D01*
X42562982Y-12512489D01*
X42562982Y-12512487D01*
X42562984Y-12512485D01*
X42600500Y-12372475D01*
X42600500Y-12227525D01*
X42562984Y-12087515D01*
X42536547Y-12041725D01*
X44777700Y-12041725D01*
X44777700Y-12186675D01*
X44788646Y-12227525D01*
X44815217Y-12326689D01*
X44887687Y-12452210D01*
X44887689Y-12452212D01*
X44887691Y-12452215D01*
X44990185Y-12554709D01*
X44990187Y-12554710D01*
X44990189Y-12554712D01*
X45115711Y-12627182D01*
X45115712Y-12627182D01*
X45115715Y-12627184D01*
X45255725Y-12664700D01*
X45255726Y-12664700D01*
X45400674Y-12664700D01*
X45400675Y-12664700D01*
X45540685Y-12627184D01*
X45540687Y-12627182D01*
X45540689Y-12627182D01*
X45666210Y-12554712D01*
X45666210Y-12554711D01*
X45666215Y-12554709D01*
X45768709Y-12452215D01*
X45789960Y-12415406D01*
X45835428Y-12374467D01*
X45896278Y-12368070D01*
X45949266Y-12398662D01*
X45961432Y-12415406D01*
X45986088Y-12458110D01*
X45986091Y-12458115D01*
X46088585Y-12560609D01*
X46088587Y-12560610D01*
X46088589Y-12560612D01*
X46214111Y-12633082D01*
X46214112Y-12633082D01*
X46214115Y-12633084D01*
X46354125Y-12670600D01*
X46354126Y-12670600D01*
X46499074Y-12670600D01*
X46499075Y-12670600D01*
X46639085Y-12633084D01*
X46639087Y-12633082D01*
X46639089Y-12633082D01*
X46764610Y-12560612D01*
X46764610Y-12560611D01*
X46764615Y-12560609D01*
X46867109Y-12458115D01*
X46891767Y-12415406D01*
X46939582Y-12332589D01*
X46939582Y-12332587D01*
X46939584Y-12332585D01*
X46977100Y-12192575D01*
X46977100Y-12047625D01*
X46939584Y-11907615D01*
X46939582Y-11907612D01*
X46939582Y-11907610D01*
X46867112Y-11782089D01*
X46867110Y-11782087D01*
X46867109Y-11782085D01*
X46764615Y-11679591D01*
X46764612Y-11679589D01*
X46764610Y-11679587D01*
X46639088Y-11607117D01*
X46639089Y-11607117D01*
X46609496Y-11599187D01*
X46499075Y-11569600D01*
X46354125Y-11569600D01*
X46292390Y-11586141D01*
X46214110Y-11607117D01*
X46088589Y-11679587D01*
X45986089Y-11782087D01*
X45964839Y-11818893D01*
X45919369Y-11859834D01*
X45858518Y-11866228D01*
X45805531Y-11835635D01*
X45793367Y-11818893D01*
X45772118Y-11782089D01*
X45768709Y-11776185D01*
X45666215Y-11673691D01*
X45666212Y-11673689D01*
X45666210Y-11673687D01*
X45540688Y-11601217D01*
X45540689Y-11601217D01*
X45470743Y-11582475D01*
X45400675Y-11563700D01*
X45255725Y-11563700D01*
X45193990Y-11580241D01*
X45115710Y-11601217D01*
X44990189Y-11673687D01*
X44887687Y-11776189D01*
X44815217Y-11901710D01*
X44799066Y-11961986D01*
X44777700Y-12041725D01*
X42536547Y-12041725D01*
X42490509Y-11961985D01*
X42388015Y-11859491D01*
X42388012Y-11859489D01*
X42388010Y-11859487D01*
X42262488Y-11787017D01*
X42262489Y-11787017D01*
X42232896Y-11779087D01*
X42122475Y-11749500D01*
X41977525Y-11749500D01*
X41915790Y-11766041D01*
X41837510Y-11787017D01*
X41711989Y-11859487D01*
X41609487Y-11961989D01*
X41537017Y-12087510D01*
X41499500Y-12227525D01*
X4550000Y-12227525D01*
X4550000Y-10856125D01*
X20352000Y-10856125D01*
X20352000Y-11001074D01*
X20389517Y-11141089D01*
X20461987Y-11266610D01*
X20461989Y-11266612D01*
X20461991Y-11266615D01*
X20564485Y-11369109D01*
X20564487Y-11369110D01*
X20564489Y-11369112D01*
X20690011Y-11441582D01*
X20690012Y-11441582D01*
X20690015Y-11441584D01*
X20830025Y-11479100D01*
X20830026Y-11479100D01*
X20974974Y-11479100D01*
X20974975Y-11479100D01*
X21114985Y-11441584D01*
X21114987Y-11441582D01*
X21114989Y-11441582D01*
X21122016Y-11437525D01*
X33326200Y-11437525D01*
X33326200Y-11582475D01*
X33350642Y-11673691D01*
X33363717Y-11722489D01*
X33436187Y-11848010D01*
X33436189Y-11848012D01*
X33436191Y-11848015D01*
X33538685Y-11950509D01*
X33538687Y-11950510D01*
X33538689Y-11950512D01*
X33664211Y-12022982D01*
X33664212Y-12022982D01*
X33664215Y-12022984D01*
X33804225Y-12060500D01*
X33804226Y-12060500D01*
X33949174Y-12060500D01*
X33949175Y-12060500D01*
X34089185Y-12022984D01*
X34089187Y-12022982D01*
X34089189Y-12022982D01*
X34214710Y-11950512D01*
X34214710Y-11950511D01*
X34214715Y-11950509D01*
X34317209Y-11848015D01*
X34334023Y-11818893D01*
X34389682Y-11722489D01*
X34389682Y-11722487D01*
X34389684Y-11722485D01*
X34427200Y-11582475D01*
X34427200Y-11437525D01*
X34389684Y-11297515D01*
X34389682Y-11297512D01*
X34389682Y-11297510D01*
X34317212Y-11171989D01*
X34317210Y-11171987D01*
X34317209Y-11171985D01*
X34214715Y-11069491D01*
X34214712Y-11069489D01*
X34214710Y-11069487D01*
X34089188Y-10997017D01*
X34089189Y-10997017D01*
X34059596Y-10989087D01*
X33949175Y-10959500D01*
X33804225Y-10959500D01*
X33742490Y-10976041D01*
X33664210Y-10997017D01*
X33538689Y-11069487D01*
X33436187Y-11171989D01*
X33363717Y-11297510D01*
X33363716Y-11297515D01*
X33326200Y-11437525D01*
X21122016Y-11437525D01*
X21240510Y-11369112D01*
X21240510Y-11369111D01*
X21240515Y-11369109D01*
X21343009Y-11266615D01*
X21415484Y-11141085D01*
X21453000Y-11001075D01*
X21453000Y-10856125D01*
X21415484Y-10716115D01*
X21415482Y-10716112D01*
X21415482Y-10716110D01*
X21343012Y-10590589D01*
X21343010Y-10590587D01*
X21343009Y-10590585D01*
X21240515Y-10488091D01*
X21240512Y-10488089D01*
X21240510Y-10488087D01*
X21135613Y-10427525D01*
X27702700Y-10427525D01*
X27702700Y-10572474D01*
X27740217Y-10712489D01*
X27812687Y-10838010D01*
X27812689Y-10838012D01*
X27812691Y-10838015D01*
X27915185Y-10940509D01*
X27915187Y-10940510D01*
X27915189Y-10940512D01*
X28040711Y-11012982D01*
X28040712Y-11012982D01*
X28040715Y-11012984D01*
X28180725Y-11050500D01*
X28180726Y-11050500D01*
X28325674Y-11050500D01*
X28325675Y-11050500D01*
X28465685Y-11012984D01*
X28465687Y-11012982D01*
X28465689Y-11012982D01*
X28591210Y-10940512D01*
X28591210Y-10940511D01*
X28591215Y-10940509D01*
X28693709Y-10838015D01*
X28693712Y-10838010D01*
X28766182Y-10712489D01*
X28766182Y-10712487D01*
X28766184Y-10712485D01*
X28803700Y-10572475D01*
X28803700Y-10427525D01*
X28766184Y-10287515D01*
X28766182Y-10287512D01*
X28766182Y-10287510D01*
X28766181Y-10287508D01*
X28710945Y-10191839D01*
X28693709Y-10161985D01*
X28680549Y-10148825D01*
X44660800Y-10148825D01*
X44660800Y-10293774D01*
X44698317Y-10433789D01*
X44770787Y-10559310D01*
X44770789Y-10559312D01*
X44770791Y-10559315D01*
X44873285Y-10661809D01*
X44873287Y-10661810D01*
X44873289Y-10661812D01*
X44998811Y-10734282D01*
X44998812Y-10734282D01*
X44998815Y-10734284D01*
X45138825Y-10771800D01*
X45138826Y-10771800D01*
X45283774Y-10771800D01*
X45283775Y-10771800D01*
X45423785Y-10734284D01*
X45423787Y-10734282D01*
X45423789Y-10734282D01*
X45549310Y-10661812D01*
X45549310Y-10661811D01*
X45549315Y-10661809D01*
X45651809Y-10559315D01*
X45651812Y-10559310D01*
X45724282Y-10433789D01*
X45724282Y-10433787D01*
X45724284Y-10433785D01*
X45761800Y-10293775D01*
X45761800Y-10148825D01*
X45724284Y-10008815D01*
X45724282Y-10008812D01*
X45724282Y-10008810D01*
X45651812Y-9883289D01*
X45651810Y-9883287D01*
X45651809Y-9883285D01*
X45549315Y-9780791D01*
X45549312Y-9780789D01*
X45549310Y-9780787D01*
X45423788Y-9708317D01*
X45423789Y-9708317D01*
X45394196Y-9700387D01*
X45283775Y-9670800D01*
X45138825Y-9670800D01*
X45077090Y-9687341D01*
X44998810Y-9708317D01*
X44873289Y-9780787D01*
X44770787Y-9883289D01*
X44698317Y-10008810D01*
X44660800Y-10148825D01*
X28680549Y-10148825D01*
X28591215Y-10059491D01*
X28591212Y-10059489D01*
X28591210Y-10059487D01*
X28465688Y-9987017D01*
X28465689Y-9987017D01*
X28436096Y-9979087D01*
X28325675Y-9949500D01*
X28180725Y-9949500D01*
X28118990Y-9966041D01*
X28040710Y-9987017D01*
X27915189Y-10059487D01*
X27812687Y-10161989D01*
X27740219Y-10287508D01*
X27740217Y-10287510D01*
X27702700Y-10427525D01*
X21135613Y-10427525D01*
X21114988Y-10415617D01*
X21114989Y-10415617D01*
X21085396Y-10407687D01*
X20974975Y-10378100D01*
X20830025Y-10378100D01*
X20768290Y-10394641D01*
X20690010Y-10415617D01*
X20564489Y-10488087D01*
X20461987Y-10590589D01*
X20389517Y-10716110D01*
X20352000Y-10856125D01*
X4550000Y-10856125D01*
X4550000Y-9434125D01*
X19725800Y-9434125D01*
X19725800Y-9579075D01*
X19736869Y-9620385D01*
X19763317Y-9719089D01*
X19835787Y-9844610D01*
X19835789Y-9844612D01*
X19835791Y-9844615D01*
X19938285Y-9947109D01*
X19938287Y-9947110D01*
X19938289Y-9947112D01*
X20063811Y-10019582D01*
X20063812Y-10019582D01*
X20063815Y-10019584D01*
X20203825Y-10057100D01*
X20203826Y-10057100D01*
X20348774Y-10057100D01*
X20348775Y-10057100D01*
X20488785Y-10019584D01*
X20488787Y-10019582D01*
X20488789Y-10019582D01*
X20614310Y-9947112D01*
X20614310Y-9947111D01*
X20614315Y-9947109D01*
X20716809Y-9844615D01*
X20789284Y-9719085D01*
X20826800Y-9579075D01*
X20826800Y-9434125D01*
X20805480Y-9354558D01*
X20805480Y-9354556D01*
X20800354Y-9335425D01*
X21030100Y-9335425D01*
X21030100Y-9480375D01*
X21034835Y-9498047D01*
X21067617Y-9620389D01*
X21140087Y-9745910D01*
X21140089Y-9745912D01*
X21140091Y-9745915D01*
X21242585Y-9848409D01*
X21242587Y-9848410D01*
X21242589Y-9848412D01*
X21368111Y-9920882D01*
X21368112Y-9920882D01*
X21368115Y-9920884D01*
X21508125Y-9958400D01*
X21508126Y-9958400D01*
X21653074Y-9958400D01*
X21653075Y-9958400D01*
X21793085Y-9920884D01*
X21793087Y-9920882D01*
X21793089Y-9920882D01*
X21918610Y-9848412D01*
X21918610Y-9848411D01*
X21918615Y-9848409D01*
X22021109Y-9745915D01*
X22035960Y-9720192D01*
X22093582Y-9620389D01*
X22093582Y-9620387D01*
X22093584Y-9620385D01*
X22102152Y-9588408D01*
X22754500Y-9588408D01*
X22754500Y-9720192D01*
X22784579Y-9832451D01*
X22788609Y-9847490D01*
X22854496Y-9961609D01*
X22854498Y-9961611D01*
X22854500Y-9961614D01*
X22947686Y-10054800D01*
X22947688Y-10054801D01*
X22947690Y-10054803D01*
X23061810Y-10120690D01*
X23061808Y-10120690D01*
X23061812Y-10120691D01*
X23061814Y-10120692D01*
X23189108Y-10154800D01*
X23189110Y-10154800D01*
X23320890Y-10154800D01*
X23320892Y-10154800D01*
X23448186Y-10120692D01*
X23448188Y-10120690D01*
X23448190Y-10120690D01*
X23562309Y-10054803D01*
X23562309Y-10054802D01*
X23562314Y-10054800D01*
X23655500Y-9961614D01*
X23663873Y-9947112D01*
X23721390Y-9847490D01*
X23721390Y-9847488D01*
X23721392Y-9847486D01*
X23755500Y-9720192D01*
X23755500Y-9588408D01*
X23721392Y-9461114D01*
X23721390Y-9461111D01*
X23721390Y-9461109D01*
X23655503Y-9346990D01*
X23655501Y-9346988D01*
X23655500Y-9346986D01*
X23562314Y-9253800D01*
X23562311Y-9253798D01*
X23562309Y-9253796D01*
X23448189Y-9187909D01*
X23448191Y-9187909D01*
X23398799Y-9174675D01*
X23320892Y-9153800D01*
X23189108Y-9153800D01*
X23111200Y-9174675D01*
X23061809Y-9187909D01*
X22947690Y-9253796D01*
X22854496Y-9346990D01*
X22788609Y-9461109D01*
X22774487Y-9513814D01*
X22754500Y-9588408D01*
X22102152Y-9588408D01*
X22131100Y-9480375D01*
X22131100Y-9335425D01*
X22093584Y-9195415D01*
X22093582Y-9195412D01*
X22093582Y-9195410D01*
X22021112Y-9069889D01*
X22021110Y-9069887D01*
X22021109Y-9069885D01*
X21942892Y-8991668D01*
X21915117Y-8937154D01*
X21924688Y-8876722D01*
X21963397Y-8835931D01*
X21992015Y-8819409D01*
X22057773Y-8753651D01*
X51712079Y-8753651D01*
X51712079Y-8921190D01*
X51721269Y-8967390D01*
X51741657Y-9069889D01*
X51744763Y-9085501D01*
X51744763Y-9085503D01*
X51808872Y-9240279D01*
X51808878Y-9240290D01*
X51844841Y-9294111D01*
X51901952Y-9379583D01*
X52020417Y-9498048D01*
X52092929Y-9546499D01*
X52159709Y-9591121D01*
X52159720Y-9591127D01*
X52216896Y-9614809D01*
X52314498Y-9655237D01*
X52478812Y-9687921D01*
X52478813Y-9687921D01*
X52646345Y-9687921D01*
X52646346Y-9687921D01*
X52810660Y-9655237D01*
X52965442Y-9591125D01*
X53104741Y-9498048D01*
X53506048Y-9096741D01*
X53599125Y-8957442D01*
X53663237Y-8802660D01*
X53695921Y-8638346D01*
X53695921Y-8612230D01*
X55445602Y-8612230D01*
X55445602Y-8779769D01*
X55478285Y-8944079D01*
X55478287Y-8944085D01*
X55542398Y-9098862D01*
X55542399Y-9098863D01*
X55635476Y-9238162D01*
X55753940Y-9356626D01*
X55893239Y-9449703D01*
X56048020Y-9513816D01*
X56212335Y-9546500D01*
X56212336Y-9546500D01*
X56379868Y-9546500D01*
X56379869Y-9546500D01*
X56544184Y-9513816D01*
X56698965Y-9449703D01*
X56838264Y-9356626D01*
X56956728Y-9238162D01*
X57049805Y-9098863D01*
X57113918Y-8944082D01*
X57146602Y-8779767D01*
X57146602Y-8612233D01*
X57113918Y-8447918D01*
X57049805Y-8293137D01*
X56956728Y-8153838D01*
X56838264Y-8035374D01*
X56698965Y-7942297D01*
X56698966Y-7942297D01*
X56698964Y-7942296D01*
X56544187Y-7878185D01*
X56544181Y-7878183D01*
X56379871Y-7845500D01*
X56379869Y-7845500D01*
X56212335Y-7845500D01*
X56212332Y-7845500D01*
X56048022Y-7878183D01*
X56048016Y-7878185D01*
X55893239Y-7942296D01*
X55753940Y-8035374D01*
X55753936Y-8035377D01*
X55635479Y-8153834D01*
X55635476Y-8153838D01*
X55542398Y-8293137D01*
X55478287Y-8447914D01*
X55478285Y-8447920D01*
X55445602Y-8612230D01*
X53695921Y-8612230D01*
X53695921Y-8470812D01*
X53663237Y-8306498D01*
X53641866Y-8254904D01*
X53599127Y-8151720D01*
X53599121Y-8151709D01*
X53525072Y-8040889D01*
X53506048Y-8012417D01*
X53387583Y-7893952D01*
X53315070Y-7845500D01*
X53248290Y-7800878D01*
X53248279Y-7800872D01*
X53093502Y-7736763D01*
X52929190Y-7704079D01*
X52929188Y-7704079D01*
X52761654Y-7704079D01*
X52761651Y-7704079D01*
X52597340Y-7736763D01*
X52597338Y-7736763D01*
X52442562Y-7800872D01*
X52442551Y-7800878D01*
X52303259Y-7893952D01*
X52303255Y-7893955D01*
X51901955Y-8295255D01*
X51901952Y-8295259D01*
X51808878Y-8434551D01*
X51808872Y-8434562D01*
X51744763Y-8589338D01*
X51744763Y-8589340D01*
X51712079Y-8753651D01*
X22057773Y-8753651D01*
X22094509Y-8716915D01*
X22100131Y-8707177D01*
X22104686Y-8699289D01*
X22154949Y-8612230D01*
X22166984Y-8591385D01*
X22204500Y-8451375D01*
X22204500Y-8306425D01*
X22166984Y-8166415D01*
X22166982Y-8166412D01*
X22166982Y-8166410D01*
X22094512Y-8040889D01*
X22094510Y-8040887D01*
X22094509Y-8040885D01*
X21992015Y-7938391D01*
X21992012Y-7938389D01*
X21992010Y-7938387D01*
X21866488Y-7865917D01*
X21866489Y-7865917D01*
X21790292Y-7845500D01*
X21726475Y-7828400D01*
X21581525Y-7828400D01*
X21519790Y-7844941D01*
X21441510Y-7865917D01*
X21315989Y-7938387D01*
X21213487Y-8040889D01*
X21141017Y-8166410D01*
X21141016Y-8166415D01*
X21103500Y-8306425D01*
X21103500Y-8451375D01*
X21133087Y-8561796D01*
X21141017Y-8591389D01*
X21213487Y-8716910D01*
X21213489Y-8716912D01*
X21213491Y-8716915D01*
X21291706Y-8795130D01*
X21319482Y-8849645D01*
X21309911Y-8910077D01*
X21271203Y-8950868D01*
X21242586Y-8967390D01*
X21140087Y-9069889D01*
X21067617Y-9195410D01*
X21041170Y-9294110D01*
X21030100Y-9335425D01*
X20800354Y-9335425D01*
X20789284Y-9294115D01*
X20789282Y-9294111D01*
X20716812Y-9168589D01*
X20716810Y-9168587D01*
X20716809Y-9168585D01*
X20614315Y-9066091D01*
X20614312Y-9066089D01*
X20614310Y-9066087D01*
X20488788Y-8993617D01*
X20488789Y-8993617D01*
X20459196Y-8985687D01*
X20348775Y-8956100D01*
X20203825Y-8956100D01*
X20161691Y-8967390D01*
X20063810Y-8993617D01*
X19938289Y-9066087D01*
X19835787Y-9168589D01*
X19763317Y-9294110D01*
X19763316Y-9294115D01*
X19725800Y-9434125D01*
X4550000Y-9434125D01*
X4550000Y-7010225D01*
X41972100Y-7010225D01*
X41972100Y-7155174D01*
X42009617Y-7295189D01*
X42082087Y-7420710D01*
X42082089Y-7420712D01*
X42082091Y-7420715D01*
X42184585Y-7523209D01*
X42184587Y-7523210D01*
X42184589Y-7523212D01*
X42310111Y-7595682D01*
X42310112Y-7595682D01*
X42310115Y-7595684D01*
X42450125Y-7633200D01*
X42450126Y-7633200D01*
X42595074Y-7633200D01*
X42595075Y-7633200D01*
X42735085Y-7595684D01*
X42735087Y-7595682D01*
X42735089Y-7595682D01*
X42860610Y-7523212D01*
X42860610Y-7523211D01*
X42860615Y-7523209D01*
X42963109Y-7420715D01*
X43035584Y-7295185D01*
X43073100Y-7155175D01*
X43073100Y-7010225D01*
X43035584Y-6870215D01*
X43035582Y-6870212D01*
X43035582Y-6870210D01*
X42963112Y-6744689D01*
X42963110Y-6744687D01*
X42963109Y-6744685D01*
X42860615Y-6642191D01*
X42860612Y-6642189D01*
X42860610Y-6642187D01*
X42735088Y-6569717D01*
X42735089Y-6569717D01*
X42626084Y-6540509D01*
X42595075Y-6532200D01*
X42450125Y-6532200D01*
X42419116Y-6540509D01*
X42310110Y-6569717D01*
X42184589Y-6642187D01*
X42082087Y-6744689D01*
X42009617Y-6870210D01*
X41972100Y-7010225D01*
X4550000Y-7010225D01*
X4550000Y-5736125D01*
X26984900Y-5736125D01*
X26984900Y-5881075D01*
X26995789Y-5921712D01*
X27022417Y-6021089D01*
X27094887Y-6146610D01*
X27094889Y-6146612D01*
X27094891Y-6146615D01*
X27197385Y-6249109D01*
X27197387Y-6249110D01*
X27197389Y-6249112D01*
X27322911Y-6321582D01*
X27322912Y-6321582D01*
X27322915Y-6321584D01*
X27462925Y-6359100D01*
X27462926Y-6359100D01*
X27607874Y-6359100D01*
X27607875Y-6359100D01*
X27747885Y-6321584D01*
X27747887Y-6321582D01*
X27747889Y-6321582D01*
X27873410Y-6249112D01*
X27873410Y-6249111D01*
X27873415Y-6249109D01*
X27975909Y-6146615D01*
X28044666Y-6027525D01*
X35749500Y-6027525D01*
X35749500Y-6172474D01*
X35787017Y-6312489D01*
X35859487Y-6438010D01*
X35859489Y-6438012D01*
X35859491Y-6438015D01*
X35961985Y-6540509D01*
X35961987Y-6540510D01*
X35961989Y-6540512D01*
X36087511Y-6612982D01*
X36087512Y-6612982D01*
X36087515Y-6612984D01*
X36227525Y-6650500D01*
X36227526Y-6650500D01*
X36372474Y-6650500D01*
X36372475Y-6650500D01*
X36512485Y-6612984D01*
X36512487Y-6612982D01*
X36512489Y-6612982D01*
X36638010Y-6540512D01*
X36638010Y-6540511D01*
X36638015Y-6540509D01*
X36740509Y-6438015D01*
X36812984Y-6312485D01*
X36850500Y-6172475D01*
X36850500Y-6027525D01*
X43349500Y-6027525D01*
X43349500Y-6172474D01*
X43387017Y-6312489D01*
X43459487Y-6438010D01*
X43459489Y-6438012D01*
X43459491Y-6438015D01*
X43561985Y-6540509D01*
X43561987Y-6540510D01*
X43561989Y-6540512D01*
X43687511Y-6612982D01*
X43687512Y-6612982D01*
X43687515Y-6612984D01*
X43827525Y-6650500D01*
X43827526Y-6650500D01*
X43972474Y-6650500D01*
X43972475Y-6650500D01*
X44112485Y-6612984D01*
X44112487Y-6612982D01*
X44112489Y-6612982D01*
X44238010Y-6540512D01*
X44238010Y-6540511D01*
X44238015Y-6540509D01*
X44340509Y-6438015D01*
X44412984Y-6312485D01*
X44450500Y-6172475D01*
X44450500Y-6027525D01*
X44412984Y-5887515D01*
X44412982Y-5887512D01*
X44412982Y-5887510D01*
X44340512Y-5761989D01*
X44340510Y-5761987D01*
X44340509Y-5761985D01*
X44238015Y-5659491D01*
X44238012Y-5659489D01*
X44238010Y-5659487D01*
X44112488Y-5587017D01*
X44112489Y-5587017D01*
X44082896Y-5579087D01*
X43972475Y-5549500D01*
X43827525Y-5549500D01*
X43765790Y-5566041D01*
X43687510Y-5587017D01*
X43561989Y-5659487D01*
X43459487Y-5761989D01*
X43387017Y-5887510D01*
X43349500Y-6027525D01*
X36850500Y-6027525D01*
X36812984Y-5887515D01*
X36812982Y-5887512D01*
X36812982Y-5887510D01*
X36740512Y-5761989D01*
X36740510Y-5761987D01*
X36740509Y-5761985D01*
X36638015Y-5659491D01*
X36638012Y-5659489D01*
X36638010Y-5659487D01*
X36512488Y-5587017D01*
X36512489Y-5587017D01*
X36482896Y-5579087D01*
X36372475Y-5549500D01*
X36227525Y-5549500D01*
X36165790Y-5566041D01*
X36087510Y-5587017D01*
X35961989Y-5659487D01*
X35859487Y-5761989D01*
X35787017Y-5887510D01*
X35749500Y-6027525D01*
X28044666Y-6027525D01*
X28048384Y-6021085D01*
X28085900Y-5881075D01*
X28085900Y-5736125D01*
X28048384Y-5596115D01*
X28048382Y-5596112D01*
X28048382Y-5596110D01*
X27975912Y-5470589D01*
X27975910Y-5470587D01*
X27975909Y-5470585D01*
X27873415Y-5368091D01*
X27873412Y-5368089D01*
X27873410Y-5368087D01*
X27747888Y-5295617D01*
X27747889Y-5295617D01*
X27685493Y-5278898D01*
X27607875Y-5258100D01*
X27462925Y-5258100D01*
X27401190Y-5274641D01*
X27322910Y-5295617D01*
X27197389Y-5368087D01*
X27094887Y-5470589D01*
X27022417Y-5596110D01*
X27022416Y-5596115D01*
X26984900Y-5736125D01*
X4550000Y-5736125D01*
X4550000Y-4927525D01*
X44439500Y-4927525D01*
X44439500Y-5072474D01*
X44477017Y-5212489D01*
X44549487Y-5338010D01*
X44549489Y-5338012D01*
X44549491Y-5338015D01*
X44651985Y-5440509D01*
X44651987Y-5440510D01*
X44651989Y-5440512D01*
X44777511Y-5512982D01*
X44777512Y-5512982D01*
X44777515Y-5512984D01*
X44917525Y-5550500D01*
X44917526Y-5550500D01*
X45062474Y-5550500D01*
X45062475Y-5550500D01*
X45202485Y-5512984D01*
X45202487Y-5512982D01*
X45202489Y-5512982D01*
X45328010Y-5440512D01*
X45328010Y-5440511D01*
X45328015Y-5440509D01*
X45430509Y-5338015D01*
X45464640Y-5278899D01*
X45502982Y-5212489D01*
X45502982Y-5212487D01*
X45502984Y-5212485D01*
X45540500Y-5072475D01*
X45540500Y-4928898D01*
X51821176Y-4928898D01*
X52400891Y-4928898D01*
X52377852Y-4968803D01*
X52354000Y-5057820D01*
X52354000Y-5149976D01*
X52377852Y-5238993D01*
X52400891Y-5278898D01*
X51821177Y-5278898D01*
X51838586Y-5366417D01*
X51838586Y-5366419D01*
X51906429Y-5530206D01*
X52004923Y-5677613D01*
X52130284Y-5802974D01*
X52277691Y-5901468D01*
X52441473Y-5969309D01*
X52441484Y-5969312D01*
X52529000Y-5986719D01*
X52529000Y-5407007D01*
X52568905Y-5430046D01*
X52657922Y-5453898D01*
X52750078Y-5453898D01*
X52839095Y-5430046D01*
X52879000Y-5407007D01*
X52879000Y-5986718D01*
X52966515Y-5969312D01*
X52966526Y-5969309D01*
X53130308Y-5901468D01*
X53277715Y-5802974D01*
X53403076Y-5677613D01*
X53501570Y-5530206D01*
X53569413Y-5366419D01*
X53569413Y-5366417D01*
X53586823Y-5278898D01*
X53007109Y-5278898D01*
X53030148Y-5238993D01*
X53054000Y-5149976D01*
X53054000Y-5057820D01*
X53043900Y-5020128D01*
X55445602Y-5020128D01*
X55445602Y-5187667D01*
X55478285Y-5351977D01*
X55478287Y-5351983D01*
X55542398Y-5506760D01*
X55570956Y-5549500D01*
X55635476Y-5646060D01*
X55753940Y-5764524D01*
X55893239Y-5857601D01*
X56048020Y-5921714D01*
X56212335Y-5954398D01*
X56212336Y-5954398D01*
X56379868Y-5954398D01*
X56379869Y-5954398D01*
X56544184Y-5921714D01*
X56698965Y-5857601D01*
X56838264Y-5764524D01*
X56956728Y-5646060D01*
X57049805Y-5506761D01*
X57113918Y-5351980D01*
X57146602Y-5187665D01*
X57146602Y-5020131D01*
X57113918Y-4855816D01*
X57049805Y-4701035D01*
X56956728Y-4561736D01*
X56838264Y-4443272D01*
X56698965Y-4350195D01*
X56698966Y-4350195D01*
X56698964Y-4350194D01*
X56544187Y-4286083D01*
X56544181Y-4286081D01*
X56379871Y-4253398D01*
X56379869Y-4253398D01*
X56212335Y-4253398D01*
X56212332Y-4253398D01*
X56048022Y-4286081D01*
X56048016Y-4286083D01*
X55893239Y-4350194D01*
X55753940Y-4443272D01*
X55753936Y-4443275D01*
X55635479Y-4561732D01*
X55635476Y-4561736D01*
X55542398Y-4701035D01*
X55478287Y-4855812D01*
X55478285Y-4855818D01*
X55445602Y-5020128D01*
X53043900Y-5020128D01*
X53030148Y-4968803D01*
X53007109Y-4928898D01*
X53586823Y-4928898D01*
X53569413Y-4841378D01*
X53569413Y-4841376D01*
X53501570Y-4677589D01*
X53403076Y-4530182D01*
X53277715Y-4404821D01*
X53130308Y-4306327D01*
X52966520Y-4238484D01*
X52879000Y-4221075D01*
X52879000Y-4800789D01*
X52839095Y-4777750D01*
X52750078Y-4753898D01*
X52657922Y-4753898D01*
X52568905Y-4777750D01*
X52529000Y-4800789D01*
X52529000Y-4221075D01*
X52441480Y-4238484D01*
X52441478Y-4238484D01*
X52277691Y-4306327D01*
X52130284Y-4404821D01*
X52004923Y-4530182D01*
X51906429Y-4677589D01*
X51838586Y-4841376D01*
X51838586Y-4841378D01*
X51821176Y-4928898D01*
X45540500Y-4928898D01*
X45540500Y-4927525D01*
X45502984Y-4787515D01*
X45502982Y-4787512D01*
X45502982Y-4787510D01*
X45430512Y-4661989D01*
X45430510Y-4661987D01*
X45430509Y-4661985D01*
X45328015Y-4559491D01*
X45328012Y-4559489D01*
X45328010Y-4559487D01*
X45202488Y-4487017D01*
X45202489Y-4487017D01*
X45172896Y-4479087D01*
X45062475Y-4449500D01*
X44917525Y-4449500D01*
X44855790Y-4466041D01*
X44777510Y-4487017D01*
X44651989Y-4559487D01*
X44549487Y-4661989D01*
X44477017Y-4787510D01*
X44439500Y-4927525D01*
X4550000Y-4927525D01*
X4550000Y-2298425D01*
X5849500Y-2298425D01*
X5849500Y-2443375D01*
X5856135Y-2468137D01*
X5887017Y-2583389D01*
X5959487Y-2708910D01*
X5959489Y-2708912D01*
X5959491Y-2708915D01*
X6061985Y-2811409D01*
X6061987Y-2811410D01*
X6061989Y-2811412D01*
X6187511Y-2883882D01*
X6187512Y-2883882D01*
X6187515Y-2883884D01*
X6327525Y-2921400D01*
X6327526Y-2921400D01*
X6472474Y-2921400D01*
X6472475Y-2921400D01*
X6612485Y-2883884D01*
X6612487Y-2883882D01*
X6612489Y-2883882D01*
X6738010Y-2811412D01*
X6738010Y-2811411D01*
X6738015Y-2811409D01*
X6840509Y-2708915D01*
X6840512Y-2708910D01*
X6912982Y-2583389D01*
X6912982Y-2583387D01*
X6912984Y-2583385D01*
X6950500Y-2443375D01*
X6950500Y-2298425D01*
X6945596Y-2280125D01*
X10123600Y-2280125D01*
X10123600Y-2425074D01*
X10161117Y-2565089D01*
X10233587Y-2690610D01*
X10233589Y-2690612D01*
X10233591Y-2690615D01*
X10336085Y-2793109D01*
X10336087Y-2793110D01*
X10336089Y-2793112D01*
X10461611Y-2865582D01*
X10461612Y-2865582D01*
X10461615Y-2865584D01*
X10601625Y-2903100D01*
X10601626Y-2903100D01*
X10746574Y-2903100D01*
X10746575Y-2903100D01*
X10886585Y-2865584D01*
X10886587Y-2865582D01*
X10886589Y-2865582D01*
X11012110Y-2793112D01*
X11012110Y-2793111D01*
X11012115Y-2793109D01*
X11114609Y-2690615D01*
X11176516Y-2583389D01*
X11187082Y-2565089D01*
X11187082Y-2565087D01*
X11187084Y-2565085D01*
X11224600Y-2425075D01*
X11224600Y-2287425D01*
X13877200Y-2287425D01*
X13877200Y-2432375D01*
X13886782Y-2468135D01*
X13914717Y-2572389D01*
X13987187Y-2697910D01*
X13987189Y-2697912D01*
X13987191Y-2697915D01*
X14089685Y-2800409D01*
X14089687Y-2800410D01*
X14089689Y-2800412D01*
X14215211Y-2872882D01*
X14215212Y-2872882D01*
X14215215Y-2872884D01*
X14355225Y-2910400D01*
X14355226Y-2910400D01*
X14500174Y-2910400D01*
X14500175Y-2910400D01*
X14640185Y-2872884D01*
X14640187Y-2872882D01*
X14640189Y-2872882D01*
X14765710Y-2800412D01*
X14765710Y-2800411D01*
X14765715Y-2800409D01*
X14868209Y-2697915D01*
X14940684Y-2572385D01*
X14978200Y-2432375D01*
X14978200Y-2287425D01*
X14976914Y-2282625D01*
X17432200Y-2282625D01*
X17432200Y-2427575D01*
X17436434Y-2443375D01*
X17469717Y-2567589D01*
X17542187Y-2693110D01*
X17542189Y-2693112D01*
X17542191Y-2693115D01*
X17644685Y-2795609D01*
X17644687Y-2795610D01*
X17644689Y-2795612D01*
X17770211Y-2868082D01*
X17770212Y-2868082D01*
X17770215Y-2868084D01*
X17910225Y-2905600D01*
X17910226Y-2905600D01*
X18055174Y-2905600D01*
X18055175Y-2905600D01*
X18195185Y-2868084D01*
X18195187Y-2868082D01*
X18195189Y-2868082D01*
X18320710Y-2795612D01*
X18320710Y-2795611D01*
X18320715Y-2795609D01*
X18423209Y-2693115D01*
X18495684Y-2567585D01*
X18514425Y-2497644D01*
X21699500Y-2497644D01*
X21699500Y-2702355D01*
X21731521Y-2904529D01*
X21794780Y-3099219D01*
X21887712Y-3281609D01*
X21887714Y-3281613D01*
X22008029Y-3447213D01*
X22008031Y-3447215D01*
X22008034Y-3447219D01*
X22152781Y-3591966D01*
X22152784Y-3591968D01*
X22152786Y-3591970D01*
X22318386Y-3712285D01*
X22318390Y-3712287D01*
X22500781Y-3805220D01*
X22695466Y-3868477D01*
X22695467Y-3868477D01*
X22695470Y-3868478D01*
X22897645Y-3900500D01*
X22897648Y-3900500D01*
X23102355Y-3900500D01*
X23304529Y-3868478D01*
X23304530Y-3868477D01*
X23304534Y-3868477D01*
X23499219Y-3805220D01*
X23681610Y-3712287D01*
X23847219Y-3591966D01*
X23991966Y-3447219D01*
X24112287Y-3281610D01*
X24205220Y-3099219D01*
X24268477Y-2904534D01*
X24273490Y-2872884D01*
X24300500Y-2702355D01*
X24300500Y-2497644D01*
X24268478Y-2295470D01*
X24265354Y-2285854D01*
X24205220Y-2100781D01*
X24112287Y-1918390D01*
X24112285Y-1918386D01*
X24020260Y-1791724D01*
X24020258Y-1791722D01*
X23991966Y-1752781D01*
X23977576Y-1738391D01*
X28874500Y-1738391D01*
X28874500Y-1861608D01*
X28898536Y-1982450D01*
X28945688Y-2096285D01*
X28945689Y-2096286D01*
X29014142Y-2198733D01*
X29101267Y-2285858D01*
X29203714Y-2354311D01*
X29317548Y-2401463D01*
X29438394Y-2425500D01*
X29438396Y-2425500D01*
X29561604Y-2425500D01*
X29561606Y-2425500D01*
X29682452Y-2401463D01*
X29796286Y-2354311D01*
X29898733Y-2285858D01*
X29985858Y-2198733D01*
X30054311Y-2096286D01*
X30101463Y-1982452D01*
X30125500Y-1861606D01*
X30125500Y-1738394D01*
X30125499Y-1738391D01*
X31874500Y-1738391D01*
X31874500Y-1861608D01*
X31898536Y-1982450D01*
X31945688Y-2096285D01*
X31945689Y-2096286D01*
X32014142Y-2198733D01*
X32101267Y-2285858D01*
X32203714Y-2354311D01*
X32317548Y-2401463D01*
X32438394Y-2425500D01*
X32438396Y-2425500D01*
X32561604Y-2425500D01*
X32561606Y-2425500D01*
X32682452Y-2401463D01*
X32796286Y-2354311D01*
X32898733Y-2285858D01*
X32985858Y-2198733D01*
X33054311Y-2096286D01*
X33101463Y-1982452D01*
X33125500Y-1861606D01*
X33125500Y-1738394D01*
X33101463Y-1617548D01*
X33054311Y-1503714D01*
X32985858Y-1401267D01*
X32898733Y-1314142D01*
X32847973Y-1280225D01*
X41489500Y-1280225D01*
X41489500Y-1425175D01*
X41510545Y-1503714D01*
X41527017Y-1565189D01*
X41599487Y-1690710D01*
X41599489Y-1690712D01*
X41599491Y-1690715D01*
X41701985Y-1793209D01*
X41701987Y-1793210D01*
X41701989Y-1793212D01*
X41827511Y-1865682D01*
X41827512Y-1865682D01*
X41827515Y-1865684D01*
X41967525Y-1903200D01*
X41967526Y-1903200D01*
X42112474Y-1903200D01*
X42112475Y-1903200D01*
X42252485Y-1865684D01*
X42252487Y-1865682D01*
X42252489Y-1865682D01*
X42378010Y-1793212D01*
X42378010Y-1793211D01*
X42378015Y-1793209D01*
X42480509Y-1690715D01*
X42530003Y-1604989D01*
X42552982Y-1565189D01*
X42552982Y-1565187D01*
X42552984Y-1565185D01*
X42590500Y-1425175D01*
X42590500Y-1320025D01*
X47547000Y-1320025D01*
X47547000Y-1464975D01*
X47573853Y-1565189D01*
X47584517Y-1604989D01*
X47656987Y-1730510D01*
X47656989Y-1730512D01*
X47656991Y-1730515D01*
X47759485Y-1833009D01*
X47759487Y-1833010D01*
X47759489Y-1833012D01*
X47885011Y-1905482D01*
X47885012Y-1905482D01*
X47885015Y-1905484D01*
X48025025Y-1943000D01*
X48025026Y-1943000D01*
X48169974Y-1943000D01*
X48169975Y-1943000D01*
X48309985Y-1905484D01*
X48309987Y-1905482D01*
X48309989Y-1905482D01*
X48435510Y-1833012D01*
X48435510Y-1833011D01*
X48435515Y-1833009D01*
X48538009Y-1730515D01*
X48560988Y-1690715D01*
X48610482Y-1604989D01*
X48610482Y-1604987D01*
X48610484Y-1604985D01*
X48648000Y-1464975D01*
X48648000Y-1320025D01*
X48610484Y-1180015D01*
X48610482Y-1180012D01*
X48610482Y-1180010D01*
X48538012Y-1054489D01*
X48538010Y-1054487D01*
X48538009Y-1054485D01*
X48435515Y-951991D01*
X48435512Y-951989D01*
X48435510Y-951987D01*
X48309988Y-879517D01*
X48309989Y-879517D01*
X48280396Y-871587D01*
X48169975Y-842000D01*
X48025025Y-842000D01*
X47963290Y-858541D01*
X47885010Y-879517D01*
X47759489Y-951987D01*
X47656987Y-1054489D01*
X47584517Y-1180010D01*
X47547000Y-1320025D01*
X42590500Y-1320025D01*
X42590500Y-1280225D01*
X42552984Y-1140215D01*
X42552982Y-1140212D01*
X42552982Y-1140210D01*
X42480512Y-1014689D01*
X42480510Y-1014687D01*
X42480509Y-1014685D01*
X42378015Y-912191D01*
X42378012Y-912189D01*
X42378010Y-912187D01*
X42252488Y-839717D01*
X42252489Y-839717D01*
X42222896Y-831787D01*
X42112475Y-802200D01*
X41967525Y-802200D01*
X41905790Y-818741D01*
X41827510Y-839717D01*
X41701989Y-912187D01*
X41599487Y-1014689D01*
X41527017Y-1140210D01*
X41527016Y-1140215D01*
X41489500Y-1280225D01*
X32847973Y-1280225D01*
X32796286Y-1245689D01*
X32796287Y-1245689D01*
X32796285Y-1245688D01*
X32682450Y-1198536D01*
X32561608Y-1174500D01*
X32561606Y-1174500D01*
X32438394Y-1174500D01*
X32438391Y-1174500D01*
X32317549Y-1198536D01*
X32203714Y-1245688D01*
X32101267Y-1314142D01*
X32101263Y-1314145D01*
X32014145Y-1401263D01*
X32014142Y-1401267D01*
X31945688Y-1503714D01*
X31898536Y-1617549D01*
X31874500Y-1738391D01*
X30125499Y-1738391D01*
X30101463Y-1617548D01*
X30054311Y-1503714D01*
X29985858Y-1401267D01*
X29898733Y-1314142D01*
X29796286Y-1245689D01*
X29796287Y-1245689D01*
X29796285Y-1245688D01*
X29682450Y-1198536D01*
X29561608Y-1174500D01*
X29561606Y-1174500D01*
X29438394Y-1174500D01*
X29438391Y-1174500D01*
X29317549Y-1198536D01*
X29203714Y-1245688D01*
X29101267Y-1314142D01*
X29101263Y-1314145D01*
X29014145Y-1401263D01*
X29014142Y-1401267D01*
X28945688Y-1503714D01*
X28898536Y-1617549D01*
X28874500Y-1738391D01*
X23977576Y-1738391D01*
X23847219Y-1608034D01*
X23847215Y-1608031D01*
X23847213Y-1608029D01*
X23681613Y-1487714D01*
X23681609Y-1487712D01*
X23499219Y-1394780D01*
X23304529Y-1331521D01*
X23102355Y-1299500D01*
X23102352Y-1299500D01*
X22897648Y-1299500D01*
X22897645Y-1299500D01*
X22695470Y-1331521D01*
X22500780Y-1394780D01*
X22318390Y-1487712D01*
X22318386Y-1487714D01*
X22152786Y-1608029D01*
X22008029Y-1752786D01*
X21887714Y-1918386D01*
X21887712Y-1918390D01*
X21794781Y-2100779D01*
X21731521Y-2295470D01*
X21699500Y-2497644D01*
X18514425Y-2497644D01*
X18522332Y-2468137D01*
X18522332Y-2468135D01*
X18533200Y-2427574D01*
X18533200Y-2282625D01*
X18532530Y-2280125D01*
X18495684Y-2142615D01*
X18495682Y-2142612D01*
X18495682Y-2142610D01*
X18423212Y-2017089D01*
X18423210Y-2017087D01*
X18423209Y-2017085D01*
X18320715Y-1914591D01*
X18320712Y-1914589D01*
X18320710Y-1914587D01*
X18195188Y-1842117D01*
X18195189Y-1842117D01*
X18161198Y-1833009D01*
X18055175Y-1804600D01*
X17910225Y-1804600D01*
X17851259Y-1820400D01*
X17770210Y-1842117D01*
X17644689Y-1914587D01*
X17542187Y-2017089D01*
X17469717Y-2142610D01*
X17465482Y-2158415D01*
X17432200Y-2282625D01*
X14976914Y-2282625D01*
X14940684Y-2147415D01*
X14940682Y-2147412D01*
X14940682Y-2147410D01*
X14868212Y-2021889D01*
X14868210Y-2021887D01*
X14868209Y-2021885D01*
X14765715Y-1919391D01*
X14765712Y-1919389D01*
X14765710Y-1919387D01*
X14640188Y-1846917D01*
X14640189Y-1846917D01*
X14588284Y-1833009D01*
X14500175Y-1809400D01*
X14355225Y-1809400D01*
X14314173Y-1820400D01*
X14215210Y-1846917D01*
X14089689Y-1919387D01*
X13987187Y-2021889D01*
X13914717Y-2147410D01*
X13900965Y-2198732D01*
X13877200Y-2287425D01*
X11224600Y-2287425D01*
X11224600Y-2280125D01*
X11187084Y-2140115D01*
X11187082Y-2140112D01*
X11187082Y-2140110D01*
X11114612Y-2014589D01*
X11114610Y-2014587D01*
X11114609Y-2014585D01*
X11012115Y-1912091D01*
X11012112Y-1912089D01*
X11012110Y-1912087D01*
X10886588Y-1839617D01*
X10886589Y-1839617D01*
X10856996Y-1831687D01*
X10746575Y-1802100D01*
X10601625Y-1802100D01*
X10539890Y-1818641D01*
X10461610Y-1839617D01*
X10336089Y-1912087D01*
X10233587Y-2014589D01*
X10161117Y-2140110D01*
X10123600Y-2280125D01*
X6945596Y-2280125D01*
X6912984Y-2158415D01*
X6912982Y-2158412D01*
X6912982Y-2158410D01*
X6840512Y-2032889D01*
X6840510Y-2032887D01*
X6840509Y-2032885D01*
X6738015Y-1930391D01*
X6738012Y-1930389D01*
X6738010Y-1930387D01*
X6612488Y-1857917D01*
X6612489Y-1857917D01*
X6519543Y-1833012D01*
X6472475Y-1820400D01*
X6327525Y-1820400D01*
X6280468Y-1833009D01*
X6187510Y-1857917D01*
X6061989Y-1930387D01*
X5959487Y-2032889D01*
X5887017Y-2158410D01*
X5853734Y-2282625D01*
X5849500Y-2298425D01*
X4550000Y-2298425D01*
X4550000Y-399500D01*
X4568907Y-341309D01*
X4618407Y-305345D01*
X4649000Y-300500D01*
X57952405Y-300500D01*
X57996462Y-300500D01*
X58003523Y-300751D01*
G37*
%TD.AperFunction*%
%TD*%
M02*
