%TF.GenerationSoftware,KiCad,Pcbnew,9.0.5*%
%TF.CreationDate,2026-09-17T15:51:22+01:00*%
%TF.ProjectId,phone_board,70686f6e-655f-4626-9f61-72642e6b6963,rev?*%
%TF.SameCoordinates,Original*%
%TF.FileFunction,Copper,L2,Inr*%
%TF.FilePolarity,Positive*%
%FSLAX46Y46*%
G04 Gerber Fmt 4.6, Leading zero omitted, Abs format (unit mm)*
G04 Created by KiCad (PCBNEW 9.0.5) date 2026-09-17 15:51:22*
%MOMM*%
%LPD*%
G01*
G04 APERTURE LIST*
G04 Aperture macros list*
%AMHorizOval*
0 Thick line with rounded ends*
0 $1 width*
0 $2 $3 position (X,Y) of the first rounded end (center of the circle)*
0 $4 $5 position (X,Y) of the second rounded end (center of the circle)*
0 Add line between two ends*
20,1,$1,$2,$3,$4,$5,0*
0 Add two circle primitives to create the rounded ends*
1,1,$1,$2,$3*
1,1,$1,$4,$5*%
G04 Aperture macros list end*
%TA.AperFunction,ComponentPad*%
%ADD10HorizOval,1.200000X0.141421X0.141421X-0.141421X-0.141421X0*%
%TD*%
%TA.AperFunction,ComponentPad*%
%ADD11C,1.200000*%
%TD*%
%TA.AperFunction,HeatsinkPad*%
%ADD12O,1.000000X2.100000*%
%TD*%
%TA.AperFunction,HeatsinkPad*%
%ADD13O,1.000000X1.600000*%
%TD*%
%TA.AperFunction,ViaPad*%
%ADD14C,0.600000*%
%TD*%
%TA.AperFunction,ViaPad*%
%ADD15C,0.500000*%
%TD*%
G04 APERTURE END LIST*
D10*
%TO.N,/+5V_HTR*%
%TO.C,S2*%
X58704000Y-23796000D03*
D11*
%TO.N,/LPG_RL*%
X62296102Y-23796000D03*
%TO.N,/+5V_HTR*%
X62296102Y-20203898D03*
%TO.N,/GND*%
X58704000Y-20203898D03*
%TD*%
D12*
%TO.N,/GND*%
%TO.C,J1*%
X28680000Y-29170000D03*
D13*
X28680000Y-33350000D03*
D12*
X37320000Y-29170000D03*
D13*
X37320000Y-33350000D03*
%TD*%
D10*
%TO.N,/+5V_HTR*%
%TO.C,S1*%
X58704000Y-10796000D03*
D11*
%TO.N,/CH4_RL*%
X62296102Y-10796000D03*
%TO.N,/+5V_HTR*%
X62296102Y-7203898D03*
%TO.N,/GND*%
X58704000Y-7203898D03*
%TD*%
D14*
%TO.N,/GND*%
X52299999Y-1500000D03*
X54839999Y-16739999D03*
X11660000Y-26899999D03*
D15*
X11525000Y-9675000D03*
D14*
X16739999Y-1500000D03*
X62459999Y-1500000D03*
X20700000Y-17500000D03*
D15*
X42100000Y-23100000D03*
D14*
X62459999Y-4040000D03*
X24359999Y-24359999D03*
X39599999Y-34519999D03*
X10600000Y-28500000D03*
X21819999Y-34519999D03*
X6580000Y-26899999D03*
X24359999Y-21819999D03*
X49759999Y-16739999D03*
X57379999Y-1500000D03*
X9120000Y-26899999D03*
X24359999Y-26899999D03*
X21819999Y-24359999D03*
X49759999Y-24359999D03*
X54839999Y-1500000D03*
X27300500Y-12861219D03*
X57379999Y-31979999D03*
X42139999Y-4040000D03*
X59919999Y-1500000D03*
X57379999Y-14200000D03*
X42139999Y-1500000D03*
X59919999Y-34519999D03*
X11660000Y-29439999D03*
X26899999Y-26899999D03*
X1500000Y-34519999D03*
X39599999Y-1500000D03*
X44679999Y-4040000D03*
D15*
X11525000Y-11325000D03*
D14*
X47219999Y-1500000D03*
X37059999Y-4040000D03*
X26899999Y-34519999D03*
X54839999Y-29439999D03*
X47000000Y-11000000D03*
X6200000Y-34200000D03*
X19279999Y-34519999D03*
X11660000Y-34519999D03*
X54839999Y-26899999D03*
X59919999Y-29439999D03*
X57379999Y-26899999D03*
X39599999Y-4040000D03*
X62459999Y-26899999D03*
X6580000Y-1500000D03*
X49759999Y-4040000D03*
X52299999Y-4040000D03*
X57379999Y-16739999D03*
X57379999Y-4040000D03*
X27200000Y-10500000D03*
X26899999Y-29439999D03*
X49759999Y-21819999D03*
X34519999Y-14200000D03*
X49759999Y-6580000D03*
X23600000Y-4000000D03*
X29439999Y-4040000D03*
X39599999Y-16739999D03*
X9120000Y-19279999D03*
X57379999Y-29439999D03*
X4040000Y-34519999D03*
D15*
X13175000Y-11325000D03*
D14*
X9120000Y-34519999D03*
X43788000Y-6500000D03*
X57379999Y-34519999D03*
D15*
X13175000Y-9675000D03*
D14*
X42139999Y-34519999D03*
X39850000Y-12600000D03*
X44679999Y-1500000D03*
X21819999Y-9120000D03*
X52299999Y-19279999D03*
X54839999Y-4040000D03*
X6580000Y-19279999D03*
X62459999Y-29439999D03*
D15*
X42900000Y-23900000D03*
D14*
X49997017Y-11690500D03*
X19279999Y-1500000D03*
X54839999Y-19279999D03*
X59919999Y-16739999D03*
X36000000Y-7225000D03*
X24359999Y-34519999D03*
X14200000Y-1500000D03*
%TO.N,/VBUS*%
X43850800Y-22062500D03*
X39873800Y-27076600D03*
X37250000Y-20786800D03*
%TO.N,/USB_DP*%
X25334300Y-21611200D03*
X32998400Y-24984500D03*
%TO.N,/USB_DN*%
X32423600Y-25986000D03*
X30747100Y-22026500D03*
X25129900Y-19481500D03*
%TO.N,/BQ_TS*%
X40168000Y-22750000D03*
X39648100Y-28267500D03*
%TO.N,/VBAT*%
X39603800Y-25291900D03*
X45304600Y-30574100D03*
X42311200Y-17284800D03*
X45754500Y-25020500D03*
%TO.N,/PGOOD_N*%
X43837300Y-25446700D03*
X37250700Y-17367900D03*
X14043800Y-16606100D03*
%TO.N,/CHG_N*%
X35805300Y-19779900D03*
X44820900Y-25895900D03*
X13739400Y-18359500D03*
%TO.N,/VSYS*%
X38300000Y-6100000D03*
X44839700Y-23724600D03*
X38453400Y-20071600D03*
X45900000Y-6100000D03*
%TO.N,/BQ_ILIM*%
X44828000Y-22750000D03*
X41655300Y-31219100D03*
%TO.N,/BQ_ISET*%
X41154900Y-22062500D03*
X39361700Y-32000400D03*
%TO.N,/+3V3*%
X19997300Y-25964300D03*
X10520000Y-22500000D03*
X16800000Y-28600000D03*
X23170000Y-6000000D03*
X26068400Y-10809500D03*
%TO.N,/HTR_EN*%
X33704500Y-11511600D03*
X14900000Y-16645600D03*
%TO.N,/+5V_HTR*%
X44050000Y-12300000D03*
X46990000Y-5000000D03*
%TO.N,/CH4_FB*%
X13041600Y-15603900D03*
X51235600Y-14225600D03*
%TO.N,/LPG_FB*%
X11392400Y-18367800D03*
X51730200Y-20979800D03*
%TO.N,/I2C_SDA*%
X44148600Y-19378300D03*
X6400000Y-29600000D03*
X15750000Y-18700000D03*
X45171500Y-13884900D03*
%TO.N,/I2C_SCL*%
X47802900Y-20575000D03*
X45865700Y-13387500D03*
X7200000Y-33600000D03*
X16600000Y-19900000D03*
%TO.N,/ADS_RDY*%
X24782500Y-17951900D03*
X45552600Y-18636100D03*
%TO.N,/LED_DIN*%
X16445100Y-2632400D03*
X25134800Y-3737700D03*
%TO.N,/TXD0*%
X11500000Y-4354600D03*
X16891500Y-20937500D03*
%TO.N,/RXD0*%
X11347100Y-2640300D03*
X22124500Y-22017300D03*
%TO.N,/ESP_EN*%
X21766300Y-5982100D03*
X6424800Y-4376300D03*
%TD*%
%TA.AperFunction,Conductor*%
%TO.N,/GND*%
G36*
X64003523Y-300751D02*
G01*
X64234806Y-317293D01*
X64248787Y-319304D01*
X64471881Y-367836D01*
X64485433Y-371815D01*
X64622649Y-422992D01*
X64699366Y-451606D01*
X64712205Y-457469D01*
X64912607Y-566898D01*
X64924486Y-574532D01*
X65107263Y-711357D01*
X65117939Y-720607D01*
X65279392Y-882060D01*
X65288642Y-892736D01*
X65425467Y-1075513D01*
X65433103Y-1087395D01*
X65542526Y-1287786D01*
X65548394Y-1300636D01*
X65628184Y-1514566D01*
X65632163Y-1528118D01*
X65680695Y-1751212D01*
X65682706Y-1765193D01*
X65699248Y-1996475D01*
X65699500Y-2003538D01*
X65699500Y-33996461D01*
X65699248Y-34003524D01*
X65682706Y-34234806D01*
X65680695Y-34248787D01*
X65632163Y-34471881D01*
X65628184Y-34485433D01*
X65548394Y-34699363D01*
X65542526Y-34712213D01*
X65433103Y-34912604D01*
X65425467Y-34924486D01*
X65288642Y-35107263D01*
X65279392Y-35117939D01*
X65117939Y-35279392D01*
X65107263Y-35288642D01*
X64924486Y-35425467D01*
X64912604Y-35433103D01*
X64712213Y-35542526D01*
X64699363Y-35548394D01*
X64485433Y-35628184D01*
X64471881Y-35632163D01*
X64248787Y-35680695D01*
X64234806Y-35682706D01*
X64031124Y-35697274D01*
X64003522Y-35699248D01*
X63996462Y-35699500D01*
X2003538Y-35699500D01*
X1996477Y-35699248D01*
X1966467Y-35697101D01*
X1765193Y-35682706D01*
X1751212Y-35680695D01*
X1528118Y-35632163D01*
X1514566Y-35628184D01*
X1300636Y-35548394D01*
X1287786Y-35542526D01*
X1087395Y-35433103D01*
X1075513Y-35425467D01*
X892736Y-35288642D01*
X882060Y-35279392D01*
X720607Y-35117939D01*
X711357Y-35107263D01*
X574530Y-34924483D01*
X566896Y-34912604D01*
X457469Y-34712205D01*
X451605Y-34699363D01*
X371815Y-34485433D01*
X367836Y-34471881D01*
X319304Y-34248787D01*
X317293Y-34234805D01*
X300752Y-34003523D01*
X300500Y-33996461D01*
X300500Y-33527525D01*
X6649500Y-33527525D01*
X6649500Y-33672474D01*
X6687017Y-33812489D01*
X6759487Y-33938010D01*
X6759489Y-33938012D01*
X6759491Y-33938015D01*
X6861985Y-34040509D01*
X6861987Y-34040510D01*
X6861989Y-34040512D01*
X6987511Y-34112982D01*
X6987512Y-34112982D01*
X6987515Y-34112984D01*
X7127525Y-34150500D01*
X7127526Y-34150500D01*
X7272474Y-34150500D01*
X7272475Y-34150500D01*
X7412485Y-34112984D01*
X7412487Y-34112982D01*
X7412489Y-34112982D01*
X7538010Y-34040512D01*
X7538010Y-34040511D01*
X7538015Y-34040509D01*
X7640509Y-33938015D01*
X7712984Y-33812485D01*
X7750500Y-33672475D01*
X7750500Y-33527525D01*
X7712984Y-33387515D01*
X7712981Y-33387509D01*
X7640512Y-33261989D01*
X7640510Y-33261987D01*
X7640509Y-33261985D01*
X7538015Y-33159491D01*
X7538012Y-33159489D01*
X7538010Y-33159487D01*
X7412490Y-33087018D01*
X7412487Y-33087017D01*
X7412485Y-33087016D01*
X7319014Y-33061970D01*
X7297438Y-33056188D01*
X7272475Y-33049500D01*
X7127525Y-33049500D01*
X7080987Y-33061970D01*
X6987510Y-33087017D01*
X6861989Y-33159487D01*
X6759487Y-33261989D01*
X6687017Y-33387510D01*
X6649500Y-33527525D01*
X300500Y-33527525D01*
X300500Y-33299000D01*
X319407Y-33240809D01*
X368907Y-33204845D01*
X399500Y-33200000D01*
X4549999Y-33200000D01*
X4550000Y-33200000D01*
X4550000Y-32971204D01*
X27880000Y-32971204D01*
X27880000Y-33174999D01*
X27880001Y-33175000D01*
X28380000Y-33175000D01*
X28380000Y-33525000D01*
X27880001Y-33525000D01*
X27880000Y-33525001D01*
X27880000Y-33728795D01*
X27910742Y-33883349D01*
X27971048Y-34028940D01*
X27971052Y-34028949D01*
X28058599Y-34159969D01*
X28058602Y-34159973D01*
X28170026Y-34271397D01*
X28170030Y-34271400D01*
X28301050Y-34358947D01*
X28301059Y-34358951D01*
X28446646Y-34419255D01*
X28446653Y-34419257D01*
X28505000Y-34430862D01*
X28505000Y-33895374D01*
X28564204Y-33929556D01*
X28640504Y-33950000D01*
X28719496Y-33950000D01*
X28795796Y-33929556D01*
X28855000Y-33895374D01*
X28855000Y-34430861D01*
X28913346Y-34419257D01*
X28913353Y-34419255D01*
X29058940Y-34358951D01*
X29058949Y-34358947D01*
X29189969Y-34271400D01*
X29189973Y-34271397D01*
X29301397Y-34159973D01*
X29301400Y-34159969D01*
X29388947Y-34028949D01*
X29388951Y-34028940D01*
X29449257Y-33883349D01*
X29479999Y-33728795D01*
X29480000Y-33728792D01*
X29480000Y-33525001D01*
X29479999Y-33525000D01*
X28980000Y-33525000D01*
X28980000Y-33175000D01*
X29479999Y-33175000D01*
X29480000Y-33174999D01*
X29480000Y-32971207D01*
X29479999Y-32971204D01*
X36520000Y-32971204D01*
X36520000Y-33174999D01*
X36520001Y-33175000D01*
X37020000Y-33175000D01*
X37020000Y-33525000D01*
X36520001Y-33525000D01*
X36520000Y-33525001D01*
X36520000Y-33728795D01*
X36550742Y-33883349D01*
X36611048Y-34028940D01*
X36611052Y-34028949D01*
X36698599Y-34159969D01*
X36698602Y-34159973D01*
X36810026Y-34271397D01*
X36810030Y-34271400D01*
X36941050Y-34358947D01*
X36941059Y-34358951D01*
X37086646Y-34419255D01*
X37086653Y-34419257D01*
X37145000Y-34430862D01*
X37145000Y-33895374D01*
X37204204Y-33929556D01*
X37280504Y-33950000D01*
X37359496Y-33950000D01*
X37435796Y-33929556D01*
X37495000Y-33895374D01*
X37495000Y-34430861D01*
X37553346Y-34419257D01*
X37553353Y-34419255D01*
X37698940Y-34358951D01*
X37698949Y-34358947D01*
X37829969Y-34271400D01*
X37829973Y-34271397D01*
X37941397Y-34159973D01*
X37941400Y-34159969D01*
X38028947Y-34028949D01*
X38028951Y-34028940D01*
X38089257Y-33883349D01*
X38119999Y-33728795D01*
X38120000Y-33728792D01*
X38120000Y-33525001D01*
X38119999Y-33525000D01*
X37620000Y-33525000D01*
X37620000Y-33175000D01*
X38119999Y-33175000D01*
X38120000Y-33174999D01*
X38120000Y-32971207D01*
X38119999Y-32971204D01*
X38089257Y-32816650D01*
X38028951Y-32671059D01*
X38028947Y-32671050D01*
X37941400Y-32540030D01*
X37941397Y-32540026D01*
X37829973Y-32428602D01*
X37829969Y-32428599D01*
X37698949Y-32341052D01*
X37698940Y-32341048D01*
X37553354Y-32280744D01*
X37553348Y-32280742D01*
X37495000Y-32269136D01*
X37495000Y-32804625D01*
X37435796Y-32770444D01*
X37359496Y-32750000D01*
X37280504Y-32750000D01*
X37204204Y-32770444D01*
X37145000Y-32804625D01*
X37145000Y-32269136D01*
X37086651Y-32280742D01*
X37086645Y-32280744D01*
X36941059Y-32341048D01*
X36941050Y-32341052D01*
X36810030Y-32428599D01*
X36810026Y-32428602D01*
X36698602Y-32540026D01*
X36698599Y-32540030D01*
X36611052Y-32671050D01*
X36611048Y-32671059D01*
X36550742Y-32816650D01*
X36520000Y-32971204D01*
X29479999Y-32971204D01*
X29449257Y-32816650D01*
X29388951Y-32671059D01*
X29388947Y-32671050D01*
X29301400Y-32540030D01*
X29301397Y-32540026D01*
X29189973Y-32428602D01*
X29189969Y-32428599D01*
X29058949Y-32341052D01*
X29058940Y-32341048D01*
X28913354Y-32280744D01*
X28913348Y-32280742D01*
X28855000Y-32269136D01*
X28855000Y-32804625D01*
X28795796Y-32770444D01*
X28719496Y-32750000D01*
X28640504Y-32750000D01*
X28564204Y-32770444D01*
X28505000Y-32804625D01*
X28505000Y-32269136D01*
X28446651Y-32280742D01*
X28446645Y-32280744D01*
X28301059Y-32341048D01*
X28301050Y-32341052D01*
X28170030Y-32428599D01*
X28170026Y-32428602D01*
X28058602Y-32540026D01*
X28058599Y-32540030D01*
X27971052Y-32671050D01*
X27971048Y-32671059D01*
X27910742Y-32816650D01*
X27880000Y-32971204D01*
X4550000Y-32971204D01*
X4550000Y-31927925D01*
X38811200Y-31927925D01*
X38811200Y-32072874D01*
X38848717Y-32212889D01*
X38921187Y-32338410D01*
X38921189Y-32338412D01*
X38921191Y-32338415D01*
X39023685Y-32440909D01*
X39023687Y-32440910D01*
X39023689Y-32440912D01*
X39149211Y-32513382D01*
X39149212Y-32513382D01*
X39149215Y-32513384D01*
X39289225Y-32550900D01*
X39289226Y-32550900D01*
X39434174Y-32550900D01*
X39434175Y-32550900D01*
X39574185Y-32513384D01*
X39574187Y-32513382D01*
X39574189Y-32513382D01*
X39699710Y-32440912D01*
X39699710Y-32440911D01*
X39699715Y-32440909D01*
X39742980Y-32397644D01*
X60699500Y-32397644D01*
X60699500Y-32602355D01*
X60731521Y-32804529D01*
X60794780Y-32999219D01*
X60887712Y-33181609D01*
X60887714Y-33181613D01*
X61008029Y-33347213D01*
X61008031Y-33347215D01*
X61008034Y-33347219D01*
X61152781Y-33491966D01*
X61152784Y-33491968D01*
X61152786Y-33491970D01*
X61318386Y-33612285D01*
X61318390Y-33612287D01*
X61500781Y-33705220D01*
X61695466Y-33768477D01*
X61695467Y-33768477D01*
X61695470Y-33768478D01*
X61897645Y-33800500D01*
X61897648Y-33800500D01*
X62102355Y-33800500D01*
X62304529Y-33768478D01*
X62304530Y-33768477D01*
X62304534Y-33768477D01*
X62499219Y-33705220D01*
X62681610Y-33612287D01*
X62847219Y-33491966D01*
X62991966Y-33347219D01*
X63112287Y-33181610D01*
X63205220Y-32999219D01*
X63268477Y-32804534D01*
X63268478Y-32804529D01*
X63300500Y-32602355D01*
X63300500Y-32397644D01*
X63268478Y-32195470D01*
X63268477Y-32195466D01*
X63205220Y-32000781D01*
X63112287Y-31818390D01*
X63112285Y-31818386D01*
X62991970Y-31652786D01*
X62991968Y-31652784D01*
X62991966Y-31652781D01*
X62847219Y-31508034D01*
X62847215Y-31508031D01*
X62847213Y-31508029D01*
X62681613Y-31387714D01*
X62681609Y-31387712D01*
X62499219Y-31294780D01*
X62304529Y-31231521D01*
X62102355Y-31199500D01*
X62102352Y-31199500D01*
X61897648Y-31199500D01*
X61897645Y-31199500D01*
X61695470Y-31231521D01*
X61500780Y-31294780D01*
X61318390Y-31387712D01*
X61318386Y-31387714D01*
X61152786Y-31508029D01*
X61008029Y-31652786D01*
X60887714Y-31818386D01*
X60887712Y-31818390D01*
X60794780Y-32000780D01*
X60731521Y-32195470D01*
X60699500Y-32397644D01*
X39742980Y-32397644D01*
X39802209Y-32338415D01*
X39802212Y-32338410D01*
X39874682Y-32212889D01*
X39874682Y-32212887D01*
X39874684Y-32212885D01*
X39912200Y-32072875D01*
X39912200Y-31927925D01*
X39874684Y-31787915D01*
X39874682Y-31787912D01*
X39874682Y-31787910D01*
X39802212Y-31662389D01*
X39802210Y-31662387D01*
X39802209Y-31662385D01*
X39699715Y-31559891D01*
X39699712Y-31559889D01*
X39699710Y-31559887D01*
X39574188Y-31487417D01*
X39574189Y-31487417D01*
X39544596Y-31479487D01*
X39434175Y-31449900D01*
X39289225Y-31449900D01*
X39227490Y-31466441D01*
X39149210Y-31487417D01*
X39023689Y-31559887D01*
X38921187Y-31662389D01*
X38848717Y-31787910D01*
X38811200Y-31927925D01*
X4550000Y-31927925D01*
X4550000Y-31300000D01*
X7200000Y-31300000D01*
X7200001Y-31300000D01*
X9799999Y-31300000D01*
X9800000Y-31300000D01*
X9800000Y-28700000D01*
X7200000Y-28700000D01*
X7200000Y-31300000D01*
X4550000Y-31300000D01*
X4550000Y-29527525D01*
X5849500Y-29527525D01*
X5849500Y-29672475D01*
X5875413Y-29769181D01*
X5887017Y-29812489D01*
X5959487Y-29938010D01*
X5959489Y-29938012D01*
X5959491Y-29938015D01*
X6061985Y-30040509D01*
X6061987Y-30040510D01*
X6061989Y-30040512D01*
X6187511Y-30112982D01*
X6187512Y-30112982D01*
X6187515Y-30112984D01*
X6327525Y-30150500D01*
X6327526Y-30150500D01*
X6472474Y-30150500D01*
X6472475Y-30150500D01*
X6612485Y-30112984D01*
X6612487Y-30112982D01*
X6612489Y-30112982D01*
X6738010Y-30040512D01*
X6738010Y-30040511D01*
X6738015Y-30040509D01*
X6840509Y-29938015D01*
X6860820Y-29902835D01*
X6912982Y-29812489D01*
X6912982Y-29812487D01*
X6912984Y-29812485D01*
X6950500Y-29672475D01*
X6950500Y-29527525D01*
X6912984Y-29387515D01*
X6912982Y-29387512D01*
X6912982Y-29387510D01*
X6840512Y-29261989D01*
X6840510Y-29261987D01*
X6840509Y-29261985D01*
X6738015Y-29159491D01*
X6738012Y-29159489D01*
X6738010Y-29159487D01*
X6612488Y-29087017D01*
X6612489Y-29087017D01*
X6582896Y-29079087D01*
X6472475Y-29049500D01*
X6327525Y-29049500D01*
X6265790Y-29066041D01*
X6187510Y-29087017D01*
X6061989Y-29159487D01*
X5959487Y-29261989D01*
X5887017Y-29387510D01*
X5867283Y-29461159D01*
X5849500Y-29527525D01*
X4550000Y-29527525D01*
X4550000Y-25399500D01*
X4568907Y-25341309D01*
X4618407Y-25305345D01*
X4649000Y-25300500D01*
X14600500Y-25300500D01*
X14658691Y-25319407D01*
X14694655Y-25368907D01*
X14699500Y-25399500D01*
X14699500Y-31039564D01*
X14719978Y-31115988D01*
X14719980Y-31115992D01*
X14759538Y-31184508D01*
X14759540Y-31184511D01*
X14815489Y-31240460D01*
X14815491Y-31240461D01*
X14884007Y-31280019D01*
X14884011Y-31280021D01*
X14960435Y-31300499D01*
X14960437Y-31300500D01*
X14960438Y-31300500D01*
X16039563Y-31300500D01*
X16039563Y-31300499D01*
X16115989Y-31280021D01*
X16184511Y-31240460D01*
X16240460Y-31184511D01*
X16262333Y-31146625D01*
X41104800Y-31146625D01*
X41104800Y-31291575D01*
X41130560Y-31387712D01*
X41142317Y-31431589D01*
X41214787Y-31557110D01*
X41214789Y-31557112D01*
X41214791Y-31557115D01*
X41317285Y-31659609D01*
X41317287Y-31659610D01*
X41317289Y-31659612D01*
X41442811Y-31732082D01*
X41442812Y-31732082D01*
X41442815Y-31732084D01*
X41582825Y-31769600D01*
X41582826Y-31769600D01*
X41727774Y-31769600D01*
X41727775Y-31769600D01*
X41867785Y-31732084D01*
X41867787Y-31732082D01*
X41867789Y-31732082D01*
X41993310Y-31659612D01*
X41993310Y-31659611D01*
X41993315Y-31659609D01*
X42095809Y-31557115D01*
X42124149Y-31508029D01*
X42168282Y-31431589D01*
X42168282Y-31431587D01*
X42168284Y-31431585D01*
X42205800Y-31291575D01*
X42205800Y-31146625D01*
X42168284Y-31006615D01*
X42168282Y-31006612D01*
X42168282Y-31006610D01*
X42095812Y-30881089D01*
X42095810Y-30881087D01*
X42095809Y-30881085D01*
X41993315Y-30778591D01*
X41993312Y-30778589D01*
X41993310Y-30778587D01*
X41867788Y-30706117D01*
X41867789Y-30706117D01*
X41838196Y-30698187D01*
X41727775Y-30668600D01*
X41582825Y-30668600D01*
X41521090Y-30685141D01*
X41442810Y-30706117D01*
X41317289Y-30778587D01*
X41214787Y-30881089D01*
X41142317Y-31006610D01*
X41142316Y-31006615D01*
X41104800Y-31146625D01*
X16262333Y-31146625D01*
X16268267Y-31136347D01*
X16280019Y-31115993D01*
X16280019Y-31115991D01*
X16280021Y-31115989D01*
X16300500Y-31039562D01*
X16300500Y-30501625D01*
X44754100Y-30501625D01*
X44754100Y-30646575D01*
X44783687Y-30756996D01*
X44791617Y-30786589D01*
X44864087Y-30912110D01*
X44864089Y-30912112D01*
X44864091Y-30912115D01*
X44966585Y-31014609D01*
X44966587Y-31014610D01*
X44966589Y-31014612D01*
X45092111Y-31087082D01*
X45092112Y-31087082D01*
X45092115Y-31087084D01*
X45232125Y-31124600D01*
X45232126Y-31124600D01*
X45377074Y-31124600D01*
X45377075Y-31124600D01*
X45517085Y-31087084D01*
X45517087Y-31087082D01*
X45517089Y-31087082D01*
X45642610Y-31014612D01*
X45642610Y-31014611D01*
X45642615Y-31014609D01*
X45745109Y-30912115D01*
X45817584Y-30786585D01*
X45855100Y-30646575D01*
X45855100Y-30501625D01*
X45817584Y-30361615D01*
X45817582Y-30361612D01*
X45817582Y-30361610D01*
X45745112Y-30236089D01*
X45745110Y-30236087D01*
X45745109Y-30236085D01*
X45642615Y-30133591D01*
X45642612Y-30133589D01*
X45642610Y-30133587D01*
X45517088Y-30061117D01*
X45517089Y-30061117D01*
X45487496Y-30053187D01*
X45377075Y-30023600D01*
X45232125Y-30023600D01*
X45170390Y-30040141D01*
X45092110Y-30061117D01*
X44966589Y-30133587D01*
X44864087Y-30236089D01*
X44791617Y-30361610D01*
X44791616Y-30361615D01*
X44754100Y-30501625D01*
X16300500Y-30501625D01*
X16300500Y-29117349D01*
X16319407Y-29059158D01*
X16368907Y-29023194D01*
X16430093Y-29023194D01*
X16459772Y-29038810D01*
X16461992Y-29040514D01*
X16587511Y-29112982D01*
X16587512Y-29112982D01*
X16587515Y-29112984D01*
X16727525Y-29150500D01*
X16727526Y-29150500D01*
X16872474Y-29150500D01*
X16872475Y-29150500D01*
X17012485Y-29112984D01*
X17012487Y-29112982D01*
X17012489Y-29112982D01*
X17138010Y-29040512D01*
X17138010Y-29040511D01*
X17138015Y-29040509D01*
X17240509Y-28938015D01*
X17312984Y-28812485D01*
X17350500Y-28672475D01*
X17350500Y-28541204D01*
X27880000Y-28541204D01*
X27880000Y-28994999D01*
X27880001Y-28995000D01*
X28380000Y-28995000D01*
X28380000Y-29345000D01*
X27880001Y-29345000D01*
X27880000Y-29345001D01*
X27880000Y-29798795D01*
X27910742Y-29953349D01*
X27971048Y-30098940D01*
X27971052Y-30098949D01*
X28058599Y-30229969D01*
X28058602Y-30229973D01*
X28170026Y-30341397D01*
X28170030Y-30341400D01*
X28301050Y-30428947D01*
X28301059Y-30428951D01*
X28446646Y-30489255D01*
X28446653Y-30489257D01*
X28505000Y-30500862D01*
X28505000Y-29965374D01*
X28564204Y-29999556D01*
X28640504Y-30020000D01*
X28719496Y-30020000D01*
X28795796Y-29999556D01*
X28855000Y-29965374D01*
X28855000Y-30500861D01*
X28913346Y-30489257D01*
X28913353Y-30489255D01*
X29058940Y-30428951D01*
X29058949Y-30428947D01*
X29189969Y-30341400D01*
X29189973Y-30341397D01*
X29301397Y-30229973D01*
X29301400Y-30229969D01*
X29388947Y-30098949D01*
X29388951Y-30098940D01*
X29449257Y-29953348D01*
X29450670Y-29948693D01*
X29451708Y-29949008D01*
X29479142Y-29900022D01*
X29534706Y-29874405D01*
X29594716Y-29886341D01*
X29632078Y-29923216D01*
X29689495Y-30022665D01*
X29787335Y-30120505D01*
X29907164Y-30189688D01*
X30040817Y-30225500D01*
X30040819Y-30225500D01*
X30179181Y-30225500D01*
X30179183Y-30225500D01*
X30312836Y-30189688D01*
X30432665Y-30120505D01*
X30530505Y-30022665D01*
X30599688Y-29902836D01*
X30635500Y-29769183D01*
X30635500Y-29630817D01*
X35364500Y-29630817D01*
X35364500Y-29769183D01*
X35400312Y-29902836D01*
X35469495Y-30022665D01*
X35567335Y-30120505D01*
X35687164Y-30189688D01*
X35820817Y-30225500D01*
X35820819Y-30225500D01*
X35959181Y-30225500D01*
X35959183Y-30225500D01*
X36092836Y-30189688D01*
X36212665Y-30120505D01*
X36310505Y-30022665D01*
X36367920Y-29923217D01*
X36413387Y-29882278D01*
X36474237Y-29875882D01*
X36527226Y-29906474D01*
X36548518Y-29948939D01*
X36549330Y-29948693D01*
X36550742Y-29953348D01*
X36611048Y-30098940D01*
X36611052Y-30098949D01*
X36698599Y-30229969D01*
X36698602Y-30229973D01*
X36810026Y-30341397D01*
X36810030Y-30341400D01*
X36941050Y-30428947D01*
X36941059Y-30428951D01*
X37086646Y-30489255D01*
X37086653Y-30489257D01*
X37145000Y-30500862D01*
X37145000Y-29965374D01*
X37204204Y-29999556D01*
X37280504Y-30020000D01*
X37359496Y-30020000D01*
X37435796Y-29999556D01*
X37495000Y-29965374D01*
X37495000Y-30500861D01*
X37553346Y-30489257D01*
X37553353Y-30489255D01*
X37698940Y-30428951D01*
X37698948Y-30428947D01*
X37723083Y-30412821D01*
X37829969Y-30341400D01*
X37829973Y-30341397D01*
X37941397Y-30229973D01*
X37941400Y-30229969D01*
X38028947Y-30098949D01*
X38028951Y-30098940D01*
X38089257Y-29953349D01*
X38119999Y-29798795D01*
X38120000Y-29798792D01*
X38120000Y-29345001D01*
X38119999Y-29345000D01*
X37620000Y-29345000D01*
X37620000Y-28995000D01*
X38119999Y-28995000D01*
X38120000Y-28994999D01*
X38120000Y-28541207D01*
X38119999Y-28541204D01*
X38089257Y-28386650D01*
X38028951Y-28241059D01*
X38028946Y-28241050D01*
X37998193Y-28195025D01*
X39097600Y-28195025D01*
X39097600Y-28339975D01*
X39123275Y-28435795D01*
X39135117Y-28479989D01*
X39207587Y-28605510D01*
X39207589Y-28605512D01*
X39207591Y-28605515D01*
X39310085Y-28708009D01*
X39310087Y-28708010D01*
X39310089Y-28708012D01*
X39435611Y-28780482D01*
X39435612Y-28780482D01*
X39435615Y-28780484D01*
X39575625Y-28818000D01*
X39575626Y-28818000D01*
X39720574Y-28818000D01*
X39720575Y-28818000D01*
X39860585Y-28780484D01*
X39860587Y-28780482D01*
X39860589Y-28780482D01*
X39986110Y-28708012D01*
X39986110Y-28708011D01*
X39986115Y-28708009D01*
X40088609Y-28605515D01*
X40103049Y-28580504D01*
X40161082Y-28479989D01*
X40161082Y-28479987D01*
X40161084Y-28479985D01*
X40198600Y-28339975D01*
X40198600Y-28195025D01*
X40161084Y-28055015D01*
X40161082Y-28055012D01*
X40161082Y-28055010D01*
X40088612Y-27929489D01*
X40088610Y-27929487D01*
X40088609Y-27929485D01*
X39986115Y-27826991D01*
X39986112Y-27826989D01*
X39943998Y-27802674D01*
X39903058Y-27757204D01*
X39896663Y-27696354D01*
X39927256Y-27643366D01*
X39967872Y-27621312D01*
X40086285Y-27589584D01*
X40086287Y-27589582D01*
X40086289Y-27589582D01*
X40211810Y-27517112D01*
X40211810Y-27517111D01*
X40211815Y-27517109D01*
X40314309Y-27414615D01*
X40386784Y-27289085D01*
X40424300Y-27149075D01*
X40424300Y-27004125D01*
X40386784Y-26864115D01*
X40386782Y-26864112D01*
X40386782Y-26864110D01*
X40314312Y-26738589D01*
X40314310Y-26738587D01*
X40314309Y-26738585D01*
X40211815Y-26636091D01*
X40211812Y-26636089D01*
X40211810Y-26636087D01*
X40086288Y-26563617D01*
X40086289Y-26563617D01*
X40056696Y-26555687D01*
X39946275Y-26526100D01*
X39801325Y-26526100D01*
X39762512Y-26536500D01*
X39661310Y-26563617D01*
X39535789Y-26636087D01*
X39433287Y-26738589D01*
X39360817Y-26864110D01*
X39323300Y-27004125D01*
X39323300Y-27149074D01*
X39360817Y-27289089D01*
X39433287Y-27414610D01*
X39433289Y-27414612D01*
X39433291Y-27414615D01*
X39535785Y-27517109D01*
X39535787Y-27517110D01*
X39535789Y-27517112D01*
X39577900Y-27541425D01*
X39618841Y-27586894D01*
X39625237Y-27647745D01*
X39594644Y-27700733D01*
X39554024Y-27722787D01*
X39435615Y-27754515D01*
X39435611Y-27754517D01*
X39310089Y-27826987D01*
X39207587Y-27929489D01*
X39135117Y-28055010D01*
X39118857Y-28115694D01*
X39097600Y-28195025D01*
X37998193Y-28195025D01*
X37941400Y-28110030D01*
X37941397Y-28110026D01*
X37829973Y-27998602D01*
X37829969Y-27998599D01*
X37698949Y-27911052D01*
X37698940Y-27911048D01*
X37553354Y-27850744D01*
X37553348Y-27850742D01*
X37495000Y-27839136D01*
X37495000Y-28374625D01*
X37435796Y-28340444D01*
X37359496Y-28320000D01*
X37280504Y-28320000D01*
X37204204Y-28340444D01*
X37145000Y-28374625D01*
X37145000Y-27839136D01*
X37086651Y-27850742D01*
X37086645Y-27850744D01*
X36941059Y-27911048D01*
X36941050Y-27911052D01*
X36810030Y-27998599D01*
X36810026Y-27998602D01*
X36698602Y-28110026D01*
X36698599Y-28110030D01*
X36611052Y-28241050D01*
X36611048Y-28241059D01*
X36550742Y-28386650D01*
X36520000Y-28541204D01*
X36520000Y-28994999D01*
X36520001Y-28995000D01*
X37020000Y-28995000D01*
X37020000Y-29345000D01*
X36520001Y-29345000D01*
X36520000Y-29345001D01*
X36520000Y-29370718D01*
X36501093Y-29428909D01*
X36451593Y-29464873D01*
X36390407Y-29464873D01*
X36340907Y-29428909D01*
X36335264Y-29420218D01*
X36310506Y-29377337D01*
X36310505Y-29377335D01*
X36212665Y-29279495D01*
X36092836Y-29210312D01*
X35959183Y-29174500D01*
X35820817Y-29174500D01*
X35687164Y-29210312D01*
X35567335Y-29279495D01*
X35469495Y-29377335D01*
X35400312Y-29497164D01*
X35364500Y-29630817D01*
X30635500Y-29630817D01*
X30599688Y-29497164D01*
X30530505Y-29377335D01*
X30432665Y-29279495D01*
X30312836Y-29210312D01*
X30179183Y-29174500D01*
X30040817Y-29174500D01*
X29907164Y-29210312D01*
X29787335Y-29279495D01*
X29689493Y-29377337D01*
X29664736Y-29420218D01*
X29619266Y-29461159D01*
X29558416Y-29467554D01*
X29505428Y-29436962D01*
X29480542Y-29381066D01*
X29480000Y-29370718D01*
X29480000Y-29345001D01*
X29479999Y-29345000D01*
X28980000Y-29345000D01*
X28980000Y-28995000D01*
X29479999Y-28995000D01*
X29480000Y-28994999D01*
X29480000Y-28541207D01*
X29479999Y-28541204D01*
X29449257Y-28386650D01*
X29388951Y-28241059D01*
X29388947Y-28241050D01*
X29301400Y-28110030D01*
X29301397Y-28110026D01*
X29189973Y-27998602D01*
X29189969Y-27998599D01*
X29058949Y-27911052D01*
X29058940Y-27911048D01*
X28913354Y-27850744D01*
X28913348Y-27850742D01*
X28855000Y-27839136D01*
X28855000Y-28374625D01*
X28795796Y-28340444D01*
X28719496Y-28320000D01*
X28640504Y-28320000D01*
X28564204Y-28340444D01*
X28505000Y-28374625D01*
X28505000Y-27839136D01*
X28446651Y-27850742D01*
X28446645Y-27850744D01*
X28301059Y-27911048D01*
X28301050Y-27911052D01*
X28170030Y-27998599D01*
X28170026Y-27998602D01*
X28058602Y-28110026D01*
X28058599Y-28110030D01*
X27971052Y-28241050D01*
X27971048Y-28241059D01*
X27910742Y-28386650D01*
X27880000Y-28541204D01*
X17350500Y-28541204D01*
X17350500Y-28527525D01*
X17312984Y-28387515D01*
X17312982Y-28387512D01*
X17312982Y-28387510D01*
X17240512Y-28261989D01*
X17240510Y-28261987D01*
X17240509Y-28261985D01*
X17138015Y-28159491D01*
X17138012Y-28159489D01*
X17138010Y-28159487D01*
X17012488Y-28087017D01*
X17012489Y-28087017D01*
X16982896Y-28079087D01*
X16872475Y-28049500D01*
X16727525Y-28049500D01*
X16665790Y-28066041D01*
X16587510Y-28087017D01*
X16461986Y-28159489D01*
X16459765Y-28161194D01*
X16457874Y-28161863D01*
X16456365Y-28162735D01*
X16456203Y-28162455D01*
X16402088Y-28181616D01*
X16343423Y-28164237D01*
X16306177Y-28115694D01*
X16300500Y-28082650D01*
X16300500Y-25891825D01*
X19446800Y-25891825D01*
X19446800Y-26036775D01*
X19452615Y-26058475D01*
X19484317Y-26176789D01*
X19556787Y-26302310D01*
X19556789Y-26302312D01*
X19556791Y-26302315D01*
X19659285Y-26404809D01*
X19659287Y-26404810D01*
X19659289Y-26404812D01*
X19784811Y-26477282D01*
X19784812Y-26477282D01*
X19784815Y-26477284D01*
X19924825Y-26514800D01*
X19924826Y-26514800D01*
X20069774Y-26514800D01*
X20069775Y-26514800D01*
X20209785Y-26477284D01*
X20209787Y-26477282D01*
X20209789Y-26477282D01*
X20335310Y-26404812D01*
X20335310Y-26404811D01*
X20335315Y-26404809D01*
X20437809Y-26302315D01*
X20497753Y-26198489D01*
X20510282Y-26176789D01*
X20510282Y-26176787D01*
X20510284Y-26176785D01*
X20547800Y-26036775D01*
X20547800Y-25913525D01*
X31873100Y-25913525D01*
X31873100Y-26058475D01*
X31886474Y-26108388D01*
X31910617Y-26198489D01*
X31983087Y-26324010D01*
X31983089Y-26324012D01*
X31983091Y-26324015D01*
X32085585Y-26426509D01*
X32085587Y-26426510D01*
X32085589Y-26426512D01*
X32211111Y-26498982D01*
X32211112Y-26498982D01*
X32211115Y-26498984D01*
X32351125Y-26536500D01*
X32351126Y-26536500D01*
X32496074Y-26536500D01*
X32496075Y-26536500D01*
X32636085Y-26498984D01*
X32636087Y-26498982D01*
X32636089Y-26498982D01*
X32761610Y-26426512D01*
X32761610Y-26426511D01*
X32761615Y-26426509D01*
X32864109Y-26324015D01*
X32876638Y-26302315D01*
X32936582Y-26198489D01*
X32936582Y-26198487D01*
X32936584Y-26198485D01*
X32974100Y-26058475D01*
X32974100Y-25913525D01*
X32936584Y-25773515D01*
X32936582Y-25773512D01*
X32936582Y-25773510D01*
X32884614Y-25683500D01*
X32871892Y-25623652D01*
X32896778Y-25567756D01*
X32949766Y-25537163D01*
X32970350Y-25535000D01*
X33070874Y-25535000D01*
X33070875Y-25535000D01*
X33210885Y-25497484D01*
X33210887Y-25497482D01*
X33210889Y-25497482D01*
X33336410Y-25425012D01*
X33336410Y-25425011D01*
X33336415Y-25425009D01*
X33438909Y-25322515D01*
X33440704Y-25319407D01*
X33498428Y-25219425D01*
X39053300Y-25219425D01*
X39053300Y-25364375D01*
X39062712Y-25399500D01*
X39090817Y-25504389D01*
X39163287Y-25629910D01*
X39163289Y-25629912D01*
X39163291Y-25629915D01*
X39265785Y-25732409D01*
X39265787Y-25732410D01*
X39265789Y-25732412D01*
X39391311Y-25804882D01*
X39391312Y-25804882D01*
X39391315Y-25804884D01*
X39531325Y-25842400D01*
X39531326Y-25842400D01*
X39676274Y-25842400D01*
X39676275Y-25842400D01*
X39816285Y-25804884D01*
X39816287Y-25804882D01*
X39816289Y-25804882D01*
X39941810Y-25732412D01*
X39941810Y-25732411D01*
X39941815Y-25732409D01*
X40044309Y-25629915D01*
X40044312Y-25629910D01*
X40116782Y-25504389D01*
X40116782Y-25504387D01*
X40116784Y-25504385D01*
X40151661Y-25374225D01*
X43286800Y-25374225D01*
X43286800Y-25519175D01*
X43300687Y-25571000D01*
X43324317Y-25659189D01*
X43396787Y-25784710D01*
X43396789Y-25784712D01*
X43396791Y-25784715D01*
X43499285Y-25887209D01*
X43499287Y-25887210D01*
X43499289Y-25887212D01*
X43624811Y-25959682D01*
X43624812Y-25959682D01*
X43624815Y-25959684D01*
X43764825Y-25997200D01*
X43764826Y-25997200D01*
X43909774Y-25997200D01*
X43909775Y-25997200D01*
X44049785Y-25959684D01*
X44127091Y-25915050D01*
X44186940Y-25902329D01*
X44242835Y-25927215D01*
X44272218Y-25975163D01*
X44307915Y-26108384D01*
X44307917Y-26108388D01*
X44380387Y-26233910D01*
X44380389Y-26233912D01*
X44380391Y-26233915D01*
X44482885Y-26336409D01*
X44482887Y-26336410D01*
X44482889Y-26336412D01*
X44608411Y-26408882D01*
X44608412Y-26408882D01*
X44608415Y-26408884D01*
X44748425Y-26446400D01*
X44748426Y-26446400D01*
X44893374Y-26446400D01*
X44893375Y-26446400D01*
X45033385Y-26408884D01*
X45033387Y-26408882D01*
X45033389Y-26408882D01*
X45158910Y-26336412D01*
X45158910Y-26336411D01*
X45158915Y-26336409D01*
X45261409Y-26233915D01*
X45333884Y-26108385D01*
X45371400Y-25968375D01*
X45371400Y-25823425D01*
X45333884Y-25683415D01*
X45333882Y-25683412D01*
X45333882Y-25683410D01*
X45284711Y-25598244D01*
X45271989Y-25538396D01*
X45296875Y-25482500D01*
X45349863Y-25451907D01*
X45410714Y-25458303D01*
X45419947Y-25463008D01*
X45542011Y-25533482D01*
X45542012Y-25533482D01*
X45542015Y-25533484D01*
X45682025Y-25571000D01*
X45682026Y-25571000D01*
X45826974Y-25571000D01*
X45826975Y-25571000D01*
X45966985Y-25533484D01*
X45966987Y-25533482D01*
X45966989Y-25533482D01*
X46092510Y-25461012D01*
X46092510Y-25461011D01*
X46092515Y-25461009D01*
X46195009Y-25358515D01*
X46228504Y-25300500D01*
X46267482Y-25232989D01*
X46267483Y-25232986D01*
X46267484Y-25232985D01*
X46305000Y-25092975D01*
X46305000Y-24948025D01*
X46267484Y-24808015D01*
X46267482Y-24808012D01*
X46267482Y-24808010D01*
X46195012Y-24682489D01*
X46195010Y-24682487D01*
X46195009Y-24682485D01*
X46092515Y-24579991D01*
X46092512Y-24579989D01*
X46092510Y-24579987D01*
X45966988Y-24507517D01*
X45966989Y-24507517D01*
X45937396Y-24499587D01*
X45826975Y-24470000D01*
X45682025Y-24470000D01*
X45646250Y-24479586D01*
X45542010Y-24507517D01*
X45416489Y-24579987D01*
X45313987Y-24682489D01*
X45241517Y-24808010D01*
X45204000Y-24948025D01*
X45204000Y-25092974D01*
X45241516Y-25232986D01*
X45290689Y-25318155D01*
X45303410Y-25378003D01*
X45278523Y-25433899D01*
X45225535Y-25464492D01*
X45164685Y-25458096D01*
X45155452Y-25453391D01*
X45033388Y-25382917D01*
X45033389Y-25382917D01*
X44975610Y-25367435D01*
X44893375Y-25345400D01*
X44748425Y-25345400D01*
X44666190Y-25367435D01*
X44608411Y-25382917D01*
X44531106Y-25427549D01*
X44471258Y-25440270D01*
X44415362Y-25415383D01*
X44385981Y-25367436D01*
X44350284Y-25234215D01*
X44350282Y-25234212D01*
X44350282Y-25234210D01*
X44277812Y-25108689D01*
X44277810Y-25108687D01*
X44277809Y-25108685D01*
X44175315Y-25006191D01*
X44175312Y-25006189D01*
X44175310Y-25006187D01*
X44049788Y-24933717D01*
X44049789Y-24933717D01*
X43968834Y-24912025D01*
X43909775Y-24896200D01*
X43764825Y-24896200D01*
X43705766Y-24912025D01*
X43624810Y-24933717D01*
X43499289Y-25006187D01*
X43396787Y-25108689D01*
X43324317Y-25234210D01*
X43289440Y-25364374D01*
X43286800Y-25374225D01*
X40151661Y-25374225D01*
X40154300Y-25364375D01*
X40154300Y-25219425D01*
X40116784Y-25079415D01*
X40116782Y-25079412D01*
X40116782Y-25079410D01*
X40044312Y-24953889D01*
X40044310Y-24953887D01*
X40044309Y-24953885D01*
X39941815Y-24851391D01*
X39941812Y-24851389D01*
X39941811Y-24851388D01*
X39941808Y-24851386D01*
X39816288Y-24778917D01*
X39816289Y-24778917D01*
X39786696Y-24770987D01*
X39676275Y-24741400D01*
X39531325Y-24741400D01*
X39479689Y-24755236D01*
X39391310Y-24778917D01*
X39265792Y-24851386D01*
X39265788Y-24851388D01*
X39163287Y-24953889D01*
X39090817Y-25079410D01*
X39082973Y-25108685D01*
X39053300Y-25219425D01*
X33498428Y-25219425D01*
X33511384Y-25196985D01*
X33548900Y-25056975D01*
X33548900Y-24912025D01*
X33511384Y-24772015D01*
X33511382Y-24772012D01*
X33511382Y-24772010D01*
X33438912Y-24646489D01*
X33438910Y-24646487D01*
X33438909Y-24646485D01*
X33336415Y-24543991D01*
X33336412Y-24543989D01*
X33336410Y-24543987D01*
X33210888Y-24471517D01*
X33210889Y-24471517D01*
X33155315Y-24456626D01*
X33070875Y-24434000D01*
X32925925Y-24434000D01*
X32864190Y-24450541D01*
X32785910Y-24471517D01*
X32660389Y-24543987D01*
X32557887Y-24646489D01*
X32485417Y-24772010D01*
X32447900Y-24912025D01*
X32447900Y-25056974D01*
X32485417Y-25196989D01*
X32537386Y-25287000D01*
X32550108Y-25346848D01*
X32525222Y-25402744D01*
X32472234Y-25433337D01*
X32451650Y-25435500D01*
X32351125Y-25435500D01*
X32292100Y-25451316D01*
X32211110Y-25473017D01*
X32085589Y-25545487D01*
X31983087Y-25647989D01*
X31910617Y-25773510D01*
X31892158Y-25842400D01*
X31873100Y-25913525D01*
X20547800Y-25913525D01*
X20547800Y-25891825D01*
X20510284Y-25751815D01*
X20510282Y-25751812D01*
X20510282Y-25751810D01*
X20437812Y-25626289D01*
X20437810Y-25626287D01*
X20437809Y-25626285D01*
X20335315Y-25523791D01*
X20335312Y-25523789D01*
X20335310Y-25523787D01*
X20209788Y-25451317D01*
X20209789Y-25451317D01*
X20168561Y-25440270D01*
X20069775Y-25413800D01*
X19924825Y-25413800D01*
X19882993Y-25425009D01*
X19784810Y-25451317D01*
X19659289Y-25523787D01*
X19556787Y-25626289D01*
X19484317Y-25751810D01*
X19448037Y-25887209D01*
X19446800Y-25891825D01*
X16300500Y-25891825D01*
X16300500Y-23960437D01*
X16300499Y-23960435D01*
X16294243Y-23937089D01*
X16280021Y-23884011D01*
X16262494Y-23853654D01*
X16240461Y-23815491D01*
X16240460Y-23815489D01*
X16184511Y-23759540D01*
X16184508Y-23759538D01*
X16115992Y-23719980D01*
X16115988Y-23719978D01*
X16039564Y-23699500D01*
X16039562Y-23699500D01*
X4649000Y-23699500D01*
X4590809Y-23680593D01*
X4554845Y-23631093D01*
X4550000Y-23600500D01*
X4550000Y-22427525D01*
X9969500Y-22427525D01*
X9969500Y-22572475D01*
X9975577Y-22595153D01*
X10007017Y-22712489D01*
X10079487Y-22838010D01*
X10079489Y-22838012D01*
X10079491Y-22838015D01*
X10181985Y-22940509D01*
X10181987Y-22940510D01*
X10181989Y-22940512D01*
X10307511Y-23012982D01*
X10307512Y-23012982D01*
X10307515Y-23012984D01*
X10447525Y-23050500D01*
X10447526Y-23050500D01*
X10592474Y-23050500D01*
X10592475Y-23050500D01*
X10732485Y-23012984D01*
X10732487Y-23012982D01*
X10732489Y-23012982D01*
X10858010Y-22940512D01*
X10858010Y-22940511D01*
X10858015Y-22940509D01*
X10960509Y-22838015D01*
X11032984Y-22712485D01*
X11042352Y-22677525D01*
X39617500Y-22677525D01*
X39617500Y-22822475D01*
X39638508Y-22900878D01*
X39655017Y-22962489D01*
X39727487Y-23088010D01*
X39727489Y-23088012D01*
X39727491Y-23088015D01*
X39829985Y-23190509D01*
X39829987Y-23190510D01*
X39829989Y-23190512D01*
X39955511Y-23262982D01*
X39955512Y-23262982D01*
X39955515Y-23262984D01*
X40095525Y-23300500D01*
X40095526Y-23300500D01*
X40240474Y-23300500D01*
X40240475Y-23300500D01*
X40380485Y-23262984D01*
X40380487Y-23262982D01*
X40380489Y-23262982D01*
X40506010Y-23190512D01*
X40506010Y-23190511D01*
X40506015Y-23190509D01*
X40608509Y-23088015D01*
X40608512Y-23088010D01*
X40680982Y-22962489D01*
X40680982Y-22962487D01*
X40680984Y-22962485D01*
X40718500Y-22822475D01*
X40718500Y-22677525D01*
X40707034Y-22634733D01*
X40710236Y-22573634D01*
X40748741Y-22526084D01*
X40807842Y-22510248D01*
X40852161Y-22523376D01*
X40942411Y-22575482D01*
X40942412Y-22575482D01*
X40942415Y-22575484D01*
X41082425Y-22613000D01*
X41082426Y-22613000D01*
X41227374Y-22613000D01*
X41227375Y-22613000D01*
X41367385Y-22575484D01*
X41367387Y-22575482D01*
X41367389Y-22575482D01*
X41492910Y-22503012D01*
X41492910Y-22503011D01*
X41492915Y-22503009D01*
X41595409Y-22400515D01*
X41652142Y-22302251D01*
X41667882Y-22274989D01*
X41667882Y-22274987D01*
X41667884Y-22274985D01*
X41705400Y-22134975D01*
X41705400Y-21990025D01*
X43300300Y-21990025D01*
X43300300Y-22134975D01*
X43309990Y-22171138D01*
X43337817Y-22274989D01*
X43410287Y-22400510D01*
X43410289Y-22400512D01*
X43410291Y-22400515D01*
X43512785Y-22503009D01*
X43512787Y-22503010D01*
X43512789Y-22503012D01*
X43638311Y-22575482D01*
X43638312Y-22575482D01*
X43638315Y-22575484D01*
X43778325Y-22613000D01*
X43778326Y-22613000D01*
X43923274Y-22613000D01*
X43923275Y-22613000D01*
X44063285Y-22575484D01*
X44142064Y-22530000D01*
X44201910Y-22517279D01*
X44257806Y-22542165D01*
X44288399Y-22595153D01*
X44287190Y-22641359D01*
X44277500Y-22677524D01*
X44277500Y-22677525D01*
X44277500Y-22822475D01*
X44298508Y-22900878D01*
X44315017Y-22962489D01*
X44387487Y-23088010D01*
X44387489Y-23088012D01*
X44387491Y-23088015D01*
X44472624Y-23173148D01*
X44500400Y-23227663D01*
X44490829Y-23288095D01*
X44472625Y-23313150D01*
X44399191Y-23386585D01*
X44399188Y-23386588D01*
X44399187Y-23386589D01*
X44326717Y-23512110D01*
X44317122Y-23547920D01*
X44289200Y-23652125D01*
X44289200Y-23797075D01*
X44311357Y-23879765D01*
X44326717Y-23937089D01*
X44399187Y-24062610D01*
X44399189Y-24062612D01*
X44399191Y-24062615D01*
X44501685Y-24165109D01*
X44501687Y-24165110D01*
X44501689Y-24165112D01*
X44627211Y-24237582D01*
X44627212Y-24237582D01*
X44627215Y-24237584D01*
X44767225Y-24275100D01*
X44767226Y-24275100D01*
X44912174Y-24275100D01*
X44912175Y-24275100D01*
X45052185Y-24237584D01*
X45052187Y-24237582D01*
X45052189Y-24237582D01*
X45177710Y-24165112D01*
X45177710Y-24165111D01*
X45177715Y-24165109D01*
X45280209Y-24062615D01*
X45352684Y-23937085D01*
X45375040Y-23853651D01*
X57712079Y-23853651D01*
X57712079Y-24021190D01*
X57744763Y-24185501D01*
X57744763Y-24185503D01*
X57808872Y-24340279D01*
X57808878Y-24340290D01*
X57864873Y-24424091D01*
X57901952Y-24479583D01*
X58020417Y-24598048D01*
X58092908Y-24646485D01*
X58159709Y-24691121D01*
X58159720Y-24691127D01*
X58179935Y-24699500D01*
X58314498Y-24755237D01*
X58478812Y-24787921D01*
X58478813Y-24787921D01*
X58646345Y-24787921D01*
X58646346Y-24787921D01*
X58810660Y-24755237D01*
X58965442Y-24691125D01*
X59104741Y-24598048D01*
X59506048Y-24196741D01*
X59599125Y-24057442D01*
X59663237Y-23902660D01*
X59695921Y-23738346D01*
X59695921Y-23712230D01*
X61445602Y-23712230D01*
X61445602Y-23879769D01*
X61478285Y-24044079D01*
X61478287Y-24044085D01*
X61542398Y-24198862D01*
X61542399Y-24198863D01*
X61635476Y-24338162D01*
X61753940Y-24456626D01*
X61893239Y-24549703D01*
X62048020Y-24613816D01*
X62212335Y-24646500D01*
X62212336Y-24646500D01*
X62379868Y-24646500D01*
X62379869Y-24646500D01*
X62544184Y-24613816D01*
X62698965Y-24549703D01*
X62838264Y-24456626D01*
X62956728Y-24338162D01*
X63049805Y-24198863D01*
X63113918Y-24044082D01*
X63146602Y-23879767D01*
X63146602Y-23712233D01*
X63113918Y-23547918D01*
X63049805Y-23393137D01*
X62956728Y-23253838D01*
X62838264Y-23135374D01*
X62698965Y-23042297D01*
X62698966Y-23042297D01*
X62698964Y-23042296D01*
X62544187Y-22978185D01*
X62544181Y-22978183D01*
X62379871Y-22945500D01*
X62379869Y-22945500D01*
X62212335Y-22945500D01*
X62212332Y-22945500D01*
X62048022Y-22978183D01*
X62048016Y-22978185D01*
X61893239Y-23042296D01*
X61753940Y-23135374D01*
X61753936Y-23135377D01*
X61635479Y-23253834D01*
X61635476Y-23253838D01*
X61542398Y-23393137D01*
X61478287Y-23547914D01*
X61478285Y-23547920D01*
X61445602Y-23712230D01*
X59695921Y-23712230D01*
X59695921Y-23570812D01*
X59663237Y-23406498D01*
X59619332Y-23300500D01*
X59599127Y-23251720D01*
X59599121Y-23251709D01*
X59521387Y-23135374D01*
X59506048Y-23112417D01*
X59387583Y-22993952D01*
X59307605Y-22940512D01*
X59248290Y-22900878D01*
X59248279Y-22900872D01*
X59093502Y-22836763D01*
X58929190Y-22804079D01*
X58929188Y-22804079D01*
X58761654Y-22804079D01*
X58761651Y-22804079D01*
X58597340Y-22836763D01*
X58597338Y-22836763D01*
X58442562Y-22900872D01*
X58442551Y-22900878D01*
X58303259Y-22993952D01*
X58303255Y-22993955D01*
X57901955Y-23395255D01*
X57901952Y-23395259D01*
X57808878Y-23534551D01*
X57808872Y-23534562D01*
X57744763Y-23689338D01*
X57744763Y-23689340D01*
X57712079Y-23853651D01*
X45375040Y-23853651D01*
X45390200Y-23797075D01*
X45390200Y-23652125D01*
X45352684Y-23512115D01*
X45352682Y-23512112D01*
X45352682Y-23512110D01*
X45280212Y-23386589D01*
X45280210Y-23386587D01*
X45280209Y-23386585D01*
X45195075Y-23301451D01*
X45167300Y-23246937D01*
X45176871Y-23186505D01*
X45195074Y-23161449D01*
X45268509Y-23088015D01*
X45268512Y-23088010D01*
X45340982Y-22962489D01*
X45340982Y-22962487D01*
X45340984Y-22962485D01*
X45378500Y-22822475D01*
X45378500Y-22677525D01*
X45340984Y-22537515D01*
X45340982Y-22537512D01*
X45340982Y-22537510D01*
X45268512Y-22411989D01*
X45268510Y-22411987D01*
X45268509Y-22411985D01*
X45166015Y-22309491D01*
X45166012Y-22309489D01*
X45166010Y-22309487D01*
X45040488Y-22237017D01*
X45040489Y-22237017D01*
X45010896Y-22229087D01*
X44900475Y-22199500D01*
X44755525Y-22199500D01*
X44708855Y-22212005D01*
X44615513Y-22237016D01*
X44536736Y-22282499D01*
X44476888Y-22295220D01*
X44420992Y-22270333D01*
X44390399Y-22217345D01*
X44391610Y-22171138D01*
X44401300Y-22134975D01*
X44401300Y-21990025D01*
X44363784Y-21850015D01*
X44363782Y-21850012D01*
X44363782Y-21850010D01*
X44291312Y-21724489D01*
X44291310Y-21724487D01*
X44291309Y-21724485D01*
X44188815Y-21621991D01*
X44188812Y-21621989D01*
X44188810Y-21621987D01*
X44063288Y-21549517D01*
X44063289Y-21549517D01*
X44023013Y-21538725D01*
X43923275Y-21512000D01*
X43778325Y-21512000D01*
X43772664Y-21513517D01*
X43638310Y-21549517D01*
X43512789Y-21621987D01*
X43410287Y-21724489D01*
X43337817Y-21850010D01*
X43312411Y-21944825D01*
X43300300Y-21990025D01*
X41705400Y-21990025D01*
X41667884Y-21850015D01*
X41667882Y-21850012D01*
X41667882Y-21850010D01*
X41595412Y-21724489D01*
X41595410Y-21724487D01*
X41595409Y-21724485D01*
X41492915Y-21621991D01*
X41492912Y-21621989D01*
X41492910Y-21621987D01*
X41367388Y-21549517D01*
X41367389Y-21549517D01*
X41327113Y-21538725D01*
X41227375Y-21512000D01*
X41082425Y-21512000D01*
X41076764Y-21513517D01*
X40942410Y-21549517D01*
X40816889Y-21621987D01*
X40714387Y-21724489D01*
X40641917Y-21850010D01*
X40604400Y-21990025D01*
X40604400Y-22134975D01*
X40604399Y-22134975D01*
X40615865Y-22177765D01*
X40612662Y-22238866D01*
X40574156Y-22286416D01*
X40515056Y-22302251D01*
X40470738Y-22289123D01*
X40380488Y-22237017D01*
X40380489Y-22237017D01*
X40350896Y-22229087D01*
X40240475Y-22199500D01*
X40095525Y-22199500D01*
X40033790Y-22216041D01*
X39955510Y-22237017D01*
X39829989Y-22309487D01*
X39727487Y-22411989D01*
X39655017Y-22537510D01*
X39628966Y-22634735D01*
X39617500Y-22677525D01*
X11042352Y-22677525D01*
X11070500Y-22572475D01*
X11070500Y-22427525D01*
X11032984Y-22287515D01*
X11032982Y-22287512D01*
X11032982Y-22287510D01*
X10960512Y-22161989D01*
X10960510Y-22161987D01*
X10960509Y-22161985D01*
X10858015Y-22059491D01*
X10858012Y-22059489D01*
X10858010Y-22059487D01*
X10796669Y-22024072D01*
X10732488Y-21987017D01*
X10732489Y-21987017D01*
X10702896Y-21979087D01*
X10592475Y-21949500D01*
X10447525Y-21949500D01*
X10430638Y-21954025D01*
X10307510Y-21987017D01*
X10181989Y-22059487D01*
X10079487Y-22161989D01*
X10007017Y-22287510D01*
X10001127Y-22309491D01*
X9969500Y-22427525D01*
X4550000Y-22427525D01*
X4550000Y-21944825D01*
X21574000Y-21944825D01*
X21574000Y-22089775D01*
X21593349Y-22161985D01*
X21611517Y-22229789D01*
X21683987Y-22355310D01*
X21683989Y-22355312D01*
X21683991Y-22355315D01*
X21786485Y-22457809D01*
X21786487Y-22457810D01*
X21786489Y-22457812D01*
X21912011Y-22530282D01*
X21912012Y-22530282D01*
X21912015Y-22530284D01*
X22052025Y-22567800D01*
X22052026Y-22567800D01*
X22196974Y-22567800D01*
X22196975Y-22567800D01*
X22336985Y-22530284D01*
X22336987Y-22530282D01*
X22336989Y-22530282D01*
X22462510Y-22457812D01*
X22462510Y-22457811D01*
X22462515Y-22457809D01*
X22565009Y-22355315D01*
X22603225Y-22289123D01*
X22637482Y-22229789D01*
X22637482Y-22229787D01*
X22637484Y-22229785D01*
X22675000Y-22089775D01*
X22675000Y-21944825D01*
X22637484Y-21804815D01*
X22637482Y-21804812D01*
X22637482Y-21804810D01*
X22565012Y-21679289D01*
X22565010Y-21679287D01*
X22565009Y-21679285D01*
X22462515Y-21576791D01*
X22462512Y-21576789D01*
X22462510Y-21576787D01*
X22396585Y-21538725D01*
X24783800Y-21538725D01*
X24783800Y-21683674D01*
X24821317Y-21823689D01*
X24893787Y-21949210D01*
X24893789Y-21949212D01*
X24893791Y-21949215D01*
X24996285Y-22051709D01*
X24996287Y-22051710D01*
X24996289Y-22051712D01*
X25121811Y-22124182D01*
X25121812Y-22124182D01*
X25121815Y-22124184D01*
X25261825Y-22161700D01*
X25261826Y-22161700D01*
X25406774Y-22161700D01*
X25406775Y-22161700D01*
X25546785Y-22124184D01*
X25546787Y-22124182D01*
X25546789Y-22124182D01*
X25672310Y-22051712D01*
X25672310Y-22051711D01*
X25672315Y-22051709D01*
X25769999Y-21954025D01*
X30196600Y-21954025D01*
X30196600Y-22098974D01*
X30234117Y-22238989D01*
X30306587Y-22364510D01*
X30306589Y-22364512D01*
X30306591Y-22364515D01*
X30409085Y-22467009D01*
X30409087Y-22467010D01*
X30409089Y-22467012D01*
X30534611Y-22539482D01*
X30534612Y-22539482D01*
X30534615Y-22539484D01*
X30674625Y-22577000D01*
X30674626Y-22577000D01*
X30819574Y-22577000D01*
X30819575Y-22577000D01*
X30959585Y-22539484D01*
X31085115Y-22467009D01*
X31187609Y-22364515D01*
X31239297Y-22274989D01*
X31260082Y-22238989D01*
X31260082Y-22238987D01*
X31260084Y-22238985D01*
X31297600Y-22098975D01*
X31297600Y-21954025D01*
X31260084Y-21814015D01*
X31260082Y-21814012D01*
X31260082Y-21814010D01*
X31187612Y-21688489D01*
X31187610Y-21688487D01*
X31187609Y-21688485D01*
X31085115Y-21585991D01*
X31085112Y-21585989D01*
X31085110Y-21585987D01*
X30959588Y-21513517D01*
X30959589Y-21513517D01*
X30925254Y-21504317D01*
X30819575Y-21476000D01*
X30674625Y-21476000D01*
X30629841Y-21488000D01*
X30534610Y-21513517D01*
X30409089Y-21585987D01*
X30306587Y-21688489D01*
X30234117Y-21814010D01*
X30196600Y-21954025D01*
X25769999Y-21954025D01*
X25774809Y-21949215D01*
X25777344Y-21944825D01*
X25804358Y-21898036D01*
X25804359Y-21898035D01*
X25847282Y-21823689D01*
X25847282Y-21823687D01*
X25847284Y-21823685D01*
X25884800Y-21683675D01*
X25884800Y-21538725D01*
X25847284Y-21398715D01*
X25847282Y-21398712D01*
X25847282Y-21398710D01*
X25774812Y-21273189D01*
X25774810Y-21273187D01*
X25774809Y-21273185D01*
X25672315Y-21170691D01*
X25672312Y-21170689D01*
X25672310Y-21170687D01*
X25546788Y-21098217D01*
X25546789Y-21098217D01*
X25503874Y-21086718D01*
X25406775Y-21060700D01*
X25261825Y-21060700D01*
X25229685Y-21069312D01*
X25121810Y-21098217D01*
X24996289Y-21170687D01*
X24893787Y-21273189D01*
X24821317Y-21398710D01*
X24783800Y-21538725D01*
X22396585Y-21538725D01*
X22336988Y-21504317D01*
X22336989Y-21504317D01*
X22293940Y-21492782D01*
X22196975Y-21466800D01*
X22052025Y-21466800D01*
X22017691Y-21476000D01*
X21912010Y-21504317D01*
X21786489Y-21576787D01*
X21683987Y-21679289D01*
X21611517Y-21804810D01*
X21586537Y-21898035D01*
X21574000Y-21944825D01*
X4550000Y-21944825D01*
X4550000Y-19827525D01*
X16049500Y-19827525D01*
X16049500Y-19972475D01*
X16064619Y-20028898D01*
X16087017Y-20112489D01*
X16159487Y-20238010D01*
X16159489Y-20238012D01*
X16159491Y-20238015D01*
X16261985Y-20340509D01*
X16261987Y-20340510D01*
X16261989Y-20340512D01*
X16387511Y-20412982D01*
X16387512Y-20412982D01*
X16387515Y-20412984D01*
X16419035Y-20421430D01*
X16470349Y-20454753D01*
X16492276Y-20511874D01*
X16476441Y-20570975D01*
X16463418Y-20587058D01*
X16450987Y-20599489D01*
X16378517Y-20725010D01*
X16364422Y-20777613D01*
X16341000Y-20865025D01*
X16341000Y-21009975D01*
X16361564Y-21086719D01*
X16378517Y-21149989D01*
X16450987Y-21275510D01*
X16450989Y-21275512D01*
X16450991Y-21275515D01*
X16553485Y-21378009D01*
X16553487Y-21378010D01*
X16553489Y-21378012D01*
X16679011Y-21450482D01*
X16679012Y-21450482D01*
X16679015Y-21450484D01*
X16819025Y-21488000D01*
X16819026Y-21488000D01*
X16963974Y-21488000D01*
X16963975Y-21488000D01*
X17103985Y-21450484D01*
X17103987Y-21450482D01*
X17103989Y-21450482D01*
X17229510Y-21378012D01*
X17229510Y-21378011D01*
X17229515Y-21378009D01*
X17332009Y-21275515D01*
X17380062Y-21192285D01*
X17404482Y-21149989D01*
X17404482Y-21149987D01*
X17404484Y-21149985D01*
X17442000Y-21009975D01*
X17442000Y-20865025D01*
X17404484Y-20725015D01*
X17404482Y-20725012D01*
X17404482Y-20725010D01*
X17398313Y-20714325D01*
X36699500Y-20714325D01*
X36699500Y-20859275D01*
X36713899Y-20913013D01*
X36737017Y-20999289D01*
X36809487Y-21124810D01*
X36809489Y-21124812D01*
X36809491Y-21124815D01*
X36911985Y-21227309D01*
X36911987Y-21227310D01*
X36911989Y-21227312D01*
X37037511Y-21299782D01*
X37037512Y-21299782D01*
X37037515Y-21299784D01*
X37177525Y-21337300D01*
X37177526Y-21337300D01*
X37322474Y-21337300D01*
X37322475Y-21337300D01*
X37462485Y-21299784D01*
X37462487Y-21299782D01*
X37462489Y-21299782D01*
X37588010Y-21227312D01*
X37588010Y-21227311D01*
X37588015Y-21227309D01*
X37690509Y-21124815D01*
X37690512Y-21124810D01*
X37762982Y-20999289D01*
X37762982Y-20999287D01*
X37762984Y-20999285D01*
X37800500Y-20859275D01*
X37800500Y-20714325D01*
X37762984Y-20574315D01*
X37762982Y-20574312D01*
X37762982Y-20574310D01*
X37690512Y-20448789D01*
X37690510Y-20448787D01*
X37690509Y-20448785D01*
X37588015Y-20346291D01*
X37588012Y-20346289D01*
X37588010Y-20346287D01*
X37462488Y-20273817D01*
X37462489Y-20273817D01*
X37375234Y-20250437D01*
X37322475Y-20236300D01*
X37177525Y-20236300D01*
X37126486Y-20249976D01*
X37037510Y-20273817D01*
X36911989Y-20346287D01*
X36809487Y-20448789D01*
X36737017Y-20574310D01*
X36699500Y-20714325D01*
X17398313Y-20714325D01*
X17332012Y-20599489D01*
X17332010Y-20599487D01*
X17332009Y-20599485D01*
X17229515Y-20496991D01*
X17229512Y-20496989D01*
X17229510Y-20496987D01*
X17103988Y-20424517D01*
X17103984Y-20424515D01*
X17072463Y-20416069D01*
X17021149Y-20382745D01*
X16999223Y-20325623D01*
X17015059Y-20266523D01*
X17028076Y-20250447D01*
X17040509Y-20238015D01*
X17086810Y-20157820D01*
X17112982Y-20112489D01*
X17112982Y-20112487D01*
X17112984Y-20112485D01*
X17150500Y-19972475D01*
X17150500Y-19827525D01*
X17112984Y-19687515D01*
X17112982Y-19687512D01*
X17112982Y-19687510D01*
X17040512Y-19561989D01*
X17040510Y-19561987D01*
X17040509Y-19561985D01*
X16938015Y-19459491D01*
X16938012Y-19459489D01*
X16938010Y-19459487D01*
X16850607Y-19409025D01*
X24579400Y-19409025D01*
X24579400Y-19553975D01*
X24599820Y-19630182D01*
X24616917Y-19693989D01*
X24689387Y-19819510D01*
X24689389Y-19819512D01*
X24689391Y-19819515D01*
X24791885Y-19922009D01*
X24791887Y-19922010D01*
X24791889Y-19922012D01*
X24917411Y-19994482D01*
X24917412Y-19994482D01*
X24917415Y-19994484D01*
X25057425Y-20032000D01*
X25057426Y-20032000D01*
X25202374Y-20032000D01*
X25202375Y-20032000D01*
X25342385Y-19994484D01*
X25342387Y-19994482D01*
X25342389Y-19994482D01*
X25467910Y-19922012D01*
X25467910Y-19922011D01*
X25467915Y-19922009D01*
X25570409Y-19819515D01*
X25581079Y-19801035D01*
X25594615Y-19777589D01*
X25635124Y-19707425D01*
X35254800Y-19707425D01*
X35254800Y-19852374D01*
X35292317Y-19992389D01*
X35364787Y-20117910D01*
X35364789Y-20117912D01*
X35364791Y-20117915D01*
X35467285Y-20220409D01*
X35467287Y-20220410D01*
X35467289Y-20220412D01*
X35592811Y-20292882D01*
X35592812Y-20292882D01*
X35592815Y-20292884D01*
X35732825Y-20330400D01*
X35732826Y-20330400D01*
X35877774Y-20330400D01*
X35877775Y-20330400D01*
X36017785Y-20292884D01*
X36017787Y-20292882D01*
X36017789Y-20292882D01*
X36143310Y-20220412D01*
X36143310Y-20220411D01*
X36143315Y-20220409D01*
X36245809Y-20117915D01*
X36278082Y-20062017D01*
X36314393Y-19999125D01*
X37902900Y-19999125D01*
X37902900Y-20144074D01*
X37940417Y-20284089D01*
X38012887Y-20409610D01*
X38012889Y-20409612D01*
X38012891Y-20409615D01*
X38115385Y-20512109D01*
X38115387Y-20512110D01*
X38115389Y-20512112D01*
X38240911Y-20584582D01*
X38240912Y-20584582D01*
X38240915Y-20584584D01*
X38380925Y-20622100D01*
X38380926Y-20622100D01*
X38525874Y-20622100D01*
X38525875Y-20622100D01*
X38665885Y-20584584D01*
X38665887Y-20584582D01*
X38665889Y-20584582D01*
X38791410Y-20512112D01*
X38791410Y-20512111D01*
X38791415Y-20512109D01*
X38800999Y-20502525D01*
X47252400Y-20502525D01*
X47252400Y-20647474D01*
X47289917Y-20787489D01*
X47362387Y-20913010D01*
X47362389Y-20913012D01*
X47362391Y-20913015D01*
X47464885Y-21015509D01*
X47464887Y-21015510D01*
X47464889Y-21015512D01*
X47590411Y-21087982D01*
X47590412Y-21087982D01*
X47590415Y-21087984D01*
X47730425Y-21125500D01*
X47730426Y-21125500D01*
X47875374Y-21125500D01*
X47875375Y-21125500D01*
X48015385Y-21087984D01*
X48015387Y-21087982D01*
X48015389Y-21087982D01*
X48140910Y-21015512D01*
X48140910Y-21015511D01*
X48140915Y-21015509D01*
X48243409Y-20913015D01*
X48246694Y-20907325D01*
X51179700Y-20907325D01*
X51179700Y-21052275D01*
X51189268Y-21087982D01*
X51217217Y-21192289D01*
X51289687Y-21317810D01*
X51289689Y-21317812D01*
X51289691Y-21317815D01*
X51392185Y-21420309D01*
X51392187Y-21420310D01*
X51392189Y-21420312D01*
X51517711Y-21492782D01*
X51517712Y-21492782D01*
X51517715Y-21492784D01*
X51657725Y-21530300D01*
X51657726Y-21530300D01*
X51802674Y-21530300D01*
X51802675Y-21530300D01*
X51942685Y-21492784D01*
X51942687Y-21492782D01*
X51942689Y-21492782D01*
X52068210Y-21420312D01*
X52068210Y-21420311D01*
X52068215Y-21420309D01*
X52170709Y-21317815D01*
X52181119Y-21299784D01*
X52243182Y-21192289D01*
X52243182Y-21192287D01*
X52243184Y-21192285D01*
X52280700Y-21052275D01*
X52280700Y-20907325D01*
X52243184Y-20767315D01*
X52243182Y-20767312D01*
X52243182Y-20767310D01*
X52170712Y-20641789D01*
X52170710Y-20641787D01*
X52170709Y-20641785D01*
X52068215Y-20539291D01*
X52068212Y-20539289D01*
X52068210Y-20539287D01*
X51942690Y-20466818D01*
X51942687Y-20466817D01*
X51942685Y-20466816D01*
X51802675Y-20429300D01*
X51657725Y-20429300D01*
X51595990Y-20445841D01*
X51517710Y-20466817D01*
X51392189Y-20539287D01*
X51289687Y-20641789D01*
X51217217Y-20767310D01*
X51211811Y-20787485D01*
X51179700Y-20907325D01*
X48246694Y-20907325D01*
X48315884Y-20787485D01*
X48353400Y-20647475D01*
X48353400Y-20502525D01*
X48315884Y-20362515D01*
X48315882Y-20362512D01*
X48315882Y-20362510D01*
X48243412Y-20236989D01*
X48243410Y-20236987D01*
X48243409Y-20236985D01*
X48140915Y-20134491D01*
X48140912Y-20134489D01*
X48140910Y-20134487D01*
X48015388Y-20062017D01*
X48015389Y-20062017D01*
X47985796Y-20054087D01*
X47891789Y-20028898D01*
X57821176Y-20028898D01*
X58400891Y-20028898D01*
X58377852Y-20068803D01*
X58354000Y-20157820D01*
X58354000Y-20249976D01*
X58377852Y-20338993D01*
X58400891Y-20378898D01*
X57821177Y-20378898D01*
X57838586Y-20466417D01*
X57838586Y-20466419D01*
X57906429Y-20630206D01*
X58004923Y-20777613D01*
X58130284Y-20902974D01*
X58277691Y-21001468D01*
X58441473Y-21069309D01*
X58441484Y-21069312D01*
X58529000Y-21086719D01*
X58529000Y-20507007D01*
X58568905Y-20530046D01*
X58657922Y-20553898D01*
X58750078Y-20553898D01*
X58839095Y-20530046D01*
X58879000Y-20507007D01*
X58879000Y-21086718D01*
X58966515Y-21069312D01*
X58966526Y-21069309D01*
X59130308Y-21001468D01*
X59277715Y-20902974D01*
X59403076Y-20777613D01*
X59501570Y-20630206D01*
X59569413Y-20466419D01*
X59569413Y-20466417D01*
X59586823Y-20378898D01*
X59007109Y-20378898D01*
X59030148Y-20338993D01*
X59054000Y-20249976D01*
X59054000Y-20157820D01*
X59043900Y-20120128D01*
X61445602Y-20120128D01*
X61445602Y-20287667D01*
X61478285Y-20451977D01*
X61478287Y-20451983D01*
X61542398Y-20606760D01*
X61565801Y-20641785D01*
X61635476Y-20746060D01*
X61753940Y-20864524D01*
X61893239Y-20957601D01*
X62048020Y-21021714D01*
X62212335Y-21054398D01*
X62212336Y-21054398D01*
X62379868Y-21054398D01*
X62379869Y-21054398D01*
X62544184Y-21021714D01*
X62698965Y-20957601D01*
X62838264Y-20864524D01*
X62956728Y-20746060D01*
X63049805Y-20606761D01*
X63113918Y-20451980D01*
X63146602Y-20287665D01*
X63146602Y-20120131D01*
X63113918Y-19955816D01*
X63049805Y-19801035D01*
X62956728Y-19661736D01*
X62838264Y-19543272D01*
X62745186Y-19481079D01*
X62698964Y-19450194D01*
X62544187Y-19386083D01*
X62544181Y-19386081D01*
X62379871Y-19353398D01*
X62379869Y-19353398D01*
X62212335Y-19353398D01*
X62212332Y-19353398D01*
X62048022Y-19386081D01*
X62048016Y-19386083D01*
X61893239Y-19450194D01*
X61753940Y-19543272D01*
X61753936Y-19543275D01*
X61635479Y-19661732D01*
X61635476Y-19661736D01*
X61542398Y-19801035D01*
X61478287Y-19955812D01*
X61478285Y-19955818D01*
X61445602Y-20120128D01*
X59043900Y-20120128D01*
X59030148Y-20068803D01*
X59007109Y-20028898D01*
X59586823Y-20028898D01*
X59569413Y-19941378D01*
X59569413Y-19941376D01*
X59501570Y-19777589D01*
X59403076Y-19630182D01*
X59277715Y-19504821D01*
X59130308Y-19406327D01*
X58966520Y-19338484D01*
X58879000Y-19321075D01*
X58879000Y-19900789D01*
X58839095Y-19877750D01*
X58750078Y-19853898D01*
X58657922Y-19853898D01*
X58568905Y-19877750D01*
X58529000Y-19900789D01*
X58529000Y-19321075D01*
X58441480Y-19338484D01*
X58441478Y-19338484D01*
X58277691Y-19406327D01*
X58130284Y-19504821D01*
X58004923Y-19630182D01*
X57906429Y-19777589D01*
X57838586Y-19941376D01*
X57838586Y-19941378D01*
X57821176Y-20028898D01*
X47891789Y-20028898D01*
X47875375Y-20024500D01*
X47730425Y-20024500D01*
X47714012Y-20028898D01*
X47590410Y-20062017D01*
X47464889Y-20134487D01*
X47362387Y-20236989D01*
X47289917Y-20362510D01*
X47252400Y-20502525D01*
X38800999Y-20502525D01*
X38893909Y-20409615D01*
X38906966Y-20387000D01*
X38966382Y-20284089D01*
X38966382Y-20284087D01*
X38966384Y-20284085D01*
X39003900Y-20144075D01*
X39003900Y-19999125D01*
X38966384Y-19859115D01*
X38966382Y-19859112D01*
X38966382Y-19859110D01*
X38893912Y-19733589D01*
X38893910Y-19733587D01*
X38893909Y-19733585D01*
X38791415Y-19631091D01*
X38791412Y-19631089D01*
X38791410Y-19631087D01*
X38665888Y-19558617D01*
X38665889Y-19558617D01*
X38608621Y-19543272D01*
X38525875Y-19521100D01*
X38380925Y-19521100D01*
X38319190Y-19537641D01*
X38240910Y-19558617D01*
X38115389Y-19631087D01*
X38012887Y-19733589D01*
X37940417Y-19859110D01*
X37902900Y-19999125D01*
X36314393Y-19999125D01*
X36318282Y-19992389D01*
X36318282Y-19992387D01*
X36318284Y-19992385D01*
X36355800Y-19852375D01*
X36355800Y-19707425D01*
X36318284Y-19567415D01*
X36318282Y-19567412D01*
X36318282Y-19567410D01*
X36245812Y-19441889D01*
X36245810Y-19441887D01*
X36245809Y-19441885D01*
X36143315Y-19339391D01*
X36143312Y-19339389D01*
X36143310Y-19339387D01*
X36085179Y-19305825D01*
X43598100Y-19305825D01*
X43598100Y-19450775D01*
X43612582Y-19504821D01*
X43635617Y-19590789D01*
X43708087Y-19716310D01*
X43708089Y-19716312D01*
X43708091Y-19716315D01*
X43810585Y-19818809D01*
X43810587Y-19818810D01*
X43810589Y-19818812D01*
X43936111Y-19891282D01*
X43936112Y-19891282D01*
X43936115Y-19891284D01*
X44076125Y-19928800D01*
X44076126Y-19928800D01*
X44221074Y-19928800D01*
X44221075Y-19928800D01*
X44361085Y-19891284D01*
X44361087Y-19891282D01*
X44361089Y-19891282D01*
X44486610Y-19818812D01*
X44486610Y-19818811D01*
X44486615Y-19818809D01*
X44589109Y-19716315D01*
X44605740Y-19687510D01*
X44661582Y-19590789D01*
X44661582Y-19590787D01*
X44661584Y-19590785D01*
X44699100Y-19450775D01*
X44699100Y-19305825D01*
X44661584Y-19165815D01*
X44661582Y-19165812D01*
X44661582Y-19165810D01*
X44589112Y-19040289D01*
X44589110Y-19040287D01*
X44589109Y-19040285D01*
X44486615Y-18937791D01*
X44486612Y-18937789D01*
X44486610Y-18937787D01*
X44361088Y-18865317D01*
X44361089Y-18865317D01*
X44331496Y-18857387D01*
X44221075Y-18827800D01*
X44076125Y-18827800D01*
X44014390Y-18844341D01*
X43936110Y-18865317D01*
X43810589Y-18937787D01*
X43708087Y-19040289D01*
X43635617Y-19165810D01*
X43622977Y-19212982D01*
X43598100Y-19305825D01*
X36085179Y-19305825D01*
X36017788Y-19266917D01*
X36017789Y-19266917D01*
X35956520Y-19250500D01*
X35877775Y-19229400D01*
X35732825Y-19229400D01*
X35671090Y-19245941D01*
X35592810Y-19266917D01*
X35467289Y-19339387D01*
X35364787Y-19441889D01*
X35292317Y-19567410D01*
X35254800Y-19707425D01*
X25635124Y-19707425D01*
X25642884Y-19693985D01*
X25680400Y-19553975D01*
X25680400Y-19409025D01*
X25642884Y-19269015D01*
X25642882Y-19269012D01*
X25642882Y-19269010D01*
X25570412Y-19143489D01*
X25570410Y-19143487D01*
X25570409Y-19143485D01*
X25467915Y-19040991D01*
X25467912Y-19040989D01*
X25467910Y-19040987D01*
X25342388Y-18968517D01*
X25342389Y-18968517D01*
X25312796Y-18960587D01*
X25202375Y-18931000D01*
X25057425Y-18931000D01*
X24995690Y-18947541D01*
X24917410Y-18968517D01*
X24791889Y-19040987D01*
X24689387Y-19143489D01*
X24616917Y-19269010D01*
X24595350Y-19349500D01*
X24579400Y-19409025D01*
X16850607Y-19409025D01*
X16812488Y-19387017D01*
X16812489Y-19387017D01*
X16782896Y-19379087D01*
X16672475Y-19349500D01*
X16527525Y-19349500D01*
X16512978Y-19353398D01*
X16387510Y-19387017D01*
X16261989Y-19459487D01*
X16159487Y-19561989D01*
X16087017Y-19687510D01*
X16085281Y-19693989D01*
X16049500Y-19827525D01*
X4550000Y-19827525D01*
X4550000Y-18295325D01*
X10841900Y-18295325D01*
X10841900Y-18440274D01*
X10879417Y-18580289D01*
X10951887Y-18705810D01*
X10951889Y-18705812D01*
X10951891Y-18705815D01*
X11054385Y-18808309D01*
X11054387Y-18808310D01*
X11054389Y-18808312D01*
X11179911Y-18880782D01*
X11179912Y-18880782D01*
X11179915Y-18880784D01*
X11319925Y-18918300D01*
X11319926Y-18918300D01*
X11464874Y-18918300D01*
X11464875Y-18918300D01*
X11604885Y-18880784D01*
X11604887Y-18880782D01*
X11604889Y-18880782D01*
X11730410Y-18808312D01*
X11730410Y-18808311D01*
X11730415Y-18808309D01*
X11832909Y-18705815D01*
X11905384Y-18580285D01*
X11942900Y-18440275D01*
X11942900Y-18295325D01*
X11940676Y-18287025D01*
X13188900Y-18287025D01*
X13188900Y-18431974D01*
X13226417Y-18571989D01*
X13298887Y-18697510D01*
X13298889Y-18697512D01*
X13298891Y-18697515D01*
X13401385Y-18800009D01*
X13401387Y-18800010D01*
X13401389Y-18800012D01*
X13526911Y-18872482D01*
X13526912Y-18872482D01*
X13526915Y-18872484D01*
X13666925Y-18910000D01*
X13666926Y-18910000D01*
X13811874Y-18910000D01*
X13811875Y-18910000D01*
X13951885Y-18872484D01*
X13951887Y-18872482D01*
X13951889Y-18872482D01*
X14077410Y-18800012D01*
X14077410Y-18800011D01*
X14077415Y-18800009D01*
X14179909Y-18697515D01*
X14220318Y-18627525D01*
X15199500Y-18627525D01*
X15199500Y-18772475D01*
X15219894Y-18848585D01*
X15237017Y-18912489D01*
X15309487Y-19038010D01*
X15309489Y-19038012D01*
X15309491Y-19038015D01*
X15411985Y-19140509D01*
X15411987Y-19140510D01*
X15411989Y-19140512D01*
X15537511Y-19212982D01*
X15537512Y-19212982D01*
X15537515Y-19212984D01*
X15677525Y-19250500D01*
X15677526Y-19250500D01*
X15822474Y-19250500D01*
X15822475Y-19250500D01*
X15962485Y-19212984D01*
X15962487Y-19212982D01*
X15962489Y-19212982D01*
X16088010Y-19140512D01*
X16088010Y-19140511D01*
X16088015Y-19140509D01*
X16190509Y-19038015D01*
X16230634Y-18968517D01*
X16262982Y-18912489D01*
X16262982Y-18912487D01*
X16262984Y-18912485D01*
X16300500Y-18772475D01*
X16300500Y-18627525D01*
X16283378Y-18563625D01*
X45002100Y-18563625D01*
X45002100Y-18708574D01*
X45039617Y-18848589D01*
X45112087Y-18974110D01*
X45112089Y-18974112D01*
X45112091Y-18974115D01*
X45214585Y-19076609D01*
X45214587Y-19076610D01*
X45214589Y-19076612D01*
X45340111Y-19149082D01*
X45340112Y-19149082D01*
X45340115Y-19149084D01*
X45480125Y-19186600D01*
X45480126Y-19186600D01*
X45625074Y-19186600D01*
X45625075Y-19186600D01*
X45765085Y-19149084D01*
X45765087Y-19149082D01*
X45765089Y-19149082D01*
X45890610Y-19076612D01*
X45890610Y-19076611D01*
X45890615Y-19076609D01*
X45993109Y-18974115D01*
X46055924Y-18865317D01*
X46065582Y-18848589D01*
X46065582Y-18848587D01*
X46065584Y-18848585D01*
X46103100Y-18708575D01*
X46103100Y-18563625D01*
X46065584Y-18423615D01*
X46065582Y-18423612D01*
X46065582Y-18423610D01*
X45993112Y-18298089D01*
X45993110Y-18298087D01*
X45993109Y-18298085D01*
X45890615Y-18195591D01*
X45890612Y-18195589D01*
X45890610Y-18195587D01*
X45765088Y-18123117D01*
X45765089Y-18123117D01*
X45735496Y-18115187D01*
X45625075Y-18085600D01*
X45480125Y-18085600D01*
X45418390Y-18102141D01*
X45340110Y-18123117D01*
X45214589Y-18195587D01*
X45112087Y-18298089D01*
X45039617Y-18423610D01*
X45002100Y-18563625D01*
X16283378Y-18563625D01*
X16262984Y-18487515D01*
X16262982Y-18487512D01*
X16262982Y-18487510D01*
X16190512Y-18361989D01*
X16190510Y-18361987D01*
X16190509Y-18361985D01*
X16088015Y-18259491D01*
X16088012Y-18259489D01*
X16088010Y-18259487D01*
X15962488Y-18187017D01*
X15962489Y-18187017D01*
X15932896Y-18179087D01*
X15822475Y-18149500D01*
X15677525Y-18149500D01*
X15621974Y-18164385D01*
X15537510Y-18187017D01*
X15411989Y-18259487D01*
X15309487Y-18361989D01*
X15237017Y-18487510D01*
X15216622Y-18563625D01*
X15199500Y-18627525D01*
X14220318Y-18627525D01*
X14252384Y-18571985D01*
X14289900Y-18431975D01*
X14289900Y-18287025D01*
X14252384Y-18147015D01*
X14252382Y-18147012D01*
X14252382Y-18147010D01*
X14179912Y-18021489D01*
X14179910Y-18021487D01*
X14179909Y-18021485D01*
X14077415Y-17918991D01*
X14077412Y-17918989D01*
X14077410Y-17918987D01*
X14008886Y-17879425D01*
X24232000Y-17879425D01*
X24232000Y-18024374D01*
X24269517Y-18164389D01*
X24341987Y-18289910D01*
X24341989Y-18289912D01*
X24341991Y-18289915D01*
X24444485Y-18392409D01*
X24444487Y-18392410D01*
X24444489Y-18392412D01*
X24570011Y-18464882D01*
X24570012Y-18464882D01*
X24570015Y-18464884D01*
X24710025Y-18502400D01*
X24710026Y-18502400D01*
X24854974Y-18502400D01*
X24854975Y-18502400D01*
X24994985Y-18464884D01*
X25120515Y-18392409D01*
X25223009Y-18289915D01*
X25224678Y-18287025D01*
X25295482Y-18164389D01*
X25295482Y-18164387D01*
X25295484Y-18164385D01*
X25333000Y-18024375D01*
X25333000Y-17879425D01*
X25295484Y-17739415D01*
X25295482Y-17739412D01*
X25295482Y-17739410D01*
X25223012Y-17613889D01*
X25223010Y-17613887D01*
X25223009Y-17613885D01*
X25120515Y-17511391D01*
X25120512Y-17511389D01*
X25120510Y-17511387D01*
X24994988Y-17438917D01*
X24994989Y-17438917D01*
X24965396Y-17430987D01*
X24854975Y-17401400D01*
X24710025Y-17401400D01*
X24648290Y-17417941D01*
X24570010Y-17438917D01*
X24444489Y-17511387D01*
X24341987Y-17613889D01*
X24269517Y-17739410D01*
X24232000Y-17879425D01*
X14008886Y-17879425D01*
X13951888Y-17846517D01*
X13951889Y-17846517D01*
X13910027Y-17835300D01*
X13811875Y-17809000D01*
X13666925Y-17809000D01*
X13605190Y-17825541D01*
X13526910Y-17846517D01*
X13401389Y-17918987D01*
X13298887Y-18021489D01*
X13226417Y-18147010D01*
X13188900Y-18287025D01*
X11940676Y-18287025D01*
X11905384Y-18155315D01*
X11905382Y-18155312D01*
X11905382Y-18155310D01*
X11832912Y-18029789D01*
X11832910Y-18029787D01*
X11832909Y-18029785D01*
X11730415Y-17927291D01*
X11730412Y-17927289D01*
X11730410Y-17927287D01*
X11604888Y-17854817D01*
X11604889Y-17854817D01*
X11532051Y-17835300D01*
X11464875Y-17817300D01*
X11319925Y-17817300D01*
X11258190Y-17833841D01*
X11179910Y-17854817D01*
X11054389Y-17927287D01*
X10951887Y-18029789D01*
X10879417Y-18155310D01*
X10841900Y-18295325D01*
X4550000Y-18295325D01*
X4550000Y-17295425D01*
X36700200Y-17295425D01*
X36700200Y-17440374D01*
X36737717Y-17580389D01*
X36810187Y-17705910D01*
X36810189Y-17705912D01*
X36810191Y-17705915D01*
X36912685Y-17808409D01*
X36912687Y-17808410D01*
X36912689Y-17808412D01*
X37038211Y-17880882D01*
X37038212Y-17880882D01*
X37038215Y-17880884D01*
X37178225Y-17918400D01*
X37178226Y-17918400D01*
X37323174Y-17918400D01*
X37323175Y-17918400D01*
X37463185Y-17880884D01*
X37463187Y-17880882D01*
X37463189Y-17880882D01*
X37588710Y-17808412D01*
X37588710Y-17808411D01*
X37588715Y-17808409D01*
X37691209Y-17705915D01*
X37739190Y-17622810D01*
X37763682Y-17580389D01*
X37763682Y-17580387D01*
X37763684Y-17580385D01*
X37801200Y-17440375D01*
X37801200Y-17295425D01*
X37784060Y-17231458D01*
X37784060Y-17231456D01*
X37778934Y-17212325D01*
X41760700Y-17212325D01*
X41760700Y-17357275D01*
X41782576Y-17438916D01*
X41798217Y-17497289D01*
X41870687Y-17622810D01*
X41870689Y-17622812D01*
X41870691Y-17622815D01*
X41973185Y-17725309D01*
X41973187Y-17725310D01*
X41973189Y-17725312D01*
X42098711Y-17797782D01*
X42098712Y-17797782D01*
X42098715Y-17797784D01*
X42238725Y-17835300D01*
X42238726Y-17835300D01*
X42383674Y-17835300D01*
X42383675Y-17835300D01*
X42523685Y-17797784D01*
X42523687Y-17797782D01*
X42523689Y-17797782D01*
X42649210Y-17725312D01*
X42649210Y-17725311D01*
X42649215Y-17725309D01*
X42751709Y-17622815D01*
X42751712Y-17622810D01*
X42824182Y-17497289D01*
X42824182Y-17497287D01*
X42824184Y-17497285D01*
X42861700Y-17357275D01*
X42861700Y-17212325D01*
X42824184Y-17072315D01*
X42824182Y-17072312D01*
X42824182Y-17072310D01*
X42751712Y-16946789D01*
X42751710Y-16946787D01*
X42751709Y-16946785D01*
X42649215Y-16844291D01*
X42649212Y-16844289D01*
X42649210Y-16844287D01*
X42523688Y-16771817D01*
X42523689Y-16771817D01*
X42494096Y-16763887D01*
X42383675Y-16734300D01*
X42238725Y-16734300D01*
X42176990Y-16750841D01*
X42098710Y-16771817D01*
X41973189Y-16844287D01*
X41870687Y-16946789D01*
X41798217Y-17072310D01*
X41760700Y-17212325D01*
X37778934Y-17212325D01*
X37763684Y-17155415D01*
X37763682Y-17155411D01*
X37691212Y-17029889D01*
X37691210Y-17029887D01*
X37691209Y-17029885D01*
X37588715Y-16927391D01*
X37588712Y-16927389D01*
X37588710Y-16927387D01*
X37463188Y-16854917D01*
X37463189Y-16854917D01*
X37423517Y-16844287D01*
X37323175Y-16817400D01*
X37178225Y-16817400D01*
X37116490Y-16833941D01*
X37038210Y-16854917D01*
X36912689Y-16927387D01*
X36810187Y-17029889D01*
X36737717Y-17155410D01*
X36700200Y-17295425D01*
X4550000Y-17295425D01*
X4550000Y-16533625D01*
X13493300Y-16533625D01*
X13493300Y-16678574D01*
X13530817Y-16818589D01*
X13603287Y-16944110D01*
X13603289Y-16944112D01*
X13603291Y-16944115D01*
X13705785Y-17046609D01*
X13705787Y-17046610D01*
X13705789Y-17046612D01*
X13831311Y-17119082D01*
X13831312Y-17119082D01*
X13831315Y-17119084D01*
X13971325Y-17156600D01*
X13971326Y-17156600D01*
X14116274Y-17156600D01*
X14116275Y-17156600D01*
X14256285Y-17119084D01*
X14256287Y-17119082D01*
X14256289Y-17119082D01*
X14381811Y-17046612D01*
X14381811Y-17046611D01*
X14381815Y-17046609D01*
X14382140Y-17046283D01*
X14382433Y-17046134D01*
X14386961Y-17042660D01*
X14387604Y-17043498D01*
X14436652Y-17018501D01*
X14497085Y-17028067D01*
X14522152Y-17046277D01*
X14561983Y-17086108D01*
X14561989Y-17086112D01*
X14687511Y-17158582D01*
X14687512Y-17158582D01*
X14687515Y-17158584D01*
X14827525Y-17196100D01*
X14827526Y-17196100D01*
X14972474Y-17196100D01*
X14972475Y-17196100D01*
X15112485Y-17158584D01*
X15112487Y-17158582D01*
X15112489Y-17158582D01*
X15238010Y-17086112D01*
X15238010Y-17086111D01*
X15238015Y-17086109D01*
X15340509Y-16983615D01*
X15361773Y-16946785D01*
X15412982Y-16858089D01*
X15412982Y-16858087D01*
X15412984Y-16858085D01*
X15450500Y-16718075D01*
X15450500Y-16573125D01*
X15412984Y-16433115D01*
X15412982Y-16433112D01*
X15412982Y-16433110D01*
X15340512Y-16307589D01*
X15340510Y-16307587D01*
X15340509Y-16307585D01*
X15238015Y-16205091D01*
X15238012Y-16205089D01*
X15238010Y-16205087D01*
X15112488Y-16132617D01*
X15112489Y-16132617D01*
X15053773Y-16116884D01*
X14972475Y-16095100D01*
X14827525Y-16095100D01*
X14765790Y-16111641D01*
X14687510Y-16132617D01*
X14561983Y-16205091D01*
X14561979Y-16205094D01*
X14561638Y-16205436D01*
X14561330Y-16205592D01*
X14556835Y-16209042D01*
X14556195Y-16208207D01*
X14507116Y-16233202D01*
X14446686Y-16223619D01*
X14421648Y-16205424D01*
X14381815Y-16165591D01*
X14381812Y-16165589D01*
X14381810Y-16165587D01*
X14256288Y-16093117D01*
X14256289Y-16093117D01*
X14226696Y-16085187D01*
X14116275Y-16055600D01*
X13971325Y-16055600D01*
X13909590Y-16072141D01*
X13831310Y-16093117D01*
X13705789Y-16165587D01*
X13603287Y-16268089D01*
X13530817Y-16393610D01*
X13493300Y-16533625D01*
X4550000Y-16533625D01*
X4550000Y-15531425D01*
X12491100Y-15531425D01*
X12491100Y-15676374D01*
X12528617Y-15816389D01*
X12601087Y-15941910D01*
X12601089Y-15941912D01*
X12601091Y-15941915D01*
X12703585Y-16044409D01*
X12703587Y-16044410D01*
X12703589Y-16044412D01*
X12829111Y-16116882D01*
X12829112Y-16116882D01*
X12829115Y-16116884D01*
X12969125Y-16154400D01*
X12969126Y-16154400D01*
X13114074Y-16154400D01*
X13114075Y-16154400D01*
X13254085Y-16116884D01*
X13254087Y-16116882D01*
X13254089Y-16116882D01*
X13379610Y-16044412D01*
X13379610Y-16044411D01*
X13379615Y-16044409D01*
X13482109Y-15941915D01*
X13554584Y-15816385D01*
X13592100Y-15676375D01*
X13592100Y-15531425D01*
X13554584Y-15391415D01*
X13554582Y-15391412D01*
X13554582Y-15391410D01*
X13482112Y-15265889D01*
X13482110Y-15265887D01*
X13482109Y-15265885D01*
X13379615Y-15163391D01*
X13379612Y-15163389D01*
X13379610Y-15163387D01*
X13254088Y-15090917D01*
X13254089Y-15090917D01*
X13224496Y-15082987D01*
X13114075Y-15053400D01*
X12969125Y-15053400D01*
X12907390Y-15069941D01*
X12829110Y-15090917D01*
X12703589Y-15163387D01*
X12601087Y-15265889D01*
X12528617Y-15391410D01*
X12491100Y-15531425D01*
X4550000Y-15531425D01*
X4550000Y-12797644D01*
X22899500Y-12797644D01*
X22899500Y-13002355D01*
X22931521Y-13204529D01*
X22994780Y-13399219D01*
X23087712Y-13581609D01*
X23087714Y-13581613D01*
X23208029Y-13747213D01*
X23208031Y-13747215D01*
X23208034Y-13747219D01*
X23352781Y-13891966D01*
X23352784Y-13891968D01*
X23352786Y-13891970D01*
X23518386Y-14012285D01*
X23518390Y-14012287D01*
X23700781Y-14105220D01*
X23895466Y-14168477D01*
X23895467Y-14168477D01*
X23895470Y-14168478D01*
X24097645Y-14200500D01*
X24097648Y-14200500D01*
X24302355Y-14200500D01*
X24504529Y-14168478D01*
X24504530Y-14168477D01*
X24504534Y-14168477D01*
X24699219Y-14105220D01*
X24881610Y-14012287D01*
X25047219Y-13891966D01*
X25126760Y-13812425D01*
X44621000Y-13812425D01*
X44621000Y-13957375D01*
X44634734Y-14008631D01*
X44658517Y-14097389D01*
X44730987Y-14222910D01*
X44730989Y-14222912D01*
X44730991Y-14222915D01*
X44833485Y-14325409D01*
X44833487Y-14325410D01*
X44833489Y-14325412D01*
X44959011Y-14397882D01*
X44959012Y-14397882D01*
X44959015Y-14397884D01*
X45099025Y-14435400D01*
X45099026Y-14435400D01*
X45243974Y-14435400D01*
X45243975Y-14435400D01*
X45383985Y-14397884D01*
X45383987Y-14397882D01*
X45383989Y-14397882D01*
X45509510Y-14325412D01*
X45509510Y-14325411D01*
X45509515Y-14325409D01*
X45612009Y-14222915D01*
X45643439Y-14168477D01*
X45652303Y-14153125D01*
X50685100Y-14153125D01*
X50685100Y-14298074D01*
X50722617Y-14438089D01*
X50795087Y-14563610D01*
X50795089Y-14563612D01*
X50795091Y-14563615D01*
X50897585Y-14666109D01*
X50897587Y-14666110D01*
X50897589Y-14666112D01*
X51023111Y-14738582D01*
X51023112Y-14738582D01*
X51023115Y-14738584D01*
X51163125Y-14776100D01*
X51163126Y-14776100D01*
X51308074Y-14776100D01*
X51308075Y-14776100D01*
X51448085Y-14738584D01*
X51448087Y-14738582D01*
X51448089Y-14738582D01*
X51573610Y-14666112D01*
X51573610Y-14666111D01*
X51573615Y-14666109D01*
X51676109Y-14563615D01*
X51748584Y-14438085D01*
X51786100Y-14298075D01*
X51786100Y-14153125D01*
X51748584Y-14013115D01*
X51748582Y-14013112D01*
X51748582Y-14013110D01*
X51676112Y-13887589D01*
X51676110Y-13887587D01*
X51676109Y-13887585D01*
X51573615Y-13785091D01*
X51573612Y-13785089D01*
X51573610Y-13785087D01*
X51448088Y-13712617D01*
X51448089Y-13712617D01*
X51418496Y-13704687D01*
X51308075Y-13675100D01*
X51163125Y-13675100D01*
X51101390Y-13691641D01*
X51023110Y-13712617D01*
X50897589Y-13785087D01*
X50795087Y-13887589D01*
X50722617Y-14013110D01*
X50685100Y-14153125D01*
X45652303Y-14153125D01*
X45678836Y-14107168D01*
X45678836Y-14107167D01*
X45684484Y-14097385D01*
X45707894Y-14010016D01*
X45708309Y-14008631D01*
X45724930Y-13984583D01*
X45740855Y-13960062D01*
X45742249Y-13959526D01*
X45743098Y-13958299D01*
X45770682Y-13948612D01*
X45797976Y-13938136D01*
X45800722Y-13938063D01*
X45800828Y-13938027D01*
X45800932Y-13938058D01*
X45803157Y-13938000D01*
X45938174Y-13938000D01*
X45938175Y-13938000D01*
X46078185Y-13900484D01*
X46078187Y-13900482D01*
X46078189Y-13900482D01*
X46203710Y-13828012D01*
X46203710Y-13828011D01*
X46203715Y-13828009D01*
X46306209Y-13725515D01*
X46335316Y-13675100D01*
X46378682Y-13599989D01*
X46378682Y-13599987D01*
X46378684Y-13599985D01*
X46416200Y-13459975D01*
X46416200Y-13315025D01*
X46378684Y-13175015D01*
X46378682Y-13175011D01*
X46378682Y-13175010D01*
X46306212Y-13049489D01*
X46306210Y-13049487D01*
X46306209Y-13049485D01*
X46203715Y-12946991D01*
X46203712Y-12946989D01*
X46203710Y-12946987D01*
X46078188Y-12874517D01*
X46078189Y-12874517D01*
X45988557Y-12850500D01*
X45938175Y-12837000D01*
X45793225Y-12837000D01*
X45742843Y-12850500D01*
X45653210Y-12874517D01*
X45527689Y-12946987D01*
X45425187Y-13049489D01*
X45352717Y-13175011D01*
X45352715Y-13175015D01*
X45329669Y-13261024D01*
X45296345Y-13312338D01*
X45239224Y-13334264D01*
X45234043Y-13334400D01*
X45099025Y-13334400D01*
X45037290Y-13350941D01*
X44959010Y-13371917D01*
X44833489Y-13444387D01*
X44730987Y-13546889D01*
X44658517Y-13672410D01*
X44638474Y-13747213D01*
X44621000Y-13812425D01*
X25126760Y-13812425D01*
X25191966Y-13747219D01*
X25207739Y-13725510D01*
X25312285Y-13581613D01*
X25312287Y-13581610D01*
X25405220Y-13399219D01*
X25468477Y-13204534D01*
X25468478Y-13204529D01*
X25500500Y-13002355D01*
X25500500Y-12797644D01*
X25468478Y-12595470D01*
X25441516Y-12512489D01*
X25405220Y-12400781D01*
X25316942Y-12227525D01*
X43499500Y-12227525D01*
X43499500Y-12372475D01*
X43507085Y-12400781D01*
X43537017Y-12512489D01*
X43609487Y-12638010D01*
X43609489Y-12638012D01*
X43609491Y-12638015D01*
X43711985Y-12740509D01*
X43711987Y-12740510D01*
X43711989Y-12740512D01*
X43837511Y-12812982D01*
X43837512Y-12812982D01*
X43837515Y-12812984D01*
X43977525Y-12850500D01*
X43977526Y-12850500D01*
X44122474Y-12850500D01*
X44122475Y-12850500D01*
X44262485Y-12812984D01*
X44262487Y-12812982D01*
X44262489Y-12812982D01*
X44388010Y-12740512D01*
X44388010Y-12740511D01*
X44388015Y-12740509D01*
X44490509Y-12638015D01*
X44490512Y-12638010D01*
X44562982Y-12512489D01*
X44562982Y-12512487D01*
X44562984Y-12512485D01*
X44600500Y-12372475D01*
X44600500Y-12227525D01*
X44562984Y-12087515D01*
X44562982Y-12087512D01*
X44562982Y-12087510D01*
X44490512Y-11961989D01*
X44490510Y-11961987D01*
X44490509Y-11961985D01*
X44388015Y-11859491D01*
X44388012Y-11859489D01*
X44388010Y-11859487D01*
X44262488Y-11787017D01*
X44262489Y-11787017D01*
X44232896Y-11779087D01*
X44122475Y-11749500D01*
X43977525Y-11749500D01*
X43915790Y-11766041D01*
X43837510Y-11787017D01*
X43711989Y-11859487D01*
X43609487Y-11961989D01*
X43537017Y-12087510D01*
X43537016Y-12087515D01*
X43499500Y-12227525D01*
X25316942Y-12227525D01*
X25312287Y-12218390D01*
X25312285Y-12218386D01*
X25191970Y-12052786D01*
X25191968Y-12052784D01*
X25191966Y-12052781D01*
X25047219Y-11908034D01*
X25047215Y-11908031D01*
X25047213Y-11908029D01*
X24881613Y-11787714D01*
X24881609Y-11787712D01*
X24699219Y-11694780D01*
X24504529Y-11631521D01*
X24302355Y-11599500D01*
X24302352Y-11599500D01*
X24097648Y-11599500D01*
X24097645Y-11599500D01*
X23895470Y-11631521D01*
X23700780Y-11694780D01*
X23518390Y-11787712D01*
X23518386Y-11787714D01*
X23352786Y-11908029D01*
X23208029Y-12052786D01*
X23087714Y-12218386D01*
X23087712Y-12218390D01*
X22994780Y-12400780D01*
X22931521Y-12595470D01*
X22899500Y-12797644D01*
X4550000Y-12797644D01*
X4550000Y-11439125D01*
X33154000Y-11439125D01*
X33154000Y-11584074D01*
X33191517Y-11724089D01*
X33263987Y-11849610D01*
X33263989Y-11849612D01*
X33263991Y-11849615D01*
X33366485Y-11952109D01*
X33366487Y-11952110D01*
X33366489Y-11952112D01*
X33492011Y-12024582D01*
X33492012Y-12024582D01*
X33492015Y-12024584D01*
X33632025Y-12062100D01*
X33632026Y-12062100D01*
X33776974Y-12062100D01*
X33776975Y-12062100D01*
X33916985Y-12024584D01*
X33916987Y-12024582D01*
X33916989Y-12024582D01*
X34042510Y-11952112D01*
X34042510Y-11952111D01*
X34042515Y-11952109D01*
X34145009Y-11849615D01*
X34181151Y-11787016D01*
X34217482Y-11724089D01*
X34217482Y-11724087D01*
X34217484Y-11724085D01*
X34255000Y-11584075D01*
X34255000Y-11439125D01*
X34217484Y-11299115D01*
X34217482Y-11299112D01*
X34217482Y-11299110D01*
X34145012Y-11173589D01*
X34145010Y-11173587D01*
X34145009Y-11173585D01*
X34042515Y-11071091D01*
X34042512Y-11071089D01*
X34042510Y-11071087D01*
X33916988Y-10998617D01*
X33916989Y-10998617D01*
X33887396Y-10990687D01*
X33776975Y-10961100D01*
X33632025Y-10961100D01*
X33570290Y-10977641D01*
X33492010Y-10998617D01*
X33366489Y-11071087D01*
X33263987Y-11173589D01*
X33191517Y-11299110D01*
X33154000Y-11439125D01*
X4550000Y-11439125D01*
X4550000Y-10737025D01*
X25517900Y-10737025D01*
X25517900Y-10881975D01*
X25523443Y-10902660D01*
X25555417Y-11021989D01*
X25627887Y-11147510D01*
X25627889Y-11147512D01*
X25627891Y-11147515D01*
X25730385Y-11250009D01*
X25730387Y-11250010D01*
X25730389Y-11250012D01*
X25855911Y-11322482D01*
X25855912Y-11322482D01*
X25855915Y-11322484D01*
X25995925Y-11360000D01*
X25995926Y-11360000D01*
X26140873Y-11360000D01*
X26140875Y-11360000D01*
X26280885Y-11322484D01*
X26280888Y-11322482D01*
X26280889Y-11322482D01*
X26406410Y-11250012D01*
X26406410Y-11250011D01*
X26406415Y-11250009D01*
X26508909Y-11147515D01*
X26553035Y-11071087D01*
X26581382Y-11021989D01*
X26581382Y-11021987D01*
X26581384Y-11021985D01*
X26618900Y-10881975D01*
X26618900Y-10853651D01*
X57712079Y-10853651D01*
X57712079Y-11021190D01*
X57722005Y-11071091D01*
X57742393Y-11173589D01*
X57744763Y-11185501D01*
X57744763Y-11185503D01*
X57808872Y-11340279D01*
X57808878Y-11340290D01*
X57864873Y-11424091D01*
X57901952Y-11479583D01*
X58020417Y-11598048D01*
X58070513Y-11631521D01*
X58159709Y-11691121D01*
X58159720Y-11691127D01*
X58216896Y-11714809D01*
X58314498Y-11755237D01*
X58478812Y-11787921D01*
X58478813Y-11787921D01*
X58646345Y-11787921D01*
X58646346Y-11787921D01*
X58810660Y-11755237D01*
X58965442Y-11691125D01*
X59104741Y-11598048D01*
X59506048Y-11196741D01*
X59599125Y-11057442D01*
X59663237Y-10902660D01*
X59695921Y-10738346D01*
X59695921Y-10712230D01*
X61445602Y-10712230D01*
X61445602Y-10879769D01*
X61478285Y-11044079D01*
X61478287Y-11044085D01*
X61542398Y-11198862D01*
X61542399Y-11198863D01*
X61635476Y-11338162D01*
X61753940Y-11456626D01*
X61893239Y-11549703D01*
X62048020Y-11613816D01*
X62212335Y-11646500D01*
X62212336Y-11646500D01*
X62379868Y-11646500D01*
X62379869Y-11646500D01*
X62544184Y-11613816D01*
X62698965Y-11549703D01*
X62838264Y-11456626D01*
X62956728Y-11338162D01*
X63049805Y-11198863D01*
X63113918Y-11044082D01*
X63146602Y-10879767D01*
X63146602Y-10712233D01*
X63113918Y-10547918D01*
X63049805Y-10393137D01*
X62956728Y-10253838D01*
X62838264Y-10135374D01*
X62698965Y-10042297D01*
X62698966Y-10042297D01*
X62698964Y-10042296D01*
X62544187Y-9978185D01*
X62544181Y-9978183D01*
X62379871Y-9945500D01*
X62379869Y-9945500D01*
X62212335Y-9945500D01*
X62212332Y-9945500D01*
X62048022Y-9978183D01*
X62048016Y-9978185D01*
X61893239Y-10042296D01*
X61753940Y-10135374D01*
X61753936Y-10135377D01*
X61635479Y-10253834D01*
X61635476Y-10253838D01*
X61542398Y-10393137D01*
X61478287Y-10547914D01*
X61478285Y-10547920D01*
X61445602Y-10712230D01*
X59695921Y-10712230D01*
X59695921Y-10570812D01*
X59663237Y-10406498D01*
X59600004Y-10253838D01*
X59599127Y-10251720D01*
X59599121Y-10251709D01*
X59521387Y-10135374D01*
X59506048Y-10112417D01*
X59387583Y-9993952D01*
X59315070Y-9945500D01*
X59248290Y-9900878D01*
X59248279Y-9900872D01*
X59093502Y-9836763D01*
X58929190Y-9804079D01*
X58929188Y-9804079D01*
X58761654Y-9804079D01*
X58761651Y-9804079D01*
X58597340Y-9836763D01*
X58597338Y-9836763D01*
X58442562Y-9900872D01*
X58442551Y-9900878D01*
X58303259Y-9993952D01*
X58303255Y-9993955D01*
X57901955Y-10395255D01*
X57901952Y-10395259D01*
X57808878Y-10534551D01*
X57808872Y-10534562D01*
X57744763Y-10689338D01*
X57744763Y-10689340D01*
X57712079Y-10853651D01*
X26618900Y-10853651D01*
X26618900Y-10737025D01*
X26581384Y-10597015D01*
X26581382Y-10597012D01*
X26581382Y-10597010D01*
X26508912Y-10471489D01*
X26508910Y-10471487D01*
X26508909Y-10471485D01*
X26406415Y-10368991D01*
X26406412Y-10368989D01*
X26406410Y-10368987D01*
X26280888Y-10296517D01*
X26280889Y-10296517D01*
X26251296Y-10288587D01*
X26140875Y-10259000D01*
X25995925Y-10259000D01*
X25934190Y-10275541D01*
X25855910Y-10296517D01*
X25730389Y-10368987D01*
X25627887Y-10471489D01*
X25555417Y-10597010D01*
X25555416Y-10597015D01*
X25517900Y-10737025D01*
X4550000Y-10737025D01*
X4550000Y-7028898D01*
X57821176Y-7028898D01*
X58400891Y-7028898D01*
X58377852Y-7068803D01*
X58354000Y-7157820D01*
X58354000Y-7249976D01*
X58377852Y-7338993D01*
X58400891Y-7378898D01*
X57821177Y-7378898D01*
X57838586Y-7466417D01*
X57838586Y-7466419D01*
X57906429Y-7630206D01*
X58004923Y-7777613D01*
X58130284Y-7902974D01*
X58277691Y-8001468D01*
X58441473Y-8069309D01*
X58441484Y-8069312D01*
X58529000Y-8086719D01*
X58529000Y-7507007D01*
X58568905Y-7530046D01*
X58657922Y-7553898D01*
X58750078Y-7553898D01*
X58839095Y-7530046D01*
X58879000Y-7507007D01*
X58879000Y-8086718D01*
X58966515Y-8069312D01*
X58966526Y-8069309D01*
X59130308Y-8001468D01*
X59277715Y-7902974D01*
X59403076Y-7777613D01*
X59501570Y-7630206D01*
X59569413Y-7466419D01*
X59569413Y-7466417D01*
X59586823Y-7378898D01*
X59007109Y-7378898D01*
X59030148Y-7338993D01*
X59054000Y-7249976D01*
X59054000Y-7157820D01*
X59043900Y-7120128D01*
X61445602Y-7120128D01*
X61445602Y-7287667D01*
X61478285Y-7451977D01*
X61478287Y-7451983D01*
X61542398Y-7606760D01*
X61573283Y-7652982D01*
X61635476Y-7746060D01*
X61753940Y-7864524D01*
X61893239Y-7957601D01*
X62048020Y-8021714D01*
X62212335Y-8054398D01*
X62212336Y-8054398D01*
X62379868Y-8054398D01*
X62379869Y-8054398D01*
X62544184Y-8021714D01*
X62698965Y-7957601D01*
X62838264Y-7864524D01*
X62956728Y-7746060D01*
X63049805Y-7606761D01*
X63113918Y-7451980D01*
X63146602Y-7287665D01*
X63146602Y-7120131D01*
X63113918Y-6955816D01*
X63049805Y-6801035D01*
X62956728Y-6661736D01*
X62838264Y-6543272D01*
X62698965Y-6450195D01*
X62698966Y-6450195D01*
X62698964Y-6450194D01*
X62544187Y-6386083D01*
X62544181Y-6386081D01*
X62379871Y-6353398D01*
X62379869Y-6353398D01*
X62212335Y-6353398D01*
X62212332Y-6353398D01*
X62048022Y-6386081D01*
X62048016Y-6386083D01*
X61893239Y-6450194D01*
X61753940Y-6543272D01*
X61753936Y-6543275D01*
X61635479Y-6661732D01*
X61635476Y-6661736D01*
X61542398Y-6801035D01*
X61478287Y-6955812D01*
X61478285Y-6955818D01*
X61445602Y-7120128D01*
X59043900Y-7120128D01*
X59030148Y-7068803D01*
X59007109Y-7028898D01*
X59586823Y-7028898D01*
X59569413Y-6941378D01*
X59569413Y-6941376D01*
X59501570Y-6777589D01*
X59403076Y-6630182D01*
X59277715Y-6504821D01*
X59130308Y-6406327D01*
X58966520Y-6338484D01*
X58879000Y-6321075D01*
X58879000Y-6900789D01*
X58839095Y-6877750D01*
X58750078Y-6853898D01*
X58657922Y-6853898D01*
X58568905Y-6877750D01*
X58529000Y-6900789D01*
X58529000Y-6321075D01*
X58441480Y-6338484D01*
X58441478Y-6338484D01*
X58277691Y-6406327D01*
X58130284Y-6504821D01*
X58004923Y-6630182D01*
X57906429Y-6777589D01*
X57838586Y-6941376D01*
X57838586Y-6941378D01*
X57821176Y-7028898D01*
X4550000Y-7028898D01*
X4550000Y-5909625D01*
X21215800Y-5909625D01*
X21215800Y-6054575D01*
X21245387Y-6164996D01*
X21253317Y-6194589D01*
X21325787Y-6320110D01*
X21325789Y-6320112D01*
X21325791Y-6320115D01*
X21428285Y-6422609D01*
X21428287Y-6422610D01*
X21428289Y-6422612D01*
X21553811Y-6495082D01*
X21553812Y-6495082D01*
X21553815Y-6495084D01*
X21693825Y-6532600D01*
X21693826Y-6532600D01*
X21838774Y-6532600D01*
X21838775Y-6532600D01*
X21978785Y-6495084D01*
X21978787Y-6495082D01*
X21978789Y-6495082D01*
X22104310Y-6422612D01*
X22104310Y-6422611D01*
X22104315Y-6422609D01*
X22206809Y-6320115D01*
X22268947Y-6212489D01*
X22279282Y-6194589D01*
X22279282Y-6194587D01*
X22279284Y-6194585D01*
X22316800Y-6054575D01*
X22316800Y-5927525D01*
X22619500Y-5927525D01*
X22619500Y-6072474D01*
X22657017Y-6212489D01*
X22729487Y-6338010D01*
X22729489Y-6338012D01*
X22729491Y-6338015D01*
X22831985Y-6440509D01*
X22831987Y-6440510D01*
X22831989Y-6440512D01*
X22957511Y-6512982D01*
X22957512Y-6512982D01*
X22957515Y-6512984D01*
X23097525Y-6550500D01*
X23097526Y-6550500D01*
X23242474Y-6550500D01*
X23242475Y-6550500D01*
X23382485Y-6512984D01*
X23382487Y-6512982D01*
X23382489Y-6512982D01*
X23508010Y-6440512D01*
X23508010Y-6440511D01*
X23508015Y-6440509D01*
X23610509Y-6338015D01*
X23620844Y-6320115D01*
X23682982Y-6212489D01*
X23682982Y-6212487D01*
X23682984Y-6212485D01*
X23720500Y-6072475D01*
X23720500Y-6027525D01*
X37749500Y-6027525D01*
X37749500Y-6172475D01*
X37760221Y-6212485D01*
X37787017Y-6312489D01*
X37859487Y-6438010D01*
X37859489Y-6438012D01*
X37859491Y-6438015D01*
X37961985Y-6540509D01*
X37961987Y-6540510D01*
X37961989Y-6540512D01*
X38087511Y-6612982D01*
X38087512Y-6612982D01*
X38087515Y-6612984D01*
X38227525Y-6650500D01*
X38227526Y-6650500D01*
X38372474Y-6650500D01*
X38372475Y-6650500D01*
X38512485Y-6612984D01*
X38512487Y-6612982D01*
X38512489Y-6612982D01*
X38638010Y-6540512D01*
X38638010Y-6540511D01*
X38638015Y-6540509D01*
X38740509Y-6438015D01*
X38789363Y-6353398D01*
X38812982Y-6312489D01*
X38812982Y-6312487D01*
X38812984Y-6312485D01*
X38850500Y-6172475D01*
X38850500Y-6027525D01*
X45349500Y-6027525D01*
X45349500Y-6172475D01*
X45360221Y-6212485D01*
X45387017Y-6312489D01*
X45459487Y-6438010D01*
X45459489Y-6438012D01*
X45459491Y-6438015D01*
X45561985Y-6540509D01*
X45561987Y-6540510D01*
X45561989Y-6540512D01*
X45687511Y-6612982D01*
X45687512Y-6612982D01*
X45687515Y-6612984D01*
X45827525Y-6650500D01*
X45827526Y-6650500D01*
X45972474Y-6650500D01*
X45972475Y-6650500D01*
X46112485Y-6612984D01*
X46112487Y-6612982D01*
X46112489Y-6612982D01*
X46238010Y-6540512D01*
X46238010Y-6540511D01*
X46238015Y-6540509D01*
X46340509Y-6438015D01*
X46389363Y-6353398D01*
X46412982Y-6312489D01*
X46412982Y-6312487D01*
X46412984Y-6312485D01*
X46450500Y-6172475D01*
X46450500Y-6027525D01*
X46412984Y-5887515D01*
X46412982Y-5887512D01*
X46412982Y-5887510D01*
X46340512Y-5761989D01*
X46340510Y-5761987D01*
X46340509Y-5761985D01*
X46238015Y-5659491D01*
X46238012Y-5659489D01*
X46238010Y-5659487D01*
X46112488Y-5587017D01*
X46112489Y-5587017D01*
X46009761Y-5559491D01*
X45972475Y-5549500D01*
X45827525Y-5549500D01*
X45790239Y-5559491D01*
X45687510Y-5587017D01*
X45561989Y-5659487D01*
X45459487Y-5761989D01*
X45387017Y-5887510D01*
X45376295Y-5927525D01*
X45349500Y-6027525D01*
X38850500Y-6027525D01*
X38812984Y-5887515D01*
X38812982Y-5887512D01*
X38812982Y-5887510D01*
X38740512Y-5761989D01*
X38740510Y-5761987D01*
X38740509Y-5761985D01*
X38638015Y-5659491D01*
X38638012Y-5659489D01*
X38638010Y-5659487D01*
X38512488Y-5587017D01*
X38512489Y-5587017D01*
X38409761Y-5559491D01*
X38372475Y-5549500D01*
X38227525Y-5549500D01*
X38190239Y-5559491D01*
X38087510Y-5587017D01*
X37961989Y-5659487D01*
X37859487Y-5761989D01*
X37787017Y-5887510D01*
X37776295Y-5927525D01*
X37749500Y-6027525D01*
X23720500Y-6027525D01*
X23720500Y-5927525D01*
X23682984Y-5787515D01*
X23682982Y-5787512D01*
X23682982Y-5787510D01*
X23610512Y-5661989D01*
X23610510Y-5661987D01*
X23610509Y-5661985D01*
X23508015Y-5559491D01*
X23508012Y-5559489D01*
X23508010Y-5559487D01*
X23382488Y-5487017D01*
X23382489Y-5487017D01*
X23352896Y-5479087D01*
X23242475Y-5449500D01*
X23097525Y-5449500D01*
X23035790Y-5466041D01*
X22957510Y-5487017D01*
X22831989Y-5559487D01*
X22729487Y-5661989D01*
X22657017Y-5787510D01*
X22619500Y-5927525D01*
X22316800Y-5927525D01*
X22316800Y-5909625D01*
X22279284Y-5769615D01*
X22279282Y-5769612D01*
X22279282Y-5769610D01*
X22206812Y-5644089D01*
X22206810Y-5644087D01*
X22206809Y-5644085D01*
X22104315Y-5541591D01*
X22104312Y-5541589D01*
X22104310Y-5541587D01*
X21978788Y-5469117D01*
X21978789Y-5469117D01*
X21905578Y-5449500D01*
X21838775Y-5431600D01*
X21693825Y-5431600D01*
X21632090Y-5448141D01*
X21553810Y-5469117D01*
X21428289Y-5541587D01*
X21325787Y-5644089D01*
X21253317Y-5769610D01*
X21221726Y-5887510D01*
X21215800Y-5909625D01*
X4550000Y-5909625D01*
X4550000Y-4927525D01*
X46439500Y-4927525D01*
X46439500Y-5072474D01*
X46477017Y-5212489D01*
X46549487Y-5338010D01*
X46549489Y-5338012D01*
X46549491Y-5338015D01*
X46651985Y-5440509D01*
X46651987Y-5440510D01*
X46651989Y-5440512D01*
X46777511Y-5512982D01*
X46777512Y-5512982D01*
X46777515Y-5512984D01*
X46917525Y-5550500D01*
X46917526Y-5550500D01*
X47062474Y-5550500D01*
X47062475Y-5550500D01*
X47202485Y-5512984D01*
X47202487Y-5512982D01*
X47202489Y-5512982D01*
X47328010Y-5440512D01*
X47328010Y-5440511D01*
X47328015Y-5440509D01*
X47430509Y-5338015D01*
X47502984Y-5212485D01*
X47540500Y-5072475D01*
X47540500Y-4927525D01*
X47502984Y-4787515D01*
X47502982Y-4787512D01*
X47502982Y-4787510D01*
X47430512Y-4661989D01*
X47430510Y-4661987D01*
X47430509Y-4661985D01*
X47328015Y-4559491D01*
X47328012Y-4559489D01*
X47328010Y-4559487D01*
X47202488Y-4487017D01*
X47202489Y-4487017D01*
X47172896Y-4479087D01*
X47062475Y-4449500D01*
X46917525Y-4449500D01*
X46855790Y-4466041D01*
X46777510Y-4487017D01*
X46651989Y-4559487D01*
X46549487Y-4661989D01*
X46477017Y-4787510D01*
X46439500Y-4927525D01*
X4550000Y-4927525D01*
X4550000Y-4303825D01*
X5874300Y-4303825D01*
X5874300Y-4448775D01*
X5884547Y-4487016D01*
X5911817Y-4588789D01*
X5984287Y-4714310D01*
X5984289Y-4714312D01*
X5984291Y-4714315D01*
X6086785Y-4816809D01*
X6086787Y-4816810D01*
X6086789Y-4816812D01*
X6212311Y-4889282D01*
X6212312Y-4889282D01*
X6212315Y-4889284D01*
X6352325Y-4926800D01*
X6352326Y-4926800D01*
X6497274Y-4926800D01*
X6497275Y-4926800D01*
X6637285Y-4889284D01*
X6637287Y-4889282D01*
X6637289Y-4889282D01*
X6762810Y-4816812D01*
X6762810Y-4816811D01*
X6762815Y-4816809D01*
X6865309Y-4714315D01*
X6877838Y-4692615D01*
X6937782Y-4588789D01*
X6937782Y-4588787D01*
X6937784Y-4588785D01*
X6975300Y-4448775D01*
X6975300Y-4303825D01*
X6969485Y-4282125D01*
X10949500Y-4282125D01*
X10949500Y-4427075D01*
X10955315Y-4448775D01*
X10987017Y-4567089D01*
X11059487Y-4692610D01*
X11059489Y-4692612D01*
X11059491Y-4692615D01*
X11161985Y-4795109D01*
X11161987Y-4795110D01*
X11161989Y-4795112D01*
X11287511Y-4867582D01*
X11287512Y-4867582D01*
X11287515Y-4867584D01*
X11427525Y-4905100D01*
X11427526Y-4905100D01*
X11572474Y-4905100D01*
X11572475Y-4905100D01*
X11712485Y-4867584D01*
X11768404Y-4835298D01*
X11768407Y-4835298D01*
X11838010Y-4795112D01*
X11838010Y-4795111D01*
X11838015Y-4795109D01*
X11940509Y-4692615D01*
X12000453Y-4588789D01*
X12012982Y-4567089D01*
X12012982Y-4567087D01*
X12012984Y-4567085D01*
X12050500Y-4427075D01*
X12050500Y-4282125D01*
X12012984Y-4142115D01*
X12012982Y-4142112D01*
X12012982Y-4142110D01*
X11940512Y-4016589D01*
X11940510Y-4016587D01*
X11940509Y-4016585D01*
X11838015Y-3914091D01*
X11838012Y-3914089D01*
X11838010Y-3914087D01*
X11712488Y-3841617D01*
X11712489Y-3841617D01*
X11682896Y-3833687D01*
X11572475Y-3804100D01*
X11427525Y-3804100D01*
X11365790Y-3820641D01*
X11287510Y-3841617D01*
X11161989Y-3914087D01*
X11059487Y-4016589D01*
X10987017Y-4142110D01*
X10957925Y-4250682D01*
X10949500Y-4282125D01*
X6969485Y-4282125D01*
X6937784Y-4163815D01*
X6937782Y-4163812D01*
X6937782Y-4163810D01*
X6865312Y-4038289D01*
X6865310Y-4038287D01*
X6865309Y-4038285D01*
X6762815Y-3935791D01*
X6762812Y-3935789D01*
X6762810Y-3935787D01*
X6637288Y-3863317D01*
X6637289Y-3863317D01*
X6556300Y-3841616D01*
X6497275Y-3825800D01*
X6352325Y-3825800D01*
X6293300Y-3841616D01*
X6212310Y-3863317D01*
X6086789Y-3935787D01*
X5984287Y-4038289D01*
X5911817Y-4163810D01*
X5911816Y-4163815D01*
X5874300Y-4303825D01*
X4550000Y-4303825D01*
X4550000Y-3665225D01*
X24584300Y-3665225D01*
X24584300Y-3810174D01*
X24621817Y-3950189D01*
X24694287Y-4075710D01*
X24694289Y-4075712D01*
X24694291Y-4075715D01*
X24796785Y-4178209D01*
X24796787Y-4178210D01*
X24796789Y-4178212D01*
X24922311Y-4250682D01*
X24922312Y-4250682D01*
X24922315Y-4250684D01*
X25062325Y-4288200D01*
X25062326Y-4288200D01*
X25207274Y-4288200D01*
X25207275Y-4288200D01*
X25347285Y-4250684D01*
X25347287Y-4250682D01*
X25347289Y-4250682D01*
X25472810Y-4178212D01*
X25472810Y-4178211D01*
X25472815Y-4178209D01*
X25575309Y-4075715D01*
X25647784Y-3950185D01*
X25685300Y-3810175D01*
X25685300Y-3665225D01*
X25647784Y-3525215D01*
X25647782Y-3525212D01*
X25647782Y-3525210D01*
X25575312Y-3399689D01*
X25575310Y-3399687D01*
X25575309Y-3399685D01*
X25472815Y-3297191D01*
X25472812Y-3297189D01*
X25472810Y-3297187D01*
X25347288Y-3224717D01*
X25347289Y-3224717D01*
X25317696Y-3216787D01*
X25207275Y-3187200D01*
X25062325Y-3187200D01*
X25000590Y-3203741D01*
X24922310Y-3224717D01*
X24796789Y-3297187D01*
X24694287Y-3399689D01*
X24621817Y-3525210D01*
X24584300Y-3665225D01*
X4550000Y-3665225D01*
X4550000Y-2567825D01*
X10796600Y-2567825D01*
X10796600Y-2712774D01*
X10834117Y-2852789D01*
X10906587Y-2978310D01*
X10906589Y-2978312D01*
X10906591Y-2978315D01*
X11009085Y-3080809D01*
X11009087Y-3080810D01*
X11009089Y-3080812D01*
X11134611Y-3153282D01*
X11134612Y-3153282D01*
X11134615Y-3153284D01*
X11274625Y-3190800D01*
X11274626Y-3190800D01*
X11419574Y-3190800D01*
X11419575Y-3190800D01*
X11559585Y-3153284D01*
X11559587Y-3153282D01*
X11559589Y-3153282D01*
X11685110Y-3080812D01*
X11685110Y-3080811D01*
X11685115Y-3080809D01*
X11787609Y-2978315D01*
X11860084Y-2852785D01*
X11897600Y-2712775D01*
X11897600Y-2567825D01*
X11895483Y-2559925D01*
X15894600Y-2559925D01*
X15894600Y-2704874D01*
X15932117Y-2844889D01*
X16004587Y-2970410D01*
X16004589Y-2970412D01*
X16004591Y-2970415D01*
X16107085Y-3072909D01*
X16107087Y-3072910D01*
X16107089Y-3072912D01*
X16232611Y-3145382D01*
X16232612Y-3145382D01*
X16232615Y-3145384D01*
X16372625Y-3182900D01*
X16372626Y-3182900D01*
X16517574Y-3182900D01*
X16517575Y-3182900D01*
X16657585Y-3145384D01*
X16657587Y-3145382D01*
X16657589Y-3145382D01*
X16783110Y-3072912D01*
X16783110Y-3072911D01*
X16783115Y-3072909D01*
X16885609Y-2970415D01*
X16958084Y-2844885D01*
X16995600Y-2704875D01*
X16995600Y-2559925D01*
X16958084Y-2419915D01*
X16958082Y-2419912D01*
X16958082Y-2419910D01*
X16885612Y-2294389D01*
X16885610Y-2294387D01*
X16885609Y-2294385D01*
X16783115Y-2191891D01*
X16783112Y-2191889D01*
X16783110Y-2191887D01*
X16657588Y-2119417D01*
X16657589Y-2119417D01*
X16627996Y-2111487D01*
X16517575Y-2081900D01*
X16372625Y-2081900D01*
X16318940Y-2096285D01*
X16232610Y-2119417D01*
X16107089Y-2191887D01*
X16004587Y-2294389D01*
X15932117Y-2419910D01*
X15894600Y-2559925D01*
X11895483Y-2559925D01*
X11860084Y-2427815D01*
X11860082Y-2427812D01*
X11860082Y-2427810D01*
X11787612Y-2302289D01*
X11787610Y-2302287D01*
X11787609Y-2302285D01*
X11685115Y-2199791D01*
X11685112Y-2199789D01*
X11685110Y-2199787D01*
X11559588Y-2127317D01*
X11559589Y-2127317D01*
X11529996Y-2119387D01*
X11419575Y-2089800D01*
X11274625Y-2089800D01*
X11212890Y-2106341D01*
X11134610Y-2127317D01*
X11009089Y-2199787D01*
X10906587Y-2302289D01*
X10834117Y-2427810D01*
X10796600Y-2567825D01*
X4550000Y-2567825D01*
X4550000Y-1738391D01*
X30874500Y-1738391D01*
X30874500Y-1861608D01*
X30898536Y-1982450D01*
X30945688Y-2096285D01*
X30945689Y-2096286D01*
X31014142Y-2198733D01*
X31101267Y-2285858D01*
X31203714Y-2354311D01*
X31317548Y-2401463D01*
X31438394Y-2425500D01*
X31438396Y-2425500D01*
X31561604Y-2425500D01*
X31561606Y-2425500D01*
X31682452Y-2401463D01*
X31796286Y-2354311D01*
X31898733Y-2285858D01*
X31985858Y-2198733D01*
X32054311Y-2096286D01*
X32101463Y-1982452D01*
X32125500Y-1861606D01*
X32125500Y-1738394D01*
X32125499Y-1738391D01*
X33874500Y-1738391D01*
X33874500Y-1861608D01*
X33898536Y-1982450D01*
X33945688Y-2096285D01*
X33945689Y-2096286D01*
X34014142Y-2198733D01*
X34101267Y-2285858D01*
X34203714Y-2354311D01*
X34317548Y-2401463D01*
X34438394Y-2425500D01*
X34438396Y-2425500D01*
X34561604Y-2425500D01*
X34561606Y-2425500D01*
X34682452Y-2401463D01*
X34796286Y-2354311D01*
X34898733Y-2285858D01*
X34985858Y-2198733D01*
X35054311Y-2096286D01*
X35101463Y-1982452D01*
X35125500Y-1861606D01*
X35125500Y-1738394D01*
X35101463Y-1617548D01*
X35054311Y-1503714D01*
X34985858Y-1401267D01*
X34898733Y-1314142D01*
X34796286Y-1245689D01*
X34796287Y-1245689D01*
X34796285Y-1245688D01*
X34682450Y-1198536D01*
X34561608Y-1174500D01*
X34561606Y-1174500D01*
X34438394Y-1174500D01*
X34438391Y-1174500D01*
X34317549Y-1198536D01*
X34203714Y-1245688D01*
X34101267Y-1314142D01*
X34101263Y-1314145D01*
X34014145Y-1401263D01*
X34014142Y-1401267D01*
X33945688Y-1503714D01*
X33898536Y-1617549D01*
X33874500Y-1738391D01*
X32125499Y-1738391D01*
X32101463Y-1617548D01*
X32054311Y-1503714D01*
X31985858Y-1401267D01*
X31898733Y-1314142D01*
X31796286Y-1245689D01*
X31796287Y-1245689D01*
X31796285Y-1245688D01*
X31682450Y-1198536D01*
X31561608Y-1174500D01*
X31561606Y-1174500D01*
X31438394Y-1174500D01*
X31438391Y-1174500D01*
X31317549Y-1198536D01*
X31203714Y-1245688D01*
X31101267Y-1314142D01*
X31101263Y-1314145D01*
X31014145Y-1401263D01*
X31014142Y-1401267D01*
X30945688Y-1503714D01*
X30898536Y-1617549D01*
X30874500Y-1738391D01*
X4550000Y-1738391D01*
X4550000Y-399500D01*
X4568907Y-341309D01*
X4618407Y-305345D01*
X4649000Y-300500D01*
X63952405Y-300500D01*
X63996462Y-300500D01*
X64003523Y-300751D01*
G37*
%TD.AperFunction*%
%TD*%
M02*
