M48
; DRILL file {KiCad 9.0.5} date 2026-09-28T19:19:17+0100
; FORMAT={-:-/ absolute / metric / decimal}
; #@! TF.CreationDate,2026-09-28T19:19:17+01:00
; #@! TF.GenerationSoftware,Kicad,Pcbnew,9.0.5
; #@! TF.FileFunction,MixedPlating,1,4
FMAT,2
METRIC
; #@! TA.AperFunction,Plated,PTH,ViaDrill
T1C0.200
; #@! TA.AperFunction,Plated,PTH,ViaDrill
T2C0.300
; #@! TA.AperFunction,Plated,PTH,ComponentDrill
T3C0.600
; #@! TA.AperFunction,Plated,PTH,ComponentDrill
T4C0.700
; #@! TA.AperFunction,NonPlated,NPTH,ComponentDrill
T5C0.650
; #@! TA.AperFunction,NonPlated,NPTH,ComponentDrill
T6C0.850
; #@! TA.AperFunction,NonPlated,NPTH,ComponentDrill
T7C2.200
%
G90
G05
T1
X11.525Y-7.675
X11.525Y-9.325
X13.175Y-7.675
X13.175Y-9.325
X23.255Y-9.654
X40.1Y-23.1
X40.9Y-23.9
T2
X6.2Y-32.2
X6.4Y-2.371
X6.4Y-27.6
X6.58Y-24.36
X7.2Y-31.6
X8.927Y-14.645
X9.12Y-24.36
X10.52Y-20.5
X10.6Y-26.5
X10.674Y-2.353
X11.66Y-24.36
X11.66Y-26.9
X12.788Y-17.348
X12.994Y-16.364
X14.428Y-2.36
X15.13Y-17.214
X15.75Y-16.7
X16.6Y-17.9
X16.8Y-26.6
X17.935Y-14.146
X17.983Y-2.355
X18.12Y-16.363
X18.431Y-13.395
X19.27Y-25.105
X20.276Y-9.507
X20.535Y-13.395
X20.7Y-15.5
X20.902Y-10.929
X21.325Y-13.112
X21.581Y-9.408
X21.654Y-8.379
X23.273Y-13.861
X25.2Y-10.5
X25.552Y-13.027
X25.567Y-13.805
X26.9Y-4.04
X27.535Y-5.809
X28.253Y-10.5
X28.379Y-21.903
X28.589Y-24.077
X28.8Y-21.2
X31.389Y-23.849
X31.98Y-16.74
X32.794Y-24.034
X33.277Y-20.609
X33.877Y-11.51
X34.0Y-7.225
X34.52Y-16.74
X34.91Y-19.8
X36.3Y-6.1
X37.006Y-27.366
X37.02Y-23.533
X37.06Y-1.5
X37.06Y-4.04
X37.06Y-29.44
X37.494Y-24.129
X37.704Y-17.814
X37.85Y-12.6
X37.986Y-20.061
X38.09Y-30.595
X38.334Y-25.81
X38.432Y-29.025
X39.105Y-17.74
X39.169Y-22.062
X39.255Y-31.892
X39.6Y-1.5
X39.858Y-25.837
X39.981Y-19.501
X40.455Y-16.15
X41.094Y-15.725
X41.628Y-21.232
X41.788Y-6.5
X41.925Y-24.93
X42.04Y-1.353
X42.05Y-12.3
X42.14Y-4.04
X42.284Y-21.802
X42.367Y-18.978
X42.523Y-7.083
X42.837Y-24.25
X42.858Y-23.224
X43.051Y-31.645
X43.339Y-29.883
X43.63Y-13.788
X43.688Y-18.593
X43.747Y-12.979
X43.9Y-6.1
X44.68Y-4.04
X44.68Y-26.9
X44.812Y-22.256
X44.99Y-5.0
X45.0Y-11.0
X45.211Y-10.221
X45.328Y-12.114
X45.497Y-15.411
X45.609Y-24.619
X46.427Y-12.12
X46.849Y-20.381
X47.945Y-18.076
X48.097Y-1.392
X49.084Y-13.81
X49.76Y-1.5
X49.76Y-11.66
X49.76Y-24.36
X52.3Y-1.5
X54.84Y-1.5
X57.38Y-1.5
T4
X52.704Y-5.104
X52.704Y-8.696
X52.704Y-15.704
X52.704Y-19.296
X56.296Y-5.104
X56.296Y-8.696
X56.296Y-15.704
X56.296Y-19.296
T5
X28.11Y-26.7
X33.89Y-26.7
T6
X29.5Y-1.8
X32.5Y-1.8
T7
X23.0Y-2.6
X46.7Y-30.8
T3
X26.68Y-25.62G85X26.68Y-26.72
G05
X26.68Y-30.05G85X26.68Y-30.65
G05
X35.32Y-25.62G85X35.32Y-26.72
G05
X35.32Y-30.05G85X35.32Y-30.65
G05
M30
