%TF.GenerationSoftware,KiCad,Pcbnew,9.0.5*%
%TF.CreationDate,2026-09-28T19:19:17+01:00*%
%TF.ProjectId,phone_board,70686f6e-655f-4626-9f61-72642e6b6963,rev?*%
%TF.SameCoordinates,Original*%
%TF.FileFunction,Copper,L3,Inr*%
%TF.FilePolarity,Positive*%
%FSLAX46Y46*%
G04 Gerber Fmt 4.6, Leading zero omitted, Abs format (unit mm)*
G04 Created by KiCad (PCBNEW 9.0.5) date 2026-09-28 19:19:17*
%MOMM*%
%LPD*%
G01*
G04 APERTURE LIST*
G04 Aperture macros list*
%AMHorizOval*
0 Thick line with rounded ends*
0 $1 width*
0 $2 $3 position (X,Y) of the first rounded end (center of the circle)*
0 $4 $5 position (X,Y) of the second rounded end (center of the circle)*
0 Add line between two ends*
20,1,$1,$2,$3,$4,$5,0*
0 Add two circle primitives to create the rounded ends*
1,1,$1,$2,$3*
1,1,$1,$4,$5*%
G04 Aperture macros list end*
%TA.AperFunction,ComponentPad*%
%ADD10HorizOval,1.200000X0.141421X0.141421X-0.141421X-0.141421X0*%
%TD*%
%TA.AperFunction,ComponentPad*%
%ADD11C,1.200000*%
%TD*%
%TA.AperFunction,HeatsinkPad*%
%ADD12O,1.000000X2.100000*%
%TD*%
%TA.AperFunction,HeatsinkPad*%
%ADD13O,1.000000X1.600000*%
%TD*%
%TA.AperFunction,ViaPad*%
%ADD14C,0.600000*%
%TD*%
%TA.AperFunction,ViaPad*%
%ADD15C,0.500000*%
%TD*%
%TA.AperFunction,Conductor*%
%ADD16C,0.400000*%
%TD*%
%TA.AperFunction,Conductor*%
%ADD17C,0.200000*%
%TD*%
%TA.AperFunction,Conductor*%
%ADD18C,0.500000*%
%TD*%
%TA.AperFunction,Conductor*%
%ADD19C,0.300000*%
%TD*%
G04 APERTURE END LIST*
D10*
%TO.N,/+5V_HTR*%
%TO.C,S2*%
X52704000Y-19296000D03*
D11*
%TO.N,/LPG_RL*%
X56296102Y-19296000D03*
%TO.N,/+5V_HTR*%
X56296102Y-15703898D03*
%TO.N,/GND*%
X52704000Y-15703898D03*
%TD*%
D10*
%TO.N,/+5V_HTR*%
%TO.C,S1*%
X52704000Y-8696000D03*
D11*
%TO.N,/CH4_RL*%
X56296102Y-8696000D03*
%TO.N,/+5V_HTR*%
X56296102Y-5103898D03*
%TO.N,/GND*%
X52704000Y-5103898D03*
%TD*%
D12*
%TO.N,/GND*%
%TO.C,J1*%
X26680000Y-26170000D03*
D13*
X26680000Y-30350000D03*
D12*
X35320000Y-26170000D03*
D13*
X35320000Y-30350000D03*
%TD*%
D14*
%TO.N,/GND*%
X9120000Y-24359999D03*
D15*
X13175000Y-9325000D03*
D14*
X6580000Y-24359999D03*
X34000000Y-7225000D03*
X34519999Y-16739999D03*
X37059999Y-1500000D03*
D15*
X11525000Y-7675000D03*
D14*
X54839999Y-1500000D03*
X57379999Y-1500000D03*
X37850000Y-12600000D03*
X49759999Y-11660000D03*
D15*
X13175000Y-7675000D03*
D14*
X52299999Y-1500000D03*
X39599999Y-1500000D03*
X37059999Y-29439999D03*
X6200000Y-32200000D03*
X45000000Y-11000000D03*
D15*
X40900000Y-23900000D03*
D14*
X25200000Y-10500000D03*
X11660000Y-24359999D03*
X11660000Y-26899999D03*
D15*
X40100000Y-23100000D03*
D14*
X49759999Y-1500000D03*
X41788000Y-6500000D03*
X49759999Y-24359999D03*
X28800000Y-21200000D03*
X44679999Y-4040000D03*
X20700000Y-15500000D03*
X44679999Y-26899999D03*
X45497404Y-15410976D03*
X42139999Y-4040000D03*
X37059999Y-4040000D03*
X31979999Y-16739999D03*
X10600000Y-26500000D03*
X26899999Y-4040000D03*
D15*
X11525000Y-9325000D03*
D14*
%TO.N,/VBUS*%
X28589200Y-24077100D03*
X41627900Y-21232100D03*
X39254800Y-31891700D03*
X32793500Y-24034500D03*
%TO.N,/USB_DP*%
X20902500Y-10928600D03*
X28379100Y-21903400D03*
%TO.N,/USB_DN*%
X31389500Y-23849300D03*
X33276900Y-20608900D03*
X20276300Y-9506600D03*
%TO.N,/BQ_TS*%
X37020100Y-23533100D03*
X38333900Y-25809700D03*
%TO.N,/VBAT*%
X41925500Y-24929600D03*
X39105000Y-17740400D03*
X37493800Y-24129200D03*
X43339300Y-29883200D03*
%TO.N,/BQ_EN1*%
X39858000Y-25836800D03*
X43051400Y-31645100D03*
%TO.N,/PGOOD_N*%
X37006400Y-27365600D03*
X15130500Y-17213800D03*
X37704400Y-17813700D03*
%TO.N,/CHG_N*%
X42836800Y-24250000D03*
X34910000Y-19800300D03*
%TO.N,/VSYS*%
X42857600Y-23224400D03*
X37986400Y-20061400D03*
X43900000Y-6100000D03*
X41093900Y-15725000D03*
X39981300Y-19501200D03*
X36300000Y-6100000D03*
%TO.N,/BQ_ILIM*%
X42284100Y-21801600D03*
X38431700Y-29024900D03*
%TO.N,/BQ_ISET*%
X39168700Y-22062500D03*
X38090000Y-30595200D03*
%TO.N,/+3V3*%
X47944900Y-18076100D03*
X28253200Y-10500000D03*
X43687900Y-18592700D03*
X45328200Y-12114200D03*
X10520000Y-20500000D03*
X16800000Y-26600000D03*
D15*
X23255000Y-9654300D03*
D14*
%TO.N,/PWR_EN*%
X25567500Y-13805000D03*
X27535400Y-5808600D03*
%TO.N,/HTR_EN*%
X33876700Y-11510000D03*
X42522600Y-7082700D03*
X17935400Y-14145800D03*
%TO.N,/+5V_HTR*%
X44990000Y-5000000D03*
X42050000Y-12300000D03*
X45608700Y-24618700D03*
%TO.N,/BOOT*%
X8927300Y-14644700D03*
X19269500Y-25105200D03*
%TO.N,/CH4_FB*%
X42040000Y-1352700D03*
X12994200Y-16363600D03*
X23272800Y-13861500D03*
%TO.N,/LPG_FB*%
X18431300Y-13395300D03*
X48097500Y-1392500D03*
X20534900Y-13395300D03*
%TO.N,/I2C_SDA*%
X15750000Y-16700000D03*
X43629900Y-13788000D03*
X42367300Y-18977700D03*
X6400000Y-27600000D03*
%TO.N,/I2C_SCL*%
X43746900Y-12979100D03*
X46849000Y-20381100D03*
X16600000Y-17900000D03*
X7200000Y-31600000D03*
%TO.N,/ADS_RDY*%
X18119800Y-16363400D03*
X40455300Y-16149700D03*
%TO.N,/LED_DIN*%
X17982700Y-2355100D03*
X21654000Y-8378900D03*
%TO.N,/TXD0*%
X21325500Y-13112000D03*
X14427700Y-2359900D03*
%TO.N,/RXD0*%
X10674100Y-2352600D03*
X25552300Y-13026700D03*
%TO.N,/ESP_EN*%
X12788400Y-17347900D03*
X21580600Y-9407900D03*
X6400000Y-2370900D03*
%TO.N,/CH4_RL*%
X45211300Y-10221300D03*
%TO.N,/LPG_RL*%
X49083500Y-13810000D03*
%TO.N,/HTR_SENSE*%
X44812200Y-22255700D03*
X46426600Y-12120100D03*
%TD*%
D16*
%TO.N,/VBUS*%
X36172900Y-29702300D02*
X38362300Y-31891700D01*
X32468300Y-26561500D02*
X34241300Y-28334500D01*
X38362300Y-31891700D02*
X39254800Y-31891700D01*
X32468300Y-24359700D02*
X32468300Y-24501000D01*
X28589200Y-24077100D02*
X29013100Y-24501000D01*
X34241300Y-28334500D02*
X34908200Y-28334500D01*
X29013100Y-24501000D02*
X32468300Y-24501000D01*
X34908200Y-28334500D02*
X36172900Y-29599200D01*
X32468300Y-24501000D02*
X32468300Y-26561500D01*
X32793500Y-24034500D02*
X32468300Y-24359700D01*
X36172900Y-29599200D02*
X36172900Y-29702300D01*
D17*
%TO.N,/USB_DN*%
X31389500Y-22496300D02*
X33276900Y-20608900D01*
X31389500Y-23849300D02*
X31389500Y-22496300D01*
%TO.N,/BQ_TS*%
X37020100Y-23533100D02*
X37711100Y-23533100D01*
X37711100Y-23533100D02*
X38333900Y-24155900D01*
X38333900Y-24155900D02*
X38333900Y-25809700D01*
D18*
%TO.N,/VBAT*%
X41925500Y-24929600D02*
X41925500Y-23807800D01*
X41925500Y-23807800D02*
X39105100Y-20987400D01*
X41925500Y-24929600D02*
X41925500Y-28469400D01*
X39105100Y-17740400D02*
X39105000Y-17740400D01*
X41925500Y-28469400D02*
X43339300Y-29883200D01*
X39105100Y-20987400D02*
X39105100Y-17740400D01*
D17*
%TO.N,/BQ_EN1*%
X39858000Y-28451700D02*
X39858000Y-25836800D01*
X43051400Y-31645100D02*
X39858000Y-28451700D01*
%TO.N,/PGOOD_N*%
X15130500Y-17213800D02*
X15130500Y-17711000D01*
X37006400Y-27365600D02*
X37006400Y-25406300D01*
X35123200Y-20394900D02*
X37704400Y-17813700D01*
X35123200Y-23523100D02*
X35123200Y-20394900D01*
X17020000Y-19600500D02*
X33077100Y-19600500D01*
X33871500Y-20394900D02*
X35123200Y-20394900D01*
X15130500Y-17711000D02*
X17020000Y-19600500D01*
X33077100Y-19600500D02*
X33871500Y-20394900D01*
X37006400Y-25406300D02*
X35123200Y-23523100D01*
%TO.N,/CHG_N*%
X43415900Y-23670900D02*
X43415900Y-21201900D01*
X43415900Y-21201900D02*
X39390200Y-17176200D01*
X39390200Y-17176200D02*
X37534100Y-17176200D01*
X37534100Y-17176200D02*
X34910000Y-19800300D01*
X42836800Y-24250000D02*
X43415900Y-23670900D01*
D18*
%TO.N,/VSYS*%
X42573500Y-23224400D02*
X39981300Y-20632200D01*
X42857600Y-23224400D02*
X42573500Y-23224400D01*
X41093900Y-15725000D02*
X41093900Y-11650000D01*
X41093900Y-11650000D02*
X43900000Y-8843900D01*
X43900000Y-8843900D02*
X43900000Y-6100000D01*
X39981300Y-20632200D02*
X39981300Y-19501200D01*
D17*
%TO.N,/BQ_ISET*%
X39168700Y-29516500D02*
X39168700Y-22062500D01*
X38090000Y-30595200D02*
X39168700Y-29516500D01*
D19*
%TO.N,/+3V3*%
X22899700Y-10009600D02*
X23255000Y-9654300D01*
X17829600Y-13146200D02*
X20966200Y-10009600D01*
X10520000Y-20500000D02*
X17829600Y-13190400D01*
X17829600Y-13190400D02*
X17829600Y-13146200D01*
X43687900Y-14839900D02*
X45328100Y-13199700D01*
X45328100Y-13199700D02*
X45328100Y-12114200D01*
X45328100Y-12114200D02*
X45328200Y-12114200D01*
X20966200Y-10009600D02*
X22899700Y-10009600D01*
X43687900Y-18592700D02*
X43687900Y-14839900D01*
D17*
%TO.N,/PWR_EN*%
X27535400Y-11837100D02*
X25567500Y-13805000D01*
X27535400Y-5808600D02*
X27535400Y-11837100D01*
%TO.N,/HTR_EN*%
X23120900Y-14765000D02*
X18554600Y-14765000D01*
X33876700Y-11510000D02*
X30326500Y-15060200D01*
X18554600Y-14765000D02*
X17935400Y-14145800D01*
X38095300Y-11510000D02*
X42522600Y-7082700D01*
X33876700Y-11510000D02*
X38095300Y-11510000D01*
X23416100Y-15060200D02*
X23120900Y-14765000D01*
X30326500Y-15060200D02*
X23416100Y-15060200D01*
D18*
%TO.N,/+5V_HTR*%
X45608700Y-24618700D02*
X47381300Y-24618700D01*
X51995700Y-7987700D02*
X47977700Y-7987700D01*
X57328200Y-14671800D02*
X56296100Y-15703900D01*
X56296100Y-5103900D02*
X57328200Y-6136000D01*
X52704000Y-8696000D02*
X51995700Y-7987700D01*
X56296100Y-15703900D02*
X52704000Y-19296000D01*
X56296100Y-5103900D02*
X52704000Y-8696000D01*
X47977700Y-7987700D02*
X44990000Y-5000000D01*
X47381300Y-24618700D02*
X52704000Y-19296000D01*
X57328200Y-6136000D02*
X57328200Y-14671800D01*
D17*
%TO.N,/BOOT*%
X16276200Y-21140100D02*
X10345200Y-21140100D01*
X19269500Y-25105200D02*
X19269500Y-24133400D01*
X10345200Y-21140100D02*
X8927300Y-19722200D01*
X19269500Y-24133400D02*
X16276200Y-21140100D01*
X8927300Y-19722200D02*
X8927300Y-14644700D01*
%TO.N,/CH4_FB*%
X29035900Y-14356800D02*
X23768100Y-14356800D01*
X23768100Y-14356800D02*
X23272800Y-13861500D01*
X42040000Y-1352700D02*
X29035900Y-14356800D01*
%TO.N,/LPG_FB*%
X45916400Y-1392500D02*
X39595800Y-7713100D01*
X23561700Y-14708500D02*
X23266500Y-14413300D01*
X48097500Y-1392500D02*
X45916400Y-1392500D01*
X29360700Y-14708500D02*
X23561700Y-14708500D01*
X36356100Y-7713100D02*
X29360700Y-14708500D01*
X21552900Y-14413300D02*
X20534900Y-13395300D01*
X23266500Y-14413300D02*
X21552900Y-14413300D01*
X39595800Y-7713100D02*
X36356100Y-7713100D01*
%TO.N,/I2C_SDA*%
X15750000Y-17833200D02*
X15750000Y-16700000D01*
X35350100Y-18483000D02*
X16399800Y-18483000D01*
X43629900Y-13788000D02*
X42367300Y-15050600D01*
X39840800Y-16812900D02*
X37020200Y-16812900D01*
X42367300Y-15050600D02*
X42367300Y-17066800D01*
X42367300Y-17066800D02*
X42367300Y-18977700D01*
X16399800Y-18483000D02*
X15750000Y-17833200D01*
X37020200Y-16812900D02*
X35350100Y-18483000D01*
X42367300Y-17066800D02*
X40094700Y-17066800D01*
X40094700Y-17066800D02*
X39840800Y-16812900D01*
%TO.N,/I2C_SCL*%
X43658700Y-12979100D02*
X41645600Y-14992200D01*
X43746900Y-12979100D02*
X43658700Y-12979100D01*
X41645600Y-16012900D02*
X40943400Y-16715100D01*
X43746900Y-12882300D02*
X45077500Y-11551700D01*
X46665100Y-11551700D02*
X47031200Y-11917800D01*
X36917000Y-16418800D02*
X35435800Y-17900000D01*
X39944000Y-16418800D02*
X36917000Y-16418800D01*
X41645600Y-14992200D02*
X41645600Y-16012900D01*
X35435800Y-17900000D02*
X16600000Y-17900000D01*
X45077500Y-11551700D02*
X46665100Y-11551700D01*
X47031200Y-20198900D02*
X46849000Y-20381100D01*
X40943400Y-16715100D02*
X40240300Y-16715100D01*
X40240300Y-16715100D02*
X39944000Y-16418800D01*
X43746900Y-12979100D02*
X43746900Y-12882300D01*
X47031200Y-11917800D02*
X47031200Y-20198900D01*
%TO.N,/ADS_RDY*%
X40360600Y-16055000D02*
X18428200Y-16055000D01*
X18428200Y-16055000D02*
X18119800Y-16363400D01*
X40455300Y-16149700D02*
X40360600Y-16055000D01*
%TO.N,/LED_DIN*%
X21654000Y-6026400D02*
X17982700Y-2355100D01*
X21654000Y-8378900D02*
X21654000Y-6026400D01*
%TO.N,/TXD0*%
X21325500Y-13112000D02*
X23812800Y-10624700D01*
X23812800Y-10624700D02*
X23812800Y-7362500D01*
X18237800Y-1787500D02*
X15000100Y-1787500D01*
X15000100Y-1787500D02*
X14427700Y-2359900D01*
X23812800Y-7362500D02*
X18237800Y-1787500D01*
%TO.N,/RXD0*%
X24427400Y-11901800D02*
X24427400Y-7479800D01*
X11592100Y-1434600D02*
X10674100Y-2352600D01*
X18382200Y-1434600D02*
X11592100Y-1434600D01*
X24427400Y-7479800D02*
X18382200Y-1434600D01*
X25552300Y-13026700D02*
X24427400Y-11901800D01*
%TO.N,/ESP_EN*%
X21127500Y-8954800D02*
X19622900Y-8954800D01*
X21580600Y-9407900D02*
X21127500Y-8954800D01*
X15017700Y-13560000D02*
X6400000Y-4942400D01*
X19622900Y-8954800D02*
X15017700Y-13560000D01*
X6400000Y-4942400D02*
X6400000Y-2370900D01*
X12442500Y-16135200D02*
X12442500Y-17002000D01*
X15017700Y-13560000D02*
X12442500Y-16135200D01*
X12442500Y-17002000D02*
X12788400Y-17347900D01*
%TO.N,/CH4_RL*%
X54770900Y-10221200D02*
X45211300Y-10221200D01*
X45211300Y-10221200D02*
X45211300Y-10221300D01*
X56296100Y-8696000D02*
X54770900Y-10221200D01*
%TO.N,/HTR_SENSE*%
X46426600Y-12120100D02*
X46426600Y-12754100D01*
X46426600Y-12754100D02*
X44812200Y-14368500D01*
X44812200Y-14368500D02*
X44812200Y-22255700D01*
%TD*%
%TA.AperFunction,Conductor*%
%TO.N,/GND*%
G36*
X58003523Y-300751D02*
G01*
X58234806Y-317293D01*
X58248787Y-319304D01*
X58471881Y-367836D01*
X58485433Y-371815D01*
X58622649Y-422992D01*
X58699366Y-451606D01*
X58712205Y-457469D01*
X58912607Y-566898D01*
X58924486Y-574532D01*
X59107263Y-711357D01*
X59117939Y-720607D01*
X59279392Y-882060D01*
X59288642Y-892736D01*
X59425467Y-1075513D01*
X59433103Y-1087395D01*
X59542526Y-1287786D01*
X59548394Y-1300636D01*
X59628184Y-1514566D01*
X59632163Y-1528118D01*
X59680695Y-1751212D01*
X59682706Y-1765193D01*
X59699248Y-1996475D01*
X59699500Y-2003538D01*
X59699500Y-30996461D01*
X59699248Y-31003524D01*
X59682706Y-31234806D01*
X59680695Y-31248787D01*
X59632163Y-31471881D01*
X59628184Y-31485433D01*
X59548394Y-31699363D01*
X59542526Y-31712213D01*
X59433103Y-31912604D01*
X59425467Y-31924486D01*
X59288642Y-32107263D01*
X59279392Y-32117939D01*
X59117939Y-32279392D01*
X59107263Y-32288642D01*
X58924486Y-32425467D01*
X58912604Y-32433103D01*
X58712213Y-32542526D01*
X58699363Y-32548394D01*
X58485433Y-32628184D01*
X58471881Y-32632163D01*
X58248787Y-32680695D01*
X58234806Y-32682706D01*
X58031124Y-32697274D01*
X58003522Y-32699248D01*
X57996462Y-32699500D01*
X2003538Y-32699500D01*
X1996477Y-32699248D01*
X1966467Y-32697101D01*
X1765193Y-32682706D01*
X1751212Y-32680695D01*
X1528118Y-32632163D01*
X1514566Y-32628184D01*
X1300636Y-32548394D01*
X1287786Y-32542526D01*
X1087395Y-32433103D01*
X1075513Y-32425467D01*
X892736Y-32288642D01*
X882060Y-32279392D01*
X720607Y-32117939D01*
X711357Y-32107263D01*
X709053Y-32104185D01*
X574530Y-31924483D01*
X566896Y-31912604D01*
X566722Y-31912285D01*
X457469Y-31712205D01*
X451605Y-31699363D01*
X444090Y-31679215D01*
X387514Y-31527525D01*
X6649500Y-31527525D01*
X6649500Y-31672475D01*
X6661585Y-31717575D01*
X6687017Y-31812489D01*
X6759487Y-31938010D01*
X6759489Y-31938012D01*
X6759491Y-31938015D01*
X6861985Y-32040509D01*
X6861987Y-32040510D01*
X6861989Y-32040512D01*
X6987511Y-32112982D01*
X6987512Y-32112982D01*
X6987515Y-32112984D01*
X7127525Y-32150500D01*
X7127526Y-32150500D01*
X7272474Y-32150500D01*
X7272475Y-32150500D01*
X7412485Y-32112984D01*
X7412487Y-32112982D01*
X7412489Y-32112982D01*
X7538010Y-32040512D01*
X7538010Y-32040511D01*
X7538015Y-32040509D01*
X7640509Y-31938015D01*
X7686943Y-31857589D01*
X7712982Y-31812489D01*
X7712982Y-31812487D01*
X7712984Y-31812485D01*
X7750500Y-31672475D01*
X7750500Y-31527525D01*
X7712984Y-31387515D01*
X7712982Y-31387512D01*
X7712982Y-31387510D01*
X7640512Y-31261989D01*
X7640510Y-31261987D01*
X7640509Y-31261985D01*
X7538015Y-31159491D01*
X7538012Y-31159489D01*
X7538010Y-31159487D01*
X7412488Y-31087017D01*
X7412489Y-31087017D01*
X7332575Y-31065604D01*
X7272475Y-31049500D01*
X7127525Y-31049500D01*
X7067425Y-31065604D01*
X6987510Y-31087017D01*
X6861989Y-31159487D01*
X6759487Y-31261989D01*
X6687017Y-31387510D01*
X6674931Y-31432615D01*
X6649500Y-31527525D01*
X387514Y-31527525D01*
X371815Y-31485433D01*
X367836Y-31471882D01*
X363334Y-31451187D01*
X334805Y-31320043D01*
X340910Y-31259165D01*
X381634Y-31213500D01*
X431542Y-31200000D01*
X4549999Y-31200000D01*
X4550000Y-31200000D01*
X4550000Y-29971204D01*
X25880000Y-29971204D01*
X25880000Y-30174999D01*
X25880001Y-30175000D01*
X26380000Y-30175000D01*
X26380000Y-30525000D01*
X25880001Y-30525000D01*
X25880000Y-30525001D01*
X25880000Y-30728795D01*
X25910742Y-30883349D01*
X25971048Y-31028940D01*
X25971052Y-31028949D01*
X26058599Y-31159969D01*
X26058602Y-31159973D01*
X26170026Y-31271397D01*
X26170030Y-31271400D01*
X26301050Y-31358947D01*
X26301059Y-31358951D01*
X26446646Y-31419255D01*
X26446653Y-31419257D01*
X26505000Y-31430862D01*
X26505000Y-30895374D01*
X26564204Y-30929556D01*
X26640504Y-30950000D01*
X26719496Y-30950000D01*
X26795796Y-30929556D01*
X26855000Y-30895374D01*
X26855000Y-31430861D01*
X26913346Y-31419257D01*
X26913353Y-31419255D01*
X27058940Y-31358951D01*
X27058949Y-31358947D01*
X27189969Y-31271400D01*
X27189973Y-31271397D01*
X27301397Y-31159973D01*
X27301400Y-31159969D01*
X27388947Y-31028949D01*
X27388951Y-31028940D01*
X27449257Y-30883349D01*
X27479999Y-30728795D01*
X27480000Y-30728792D01*
X27480000Y-30525001D01*
X27479999Y-30525000D01*
X26980000Y-30525000D01*
X26980000Y-30175000D01*
X27479999Y-30175000D01*
X27480000Y-30174999D01*
X27480000Y-29971207D01*
X27479999Y-29971204D01*
X27449257Y-29816650D01*
X27388951Y-29671059D01*
X27388947Y-29671050D01*
X27301400Y-29540030D01*
X27301397Y-29540026D01*
X27189973Y-29428602D01*
X27189969Y-29428599D01*
X27058949Y-29341052D01*
X27058940Y-29341048D01*
X26913354Y-29280744D01*
X26913348Y-29280742D01*
X26855000Y-29269136D01*
X26855000Y-29804625D01*
X26795796Y-29770444D01*
X26719496Y-29750000D01*
X26640504Y-29750000D01*
X26564204Y-29770444D01*
X26505000Y-29804625D01*
X26505000Y-29269136D01*
X26446651Y-29280742D01*
X26446645Y-29280744D01*
X26301059Y-29341048D01*
X26301050Y-29341052D01*
X26170030Y-29428599D01*
X26170026Y-29428602D01*
X26058602Y-29540026D01*
X26058599Y-29540030D01*
X25971052Y-29671050D01*
X25971048Y-29671059D01*
X25910742Y-29816650D01*
X25880000Y-29971204D01*
X4550000Y-29971204D01*
X4550000Y-29300000D01*
X7200000Y-29300000D01*
X7200001Y-29300000D01*
X9799999Y-29300000D01*
X9800000Y-29300000D01*
X9800000Y-26700000D01*
X7200000Y-26700000D01*
X7200000Y-29300000D01*
X4550000Y-29300000D01*
X4550000Y-27527525D01*
X5849500Y-27527525D01*
X5849500Y-27672474D01*
X5887017Y-27812489D01*
X5959487Y-27938010D01*
X5959489Y-27938012D01*
X5959491Y-27938015D01*
X6061985Y-28040509D01*
X6061987Y-28040510D01*
X6061989Y-28040512D01*
X6187511Y-28112982D01*
X6187512Y-28112982D01*
X6187515Y-28112984D01*
X6327525Y-28150500D01*
X6327526Y-28150500D01*
X6472474Y-28150500D01*
X6472475Y-28150500D01*
X6612485Y-28112984D01*
X6612487Y-28112982D01*
X6612489Y-28112982D01*
X6738010Y-28040512D01*
X6738010Y-28040511D01*
X6738015Y-28040509D01*
X6840509Y-27938015D01*
X6853969Y-27914702D01*
X6912982Y-27812489D01*
X6912982Y-27812487D01*
X6912984Y-27812485D01*
X6950500Y-27672475D01*
X6950500Y-27527525D01*
X6912984Y-27387515D01*
X6912982Y-27387512D01*
X6912982Y-27387510D01*
X6840512Y-27261989D01*
X6840510Y-27261987D01*
X6840509Y-27261985D01*
X6738015Y-27159491D01*
X6738012Y-27159489D01*
X6738010Y-27159487D01*
X6612488Y-27087017D01*
X6612489Y-27087017D01*
X6582896Y-27079087D01*
X6472475Y-27049500D01*
X6327525Y-27049500D01*
X6265790Y-27066041D01*
X6187510Y-27087017D01*
X6061989Y-27159487D01*
X5959487Y-27261989D01*
X5887017Y-27387510D01*
X5849500Y-27527525D01*
X4550000Y-27527525D01*
X4550000Y-23399500D01*
X4568907Y-23341309D01*
X4618407Y-23305345D01*
X4649000Y-23300500D01*
X14600500Y-23300500D01*
X14658691Y-23319407D01*
X14694655Y-23368907D01*
X14699500Y-23399500D01*
X14699500Y-29039564D01*
X14719978Y-29115988D01*
X14719980Y-29115992D01*
X14732511Y-29137696D01*
X14759540Y-29184511D01*
X14815489Y-29240460D01*
X14815491Y-29240461D01*
X14884007Y-29280019D01*
X14884011Y-29280021D01*
X14960435Y-29300499D01*
X14960437Y-29300500D01*
X14960438Y-29300500D01*
X16039563Y-29300500D01*
X16039563Y-29300499D01*
X16115989Y-29280021D01*
X16184511Y-29240460D01*
X16240460Y-29184511D01*
X16280021Y-29115989D01*
X16300500Y-29039562D01*
X16300500Y-27117349D01*
X16319407Y-27059158D01*
X16368907Y-27023194D01*
X16430093Y-27023194D01*
X16459772Y-27038810D01*
X16461992Y-27040514D01*
X16587511Y-27112982D01*
X16587512Y-27112982D01*
X16587515Y-27112984D01*
X16727525Y-27150500D01*
X16727526Y-27150500D01*
X16872474Y-27150500D01*
X16872475Y-27150500D01*
X17012485Y-27112984D01*
X17012487Y-27112982D01*
X17012489Y-27112982D01*
X17138010Y-27040512D01*
X17138010Y-27040511D01*
X17138015Y-27040509D01*
X17240509Y-26938015D01*
X17240512Y-26938010D01*
X17312982Y-26812489D01*
X17312982Y-26812487D01*
X17312984Y-26812485D01*
X17350500Y-26672475D01*
X17350500Y-26527525D01*
X17312984Y-26387515D01*
X17312982Y-26387512D01*
X17312982Y-26387510D01*
X17293342Y-26353493D01*
X17240512Y-26261989D01*
X17240510Y-26261987D01*
X17240509Y-26261985D01*
X17138015Y-26159491D01*
X17138012Y-26159489D01*
X17138010Y-26159487D01*
X17012488Y-26087017D01*
X17012489Y-26087017D01*
X16955945Y-26071866D01*
X16872475Y-26049500D01*
X16727525Y-26049500D01*
X16665790Y-26066041D01*
X16587510Y-26087017D01*
X16461986Y-26159489D01*
X16459765Y-26161194D01*
X16457874Y-26161863D01*
X16456365Y-26162735D01*
X16456203Y-26162455D01*
X16402088Y-26181616D01*
X16343423Y-26164237D01*
X16306177Y-26115694D01*
X16300500Y-26082650D01*
X16300500Y-21960437D01*
X16300499Y-21960435D01*
X16286189Y-21907029D01*
X16289390Y-21845927D01*
X16327895Y-21798377D01*
X16386995Y-21782541D01*
X16444117Y-21804467D01*
X16451819Y-21811401D01*
X18890004Y-24249586D01*
X18917781Y-24304103D01*
X18919000Y-24319590D01*
X18919000Y-24636168D01*
X18900093Y-24694359D01*
X18890004Y-24706171D01*
X18828991Y-24767184D01*
X18828987Y-24767189D01*
X18756517Y-24892710D01*
X18730452Y-24989986D01*
X18719000Y-25032725D01*
X18719000Y-25177675D01*
X18735982Y-25241051D01*
X18756517Y-25317689D01*
X18828987Y-25443210D01*
X18828989Y-25443212D01*
X18828991Y-25443215D01*
X18931485Y-25545709D01*
X18931487Y-25545710D01*
X18931489Y-25545712D01*
X19057011Y-25618182D01*
X19057012Y-25618182D01*
X19057015Y-25618184D01*
X19197025Y-25655700D01*
X19197026Y-25655700D01*
X19341974Y-25655700D01*
X19341975Y-25655700D01*
X19481985Y-25618184D01*
X19481987Y-25618182D01*
X19481989Y-25618182D01*
X19607510Y-25545712D01*
X19607510Y-25545711D01*
X19607515Y-25545709D01*
X19612020Y-25541204D01*
X25880000Y-25541204D01*
X25880000Y-25994999D01*
X25880001Y-25995000D01*
X26380000Y-25995000D01*
X26380000Y-26345000D01*
X25880001Y-26345000D01*
X25880000Y-26345001D01*
X25880000Y-26798795D01*
X25910742Y-26953349D01*
X25971048Y-27098940D01*
X25971052Y-27098949D01*
X26058599Y-27229969D01*
X26058602Y-27229973D01*
X26170026Y-27341397D01*
X26170030Y-27341400D01*
X26301050Y-27428947D01*
X26301059Y-27428951D01*
X26446646Y-27489255D01*
X26446653Y-27489257D01*
X26505000Y-27500862D01*
X26505000Y-26965374D01*
X26564204Y-26999556D01*
X26640504Y-27020000D01*
X26719496Y-27020000D01*
X26795796Y-26999556D01*
X26855000Y-26965374D01*
X26855000Y-27500861D01*
X26913346Y-27489257D01*
X26913353Y-27489255D01*
X27058940Y-27428951D01*
X27058949Y-27428947D01*
X27189969Y-27341400D01*
X27189973Y-27341397D01*
X27301397Y-27229973D01*
X27301400Y-27229969D01*
X27388947Y-27098949D01*
X27388951Y-27098940D01*
X27449257Y-26953348D01*
X27450670Y-26948693D01*
X27451708Y-26949008D01*
X27479142Y-26900022D01*
X27534706Y-26874405D01*
X27594716Y-26886341D01*
X27632078Y-26923216D01*
X27689495Y-27022665D01*
X27787335Y-27120505D01*
X27907164Y-27189688D01*
X28040817Y-27225500D01*
X28040819Y-27225500D01*
X28179181Y-27225500D01*
X28179183Y-27225500D01*
X28312836Y-27189688D01*
X28432665Y-27120505D01*
X28530505Y-27022665D01*
X28599688Y-26902836D01*
X28635500Y-26769183D01*
X28635500Y-26630817D01*
X28599688Y-26497164D01*
X28530505Y-26377335D01*
X28432665Y-26279495D01*
X28312836Y-26210312D01*
X28179183Y-26174500D01*
X28040817Y-26174500D01*
X27907164Y-26210312D01*
X27787335Y-26279495D01*
X27689493Y-26377337D01*
X27664736Y-26420218D01*
X27619266Y-26461159D01*
X27558416Y-26467554D01*
X27505428Y-26436962D01*
X27480542Y-26381066D01*
X27480000Y-26370718D01*
X27480000Y-26345001D01*
X27479999Y-26345000D01*
X26980000Y-26345000D01*
X26980000Y-25995000D01*
X27479999Y-25995000D01*
X27480000Y-25994999D01*
X27480000Y-25541207D01*
X27479999Y-25541204D01*
X27449257Y-25386650D01*
X27388951Y-25241059D01*
X27388947Y-25241050D01*
X27301400Y-25110030D01*
X27301397Y-25110026D01*
X27189973Y-24998602D01*
X27189969Y-24998599D01*
X27058949Y-24911052D01*
X27058940Y-24911048D01*
X26913354Y-24850744D01*
X26913348Y-24850742D01*
X26855000Y-24839136D01*
X26855000Y-25374625D01*
X26795796Y-25340444D01*
X26719496Y-25320000D01*
X26640504Y-25320000D01*
X26564204Y-25340444D01*
X26505000Y-25374625D01*
X26505000Y-24839136D01*
X26446651Y-24850742D01*
X26446645Y-24850744D01*
X26301059Y-24911048D01*
X26301050Y-24911052D01*
X26170030Y-24998599D01*
X26170026Y-24998602D01*
X26058602Y-25110026D01*
X26058599Y-25110030D01*
X25971052Y-25241050D01*
X25971048Y-25241059D01*
X25910742Y-25386650D01*
X25880000Y-25541204D01*
X19612020Y-25541204D01*
X19710009Y-25443215D01*
X19714293Y-25435795D01*
X19782482Y-25317689D01*
X19782482Y-25317687D01*
X19782484Y-25317685D01*
X19820000Y-25177675D01*
X19820000Y-25032725D01*
X19782484Y-24892715D01*
X19782482Y-24892712D01*
X19782482Y-24892710D01*
X19710012Y-24767189D01*
X19710008Y-24767184D01*
X19648996Y-24706171D01*
X19621219Y-24651654D01*
X19620000Y-24636168D01*
X19620000Y-24087257D01*
X19620000Y-24087256D01*
X19596114Y-23998112D01*
X19589688Y-23986981D01*
X19588307Y-23984589D01*
X19552043Y-23921780D01*
X19549969Y-23918187D01*
X17462707Y-21830925D01*
X27828600Y-21830925D01*
X27828600Y-21975875D01*
X27838840Y-22014089D01*
X27866117Y-22115889D01*
X27938587Y-22241410D01*
X27938589Y-22241412D01*
X27938591Y-22241415D01*
X28041085Y-22343909D01*
X28041087Y-22343910D01*
X28041089Y-22343912D01*
X28166611Y-22416382D01*
X28166612Y-22416382D01*
X28166615Y-22416384D01*
X28306625Y-22453900D01*
X28306626Y-22453900D01*
X28451574Y-22453900D01*
X28451575Y-22453900D01*
X28591585Y-22416384D01*
X28591587Y-22416382D01*
X28591589Y-22416382D01*
X28717110Y-22343912D01*
X28717110Y-22343911D01*
X28717115Y-22343909D01*
X28819609Y-22241415D01*
X28853205Y-22183225D01*
X28892082Y-22115889D01*
X28892082Y-22115887D01*
X28892084Y-22115885D01*
X28929600Y-21975875D01*
X28929600Y-21830925D01*
X28892084Y-21690915D01*
X28892082Y-21690912D01*
X28892082Y-21690910D01*
X28819612Y-21565389D01*
X28819610Y-21565387D01*
X28819609Y-21565385D01*
X28717115Y-21462891D01*
X28717112Y-21462889D01*
X28717110Y-21462887D01*
X28591588Y-21390417D01*
X28591589Y-21390417D01*
X28561996Y-21382487D01*
X28451575Y-21352900D01*
X28306625Y-21352900D01*
X28244890Y-21369441D01*
X28166610Y-21390417D01*
X28041089Y-21462887D01*
X27938587Y-21565389D01*
X27866117Y-21690910D01*
X27832736Y-21815489D01*
X27828600Y-21830925D01*
X17462707Y-21830925D01*
X16491412Y-20859630D01*
X16411488Y-20813486D01*
X16322344Y-20789600D01*
X16322342Y-20789600D01*
X11141340Y-20789600D01*
X11117017Y-20781697D01*
X11091999Y-20776428D01*
X11088340Y-20772379D01*
X11083149Y-20770693D01*
X11068114Y-20750000D01*
X11050974Y-20731034D01*
X11050560Y-20725838D01*
X11047185Y-20721193D01*
X11044465Y-20670196D01*
X11045014Y-20667587D01*
X11070500Y-20572475D01*
X11070500Y-20546585D01*
X11072625Y-20536496D01*
X11082984Y-20518477D01*
X11089407Y-20498709D01*
X11099490Y-20486902D01*
X14410996Y-17175395D01*
X14465513Y-17147619D01*
X14525945Y-17157190D01*
X14569210Y-17200455D01*
X14580000Y-17245400D01*
X14580000Y-17286274D01*
X14617517Y-17426289D01*
X14689987Y-17551810D01*
X14689989Y-17551812D01*
X14689991Y-17551815D01*
X14751005Y-17612829D01*
X14751597Y-17613992D01*
X14752745Y-17614614D01*
X14755762Y-17622165D01*
X14778781Y-17667344D01*
X14779140Y-17669813D01*
X14780000Y-17676296D01*
X14780000Y-17757144D01*
X14799572Y-17830187D01*
X14801237Y-17836402D01*
X14801238Y-17836407D01*
X14803883Y-17846282D01*
X14803884Y-17846284D01*
X14803885Y-17846287D01*
X14803886Y-17846288D01*
X14850030Y-17926212D01*
X16804788Y-19880970D01*
X16840694Y-19901700D01*
X16871632Y-19919562D01*
X16884708Y-19927112D01*
X16884709Y-19927112D01*
X16884712Y-19927114D01*
X16973856Y-19951000D01*
X16973857Y-19951000D01*
X17066144Y-19951000D01*
X32890910Y-19951000D01*
X32898507Y-19953468D01*
X32906397Y-19952219D01*
X32927052Y-19962743D01*
X32949101Y-19969907D01*
X32960914Y-19979996D01*
X32981057Y-20000139D01*
X33008834Y-20054656D01*
X32999263Y-20115088D01*
X32960556Y-20155878D01*
X32938887Y-20168389D01*
X32836387Y-20270889D01*
X32763917Y-20396410D01*
X32726400Y-20536425D01*
X32726400Y-20622710D01*
X32707493Y-20680901D01*
X32697404Y-20692714D01*
X31109030Y-22281088D01*
X31068031Y-22352100D01*
X31062886Y-22361012D01*
X31048050Y-22416382D01*
X31039000Y-22450157D01*
X31039000Y-23380268D01*
X31020093Y-23438459D01*
X31010004Y-23450271D01*
X30948991Y-23511284D01*
X30948987Y-23511289D01*
X30876517Y-23636810D01*
X30839000Y-23776825D01*
X30839000Y-23921780D01*
X30840099Y-23925880D01*
X30836895Y-23986981D01*
X30798389Y-24034530D01*
X30744472Y-24050500D01*
X29240711Y-24050500D01*
X29233113Y-24048031D01*
X29225224Y-24049281D01*
X29204568Y-24038756D01*
X29182520Y-24031593D01*
X29170707Y-24021504D01*
X29153284Y-24004081D01*
X29127662Y-23959702D01*
X29102184Y-23864615D01*
X29102182Y-23864612D01*
X29102182Y-23864610D01*
X29029712Y-23739089D01*
X29029710Y-23739087D01*
X29029709Y-23739085D01*
X28927215Y-23636591D01*
X28927212Y-23636589D01*
X28927210Y-23636587D01*
X28801688Y-23564117D01*
X28801689Y-23564117D01*
X28772096Y-23556187D01*
X28661675Y-23526600D01*
X28516725Y-23526600D01*
X28454990Y-23543141D01*
X28376710Y-23564117D01*
X28251189Y-23636587D01*
X28148687Y-23739089D01*
X28076217Y-23864610D01*
X28044642Y-23982449D01*
X28038700Y-24004625D01*
X28038700Y-24149575D01*
X28043151Y-24166185D01*
X28076217Y-24289589D01*
X28148687Y-24415110D01*
X28148689Y-24415112D01*
X28148691Y-24415115D01*
X28251185Y-24517609D01*
X28251187Y-24517610D01*
X28251189Y-24517612D01*
X28376711Y-24590082D01*
X28376712Y-24590082D01*
X28376715Y-24590084D01*
X28471801Y-24615562D01*
X28516181Y-24641185D01*
X28736485Y-24861488D01*
X28736490Y-24861492D01*
X28839207Y-24920796D01*
X28839209Y-24920797D01*
X28839213Y-24920799D01*
X28863422Y-24927284D01*
X28863425Y-24927287D01*
X28863426Y-24927286D01*
X28953788Y-24951499D01*
X28953790Y-24951500D01*
X28953791Y-24951500D01*
X31918800Y-24951500D01*
X31976991Y-24970407D01*
X32012955Y-25019907D01*
X32017800Y-25050500D01*
X32017800Y-26620808D01*
X32031644Y-26672475D01*
X32048502Y-26735391D01*
X32107807Y-26838109D01*
X32107808Y-26838110D01*
X32107809Y-26838111D01*
X32107811Y-26838114D01*
X33964686Y-28694990D01*
X34067414Y-28754299D01*
X34181991Y-28785000D01*
X34680589Y-28785000D01*
X34738780Y-28803907D01*
X34750593Y-28813996D01*
X35074293Y-29137696D01*
X35102070Y-29192213D01*
X35092499Y-29252645D01*
X35049234Y-29295910D01*
X35042175Y-29299164D01*
X34941059Y-29341048D01*
X34941050Y-29341052D01*
X34810030Y-29428599D01*
X34810026Y-29428602D01*
X34698602Y-29540026D01*
X34698599Y-29540030D01*
X34611052Y-29671050D01*
X34611048Y-29671059D01*
X34550742Y-29816650D01*
X34520000Y-29971204D01*
X34520000Y-30174999D01*
X34520001Y-30175000D01*
X35020000Y-30175000D01*
X35020000Y-30525000D01*
X34520001Y-30525000D01*
X34520000Y-30525001D01*
X34520000Y-30728795D01*
X34550742Y-30883349D01*
X34611048Y-31028940D01*
X34611052Y-31028949D01*
X34698599Y-31159969D01*
X34698602Y-31159973D01*
X34810026Y-31271397D01*
X34810030Y-31271400D01*
X34941050Y-31358947D01*
X34941059Y-31358951D01*
X35086646Y-31419255D01*
X35086653Y-31419257D01*
X35145000Y-31430862D01*
X35145000Y-30895374D01*
X35204204Y-30929556D01*
X35280504Y-30950000D01*
X35359496Y-30950000D01*
X35435796Y-30929556D01*
X35495000Y-30895374D01*
X35495000Y-31430861D01*
X35553346Y-31419257D01*
X35553353Y-31419255D01*
X35698940Y-31358951D01*
X35698949Y-31358947D01*
X35829969Y-31271400D01*
X35829973Y-31271397D01*
X35941397Y-31159973D01*
X35941400Y-31159969D01*
X36028947Y-31028949D01*
X36028951Y-31028940D01*
X36089257Y-30883349D01*
X36119999Y-30728795D01*
X36120000Y-30728792D01*
X36120000Y-30525510D01*
X36138907Y-30467319D01*
X36188407Y-30431355D01*
X36249593Y-30431355D01*
X36289001Y-30455504D01*
X38085686Y-32252189D01*
X38085688Y-32252190D01*
X38085690Y-32252192D01*
X38188407Y-32311496D01*
X38188409Y-32311497D01*
X38188413Y-32311499D01*
X38212622Y-32317984D01*
X38212625Y-32317987D01*
X38212626Y-32317986D01*
X38302988Y-32342199D01*
X38302990Y-32342200D01*
X38302991Y-32342200D01*
X38907564Y-32342200D01*
X38957062Y-32355463D01*
X39042315Y-32404684D01*
X39182325Y-32442200D01*
X39182326Y-32442200D01*
X39327274Y-32442200D01*
X39327275Y-32442200D01*
X39467285Y-32404684D01*
X39467287Y-32404682D01*
X39467289Y-32404682D01*
X39592810Y-32332212D01*
X39592810Y-32332211D01*
X39592815Y-32332209D01*
X39695309Y-32229715D01*
X39695312Y-32229710D01*
X39767782Y-32104189D01*
X39767782Y-32104187D01*
X39767784Y-32104185D01*
X39805300Y-31964175D01*
X39805300Y-31819225D01*
X39767784Y-31679215D01*
X39767782Y-31679212D01*
X39767782Y-31679210D01*
X39695312Y-31553689D01*
X39695310Y-31553687D01*
X39695309Y-31553685D01*
X39592815Y-31451191D01*
X39592812Y-31451189D01*
X39592810Y-31451187D01*
X39467288Y-31378717D01*
X39467289Y-31378717D01*
X39437696Y-31370787D01*
X39327275Y-31341200D01*
X39182325Y-31341200D01*
X39042315Y-31378716D01*
X39042314Y-31378716D01*
X39042312Y-31378717D01*
X38998090Y-31404249D01*
X38957062Y-31427936D01*
X38907564Y-31441200D01*
X38589911Y-31441200D01*
X38531720Y-31422293D01*
X38519907Y-31412204D01*
X38338814Y-31231111D01*
X38311037Y-31176594D01*
X38320608Y-31116162D01*
X38359317Y-31075371D01*
X38428015Y-31035709D01*
X38530509Y-30933215D01*
X38602984Y-30807685D01*
X38640500Y-30667675D01*
X38640500Y-30581389D01*
X38659407Y-30523198D01*
X38669490Y-30511391D01*
X39449170Y-29731712D01*
X39495314Y-29651788D01*
X39495316Y-29651782D01*
X39497671Y-29642993D01*
X39497671Y-29642991D01*
X39515782Y-29575400D01*
X39519200Y-29562644D01*
X39519200Y-28847589D01*
X39538107Y-28789398D01*
X39587607Y-28753434D01*
X39648793Y-28753434D01*
X39688201Y-28777583D01*
X42471905Y-31561287D01*
X42499681Y-31615802D01*
X42500900Y-31631289D01*
X42500900Y-31717574D01*
X42538417Y-31857589D01*
X42610887Y-31983110D01*
X42610889Y-31983112D01*
X42610891Y-31983115D01*
X42713385Y-32085609D01*
X42713387Y-32085610D01*
X42713389Y-32085612D01*
X42838911Y-32158082D01*
X42838912Y-32158082D01*
X42838915Y-32158084D01*
X42978925Y-32195600D01*
X42978926Y-32195600D01*
X43123874Y-32195600D01*
X43123875Y-32195600D01*
X43263885Y-32158084D01*
X43263887Y-32158082D01*
X43263889Y-32158082D01*
X43389410Y-32085612D01*
X43389410Y-32085611D01*
X43389415Y-32085609D01*
X43491909Y-31983115D01*
X43517948Y-31938015D01*
X43564382Y-31857589D01*
X43564382Y-31857587D01*
X43564384Y-31857585D01*
X43601900Y-31717575D01*
X43601900Y-31572625D01*
X43564384Y-31432615D01*
X43564382Y-31432612D01*
X43564382Y-31432610D01*
X43491912Y-31307089D01*
X43491910Y-31307087D01*
X43491909Y-31307085D01*
X43389415Y-31204591D01*
X43389412Y-31204589D01*
X43389410Y-31204587D01*
X43263888Y-31132117D01*
X43263889Y-31132117D01*
X43234296Y-31124187D01*
X43123875Y-31094600D01*
X43123874Y-31094600D01*
X43037590Y-31094600D01*
X42979399Y-31075693D01*
X42967586Y-31065604D01*
X42599626Y-30697644D01*
X45399500Y-30697644D01*
X45399500Y-30902355D01*
X45431521Y-31104529D01*
X45494780Y-31299219D01*
X45587712Y-31481609D01*
X45587714Y-31481613D01*
X45708029Y-31647213D01*
X45708031Y-31647215D01*
X45708034Y-31647219D01*
X45852781Y-31791966D01*
X45852784Y-31791968D01*
X45852786Y-31791970D01*
X46018386Y-31912285D01*
X46018390Y-31912287D01*
X46200781Y-32005220D01*
X46395466Y-32068477D01*
X46395467Y-32068477D01*
X46395470Y-32068478D01*
X46597645Y-32100500D01*
X46597648Y-32100500D01*
X46802355Y-32100500D01*
X47004529Y-32068478D01*
X47004530Y-32068477D01*
X47004534Y-32068477D01*
X47199219Y-32005220D01*
X47381610Y-31912287D01*
X47547219Y-31791966D01*
X47691966Y-31647219D01*
X47778928Y-31527525D01*
X47812285Y-31481613D01*
X47812287Y-31481610D01*
X47905220Y-31299219D01*
X47968477Y-31104534D01*
X47968478Y-31104529D01*
X48000500Y-30902355D01*
X48000500Y-30697644D01*
X47968478Y-30495470D01*
X47936218Y-30396184D01*
X47905220Y-30300781D01*
X47812287Y-30118390D01*
X47812285Y-30118386D01*
X47691970Y-29952786D01*
X47691968Y-29952784D01*
X47691966Y-29952781D01*
X47547219Y-29808034D01*
X47547215Y-29808031D01*
X47547213Y-29808029D01*
X47381613Y-29687714D01*
X47381609Y-29687712D01*
X47199219Y-29594780D01*
X47004529Y-29531521D01*
X46802355Y-29499500D01*
X46802352Y-29499500D01*
X46597648Y-29499500D01*
X46597645Y-29499500D01*
X46395470Y-29531521D01*
X46200780Y-29594780D01*
X46018390Y-29687712D01*
X46018386Y-29687714D01*
X45852786Y-29808029D01*
X45708029Y-29952786D01*
X45587714Y-30118386D01*
X45587712Y-30118390D01*
X45494780Y-30300780D01*
X45431521Y-30495470D01*
X45399500Y-30697644D01*
X42599626Y-30697644D01*
X40237496Y-28335514D01*
X40209719Y-28280997D01*
X40208500Y-28265510D01*
X40208500Y-26305831D01*
X40227407Y-26247640D01*
X40237490Y-26235833D01*
X40298509Y-26174815D01*
X40304616Y-26164237D01*
X40370982Y-26049289D01*
X40370982Y-26049287D01*
X40370984Y-26049285D01*
X40408500Y-25909275D01*
X40408500Y-25764325D01*
X40370984Y-25624315D01*
X40370982Y-25624312D01*
X40370982Y-25624310D01*
X40298512Y-25498789D01*
X40298510Y-25498787D01*
X40298509Y-25498785D01*
X40196015Y-25396291D01*
X40196012Y-25396289D01*
X40196010Y-25396287D01*
X40070488Y-25323817D01*
X40070489Y-25323817D01*
X40040896Y-25315887D01*
X39930475Y-25286300D01*
X39785525Y-25286300D01*
X39726495Y-25302116D01*
X39643823Y-25324269D01*
X39582721Y-25321066D01*
X39535172Y-25282561D01*
X39519200Y-25228642D01*
X39519200Y-22531531D01*
X39520700Y-22526913D01*
X39519643Y-22522176D01*
X39528022Y-22504376D01*
X39538107Y-22473340D01*
X39543964Y-22466032D01*
X39546003Y-22463720D01*
X39609209Y-22400515D01*
X39623292Y-22376122D01*
X39629841Y-22368700D01*
X39648073Y-22357927D01*
X39663810Y-22343758D01*
X39673837Y-22342703D01*
X39682518Y-22337575D01*
X39703597Y-22339575D01*
X39724660Y-22337362D01*
X39734064Y-22342467D01*
X39743430Y-22343357D01*
X39755795Y-22354266D01*
X39774081Y-22364195D01*
X41396004Y-23986118D01*
X41423781Y-24040635D01*
X41425000Y-24056122D01*
X41425000Y-24668965D01*
X41413834Y-24710638D01*
X41414999Y-24711121D01*
X41412516Y-24717113D01*
X41381951Y-24831185D01*
X41375000Y-24857125D01*
X41375000Y-25002075D01*
X41412516Y-25142085D01*
X41412518Y-25142090D01*
X41415000Y-25148080D01*
X41413833Y-25148563D01*
X41425000Y-25190234D01*
X41425000Y-28403508D01*
X41425000Y-28535292D01*
X41426666Y-28541509D01*
X41459109Y-28662590D01*
X41524996Y-28776709D01*
X41524997Y-28776710D01*
X41524998Y-28776711D01*
X41525000Y-28776714D01*
X42173598Y-29425312D01*
X42801096Y-30052810D01*
X42822670Y-30090172D01*
X42823833Y-30089691D01*
X42826317Y-30095688D01*
X42898787Y-30221210D01*
X42898789Y-30221212D01*
X42898791Y-30221215D01*
X43001285Y-30323709D01*
X43001287Y-30323710D01*
X43001289Y-30323712D01*
X43126811Y-30396182D01*
X43126812Y-30396182D01*
X43126815Y-30396184D01*
X43266825Y-30433700D01*
X43266826Y-30433700D01*
X43411774Y-30433700D01*
X43411775Y-30433700D01*
X43551785Y-30396184D01*
X43551787Y-30396182D01*
X43551789Y-30396182D01*
X43677310Y-30323712D01*
X43677310Y-30323711D01*
X43677315Y-30323709D01*
X43779809Y-30221215D01*
X43795575Y-30193907D01*
X43852282Y-30095689D01*
X43852282Y-30095687D01*
X43852284Y-30095685D01*
X43889800Y-29955675D01*
X43889800Y-29810725D01*
X43852284Y-29670715D01*
X43852282Y-29670712D01*
X43852282Y-29670710D01*
X43779812Y-29545189D01*
X43779810Y-29545187D01*
X43779809Y-29545185D01*
X43677315Y-29442691D01*
X43677312Y-29442689D01*
X43677310Y-29442687D01*
X43551788Y-29370217D01*
X43545791Y-29367733D01*
X43546272Y-29366570D01*
X43508910Y-29344996D01*
X42454996Y-28291082D01*
X42427219Y-28236565D01*
X42426000Y-28221078D01*
X42426000Y-25190234D01*
X42437166Y-25148563D01*
X42436000Y-25148080D01*
X42438477Y-25142096D01*
X42438484Y-25142085D01*
X42476000Y-25002075D01*
X42476000Y-24857125D01*
X42476000Y-24850636D01*
X42478623Y-24850636D01*
X42487734Y-24801449D01*
X42532111Y-24759327D01*
X42592772Y-24751334D01*
X42618224Y-24760723D01*
X42618317Y-24760500D01*
X42624000Y-24762853D01*
X42624247Y-24762945D01*
X42624315Y-24762984D01*
X42764325Y-24800500D01*
X42764326Y-24800500D01*
X42909274Y-24800500D01*
X42909275Y-24800500D01*
X43049285Y-24762984D01*
X43049287Y-24762982D01*
X43049289Y-24762982D01*
X43174810Y-24690512D01*
X43174810Y-24690511D01*
X43174815Y-24690509D01*
X43277309Y-24588015D01*
X43288906Y-24567928D01*
X43349782Y-24462489D01*
X43349782Y-24462487D01*
X43349784Y-24462485D01*
X43387300Y-24322475D01*
X43387300Y-24236189D01*
X43406207Y-24177998D01*
X43416290Y-24166191D01*
X43696370Y-23886112D01*
X43742514Y-23806188D01*
X43748754Y-23782900D01*
X43766400Y-23717044D01*
X43766400Y-21155756D01*
X43742514Y-21066612D01*
X43715380Y-21019615D01*
X43696370Y-20986688D01*
X42401794Y-19692112D01*
X42374019Y-19637598D01*
X42383590Y-19577166D01*
X42426855Y-19533901D01*
X42446172Y-19526485D01*
X42579785Y-19490684D01*
X42579787Y-19490682D01*
X42579789Y-19490682D01*
X42705310Y-19418212D01*
X42705310Y-19418211D01*
X42705315Y-19418209D01*
X42807809Y-19315715D01*
X42823398Y-19288715D01*
X42880282Y-19190189D01*
X42880282Y-19190187D01*
X42880284Y-19190185D01*
X42917800Y-19050175D01*
X42917800Y-18905225D01*
X42880284Y-18765215D01*
X42880282Y-18765211D01*
X42880282Y-18765210D01*
X42807812Y-18639689D01*
X42807808Y-18639684D01*
X42746796Y-18578671D01*
X42719019Y-18524154D01*
X42717800Y-18508668D01*
X42717800Y-15236790D01*
X42736707Y-15178599D01*
X42746796Y-15166786D01*
X43118396Y-14795186D01*
X43172913Y-14767409D01*
X43233345Y-14776980D01*
X43276610Y-14820245D01*
X43287400Y-14865190D01*
X43287400Y-18173668D01*
X43268493Y-18231859D01*
X43258406Y-18243669D01*
X43247392Y-18254683D01*
X43247387Y-18254689D01*
X43174917Y-18380210D01*
X43165832Y-18414115D01*
X43137400Y-18520225D01*
X43137400Y-18665175D01*
X43164205Y-18765210D01*
X43174917Y-18805189D01*
X43247387Y-18930710D01*
X43247389Y-18930712D01*
X43247391Y-18930715D01*
X43349885Y-19033209D01*
X43349887Y-19033210D01*
X43349889Y-19033212D01*
X43475411Y-19105682D01*
X43475412Y-19105682D01*
X43475415Y-19105684D01*
X43615425Y-19143200D01*
X43615426Y-19143200D01*
X43760374Y-19143200D01*
X43760375Y-19143200D01*
X43900385Y-19105684D01*
X43900387Y-19105682D01*
X43900389Y-19105682D01*
X44025910Y-19033212D01*
X44025910Y-19033211D01*
X44025915Y-19033209D01*
X44128409Y-18930715D01*
X44143126Y-18905225D01*
X44200882Y-18805189D01*
X44200882Y-18805187D01*
X44200884Y-18805185D01*
X44238400Y-18665175D01*
X44238400Y-18520225D01*
X44200884Y-18380215D01*
X44200882Y-18380212D01*
X44200882Y-18380210D01*
X44128412Y-18254689D01*
X44128407Y-18254683D01*
X44117394Y-18243669D01*
X44089618Y-18189152D01*
X44088400Y-18173668D01*
X44088400Y-15046801D01*
X44107307Y-14988610D01*
X44117396Y-14976797D01*
X44292696Y-14801497D01*
X44347213Y-14773720D01*
X44407645Y-14783291D01*
X44450910Y-14826556D01*
X44461700Y-14871501D01*
X44461700Y-21786668D01*
X44442793Y-21844859D01*
X44432704Y-21856671D01*
X44371691Y-21917684D01*
X44371687Y-21917689D01*
X44299217Y-22043210D01*
X44299216Y-22043215D01*
X44261700Y-22183225D01*
X44261700Y-22328175D01*
X44265530Y-22342467D01*
X44299217Y-22468189D01*
X44371687Y-22593710D01*
X44371689Y-22593712D01*
X44371691Y-22593715D01*
X44474185Y-22696209D01*
X44474187Y-22696210D01*
X44474189Y-22696212D01*
X44599711Y-22768682D01*
X44599712Y-22768682D01*
X44599715Y-22768684D01*
X44739725Y-22806200D01*
X44739726Y-22806200D01*
X44884674Y-22806200D01*
X44884675Y-22806200D01*
X45024685Y-22768684D01*
X45024687Y-22768682D01*
X45024689Y-22768682D01*
X45150210Y-22696212D01*
X45150210Y-22696211D01*
X45150215Y-22696209D01*
X45252709Y-22593715D01*
X45325184Y-22468185D01*
X45362700Y-22328175D01*
X45362700Y-22183225D01*
X45325184Y-22043215D01*
X45325182Y-22043212D01*
X45325182Y-22043210D01*
X45252712Y-21917689D01*
X45252708Y-21917684D01*
X45191696Y-21856671D01*
X45163919Y-21802154D01*
X45162700Y-21786668D01*
X45162700Y-14554689D01*
X45181607Y-14496498D01*
X45191696Y-14484685D01*
X46511696Y-13164685D01*
X46566213Y-13136908D01*
X46626645Y-13146479D01*
X46669910Y-13189744D01*
X46680700Y-13234689D01*
X46680700Y-19785447D01*
X46661793Y-19843638D01*
X46631201Y-19871183D01*
X46510987Y-19940589D01*
X46408487Y-20043089D01*
X46336017Y-20168610D01*
X46300201Y-20302278D01*
X46298500Y-20308625D01*
X46298500Y-20453575D01*
X46310594Y-20498709D01*
X46336017Y-20593589D01*
X46408487Y-20719110D01*
X46408489Y-20719112D01*
X46408491Y-20719115D01*
X46510985Y-20821609D01*
X46510987Y-20821610D01*
X46510989Y-20821612D01*
X46636511Y-20894082D01*
X46636512Y-20894082D01*
X46636515Y-20894084D01*
X46776525Y-20931600D01*
X46776526Y-20931600D01*
X46921474Y-20931600D01*
X46921475Y-20931600D01*
X47061485Y-20894084D01*
X47061487Y-20894082D01*
X47061489Y-20894082D01*
X47187010Y-20821612D01*
X47187010Y-20821611D01*
X47187015Y-20821609D01*
X47289509Y-20719115D01*
X47304752Y-20692714D01*
X47361982Y-20593589D01*
X47361982Y-20593587D01*
X47361984Y-20593585D01*
X47399500Y-20453575D01*
X47399500Y-20308625D01*
X47385073Y-20254783D01*
X47381700Y-20229160D01*
X47381700Y-18530431D01*
X47400607Y-18472240D01*
X47450107Y-18436276D01*
X47511293Y-18436276D01*
X47550701Y-18460425D01*
X47606885Y-18516609D01*
X47606887Y-18516610D01*
X47606889Y-18516612D01*
X47732411Y-18589082D01*
X47732412Y-18589082D01*
X47732415Y-18589084D01*
X47872425Y-18626600D01*
X47872426Y-18626600D01*
X48017374Y-18626600D01*
X48017375Y-18626600D01*
X48157385Y-18589084D01*
X48157387Y-18589082D01*
X48157389Y-18589082D01*
X48282910Y-18516612D01*
X48282910Y-18516611D01*
X48282915Y-18516609D01*
X48385409Y-18414115D01*
X48385412Y-18414110D01*
X48457882Y-18288589D01*
X48457882Y-18288587D01*
X48457884Y-18288585D01*
X48495400Y-18148575D01*
X48495400Y-18003625D01*
X48457884Y-17863615D01*
X48457882Y-17863612D01*
X48457882Y-17863610D01*
X48385412Y-17738089D01*
X48385410Y-17738087D01*
X48385409Y-17738085D01*
X48282915Y-17635591D01*
X48282912Y-17635589D01*
X48282910Y-17635587D01*
X48157388Y-17563117D01*
X48157389Y-17563117D01*
X48127796Y-17555187D01*
X48017375Y-17525600D01*
X47872425Y-17525600D01*
X47810690Y-17542141D01*
X47732410Y-17563117D01*
X47606889Y-17635587D01*
X47606888Y-17635588D01*
X47606885Y-17635590D01*
X47606885Y-17635591D01*
X47550701Y-17691774D01*
X47496187Y-17719550D01*
X47435755Y-17709979D01*
X47392490Y-17666714D01*
X47381700Y-17621769D01*
X47381700Y-15528898D01*
X51821176Y-15528898D01*
X52400891Y-15528898D01*
X52377852Y-15568803D01*
X52354000Y-15657820D01*
X52354000Y-15749976D01*
X52377852Y-15838993D01*
X52400891Y-15878898D01*
X51821177Y-15878898D01*
X51838586Y-15966417D01*
X51838586Y-15966419D01*
X51906429Y-16130206D01*
X52004923Y-16277613D01*
X52130284Y-16402974D01*
X52277691Y-16501468D01*
X52441473Y-16569309D01*
X52441484Y-16569312D01*
X52529000Y-16586719D01*
X52529000Y-16007007D01*
X52568905Y-16030046D01*
X52657922Y-16053898D01*
X52750078Y-16053898D01*
X52839095Y-16030046D01*
X52879000Y-16007007D01*
X52879000Y-16586718D01*
X52966515Y-16569312D01*
X52966526Y-16569309D01*
X53130308Y-16501468D01*
X53277715Y-16402974D01*
X53403076Y-16277613D01*
X53501570Y-16130206D01*
X53569413Y-15966419D01*
X53569413Y-15966417D01*
X53586823Y-15878898D01*
X53007109Y-15878898D01*
X53030148Y-15838993D01*
X53054000Y-15749976D01*
X53054000Y-15657820D01*
X53030148Y-15568803D01*
X53007109Y-15528898D01*
X53586823Y-15528898D01*
X53569413Y-15441378D01*
X53569413Y-15441376D01*
X53501570Y-15277589D01*
X53403076Y-15130182D01*
X53277715Y-15004821D01*
X53130308Y-14906327D01*
X52966520Y-14838484D01*
X52879000Y-14821075D01*
X52879000Y-15400789D01*
X52839095Y-15377750D01*
X52750078Y-15353898D01*
X52657922Y-15353898D01*
X52568905Y-15377750D01*
X52529000Y-15400789D01*
X52529000Y-14821075D01*
X52441480Y-14838484D01*
X52441478Y-14838484D01*
X52277691Y-14906327D01*
X52130284Y-15004821D01*
X52004923Y-15130182D01*
X51906429Y-15277589D01*
X51838586Y-15441376D01*
X51838586Y-15441378D01*
X51821176Y-15528898D01*
X47381700Y-15528898D01*
X47381700Y-13737525D01*
X48533000Y-13737525D01*
X48533000Y-13882475D01*
X48547926Y-13938178D01*
X48570517Y-14022489D01*
X48642987Y-14148010D01*
X48642989Y-14148012D01*
X48642991Y-14148015D01*
X48745485Y-14250509D01*
X48745487Y-14250510D01*
X48745489Y-14250512D01*
X48871011Y-14322982D01*
X48871012Y-14322982D01*
X48871015Y-14322984D01*
X49011025Y-14360500D01*
X49011026Y-14360500D01*
X49155974Y-14360500D01*
X49155975Y-14360500D01*
X49295985Y-14322984D01*
X49295987Y-14322982D01*
X49295989Y-14322982D01*
X49421510Y-14250512D01*
X49421510Y-14250511D01*
X49421515Y-14250509D01*
X49524009Y-14148015D01*
X49555079Y-14094200D01*
X49596482Y-14022489D01*
X49596482Y-14022487D01*
X49596484Y-14022485D01*
X49634000Y-13882475D01*
X49634000Y-13737525D01*
X49596484Y-13597515D01*
X49596482Y-13597512D01*
X49596482Y-13597510D01*
X49524012Y-13471989D01*
X49524010Y-13471987D01*
X49524009Y-13471985D01*
X49421515Y-13369491D01*
X49421512Y-13369489D01*
X49421510Y-13369487D01*
X49295988Y-13297017D01*
X49295989Y-13297017D01*
X49266396Y-13289087D01*
X49155975Y-13259500D01*
X49011025Y-13259500D01*
X48949290Y-13276041D01*
X48871010Y-13297017D01*
X48745489Y-13369487D01*
X48642987Y-13471989D01*
X48570517Y-13597510D01*
X48561810Y-13630004D01*
X48533000Y-13737525D01*
X47381700Y-13737525D01*
X47381700Y-11871657D01*
X47379037Y-11861719D01*
X47357814Y-11782512D01*
X47342457Y-11755913D01*
X47341724Y-11754644D01*
X47319188Y-11715610D01*
X47311670Y-11702588D01*
X46880312Y-11271230D01*
X46800388Y-11225086D01*
X46711244Y-11201200D01*
X45031356Y-11201200D01*
X44955756Y-11221457D01*
X44942212Y-11225086D01*
X44862288Y-11271230D01*
X43733303Y-12400214D01*
X43678786Y-12427991D01*
X43676227Y-12428362D01*
X43674431Y-12428598D01*
X43534410Y-12466117D01*
X43408889Y-12538587D01*
X43306387Y-12641089D01*
X43233917Y-12766610D01*
X43196399Y-12906627D01*
X43195553Y-12913058D01*
X43193764Y-12912822D01*
X43177493Y-12962901D01*
X43167404Y-12974714D01*
X41763404Y-14378714D01*
X41708887Y-14406491D01*
X41648455Y-14396920D01*
X41605190Y-14353655D01*
X41594400Y-14308710D01*
X41594400Y-12844094D01*
X41613307Y-12785903D01*
X41662807Y-12749939D01*
X41723993Y-12749939D01*
X41742897Y-12758356D01*
X41837515Y-12812984D01*
X41977525Y-12850500D01*
X41977526Y-12850500D01*
X42122474Y-12850500D01*
X42122475Y-12850500D01*
X42262485Y-12812984D01*
X42262487Y-12812982D01*
X42262489Y-12812982D01*
X42388010Y-12740512D01*
X42388010Y-12740511D01*
X42388015Y-12740509D01*
X42490509Y-12638015D01*
X42496587Y-12627488D01*
X42562982Y-12512489D01*
X42562982Y-12512487D01*
X42562984Y-12512485D01*
X42600500Y-12372475D01*
X42600500Y-12227525D01*
X42562984Y-12087515D01*
X42562982Y-12087512D01*
X42562982Y-12087510D01*
X42490512Y-11961989D01*
X42490510Y-11961987D01*
X42490509Y-11961985D01*
X42388015Y-11859491D01*
X42388012Y-11859489D01*
X42388010Y-11859487D01*
X42262488Y-11787017D01*
X42262489Y-11787017D01*
X42149039Y-11756618D01*
X42122475Y-11749500D01*
X41977525Y-11749500D01*
X41958326Y-11754644D01*
X41897224Y-11751441D01*
X41849675Y-11712935D01*
X41833840Y-11653835D01*
X41855767Y-11596713D01*
X41862690Y-11589023D01*
X44300500Y-9151214D01*
X44300503Y-9151209D01*
X44366390Y-9037090D01*
X44366390Y-9037088D01*
X44366392Y-9037086D01*
X44400500Y-8909792D01*
X44400500Y-8778007D01*
X44400500Y-6360634D01*
X44411666Y-6318963D01*
X44410500Y-6318480D01*
X44412977Y-6312496D01*
X44412984Y-6312485D01*
X44450500Y-6172475D01*
X44450500Y-6027525D01*
X44412984Y-5887515D01*
X44412982Y-5887512D01*
X44412982Y-5887510D01*
X44340512Y-5761989D01*
X44340510Y-5761987D01*
X44340509Y-5761985D01*
X44238015Y-5659491D01*
X44238012Y-5659489D01*
X44238010Y-5659487D01*
X44112488Y-5587017D01*
X44112489Y-5587017D01*
X44082896Y-5579087D01*
X43972475Y-5549500D01*
X43827525Y-5549500D01*
X43765790Y-5566041D01*
X43687510Y-5587017D01*
X43561989Y-5659487D01*
X43459487Y-5761989D01*
X43387017Y-5887510D01*
X43367023Y-5962130D01*
X43349500Y-6027525D01*
X43349500Y-6172475D01*
X43387016Y-6312485D01*
X43387018Y-6312489D01*
X43389500Y-6318480D01*
X43388333Y-6318963D01*
X43399500Y-6360634D01*
X43399500Y-8595578D01*
X43380593Y-8653769D01*
X43370504Y-8665582D01*
X40786586Y-11249500D01*
X40786585Y-11249499D01*
X40693400Y-11342685D01*
X40693396Y-11342690D01*
X40627509Y-11456809D01*
X40593400Y-11584109D01*
X40593400Y-15464364D01*
X40587732Y-15497380D01*
X40584690Y-15505976D01*
X40580916Y-15512515D01*
X40576349Y-15529556D01*
X40575055Y-15533216D01*
X40558682Y-15554568D01*
X40544024Y-15577139D01*
X40540270Y-15578579D01*
X40537824Y-15581770D01*
X40512025Y-15589421D01*
X40486903Y-15599064D01*
X40481723Y-15599200D01*
X40382825Y-15599200D01*
X40242815Y-15636716D01*
X40242814Y-15636716D01*
X40242812Y-15636717D01*
X40206262Y-15657820D01*
X40148382Y-15691236D01*
X40098884Y-15704500D01*
X18382056Y-15704500D01*
X18327497Y-15719118D01*
X18292907Y-15728387D01*
X18212991Y-15774527D01*
X18212990Y-15774528D01*
X18212987Y-15774530D01*
X18212987Y-15774531D01*
X18203612Y-15783905D01*
X18149098Y-15811681D01*
X18133611Y-15812900D01*
X18047325Y-15812900D01*
X17985590Y-15829441D01*
X17907310Y-15850417D01*
X17781789Y-15922887D01*
X17679287Y-16025389D01*
X17606817Y-16150910D01*
X17597142Y-16187017D01*
X17569300Y-16290925D01*
X17569300Y-16435875D01*
X17583136Y-16487510D01*
X17606817Y-16575889D01*
X17679287Y-16701410D01*
X17679289Y-16701412D01*
X17679291Y-16701415D01*
X17781785Y-16803909D01*
X17781787Y-16803910D01*
X17781789Y-16803912D01*
X17907311Y-16876382D01*
X17907312Y-16876382D01*
X17907315Y-16876384D01*
X18047325Y-16913900D01*
X18047326Y-16913900D01*
X18192274Y-16913900D01*
X18192275Y-16913900D01*
X18332285Y-16876384D01*
X18332287Y-16876382D01*
X18332289Y-16876382D01*
X18457810Y-16803912D01*
X18457810Y-16803911D01*
X18457815Y-16803909D01*
X18560309Y-16701415D01*
X18629231Y-16582039D01*
X18632782Y-16575889D01*
X18632782Y-16575887D01*
X18632784Y-16575885D01*
X18658777Y-16478875D01*
X18692101Y-16427562D01*
X18749223Y-16405636D01*
X18754404Y-16405500D01*
X36195610Y-16405500D01*
X36253801Y-16424407D01*
X36289765Y-16473907D01*
X36289765Y-16535093D01*
X36265614Y-16574504D01*
X35319614Y-17520504D01*
X35265097Y-17548281D01*
X35249610Y-17549500D01*
X17069032Y-17549500D01*
X17010841Y-17530593D01*
X16999029Y-17520504D01*
X16938015Y-17459491D01*
X16938010Y-17459487D01*
X16812488Y-17387017D01*
X16812489Y-17387017D01*
X16782896Y-17379087D01*
X16672475Y-17349500D01*
X16527525Y-17349500D01*
X16465790Y-17366041D01*
X16387510Y-17387017D01*
X16261986Y-17459489D01*
X16259765Y-17461194D01*
X16257874Y-17461863D01*
X16256365Y-17462735D01*
X16256203Y-17462455D01*
X16202088Y-17481616D01*
X16143423Y-17464237D01*
X16106177Y-17415694D01*
X16100500Y-17382650D01*
X16100500Y-17169031D01*
X16119407Y-17110840D01*
X16129490Y-17099033D01*
X16190509Y-17038015D01*
X16262984Y-16912485D01*
X16300500Y-16772475D01*
X16300500Y-16627525D01*
X16262984Y-16487515D01*
X16262982Y-16487512D01*
X16262982Y-16487510D01*
X16190512Y-16361989D01*
X16190510Y-16361987D01*
X16190509Y-16361985D01*
X16088015Y-16259491D01*
X16088012Y-16259489D01*
X16088010Y-16259487D01*
X15962488Y-16187017D01*
X15962489Y-16187017D01*
X15932896Y-16179087D01*
X15822475Y-16149500D01*
X15677525Y-16149500D01*
X15675900Y-16149500D01*
X15617709Y-16130593D01*
X15581745Y-16081093D01*
X15581745Y-16019907D01*
X15605896Y-15980496D01*
X16097399Y-15488993D01*
X17260737Y-14325655D01*
X17315253Y-14297879D01*
X17375685Y-14307450D01*
X17418950Y-14350715D01*
X17422203Y-14357773D01*
X17422414Y-14358284D01*
X17494887Y-14483810D01*
X17494889Y-14483812D01*
X17494891Y-14483815D01*
X17597385Y-14586309D01*
X17597387Y-14586310D01*
X17597389Y-14586312D01*
X17722911Y-14658782D01*
X17722912Y-14658782D01*
X17722915Y-14658784D01*
X17862925Y-14696300D01*
X17949210Y-14696300D01*
X18007401Y-14715207D01*
X18019213Y-14725296D01*
X18179999Y-14886081D01*
X18339388Y-15045470D01*
X18419312Y-15091614D01*
X18508456Y-15115500D01*
X22934710Y-15115500D01*
X22992901Y-15134407D01*
X23004713Y-15144496D01*
X23137807Y-15277589D01*
X23200888Y-15340670D01*
X23280812Y-15386814D01*
X23369956Y-15410700D01*
X23369958Y-15410700D01*
X30372642Y-15410700D01*
X30372644Y-15410700D01*
X30461788Y-15386814D01*
X30541712Y-15340670D01*
X33792886Y-12089496D01*
X33847403Y-12061719D01*
X33862890Y-12060500D01*
X33949174Y-12060500D01*
X33949175Y-12060500D01*
X34089185Y-12022984D01*
X34089187Y-12022982D01*
X34089189Y-12022982D01*
X34214710Y-11950512D01*
X34214710Y-11950511D01*
X34214715Y-11950509D01*
X34257609Y-11907615D01*
X34275729Y-11889496D01*
X34330246Y-11861719D01*
X34345732Y-11860500D01*
X38141442Y-11860500D01*
X38141444Y-11860500D01*
X38230588Y-11836614D01*
X38241212Y-11830480D01*
X38310512Y-11790470D01*
X42438786Y-7662196D01*
X42493303Y-7634419D01*
X42508790Y-7633200D01*
X42595074Y-7633200D01*
X42595075Y-7633200D01*
X42735085Y-7595684D01*
X42735087Y-7595682D01*
X42735089Y-7595682D01*
X42860610Y-7523212D01*
X42860610Y-7523211D01*
X42860615Y-7523209D01*
X42963109Y-7420715D01*
X43016284Y-7328614D01*
X43035582Y-7295189D01*
X43035582Y-7295187D01*
X43035584Y-7295185D01*
X43073100Y-7155175D01*
X43073100Y-7010225D01*
X43035584Y-6870215D01*
X43035582Y-6870212D01*
X43035582Y-6870210D01*
X42963112Y-6744689D01*
X42963110Y-6744687D01*
X42963109Y-6744685D01*
X42860615Y-6642191D01*
X42860612Y-6642189D01*
X42860610Y-6642187D01*
X42735088Y-6569717D01*
X42735089Y-6569717D01*
X42626084Y-6540509D01*
X42595075Y-6532200D01*
X42450125Y-6532200D01*
X42419116Y-6540509D01*
X42310110Y-6569717D01*
X42184589Y-6642187D01*
X42082087Y-6744689D01*
X42009617Y-6870210D01*
X41972100Y-7010225D01*
X41972100Y-7096510D01*
X41953193Y-7154701D01*
X41943104Y-7166514D01*
X37979114Y-11130504D01*
X37924597Y-11158281D01*
X37909110Y-11159500D01*
X34345732Y-11159500D01*
X34287541Y-11140593D01*
X34275729Y-11130504D01*
X34214715Y-11069491D01*
X34214710Y-11069487D01*
X34089188Y-10997017D01*
X34089189Y-10997017D01*
X34059596Y-10989087D01*
X33949175Y-10959500D01*
X33844390Y-10959500D01*
X33786199Y-10940593D01*
X33750235Y-10891093D01*
X33750235Y-10829907D01*
X33774386Y-10790496D01*
X36472286Y-8092596D01*
X36526803Y-8064819D01*
X36542290Y-8063600D01*
X39641942Y-8063600D01*
X39641944Y-8063600D01*
X39731088Y-8039714D01*
X39738599Y-8035377D01*
X39738604Y-8035376D01*
X39738604Y-8035375D01*
X39758005Y-8024173D01*
X39811012Y-7993570D01*
X42877056Y-4927525D01*
X44439500Y-4927525D01*
X44439500Y-5072475D01*
X44440898Y-5077692D01*
X44477017Y-5212489D01*
X44549487Y-5338010D01*
X44549489Y-5338012D01*
X44549491Y-5338015D01*
X44651985Y-5440509D01*
X44651987Y-5440510D01*
X44651989Y-5440512D01*
X44777511Y-5512982D01*
X44777512Y-5512982D01*
X44777515Y-5512984D01*
X44777517Y-5512984D01*
X44783505Y-5515465D01*
X44783022Y-5516629D01*
X44820388Y-5538202D01*
X47577200Y-8295014D01*
X47577199Y-8295014D01*
X47670385Y-8388199D01*
X47670390Y-8388203D01*
X47784510Y-8454090D01*
X47784508Y-8454090D01*
X47784512Y-8454091D01*
X47784514Y-8454092D01*
X47911808Y-8488200D01*
X51644249Y-8488200D01*
X51702440Y-8507107D01*
X51738404Y-8556607D01*
X51741347Y-8606514D01*
X51712079Y-8753651D01*
X51712079Y-8921190D01*
X51721269Y-8967391D01*
X51741657Y-9069889D01*
X51744763Y-9085501D01*
X51744763Y-9085503D01*
X51808872Y-9240279D01*
X51808878Y-9240290D01*
X51852317Y-9305300D01*
X51901952Y-9379583D01*
X52020417Y-9498048D01*
X52092929Y-9546499D01*
X52159709Y-9591121D01*
X52159720Y-9591127D01*
X52203112Y-9609100D01*
X52314498Y-9655237D01*
X52411853Y-9674602D01*
X52465237Y-9704499D01*
X52490853Y-9760064D01*
X52478916Y-9820074D01*
X52433986Y-9861606D01*
X52392539Y-9870700D01*
X45680232Y-9870700D01*
X45622041Y-9851793D01*
X45610229Y-9841704D01*
X45549315Y-9780791D01*
X45549310Y-9780787D01*
X45423788Y-9708317D01*
X45423789Y-9708317D01*
X45361427Y-9691607D01*
X45283775Y-9670800D01*
X45138825Y-9670800D01*
X45077090Y-9687341D01*
X44998810Y-9708317D01*
X44873289Y-9780787D01*
X44770787Y-9883289D01*
X44698317Y-10008810D01*
X44660800Y-10148825D01*
X44660800Y-10293774D01*
X44698317Y-10433789D01*
X44770787Y-10559310D01*
X44770789Y-10559312D01*
X44770791Y-10559315D01*
X44873285Y-10661809D01*
X44873287Y-10661810D01*
X44873289Y-10661812D01*
X44998811Y-10734282D01*
X44998812Y-10734282D01*
X44998815Y-10734284D01*
X45138825Y-10771800D01*
X45138826Y-10771800D01*
X45283774Y-10771800D01*
X45283775Y-10771800D01*
X45423785Y-10734284D01*
X45423787Y-10734282D01*
X45423789Y-10734282D01*
X45549310Y-10661812D01*
X45549310Y-10661811D01*
X45549315Y-10661809D01*
X45579872Y-10631252D01*
X45610429Y-10600696D01*
X45664946Y-10572919D01*
X45680432Y-10571700D01*
X54817042Y-10571700D01*
X54817044Y-10571700D01*
X54906188Y-10547814D01*
X54916636Y-10541781D01*
X54916638Y-10541781D01*
X54946418Y-10524587D01*
X54986112Y-10501670D01*
X55949244Y-9538536D01*
X56003759Y-9510761D01*
X56043129Y-9513472D01*
X56043250Y-9512867D01*
X56047968Y-9513805D01*
X56047990Y-9513807D01*
X56048017Y-9513815D01*
X56048018Y-9513815D01*
X56048020Y-9513816D01*
X56212335Y-9546500D01*
X56212336Y-9546500D01*
X56379868Y-9546500D01*
X56379869Y-9546500D01*
X56544184Y-9513816D01*
X56690814Y-9453078D01*
X56751811Y-9448278D01*
X56803980Y-9480247D01*
X56827395Y-9536775D01*
X56827700Y-9544543D01*
X56827700Y-14423478D01*
X56808793Y-14481669D01*
X56798703Y-14493482D01*
X56466429Y-14825755D01*
X56411913Y-14853532D01*
X56384799Y-14853002D01*
X56384714Y-14853875D01*
X56379869Y-14853398D01*
X56212335Y-14853398D01*
X56212332Y-14853398D01*
X56048022Y-14886081D01*
X56048016Y-14886083D01*
X55893239Y-14950194D01*
X55753940Y-15043272D01*
X55753936Y-15043275D01*
X55635479Y-15161732D01*
X55635476Y-15161736D01*
X55542398Y-15301035D01*
X55478287Y-15455812D01*
X55478285Y-15455818D01*
X55445602Y-15620128D01*
X55445602Y-15787664D01*
X55446079Y-15792510D01*
X55444132Y-15792701D01*
X55437857Y-15845677D01*
X55417959Y-15874225D01*
X53015748Y-18276436D01*
X52961231Y-18304213D01*
X52934119Y-18303682D01*
X52934033Y-18304556D01*
X52929188Y-18304079D01*
X52761654Y-18304079D01*
X52761651Y-18304079D01*
X52597340Y-18336763D01*
X52597338Y-18336763D01*
X52442562Y-18400872D01*
X52442551Y-18400878D01*
X52303259Y-18493952D01*
X52303255Y-18493955D01*
X51901955Y-18895255D01*
X51901952Y-18895259D01*
X51808878Y-19034551D01*
X51808872Y-19034562D01*
X51744763Y-19189338D01*
X51744763Y-19189340D01*
X51712079Y-19353651D01*
X51712079Y-19521187D01*
X51712556Y-19526033D01*
X51710609Y-19526224D01*
X51704334Y-19579200D01*
X51684436Y-19607748D01*
X47202982Y-24089204D01*
X47148465Y-24116981D01*
X47132978Y-24118200D01*
X45869335Y-24118200D01*
X45827661Y-24107034D01*
X45827179Y-24108199D01*
X45821186Y-24105716D01*
X45751180Y-24086958D01*
X45681175Y-24068200D01*
X45536225Y-24068200D01*
X45474490Y-24084741D01*
X45396210Y-24105717D01*
X45270689Y-24178187D01*
X45168187Y-24280689D01*
X45095717Y-24406210D01*
X45093331Y-24415115D01*
X45058200Y-24546225D01*
X45058200Y-24691175D01*
X45076776Y-24760500D01*
X45095717Y-24831189D01*
X45168187Y-24956710D01*
X45168189Y-24956712D01*
X45168191Y-24956715D01*
X45270685Y-25059209D01*
X45270687Y-25059210D01*
X45270689Y-25059212D01*
X45396211Y-25131682D01*
X45396212Y-25131682D01*
X45396215Y-25131684D01*
X45536225Y-25169200D01*
X45536226Y-25169200D01*
X45681174Y-25169200D01*
X45681175Y-25169200D01*
X45821185Y-25131684D01*
X45821188Y-25131681D01*
X45827179Y-25129201D01*
X45827661Y-25130365D01*
X45869335Y-25119200D01*
X47447190Y-25119200D01*
X47447192Y-25119200D01*
X47574486Y-25085092D01*
X47574488Y-25085090D01*
X47574490Y-25085090D01*
X47688609Y-25019203D01*
X47688609Y-25019202D01*
X47688614Y-25019200D01*
X52392252Y-20315560D01*
X52446767Y-20287785D01*
X52473889Y-20288321D01*
X52473976Y-20287444D01*
X52478807Y-20287920D01*
X52478812Y-20287921D01*
X52478817Y-20287921D01*
X52646345Y-20287921D01*
X52646346Y-20287921D01*
X52810660Y-20255237D01*
X52965442Y-20191125D01*
X53104741Y-20098048D01*
X53506048Y-19696741D01*
X53599125Y-19557442D01*
X53663237Y-19402660D01*
X53695921Y-19238346D01*
X53695921Y-19212230D01*
X55445602Y-19212230D01*
X55445602Y-19379769D01*
X55478285Y-19544079D01*
X55478287Y-19544085D01*
X55542398Y-19698862D01*
X55556631Y-19720163D01*
X55635476Y-19838162D01*
X55753940Y-19956626D01*
X55893239Y-20049703D01*
X56048020Y-20113816D01*
X56212335Y-20146500D01*
X56212336Y-20146500D01*
X56379868Y-20146500D01*
X56379869Y-20146500D01*
X56544184Y-20113816D01*
X56698965Y-20049703D01*
X56838264Y-19956626D01*
X56956728Y-19838162D01*
X57049805Y-19698863D01*
X57113918Y-19544082D01*
X57146602Y-19379767D01*
X57146602Y-19212233D01*
X57113918Y-19047918D01*
X57049805Y-18893137D01*
X56956728Y-18753838D01*
X56838264Y-18635374D01*
X56745186Y-18573181D01*
X56698964Y-18542296D01*
X56544187Y-18478185D01*
X56544181Y-18478183D01*
X56379871Y-18445500D01*
X56379869Y-18445500D01*
X56212335Y-18445500D01*
X56212332Y-18445500D01*
X56048022Y-18478183D01*
X56048016Y-18478185D01*
X55893239Y-18542296D01*
X55753940Y-18635374D01*
X55753936Y-18635377D01*
X55635479Y-18753834D01*
X55635476Y-18753838D01*
X55542398Y-18893137D01*
X55478287Y-19047914D01*
X55478285Y-19047920D01*
X55445602Y-19212230D01*
X53695921Y-19212230D01*
X53695921Y-19070812D01*
X53694652Y-19064434D01*
X53694570Y-19055130D01*
X53701100Y-19034409D01*
X53703648Y-19012832D01*
X53711413Y-19001685D01*
X53712962Y-18996774D01*
X53716831Y-18993909D01*
X53723559Y-18984253D01*
X56125775Y-16582037D01*
X56180290Y-16554262D01*
X56207412Y-16554798D01*
X56207499Y-16553921D01*
X56212330Y-16554397D01*
X56212335Y-16554398D01*
X56212340Y-16554398D01*
X56379868Y-16554398D01*
X56379869Y-16554398D01*
X56544184Y-16521714D01*
X56698965Y-16457601D01*
X56838264Y-16364524D01*
X56956728Y-16246060D01*
X57049805Y-16106761D01*
X57113918Y-15951980D01*
X57146602Y-15787665D01*
X57146602Y-15620131D01*
X57146601Y-15620127D01*
X57146125Y-15615295D01*
X57148077Y-15615102D01*
X57154329Y-15562151D01*
X57174240Y-15533572D01*
X57728700Y-14979114D01*
X57730038Y-14976797D01*
X57794590Y-14864990D01*
X57794590Y-14864988D01*
X57794592Y-14864986D01*
X57828700Y-14737692D01*
X57828700Y-14605907D01*
X57828700Y-6070108D01*
X57794592Y-5942814D01*
X57794590Y-5942811D01*
X57794590Y-5942809D01*
X57728703Y-5828690D01*
X57728699Y-5828685D01*
X57635514Y-5735499D01*
X57635514Y-5735500D01*
X57174243Y-5274229D01*
X57146466Y-5219712D01*
X57147004Y-5192595D01*
X57146125Y-5192509D01*
X57146602Y-5187663D01*
X57146602Y-5020132D01*
X57146601Y-5020128D01*
X57128454Y-4928898D01*
X57113918Y-4855816D01*
X57049805Y-4701035D01*
X56956728Y-4561736D01*
X56838264Y-4443272D01*
X56698965Y-4350195D01*
X56698966Y-4350195D01*
X56698964Y-4350194D01*
X56544187Y-4286083D01*
X56544181Y-4286081D01*
X56379871Y-4253398D01*
X56379869Y-4253398D01*
X56212335Y-4253398D01*
X56212332Y-4253398D01*
X56048022Y-4286081D01*
X56048016Y-4286083D01*
X55893239Y-4350194D01*
X55753940Y-4443272D01*
X55753936Y-4443275D01*
X55635479Y-4561732D01*
X55635476Y-4561736D01*
X55542398Y-4701035D01*
X55478287Y-4855812D01*
X55478285Y-4855818D01*
X55445602Y-5020128D01*
X55445602Y-5187664D01*
X55446079Y-5192510D01*
X55444132Y-5192701D01*
X55437857Y-5245677D01*
X55417959Y-5274225D01*
X53015748Y-7676436D01*
X52961231Y-7704213D01*
X52934119Y-7703682D01*
X52934033Y-7704556D01*
X52929188Y-7704079D01*
X52761654Y-7704079D01*
X52761651Y-7704079D01*
X52597338Y-7736763D01*
X52597334Y-7736764D01*
X52556088Y-7753848D01*
X52495091Y-7758647D01*
X52448202Y-7732387D01*
X52303014Y-7587200D01*
X52303009Y-7587196D01*
X52188889Y-7521309D01*
X52188891Y-7521309D01*
X52138033Y-7507682D01*
X52061592Y-7487200D01*
X52061590Y-7487200D01*
X48226022Y-7487200D01*
X48167831Y-7468293D01*
X48156018Y-7458204D01*
X45626712Y-4928898D01*
X51821176Y-4928898D01*
X52400891Y-4928898D01*
X52377852Y-4968803D01*
X52354000Y-5057820D01*
X52354000Y-5149976D01*
X52377852Y-5238993D01*
X52400891Y-5278898D01*
X51821177Y-5278898D01*
X51838586Y-5366417D01*
X51838586Y-5366419D01*
X51906429Y-5530206D01*
X52004923Y-5677613D01*
X52130284Y-5802974D01*
X52277691Y-5901468D01*
X52441473Y-5969309D01*
X52441484Y-5969312D01*
X52529000Y-5986719D01*
X52529000Y-5407007D01*
X52568905Y-5430046D01*
X52657922Y-5453898D01*
X52750078Y-5453898D01*
X52839095Y-5430046D01*
X52879000Y-5407007D01*
X52879000Y-5986718D01*
X52966515Y-5969312D01*
X52966526Y-5969309D01*
X53130308Y-5901468D01*
X53277715Y-5802974D01*
X53403076Y-5677613D01*
X53501570Y-5530206D01*
X53569413Y-5366419D01*
X53569413Y-5366417D01*
X53586823Y-5278898D01*
X53007109Y-5278898D01*
X53030148Y-5238993D01*
X53054000Y-5149976D01*
X53054000Y-5057820D01*
X53030148Y-4968803D01*
X53007109Y-4928898D01*
X53586823Y-4928898D01*
X53569413Y-4841378D01*
X53569413Y-4841376D01*
X53501570Y-4677589D01*
X53403076Y-4530182D01*
X53277715Y-4404821D01*
X53130308Y-4306327D01*
X52966520Y-4238484D01*
X52879000Y-4221075D01*
X52879000Y-4800789D01*
X52839095Y-4777750D01*
X52750078Y-4753898D01*
X52657922Y-4753898D01*
X52568905Y-4777750D01*
X52529000Y-4800789D01*
X52529000Y-4221075D01*
X52441480Y-4238484D01*
X52441478Y-4238484D01*
X52277691Y-4306327D01*
X52130284Y-4404821D01*
X52004923Y-4530182D01*
X51906429Y-4677589D01*
X51838586Y-4841376D01*
X51838586Y-4841378D01*
X51821176Y-4928898D01*
X45626712Y-4928898D01*
X45528202Y-4830388D01*
X45506629Y-4793022D01*
X45505465Y-4793505D01*
X45502982Y-4787511D01*
X45430512Y-4661989D01*
X45430510Y-4661987D01*
X45430509Y-4661985D01*
X45328015Y-4559491D01*
X45328012Y-4559489D01*
X45328010Y-4559487D01*
X45202488Y-4487017D01*
X45202489Y-4487017D01*
X45172896Y-4479087D01*
X45062475Y-4449500D01*
X44917525Y-4449500D01*
X44855790Y-4466041D01*
X44777510Y-4487017D01*
X44651989Y-4559487D01*
X44549487Y-4661989D01*
X44477017Y-4787510D01*
X44458714Y-4855818D01*
X44439500Y-4927525D01*
X42877056Y-4927525D01*
X46032585Y-1771995D01*
X46087102Y-1744219D01*
X46102589Y-1743000D01*
X47628468Y-1743000D01*
X47686659Y-1761907D01*
X47698471Y-1771996D01*
X47759484Y-1833008D01*
X47759489Y-1833012D01*
X47885011Y-1905482D01*
X47885012Y-1905482D01*
X47885015Y-1905484D01*
X48025025Y-1943000D01*
X48025026Y-1943000D01*
X48169974Y-1943000D01*
X48169975Y-1943000D01*
X48309985Y-1905484D01*
X48309987Y-1905482D01*
X48309989Y-1905482D01*
X48435510Y-1833012D01*
X48435510Y-1833011D01*
X48435515Y-1833009D01*
X48538009Y-1730515D01*
X48560988Y-1690715D01*
X48610482Y-1604989D01*
X48610482Y-1604987D01*
X48610484Y-1604985D01*
X48648000Y-1464975D01*
X48648000Y-1320025D01*
X48610484Y-1180015D01*
X48610482Y-1180012D01*
X48610482Y-1180010D01*
X48538012Y-1054489D01*
X48538010Y-1054487D01*
X48538009Y-1054485D01*
X48435515Y-951991D01*
X48435512Y-951989D01*
X48435510Y-951987D01*
X48309988Y-879517D01*
X48309989Y-879517D01*
X48280396Y-871587D01*
X48169975Y-842000D01*
X48025025Y-842000D01*
X47963290Y-858541D01*
X47885010Y-879517D01*
X47759489Y-951987D01*
X47759484Y-951991D01*
X47698471Y-1013004D01*
X47643954Y-1040781D01*
X47628468Y-1042000D01*
X45870256Y-1042000D01*
X45781112Y-1065886D01*
X45781111Y-1065886D01*
X45781109Y-1065887D01*
X45701190Y-1112029D01*
X39479614Y-7333604D01*
X39425097Y-7361381D01*
X39409610Y-7362600D01*
X36764790Y-7362600D01*
X36706599Y-7343693D01*
X36670635Y-7294193D01*
X36670635Y-7233007D01*
X36694786Y-7193596D01*
X41956186Y-1932196D01*
X42010703Y-1904419D01*
X42026190Y-1903200D01*
X42112474Y-1903200D01*
X42112475Y-1903200D01*
X42252485Y-1865684D01*
X42252487Y-1865682D01*
X42252489Y-1865682D01*
X42378010Y-1793212D01*
X42378010Y-1793211D01*
X42378015Y-1793209D01*
X42480509Y-1690715D01*
X42530003Y-1604989D01*
X42552982Y-1565189D01*
X42552982Y-1565187D01*
X42552984Y-1565185D01*
X42590500Y-1425175D01*
X42590500Y-1280225D01*
X42552984Y-1140215D01*
X42552982Y-1140212D01*
X42552982Y-1140210D01*
X42480512Y-1014689D01*
X42480510Y-1014687D01*
X42480509Y-1014685D01*
X42378015Y-912191D01*
X42378012Y-912189D01*
X42378010Y-912187D01*
X42252488Y-839717D01*
X42252489Y-839717D01*
X42222896Y-831787D01*
X42112475Y-802200D01*
X41967525Y-802200D01*
X41905790Y-818741D01*
X41827510Y-839717D01*
X41701989Y-912187D01*
X41599487Y-1014689D01*
X41527017Y-1140210D01*
X41489500Y-1280225D01*
X41489500Y-1366509D01*
X41470593Y-1424700D01*
X41460504Y-1436513D01*
X36975310Y-5921706D01*
X36920793Y-5949483D01*
X36860361Y-5939912D01*
X36817096Y-5896647D01*
X36813838Y-5889579D01*
X36812985Y-5887520D01*
X36812984Y-5887515D01*
X36812980Y-5887509D01*
X36812979Y-5887505D01*
X36740512Y-5761989D01*
X36740510Y-5761987D01*
X36740509Y-5761985D01*
X36638015Y-5659491D01*
X36638012Y-5659489D01*
X36638010Y-5659487D01*
X36512488Y-5587017D01*
X36512489Y-5587017D01*
X36482896Y-5579087D01*
X36372475Y-5549500D01*
X36227525Y-5549500D01*
X36165790Y-5566041D01*
X36087510Y-5587017D01*
X35961989Y-5659487D01*
X35859487Y-5761989D01*
X35787017Y-5887510D01*
X35767023Y-5962130D01*
X35749500Y-6027525D01*
X35749500Y-6172475D01*
X35765101Y-6230699D01*
X35787017Y-6312489D01*
X35859487Y-6438010D01*
X35859489Y-6438012D01*
X35859491Y-6438015D01*
X35961985Y-6540509D01*
X35961987Y-6540510D01*
X35961989Y-6540512D01*
X36087509Y-6612981D01*
X36087511Y-6612982D01*
X36087515Y-6612984D01*
X36087518Y-6612984D01*
X36089589Y-6613843D01*
X36090814Y-6614890D01*
X36093134Y-6616229D01*
X36092885Y-6616658D01*
X36136114Y-6653581D01*
X36150397Y-6713076D01*
X36126981Y-6769603D01*
X36121706Y-6775311D01*
X28919714Y-13977304D01*
X28865197Y-14005081D01*
X28849710Y-14006300D01*
X26212501Y-14006300D01*
X26154310Y-13987393D01*
X26118346Y-13937893D01*
X26113575Y-13903467D01*
X26114004Y-13892386D01*
X26118000Y-13877475D01*
X26118000Y-13789265D01*
X26118074Y-13787356D01*
X26128017Y-13760358D01*
X26136907Y-13732998D01*
X26138994Y-13730554D01*
X26139220Y-13729941D01*
X26139914Y-13729476D01*
X26146990Y-13721191D01*
X27815870Y-12052312D01*
X27862014Y-11972388D01*
X27863854Y-11965517D01*
X27863857Y-11965513D01*
X27863856Y-11965513D01*
X27885900Y-11883244D01*
X27885900Y-11095074D01*
X27904807Y-11036883D01*
X27954307Y-11000919D01*
X28015493Y-11000919D01*
X28034398Y-11009336D01*
X28040715Y-11012984D01*
X28180725Y-11050500D01*
X28180726Y-11050500D01*
X28325674Y-11050500D01*
X28325675Y-11050500D01*
X28465685Y-11012984D01*
X28465687Y-11012982D01*
X28465689Y-11012982D01*
X28591210Y-10940512D01*
X28591210Y-10940511D01*
X28591215Y-10940509D01*
X28693709Y-10838015D01*
X28721144Y-10790496D01*
X28766182Y-10712489D01*
X28766182Y-10712487D01*
X28766184Y-10712485D01*
X28803700Y-10572475D01*
X28803700Y-10427525D01*
X28766184Y-10287515D01*
X28766182Y-10287512D01*
X28766182Y-10287510D01*
X28766181Y-10287508D01*
X28693712Y-10161989D01*
X28693710Y-10161987D01*
X28693709Y-10161985D01*
X28591215Y-10059491D01*
X28591212Y-10059489D01*
X28591210Y-10059487D01*
X28465688Y-9987017D01*
X28465689Y-9987017D01*
X28433888Y-9978496D01*
X28325675Y-9949500D01*
X28180725Y-9949500D01*
X28072512Y-9978496D01*
X28040711Y-9987017D01*
X28034399Y-9990662D01*
X27974551Y-10003383D01*
X27918656Y-9978496D01*
X27888063Y-9925508D01*
X27885900Y-9904925D01*
X27885900Y-6277631D01*
X27904807Y-6219440D01*
X27914890Y-6207633D01*
X27975909Y-6146615D01*
X28020080Y-6070109D01*
X28048382Y-6021089D01*
X28048382Y-6021087D01*
X28048384Y-6021085D01*
X28085900Y-5881075D01*
X28085900Y-5736125D01*
X28048384Y-5596115D01*
X28048382Y-5596112D01*
X28048382Y-5596110D01*
X27975912Y-5470589D01*
X27975910Y-5470587D01*
X27975909Y-5470585D01*
X27873415Y-5368091D01*
X27873412Y-5368089D01*
X27873410Y-5368087D01*
X27747888Y-5295617D01*
X27747889Y-5295617D01*
X27685493Y-5278898D01*
X27607875Y-5258100D01*
X27462925Y-5258100D01*
X27402746Y-5274225D01*
X27322910Y-5295617D01*
X27197389Y-5368087D01*
X27094887Y-5470589D01*
X27022417Y-5596110D01*
X27022416Y-5596115D01*
X26984900Y-5736125D01*
X26984900Y-5881075D01*
X26995787Y-5921706D01*
X27022417Y-6021089D01*
X27094887Y-6146610D01*
X27094889Y-6146612D01*
X27094891Y-6146615D01*
X27155905Y-6207629D01*
X27183681Y-6262144D01*
X27184900Y-6277631D01*
X27184900Y-11650909D01*
X27165993Y-11709100D01*
X27155904Y-11720913D01*
X26155532Y-12721284D01*
X26101015Y-12749061D01*
X26040583Y-12739490D01*
X25999791Y-12700779D01*
X25992809Y-12688685D01*
X25890315Y-12586191D01*
X25890312Y-12586189D01*
X25890310Y-12586187D01*
X25764788Y-12513717D01*
X25764789Y-12513717D01*
X25735196Y-12505787D01*
X25624775Y-12476200D01*
X25624774Y-12476200D01*
X25538490Y-12476200D01*
X25480299Y-12457293D01*
X25468486Y-12447204D01*
X24806896Y-11785614D01*
X24779119Y-11731097D01*
X24777900Y-11715610D01*
X24777900Y-7433657D01*
X24774431Y-7420710D01*
X24754014Y-7344512D01*
X24744835Y-7328613D01*
X24707870Y-7264588D01*
X19940926Y-2497644D01*
X21699500Y-2497644D01*
X21699500Y-2702355D01*
X21731521Y-2904529D01*
X21794780Y-3099219D01*
X21887712Y-3281609D01*
X21887714Y-3281613D01*
X22008029Y-3447213D01*
X22008031Y-3447215D01*
X22008034Y-3447219D01*
X22152781Y-3591966D01*
X22152784Y-3591968D01*
X22152786Y-3591970D01*
X22318386Y-3712285D01*
X22318390Y-3712287D01*
X22500781Y-3805220D01*
X22695466Y-3868477D01*
X22695467Y-3868477D01*
X22695470Y-3868478D01*
X22897645Y-3900500D01*
X22897648Y-3900500D01*
X23102355Y-3900500D01*
X23304529Y-3868478D01*
X23304530Y-3868477D01*
X23304534Y-3868477D01*
X23499219Y-3805220D01*
X23681610Y-3712287D01*
X23847219Y-3591966D01*
X23991966Y-3447219D01*
X24112287Y-3281610D01*
X24205220Y-3099219D01*
X24268477Y-2904534D01*
X24273490Y-2872884D01*
X24300500Y-2702355D01*
X24300500Y-2497644D01*
X24268478Y-2295470D01*
X24265354Y-2285854D01*
X24205220Y-2100781D01*
X24112287Y-1918390D01*
X24112285Y-1918386D01*
X24020260Y-1791724D01*
X24020258Y-1791722D01*
X23991966Y-1752781D01*
X23977576Y-1738391D01*
X28874500Y-1738391D01*
X28874500Y-1861608D01*
X28898536Y-1982450D01*
X28945688Y-2096285D01*
X28945689Y-2096286D01*
X29014142Y-2198733D01*
X29101267Y-2285858D01*
X29203714Y-2354311D01*
X29317548Y-2401463D01*
X29438394Y-2425500D01*
X29438396Y-2425500D01*
X29561604Y-2425500D01*
X29561606Y-2425500D01*
X29682452Y-2401463D01*
X29796286Y-2354311D01*
X29898733Y-2285858D01*
X29985858Y-2198733D01*
X30054311Y-2096286D01*
X30101463Y-1982452D01*
X30125500Y-1861606D01*
X30125500Y-1738394D01*
X30125499Y-1738391D01*
X31874500Y-1738391D01*
X31874500Y-1861608D01*
X31898536Y-1982450D01*
X31945688Y-2096285D01*
X31945689Y-2096286D01*
X32014142Y-2198733D01*
X32101267Y-2285858D01*
X32203714Y-2354311D01*
X32317548Y-2401463D01*
X32438394Y-2425500D01*
X32438396Y-2425500D01*
X32561604Y-2425500D01*
X32561606Y-2425500D01*
X32682452Y-2401463D01*
X32796286Y-2354311D01*
X32898733Y-2285858D01*
X32985858Y-2198733D01*
X33054311Y-2096286D01*
X33101463Y-1982452D01*
X33125500Y-1861606D01*
X33125500Y-1738394D01*
X33101463Y-1617548D01*
X33054311Y-1503714D01*
X32985858Y-1401267D01*
X32898733Y-1314142D01*
X32796286Y-1245689D01*
X32796287Y-1245689D01*
X32796285Y-1245688D01*
X32682450Y-1198536D01*
X32561608Y-1174500D01*
X32561606Y-1174500D01*
X32438394Y-1174500D01*
X32438391Y-1174500D01*
X32317549Y-1198536D01*
X32203714Y-1245688D01*
X32101267Y-1314142D01*
X32101263Y-1314145D01*
X32014145Y-1401263D01*
X32014142Y-1401267D01*
X31945688Y-1503714D01*
X31898536Y-1617549D01*
X31874500Y-1738391D01*
X30125499Y-1738391D01*
X30101463Y-1617548D01*
X30054311Y-1503714D01*
X29985858Y-1401267D01*
X29898733Y-1314142D01*
X29796286Y-1245689D01*
X29796287Y-1245689D01*
X29796285Y-1245688D01*
X29682450Y-1198536D01*
X29561608Y-1174500D01*
X29561606Y-1174500D01*
X29438394Y-1174500D01*
X29438391Y-1174500D01*
X29317549Y-1198536D01*
X29203714Y-1245688D01*
X29101267Y-1314142D01*
X29101263Y-1314145D01*
X29014145Y-1401263D01*
X29014142Y-1401267D01*
X28945688Y-1503714D01*
X28898536Y-1617549D01*
X28874500Y-1738391D01*
X23977576Y-1738391D01*
X23847219Y-1608034D01*
X23847215Y-1608031D01*
X23847213Y-1608029D01*
X23681613Y-1487714D01*
X23681609Y-1487712D01*
X23499219Y-1394780D01*
X23304529Y-1331521D01*
X23102355Y-1299500D01*
X23102352Y-1299500D01*
X22897648Y-1299500D01*
X22897645Y-1299500D01*
X22695470Y-1331521D01*
X22500780Y-1394780D01*
X22318390Y-1487712D01*
X22318386Y-1487714D01*
X22152786Y-1608029D01*
X22008029Y-1752786D01*
X21887714Y-1918386D01*
X21887712Y-1918390D01*
X21794781Y-2100779D01*
X21731521Y-2295470D01*
X21699500Y-2497644D01*
X19940926Y-2497644D01*
X18597412Y-1154130D01*
X18517488Y-1107986D01*
X18517487Y-1107985D01*
X18517484Y-1107984D01*
X18513017Y-1106788D01*
X18513013Y-1106785D01*
X18513013Y-1106787D01*
X18428344Y-1084100D01*
X11545956Y-1084100D01*
X11461287Y-1106787D01*
X11461285Y-1106787D01*
X11456817Y-1107984D01*
X11456815Y-1107984D01*
X11376888Y-1154130D01*
X10757914Y-1773104D01*
X10703397Y-1800881D01*
X10687910Y-1802100D01*
X10601625Y-1802100D01*
X10556856Y-1814096D01*
X10461610Y-1839617D01*
X10336089Y-1912087D01*
X10233587Y-2014589D01*
X10161117Y-2140110D01*
X10123600Y-2280125D01*
X10123600Y-2425074D01*
X10161117Y-2565089D01*
X10233587Y-2690610D01*
X10233589Y-2690612D01*
X10233591Y-2690615D01*
X10336085Y-2793109D01*
X10336087Y-2793110D01*
X10336089Y-2793112D01*
X10461611Y-2865582D01*
X10461612Y-2865582D01*
X10461615Y-2865584D01*
X10601625Y-2903100D01*
X10601626Y-2903100D01*
X10746574Y-2903100D01*
X10746575Y-2903100D01*
X10886585Y-2865584D01*
X10886587Y-2865582D01*
X10886589Y-2865582D01*
X11012110Y-2793112D01*
X11012110Y-2793111D01*
X11012115Y-2793109D01*
X11114609Y-2690615D01*
X11176516Y-2583389D01*
X11187082Y-2565089D01*
X11187082Y-2565087D01*
X11187084Y-2565085D01*
X11224600Y-2425075D01*
X11224600Y-2338790D01*
X11243507Y-2280599D01*
X11253596Y-2268786D01*
X11708286Y-1814096D01*
X11762803Y-1786319D01*
X11778290Y-1785100D01*
X13984969Y-1785100D01*
X14043160Y-1804007D01*
X14079124Y-1853507D01*
X14079124Y-1914693D01*
X14054974Y-1954101D01*
X14012601Y-1996475D01*
X13987188Y-2021888D01*
X13987187Y-2021889D01*
X13914717Y-2147410D01*
X13909469Y-2166996D01*
X13877200Y-2287425D01*
X13877200Y-2432375D01*
X13894689Y-2497644D01*
X13914717Y-2572389D01*
X13987187Y-2697910D01*
X13987189Y-2697912D01*
X13987191Y-2697915D01*
X14089685Y-2800409D01*
X14089687Y-2800410D01*
X14089689Y-2800412D01*
X14215211Y-2872882D01*
X14215212Y-2872882D01*
X14215215Y-2872884D01*
X14355225Y-2910400D01*
X14355226Y-2910400D01*
X14500174Y-2910400D01*
X14500175Y-2910400D01*
X14640185Y-2872884D01*
X14640187Y-2872882D01*
X14640189Y-2872882D01*
X14765710Y-2800412D01*
X14765710Y-2800411D01*
X14765715Y-2800409D01*
X14868209Y-2697915D01*
X14940684Y-2572385D01*
X14978200Y-2432375D01*
X14978200Y-2346090D01*
X14980668Y-2338492D01*
X14979419Y-2330603D01*
X14989943Y-2309947D01*
X14997107Y-2287899D01*
X15007196Y-2276086D01*
X15116286Y-2166996D01*
X15170803Y-2139219D01*
X15186290Y-2138000D01*
X17341933Y-2138000D01*
X17400124Y-2156907D01*
X17436088Y-2206407D01*
X17437559Y-2262624D01*
X17432200Y-2282622D01*
X17432200Y-2282625D01*
X17432200Y-2427575D01*
X17436434Y-2443375D01*
X17469717Y-2567589D01*
X17542187Y-2693110D01*
X17542189Y-2693112D01*
X17542191Y-2693115D01*
X17644685Y-2795609D01*
X17644687Y-2795610D01*
X17644689Y-2795612D01*
X17770211Y-2868082D01*
X17770212Y-2868082D01*
X17770215Y-2868084D01*
X17910225Y-2905600D01*
X17996510Y-2905600D01*
X18054701Y-2924507D01*
X18066514Y-2934596D01*
X21274504Y-6142585D01*
X21302281Y-6197102D01*
X21303500Y-6212589D01*
X21303500Y-7909868D01*
X21284593Y-7968059D01*
X21274504Y-7979871D01*
X21213491Y-8040884D01*
X21213487Y-8040889D01*
X21141017Y-8166410D01*
X21103500Y-8306425D01*
X21103500Y-8451377D01*
X21111083Y-8479676D01*
X21107882Y-8540778D01*
X21069377Y-8588328D01*
X21015457Y-8604300D01*
X19576756Y-8604300D01*
X19487612Y-8628186D01*
X19487611Y-8628186D01*
X19487609Y-8628187D01*
X19407690Y-8674329D01*
X15087701Y-12994315D01*
X15033184Y-13022092D01*
X14972752Y-13012521D01*
X14947694Y-12994315D01*
X6779497Y-4826212D01*
X6751719Y-4771696D01*
X6750500Y-4756208D01*
X6750500Y-2839931D01*
X6769407Y-2781740D01*
X6779490Y-2769933D01*
X6840509Y-2708915D01*
X6840512Y-2708910D01*
X6912982Y-2583389D01*
X6912982Y-2583387D01*
X6912984Y-2583385D01*
X6950500Y-2443375D01*
X6950500Y-2298425D01*
X6912984Y-2158415D01*
X6912982Y-2158412D01*
X6912982Y-2158410D01*
X6840512Y-2032889D01*
X6840510Y-2032887D01*
X6840509Y-2032885D01*
X6738015Y-1930391D01*
X6738012Y-1930389D01*
X6738010Y-1930387D01*
X6612488Y-1857917D01*
X6612489Y-1857917D01*
X6519543Y-1833012D01*
X6472475Y-1820400D01*
X6327525Y-1820400D01*
X6280472Y-1833008D01*
X6187510Y-1857917D01*
X6061989Y-1930387D01*
X5959487Y-2032889D01*
X5887017Y-2158410D01*
X5849500Y-2298425D01*
X5849500Y-2443374D01*
X5887017Y-2583389D01*
X5959487Y-2708910D01*
X5959489Y-2708912D01*
X5959491Y-2708915D01*
X6020505Y-2769929D01*
X6048281Y-2824444D01*
X6049500Y-2839931D01*
X6049500Y-4988546D01*
X6071988Y-5072467D01*
X6071989Y-5072480D01*
X6071991Y-5072480D01*
X6072762Y-5075357D01*
X6073387Y-5077692D01*
X6119528Y-5157609D01*
X6119531Y-5157613D01*
X6119532Y-5157614D01*
X14452011Y-13489997D01*
X14479789Y-13544512D01*
X14470218Y-13604945D01*
X14452012Y-13630004D01*
X12728120Y-15353898D01*
X12162030Y-15919988D01*
X12143562Y-15951977D01*
X12135030Y-15966755D01*
X12135029Y-15966756D01*
X12115887Y-15999909D01*
X12115886Y-15999911D01*
X12115886Y-15999912D01*
X12109060Y-16025389D01*
X12092000Y-16089057D01*
X12092000Y-17048143D01*
X12109362Y-17112942D01*
X12115384Y-17135415D01*
X12115886Y-17137288D01*
X12162030Y-17217212D01*
X12208905Y-17264087D01*
X12236681Y-17318602D01*
X12237900Y-17334089D01*
X12237900Y-17420375D01*
X12249653Y-17464237D01*
X12275417Y-17560389D01*
X12347887Y-17685910D01*
X12347889Y-17685912D01*
X12347891Y-17685915D01*
X12450385Y-17788409D01*
X12450387Y-17788410D01*
X12450389Y-17788412D01*
X12474835Y-17802526D01*
X12515776Y-17847995D01*
X12522172Y-17908845D01*
X12495339Y-17958266D01*
X10533103Y-19920504D01*
X10478586Y-19948281D01*
X10463099Y-19949500D01*
X10447525Y-19949500D01*
X10420931Y-19956626D01*
X10307510Y-19987017D01*
X10181989Y-20059487D01*
X10079489Y-20161987D01*
X10064672Y-20187650D01*
X10019201Y-20228589D01*
X9958351Y-20234983D01*
X9908933Y-20208151D01*
X9306796Y-19606014D01*
X9279019Y-19551497D01*
X9277800Y-19536010D01*
X9277800Y-15113731D01*
X9296707Y-15055540D01*
X9306790Y-15043733D01*
X9367809Y-14982715D01*
X9371226Y-14976797D01*
X9440282Y-14857189D01*
X9440282Y-14857187D01*
X9440284Y-14857185D01*
X9477800Y-14717175D01*
X9477800Y-14572225D01*
X9440284Y-14432215D01*
X9440282Y-14432212D01*
X9440282Y-14432210D01*
X9367812Y-14306689D01*
X9367810Y-14306687D01*
X9367809Y-14306685D01*
X9265315Y-14204191D01*
X9265312Y-14204189D01*
X9265310Y-14204187D01*
X9139788Y-14131717D01*
X9139789Y-14131717D01*
X9110196Y-14123787D01*
X8999775Y-14094200D01*
X8854825Y-14094200D01*
X8793090Y-14110741D01*
X8714810Y-14131717D01*
X8589289Y-14204187D01*
X8486787Y-14306689D01*
X8414317Y-14432210D01*
X8376800Y-14572225D01*
X8376800Y-14717174D01*
X8414317Y-14857189D01*
X8486787Y-14982710D01*
X8486789Y-14982712D01*
X8486791Y-14982715D01*
X8547805Y-15043729D01*
X8575581Y-15098244D01*
X8576800Y-15113731D01*
X8576800Y-19768344D01*
X8595508Y-19838162D01*
X8600686Y-19857488D01*
X8646830Y-19937412D01*
X10064731Y-21355312D01*
X10064730Y-21355312D01*
X10129987Y-21420568D01*
X10129989Y-21420570D01*
X10178902Y-21448810D01*
X10209912Y-21466714D01*
X10299056Y-21490600D01*
X16090010Y-21490600D01*
X16148201Y-21509507D01*
X16160014Y-21519596D01*
X16188598Y-21548180D01*
X16216375Y-21602697D01*
X16206804Y-21663129D01*
X16163539Y-21706394D01*
X16103107Y-21715965D01*
X16092971Y-21713811D01*
X16065290Y-21706394D01*
X16039562Y-21699500D01*
X16039561Y-21699500D01*
X4649000Y-21699500D01*
X4590809Y-21680593D01*
X4554845Y-21631093D01*
X4550000Y-21600500D01*
X4550000Y-399500D01*
X4568907Y-341309D01*
X4618407Y-305345D01*
X4649000Y-300500D01*
X57952405Y-300500D01*
X57996462Y-300500D01*
X58003523Y-300751D01*
G37*
%TD.AperFunction*%
%TA.AperFunction,Conductor*%
G36*
X38521513Y-17545607D02*
G01*
X38557477Y-17595107D01*
X38558948Y-17651324D01*
X38554500Y-17667922D01*
X38554500Y-17667925D01*
X38554500Y-17812875D01*
X38567364Y-17860884D01*
X38592017Y-17952889D01*
X38594500Y-17958883D01*
X38593381Y-17959346D01*
X38604600Y-18001208D01*
X38604600Y-19663311D01*
X38585693Y-19721502D01*
X38536193Y-19757466D01*
X38475007Y-19757466D01*
X38432232Y-19727238D01*
X38431497Y-19727974D01*
X38427216Y-19723693D01*
X38427063Y-19723585D01*
X38426914Y-19723391D01*
X38426910Y-19723387D01*
X38426909Y-19723385D01*
X38324415Y-19620891D01*
X38324412Y-19620889D01*
X38324410Y-19620887D01*
X38198888Y-19548417D01*
X38198889Y-19548417D01*
X38144715Y-19533901D01*
X38058875Y-19510900D01*
X37913925Y-19510900D01*
X37875534Y-19521187D01*
X37773910Y-19548417D01*
X37648389Y-19620887D01*
X37545887Y-19723389D01*
X37473417Y-19848910D01*
X37440996Y-19969907D01*
X37435900Y-19988925D01*
X37435900Y-20133875D01*
X37461279Y-20228589D01*
X37473417Y-20273889D01*
X37545887Y-20399410D01*
X37545889Y-20399412D01*
X37545891Y-20399415D01*
X37648385Y-20501909D01*
X37648387Y-20501910D01*
X37648389Y-20501912D01*
X37773911Y-20574382D01*
X37773912Y-20574382D01*
X37773915Y-20574384D01*
X37913925Y-20611900D01*
X37913926Y-20611900D01*
X38058874Y-20611900D01*
X38058875Y-20611900D01*
X38198885Y-20574384D01*
X38198887Y-20574382D01*
X38198889Y-20574382D01*
X38324410Y-20501912D01*
X38324410Y-20501911D01*
X38324415Y-20501909D01*
X38426909Y-20399415D01*
X38426912Y-20399410D01*
X38427058Y-20399221D01*
X38427198Y-20399124D01*
X38431497Y-20394826D01*
X38432293Y-20395622D01*
X38477482Y-20364565D01*
X38538646Y-20366166D01*
X38587188Y-20403413D01*
X38604600Y-20459488D01*
X38604600Y-20921508D01*
X38604600Y-21053292D01*
X38622979Y-21121884D01*
X38638709Y-21180590D01*
X38704596Y-21294709D01*
X38704598Y-21294711D01*
X38704600Y-21294714D01*
X38867006Y-21457120D01*
X38894782Y-21511635D01*
X38885211Y-21572067D01*
X38846504Y-21612857D01*
X38830687Y-21621989D01*
X38728187Y-21724489D01*
X38655717Y-21850010D01*
X38618200Y-21990025D01*
X38618200Y-22134975D01*
X38631129Y-22183225D01*
X38655717Y-22274989D01*
X38728187Y-22400510D01*
X38728189Y-22400512D01*
X38728191Y-22400515D01*
X38789205Y-22461529D01*
X38816981Y-22516044D01*
X38818200Y-22531531D01*
X38818200Y-23924258D01*
X38799293Y-23982449D01*
X38749793Y-24018413D01*
X38688607Y-24018413D01*
X38639107Y-23982449D01*
X38633464Y-23973759D01*
X38615546Y-23942725D01*
X38614370Y-23940688D01*
X37926312Y-23252630D01*
X37846388Y-23206486D01*
X37757244Y-23182600D01*
X37757242Y-23182600D01*
X37489132Y-23182600D01*
X37430941Y-23163693D01*
X37419129Y-23153604D01*
X37358115Y-23092591D01*
X37358110Y-23092587D01*
X37232588Y-23020117D01*
X37232589Y-23020117D01*
X37202996Y-23012187D01*
X37092575Y-22982600D01*
X36947625Y-22982600D01*
X36885890Y-22999141D01*
X36807610Y-23020117D01*
X36682089Y-23092587D01*
X36579587Y-23195089D01*
X36507117Y-23320610D01*
X36483992Y-23406914D01*
X36469600Y-23460625D01*
X36469600Y-23605575D01*
X36493960Y-23696485D01*
X36507117Y-23745589D01*
X36579587Y-23871110D01*
X36579589Y-23871112D01*
X36579591Y-23871115D01*
X36682085Y-23973609D01*
X36682087Y-23973610D01*
X36682089Y-23973612D01*
X36807611Y-24046082D01*
X36807612Y-24046082D01*
X36807615Y-24046084D01*
X36869924Y-24062779D01*
X36921238Y-24096103D01*
X36943164Y-24153225D01*
X36943300Y-24158406D01*
X36943300Y-24201674D01*
X36980817Y-24341689D01*
X37053287Y-24467210D01*
X37053289Y-24467212D01*
X37053291Y-24467215D01*
X37155785Y-24569709D01*
X37155787Y-24569710D01*
X37155789Y-24569712D01*
X37281311Y-24642182D01*
X37281312Y-24642182D01*
X37281315Y-24642184D01*
X37421325Y-24679700D01*
X37421326Y-24679700D01*
X37566274Y-24679700D01*
X37566275Y-24679700D01*
X37706285Y-24642184D01*
X37706287Y-24642182D01*
X37706289Y-24642182D01*
X37834900Y-24567928D01*
X37894748Y-24555206D01*
X37950644Y-24580092D01*
X37981237Y-24633080D01*
X37983400Y-24653664D01*
X37983400Y-25340668D01*
X37964493Y-25398859D01*
X37954404Y-25410671D01*
X37893391Y-25471684D01*
X37893387Y-25471689D01*
X37820917Y-25597210D01*
X37783400Y-25737225D01*
X37783400Y-25882174D01*
X37820917Y-26022189D01*
X37893387Y-26147710D01*
X37893389Y-26147712D01*
X37893391Y-26147715D01*
X37995885Y-26250209D01*
X37995887Y-26250210D01*
X37995889Y-26250212D01*
X38121411Y-26322682D01*
X38121412Y-26322682D01*
X38121415Y-26322684D01*
X38261425Y-26360200D01*
X38261426Y-26360200D01*
X38406374Y-26360200D01*
X38406375Y-26360200D01*
X38546385Y-26322684D01*
X38546387Y-26322682D01*
X38546389Y-26322682D01*
X38669700Y-26251488D01*
X38729548Y-26238766D01*
X38785444Y-26263652D01*
X38816037Y-26316640D01*
X38818200Y-26337224D01*
X38818200Y-28440910D01*
X38799293Y-28499101D01*
X38749793Y-28535065D01*
X38688607Y-28535065D01*
X38669700Y-28526647D01*
X38644186Y-28511916D01*
X38574180Y-28493158D01*
X38504175Y-28474400D01*
X38359225Y-28474400D01*
X38297490Y-28490941D01*
X38219210Y-28511917D01*
X38093689Y-28584387D01*
X37991187Y-28686889D01*
X37918717Y-28812410D01*
X37918716Y-28812415D01*
X37881200Y-28952425D01*
X37881200Y-29097375D01*
X37904548Y-29184511D01*
X37918717Y-29237389D01*
X37991187Y-29362910D01*
X37991189Y-29362912D01*
X37991191Y-29362915D01*
X38093685Y-29465409D01*
X38093687Y-29465410D01*
X38093689Y-29465412D01*
X38219211Y-29537882D01*
X38219212Y-29537882D01*
X38219215Y-29537884D01*
X38359225Y-29575400D01*
X38359226Y-29575400D01*
X38375109Y-29575400D01*
X38433300Y-29594307D01*
X38469264Y-29643807D01*
X38469264Y-29704993D01*
X38445113Y-29744403D01*
X38173814Y-30015703D01*
X38119297Y-30043481D01*
X38103810Y-30044700D01*
X38017525Y-30044700D01*
X37955790Y-30061241D01*
X37877510Y-30082217D01*
X37751989Y-30154687D01*
X37649489Y-30257187D01*
X37609828Y-30325882D01*
X37564358Y-30366822D01*
X37503508Y-30373217D01*
X37454088Y-30346385D01*
X36633301Y-29525598D01*
X36607678Y-29481217D01*
X36592699Y-29425314D01*
X36592699Y-29425312D01*
X36533392Y-29322590D01*
X36533390Y-29322588D01*
X36533389Y-29322586D01*
X35184814Y-27974011D01*
X35184811Y-27974009D01*
X35184809Y-27974007D01*
X35082090Y-27914702D01*
X35082086Y-27914700D01*
X35057873Y-27908212D01*
X35057873Y-27908213D01*
X34967509Y-27884000D01*
X34967507Y-27884000D01*
X34468912Y-27884000D01*
X34410721Y-27865093D01*
X34398908Y-27855004D01*
X33930758Y-27386854D01*
X33902981Y-27332337D01*
X33912552Y-27271905D01*
X33955817Y-27228640D01*
X33975128Y-27221227D01*
X34092836Y-27189688D01*
X34212665Y-27120505D01*
X34310505Y-27022665D01*
X34367920Y-26923217D01*
X34413387Y-26882278D01*
X34474237Y-26875882D01*
X34527226Y-26906474D01*
X34548518Y-26948939D01*
X34549330Y-26948693D01*
X34550742Y-26953348D01*
X34611048Y-27098940D01*
X34611052Y-27098949D01*
X34698599Y-27229969D01*
X34698602Y-27229973D01*
X34810026Y-27341397D01*
X34810030Y-27341400D01*
X34941050Y-27428947D01*
X34941059Y-27428951D01*
X35086646Y-27489255D01*
X35086653Y-27489257D01*
X35145000Y-27500862D01*
X35145000Y-26965374D01*
X35204204Y-26999556D01*
X35280504Y-27020000D01*
X35359496Y-27020000D01*
X35435796Y-26999556D01*
X35495000Y-26965374D01*
X35495000Y-27500861D01*
X35553346Y-27489257D01*
X35553353Y-27489255D01*
X35698940Y-27428951D01*
X35698949Y-27428947D01*
X35829969Y-27341400D01*
X35829973Y-27341397D01*
X35941397Y-27229973D01*
X35941400Y-27229969D01*
X36028947Y-27098949D01*
X36028951Y-27098940D01*
X36089257Y-26953349D01*
X36119999Y-26798795D01*
X36120000Y-26798792D01*
X36120000Y-26345001D01*
X36119999Y-26345000D01*
X35620000Y-26345000D01*
X35620000Y-25995000D01*
X36119999Y-25995000D01*
X36120000Y-25994999D01*
X36120000Y-25541207D01*
X36119999Y-25541204D01*
X36089257Y-25386650D01*
X36028951Y-25241059D01*
X36028947Y-25241051D01*
X35950013Y-25122920D01*
X35933404Y-25064032D01*
X35954581Y-25006628D01*
X36005455Y-24972635D01*
X36066593Y-24975037D01*
X36102332Y-24997914D01*
X36626905Y-25522487D01*
X36654681Y-25577002D01*
X36655900Y-25592489D01*
X36655900Y-26896568D01*
X36636993Y-26954759D01*
X36626904Y-26966571D01*
X36565891Y-27027584D01*
X36565887Y-27027589D01*
X36493417Y-27153110D01*
X36455900Y-27293125D01*
X36455900Y-27438074D01*
X36493417Y-27578089D01*
X36565887Y-27703610D01*
X36565889Y-27703612D01*
X36565891Y-27703615D01*
X36668385Y-27806109D01*
X36668387Y-27806110D01*
X36668389Y-27806112D01*
X36793911Y-27878582D01*
X36793912Y-27878582D01*
X36793915Y-27878584D01*
X36933925Y-27916100D01*
X36933926Y-27916100D01*
X37078874Y-27916100D01*
X37078875Y-27916100D01*
X37218885Y-27878584D01*
X37218887Y-27878582D01*
X37218889Y-27878582D01*
X37344410Y-27806112D01*
X37344410Y-27806111D01*
X37344415Y-27806109D01*
X37446909Y-27703615D01*
X37519384Y-27578085D01*
X37556900Y-27438075D01*
X37556900Y-27293125D01*
X37519384Y-27153115D01*
X37519382Y-27153112D01*
X37519382Y-27153110D01*
X37446912Y-27027589D01*
X37446908Y-27027584D01*
X37385896Y-26966571D01*
X37358119Y-26912054D01*
X37356900Y-26896568D01*
X37356900Y-25360157D01*
X37351618Y-25340444D01*
X37333014Y-25271012D01*
X37315716Y-25241051D01*
X37315392Y-25240489D01*
X37303337Y-25219610D01*
X37286870Y-25191088D01*
X35502696Y-23406914D01*
X35474919Y-23352397D01*
X35473700Y-23336910D01*
X35473700Y-20581090D01*
X35492607Y-20522899D01*
X35502696Y-20511086D01*
X37620586Y-18393196D01*
X37675103Y-18365419D01*
X37690590Y-18364200D01*
X37776874Y-18364200D01*
X37776875Y-18364200D01*
X37916885Y-18326684D01*
X37916887Y-18326682D01*
X37916889Y-18326682D01*
X38042410Y-18254212D01*
X38042410Y-18254211D01*
X38042415Y-18254209D01*
X38144909Y-18151715D01*
X38146722Y-18148575D01*
X38217382Y-18026189D01*
X38217382Y-18026187D01*
X38217384Y-18026185D01*
X38254900Y-17886175D01*
X38254900Y-17741225D01*
X38230810Y-17651321D01*
X38232282Y-17623234D01*
X38232282Y-17595107D01*
X38233870Y-17592920D01*
X38234012Y-17590222D01*
X38251710Y-17568365D01*
X38268246Y-17545607D01*
X38270816Y-17544771D01*
X38272517Y-17542672D01*
X38326437Y-17526700D01*
X38463322Y-17526700D01*
X38521513Y-17545607D01*
G37*
%TD.AperFunction*%
%TA.AperFunction,Conductor*%
G36*
X34731891Y-20764307D02*
G01*
X34767855Y-20813807D01*
X34772700Y-20844400D01*
X34772700Y-23569243D01*
X34790746Y-23636592D01*
X34796584Y-23658383D01*
X34796585Y-23658384D01*
X34796586Y-23658388D01*
X34842730Y-23738312D01*
X35394003Y-24289585D01*
X35942085Y-24837667D01*
X35969862Y-24892184D01*
X35960291Y-24952616D01*
X35917026Y-24995881D01*
X35856594Y-25005452D01*
X35817079Y-24989986D01*
X35698949Y-24911052D01*
X35698940Y-24911048D01*
X35553354Y-24850744D01*
X35553348Y-24850742D01*
X35495000Y-24839136D01*
X35495000Y-25374625D01*
X35435796Y-25340444D01*
X35359496Y-25320000D01*
X35280504Y-25320000D01*
X35204204Y-25340444D01*
X35145000Y-25374625D01*
X35145000Y-24839136D01*
X35086651Y-24850742D01*
X35086645Y-24850744D01*
X34941059Y-24911048D01*
X34941050Y-24911052D01*
X34810030Y-24998599D01*
X34810026Y-24998602D01*
X34698602Y-25110026D01*
X34698599Y-25110030D01*
X34611052Y-25241050D01*
X34611048Y-25241059D01*
X34550742Y-25386650D01*
X34520000Y-25541204D01*
X34520000Y-25994999D01*
X34520001Y-25995000D01*
X35020000Y-25995000D01*
X35020000Y-26345000D01*
X34520001Y-26345000D01*
X34520000Y-26345001D01*
X34520000Y-26370718D01*
X34501093Y-26428909D01*
X34451593Y-26464873D01*
X34390407Y-26464873D01*
X34340907Y-26428909D01*
X34335264Y-26420218D01*
X34310506Y-26377337D01*
X34310505Y-26377335D01*
X34212665Y-26279495D01*
X34092836Y-26210312D01*
X33959183Y-26174500D01*
X33820817Y-26174500D01*
X33687164Y-26210312D01*
X33567335Y-26279495D01*
X33469495Y-26377335D01*
X33400312Y-26497163D01*
X33368775Y-26614862D01*
X33335450Y-26666176D01*
X33278329Y-26688102D01*
X33219228Y-26672266D01*
X33203144Y-26659241D01*
X32947796Y-26403892D01*
X32920019Y-26349376D01*
X32918800Y-26333889D01*
X32918800Y-24646810D01*
X32937707Y-24588619D01*
X32987207Y-24552655D01*
X32992158Y-24551188D01*
X33005985Y-24547484D01*
X33131515Y-24475009D01*
X33234009Y-24372515D01*
X33234012Y-24372510D01*
X33306482Y-24246989D01*
X33306482Y-24246987D01*
X33306484Y-24246985D01*
X33344000Y-24106975D01*
X33344000Y-23962025D01*
X33306484Y-23822015D01*
X33306482Y-23822011D01*
X33306482Y-23822010D01*
X33234012Y-23696489D01*
X33234010Y-23696487D01*
X33234009Y-23696485D01*
X33131515Y-23593991D01*
X33131512Y-23593989D01*
X33131510Y-23593987D01*
X33005988Y-23521517D01*
X33005989Y-23521517D01*
X32967799Y-23511284D01*
X32865975Y-23484000D01*
X32721025Y-23484000D01*
X32659290Y-23500541D01*
X32581010Y-23521517D01*
X32455489Y-23593987D01*
X32352987Y-23696489D01*
X32280517Y-23822011D01*
X32280515Y-23822015D01*
X32255036Y-23917102D01*
X32229415Y-23961480D01*
X32169395Y-24021502D01*
X32114879Y-24049281D01*
X32099390Y-24050500D01*
X32034528Y-24050500D01*
X31976337Y-24031593D01*
X31940373Y-23982093D01*
X31938901Y-23925880D01*
X31939999Y-23921780D01*
X31940000Y-23921775D01*
X31940000Y-23776825D01*
X31930644Y-23741908D01*
X31902484Y-23636815D01*
X31902482Y-23636812D01*
X31902482Y-23636810D01*
X31830012Y-23511289D01*
X31830008Y-23511284D01*
X31768996Y-23450271D01*
X31741219Y-23395754D01*
X31740000Y-23380268D01*
X31740000Y-22682490D01*
X31758907Y-22624299D01*
X31768996Y-22612486D01*
X33193086Y-21188396D01*
X33247603Y-21160619D01*
X33263090Y-21159400D01*
X33349374Y-21159400D01*
X33349375Y-21159400D01*
X33489385Y-21121884D01*
X33489387Y-21121882D01*
X33489389Y-21121882D01*
X33614910Y-21049412D01*
X33614910Y-21049411D01*
X33614915Y-21049409D01*
X33717409Y-20946915D01*
X33789884Y-20821385D01*
X33790583Y-20818774D01*
X33791637Y-20817151D01*
X33792365Y-20815395D01*
X33792690Y-20815529D01*
X33823906Y-20767463D01*
X33881027Y-20745536D01*
X33886209Y-20745400D01*
X34673700Y-20745400D01*
X34731891Y-20764307D01*
G37*
%TD.AperFunction*%
%TD*%
M02*
