%TF.GenerationSoftware,KiCad,Pcbnew,9.0.5*%
%TF.CreationDate,2026-09-28T21:15:24+01:00*%
%TF.ProjectId,phone_board,70686f6e-655f-4626-9f61-72642e6b6963,rev?*%
%TF.SameCoordinates,Original*%
%TF.FileFunction,Copper,L2,Inr*%
%TF.FilePolarity,Positive*%
%FSLAX46Y46*%
G04 Gerber Fmt 4.6, Leading zero omitted, Abs format (unit mm)*
G04 Created by KiCad (PCBNEW 9.0.5) date 2026-09-28 21:15:24*
%MOMM*%
%LPD*%
G01*
G04 APERTURE LIST*
G04 Aperture macros list*
%AMHorizOval*
0 Thick line with rounded ends*
0 $1 width*
0 $2 $3 position (X,Y) of the first rounded end (center of the circle)*
0 $4 $5 position (X,Y) of the second rounded end (center of the circle)*
0 Add line between two ends*
20,1,$1,$2,$3,$4,$5,0*
0 Add two circle primitives to create the rounded ends*
1,1,$1,$2,$3*
1,1,$1,$4,$5*%
G04 Aperture macros list end*
%TA.AperFunction,HeatsinkPad*%
%ADD10O,1.000000X2.100000*%
%TD*%
%TA.AperFunction,HeatsinkPad*%
%ADD11O,1.000000X1.600000*%
%TD*%
%TA.AperFunction,ComponentPad*%
%ADD12HorizOval,1.200000X0.141421X0.141421X-0.141421X-0.141421X0*%
%TD*%
%TA.AperFunction,ComponentPad*%
%ADD13C,1.200000*%
%TD*%
%TA.AperFunction,ViaPad*%
%ADD14C,0.600000*%
%TD*%
%TA.AperFunction,ViaPad*%
%ADD15C,0.500000*%
%TD*%
G04 APERTURE END LIST*
D10*
%TO.N,/GND*%
%TO.C,J1*%
X19680000Y-26170000D03*
D11*
X19680000Y-30350000D03*
D10*
X28320000Y-26170000D03*
D11*
X28320000Y-30350000D03*
%TD*%
D12*
%TO.N,/+5V_HTR*%
%TO.C,S1*%
X54704000Y-8296000D03*
D13*
%TO.N,/CH4_RL*%
X58296102Y-8296000D03*
%TO.N,/+5V_HTR*%
X58296102Y-4703898D03*
%TO.N,/GND*%
X54704000Y-4703898D03*
%TD*%
D12*
%TO.N,/+5V_HTR*%
%TO.C,S2*%
X54704000Y-20296000D03*
D13*
%TO.N,/LPG_RL*%
X58296102Y-20296000D03*
%TO.N,/+5V_HTR*%
X58296102Y-16703898D03*
%TO.N,/GND*%
X54704000Y-16703898D03*
%TD*%
D14*
%TO.N,/GND*%
X11660000Y-21819999D03*
X46250000Y-26000000D03*
X44375000Y-20600000D03*
D15*
X11525000Y-7675000D03*
D14*
X34519999Y-9120000D03*
D15*
X13175000Y-9325000D03*
X45100000Y-23100000D03*
D14*
X54839999Y-26899999D03*
X6580000Y-21819999D03*
X38850000Y-12600000D03*
X48215500Y-5300000D03*
X49759999Y-24359999D03*
X49759999Y-26899999D03*
X46000000Y-11000000D03*
X24359999Y-11660000D03*
X14200000Y-26899999D03*
D15*
X11525000Y-9325000D03*
D14*
X42139999Y-4040000D03*
X49759999Y-1500000D03*
X9120000Y-21819999D03*
X54839999Y-1500000D03*
X35000000Y-7225000D03*
X49759999Y-16739999D03*
X14200000Y-21819999D03*
D15*
X45900000Y-23900000D03*
D14*
X25500000Y-14000000D03*
X40897800Y-25226000D03*
X57379999Y-26899999D03*
X21300000Y-21200000D03*
X52299999Y-29439999D03*
X20700000Y-15500000D03*
X47219999Y-1500000D03*
X44679999Y-1500000D03*
X25600000Y-18400000D03*
X52299999Y-21819999D03*
X14200000Y-24359999D03*
X52299999Y-1500000D03*
X21819999Y-9120000D03*
X42788000Y-6500000D03*
X8886480Y-17192734D03*
X14200000Y-29800000D03*
D15*
X13175000Y-7675000D03*
D14*
%TO.N,/VBUS*%
X21633500Y-24034500D03*
X47102200Y-21775900D03*
X25781800Y-21984500D03*
%TO.N,/USB_DP*%
X23300500Y-22147900D03*
X18363100Y-7650000D03*
%TO.N,/USB_DN*%
X17200200Y-8269200D03*
X19909800Y-20460800D03*
%TO.N,/BQ_TS*%
X42501000Y-27189000D03*
X43240600Y-22315500D03*
%TO.N,/VBAT*%
X32611100Y-8047900D03*
X41276700Y-23137400D03*
X39786000Y-15511600D03*
%TO.N,/BQ_EN1*%
X44842300Y-31392800D03*
X44981900Y-28839800D03*
%TO.N,/PGOOD_N*%
X48133700Y-24891400D03*
X42390900Y-16142900D03*
X15725800Y-13450100D03*
%TO.N,/CHG_N*%
X21084300Y-19358700D03*
X41887400Y-18422600D03*
X47226300Y-24831100D03*
%TO.N,/VSYS*%
X44900000Y-6100000D03*
X43620900Y-20395400D03*
X47828100Y-23498900D03*
X37300000Y-6100000D03*
%TO.N,/BQ_ISET*%
X43536600Y-29070800D03*
X44166600Y-22062500D03*
%TO.N,/+3V3*%
X30050000Y-6283300D03*
X31847700Y-1750000D03*
X10520000Y-20500000D03*
X16800000Y-25000000D03*
X44402100Y-15356500D03*
X23340900Y-15812100D03*
X47717500Y-16966000D03*
%TO.N,/PWR_EN*%
X29947700Y-15575100D03*
X26005600Y-15729400D03*
X37175100Y-4855500D03*
%TO.N,/HTR_EN*%
X17573800Y-14576500D03*
X34874100Y-11715900D03*
X43523000Y-7083000D03*
%TO.N,/+5V_HTR*%
X45990000Y-5000000D03*
X43050000Y-12300000D03*
%TO.N,/CH4_FB*%
X16066300Y-12415000D03*
X47509900Y-3109100D03*
%TO.N,/LPG_FB*%
X52510000Y-27387600D03*
X11556600Y-16359800D03*
%TO.N,/I2C_SDA*%
X47200000Y-12200000D03*
X45157700Y-20567400D03*
X4900000Y-27400000D03*
X15750000Y-16700000D03*
%TO.N,/I2C_SCL*%
X4900000Y-31600000D03*
X16600000Y-17900000D03*
X39046600Y-20796500D03*
X42601400Y-14043300D03*
%TO.N,/ADS_RDY*%
X43810700Y-18677000D03*
X20192400Y-17537700D03*
%TO.N,/LED_DIN*%
X31914000Y-3421100D03*
X15750000Y-2377200D03*
%TO.N,/TXD0*%
X20201700Y-848300D03*
X21592000Y-12442700D03*
%TO.N,/RXD0*%
X14829100Y-2378800D03*
X23608800Y-12708800D03*
%TO.N,/ESP_EN*%
X26037800Y-19941100D03*
X6474500Y-2354300D03*
%TO.N,/CH4_RL*%
X49163600Y-10339700D03*
%TO.N,/LPG_RL*%
X53768600Y-24221400D03*
%TO.N,/LPG_TAP*%
X47138900Y-17807500D03*
X47806900Y-20744100D03*
%TO.N,/HTR_SENSE*%
X46000000Y-14662400D03*
X46394000Y-2602800D03*
%TD*%
%TA.AperFunction,Conductor*%
%TO.N,/GND*%
G36*
X19790160Y-319407D02*
G01*
X19826124Y-368907D01*
X19826124Y-430093D01*
X19801974Y-469501D01*
X19761191Y-510285D01*
X19761188Y-510288D01*
X19761187Y-510289D01*
X19688717Y-635810D01*
X19651200Y-775825D01*
X19651200Y-920774D01*
X19688717Y-1060789D01*
X19761187Y-1186310D01*
X19761189Y-1186312D01*
X19761191Y-1186315D01*
X19863685Y-1288809D01*
X19863687Y-1288810D01*
X19863689Y-1288812D01*
X19989211Y-1361282D01*
X19989212Y-1361282D01*
X19989215Y-1361284D01*
X20129225Y-1398800D01*
X20129226Y-1398800D01*
X20274174Y-1398800D01*
X20274175Y-1398800D01*
X20414185Y-1361284D01*
X20414187Y-1361282D01*
X20414189Y-1361282D01*
X20539710Y-1288812D01*
X20539710Y-1288811D01*
X20539715Y-1288809D01*
X20642209Y-1186315D01*
X20642212Y-1186310D01*
X20714682Y-1060789D01*
X20714682Y-1060787D01*
X20714684Y-1060785D01*
X20752200Y-920775D01*
X20752200Y-775825D01*
X20714684Y-635815D01*
X20714682Y-635812D01*
X20714682Y-635810D01*
X20642212Y-510289D01*
X20642210Y-510287D01*
X20642209Y-510285D01*
X20601425Y-469501D01*
X20573650Y-414987D01*
X20583221Y-354555D01*
X20626486Y-311290D01*
X20671431Y-300500D01*
X57952405Y-300500D01*
X57996462Y-300500D01*
X58003523Y-300751D01*
X58234806Y-317293D01*
X58248787Y-319304D01*
X58471881Y-367836D01*
X58485433Y-371815D01*
X58581891Y-407791D01*
X58699366Y-451606D01*
X58712205Y-457469D01*
X58912607Y-566898D01*
X58924483Y-574530D01*
X59107263Y-711357D01*
X59117939Y-720607D01*
X59279392Y-882060D01*
X59288642Y-892736D01*
X59425467Y-1075513D01*
X59433103Y-1087395D01*
X59542526Y-1287786D01*
X59548394Y-1300636D01*
X59628184Y-1514566D01*
X59632163Y-1528118D01*
X59680695Y-1751212D01*
X59682706Y-1765193D01*
X59699248Y-1996475D01*
X59699500Y-2003538D01*
X59699500Y-11500500D01*
X59680593Y-11558691D01*
X59631093Y-11594655D01*
X59600500Y-11599500D01*
X52960435Y-11599500D01*
X52884011Y-11619978D01*
X52884007Y-11619980D01*
X52815491Y-11659538D01*
X52759538Y-11715491D01*
X52719980Y-11784007D01*
X52719978Y-11784011D01*
X52699500Y-11860435D01*
X52699500Y-13139564D01*
X52719978Y-13215988D01*
X52719980Y-13215992D01*
X52744984Y-13259300D01*
X52759540Y-13284511D01*
X52815489Y-13340460D01*
X52815491Y-13340461D01*
X52884007Y-13380019D01*
X52884011Y-13380021D01*
X52960435Y-13400499D01*
X52960437Y-13400500D01*
X52960438Y-13400500D01*
X53039562Y-13400500D01*
X59600500Y-13400500D01*
X59658691Y-13419407D01*
X59694655Y-13468907D01*
X59699500Y-13499500D01*
X59699500Y-30996461D01*
X59699248Y-31003524D01*
X59682706Y-31234806D01*
X59680695Y-31248787D01*
X59632163Y-31471881D01*
X59628184Y-31485433D01*
X59548394Y-31699363D01*
X59542526Y-31712213D01*
X59433103Y-31912604D01*
X59425467Y-31924486D01*
X59288642Y-32107263D01*
X59279392Y-32117939D01*
X59117939Y-32279392D01*
X59107263Y-32288642D01*
X58924486Y-32425467D01*
X58912604Y-32433103D01*
X58712213Y-32542526D01*
X58699363Y-32548394D01*
X58485433Y-32628184D01*
X58471881Y-32632163D01*
X58248787Y-32680695D01*
X58234806Y-32682706D01*
X58031124Y-32697274D01*
X58003522Y-32699248D01*
X57996462Y-32699500D01*
X13449000Y-32699500D01*
X13390809Y-32680593D01*
X13354845Y-32631093D01*
X13350000Y-32600500D01*
X13350000Y-29971204D01*
X18880000Y-29971204D01*
X18880000Y-30174999D01*
X18880001Y-30175000D01*
X19380000Y-30175000D01*
X19380000Y-30525000D01*
X18880001Y-30525000D01*
X18880000Y-30525001D01*
X18880000Y-30728795D01*
X18910742Y-30883349D01*
X18971048Y-31028940D01*
X18971052Y-31028949D01*
X19058599Y-31159969D01*
X19058602Y-31159973D01*
X19170026Y-31271397D01*
X19170030Y-31271400D01*
X19301050Y-31358947D01*
X19301059Y-31358951D01*
X19446646Y-31419255D01*
X19446653Y-31419257D01*
X19505000Y-31430862D01*
X19505000Y-30895374D01*
X19564204Y-30929556D01*
X19640504Y-30950000D01*
X19719496Y-30950000D01*
X19795796Y-30929556D01*
X19855000Y-30895374D01*
X19855000Y-31430861D01*
X19913346Y-31419257D01*
X19913353Y-31419255D01*
X20058940Y-31358951D01*
X20058949Y-31358947D01*
X20189969Y-31271400D01*
X20189973Y-31271397D01*
X20301397Y-31159973D01*
X20301400Y-31159969D01*
X20388947Y-31028949D01*
X20388951Y-31028940D01*
X20449257Y-30883349D01*
X20479999Y-30728795D01*
X20480000Y-30728792D01*
X20480000Y-30525001D01*
X20479999Y-30525000D01*
X19980000Y-30525000D01*
X19980000Y-30175000D01*
X20479999Y-30175000D01*
X20480000Y-30174999D01*
X20480000Y-29971207D01*
X20479999Y-29971204D01*
X27520000Y-29971204D01*
X27520000Y-30174999D01*
X27520001Y-30175000D01*
X28020000Y-30175000D01*
X28020000Y-30525000D01*
X27520001Y-30525000D01*
X27520000Y-30525001D01*
X27520000Y-30728795D01*
X27550742Y-30883349D01*
X27611048Y-31028940D01*
X27611052Y-31028949D01*
X27698599Y-31159969D01*
X27698602Y-31159973D01*
X27810026Y-31271397D01*
X27810030Y-31271400D01*
X27941050Y-31358947D01*
X27941059Y-31358951D01*
X28086646Y-31419255D01*
X28086653Y-31419257D01*
X28145000Y-31430862D01*
X28145000Y-30895374D01*
X28204204Y-30929556D01*
X28280504Y-30950000D01*
X28359496Y-30950000D01*
X28435796Y-30929556D01*
X28495000Y-30895374D01*
X28495000Y-31430861D01*
X28553346Y-31419257D01*
X28553353Y-31419255D01*
X28698940Y-31358951D01*
X28698949Y-31358947D01*
X28756749Y-31320325D01*
X44291800Y-31320325D01*
X44291800Y-31465275D01*
X44321387Y-31575696D01*
X44329317Y-31605289D01*
X44401787Y-31730810D01*
X44401789Y-31730812D01*
X44401791Y-31730815D01*
X44504285Y-31833309D01*
X44504287Y-31833310D01*
X44504289Y-31833312D01*
X44629811Y-31905782D01*
X44629812Y-31905782D01*
X44629815Y-31905784D01*
X44769825Y-31943300D01*
X44769826Y-31943300D01*
X44914774Y-31943300D01*
X44914775Y-31943300D01*
X45054785Y-31905784D01*
X45054787Y-31905782D01*
X45054789Y-31905782D01*
X45180310Y-31833312D01*
X45180310Y-31833311D01*
X45180315Y-31833309D01*
X45282809Y-31730815D01*
X45355284Y-31605285D01*
X45392800Y-31465275D01*
X45392800Y-31320325D01*
X45355284Y-31180315D01*
X45355282Y-31180312D01*
X45355282Y-31180310D01*
X45282812Y-31054789D01*
X45282810Y-31054787D01*
X45282809Y-31054785D01*
X45180315Y-30952291D01*
X45180312Y-30952289D01*
X45180310Y-30952287D01*
X45054788Y-30879817D01*
X45054789Y-30879817D01*
X45025196Y-30871887D01*
X44914775Y-30842300D01*
X44769825Y-30842300D01*
X44708090Y-30858841D01*
X44629810Y-30879817D01*
X44504289Y-30952287D01*
X44401787Y-31054789D01*
X44329317Y-31180310D01*
X44297112Y-31300500D01*
X44291800Y-31320325D01*
X28756749Y-31320325D01*
X28829969Y-31271400D01*
X28829973Y-31271397D01*
X28857539Y-31243832D01*
X28941397Y-31159973D01*
X28941400Y-31159969D01*
X29028947Y-31028949D01*
X29028951Y-31028940D01*
X29089257Y-30883349D01*
X29119999Y-30728795D01*
X29120000Y-30728792D01*
X29120000Y-30525001D01*
X29119999Y-30525000D01*
X28620000Y-30525000D01*
X28620000Y-30175000D01*
X29119999Y-30175000D01*
X29120000Y-30174999D01*
X29120000Y-29971207D01*
X29119999Y-29971206D01*
X29108436Y-29913073D01*
X29108436Y-29913071D01*
X29105367Y-29897644D01*
X55199500Y-29897644D01*
X55199500Y-30102355D01*
X55231521Y-30304529D01*
X55294780Y-30499219D01*
X55387712Y-30681609D01*
X55387714Y-30681613D01*
X55508029Y-30847213D01*
X55508031Y-30847215D01*
X55508034Y-30847219D01*
X55652781Y-30991966D01*
X55652784Y-30991968D01*
X55652786Y-30991970D01*
X55818386Y-31112285D01*
X55818390Y-31112287D01*
X56000781Y-31205220D01*
X56195466Y-31268477D01*
X56195467Y-31268477D01*
X56195470Y-31268478D01*
X56397645Y-31300500D01*
X56397648Y-31300500D01*
X56602355Y-31300500D01*
X56804529Y-31268478D01*
X56804530Y-31268477D01*
X56804534Y-31268477D01*
X56999219Y-31205220D01*
X57181610Y-31112287D01*
X57347219Y-30991966D01*
X57491966Y-30847219D01*
X57612287Y-30681610D01*
X57705220Y-30499219D01*
X57768477Y-30304534D01*
X57800500Y-30102352D01*
X57800500Y-29897648D01*
X57800500Y-29897644D01*
X57768478Y-29695470D01*
X57768477Y-29695466D01*
X57705220Y-29500781D01*
X57612287Y-29318390D01*
X57612285Y-29318386D01*
X57491970Y-29152786D01*
X57491968Y-29152784D01*
X57491966Y-29152781D01*
X57347219Y-29008034D01*
X57347215Y-29008031D01*
X57347213Y-29008029D01*
X57181613Y-28887714D01*
X57181609Y-28887712D01*
X56999219Y-28794780D01*
X56804529Y-28731521D01*
X56602355Y-28699500D01*
X56602352Y-28699500D01*
X56397648Y-28699500D01*
X56397645Y-28699500D01*
X56195470Y-28731521D01*
X56000780Y-28794780D01*
X55818390Y-28887712D01*
X55818386Y-28887714D01*
X55652786Y-29008029D01*
X55508029Y-29152786D01*
X55387714Y-29318386D01*
X55387712Y-29318390D01*
X55294780Y-29500780D01*
X55231521Y-29695470D01*
X55199500Y-29897644D01*
X29105367Y-29897644D01*
X29089257Y-29816651D01*
X29028951Y-29671059D01*
X29028947Y-29671050D01*
X28941400Y-29540030D01*
X28941397Y-29540026D01*
X28829973Y-29428602D01*
X28829969Y-29428599D01*
X28698949Y-29341052D01*
X28698940Y-29341048D01*
X28553354Y-29280744D01*
X28553348Y-29280742D01*
X28495000Y-29269136D01*
X28495000Y-29804625D01*
X28435796Y-29770444D01*
X28359496Y-29750000D01*
X28280504Y-29750000D01*
X28204204Y-29770444D01*
X28145000Y-29804625D01*
X28145000Y-29269136D01*
X28086651Y-29280742D01*
X28086645Y-29280744D01*
X27941059Y-29341048D01*
X27941050Y-29341052D01*
X27810030Y-29428599D01*
X27810026Y-29428602D01*
X27698602Y-29540026D01*
X27698599Y-29540030D01*
X27611052Y-29671050D01*
X27611048Y-29671059D01*
X27550742Y-29816650D01*
X27520000Y-29971204D01*
X20479999Y-29971204D01*
X20449257Y-29816650D01*
X20388951Y-29671059D01*
X20388947Y-29671050D01*
X20301400Y-29540030D01*
X20301397Y-29540026D01*
X20189973Y-29428602D01*
X20189969Y-29428599D01*
X20058949Y-29341052D01*
X20058940Y-29341048D01*
X19913354Y-29280744D01*
X19913348Y-29280742D01*
X19855000Y-29269136D01*
X19855000Y-29804625D01*
X19795796Y-29770444D01*
X19719496Y-29750000D01*
X19640504Y-29750000D01*
X19564204Y-29770444D01*
X19505000Y-29804625D01*
X19505000Y-29269136D01*
X19446651Y-29280742D01*
X19446645Y-29280744D01*
X19301059Y-29341048D01*
X19301050Y-29341052D01*
X19170030Y-29428599D01*
X19170026Y-29428602D01*
X19058602Y-29540026D01*
X19058599Y-29540030D01*
X18971052Y-29671050D01*
X18971048Y-29671059D01*
X18910742Y-29816650D01*
X18880000Y-29971204D01*
X13350000Y-29971204D01*
X13350000Y-28998325D01*
X42986100Y-28998325D01*
X42986100Y-29143275D01*
X42995354Y-29177810D01*
X43023617Y-29283289D01*
X43096087Y-29408810D01*
X43096089Y-29408812D01*
X43096091Y-29408815D01*
X43198585Y-29511309D01*
X43198587Y-29511310D01*
X43198589Y-29511312D01*
X43324111Y-29583782D01*
X43324112Y-29583782D01*
X43324115Y-29583784D01*
X43464125Y-29621300D01*
X43464126Y-29621300D01*
X43609074Y-29621300D01*
X43609075Y-29621300D01*
X43749085Y-29583784D01*
X43749087Y-29583782D01*
X43749089Y-29583782D01*
X43874610Y-29511312D01*
X43874610Y-29511311D01*
X43874615Y-29511309D01*
X43977109Y-29408815D01*
X44016232Y-29341052D01*
X44049582Y-29283289D01*
X44049582Y-29283287D01*
X44049584Y-29283285D01*
X44087100Y-29143275D01*
X44087100Y-28998325D01*
X44049584Y-28858315D01*
X44049582Y-28858312D01*
X44049582Y-28858310D01*
X44021884Y-28810336D01*
X43997051Y-28767325D01*
X44431400Y-28767325D01*
X44431400Y-28912274D01*
X44468917Y-29052289D01*
X44541387Y-29177810D01*
X44541389Y-29177812D01*
X44541391Y-29177815D01*
X44643885Y-29280309D01*
X44643887Y-29280310D01*
X44643889Y-29280312D01*
X44769411Y-29352782D01*
X44769412Y-29352782D01*
X44769415Y-29352784D01*
X44909425Y-29390300D01*
X44909426Y-29390300D01*
X45054374Y-29390300D01*
X45054375Y-29390300D01*
X45194385Y-29352784D01*
X45194387Y-29352782D01*
X45194389Y-29352782D01*
X45319910Y-29280312D01*
X45319910Y-29280311D01*
X45319915Y-29280309D01*
X45422409Y-29177815D01*
X45436860Y-29152786D01*
X45494882Y-29052289D01*
X45494882Y-29052287D01*
X45494884Y-29052285D01*
X45532400Y-28912275D01*
X45532400Y-28767325D01*
X45494884Y-28627315D01*
X45494882Y-28627312D01*
X45494882Y-28627310D01*
X45422412Y-28501789D01*
X45422410Y-28501787D01*
X45422409Y-28501785D01*
X45319915Y-28399291D01*
X45319912Y-28399289D01*
X45319910Y-28399287D01*
X45194388Y-28326817D01*
X45194389Y-28326817D01*
X45164796Y-28318887D01*
X45054375Y-28289300D01*
X44909425Y-28289300D01*
X44847690Y-28305841D01*
X44769410Y-28326817D01*
X44643889Y-28399287D01*
X44541387Y-28501789D01*
X44468917Y-28627310D01*
X44431400Y-28767325D01*
X43997051Y-28767325D01*
X43977112Y-28732789D01*
X43977110Y-28732787D01*
X43977109Y-28732785D01*
X43874615Y-28630291D01*
X43874612Y-28630289D01*
X43874610Y-28630287D01*
X43749088Y-28557817D01*
X43749089Y-28557817D01*
X43719496Y-28549887D01*
X43609075Y-28520300D01*
X43464125Y-28520300D01*
X43402390Y-28536841D01*
X43324110Y-28557817D01*
X43198589Y-28630287D01*
X43096087Y-28732789D01*
X43023617Y-28858310D01*
X43009157Y-28912275D01*
X42986100Y-28998325D01*
X13350000Y-28998325D01*
X13350000Y-24927525D01*
X16249500Y-24927525D01*
X16249500Y-25072475D01*
X16259562Y-25110026D01*
X16287017Y-25212489D01*
X16359487Y-25338010D01*
X16359489Y-25338012D01*
X16359491Y-25338015D01*
X16461985Y-25440509D01*
X16461987Y-25440510D01*
X16461989Y-25440512D01*
X16587511Y-25512982D01*
X16587512Y-25512982D01*
X16587515Y-25512984D01*
X16727525Y-25550500D01*
X16727526Y-25550500D01*
X16872474Y-25550500D01*
X16872475Y-25550500D01*
X16907168Y-25541204D01*
X18880000Y-25541204D01*
X18880000Y-25994999D01*
X18880001Y-25995000D01*
X19380000Y-25995000D01*
X19380000Y-26345000D01*
X18880001Y-26345000D01*
X18880000Y-26345001D01*
X18880000Y-26798795D01*
X18910742Y-26953349D01*
X18971048Y-27098940D01*
X18971052Y-27098949D01*
X19058599Y-27229969D01*
X19058602Y-27229973D01*
X19170026Y-27341397D01*
X19170030Y-27341400D01*
X19301050Y-27428947D01*
X19301059Y-27428951D01*
X19446646Y-27489255D01*
X19446653Y-27489257D01*
X19505000Y-27500862D01*
X19505000Y-26965374D01*
X19564204Y-26999556D01*
X19640504Y-27020000D01*
X19719496Y-27020000D01*
X19795796Y-26999556D01*
X19855000Y-26965374D01*
X19855000Y-27500861D01*
X19913346Y-27489257D01*
X19913353Y-27489255D01*
X20058940Y-27428951D01*
X20058949Y-27428947D01*
X20189969Y-27341400D01*
X20189973Y-27341397D01*
X20301397Y-27229973D01*
X20301400Y-27229969D01*
X20388947Y-27098949D01*
X20388951Y-27098940D01*
X20449257Y-26953348D01*
X20450670Y-26948693D01*
X20451708Y-26949008D01*
X20479142Y-26900022D01*
X20534706Y-26874405D01*
X20594716Y-26886341D01*
X20632078Y-26923216D01*
X20689495Y-27022665D01*
X20787335Y-27120505D01*
X20907164Y-27189688D01*
X21040817Y-27225500D01*
X21040819Y-27225500D01*
X21179181Y-27225500D01*
X21179183Y-27225500D01*
X21312836Y-27189688D01*
X21432665Y-27120505D01*
X21530505Y-27022665D01*
X21599688Y-26902836D01*
X21635500Y-26769183D01*
X21635500Y-26630817D01*
X26364500Y-26630817D01*
X26364500Y-26769183D01*
X26400312Y-26902836D01*
X26469495Y-27022665D01*
X26567335Y-27120505D01*
X26687164Y-27189688D01*
X26820817Y-27225500D01*
X26820819Y-27225500D01*
X26959181Y-27225500D01*
X26959183Y-27225500D01*
X27092836Y-27189688D01*
X27212665Y-27120505D01*
X27310505Y-27022665D01*
X27367920Y-26923217D01*
X27413387Y-26882278D01*
X27474237Y-26875882D01*
X27527226Y-26906474D01*
X27548518Y-26948939D01*
X27549330Y-26948693D01*
X27550742Y-26953348D01*
X27611048Y-27098940D01*
X27611052Y-27098949D01*
X27698599Y-27229969D01*
X27698602Y-27229973D01*
X27810026Y-27341397D01*
X27810030Y-27341400D01*
X27941050Y-27428947D01*
X27941059Y-27428951D01*
X28086646Y-27489255D01*
X28086653Y-27489257D01*
X28145000Y-27500862D01*
X28145000Y-26965374D01*
X28204204Y-26999556D01*
X28280504Y-27020000D01*
X28359496Y-27020000D01*
X28435796Y-26999556D01*
X28495000Y-26965374D01*
X28495000Y-27500861D01*
X28553346Y-27489257D01*
X28553353Y-27489255D01*
X28698940Y-27428951D01*
X28698949Y-27428947D01*
X28829969Y-27341400D01*
X28829973Y-27341397D01*
X28941397Y-27229973D01*
X28941400Y-27229969D01*
X29017203Y-27116525D01*
X41950500Y-27116525D01*
X41950500Y-27261474D01*
X41988017Y-27401489D01*
X42060487Y-27527010D01*
X42060489Y-27527012D01*
X42060491Y-27527015D01*
X42162985Y-27629509D01*
X42162987Y-27629510D01*
X42162989Y-27629512D01*
X42288511Y-27701982D01*
X42288512Y-27701982D01*
X42288515Y-27701984D01*
X42428525Y-27739500D01*
X42428526Y-27739500D01*
X42573474Y-27739500D01*
X42573475Y-27739500D01*
X42713485Y-27701984D01*
X42713487Y-27701982D01*
X42713489Y-27701982D01*
X42839010Y-27629512D01*
X42839010Y-27629511D01*
X42839015Y-27629509D01*
X42941509Y-27527015D01*
X42956609Y-27500862D01*
X42980157Y-27460075D01*
X43013984Y-27401485D01*
X43030085Y-27341397D01*
X43037125Y-27315125D01*
X51959500Y-27315125D01*
X51959500Y-27460075D01*
X51970429Y-27500861D01*
X51997017Y-27600089D01*
X52069487Y-27725610D01*
X52069489Y-27725612D01*
X52069491Y-27725615D01*
X52171985Y-27828109D01*
X52171987Y-27828110D01*
X52171989Y-27828112D01*
X52297511Y-27900582D01*
X52297512Y-27900582D01*
X52297515Y-27900584D01*
X52437525Y-27938100D01*
X52437526Y-27938100D01*
X52582474Y-27938100D01*
X52582475Y-27938100D01*
X52722485Y-27900584D01*
X52722487Y-27900582D01*
X52722489Y-27900582D01*
X52848010Y-27828112D01*
X52848010Y-27828111D01*
X52848015Y-27828109D01*
X52950509Y-27725615D01*
X52950512Y-27725610D01*
X53022982Y-27600089D01*
X53022982Y-27600087D01*
X53022984Y-27600085D01*
X53060500Y-27460075D01*
X53060500Y-27315125D01*
X53022984Y-27175115D01*
X53022982Y-27175112D01*
X53022982Y-27175110D01*
X52950512Y-27049589D01*
X52950510Y-27049587D01*
X52950509Y-27049585D01*
X52848015Y-26947091D01*
X52848012Y-26947089D01*
X52848010Y-26947087D01*
X52722488Y-26874617D01*
X52722489Y-26874617D01*
X52692896Y-26866687D01*
X52582475Y-26837100D01*
X52437525Y-26837100D01*
X52385706Y-26850985D01*
X52297510Y-26874617D01*
X52171989Y-26947087D01*
X52069487Y-27049589D01*
X51997017Y-27175110D01*
X51973876Y-27261474D01*
X51959500Y-27315125D01*
X43037125Y-27315125D01*
X43045730Y-27283012D01*
X43051500Y-27261475D01*
X43051500Y-27116525D01*
X43046788Y-27098940D01*
X43013984Y-26976515D01*
X43013982Y-26976512D01*
X43013982Y-26976510D01*
X42941512Y-26850989D01*
X42941510Y-26850987D01*
X42941509Y-26850985D01*
X42839015Y-26748491D01*
X42839012Y-26748489D01*
X42839010Y-26748487D01*
X42713488Y-26676017D01*
X42713489Y-26676017D01*
X42683896Y-26668087D01*
X42573475Y-26638500D01*
X42428525Y-26638500D01*
X42366790Y-26655041D01*
X42288510Y-26676017D01*
X42162989Y-26748487D01*
X42060487Y-26850989D01*
X41988017Y-26976510D01*
X41950500Y-27116525D01*
X29017203Y-27116525D01*
X29028947Y-27098949D01*
X29028951Y-27098940D01*
X29040049Y-27072150D01*
X29040049Y-27072149D01*
X29089256Y-26953352D01*
X29089256Y-26953350D01*
X29119999Y-26798795D01*
X29120000Y-26798792D01*
X29120000Y-26345001D01*
X29119999Y-26345000D01*
X28620000Y-26345000D01*
X28620000Y-25995000D01*
X29119999Y-25995000D01*
X29120000Y-25994999D01*
X29120000Y-25541207D01*
X29119999Y-25541204D01*
X29089257Y-25386650D01*
X29028951Y-25241059D01*
X29028947Y-25241050D01*
X28941400Y-25110030D01*
X28941397Y-25110026D01*
X28829973Y-24998602D01*
X28829969Y-24998599D01*
X28698949Y-24911052D01*
X28698940Y-24911048D01*
X28562457Y-24854515D01*
X28495000Y-24870544D01*
X28495000Y-25374625D01*
X28435796Y-25340444D01*
X28359496Y-25320000D01*
X28280504Y-25320000D01*
X28204204Y-25340444D01*
X28145000Y-25374625D01*
X28145000Y-24839136D01*
X28086651Y-24850742D01*
X28086645Y-24850744D01*
X27941059Y-24911048D01*
X27941050Y-24911052D01*
X27810030Y-24998599D01*
X27810026Y-24998602D01*
X27698602Y-25110026D01*
X27698599Y-25110030D01*
X27611052Y-25241050D01*
X27611048Y-25241059D01*
X27550742Y-25386650D01*
X27520000Y-25541204D01*
X27520000Y-25994999D01*
X27520001Y-25995000D01*
X28020000Y-25995000D01*
X28020000Y-26345000D01*
X27520001Y-26345000D01*
X27520000Y-26345001D01*
X27520000Y-26370718D01*
X27501093Y-26428909D01*
X27451593Y-26464873D01*
X27390407Y-26464873D01*
X27340907Y-26428909D01*
X27335264Y-26420218D01*
X27310506Y-26377337D01*
X27310505Y-26377335D01*
X27212665Y-26279495D01*
X27092836Y-26210312D01*
X26959183Y-26174500D01*
X26820817Y-26174500D01*
X26687164Y-26210312D01*
X26567335Y-26279495D01*
X26469495Y-26377335D01*
X26400312Y-26497164D01*
X26364500Y-26630817D01*
X21635500Y-26630817D01*
X21599688Y-26497164D01*
X21530505Y-26377335D01*
X21432665Y-26279495D01*
X21312836Y-26210312D01*
X21179183Y-26174500D01*
X21040817Y-26174500D01*
X20907164Y-26210312D01*
X20787335Y-26279495D01*
X20689493Y-26377337D01*
X20664736Y-26420218D01*
X20619266Y-26461159D01*
X20558416Y-26467554D01*
X20505428Y-26436962D01*
X20480542Y-26381066D01*
X20480000Y-26370718D01*
X20480000Y-26345001D01*
X20479999Y-26345000D01*
X19980000Y-26345000D01*
X19980000Y-25995000D01*
X20479999Y-25995000D01*
X20480000Y-25994999D01*
X20480000Y-25541207D01*
X20479999Y-25541204D01*
X20449257Y-25386650D01*
X20388951Y-25241059D01*
X20388947Y-25241050D01*
X20301400Y-25110030D01*
X20301397Y-25110026D01*
X20189973Y-24998602D01*
X20189969Y-24998599D01*
X20058949Y-24911052D01*
X20058940Y-24911048D01*
X19913354Y-24850744D01*
X19913348Y-24850742D01*
X19855000Y-24839136D01*
X19855000Y-25374625D01*
X19795796Y-25340444D01*
X19719496Y-25320000D01*
X19640504Y-25320000D01*
X19564204Y-25340444D01*
X19505000Y-25374625D01*
X19505000Y-24839136D01*
X19446651Y-24850742D01*
X19446645Y-24850744D01*
X19301059Y-24911048D01*
X19301050Y-24911052D01*
X19170030Y-24998599D01*
X19170026Y-24998602D01*
X19058602Y-25110026D01*
X19058599Y-25110030D01*
X18971052Y-25241050D01*
X18971048Y-25241059D01*
X18910742Y-25386650D01*
X18880000Y-25541204D01*
X16907168Y-25541204D01*
X17012485Y-25512984D01*
X17012487Y-25512982D01*
X17012489Y-25512982D01*
X17120510Y-25450616D01*
X17120516Y-25450611D01*
X17138015Y-25440509D01*
X17240509Y-25338015D01*
X17298328Y-25237870D01*
X17312982Y-25212489D01*
X17312982Y-25212487D01*
X17312984Y-25212485D01*
X17350500Y-25072475D01*
X17350500Y-24927525D01*
X17312984Y-24787515D01*
X17312982Y-24787512D01*
X17312982Y-24787510D01*
X17296305Y-24758625D01*
X46675800Y-24758625D01*
X46675800Y-24903575D01*
X46691957Y-24963874D01*
X46713317Y-25043589D01*
X46785787Y-25169110D01*
X46785789Y-25169112D01*
X46785791Y-25169115D01*
X46888285Y-25271609D01*
X46888287Y-25271610D01*
X46888289Y-25271612D01*
X47013811Y-25344082D01*
X47013812Y-25344082D01*
X47013815Y-25344084D01*
X47153825Y-25381600D01*
X47153826Y-25381600D01*
X47298774Y-25381600D01*
X47298775Y-25381600D01*
X47438785Y-25344084D01*
X47438787Y-25344082D01*
X47438789Y-25344082D01*
X47564315Y-25271609D01*
X47579845Y-25256079D01*
X47634361Y-25228300D01*
X47694793Y-25237870D01*
X47719850Y-25256074D01*
X47795685Y-25331909D01*
X47795687Y-25331910D01*
X47795689Y-25331912D01*
X47921211Y-25404382D01*
X47921212Y-25404382D01*
X47921215Y-25404384D01*
X48061225Y-25441900D01*
X48061226Y-25441900D01*
X48206174Y-25441900D01*
X48206175Y-25441900D01*
X48346185Y-25404384D01*
X48346187Y-25404382D01*
X48346189Y-25404382D01*
X48471710Y-25331912D01*
X48471710Y-25331911D01*
X48471715Y-25331909D01*
X48574209Y-25229415D01*
X48583984Y-25212485D01*
X48646682Y-25103889D01*
X48646682Y-25103887D01*
X48646684Y-25103885D01*
X48684200Y-24963875D01*
X48684200Y-24818925D01*
X48646684Y-24678915D01*
X48646682Y-24678912D01*
X48646682Y-24678910D01*
X48574212Y-24553389D01*
X48574210Y-24553387D01*
X48574209Y-24553385D01*
X48471715Y-24450891D01*
X48471712Y-24450889D01*
X48471710Y-24450887D01*
X48346188Y-24378417D01*
X48346189Y-24378417D01*
X48316596Y-24370487D01*
X48206175Y-24340900D01*
X48061225Y-24340900D01*
X47999490Y-24357441D01*
X47921210Y-24378417D01*
X47795684Y-24450891D01*
X47780149Y-24466425D01*
X47725631Y-24494200D01*
X47665200Y-24484625D01*
X47640148Y-24466424D01*
X47564315Y-24390591D01*
X47564312Y-24390589D01*
X47564310Y-24390587D01*
X47438788Y-24318117D01*
X47438789Y-24318117D01*
X47348317Y-24293875D01*
X47298775Y-24280600D01*
X47153825Y-24280600D01*
X47104283Y-24293875D01*
X47013810Y-24318117D01*
X46888289Y-24390587D01*
X46785787Y-24493089D01*
X46713317Y-24618610D01*
X46713316Y-24618615D01*
X46675800Y-24758625D01*
X17296305Y-24758625D01*
X17240512Y-24661989D01*
X17240510Y-24661987D01*
X17240509Y-24661985D01*
X17138015Y-24559491D01*
X17138012Y-24559489D01*
X17138010Y-24559487D01*
X17012488Y-24487017D01*
X17012489Y-24487017D01*
X16935628Y-24466422D01*
X16872475Y-24449500D01*
X16727525Y-24449500D01*
X16665790Y-24466041D01*
X16587510Y-24487017D01*
X16461989Y-24559487D01*
X16359487Y-24661989D01*
X16287017Y-24787510D01*
X16269063Y-24854515D01*
X16249500Y-24927525D01*
X13350000Y-24927525D01*
X13350000Y-23962025D01*
X21083000Y-23962025D01*
X21083000Y-24106974D01*
X21120517Y-24246989D01*
X21192987Y-24372510D01*
X21192989Y-24372512D01*
X21192991Y-24372515D01*
X21295485Y-24475009D01*
X21295487Y-24475010D01*
X21295489Y-24475012D01*
X21421011Y-24547482D01*
X21421012Y-24547482D01*
X21421015Y-24547484D01*
X21561025Y-24585000D01*
X21561026Y-24585000D01*
X21705974Y-24585000D01*
X21705975Y-24585000D01*
X21845985Y-24547484D01*
X21845987Y-24547482D01*
X21845989Y-24547482D01*
X21971510Y-24475012D01*
X21971510Y-24475011D01*
X21971515Y-24475009D01*
X22074009Y-24372515D01*
X22105416Y-24318117D01*
X22146482Y-24246989D01*
X22146482Y-24246987D01*
X22146484Y-24246985D01*
X22172759Y-24148925D01*
X53218100Y-24148925D01*
X53218100Y-24293875D01*
X53239172Y-24372515D01*
X53255617Y-24433889D01*
X53328087Y-24559410D01*
X53328089Y-24559412D01*
X53328091Y-24559415D01*
X53430585Y-24661909D01*
X53430587Y-24661910D01*
X53430589Y-24661912D01*
X53556111Y-24734382D01*
X53556112Y-24734382D01*
X53556115Y-24734384D01*
X53696125Y-24771900D01*
X53696126Y-24771900D01*
X53841074Y-24771900D01*
X53841075Y-24771900D01*
X53981085Y-24734384D01*
X53981087Y-24734382D01*
X53981089Y-24734382D01*
X54106610Y-24661912D01*
X54106610Y-24661911D01*
X54106615Y-24661909D01*
X54209109Y-24559415D01*
X54212588Y-24553389D01*
X54281582Y-24433889D01*
X54281582Y-24433887D01*
X54281584Y-24433885D01*
X54319100Y-24293875D01*
X54319100Y-24148925D01*
X54281584Y-24008915D01*
X54281582Y-24008912D01*
X54281582Y-24008910D01*
X54209112Y-23883389D01*
X54209110Y-23883387D01*
X54209109Y-23883385D01*
X54106615Y-23780891D01*
X54106612Y-23780889D01*
X54106610Y-23780887D01*
X53981088Y-23708417D01*
X53981089Y-23708417D01*
X53904519Y-23687900D01*
X53841075Y-23670900D01*
X53696125Y-23670900D01*
X53634390Y-23687441D01*
X53556110Y-23708417D01*
X53430589Y-23780887D01*
X53328087Y-23883389D01*
X53255617Y-24008910D01*
X53218100Y-24148925D01*
X22172759Y-24148925D01*
X22184000Y-24106975D01*
X22184000Y-23962025D01*
X22146484Y-23822015D01*
X22146482Y-23822012D01*
X22146482Y-23822010D01*
X22074012Y-23696489D01*
X22074010Y-23696487D01*
X22074009Y-23696485D01*
X21971515Y-23593991D01*
X21971512Y-23593989D01*
X21971510Y-23593987D01*
X21845988Y-23521517D01*
X21845989Y-23521517D01*
X21816396Y-23513587D01*
X21705975Y-23484000D01*
X21561025Y-23484000D01*
X21499290Y-23500541D01*
X21421010Y-23521517D01*
X21295489Y-23593987D01*
X21192987Y-23696489D01*
X21120517Y-23822010D01*
X21083000Y-23962025D01*
X13350000Y-23962025D01*
X13350000Y-23650001D01*
X13350000Y-23650000D01*
X13349999Y-23650000D01*
X4649000Y-23650000D01*
X4590809Y-23631093D01*
X4554845Y-23581593D01*
X4550000Y-23551000D01*
X4550000Y-23064925D01*
X40726200Y-23064925D01*
X40726200Y-23209874D01*
X40763717Y-23349889D01*
X40836187Y-23475410D01*
X40836189Y-23475412D01*
X40836191Y-23475415D01*
X40938685Y-23577909D01*
X40938687Y-23577910D01*
X40938689Y-23577912D01*
X41064211Y-23650382D01*
X41064212Y-23650382D01*
X41064215Y-23650384D01*
X41204225Y-23687900D01*
X41204226Y-23687900D01*
X41349174Y-23687900D01*
X41349175Y-23687900D01*
X41489185Y-23650384D01*
X41489187Y-23650382D01*
X41489189Y-23650382D01*
X41614710Y-23577912D01*
X41614710Y-23577911D01*
X41614715Y-23577909D01*
X41717209Y-23475415D01*
X41717212Y-23475410D01*
X41745494Y-23426425D01*
X47277600Y-23426425D01*
X47277600Y-23571374D01*
X47315117Y-23711389D01*
X47387587Y-23836910D01*
X47387589Y-23836912D01*
X47387591Y-23836915D01*
X47490085Y-23939409D01*
X47490087Y-23939410D01*
X47490089Y-23939412D01*
X47615611Y-24011882D01*
X47615612Y-24011882D01*
X47615615Y-24011884D01*
X47755625Y-24049400D01*
X47755626Y-24049400D01*
X47900574Y-24049400D01*
X47900575Y-24049400D01*
X48040585Y-24011884D01*
X48166115Y-23939409D01*
X48268609Y-23836915D01*
X48277212Y-23822015D01*
X48341082Y-23711389D01*
X48341082Y-23711387D01*
X48341084Y-23711385D01*
X48378600Y-23571375D01*
X48378600Y-23426425D01*
X48341084Y-23286415D01*
X48341082Y-23286412D01*
X48341082Y-23286410D01*
X48268612Y-23160889D01*
X48268610Y-23160887D01*
X48268609Y-23160885D01*
X48166115Y-23058391D01*
X48166112Y-23058389D01*
X48166110Y-23058387D01*
X48040588Y-22985917D01*
X48040589Y-22985917D01*
X48010996Y-22977987D01*
X47900575Y-22948400D01*
X47755625Y-22948400D01*
X47693890Y-22964941D01*
X47615610Y-22985917D01*
X47490089Y-23058387D01*
X47387587Y-23160889D01*
X47315117Y-23286410D01*
X47277600Y-23426425D01*
X41745494Y-23426425D01*
X41777820Y-23370436D01*
X41787458Y-23353739D01*
X41789684Y-23349885D01*
X41827200Y-23209875D01*
X41827200Y-23064925D01*
X41789684Y-22924915D01*
X41789682Y-22924912D01*
X41789682Y-22924910D01*
X41717212Y-22799389D01*
X41717210Y-22799387D01*
X41717209Y-22799385D01*
X41614715Y-22696891D01*
X41614712Y-22696889D01*
X41614710Y-22696887D01*
X41489188Y-22624417D01*
X41489189Y-22624417D01*
X41446580Y-22613000D01*
X41349175Y-22586900D01*
X41204225Y-22586900D01*
X41142490Y-22603441D01*
X41064210Y-22624417D01*
X40938689Y-22696887D01*
X40836187Y-22799389D01*
X40763717Y-22924910D01*
X40726200Y-23064925D01*
X4550000Y-23064925D01*
X4550000Y-22075425D01*
X22750000Y-22075425D01*
X22750000Y-22220374D01*
X22787517Y-22360389D01*
X22859987Y-22485910D01*
X22859989Y-22485912D01*
X22859991Y-22485915D01*
X22962485Y-22588409D01*
X22962487Y-22588410D01*
X22962489Y-22588412D01*
X23088011Y-22660882D01*
X23088012Y-22660882D01*
X23088015Y-22660884D01*
X23228025Y-22698400D01*
X23228026Y-22698400D01*
X23372974Y-22698400D01*
X23372975Y-22698400D01*
X23512985Y-22660884D01*
X23512987Y-22660882D01*
X23512989Y-22660882D01*
X23638510Y-22588412D01*
X23638510Y-22588411D01*
X23638515Y-22588409D01*
X23741009Y-22485915D01*
X23762244Y-22449135D01*
X23813482Y-22360389D01*
X23813482Y-22360387D01*
X23813484Y-22360385D01*
X23851000Y-22220375D01*
X23851000Y-22075425D01*
X23813484Y-21935415D01*
X23799980Y-21912025D01*
X25231300Y-21912025D01*
X25231300Y-22056974D01*
X25268817Y-22196989D01*
X25341287Y-22322510D01*
X25341289Y-22322512D01*
X25341291Y-22322515D01*
X25443785Y-22425009D01*
X25443787Y-22425010D01*
X25443789Y-22425012D01*
X25569311Y-22497482D01*
X25569312Y-22497482D01*
X25569315Y-22497484D01*
X25709325Y-22535000D01*
X25709326Y-22535000D01*
X25854274Y-22535000D01*
X25854275Y-22535000D01*
X25994285Y-22497484D01*
X25994287Y-22497482D01*
X25994289Y-22497482D01*
X26119810Y-22425012D01*
X26119810Y-22425011D01*
X26119815Y-22425009D01*
X26222309Y-22322515D01*
X26268203Y-22243025D01*
X42690100Y-22243025D01*
X42690100Y-22387975D01*
X42700024Y-22425012D01*
X42727617Y-22527989D01*
X42800087Y-22653510D01*
X42800089Y-22653512D01*
X42800091Y-22653515D01*
X42902585Y-22756009D01*
X42902587Y-22756010D01*
X42902589Y-22756012D01*
X43028111Y-22828482D01*
X43028112Y-22828482D01*
X43028115Y-22828484D01*
X43168125Y-22866000D01*
X43168126Y-22866000D01*
X43313074Y-22866000D01*
X43313075Y-22866000D01*
X43453085Y-22828484D01*
X43453087Y-22828482D01*
X43453089Y-22828482D01*
X43578610Y-22756012D01*
X43578610Y-22756011D01*
X43578615Y-22756009D01*
X43681109Y-22653515D01*
X43733650Y-22562510D01*
X43779118Y-22521572D01*
X43839968Y-22515176D01*
X43868885Y-22526277D01*
X43954111Y-22575482D01*
X43954112Y-22575482D01*
X43954115Y-22575484D01*
X44094125Y-22613000D01*
X44094126Y-22613000D01*
X44239074Y-22613000D01*
X44239075Y-22613000D01*
X44379085Y-22575484D01*
X44379087Y-22575482D01*
X44379089Y-22575482D01*
X44504610Y-22503012D01*
X44504610Y-22503011D01*
X44504615Y-22503009D01*
X44607109Y-22400515D01*
X44630278Y-22360385D01*
X44679582Y-22274989D01*
X44679582Y-22274987D01*
X44679584Y-22274985D01*
X44717100Y-22134975D01*
X44717100Y-21990025D01*
X44679584Y-21850015D01*
X44679582Y-21850012D01*
X44679582Y-21850010D01*
X44619784Y-21746439D01*
X44619782Y-21746436D01*
X44607110Y-21724487D01*
X44607109Y-21724485D01*
X44586049Y-21703425D01*
X46551700Y-21703425D01*
X46551700Y-21848375D01*
X46557087Y-21868478D01*
X46589217Y-21988389D01*
X46661687Y-22113910D01*
X46661689Y-22113912D01*
X46661691Y-22113915D01*
X46764185Y-22216409D01*
X46764187Y-22216410D01*
X46764189Y-22216412D01*
X46889711Y-22288882D01*
X46889712Y-22288882D01*
X46889715Y-22288884D01*
X47029725Y-22326400D01*
X47029726Y-22326400D01*
X47174674Y-22326400D01*
X47174675Y-22326400D01*
X47314685Y-22288884D01*
X47314687Y-22288882D01*
X47314689Y-22288882D01*
X47440210Y-22216412D01*
X47440210Y-22216411D01*
X47440215Y-22216409D01*
X47542709Y-22113915D01*
X47564931Y-22075425D01*
X47615182Y-21988389D01*
X47615182Y-21988387D01*
X47615184Y-21988385D01*
X47652700Y-21848375D01*
X47652700Y-21703425D01*
X47615184Y-21563415D01*
X47615182Y-21563412D01*
X47615182Y-21563410D01*
X47542712Y-21437889D01*
X47542710Y-21437887D01*
X47542709Y-21437885D01*
X47538058Y-21433234D01*
X47510283Y-21378720D01*
X47519854Y-21318288D01*
X47563119Y-21275023D01*
X47623551Y-21265452D01*
X47633682Y-21267605D01*
X47734422Y-21294599D01*
X47734424Y-21294600D01*
X47734425Y-21294600D01*
X47879374Y-21294600D01*
X47879375Y-21294600D01*
X48019385Y-21257084D01*
X48019387Y-21257082D01*
X48019389Y-21257082D01*
X48144910Y-21184612D01*
X48144910Y-21184611D01*
X48144915Y-21184609D01*
X48247409Y-21082115D01*
X48247412Y-21082110D01*
X48319882Y-20956589D01*
X48319882Y-20956587D01*
X48319884Y-20956585D01*
X48357400Y-20816575D01*
X48357400Y-20671625D01*
X48319884Y-20531615D01*
X48319882Y-20531612D01*
X48319882Y-20531610D01*
X48247412Y-20406089D01*
X48247410Y-20406087D01*
X48247409Y-20406085D01*
X48194975Y-20353651D01*
X53712079Y-20353651D01*
X53712079Y-20521190D01*
X53744763Y-20685501D01*
X53744763Y-20685503D01*
X53808872Y-20840279D01*
X53808878Y-20840290D01*
X53852391Y-20905410D01*
X53901952Y-20979583D01*
X54020417Y-21098048D01*
X54092929Y-21146499D01*
X54159709Y-21191121D01*
X54159720Y-21191127D01*
X54185273Y-21201711D01*
X54314498Y-21255237D01*
X54478812Y-21287921D01*
X54478813Y-21287921D01*
X54646345Y-21287921D01*
X54646346Y-21287921D01*
X54810660Y-21255237D01*
X54965442Y-21191125D01*
X55104741Y-21098048D01*
X55506048Y-20696741D01*
X55599125Y-20557442D01*
X55663237Y-20402660D01*
X55695921Y-20238346D01*
X55695921Y-20212230D01*
X57445602Y-20212230D01*
X57445602Y-20379769D01*
X57478285Y-20544079D01*
X57478287Y-20544085D01*
X57542398Y-20698862D01*
X57559212Y-20724025D01*
X57635476Y-20838162D01*
X57753940Y-20956626D01*
X57893239Y-21049703D01*
X58048020Y-21113816D01*
X58212335Y-21146500D01*
X58212336Y-21146500D01*
X58379868Y-21146500D01*
X58379869Y-21146500D01*
X58544184Y-21113816D01*
X58698965Y-21049703D01*
X58838264Y-20956626D01*
X58956728Y-20838162D01*
X59049805Y-20698863D01*
X59113918Y-20544082D01*
X59146602Y-20379767D01*
X59146602Y-20212233D01*
X59113918Y-20047918D01*
X59049805Y-19893137D01*
X58956728Y-19753838D01*
X58838264Y-19635374D01*
X58698965Y-19542297D01*
X58698966Y-19542297D01*
X58698964Y-19542296D01*
X58544187Y-19478185D01*
X58544181Y-19478183D01*
X58379871Y-19445500D01*
X58379869Y-19445500D01*
X58212335Y-19445500D01*
X58212332Y-19445500D01*
X58048022Y-19478183D01*
X58048016Y-19478185D01*
X57893239Y-19542296D01*
X57753940Y-19635374D01*
X57753936Y-19635377D01*
X57635479Y-19753834D01*
X57635476Y-19753838D01*
X57542398Y-19893137D01*
X57478287Y-20047914D01*
X57478285Y-20047920D01*
X57445602Y-20212230D01*
X55695921Y-20212230D01*
X55695921Y-20070812D01*
X55663237Y-19906498D01*
X55600004Y-19753838D01*
X55599127Y-19751720D01*
X55599121Y-19751709D01*
X55521387Y-19635374D01*
X55506048Y-19612417D01*
X55387583Y-19493952D01*
X55315070Y-19445500D01*
X55248290Y-19400878D01*
X55248279Y-19400872D01*
X55093502Y-19336763D01*
X54929190Y-19304079D01*
X54929188Y-19304079D01*
X54761654Y-19304079D01*
X54761651Y-19304079D01*
X54597340Y-19336763D01*
X54597338Y-19336763D01*
X54442562Y-19400872D01*
X54442551Y-19400878D01*
X54303259Y-19493952D01*
X54303255Y-19493955D01*
X53901955Y-19895255D01*
X53901952Y-19895259D01*
X53808878Y-20034551D01*
X53808872Y-20034562D01*
X53744763Y-20189338D01*
X53744763Y-20189340D01*
X53712079Y-20353651D01*
X48194975Y-20353651D01*
X48144915Y-20303591D01*
X48144912Y-20303589D01*
X48144910Y-20303587D01*
X48019388Y-20231117D01*
X48019389Y-20231117D01*
X47948902Y-20212230D01*
X47879375Y-20193600D01*
X47734425Y-20193600D01*
X47672690Y-20210141D01*
X47594410Y-20231117D01*
X47468889Y-20303587D01*
X47366387Y-20406089D01*
X47293917Y-20531610D01*
X47279875Y-20584015D01*
X47256400Y-20671625D01*
X47256400Y-20816575D01*
X47279969Y-20904534D01*
X47293917Y-20956589D01*
X47366387Y-21082110D01*
X47366389Y-21082112D01*
X47366391Y-21082115D01*
X47371040Y-21086764D01*
X47398816Y-21141279D01*
X47389245Y-21201711D01*
X47345980Y-21244976D01*
X47285548Y-21254547D01*
X47275417Y-21252394D01*
X47174675Y-21225400D01*
X47029725Y-21225400D01*
X46986400Y-21237009D01*
X46889710Y-21262917D01*
X46764189Y-21335387D01*
X46661687Y-21437889D01*
X46589217Y-21563410D01*
X46573521Y-21621987D01*
X46551700Y-21703425D01*
X44586049Y-21703425D01*
X44504615Y-21621991D01*
X44504612Y-21621989D01*
X44504610Y-21621987D01*
X44379088Y-21549517D01*
X44379089Y-21549517D01*
X44349496Y-21541587D01*
X44239075Y-21512000D01*
X44094125Y-21512000D01*
X44032390Y-21528541D01*
X43954110Y-21549517D01*
X43828589Y-21621987D01*
X43726089Y-21724487D01*
X43673550Y-21815487D01*
X43628080Y-21856427D01*
X43567230Y-21862822D01*
X43538314Y-21851723D01*
X43453086Y-21802516D01*
X43383080Y-21783758D01*
X43313075Y-21765000D01*
X43168125Y-21765000D01*
X43106390Y-21781541D01*
X43028110Y-21802517D01*
X42902589Y-21874987D01*
X42800087Y-21977489D01*
X42727617Y-22103010D01*
X42702435Y-22196989D01*
X42690100Y-22243025D01*
X26268203Y-22243025D01*
X26294784Y-22196985D01*
X26332300Y-22056975D01*
X26332300Y-21912025D01*
X26294784Y-21772015D01*
X26294782Y-21772012D01*
X26294782Y-21772010D01*
X26222312Y-21646489D01*
X26222310Y-21646487D01*
X26222309Y-21646485D01*
X26119815Y-21543991D01*
X26119812Y-21543989D01*
X26119810Y-21543987D01*
X25994288Y-21471517D01*
X25994289Y-21471517D01*
X25903608Y-21447219D01*
X25854275Y-21434000D01*
X25709325Y-21434000D01*
X25660014Y-21447213D01*
X25569310Y-21471517D01*
X25443789Y-21543987D01*
X25341287Y-21646489D01*
X25268817Y-21772010D01*
X25231300Y-21912025D01*
X23799980Y-21912025D01*
X23793326Y-21900500D01*
X23741012Y-21809889D01*
X23741010Y-21809887D01*
X23741009Y-21809885D01*
X23638515Y-21707391D01*
X23638512Y-21707389D01*
X23638510Y-21707387D01*
X23512988Y-21634917D01*
X23512989Y-21634917D01*
X23464734Y-21621987D01*
X23372975Y-21597400D01*
X23228025Y-21597400D01*
X23166290Y-21613941D01*
X23088010Y-21634917D01*
X22962489Y-21707387D01*
X22859987Y-21809889D01*
X22787517Y-21935410D01*
X22750000Y-22075425D01*
X4550000Y-22075425D01*
X4550000Y-20427525D01*
X9969500Y-20427525D01*
X9969500Y-20572474D01*
X10007017Y-20712489D01*
X10079487Y-20838010D01*
X10079489Y-20838012D01*
X10079491Y-20838015D01*
X10181985Y-20940509D01*
X10181987Y-20940510D01*
X10181989Y-20940512D01*
X10307511Y-21012982D01*
X10307512Y-21012982D01*
X10307515Y-21012984D01*
X10447525Y-21050500D01*
X10447526Y-21050500D01*
X10592474Y-21050500D01*
X10592475Y-21050500D01*
X10732485Y-21012984D01*
X10732487Y-21012982D01*
X10732489Y-21012982D01*
X10858010Y-20940512D01*
X10858010Y-20940511D01*
X10858015Y-20940509D01*
X10960509Y-20838015D01*
X10961725Y-20835909D01*
X11032982Y-20712489D01*
X11032982Y-20712487D01*
X11032984Y-20712485D01*
X11070500Y-20572475D01*
X11070500Y-20427525D01*
X11059996Y-20388325D01*
X19359300Y-20388325D01*
X19359300Y-20533275D01*
X19369804Y-20572475D01*
X19396817Y-20673289D01*
X19469287Y-20798810D01*
X19469289Y-20798812D01*
X19469291Y-20798815D01*
X19571785Y-20901309D01*
X19571787Y-20901310D01*
X19571789Y-20901312D01*
X19697311Y-20973782D01*
X19697312Y-20973782D01*
X19697315Y-20973784D01*
X19837325Y-21011300D01*
X19837326Y-21011300D01*
X19982274Y-21011300D01*
X19982275Y-21011300D01*
X20122285Y-20973784D01*
X20122287Y-20973782D01*
X20122289Y-20973782D01*
X20247810Y-20901312D01*
X20247810Y-20901311D01*
X20247815Y-20901309D01*
X20350309Y-20798815D01*
X20393489Y-20724025D01*
X20422782Y-20673289D01*
X20422782Y-20673287D01*
X20422784Y-20673285D01*
X20460300Y-20533275D01*
X20460300Y-20497644D01*
X26699500Y-20497644D01*
X26699500Y-20702355D01*
X26731521Y-20904529D01*
X26794780Y-21099219D01*
X26887712Y-21281609D01*
X26887714Y-21281613D01*
X27008029Y-21447213D01*
X27008031Y-21447215D01*
X27008034Y-21447219D01*
X27152781Y-21591966D01*
X27152784Y-21591968D01*
X27152786Y-21591970D01*
X27318386Y-21712285D01*
X27318390Y-21712287D01*
X27500781Y-21805220D01*
X27695466Y-21868477D01*
X27695467Y-21868477D01*
X27695470Y-21868478D01*
X27897645Y-21900500D01*
X27897648Y-21900500D01*
X28102355Y-21900500D01*
X28304529Y-21868478D01*
X28304530Y-21868477D01*
X28304534Y-21868477D01*
X28499219Y-21805220D01*
X28681610Y-21712287D01*
X28688355Y-21707387D01*
X28772179Y-21646485D01*
X28847219Y-21591966D01*
X28991966Y-21447219D01*
X29112287Y-21281610D01*
X29205220Y-21099219D01*
X29268477Y-20904534D01*
X29268988Y-20901312D01*
X29297067Y-20724025D01*
X38496100Y-20724025D01*
X38496100Y-20868974D01*
X38533617Y-21008989D01*
X38606087Y-21134510D01*
X38606089Y-21134512D01*
X38606091Y-21134515D01*
X38708585Y-21237009D01*
X38708587Y-21237010D01*
X38708589Y-21237012D01*
X38834111Y-21309482D01*
X38834112Y-21309482D01*
X38834115Y-21309484D01*
X38974125Y-21347000D01*
X38974126Y-21347000D01*
X39119074Y-21347000D01*
X39119075Y-21347000D01*
X39259085Y-21309484D01*
X39259087Y-21309482D01*
X39259089Y-21309482D01*
X39384610Y-21237012D01*
X39384610Y-21237011D01*
X39384615Y-21237009D01*
X39487109Y-21134515D01*
X39535615Y-21050500D01*
X39559582Y-21008989D01*
X39559582Y-21008987D01*
X39559584Y-21008985D01*
X39597100Y-20868975D01*
X39597100Y-20724025D01*
X39559584Y-20584015D01*
X39559582Y-20584012D01*
X39559582Y-20584010D01*
X39487112Y-20458489D01*
X39487110Y-20458487D01*
X39487109Y-20458485D01*
X39384615Y-20355991D01*
X39384612Y-20355989D01*
X39384610Y-20355987D01*
X39327345Y-20322925D01*
X43070400Y-20322925D01*
X43070400Y-20467874D01*
X43107917Y-20607889D01*
X43180387Y-20733410D01*
X43180389Y-20733412D01*
X43180391Y-20733415D01*
X43282885Y-20835909D01*
X43282887Y-20835910D01*
X43282889Y-20835912D01*
X43408411Y-20908382D01*
X43408412Y-20908382D01*
X43408415Y-20908384D01*
X43548425Y-20945900D01*
X43548426Y-20945900D01*
X43693374Y-20945900D01*
X43693375Y-20945900D01*
X43833385Y-20908384D01*
X43833387Y-20908382D01*
X43833389Y-20908382D01*
X43958910Y-20835912D01*
X43958910Y-20835911D01*
X43958915Y-20835909D01*
X44061409Y-20733415D01*
X44082583Y-20696741D01*
X44133882Y-20607889D01*
X44133882Y-20607887D01*
X44133884Y-20607885D01*
X44164152Y-20494925D01*
X44607200Y-20494925D01*
X44607200Y-20639875D01*
X44622438Y-20696744D01*
X44644717Y-20779889D01*
X44717187Y-20905410D01*
X44717189Y-20905412D01*
X44717191Y-20905415D01*
X44819685Y-21007909D01*
X44819687Y-21007910D01*
X44819689Y-21007912D01*
X44945211Y-21080382D01*
X44945212Y-21080382D01*
X44945215Y-21080384D01*
X45085225Y-21117900D01*
X45085226Y-21117900D01*
X45230174Y-21117900D01*
X45230175Y-21117900D01*
X45370185Y-21080384D01*
X45370187Y-21080382D01*
X45370189Y-21080382D01*
X45495710Y-21007912D01*
X45495710Y-21007911D01*
X45495715Y-21007909D01*
X45598209Y-20905415D01*
X45635813Y-20840284D01*
X45670682Y-20779889D01*
X45670682Y-20779887D01*
X45670684Y-20779885D01*
X45708200Y-20639875D01*
X45708200Y-20494925D01*
X45670684Y-20354915D01*
X45670682Y-20354912D01*
X45670682Y-20354910D01*
X45598212Y-20229389D01*
X45598210Y-20229387D01*
X45598209Y-20229385D01*
X45495715Y-20126891D01*
X45495712Y-20126889D01*
X45495710Y-20126887D01*
X45370188Y-20054417D01*
X45370189Y-20054417D01*
X45340596Y-20046487D01*
X45230175Y-20016900D01*
X45085225Y-20016900D01*
X45023490Y-20033441D01*
X44945210Y-20054417D01*
X44819689Y-20126887D01*
X44717187Y-20229389D01*
X44644717Y-20354910D01*
X44631922Y-20402661D01*
X44607200Y-20494925D01*
X44164152Y-20494925D01*
X44171400Y-20467875D01*
X44171400Y-20322925D01*
X44133884Y-20182915D01*
X44133882Y-20182912D01*
X44133882Y-20182910D01*
X44061412Y-20057389D01*
X44061410Y-20057387D01*
X44061409Y-20057385D01*
X43958915Y-19954891D01*
X43958912Y-19954889D01*
X43958910Y-19954887D01*
X43833388Y-19882417D01*
X43833389Y-19882417D01*
X43781917Y-19868625D01*
X43693375Y-19844900D01*
X43548425Y-19844900D01*
X43486690Y-19861441D01*
X43408410Y-19882417D01*
X43282889Y-19954887D01*
X43180387Y-20057389D01*
X43107917Y-20182910D01*
X43070400Y-20322925D01*
X39327345Y-20322925D01*
X39259088Y-20283517D01*
X39259089Y-20283517D01*
X39229496Y-20275587D01*
X39119075Y-20246000D01*
X38974125Y-20246000D01*
X38912390Y-20262541D01*
X38834110Y-20283517D01*
X38708589Y-20355987D01*
X38606087Y-20458489D01*
X38533617Y-20584010D01*
X38496100Y-20724025D01*
X29297067Y-20724025D01*
X29300500Y-20702352D01*
X29300500Y-20497644D01*
X29268478Y-20295470D01*
X29268477Y-20295466D01*
X29205220Y-20100781D01*
X29112287Y-19918390D01*
X29112285Y-19918386D01*
X28991970Y-19752786D01*
X28991968Y-19752784D01*
X28991966Y-19752781D01*
X28847219Y-19608034D01*
X28847215Y-19608031D01*
X28847213Y-19608029D01*
X28681613Y-19487714D01*
X28681609Y-19487712D01*
X28499219Y-19394780D01*
X28304529Y-19331521D01*
X28102355Y-19299500D01*
X28102352Y-19299500D01*
X27897648Y-19299500D01*
X27897645Y-19299500D01*
X27695470Y-19331521D01*
X27500780Y-19394780D01*
X27318390Y-19487712D01*
X27318386Y-19487714D01*
X27152786Y-19608029D01*
X27008029Y-19752786D01*
X26887714Y-19918386D01*
X26887712Y-19918390D01*
X26794780Y-20100780D01*
X26731521Y-20295470D01*
X26699500Y-20497644D01*
X20460300Y-20497644D01*
X20460300Y-20388325D01*
X20422784Y-20248315D01*
X20422782Y-20248312D01*
X20422782Y-20248310D01*
X20350312Y-20122789D01*
X20350310Y-20122787D01*
X20350309Y-20122785D01*
X20247815Y-20020291D01*
X20247812Y-20020289D01*
X20247810Y-20020287D01*
X20122288Y-19947817D01*
X20122289Y-19947817D01*
X20092696Y-19939887D01*
X19982275Y-19910300D01*
X19837325Y-19910300D01*
X19775590Y-19926841D01*
X19697310Y-19947817D01*
X19571789Y-20020287D01*
X19469287Y-20122789D01*
X19396817Y-20248310D01*
X19376824Y-20322925D01*
X19359300Y-20388325D01*
X11059996Y-20388325D01*
X11032984Y-20287515D01*
X11030676Y-20283517D01*
X10960512Y-20161989D01*
X10960510Y-20161987D01*
X10960509Y-20161985D01*
X10858015Y-20059491D01*
X10858012Y-20059489D01*
X10858010Y-20059487D01*
X10732488Y-19987017D01*
X10732489Y-19987017D01*
X10702896Y-19979087D01*
X10592475Y-19949500D01*
X10447525Y-19949500D01*
X10427421Y-19954887D01*
X10307510Y-19987017D01*
X10181989Y-20059487D01*
X10079487Y-20161989D01*
X10007017Y-20287510D01*
X9969500Y-20427525D01*
X4550000Y-20427525D01*
X4550000Y-19286225D01*
X20533800Y-19286225D01*
X20533800Y-19431175D01*
X20548950Y-19487714D01*
X20571317Y-19571189D01*
X20643787Y-19696710D01*
X20643789Y-19696712D01*
X20643791Y-19696715D01*
X20746285Y-19799209D01*
X20746287Y-19799210D01*
X20746289Y-19799212D01*
X20871811Y-19871682D01*
X20871812Y-19871682D01*
X20871815Y-19871684D01*
X21011825Y-19909200D01*
X21011826Y-19909200D01*
X21156774Y-19909200D01*
X21156775Y-19909200D01*
X21296785Y-19871684D01*
X21296787Y-19871682D01*
X21296789Y-19871682D01*
X21302084Y-19868625D01*
X25487300Y-19868625D01*
X25487300Y-20013575D01*
X25498244Y-20054417D01*
X25524817Y-20153589D01*
X25597287Y-20279110D01*
X25597289Y-20279112D01*
X25597291Y-20279115D01*
X25699785Y-20381609D01*
X25699787Y-20381610D01*
X25699789Y-20381612D01*
X25825311Y-20454082D01*
X25825312Y-20454082D01*
X25825315Y-20454084D01*
X25965325Y-20491600D01*
X25965326Y-20491600D01*
X26110274Y-20491600D01*
X26110275Y-20491600D01*
X26250285Y-20454084D01*
X26250287Y-20454082D01*
X26250289Y-20454082D01*
X26330068Y-20408022D01*
X26375810Y-20381612D01*
X26375810Y-20381611D01*
X26375815Y-20381609D01*
X26478309Y-20279115D01*
X26478312Y-20279110D01*
X26550782Y-20153589D01*
X26550782Y-20153587D01*
X26550784Y-20153585D01*
X26588300Y-20013575D01*
X26588300Y-19868625D01*
X26550784Y-19728615D01*
X26550782Y-19728612D01*
X26550782Y-19728610D01*
X26478312Y-19603089D01*
X26478310Y-19603087D01*
X26478309Y-19603085D01*
X26375815Y-19500591D01*
X26375812Y-19500589D01*
X26375810Y-19500587D01*
X26250288Y-19428117D01*
X26250289Y-19428117D01*
X26220696Y-19420187D01*
X26110275Y-19390600D01*
X25965325Y-19390600D01*
X25903590Y-19407141D01*
X25825310Y-19428117D01*
X25699789Y-19500587D01*
X25597287Y-19603089D01*
X25524817Y-19728610D01*
X25505899Y-19799212D01*
X25487300Y-19868625D01*
X21302084Y-19868625D01*
X21422310Y-19799212D01*
X21422310Y-19799211D01*
X21422315Y-19799209D01*
X21524809Y-19696715D01*
X21560223Y-19635377D01*
X21597282Y-19571189D01*
X21597282Y-19571187D01*
X21597284Y-19571185D01*
X21634800Y-19431175D01*
X21634800Y-19286225D01*
X21597284Y-19146215D01*
X21597282Y-19146212D01*
X21597282Y-19146210D01*
X21524812Y-19020689D01*
X21524810Y-19020687D01*
X21524809Y-19020685D01*
X21422315Y-18918191D01*
X21422312Y-18918189D01*
X21422310Y-18918187D01*
X21296788Y-18845717D01*
X21296789Y-18845717D01*
X21267196Y-18837787D01*
X21156775Y-18808200D01*
X21011825Y-18808200D01*
X20950090Y-18824741D01*
X20871810Y-18845717D01*
X20746289Y-18918187D01*
X20643787Y-19020689D01*
X20571317Y-19146210D01*
X20559588Y-19189984D01*
X20533800Y-19286225D01*
X4550000Y-19286225D01*
X4550000Y-17827525D01*
X16049500Y-17827525D01*
X16049500Y-17972475D01*
X16070456Y-18050682D01*
X16087017Y-18112489D01*
X16159487Y-18238010D01*
X16159489Y-18238012D01*
X16159491Y-18238015D01*
X16261985Y-18340509D01*
X16261987Y-18340510D01*
X16261989Y-18340512D01*
X16387511Y-18412982D01*
X16387512Y-18412982D01*
X16387515Y-18412984D01*
X16527525Y-18450500D01*
X16527526Y-18450500D01*
X16672474Y-18450500D01*
X16672475Y-18450500D01*
X16812485Y-18412984D01*
X16812487Y-18412982D01*
X16812489Y-18412982D01*
X16921360Y-18350125D01*
X41336900Y-18350125D01*
X41336900Y-18495075D01*
X41366227Y-18604525D01*
X41374417Y-18635089D01*
X41446887Y-18760610D01*
X41446889Y-18760612D01*
X41446891Y-18760615D01*
X41549385Y-18863109D01*
X41549387Y-18863110D01*
X41549389Y-18863112D01*
X41674911Y-18935582D01*
X41674912Y-18935582D01*
X41674915Y-18935584D01*
X41814925Y-18973100D01*
X41814926Y-18973100D01*
X41959874Y-18973100D01*
X41959875Y-18973100D01*
X42099885Y-18935584D01*
X42099887Y-18935582D01*
X42099889Y-18935582D01*
X42225410Y-18863112D01*
X42225410Y-18863111D01*
X42225415Y-18863109D01*
X42327909Y-18760615D01*
X42400384Y-18635085D01*
X42408573Y-18604525D01*
X43260200Y-18604525D01*
X43260200Y-18749475D01*
X43285988Y-18845716D01*
X43297717Y-18889489D01*
X43370187Y-19015010D01*
X43370189Y-19015012D01*
X43370191Y-19015015D01*
X43472685Y-19117509D01*
X43472687Y-19117510D01*
X43472689Y-19117512D01*
X43598211Y-19189982D01*
X43598212Y-19189982D01*
X43598215Y-19189984D01*
X43738225Y-19227500D01*
X43738226Y-19227500D01*
X43883174Y-19227500D01*
X43883175Y-19227500D01*
X44023185Y-19189984D01*
X44023187Y-19189982D01*
X44023189Y-19189982D01*
X44148710Y-19117512D01*
X44148710Y-19117511D01*
X44148715Y-19117509D01*
X44251209Y-19015015D01*
X44323684Y-18889485D01*
X44361200Y-18749475D01*
X44361200Y-18604525D01*
X44323684Y-18464515D01*
X44323682Y-18464512D01*
X44323682Y-18464510D01*
X44251212Y-18338989D01*
X44251210Y-18338987D01*
X44251209Y-18338985D01*
X44148715Y-18236491D01*
X44148712Y-18236489D01*
X44148710Y-18236487D01*
X44023188Y-18164017D01*
X44023189Y-18164017D01*
X43954120Y-18145510D01*
X43883175Y-18126500D01*
X43738225Y-18126500D01*
X43676490Y-18143041D01*
X43598210Y-18164017D01*
X43472689Y-18236487D01*
X43370187Y-18338989D01*
X43297717Y-18464510D01*
X43289527Y-18495075D01*
X43260200Y-18604525D01*
X42408573Y-18604525D01*
X42437900Y-18495075D01*
X42437900Y-18350125D01*
X42400384Y-18210115D01*
X42400382Y-18210112D01*
X42400382Y-18210110D01*
X42327912Y-18084589D01*
X42327910Y-18084587D01*
X42327909Y-18084585D01*
X42225415Y-17982091D01*
X42225412Y-17982089D01*
X42225410Y-17982087D01*
X42099888Y-17909617D01*
X42099889Y-17909617D01*
X42070296Y-17901687D01*
X41959875Y-17872100D01*
X41814925Y-17872100D01*
X41753190Y-17888641D01*
X41674910Y-17909617D01*
X41549389Y-17982087D01*
X41446887Y-18084589D01*
X41374417Y-18210110D01*
X41367348Y-18236491D01*
X41336900Y-18350125D01*
X16921360Y-18350125D01*
X16938010Y-18340512D01*
X16938010Y-18340511D01*
X16938015Y-18340509D01*
X17040509Y-18238015D01*
X17083232Y-18164017D01*
X17112982Y-18112489D01*
X17112982Y-18112487D01*
X17112984Y-18112485D01*
X17150500Y-17972475D01*
X17150500Y-17827525D01*
X17112984Y-17687515D01*
X17112982Y-17687512D01*
X17112982Y-17687510D01*
X17040512Y-17561989D01*
X17040510Y-17561987D01*
X17040509Y-17561985D01*
X16943749Y-17465225D01*
X19641900Y-17465225D01*
X19641900Y-17610175D01*
X19666749Y-17702911D01*
X19679417Y-17750189D01*
X19751887Y-17875710D01*
X19751889Y-17875712D01*
X19751891Y-17875715D01*
X19854385Y-17978209D01*
X19854387Y-17978210D01*
X19854389Y-17978212D01*
X19979911Y-18050682D01*
X19979912Y-18050682D01*
X19979915Y-18050684D01*
X20119925Y-18088200D01*
X20119926Y-18088200D01*
X20264874Y-18088200D01*
X20264875Y-18088200D01*
X20404885Y-18050684D01*
X20404887Y-18050682D01*
X20404889Y-18050682D01*
X20530410Y-17978212D01*
X20530410Y-17978211D01*
X20530415Y-17978209D01*
X20632909Y-17875715D01*
X20705384Y-17750185D01*
X20709446Y-17735025D01*
X46588400Y-17735025D01*
X46588400Y-17879975D01*
X46596343Y-17909617D01*
X46625917Y-18019989D01*
X46698387Y-18145510D01*
X46698389Y-18145512D01*
X46698391Y-18145515D01*
X46800885Y-18248009D01*
X46800887Y-18248010D01*
X46800889Y-18248012D01*
X46926411Y-18320482D01*
X46926412Y-18320482D01*
X46926415Y-18320484D01*
X47066425Y-18358000D01*
X47066426Y-18358000D01*
X47211374Y-18358000D01*
X47211375Y-18358000D01*
X47351385Y-18320484D01*
X47351387Y-18320482D01*
X47351389Y-18320482D01*
X47476910Y-18248012D01*
X47476910Y-18248011D01*
X47476915Y-18248009D01*
X47579409Y-18145515D01*
X47651884Y-18019985D01*
X47689400Y-17879975D01*
X47689400Y-17735025D01*
X47664239Y-17641123D01*
X47667440Y-17580022D01*
X47705945Y-17532472D01*
X47759865Y-17516500D01*
X47789974Y-17516500D01*
X47789975Y-17516500D01*
X47929985Y-17478984D01*
X47929987Y-17478982D01*
X47929989Y-17478982D01*
X48055510Y-17406512D01*
X48055510Y-17406511D01*
X48055515Y-17406509D01*
X48158009Y-17304015D01*
X48173252Y-17277613D01*
X48230482Y-17178489D01*
X48230482Y-17178487D01*
X48230484Y-17178485D01*
X48268000Y-17038475D01*
X48268000Y-16893525D01*
X48230484Y-16753515D01*
X48228441Y-16749976D01*
X48158012Y-16627989D01*
X48158010Y-16627987D01*
X48158009Y-16627985D01*
X48058922Y-16528898D01*
X53821176Y-16528898D01*
X54400891Y-16528898D01*
X54377852Y-16568803D01*
X54354000Y-16657820D01*
X54354000Y-16749976D01*
X54377852Y-16838993D01*
X54400891Y-16878898D01*
X53821177Y-16878898D01*
X53838586Y-16966417D01*
X53838586Y-16966419D01*
X53906429Y-17130206D01*
X54004923Y-17277613D01*
X54130284Y-17402974D01*
X54277691Y-17501468D01*
X54441473Y-17569309D01*
X54441484Y-17569312D01*
X54529000Y-17586719D01*
X54529000Y-17007007D01*
X54568905Y-17030046D01*
X54657922Y-17053898D01*
X54750078Y-17053898D01*
X54839095Y-17030046D01*
X54879000Y-17007007D01*
X54879000Y-17586718D01*
X54966515Y-17569312D01*
X54966526Y-17569309D01*
X55130308Y-17501468D01*
X55277715Y-17402974D01*
X55403076Y-17277613D01*
X55501570Y-17130206D01*
X55569413Y-16966419D01*
X55569413Y-16966417D01*
X55586823Y-16878898D01*
X55007109Y-16878898D01*
X55030148Y-16838993D01*
X55054000Y-16749976D01*
X55054000Y-16657820D01*
X55043900Y-16620128D01*
X57445602Y-16620128D01*
X57445602Y-16787667D01*
X57478285Y-16951977D01*
X57478287Y-16951983D01*
X57542398Y-17106760D01*
X57559514Y-17132376D01*
X57635476Y-17246060D01*
X57753940Y-17364524D01*
X57893239Y-17457601D01*
X58048020Y-17521714D01*
X58212335Y-17554398D01*
X58212336Y-17554398D01*
X58379868Y-17554398D01*
X58379869Y-17554398D01*
X58544184Y-17521714D01*
X58698965Y-17457601D01*
X58838264Y-17364524D01*
X58956728Y-17246060D01*
X59049805Y-17106761D01*
X59113918Y-16951980D01*
X59146602Y-16787665D01*
X59146602Y-16620131D01*
X59113918Y-16455816D01*
X59049805Y-16301035D01*
X58956728Y-16161736D01*
X58838264Y-16043272D01*
X58701831Y-15952110D01*
X58698964Y-15950194D01*
X58544187Y-15886083D01*
X58544181Y-15886081D01*
X58379871Y-15853398D01*
X58379869Y-15853398D01*
X58212335Y-15853398D01*
X58212332Y-15853398D01*
X58048022Y-15886081D01*
X58048016Y-15886083D01*
X57893239Y-15950194D01*
X57753940Y-16043272D01*
X57753936Y-16043275D01*
X57635479Y-16161732D01*
X57635476Y-16161736D01*
X57542398Y-16301035D01*
X57478287Y-16455812D01*
X57478285Y-16455818D01*
X57445602Y-16620128D01*
X55043900Y-16620128D01*
X55030148Y-16568803D01*
X55007109Y-16528898D01*
X55586823Y-16528898D01*
X55569413Y-16441378D01*
X55569413Y-16441376D01*
X55501570Y-16277589D01*
X55403076Y-16130182D01*
X55277715Y-16004821D01*
X55130308Y-15906327D01*
X54966520Y-15838484D01*
X54879000Y-15821075D01*
X54879000Y-16400789D01*
X54839095Y-16377750D01*
X54750078Y-16353898D01*
X54657922Y-16353898D01*
X54568905Y-16377750D01*
X54529000Y-16400789D01*
X54529000Y-15821075D01*
X54441480Y-15838484D01*
X54441478Y-15838484D01*
X54277691Y-15906327D01*
X54130284Y-16004821D01*
X54004923Y-16130182D01*
X53906429Y-16277589D01*
X53838586Y-16441376D01*
X53838586Y-16441378D01*
X53821176Y-16528898D01*
X48058922Y-16528898D01*
X48055515Y-16525491D01*
X48055512Y-16525489D01*
X48055510Y-16525487D01*
X47929988Y-16453017D01*
X47929989Y-16453017D01*
X47852579Y-16432275D01*
X47789975Y-16415500D01*
X47645025Y-16415500D01*
X47613945Y-16423828D01*
X47505010Y-16453017D01*
X47379489Y-16525487D01*
X47276987Y-16627989D01*
X47204517Y-16753510D01*
X47167000Y-16893525D01*
X47167000Y-17038477D01*
X47192161Y-17132376D01*
X47188960Y-17193478D01*
X47150455Y-17241028D01*
X47096535Y-17257000D01*
X47066425Y-17257000D01*
X47020913Y-17269195D01*
X46926410Y-17294517D01*
X46800889Y-17366987D01*
X46698387Y-17469489D01*
X46625917Y-17595010D01*
X46625916Y-17595015D01*
X46588400Y-17735025D01*
X20709446Y-17735025D01*
X20742900Y-17610175D01*
X20742900Y-17465225D01*
X20705384Y-17325215D01*
X20705382Y-17325212D01*
X20705382Y-17325210D01*
X20632912Y-17199689D01*
X20632910Y-17199687D01*
X20632909Y-17199685D01*
X20530415Y-17097191D01*
X20530412Y-17097189D01*
X20530410Y-17097187D01*
X20404888Y-17024717D01*
X20404889Y-17024717D01*
X20375296Y-17016787D01*
X20264875Y-16987200D01*
X20119925Y-16987200D01*
X20058190Y-17003741D01*
X19979910Y-17024717D01*
X19854389Y-17097187D01*
X19751887Y-17199689D01*
X19679417Y-17325210D01*
X19643436Y-17459491D01*
X19641900Y-17465225D01*
X16943749Y-17465225D01*
X16938015Y-17459491D01*
X16938012Y-17459489D01*
X16938010Y-17459487D01*
X16812488Y-17387017D01*
X16812489Y-17387017D01*
X16782896Y-17379087D01*
X16672475Y-17349500D01*
X16527525Y-17349500D01*
X16471470Y-17364520D01*
X16387510Y-17387017D01*
X16261989Y-17459487D01*
X16159487Y-17561989D01*
X16087017Y-17687510D01*
X16070223Y-17750185D01*
X16049500Y-17827525D01*
X4550000Y-17827525D01*
X4550000Y-16287325D01*
X11006100Y-16287325D01*
X11006100Y-16432275D01*
X11019132Y-16480910D01*
X11043617Y-16572289D01*
X11116087Y-16697810D01*
X11116089Y-16697812D01*
X11116091Y-16697815D01*
X11218585Y-16800309D01*
X11218587Y-16800310D01*
X11218589Y-16800312D01*
X11344111Y-16872782D01*
X11344112Y-16872782D01*
X11344115Y-16872784D01*
X11484125Y-16910300D01*
X11484126Y-16910300D01*
X11629074Y-16910300D01*
X11629075Y-16910300D01*
X11769085Y-16872784D01*
X11769087Y-16872782D01*
X11769089Y-16872782D01*
X11894610Y-16800312D01*
X11894610Y-16800311D01*
X11894615Y-16800309D01*
X11997109Y-16697815D01*
X12037691Y-16627525D01*
X15199500Y-16627525D01*
X15199500Y-16772475D01*
X15226378Y-16872784D01*
X15237017Y-16912489D01*
X15309487Y-17038010D01*
X15309489Y-17038012D01*
X15309491Y-17038015D01*
X15411985Y-17140509D01*
X15411987Y-17140510D01*
X15411989Y-17140512D01*
X15537511Y-17212982D01*
X15537512Y-17212982D01*
X15537515Y-17212984D01*
X15677525Y-17250500D01*
X15677526Y-17250500D01*
X15822474Y-17250500D01*
X15822475Y-17250500D01*
X15962485Y-17212984D01*
X15962487Y-17212982D01*
X15962489Y-17212982D01*
X16088010Y-17140512D01*
X16088010Y-17140511D01*
X16088015Y-17140509D01*
X16190509Y-17038015D01*
X16240180Y-16951983D01*
X16262982Y-16912489D01*
X16262982Y-16912487D01*
X16262984Y-16912485D01*
X16300500Y-16772475D01*
X16300500Y-16627525D01*
X16262984Y-16487515D01*
X16262982Y-16487512D01*
X16262982Y-16487510D01*
X16190512Y-16361989D01*
X16190510Y-16361987D01*
X16190509Y-16361985D01*
X16088015Y-16259491D01*
X16088012Y-16259489D01*
X16088010Y-16259487D01*
X15962488Y-16187017D01*
X15962489Y-16187017D01*
X15932896Y-16179087D01*
X15822475Y-16149500D01*
X15677525Y-16149500D01*
X15631875Y-16161732D01*
X15537510Y-16187017D01*
X15411989Y-16259487D01*
X15309487Y-16361989D01*
X15237017Y-16487510D01*
X15211321Y-16583409D01*
X15199500Y-16627525D01*
X12037691Y-16627525D01*
X12069584Y-16572285D01*
X12107100Y-16432275D01*
X12107100Y-16287325D01*
X12069584Y-16147315D01*
X12069582Y-16147312D01*
X12069582Y-16147310D01*
X11997112Y-16021789D01*
X11997110Y-16021787D01*
X11997109Y-16021785D01*
X11894615Y-15919291D01*
X11894612Y-15919289D01*
X11894610Y-15919287D01*
X11769090Y-15846818D01*
X11769087Y-15846817D01*
X11769085Y-15846816D01*
X11701708Y-15828762D01*
X11672656Y-15820977D01*
X11629075Y-15809300D01*
X11484125Y-15809300D01*
X11440181Y-15821075D01*
X11344110Y-15846817D01*
X11218589Y-15919287D01*
X11116087Y-16021789D01*
X11043617Y-16147310D01*
X11018142Y-16242384D01*
X11006100Y-16287325D01*
X4550000Y-16287325D01*
X4550000Y-15739625D01*
X22790400Y-15739625D01*
X22790400Y-15884575D01*
X22815487Y-15978199D01*
X22827917Y-16024589D01*
X22900387Y-16150110D01*
X22900389Y-16150112D01*
X22900391Y-16150115D01*
X23002885Y-16252609D01*
X23002887Y-16252610D01*
X23002889Y-16252612D01*
X23128411Y-16325082D01*
X23128412Y-16325082D01*
X23128415Y-16325084D01*
X23268425Y-16362600D01*
X23268426Y-16362600D01*
X23413374Y-16362600D01*
X23413375Y-16362600D01*
X23553385Y-16325084D01*
X23553387Y-16325082D01*
X23553389Y-16325082D01*
X23678910Y-16252612D01*
X23678910Y-16252611D01*
X23678915Y-16252609D01*
X23781409Y-16150115D01*
X23783026Y-16147315D01*
X23853882Y-16024589D01*
X23853882Y-16024587D01*
X23853884Y-16024585D01*
X23891400Y-15884575D01*
X23891400Y-15739625D01*
X23869240Y-15656925D01*
X25455100Y-15656925D01*
X25455100Y-15801875D01*
X25477664Y-15886083D01*
X25492617Y-15941889D01*
X25565087Y-16067410D01*
X25565089Y-16067412D01*
X25565091Y-16067415D01*
X25667585Y-16169909D01*
X25667587Y-16169910D01*
X25667589Y-16169912D01*
X25793111Y-16242382D01*
X25793112Y-16242382D01*
X25793115Y-16242384D01*
X25933125Y-16279900D01*
X25933126Y-16279900D01*
X26078074Y-16279900D01*
X26078075Y-16279900D01*
X26218085Y-16242384D01*
X26218087Y-16242382D01*
X26218089Y-16242382D01*
X26343610Y-16169912D01*
X26343610Y-16169911D01*
X26343615Y-16169909D01*
X26446109Y-16067415D01*
X26497619Y-15978198D01*
X26518582Y-15941889D01*
X26518582Y-15941887D01*
X26518584Y-15941885D01*
X26556100Y-15801875D01*
X26556100Y-15656925D01*
X26519882Y-15521759D01*
X26519882Y-15521756D01*
X26518585Y-15516918D01*
X26518582Y-15516911D01*
X26510334Y-15502625D01*
X29397200Y-15502625D01*
X29397200Y-15647575D01*
X29409776Y-15694510D01*
X29434717Y-15787589D01*
X29507187Y-15913110D01*
X29507189Y-15913112D01*
X29507191Y-15913115D01*
X29609685Y-16015609D01*
X29609687Y-16015610D01*
X29609689Y-16015612D01*
X29735211Y-16088082D01*
X29735212Y-16088082D01*
X29735215Y-16088084D01*
X29875225Y-16125600D01*
X29875226Y-16125600D01*
X30020174Y-16125600D01*
X30020175Y-16125600D01*
X30160185Y-16088084D01*
X30160187Y-16088082D01*
X30160189Y-16088082D01*
X30190772Y-16070425D01*
X41840400Y-16070425D01*
X41840400Y-16215375D01*
X41857690Y-16279900D01*
X41877917Y-16355389D01*
X41950387Y-16480910D01*
X41950389Y-16480912D01*
X41950391Y-16480915D01*
X42052885Y-16583409D01*
X42052887Y-16583410D01*
X42052889Y-16583412D01*
X42178411Y-16655882D01*
X42178412Y-16655882D01*
X42178415Y-16655884D01*
X42318425Y-16693400D01*
X42318426Y-16693400D01*
X42463374Y-16693400D01*
X42463375Y-16693400D01*
X42603385Y-16655884D01*
X42603387Y-16655882D01*
X42603389Y-16655882D01*
X42728910Y-16583412D01*
X42728910Y-16583411D01*
X42728915Y-16583409D01*
X42831409Y-16480915D01*
X42854237Y-16441376D01*
X42903882Y-16355389D01*
X42903882Y-16355387D01*
X42903884Y-16355385D01*
X42941400Y-16215375D01*
X42941400Y-16070425D01*
X42903884Y-15930415D01*
X42903882Y-15930412D01*
X42903882Y-15930410D01*
X42831412Y-15804889D01*
X42831410Y-15804887D01*
X42831409Y-15804885D01*
X42728915Y-15702391D01*
X42728912Y-15702389D01*
X42728910Y-15702387D01*
X42603388Y-15629917D01*
X42603389Y-15629917D01*
X42490301Y-15599615D01*
X42463375Y-15592400D01*
X42318425Y-15592400D01*
X42291499Y-15599615D01*
X42178410Y-15629917D01*
X42052889Y-15702387D01*
X41950387Y-15804889D01*
X41877917Y-15930410D01*
X41872102Y-15952112D01*
X41840400Y-16070425D01*
X30190772Y-16070425D01*
X30285710Y-16015612D01*
X30285710Y-16015611D01*
X30285715Y-16015609D01*
X30388209Y-15913115D01*
X30404687Y-15884574D01*
X30460682Y-15787589D01*
X30460682Y-15787587D01*
X30460684Y-15787585D01*
X30498200Y-15647575D01*
X30498200Y-15502625D01*
X30486312Y-15458258D01*
X30486312Y-15458256D01*
X30481186Y-15439125D01*
X39235500Y-15439125D01*
X39235500Y-15584075D01*
X39252515Y-15647574D01*
X39273017Y-15724089D01*
X39345487Y-15849610D01*
X39345489Y-15849612D01*
X39345491Y-15849615D01*
X39447985Y-15952109D01*
X39447987Y-15952110D01*
X39447989Y-15952112D01*
X39573511Y-16024582D01*
X39573512Y-16024582D01*
X39573515Y-16024584D01*
X39713525Y-16062100D01*
X39713526Y-16062100D01*
X39858474Y-16062100D01*
X39858475Y-16062100D01*
X39998485Y-16024584D01*
X40124015Y-15952109D01*
X40226509Y-15849615D01*
X40228124Y-15846818D01*
X40298982Y-15724089D01*
X40298982Y-15724087D01*
X40298984Y-15724085D01*
X40336500Y-15584075D01*
X40336500Y-15439125D01*
X40298984Y-15299115D01*
X40290272Y-15284025D01*
X43851600Y-15284025D01*
X43851600Y-15428975D01*
X43871335Y-15502625D01*
X43889117Y-15568989D01*
X43961587Y-15694510D01*
X43961589Y-15694512D01*
X43961591Y-15694515D01*
X44064085Y-15797009D01*
X44064087Y-15797010D01*
X44064089Y-15797012D01*
X44189611Y-15869482D01*
X44189612Y-15869482D01*
X44189615Y-15869484D01*
X44329625Y-15907000D01*
X44329626Y-15907000D01*
X44474574Y-15907000D01*
X44474575Y-15907000D01*
X44614585Y-15869484D01*
X44614587Y-15869482D01*
X44614589Y-15869482D01*
X44740110Y-15797012D01*
X44740110Y-15797011D01*
X44740115Y-15797009D01*
X44842609Y-15694515D01*
X44869710Y-15647575D01*
X44915082Y-15568989D01*
X44915082Y-15568987D01*
X44915084Y-15568985D01*
X44952600Y-15428975D01*
X44952600Y-15284025D01*
X44915084Y-15144015D01*
X44915082Y-15144012D01*
X44915082Y-15144010D01*
X44842612Y-15018489D01*
X44842610Y-15018487D01*
X44842609Y-15018485D01*
X44740115Y-14915991D01*
X44740112Y-14915989D01*
X44740110Y-14915987D01*
X44614588Y-14843517D01*
X44614589Y-14843517D01*
X44584996Y-14835587D01*
X44474575Y-14806000D01*
X44329625Y-14806000D01*
X44267890Y-14822541D01*
X44189610Y-14843517D01*
X44064089Y-14915987D01*
X43961587Y-15018489D01*
X43889117Y-15144010D01*
X43857609Y-15261600D01*
X43851600Y-15284025D01*
X40290272Y-15284025D01*
X40277325Y-15261600D01*
X40226512Y-15173589D01*
X40226510Y-15173587D01*
X40226509Y-15173585D01*
X40124015Y-15071091D01*
X40124012Y-15071089D01*
X40124010Y-15071087D01*
X39998488Y-14998617D01*
X39998489Y-14998617D01*
X39968896Y-14990687D01*
X39858475Y-14961100D01*
X39713525Y-14961100D01*
X39651790Y-14977641D01*
X39573510Y-14998617D01*
X39447989Y-15071087D01*
X39345487Y-15173589D01*
X39273017Y-15299110D01*
X39271932Y-15303160D01*
X39235500Y-15439125D01*
X30481186Y-15439125D01*
X30460684Y-15362615D01*
X30460682Y-15362611D01*
X30388212Y-15237089D01*
X30388210Y-15237087D01*
X30388209Y-15237085D01*
X30285715Y-15134591D01*
X30285712Y-15134589D01*
X30285710Y-15134587D01*
X30160188Y-15062117D01*
X30160189Y-15062117D01*
X30130596Y-15054187D01*
X30020175Y-15024600D01*
X29875225Y-15024600D01*
X29813490Y-15041141D01*
X29735210Y-15062117D01*
X29609689Y-15134587D01*
X29507187Y-15237089D01*
X29434717Y-15362610D01*
X29434716Y-15362615D01*
X29397200Y-15502625D01*
X26510334Y-15502625D01*
X26446112Y-15391389D01*
X26446110Y-15391387D01*
X26446109Y-15391385D01*
X26343615Y-15288891D01*
X26343612Y-15288889D01*
X26343610Y-15288887D01*
X26218088Y-15216417D01*
X26218089Y-15216417D01*
X26188496Y-15208487D01*
X26078075Y-15178900D01*
X25933125Y-15178900D01*
X25871390Y-15195441D01*
X25793110Y-15216417D01*
X25667589Y-15288887D01*
X25565087Y-15391389D01*
X25492617Y-15516910D01*
X25470458Y-15599609D01*
X25455100Y-15656925D01*
X23869240Y-15656925D01*
X23853884Y-15599615D01*
X23853881Y-15599609D01*
X23781412Y-15474089D01*
X23781410Y-15474087D01*
X23781409Y-15474085D01*
X23678915Y-15371591D01*
X23678912Y-15371589D01*
X23678910Y-15371587D01*
X23553388Y-15299117D01*
X23553389Y-15299117D01*
X23497065Y-15284025D01*
X23413375Y-15261600D01*
X23268425Y-15261600D01*
X23206690Y-15278141D01*
X23128410Y-15299117D01*
X23002889Y-15371587D01*
X22900387Y-15474089D01*
X22827917Y-15599610D01*
X22807433Y-15676059D01*
X22790400Y-15739625D01*
X4550000Y-15739625D01*
X4550000Y-14504025D01*
X17023300Y-14504025D01*
X17023300Y-14648974D01*
X17060817Y-14788989D01*
X17133287Y-14914510D01*
X17133289Y-14914512D01*
X17133291Y-14914515D01*
X17235785Y-15017009D01*
X17235787Y-15017010D01*
X17235789Y-15017012D01*
X17361311Y-15089482D01*
X17361312Y-15089482D01*
X17361315Y-15089484D01*
X17501325Y-15127000D01*
X17501326Y-15127000D01*
X17646274Y-15127000D01*
X17646275Y-15127000D01*
X17786285Y-15089484D01*
X17786287Y-15089482D01*
X17786289Y-15089482D01*
X17911810Y-15017012D01*
X17911810Y-15017011D01*
X17911815Y-15017009D01*
X18014309Y-14914515D01*
X18037187Y-14874889D01*
X18086782Y-14788989D01*
X18086782Y-14788987D01*
X18086784Y-14788985D01*
X18124300Y-14648975D01*
X18124300Y-14504025D01*
X18086784Y-14364015D01*
X18086782Y-14364012D01*
X18086782Y-14364010D01*
X18014312Y-14238489D01*
X18014310Y-14238487D01*
X18014309Y-14238485D01*
X17911815Y-14135991D01*
X17911812Y-14135989D01*
X17911810Y-14135987D01*
X17786288Y-14063517D01*
X17786284Y-14063515D01*
X17773029Y-14059963D01*
X17773025Y-14059963D01*
X17646275Y-14026000D01*
X17501325Y-14026000D01*
X17439590Y-14042541D01*
X17361310Y-14063517D01*
X17235789Y-14135987D01*
X17133287Y-14238489D01*
X17060817Y-14364010D01*
X17023300Y-14504025D01*
X4550000Y-14504025D01*
X4550000Y-13377625D01*
X15175300Y-13377625D01*
X15175300Y-13522575D01*
X15196793Y-13602787D01*
X15212817Y-13662589D01*
X15285287Y-13788110D01*
X15285289Y-13788112D01*
X15285291Y-13788115D01*
X15387785Y-13890609D01*
X15387787Y-13890610D01*
X15387789Y-13890612D01*
X15513311Y-13963082D01*
X15513312Y-13963082D01*
X15513315Y-13963084D01*
X15653325Y-14000600D01*
X15653326Y-14000600D01*
X15798274Y-14000600D01*
X15798275Y-14000600D01*
X15909396Y-13970825D01*
X42050900Y-13970825D01*
X42050900Y-14115775D01*
X42079333Y-14221887D01*
X42088417Y-14255789D01*
X42160887Y-14381310D01*
X42160889Y-14381312D01*
X42160891Y-14381315D01*
X42263385Y-14483809D01*
X42263387Y-14483810D01*
X42263389Y-14483812D01*
X42388911Y-14556282D01*
X42388912Y-14556282D01*
X42388915Y-14556284D01*
X42528925Y-14593800D01*
X42528926Y-14593800D01*
X42673874Y-14593800D01*
X42673875Y-14593800D01*
X42688337Y-14589925D01*
X45449500Y-14589925D01*
X45449500Y-14734874D01*
X45487017Y-14874889D01*
X45559487Y-15000410D01*
X45559489Y-15000412D01*
X45559491Y-15000415D01*
X45661985Y-15102909D01*
X45661987Y-15102910D01*
X45661989Y-15102912D01*
X45787511Y-15175382D01*
X45787512Y-15175382D01*
X45787515Y-15175384D01*
X45927525Y-15212900D01*
X45927526Y-15212900D01*
X46072474Y-15212900D01*
X46072475Y-15212900D01*
X46212485Y-15175384D01*
X46212487Y-15175382D01*
X46212489Y-15175382D01*
X46338010Y-15102912D01*
X46338010Y-15102911D01*
X46338015Y-15102909D01*
X46440509Y-15000415D01*
X46463208Y-14961100D01*
X46512982Y-14874889D01*
X46512982Y-14874887D01*
X46512984Y-14874885D01*
X46550500Y-14734875D01*
X46550500Y-14589925D01*
X46512984Y-14449915D01*
X46512982Y-14449912D01*
X46512982Y-14449910D01*
X46440512Y-14324389D01*
X46440510Y-14324387D01*
X46440509Y-14324385D01*
X46338015Y-14221891D01*
X46338012Y-14221889D01*
X46338010Y-14221887D01*
X46212488Y-14149417D01*
X46212489Y-14149417D01*
X46162368Y-14135987D01*
X46072475Y-14111900D01*
X45927525Y-14111900D01*
X45865790Y-14128441D01*
X45787510Y-14149417D01*
X45661989Y-14221887D01*
X45559487Y-14324389D01*
X45487017Y-14449910D01*
X45449500Y-14589925D01*
X42688337Y-14589925D01*
X42813885Y-14556284D01*
X42813887Y-14556282D01*
X42813889Y-14556282D01*
X42915342Y-14497708D01*
X42915348Y-14497704D01*
X42939415Y-14483809D01*
X43041909Y-14381315D01*
X43051900Y-14364010D01*
X43114382Y-14255789D01*
X43114382Y-14255787D01*
X43114384Y-14255785D01*
X43151900Y-14115775D01*
X43151900Y-13970825D01*
X43114384Y-13830815D01*
X43114382Y-13830812D01*
X43114382Y-13830810D01*
X43041912Y-13705289D01*
X43041910Y-13705287D01*
X43041909Y-13705285D01*
X42939415Y-13602791D01*
X42939412Y-13602789D01*
X42939410Y-13602787D01*
X42813888Y-13530317D01*
X42813889Y-13530317D01*
X42698879Y-13499500D01*
X42673875Y-13492800D01*
X42528925Y-13492800D01*
X42503921Y-13499500D01*
X42388910Y-13530317D01*
X42263389Y-13602787D01*
X42160887Y-13705289D01*
X42088417Y-13830810D01*
X42088416Y-13830815D01*
X42050900Y-13970825D01*
X15909396Y-13970825D01*
X15938285Y-13963084D01*
X15938287Y-13963082D01*
X15938289Y-13963082D01*
X16063810Y-13890612D01*
X16063810Y-13890611D01*
X16063815Y-13890609D01*
X16166309Y-13788115D01*
X16238784Y-13662585D01*
X16276300Y-13522575D01*
X16276300Y-13377625D01*
X16238784Y-13237615D01*
X16238782Y-13237612D01*
X16238782Y-13237610D01*
X16166312Y-13112089D01*
X16166310Y-13112087D01*
X16166309Y-13112085D01*
X16166129Y-13111905D01*
X16166047Y-13111745D01*
X16162360Y-13106939D01*
X16163250Y-13106255D01*
X16138354Y-13057391D01*
X16147925Y-12996959D01*
X16191190Y-12953694D01*
X16210504Y-12946280D01*
X16278785Y-12927984D01*
X16278787Y-12927982D01*
X16278789Y-12927982D01*
X16404310Y-12855512D01*
X16404310Y-12855511D01*
X16404315Y-12855509D01*
X16506809Y-12753015D01*
X16563290Y-12655188D01*
X16579282Y-12627489D01*
X16579282Y-12627487D01*
X16579284Y-12627485D01*
X16616800Y-12487475D01*
X16616800Y-12370225D01*
X21041500Y-12370225D01*
X21041500Y-12515175D01*
X21071087Y-12625596D01*
X21079017Y-12655189D01*
X21151487Y-12780710D01*
X21151489Y-12780712D01*
X21151491Y-12780715D01*
X21253985Y-12883209D01*
X21253987Y-12883210D01*
X21253989Y-12883212D01*
X21379511Y-12955682D01*
X21379512Y-12955682D01*
X21379515Y-12955684D01*
X21519525Y-12993200D01*
X21519526Y-12993200D01*
X21664474Y-12993200D01*
X21664475Y-12993200D01*
X21804485Y-12955684D01*
X21804487Y-12955682D01*
X21804489Y-12955682D01*
X21930010Y-12883212D01*
X21930010Y-12883211D01*
X21930015Y-12883209D01*
X22032509Y-12780715D01*
X22104984Y-12655185D01*
X22110038Y-12636325D01*
X23058300Y-12636325D01*
X23058300Y-12781275D01*
X23068671Y-12819979D01*
X23095817Y-12921289D01*
X23168287Y-13046810D01*
X23168289Y-13046812D01*
X23168291Y-13046815D01*
X23270785Y-13149309D01*
X23270787Y-13149310D01*
X23270789Y-13149312D01*
X23396311Y-13221782D01*
X23396312Y-13221782D01*
X23396315Y-13221784D01*
X23536325Y-13259300D01*
X23536326Y-13259300D01*
X23681274Y-13259300D01*
X23681275Y-13259300D01*
X23821285Y-13221784D01*
X23821287Y-13221782D01*
X23821289Y-13221782D01*
X23946810Y-13149312D01*
X23946810Y-13149311D01*
X23946815Y-13149309D01*
X24049309Y-13046815D01*
X24049312Y-13046810D01*
X24121782Y-12921289D01*
X24121782Y-12921287D01*
X24121784Y-12921285D01*
X24159300Y-12781275D01*
X24159300Y-12636325D01*
X24121784Y-12496315D01*
X24121782Y-12496312D01*
X24121782Y-12496310D01*
X24049312Y-12370789D01*
X24049310Y-12370787D01*
X24049309Y-12370785D01*
X23946815Y-12268291D01*
X23946812Y-12268289D01*
X23946810Y-12268287D01*
X23821288Y-12195817D01*
X23821289Y-12195817D01*
X23762338Y-12180021D01*
X23681275Y-12158300D01*
X23536325Y-12158300D01*
X23474590Y-12174841D01*
X23396310Y-12195817D01*
X23270789Y-12268287D01*
X23168287Y-12370789D01*
X23095817Y-12496310D01*
X23084642Y-12538015D01*
X23058300Y-12636325D01*
X22110038Y-12636325D01*
X22142500Y-12515175D01*
X22142500Y-12370225D01*
X22104984Y-12230215D01*
X22104982Y-12230212D01*
X22104982Y-12230210D01*
X22032512Y-12104689D01*
X22032510Y-12104687D01*
X22032509Y-12104685D01*
X21930015Y-12002191D01*
X21930012Y-12002189D01*
X21930010Y-12002187D01*
X21804488Y-11929717D01*
X21804489Y-11929717D01*
X21774896Y-11921787D01*
X21664475Y-11892200D01*
X21519525Y-11892200D01*
X21482892Y-11902016D01*
X21379510Y-11929717D01*
X21253989Y-12002187D01*
X21151487Y-12104689D01*
X21079017Y-12230210D01*
X21067692Y-12272475D01*
X21041500Y-12370225D01*
X16616800Y-12370225D01*
X16616800Y-12342525D01*
X16579284Y-12202515D01*
X16579282Y-12202512D01*
X16579282Y-12202510D01*
X16506812Y-12076989D01*
X16506810Y-12076987D01*
X16506809Y-12076985D01*
X16404315Y-11974491D01*
X16404312Y-11974489D01*
X16404310Y-11974487D01*
X16278788Y-11902017D01*
X16278789Y-11902017D01*
X16242152Y-11892200D01*
X16138775Y-11864500D01*
X15993825Y-11864500D01*
X15932090Y-11881041D01*
X15853810Y-11902017D01*
X15728289Y-11974487D01*
X15625787Y-12076989D01*
X15553317Y-12202510D01*
X15536198Y-12266400D01*
X15515800Y-12342525D01*
X15515800Y-12487475D01*
X15522503Y-12512489D01*
X15553317Y-12627489D01*
X15625787Y-12753010D01*
X15625789Y-12753012D01*
X15625791Y-12753015D01*
X15625969Y-12753193D01*
X15626050Y-12753353D01*
X15629740Y-12758161D01*
X15628848Y-12758844D01*
X15653745Y-12807708D01*
X15644174Y-12868140D01*
X15600909Y-12911405D01*
X15581588Y-12918821D01*
X15513315Y-12937115D01*
X15513311Y-12937117D01*
X15387789Y-13009587D01*
X15285287Y-13112089D01*
X15212817Y-13237610D01*
X15212816Y-13237615D01*
X15175300Y-13377625D01*
X4550000Y-13377625D01*
X4550000Y-11643425D01*
X34323600Y-11643425D01*
X34323600Y-11788375D01*
X34343324Y-11861985D01*
X34361117Y-11928389D01*
X34433587Y-12053910D01*
X34433589Y-12053912D01*
X34433591Y-12053915D01*
X34536085Y-12156409D01*
X34536087Y-12156410D01*
X34536089Y-12156412D01*
X34661611Y-12228882D01*
X34661612Y-12228882D01*
X34661615Y-12228884D01*
X34801625Y-12266400D01*
X34801626Y-12266400D01*
X34946574Y-12266400D01*
X34946575Y-12266400D01*
X35086585Y-12228884D01*
X35086587Y-12228882D01*
X35086589Y-12228882D01*
X35088939Y-12227525D01*
X42499500Y-12227525D01*
X42499500Y-12372474D01*
X42537017Y-12512489D01*
X42609487Y-12638010D01*
X42609489Y-12638012D01*
X42609491Y-12638015D01*
X42711985Y-12740509D01*
X42711987Y-12740510D01*
X42711989Y-12740512D01*
X42837511Y-12812982D01*
X42837512Y-12812982D01*
X42837515Y-12812984D01*
X42977525Y-12850500D01*
X42977526Y-12850500D01*
X43122474Y-12850500D01*
X43122475Y-12850500D01*
X43262485Y-12812984D01*
X43262487Y-12812982D01*
X43262489Y-12812982D01*
X43388010Y-12740512D01*
X43388010Y-12740511D01*
X43388015Y-12740509D01*
X43490509Y-12638015D01*
X43496589Y-12627485D01*
X43562982Y-12512489D01*
X43562982Y-12512487D01*
X43562984Y-12512485D01*
X43600500Y-12372475D01*
X43600500Y-12227525D01*
X43573705Y-12127525D01*
X46649500Y-12127525D01*
X46649500Y-12272474D01*
X46687017Y-12412489D01*
X46759487Y-12538010D01*
X46759489Y-12538012D01*
X46759491Y-12538015D01*
X46861985Y-12640509D01*
X46861987Y-12640510D01*
X46861989Y-12640512D01*
X46987511Y-12712982D01*
X46987512Y-12712982D01*
X46987515Y-12712984D01*
X47127525Y-12750500D01*
X47127526Y-12750500D01*
X47272474Y-12750500D01*
X47272475Y-12750500D01*
X47412485Y-12712984D01*
X47412487Y-12712982D01*
X47412489Y-12712982D01*
X47538010Y-12640512D01*
X47538010Y-12640511D01*
X47538015Y-12640509D01*
X47640509Y-12538015D01*
X47653696Y-12515174D01*
X47712982Y-12412489D01*
X47712982Y-12412487D01*
X47712984Y-12412485D01*
X47750500Y-12272475D01*
X47750500Y-12127525D01*
X47712984Y-11987515D01*
X47712982Y-11987512D01*
X47712982Y-11987510D01*
X47640512Y-11861989D01*
X47640510Y-11861987D01*
X47640509Y-11861985D01*
X47538015Y-11759491D01*
X47538012Y-11759489D01*
X47538010Y-11759487D01*
X47412488Y-11687017D01*
X47412489Y-11687017D01*
X47309944Y-11659540D01*
X47272475Y-11649500D01*
X47127525Y-11649500D01*
X47090056Y-11659540D01*
X46987510Y-11687017D01*
X46861989Y-11759487D01*
X46759487Y-11861989D01*
X46687017Y-11987510D01*
X46649500Y-12127525D01*
X43573705Y-12127525D01*
X43562984Y-12087515D01*
X43562982Y-12087512D01*
X43562982Y-12087510D01*
X43490512Y-11961989D01*
X43490510Y-11961987D01*
X43490509Y-11961985D01*
X43388015Y-11859491D01*
X43388012Y-11859489D01*
X43388010Y-11859487D01*
X43262488Y-11787017D01*
X43262489Y-11787017D01*
X43159761Y-11759491D01*
X43122475Y-11749500D01*
X42977525Y-11749500D01*
X42940239Y-11759491D01*
X42837510Y-11787017D01*
X42711989Y-11859487D01*
X42609487Y-11961989D01*
X42537017Y-12087510D01*
X42499500Y-12227525D01*
X35088939Y-12227525D01*
X35212110Y-12156412D01*
X35212110Y-12156411D01*
X35212115Y-12156409D01*
X35314609Y-12053915D01*
X35387084Y-11928385D01*
X35424600Y-11788375D01*
X35424600Y-11643425D01*
X35387084Y-11503415D01*
X35387082Y-11503412D01*
X35387082Y-11503410D01*
X35314612Y-11377889D01*
X35314610Y-11377887D01*
X35314609Y-11377885D01*
X35212115Y-11275391D01*
X35212112Y-11275389D01*
X35212110Y-11275387D01*
X35086588Y-11202917D01*
X35086589Y-11202917D01*
X35056996Y-11194987D01*
X34946575Y-11165400D01*
X34801625Y-11165400D01*
X34739890Y-11181941D01*
X34661610Y-11202917D01*
X34536089Y-11275387D01*
X34433587Y-11377889D01*
X34361117Y-11503410D01*
X34336668Y-11594655D01*
X34323600Y-11643425D01*
X4550000Y-11643425D01*
X4550000Y-10267225D01*
X48613100Y-10267225D01*
X48613100Y-10412174D01*
X48650617Y-10552189D01*
X48723087Y-10677710D01*
X48723089Y-10677712D01*
X48723091Y-10677715D01*
X48825585Y-10780209D01*
X48825587Y-10780210D01*
X48825589Y-10780212D01*
X48951111Y-10852682D01*
X48951112Y-10852682D01*
X48951115Y-10852684D01*
X49091125Y-10890200D01*
X49091126Y-10890200D01*
X49236074Y-10890200D01*
X49236075Y-10890200D01*
X49376085Y-10852684D01*
X49376087Y-10852682D01*
X49376089Y-10852682D01*
X49501610Y-10780212D01*
X49501610Y-10780211D01*
X49501615Y-10780209D01*
X49604109Y-10677715D01*
X49676584Y-10552185D01*
X49714100Y-10412175D01*
X49714100Y-10267225D01*
X49676584Y-10127215D01*
X49676582Y-10127212D01*
X49676582Y-10127210D01*
X49604112Y-10001689D01*
X49604110Y-10001687D01*
X49604109Y-10001685D01*
X49501615Y-9899191D01*
X49501612Y-9899189D01*
X49501610Y-9899187D01*
X49376088Y-9826717D01*
X49376089Y-9826717D01*
X49346496Y-9818787D01*
X49236075Y-9789200D01*
X49091125Y-9789200D01*
X49029390Y-9805741D01*
X48951110Y-9826717D01*
X48825589Y-9899187D01*
X48723087Y-10001689D01*
X48650617Y-10127210D01*
X48613100Y-10267225D01*
X4550000Y-10267225D01*
X4550000Y-8196725D01*
X16649700Y-8196725D01*
X16649700Y-8341675D01*
X16661553Y-8385910D01*
X16687217Y-8481689D01*
X16759687Y-8607210D01*
X16759689Y-8607212D01*
X16759691Y-8607215D01*
X16862185Y-8709709D01*
X16862187Y-8709710D01*
X16862189Y-8709712D01*
X16987711Y-8782182D01*
X16987712Y-8782182D01*
X16987715Y-8782184D01*
X17127725Y-8819700D01*
X17127726Y-8819700D01*
X17272674Y-8819700D01*
X17272675Y-8819700D01*
X17412685Y-8782184D01*
X17412687Y-8782182D01*
X17412689Y-8782182D01*
X17538210Y-8709712D01*
X17538210Y-8709711D01*
X17538215Y-8709709D01*
X17640709Y-8607215D01*
X17667458Y-8560884D01*
X17713182Y-8481689D01*
X17713182Y-8481687D01*
X17713184Y-8481685D01*
X17750700Y-8341675D01*
X17750700Y-8196725D01*
X17713184Y-8056715D01*
X17713182Y-8056712D01*
X17713182Y-8056710D01*
X17640712Y-7931189D01*
X17640710Y-7931187D01*
X17640709Y-7931185D01*
X17538215Y-7828691D01*
X17538212Y-7828689D01*
X17538210Y-7828687D01*
X17412688Y-7756217D01*
X17412689Y-7756217D01*
X17383096Y-7748287D01*
X17272675Y-7718700D01*
X17127725Y-7718700D01*
X17113637Y-7722475D01*
X16987710Y-7756217D01*
X16862189Y-7828687D01*
X16759687Y-7931189D01*
X16687217Y-8056710D01*
X16658741Y-8162984D01*
X16649700Y-8196725D01*
X4550000Y-8196725D01*
X4550000Y-7577525D01*
X17812600Y-7577525D01*
X17812600Y-7722475D01*
X17820435Y-7751716D01*
X17850117Y-7862489D01*
X17922587Y-7988010D01*
X17922589Y-7988012D01*
X17922591Y-7988015D01*
X18025085Y-8090509D01*
X18025087Y-8090510D01*
X18025089Y-8090512D01*
X18150611Y-8162982D01*
X18150612Y-8162982D01*
X18150615Y-8162984D01*
X18290625Y-8200500D01*
X18290626Y-8200500D01*
X18435574Y-8200500D01*
X18435575Y-8200500D01*
X18575585Y-8162984D01*
X18575587Y-8162982D01*
X18575589Y-8162982D01*
X18701110Y-8090512D01*
X18701110Y-8090511D01*
X18701115Y-8090509D01*
X18803609Y-7988015D01*
X18810878Y-7975425D01*
X32060600Y-7975425D01*
X32060600Y-8120374D01*
X32098117Y-8260389D01*
X32170587Y-8385910D01*
X32170589Y-8385912D01*
X32170591Y-8385915D01*
X32273085Y-8488409D01*
X32273087Y-8488410D01*
X32273089Y-8488412D01*
X32398611Y-8560882D01*
X32398612Y-8560882D01*
X32398615Y-8560884D01*
X32538625Y-8598400D01*
X32538626Y-8598400D01*
X32683574Y-8598400D01*
X32683575Y-8598400D01*
X32823585Y-8560884D01*
X32823587Y-8560882D01*
X32823589Y-8560882D01*
X32949110Y-8488412D01*
X32949110Y-8488411D01*
X32949115Y-8488409D01*
X33051609Y-8385915D01*
X33051612Y-8385910D01*
X33070237Y-8353651D01*
X53712079Y-8353651D01*
X53712079Y-8521190D01*
X53744763Y-8685501D01*
X53744763Y-8685503D01*
X53808872Y-8840279D01*
X53808878Y-8840290D01*
X53864873Y-8924091D01*
X53901952Y-8979583D01*
X54020417Y-9098048D01*
X54092929Y-9146499D01*
X54159709Y-9191121D01*
X54159720Y-9191127D01*
X54216896Y-9214809D01*
X54314498Y-9255237D01*
X54478812Y-9287921D01*
X54478813Y-9287921D01*
X54646345Y-9287921D01*
X54646346Y-9287921D01*
X54810660Y-9255237D01*
X54965442Y-9191125D01*
X55104741Y-9098048D01*
X55506048Y-8696741D01*
X55599125Y-8557442D01*
X55663237Y-8402660D01*
X55695921Y-8238346D01*
X55695921Y-8212230D01*
X57445602Y-8212230D01*
X57445602Y-8379769D01*
X57478285Y-8544079D01*
X57478287Y-8544085D01*
X57542398Y-8698862D01*
X57542399Y-8698863D01*
X57635476Y-8838162D01*
X57753940Y-8956626D01*
X57893239Y-9049703D01*
X58048020Y-9113816D01*
X58212335Y-9146500D01*
X58212336Y-9146500D01*
X58379868Y-9146500D01*
X58379869Y-9146500D01*
X58544184Y-9113816D01*
X58698965Y-9049703D01*
X58838264Y-8956626D01*
X58956728Y-8838162D01*
X59049805Y-8698863D01*
X59113918Y-8544082D01*
X59146602Y-8379767D01*
X59146602Y-8212233D01*
X59113918Y-8047918D01*
X59049805Y-7893137D01*
X58956728Y-7753838D01*
X58838264Y-7635374D01*
X58698965Y-7542297D01*
X58698966Y-7542297D01*
X58698964Y-7542296D01*
X58544187Y-7478185D01*
X58544181Y-7478183D01*
X58379871Y-7445500D01*
X58379869Y-7445500D01*
X58212335Y-7445500D01*
X58212332Y-7445500D01*
X58048022Y-7478183D01*
X58048016Y-7478185D01*
X57893239Y-7542296D01*
X57753940Y-7635374D01*
X57753936Y-7635377D01*
X57635479Y-7753834D01*
X57635476Y-7753838D01*
X57542398Y-7893137D01*
X57478287Y-8047914D01*
X57478285Y-8047920D01*
X57445602Y-8212230D01*
X55695921Y-8212230D01*
X55695921Y-8070812D01*
X55663237Y-7906498D01*
X55631007Y-7828687D01*
X55599127Y-7751720D01*
X55599121Y-7751709D01*
X55520135Y-7633500D01*
X55506048Y-7612417D01*
X55387583Y-7493952D01*
X55315070Y-7445500D01*
X55248290Y-7400878D01*
X55248279Y-7400872D01*
X55093502Y-7336763D01*
X54929190Y-7304079D01*
X54929188Y-7304079D01*
X54761654Y-7304079D01*
X54761651Y-7304079D01*
X54597340Y-7336763D01*
X54597338Y-7336763D01*
X54442562Y-7400872D01*
X54442551Y-7400878D01*
X54303259Y-7493952D01*
X54303255Y-7493955D01*
X53901955Y-7895255D01*
X53901952Y-7895259D01*
X53808878Y-8034551D01*
X53808872Y-8034562D01*
X53744763Y-8189338D01*
X53744763Y-8189340D01*
X53712079Y-8353651D01*
X33070237Y-8353651D01*
X33101623Y-8299290D01*
X33124082Y-8260389D01*
X33124082Y-8260387D01*
X33124084Y-8260385D01*
X33161600Y-8120375D01*
X33161600Y-7975425D01*
X33124084Y-7835415D01*
X33124082Y-7835412D01*
X33124082Y-7835410D01*
X33051612Y-7709889D01*
X33051610Y-7709887D01*
X33051609Y-7709885D01*
X32949115Y-7607391D01*
X32949112Y-7607389D01*
X32949110Y-7607387D01*
X32823588Y-7534917D01*
X32823589Y-7534917D01*
X32781014Y-7523509D01*
X32683575Y-7497400D01*
X32538625Y-7497400D01*
X32476890Y-7513941D01*
X32398610Y-7534917D01*
X32273089Y-7607387D01*
X32170587Y-7709889D01*
X32098117Y-7835410D01*
X32060600Y-7975425D01*
X18810878Y-7975425D01*
X18836418Y-7931189D01*
X18843204Y-7919436D01*
X18876082Y-7862489D01*
X18876082Y-7862487D01*
X18876084Y-7862485D01*
X18913600Y-7722475D01*
X18913600Y-7577525D01*
X18876084Y-7437515D01*
X18876082Y-7437512D01*
X18876082Y-7437510D01*
X18803612Y-7311989D01*
X18803610Y-7311987D01*
X18803609Y-7311985D01*
X18701115Y-7209491D01*
X18701112Y-7209489D01*
X18701110Y-7209487D01*
X18575588Y-7137017D01*
X18575589Y-7137017D01*
X18552021Y-7130702D01*
X18435575Y-7099500D01*
X18290625Y-7099500D01*
X18228890Y-7116041D01*
X18150610Y-7137017D01*
X18025089Y-7209487D01*
X17922587Y-7311989D01*
X17850117Y-7437510D01*
X17827074Y-7523509D01*
X17812600Y-7577525D01*
X4550000Y-7577525D01*
X4550000Y-7010525D01*
X42972500Y-7010525D01*
X42972500Y-7155474D01*
X43010017Y-7295489D01*
X43082487Y-7421010D01*
X43082489Y-7421012D01*
X43082491Y-7421015D01*
X43184985Y-7523509D01*
X43184987Y-7523510D01*
X43184989Y-7523512D01*
X43310511Y-7595982D01*
X43310512Y-7595982D01*
X43310515Y-7595984D01*
X43450525Y-7633500D01*
X43450526Y-7633500D01*
X43595474Y-7633500D01*
X43595475Y-7633500D01*
X43735485Y-7595984D01*
X43735487Y-7595982D01*
X43735489Y-7595982D01*
X43861010Y-7523512D01*
X43861010Y-7523511D01*
X43861015Y-7523509D01*
X43963509Y-7421015D01*
X44012152Y-7336763D01*
X44035982Y-7295489D01*
X44035982Y-7295487D01*
X44035984Y-7295485D01*
X44073500Y-7155475D01*
X44073500Y-7010525D01*
X44035984Y-6870515D01*
X44035982Y-6870512D01*
X44035982Y-6870510D01*
X43963512Y-6744989D01*
X43963510Y-6744987D01*
X43963509Y-6744985D01*
X43861015Y-6642491D01*
X43861012Y-6642489D01*
X43861010Y-6642487D01*
X43735488Y-6570017D01*
X43735489Y-6570017D01*
X43705896Y-6562087D01*
X43595475Y-6532500D01*
X43450525Y-6532500D01*
X43388790Y-6549041D01*
X43310510Y-6570017D01*
X43184989Y-6642487D01*
X43082487Y-6744989D01*
X43010017Y-6870510D01*
X42972500Y-7010525D01*
X4550000Y-7010525D01*
X4550000Y-6210825D01*
X29499500Y-6210825D01*
X29499500Y-6355774D01*
X29537017Y-6495789D01*
X29609487Y-6621310D01*
X29609489Y-6621312D01*
X29609491Y-6621315D01*
X29711985Y-6723809D01*
X29711987Y-6723810D01*
X29711989Y-6723812D01*
X29837511Y-6796282D01*
X29837512Y-6796282D01*
X29837515Y-6796284D01*
X29977525Y-6833800D01*
X29977526Y-6833800D01*
X30122474Y-6833800D01*
X30122475Y-6833800D01*
X30262485Y-6796284D01*
X30262487Y-6796282D01*
X30262489Y-6796282D01*
X30388010Y-6723812D01*
X30388010Y-6723811D01*
X30388015Y-6723809D01*
X30490509Y-6621315D01*
X30562984Y-6495785D01*
X30600500Y-6355775D01*
X30600500Y-6210825D01*
X30562984Y-6070815D01*
X30562982Y-6070812D01*
X30562982Y-6070810D01*
X30490512Y-5945289D01*
X30490510Y-5945287D01*
X30490509Y-5945285D01*
X30388015Y-5842791D01*
X30388012Y-5842789D01*
X30388010Y-5842787D01*
X30262488Y-5770317D01*
X30262489Y-5770317D01*
X30231394Y-5761985D01*
X30122475Y-5732800D01*
X29977525Y-5732800D01*
X29915790Y-5749341D01*
X29837510Y-5770317D01*
X29711989Y-5842787D01*
X29609487Y-5945289D01*
X29537017Y-6070810D01*
X29499500Y-6210825D01*
X4550000Y-6210825D01*
X4550000Y-4783025D01*
X36624600Y-4783025D01*
X36624600Y-4927975D01*
X36651950Y-5030046D01*
X36662117Y-5067989D01*
X36734587Y-5193510D01*
X36734589Y-5193512D01*
X36734591Y-5193515D01*
X36837085Y-5296009D01*
X36837087Y-5296010D01*
X36837089Y-5296012D01*
X36962611Y-5368482D01*
X36962609Y-5368482D01*
X36962613Y-5368483D01*
X36962615Y-5368484D01*
X37077102Y-5399161D01*
X37128413Y-5432483D01*
X37150340Y-5489604D01*
X37134505Y-5548705D01*
X37092878Y-5583328D01*
X37093134Y-5583771D01*
X37090557Y-5585258D01*
X37089369Y-5586247D01*
X37087515Y-5587015D01*
X36961989Y-5659487D01*
X36859487Y-5761989D01*
X36787017Y-5887510D01*
X36749500Y-6027525D01*
X36749500Y-6172474D01*
X36787017Y-6312489D01*
X36859487Y-6438010D01*
X36859489Y-6438012D01*
X36859491Y-6438015D01*
X36961985Y-6540509D01*
X36961987Y-6540510D01*
X36961989Y-6540512D01*
X37087511Y-6612982D01*
X37087512Y-6612982D01*
X37087515Y-6612984D01*
X37227525Y-6650500D01*
X37227526Y-6650500D01*
X37372474Y-6650500D01*
X37372475Y-6650500D01*
X37512485Y-6612984D01*
X37512487Y-6612982D01*
X37512489Y-6612982D01*
X37638010Y-6540512D01*
X37638010Y-6540511D01*
X37638015Y-6540509D01*
X37740509Y-6438015D01*
X37740512Y-6438010D01*
X37812982Y-6312489D01*
X37812982Y-6312487D01*
X37812984Y-6312485D01*
X37850500Y-6172475D01*
X37850500Y-6027525D01*
X44349500Y-6027525D01*
X44349500Y-6172474D01*
X44387017Y-6312489D01*
X44459487Y-6438010D01*
X44459489Y-6438012D01*
X44459491Y-6438015D01*
X44561985Y-6540509D01*
X44561987Y-6540510D01*
X44561989Y-6540512D01*
X44687511Y-6612982D01*
X44687512Y-6612982D01*
X44687515Y-6612984D01*
X44827525Y-6650500D01*
X44827526Y-6650500D01*
X44972474Y-6650500D01*
X44972475Y-6650500D01*
X45112485Y-6612984D01*
X45112487Y-6612982D01*
X45112489Y-6612982D01*
X45238010Y-6540512D01*
X45238010Y-6540511D01*
X45238015Y-6540509D01*
X45340509Y-6438015D01*
X45340512Y-6438010D01*
X45412982Y-6312489D01*
X45412982Y-6312487D01*
X45412984Y-6312485D01*
X45450500Y-6172475D01*
X45450500Y-6027525D01*
X45412984Y-5887515D01*
X45412982Y-5887512D01*
X45412982Y-5887510D01*
X45340512Y-5761989D01*
X45340510Y-5761987D01*
X45340509Y-5761985D01*
X45238015Y-5659491D01*
X45238012Y-5659489D01*
X45238010Y-5659487D01*
X45112488Y-5587017D01*
X45112489Y-5587017D01*
X45082896Y-5579087D01*
X44972475Y-5549500D01*
X44827525Y-5549500D01*
X44765790Y-5566041D01*
X44687510Y-5587017D01*
X44561989Y-5659487D01*
X44459487Y-5761989D01*
X44387017Y-5887510D01*
X44349500Y-6027525D01*
X37850500Y-6027525D01*
X37812984Y-5887515D01*
X37812982Y-5887512D01*
X37812982Y-5887510D01*
X37740512Y-5761989D01*
X37740510Y-5761987D01*
X37740509Y-5761985D01*
X37638015Y-5659491D01*
X37638012Y-5659489D01*
X37638010Y-5659487D01*
X37512488Y-5587017D01*
X37512489Y-5587017D01*
X37498545Y-5583280D01*
X37397998Y-5556339D01*
X37346685Y-5523016D01*
X37324759Y-5465894D01*
X37340595Y-5406794D01*
X37382223Y-5372174D01*
X37381966Y-5371729D01*
X37384557Y-5370232D01*
X37385744Y-5369246D01*
X37387577Y-5368486D01*
X37387585Y-5368484D01*
X37513115Y-5296009D01*
X37615609Y-5193515D01*
X37685492Y-5072475D01*
X37688082Y-5067989D01*
X37688082Y-5067987D01*
X37688084Y-5067985D01*
X37725600Y-4927975D01*
X37725600Y-4927525D01*
X45439500Y-4927525D01*
X45439500Y-5072474D01*
X45477017Y-5212489D01*
X45549487Y-5338010D01*
X45549489Y-5338012D01*
X45549491Y-5338015D01*
X45651985Y-5440509D01*
X45651987Y-5440510D01*
X45651989Y-5440512D01*
X45777511Y-5512982D01*
X45777512Y-5512982D01*
X45777515Y-5512984D01*
X45917525Y-5550500D01*
X45917526Y-5550500D01*
X46062474Y-5550500D01*
X46062475Y-5550500D01*
X46202485Y-5512984D01*
X46202487Y-5512982D01*
X46202489Y-5512982D01*
X46328010Y-5440512D01*
X46328010Y-5440511D01*
X46328015Y-5440509D01*
X46430509Y-5338015D01*
X46483598Y-5246063D01*
X46502982Y-5212489D01*
X46502982Y-5212487D01*
X46502984Y-5212485D01*
X46540500Y-5072475D01*
X46540500Y-4927525D01*
X46502984Y-4787515D01*
X46502982Y-4787512D01*
X46502982Y-4787510D01*
X46430512Y-4661989D01*
X46430510Y-4661987D01*
X46430509Y-4661985D01*
X46328015Y-4559491D01*
X46328012Y-4559489D01*
X46328010Y-4559487D01*
X46275028Y-4528898D01*
X53821176Y-4528898D01*
X54400891Y-4528898D01*
X54377852Y-4568803D01*
X54354000Y-4657820D01*
X54354000Y-4749976D01*
X54377852Y-4838993D01*
X54400891Y-4878898D01*
X53821177Y-4878898D01*
X53838586Y-4966417D01*
X53838586Y-4966419D01*
X53906429Y-5130206D01*
X54004923Y-5277613D01*
X54130284Y-5402974D01*
X54277691Y-5501468D01*
X54441473Y-5569309D01*
X54441484Y-5569312D01*
X54529000Y-5586719D01*
X54529000Y-5007007D01*
X54568905Y-5030046D01*
X54657922Y-5053898D01*
X54750078Y-5053898D01*
X54839095Y-5030046D01*
X54879000Y-5007007D01*
X54879000Y-5586718D01*
X54966515Y-5569312D01*
X54966526Y-5569309D01*
X55130308Y-5501468D01*
X55277715Y-5402974D01*
X55403076Y-5277613D01*
X55501570Y-5130206D01*
X55569413Y-4966419D01*
X55569413Y-4966417D01*
X55586823Y-4878898D01*
X55007109Y-4878898D01*
X55030148Y-4838993D01*
X55054000Y-4749976D01*
X55054000Y-4657820D01*
X55043900Y-4620128D01*
X57445602Y-4620128D01*
X57445602Y-4787667D01*
X57478285Y-4951977D01*
X57478287Y-4951983D01*
X57542398Y-5106760D01*
X57573283Y-5152982D01*
X57635476Y-5246060D01*
X57753940Y-5364524D01*
X57893239Y-5457601D01*
X58048020Y-5521714D01*
X58212335Y-5554398D01*
X58212336Y-5554398D01*
X58379868Y-5554398D01*
X58379869Y-5554398D01*
X58544184Y-5521714D01*
X58698965Y-5457601D01*
X58838264Y-5364524D01*
X58956728Y-5246060D01*
X59049805Y-5106761D01*
X59113918Y-4951980D01*
X59146602Y-4787665D01*
X59146602Y-4620131D01*
X59113918Y-4455816D01*
X59049805Y-4301035D01*
X58956728Y-4161736D01*
X58838264Y-4043272D01*
X58698965Y-3950195D01*
X58698966Y-3950195D01*
X58698964Y-3950194D01*
X58544187Y-3886083D01*
X58544181Y-3886081D01*
X58379871Y-3853398D01*
X58379869Y-3853398D01*
X58212335Y-3853398D01*
X58212332Y-3853398D01*
X58048022Y-3886081D01*
X58048016Y-3886083D01*
X57893239Y-3950194D01*
X57753940Y-4043272D01*
X57753936Y-4043275D01*
X57635479Y-4161732D01*
X57635476Y-4161736D01*
X57542398Y-4301035D01*
X57478287Y-4455812D01*
X57478285Y-4455818D01*
X57445602Y-4620128D01*
X55043900Y-4620128D01*
X55030148Y-4568803D01*
X55007109Y-4528898D01*
X55586823Y-4528898D01*
X55569413Y-4441378D01*
X55569413Y-4441376D01*
X55501570Y-4277589D01*
X55403076Y-4130182D01*
X55277715Y-4004821D01*
X55130308Y-3906327D01*
X54966520Y-3838484D01*
X54879000Y-3821075D01*
X54879000Y-4400789D01*
X54839095Y-4377750D01*
X54750078Y-4353898D01*
X54657922Y-4353898D01*
X54568905Y-4377750D01*
X54529000Y-4400789D01*
X54529000Y-3821075D01*
X54441480Y-3838484D01*
X54441478Y-3838484D01*
X54277691Y-3906327D01*
X54130284Y-4004821D01*
X54004923Y-4130182D01*
X53906429Y-4277589D01*
X53838586Y-4441376D01*
X53838586Y-4441378D01*
X53821176Y-4528898D01*
X46275028Y-4528898D01*
X46202488Y-4487017D01*
X46202489Y-4487017D01*
X46172896Y-4479087D01*
X46062475Y-4449500D01*
X45917525Y-4449500D01*
X45855790Y-4466041D01*
X45777510Y-4487017D01*
X45651989Y-4559487D01*
X45549487Y-4661989D01*
X45477017Y-4787510D01*
X45439500Y-4927525D01*
X37725600Y-4927525D01*
X37725600Y-4783025D01*
X37688084Y-4643015D01*
X37688082Y-4643012D01*
X37688082Y-4643010D01*
X37615612Y-4517489D01*
X37615610Y-4517487D01*
X37615609Y-4517485D01*
X37513115Y-4414991D01*
X37513112Y-4414989D01*
X37513110Y-4414987D01*
X37387588Y-4342517D01*
X37387589Y-4342517D01*
X37357996Y-4334587D01*
X37247575Y-4305000D01*
X37102625Y-4305000D01*
X37040890Y-4321541D01*
X36962610Y-4342517D01*
X36837089Y-4414987D01*
X36734587Y-4517489D01*
X36662117Y-4643010D01*
X36624600Y-4783025D01*
X4550000Y-4783025D01*
X4550000Y-3348625D01*
X31363500Y-3348625D01*
X31363500Y-3493575D01*
X31378515Y-3549612D01*
X31401017Y-3633589D01*
X31473487Y-3759110D01*
X31473489Y-3759112D01*
X31473491Y-3759115D01*
X31575985Y-3861609D01*
X31575987Y-3861610D01*
X31575989Y-3861612D01*
X31701511Y-3934082D01*
X31701512Y-3934082D01*
X31701515Y-3934084D01*
X31841525Y-3971600D01*
X31841526Y-3971600D01*
X31986474Y-3971600D01*
X31986475Y-3971600D01*
X32126485Y-3934084D01*
X32126487Y-3934082D01*
X32126489Y-3934082D01*
X32252010Y-3861612D01*
X32252010Y-3861611D01*
X32252015Y-3861609D01*
X32354509Y-3759115D01*
X32426984Y-3633585D01*
X32464500Y-3493575D01*
X32464500Y-3348625D01*
X32426984Y-3208615D01*
X32426982Y-3208612D01*
X32426982Y-3208610D01*
X32354512Y-3083089D01*
X32354510Y-3083087D01*
X32354509Y-3083085D01*
X32252015Y-2980591D01*
X32252012Y-2980589D01*
X32252010Y-2980587D01*
X32126488Y-2908117D01*
X32126489Y-2908117D01*
X32083563Y-2896615D01*
X31986475Y-2870600D01*
X31841525Y-2870600D01*
X31779790Y-2887141D01*
X31701510Y-2908117D01*
X31575989Y-2980587D01*
X31473487Y-3083089D01*
X31401017Y-3208610D01*
X31401016Y-3208615D01*
X31363500Y-3348625D01*
X4550000Y-3348625D01*
X4550000Y-2281825D01*
X5924000Y-2281825D01*
X5924000Y-2426774D01*
X5961517Y-2566789D01*
X6033987Y-2692310D01*
X6033989Y-2692312D01*
X6033991Y-2692315D01*
X6136485Y-2794809D01*
X6136487Y-2794810D01*
X6136489Y-2794812D01*
X6262011Y-2867282D01*
X6262012Y-2867282D01*
X6262015Y-2867284D01*
X6402025Y-2904800D01*
X6402026Y-2904800D01*
X6546974Y-2904800D01*
X6546975Y-2904800D01*
X6686985Y-2867284D01*
X6686987Y-2867282D01*
X6686989Y-2867282D01*
X6812510Y-2794812D01*
X6812510Y-2794811D01*
X6812515Y-2794809D01*
X6915009Y-2692315D01*
X6928708Y-2668588D01*
X6987482Y-2566789D01*
X6987482Y-2566787D01*
X6987484Y-2566785D01*
X7025000Y-2426775D01*
X7025000Y-2306325D01*
X14278600Y-2306325D01*
X14278600Y-2451274D01*
X14316117Y-2591289D01*
X14388587Y-2716810D01*
X14388589Y-2716812D01*
X14388591Y-2716815D01*
X14491085Y-2819309D01*
X14491087Y-2819310D01*
X14491089Y-2819312D01*
X14616611Y-2891782D01*
X14616612Y-2891782D01*
X14616615Y-2891784D01*
X14756625Y-2929300D01*
X14756626Y-2929300D01*
X14901574Y-2929300D01*
X14901575Y-2929300D01*
X15041585Y-2891784D01*
X15041587Y-2891782D01*
X15041589Y-2891782D01*
X15167110Y-2819312D01*
X15167110Y-2819311D01*
X15167115Y-2819309D01*
X15220347Y-2766076D01*
X15274861Y-2738300D01*
X15335293Y-2747871D01*
X15360352Y-2766077D01*
X15411983Y-2817708D01*
X15411989Y-2817712D01*
X15537511Y-2890182D01*
X15537512Y-2890182D01*
X15537515Y-2890184D01*
X15677525Y-2927700D01*
X15677526Y-2927700D01*
X15822474Y-2927700D01*
X15822475Y-2927700D01*
X15962485Y-2890184D01*
X15962487Y-2890182D01*
X15962489Y-2890182D01*
X16088010Y-2817712D01*
X16088010Y-2817711D01*
X16088015Y-2817709D01*
X16190509Y-2715215D01*
X16198188Y-2701914D01*
X16262982Y-2589689D01*
X16262982Y-2589687D01*
X16262984Y-2589685D01*
X16278890Y-2530325D01*
X45843500Y-2530325D01*
X45843500Y-2675275D01*
X45854631Y-2716815D01*
X45881017Y-2815289D01*
X45953487Y-2940810D01*
X45953489Y-2940812D01*
X45953491Y-2940815D01*
X46055985Y-3043309D01*
X46055987Y-3043310D01*
X46055989Y-3043312D01*
X46181511Y-3115782D01*
X46181512Y-3115782D01*
X46181515Y-3115784D01*
X46321525Y-3153300D01*
X46321526Y-3153300D01*
X46466474Y-3153300D01*
X46466475Y-3153300D01*
X46606485Y-3115784D01*
X46606487Y-3115782D01*
X46606489Y-3115782D01*
X46732010Y-3043312D01*
X46732010Y-3043311D01*
X46732015Y-3043309D01*
X46790398Y-2984925D01*
X46844913Y-2957150D01*
X46905345Y-2966721D01*
X46948610Y-3009986D01*
X46959400Y-3054931D01*
X46959400Y-3181575D01*
X46988987Y-3291996D01*
X46996917Y-3321589D01*
X47069387Y-3447110D01*
X47069389Y-3447112D01*
X47069391Y-3447115D01*
X47171885Y-3549609D01*
X47171887Y-3549610D01*
X47171889Y-3549612D01*
X47297411Y-3622082D01*
X47297412Y-3622082D01*
X47297415Y-3622084D01*
X47437425Y-3659600D01*
X47437426Y-3659600D01*
X47582374Y-3659600D01*
X47582375Y-3659600D01*
X47722385Y-3622084D01*
X47722387Y-3622082D01*
X47722389Y-3622082D01*
X47847910Y-3549612D01*
X47847910Y-3549611D01*
X47847915Y-3549609D01*
X47950409Y-3447115D01*
X47950412Y-3447110D01*
X48022882Y-3321589D01*
X48022882Y-3321587D01*
X48022884Y-3321585D01*
X48060400Y-3181575D01*
X48060400Y-3036625D01*
X48022884Y-2896615D01*
X48022882Y-2896612D01*
X48022882Y-2896610D01*
X47950412Y-2771089D01*
X47950410Y-2771087D01*
X47950409Y-2771085D01*
X47847915Y-2668591D01*
X47847912Y-2668589D01*
X47847910Y-2668587D01*
X47722388Y-2596117D01*
X47722389Y-2596117D01*
X47612921Y-2566785D01*
X47582375Y-2558600D01*
X47437425Y-2558600D01*
X47406879Y-2566785D01*
X47297410Y-2596117D01*
X47171889Y-2668587D01*
X47171888Y-2668588D01*
X47171885Y-2668590D01*
X47171885Y-2668591D01*
X47113501Y-2726974D01*
X47058987Y-2754750D01*
X46998555Y-2745179D01*
X46955290Y-2701914D01*
X46944500Y-2656969D01*
X46944500Y-2530325D01*
X46923318Y-2451274D01*
X46906984Y-2390315D01*
X46906982Y-2390312D01*
X46906982Y-2390310D01*
X46834512Y-2264789D01*
X46834510Y-2264787D01*
X46834509Y-2264785D01*
X46732015Y-2162291D01*
X46732012Y-2162289D01*
X46732010Y-2162287D01*
X46606488Y-2089817D01*
X46606489Y-2089817D01*
X46549411Y-2074523D01*
X46466475Y-2052300D01*
X46321525Y-2052300D01*
X46259790Y-2068841D01*
X46181510Y-2089817D01*
X46055989Y-2162287D01*
X45953487Y-2264789D01*
X45881017Y-2390310D01*
X45843500Y-2530325D01*
X16278890Y-2530325D01*
X16300500Y-2449675D01*
X16300500Y-2304725D01*
X16262984Y-2164715D01*
X16262982Y-2164712D01*
X16262982Y-2164710D01*
X16190512Y-2039189D01*
X16190510Y-2039187D01*
X16190509Y-2039185D01*
X16088015Y-1936691D01*
X16088012Y-1936689D01*
X16088010Y-1936687D01*
X15962488Y-1864217D01*
X15962489Y-1864217D01*
X15932896Y-1856287D01*
X15822475Y-1826700D01*
X15677525Y-1826700D01*
X15622978Y-1841316D01*
X15537510Y-1864217D01*
X15411989Y-1936687D01*
X15411983Y-1936692D01*
X15358751Y-1989923D01*
X15304234Y-2017699D01*
X15243802Y-2008127D01*
X15218748Y-1989924D01*
X15167115Y-1938291D01*
X15167112Y-1938289D01*
X15167110Y-1938287D01*
X15041588Y-1865817D01*
X15041589Y-1865817D01*
X15011996Y-1857887D01*
X14901575Y-1828300D01*
X14756625Y-1828300D01*
X14694890Y-1844841D01*
X14616610Y-1865817D01*
X14491089Y-1938287D01*
X14388587Y-2040789D01*
X14316117Y-2166310D01*
X14278600Y-2306325D01*
X7025000Y-2306325D01*
X7025000Y-2281825D01*
X6987484Y-2141815D01*
X6987482Y-2141812D01*
X6987482Y-2141810D01*
X6915012Y-2016289D01*
X6915010Y-2016287D01*
X6915009Y-2016285D01*
X6812515Y-1913791D01*
X6812512Y-1913789D01*
X6812510Y-1913787D01*
X6686988Y-1841317D01*
X6686989Y-1841317D01*
X6616670Y-1822475D01*
X6546975Y-1803800D01*
X6402025Y-1803800D01*
X6340290Y-1820341D01*
X6262010Y-1841317D01*
X6136489Y-1913787D01*
X6033987Y-2016289D01*
X5961517Y-2141810D01*
X5924000Y-2281825D01*
X4550000Y-2281825D01*
X4550000Y-1677525D01*
X31297200Y-1677525D01*
X31297200Y-1822475D01*
X31307685Y-1861606D01*
X31334717Y-1962489D01*
X31407187Y-2088010D01*
X31407189Y-2088012D01*
X31407191Y-2088015D01*
X31509685Y-2190509D01*
X31509687Y-2190510D01*
X31509689Y-2190512D01*
X31635211Y-2262982D01*
X31635212Y-2262982D01*
X31635215Y-2262984D01*
X31775225Y-2300500D01*
X31775226Y-2300500D01*
X31920174Y-2300500D01*
X31920175Y-2300500D01*
X32060185Y-2262984D01*
X32060187Y-2262982D01*
X32060189Y-2262982D01*
X32185710Y-2190512D01*
X32185710Y-2190511D01*
X32185715Y-2190509D01*
X32288209Y-2088015D01*
X32315475Y-2040789D01*
X32360682Y-1962489D01*
X32360682Y-1962487D01*
X32360684Y-1962485D01*
X32398200Y-1822475D01*
X32398200Y-1738391D01*
X35874500Y-1738391D01*
X35874500Y-1861608D01*
X35898536Y-1982450D01*
X35945688Y-2096285D01*
X35945689Y-2096286D01*
X36014142Y-2198733D01*
X36101267Y-2285858D01*
X36203714Y-2354311D01*
X36317548Y-2401463D01*
X36438394Y-2425500D01*
X36438396Y-2425500D01*
X36561604Y-2425500D01*
X36561606Y-2425500D01*
X36682452Y-2401463D01*
X36796286Y-2354311D01*
X36898733Y-2285858D01*
X36985858Y-2198733D01*
X37054311Y-2096286D01*
X37101463Y-1982452D01*
X37125500Y-1861606D01*
X37125500Y-1738394D01*
X37125499Y-1738391D01*
X38874500Y-1738391D01*
X38874500Y-1861608D01*
X38898536Y-1982450D01*
X38945688Y-2096285D01*
X38945689Y-2096286D01*
X39014142Y-2198733D01*
X39101267Y-2285858D01*
X39203714Y-2354311D01*
X39317548Y-2401463D01*
X39438394Y-2425500D01*
X39438396Y-2425500D01*
X39561605Y-2425500D01*
X39561606Y-2425500D01*
X39682452Y-2401463D01*
X39796286Y-2354311D01*
X39898733Y-2285858D01*
X39985858Y-2198733D01*
X40054311Y-2096286D01*
X40101463Y-1982452D01*
X40125500Y-1861606D01*
X40125500Y-1738394D01*
X40101463Y-1617548D01*
X40054311Y-1503714D01*
X39985858Y-1401267D01*
X39898733Y-1314142D01*
X39796286Y-1245689D01*
X39796287Y-1245689D01*
X39796285Y-1245688D01*
X39682450Y-1198536D01*
X39561608Y-1174500D01*
X39561606Y-1174500D01*
X39438394Y-1174500D01*
X39438391Y-1174500D01*
X39317549Y-1198536D01*
X39203714Y-1245688D01*
X39101267Y-1314142D01*
X39101263Y-1314145D01*
X39014145Y-1401263D01*
X39014142Y-1401267D01*
X38945688Y-1503714D01*
X38898536Y-1617549D01*
X38874500Y-1738391D01*
X37125499Y-1738391D01*
X37101463Y-1617548D01*
X37054311Y-1503714D01*
X36985858Y-1401267D01*
X36898733Y-1314142D01*
X36796286Y-1245689D01*
X36796287Y-1245689D01*
X36796285Y-1245688D01*
X36682450Y-1198536D01*
X36561608Y-1174500D01*
X36561606Y-1174500D01*
X36438394Y-1174500D01*
X36438391Y-1174500D01*
X36317549Y-1198536D01*
X36203714Y-1245688D01*
X36101267Y-1314142D01*
X36101263Y-1314145D01*
X36014145Y-1401263D01*
X36014142Y-1401267D01*
X35945688Y-1503714D01*
X35898536Y-1617549D01*
X35874500Y-1738391D01*
X32398200Y-1738391D01*
X32398200Y-1677525D01*
X32360684Y-1537515D01*
X32360682Y-1537512D01*
X32360682Y-1537510D01*
X32288212Y-1411989D01*
X32288210Y-1411987D01*
X32288209Y-1411985D01*
X32185715Y-1309491D01*
X32185712Y-1309489D01*
X32185710Y-1309487D01*
X32060188Y-1237017D01*
X32060189Y-1237017D01*
X32030596Y-1229087D01*
X31920175Y-1199500D01*
X31775225Y-1199500D01*
X31713490Y-1216041D01*
X31635210Y-1237017D01*
X31509689Y-1309487D01*
X31407187Y-1411989D01*
X31334717Y-1537510D01*
X31334716Y-1537515D01*
X31297200Y-1677525D01*
X4550000Y-1677525D01*
X4550000Y-399500D01*
X4568907Y-341309D01*
X4618407Y-305345D01*
X4649000Y-300500D01*
X19731969Y-300500D01*
X19790160Y-319407D01*
G37*
%TD.AperFunction*%
%TD*%
M02*
