M48
; DRILL file {KiCad 9.0.5} date 2026-09-28T21:15:24+0100
; FORMAT={-:-/ absolute / metric / decimal}
; #@! TF.CreationDate,2026-09-28T21:15:24+01:00
; #@! TF.GenerationSoftware,Kicad,Pcbnew,9.0.5
; #@! TF.FileFunction,MixedPlating,1,4
FMAT,2
METRIC
; #@! TA.AperFunction,Plated,PTH,ViaDrill
T1C0.200
; #@! TA.AperFunction,Plated,PTH,ViaDrill
T2C0.300
; #@! TA.AperFunction,Plated,PTH,ComponentDrill
T3C0.600
; #@! TA.AperFunction,Plated,PTH,ComponentDrill
T4C0.700
; #@! TA.AperFunction,NonPlated,NPTH,ComponentDrill
T5C0.650
; #@! TA.AperFunction,NonPlated,NPTH,ComponentDrill
T6C0.850
; #@! TA.AperFunction,NonPlated,NPTH,ComponentDrill
T7C2.200
%
G90
G05
T1
X11.525Y-7.675
X11.525Y-9.325
X13.175Y-7.675
X13.175Y-9.325
X45.1Y-23.1
X45.9Y-23.9
T2
X4.9Y-27.4
X4.9Y-31.6
X6.474Y-2.354
X6.58Y-21.82
X8.886Y-17.193
X9.12Y-21.82
X10.52Y-20.5
X11.557Y-16.36
X11.66Y-21.82
X14.2Y-21.82
X14.2Y-24.36
X14.2Y-26.9
X14.2Y-29.8
X14.829Y-2.379
X15.726Y-13.45
X15.75Y-2.377
X15.75Y-16.7
X16.066Y-12.415
X16.6Y-17.9
X16.8Y-25.0
X17.2Y-8.269
X17.574Y-14.576
X18.363Y-7.65
X19.91Y-20.461
X20.192Y-17.538
X20.202Y-0.848
X20.7Y-15.5
X21.084Y-19.359
X21.3Y-21.2
X21.592Y-12.443
X21.633Y-24.034
X21.82Y-9.12
X23.3Y-22.148
X23.341Y-15.812
X23.609Y-12.709
X24.36Y-11.66
X25.5Y-14.0
X25.6Y-18.4
X25.782Y-21.985
X26.006Y-15.729
X26.038Y-19.941
X29.948Y-15.575
X30.05Y-6.283
X31.848Y-1.75
X31.914Y-3.421
X32.611Y-8.048
X34.52Y-9.12
X34.874Y-11.716
X35.0Y-7.225
X37.175Y-4.856
X37.3Y-6.1
X38.85Y-12.6
X39.047Y-20.796
X39.786Y-15.512
X40.898Y-25.226
X41.277Y-23.137
X41.887Y-18.423
X42.14Y-4.04
X42.391Y-16.143
X42.501Y-27.189
X42.601Y-14.043
X42.788Y-6.5
X43.05Y-12.3
X43.241Y-22.316
X43.523Y-7.083
X43.537Y-29.071
X43.621Y-20.395
X43.811Y-18.677
X44.167Y-22.062
X44.375Y-20.6
X44.402Y-15.356
X44.68Y-1.5
X44.842Y-31.393
X44.9Y-6.1
X44.982Y-28.84
X45.158Y-20.567
X45.99Y-5.0
X46.0Y-11.0
X46.0Y-14.662
X46.25Y-26.0
X46.394Y-2.603
X47.102Y-21.776
X47.139Y-17.807
X47.2Y-12.2
X47.22Y-1.5
X47.226Y-24.831
X47.51Y-3.109
X47.718Y-16.966
X47.807Y-20.744
X47.828Y-23.499
X48.134Y-24.891
X48.215Y-5.3
X49.164Y-10.34
X49.76Y-1.5
X49.76Y-16.74
X49.76Y-24.36
X49.76Y-26.9
X52.3Y-1.5
X52.3Y-21.82
X52.3Y-29.44
X52.51Y-27.388
X53.769Y-24.221
X54.84Y-1.5
X54.84Y-26.9
X57.38Y-26.9
T4
X54.704Y-4.704
X54.704Y-8.296
X54.704Y-16.704
X54.704Y-20.296
X58.296Y-4.704
X58.296Y-8.296
X58.296Y-16.704
X58.296Y-20.296
T5
X21.11Y-26.7
X26.89Y-26.7
T6
X36.5Y-1.8
X39.5Y-1.8
T7
X28.0Y-20.6
X56.5Y-30.0
T3
X19.68Y-25.62G85X19.68Y-26.72
G05
X19.68Y-30.05G85X19.68Y-30.65
G05
X28.32Y-25.62G85X28.32Y-26.72
G05
X28.32Y-30.05G85X28.32Y-30.65
G05
M30
