%TF.GenerationSoftware,KiCad,Pcbnew,9.0.5*%
%TF.CreationDate,2026-09-28T21:15:24+01:00*%
%TF.ProjectId,phone_board,70686f6e-655f-4626-9f61-72642e6b6963,rev?*%
%TF.SameCoordinates,Original*%
%TF.FileFunction,Legend,Top*%
%TF.FilePolarity,Positive*%
%FSLAX46Y46*%
G04 Gerber Fmt 4.6, Leading zero omitted, Abs format (unit mm)*
G04 Created by KiCad (PCBNEW 9.0.5) date 2026-09-28 21:15:24*
%MOMM*%
%LPD*%
G01*
G04 APERTURE LIST*
G04 Aperture macros list*
%AMRoundRect*
0 Rectangle with rounded corners*
0 $1 Rounding radius*
0 $2 $3 $4 $5 $6 $7 $8 $9 X,Y pos of 4 corners*
0 Add a 4 corners polygon primitive as box body*
4,1,4,$2,$3,$4,$5,$6,$7,$8,$9,$2,$3,0*
0 Add four circle primitives for the rounded corners*
1,1,$1+$1,$2,$3*
1,1,$1+$1,$4,$5*
1,1,$1+$1,$6,$7*
1,1,$1+$1,$8,$9*
0 Add four rect primitives between the rounded corners*
20,1,$1+$1,$2,$3,$4,$5,0*
20,1,$1+$1,$4,$5,$6,$7,0*
20,1,$1+$1,$6,$7,$8,$9,0*
20,1,$1+$1,$8,$9,$2,$3,0*%
%AMHorizOval*
0 Thick line with rounded ends*
0 $1 width*
0 $2 $3 position (X,Y) of the first rounded end (center of the circle)*
0 $4 $5 position (X,Y) of the second rounded end (center of the circle)*
0 Add line between two ends*
20,1,$1,$2,$3,$4,$5,0*
0 Add two circle primitives to create the rounded ends*
1,1,$1,$2,$3*
1,1,$1,$4,$5*%
%AMOutline5P*
0 Free polygon, 5 corners , with rotation*
0 The origin of the aperture is its center*
0 number of corners: always 5*
0 $1 to $10 corner X, Y*
0 $11 Rotation angle, in degrees counterclockwise*
0 create outline with 5 corners*
4,1,5,$1,$2,$3,$4,$5,$6,$7,$8,$9,$10,$1,$2,$11*%
%AMOutline6P*
0 Free polygon, 6 corners , with rotation*
0 The origin of the aperture is its center*
0 number of corners: always 6*
0 $1 to $12 corner X, Y*
0 $13 Rotation angle, in degrees counterclockwise*
0 create outline with 6 corners*
4,1,6,$1,$2,$3,$4,$5,$6,$7,$8,$9,$10,$11,$12,$1,$2,$13*%
%AMOutline7P*
0 Free polygon, 7 corners , with rotation*
0 The origin of the aperture is its center*
0 number of corners: always 7*
0 $1 to $14 corner X, Y*
0 $15 Rotation angle, in degrees counterclockwise*
0 create outline with 7 corners*
4,1,7,$1,$2,$3,$4,$5,$6,$7,$8,$9,$10,$11,$12,$13,$14,$1,$2,$15*%
%AMOutline8P*
0 Free polygon, 8 corners , with rotation*
0 The origin of the aperture is its center*
0 number of corners: always 8*
0 $1 to $16 corner X, Y*
0 $17 Rotation angle, in degrees counterclockwise*
0 create outline with 8 corners*
4,1,8,$1,$2,$3,$4,$5,$6,$7,$8,$9,$10,$11,$12,$13,$14,$15,$16,$1,$2,$17*%
G04 Aperture macros list end*
%ADD10C,0.150000*%
%ADD11C,0.120000*%
%ADD12C,0.090000*%
%ADD13C,0.096000*%
%ADD14C,0.100000*%
%ADD15C,0.080000*%
%ADD16C,0.850000*%
%ADD17RoundRect,0.150000X0.150000X0.500000X-0.150000X0.500000X-0.150000X-0.500000X0.150000X-0.500000X0*%
%ADD18RoundRect,0.175000X0.350000X0.175000X-0.350000X0.175000X-0.350000X-0.175000X0.350000X-0.175000X0*%
%ADD19RoundRect,0.225000X-0.225000X-0.250000X0.225000X-0.250000X0.225000X0.250000X-0.225000X0.250000X0*%
%ADD20RoundRect,0.135000X-0.135000X-0.185000X0.135000X-0.185000X0.135000X0.185000X-0.135000X0.185000X0*%
%ADD21C,1.000000*%
%ADD22RoundRect,0.140000X0.170000X-0.140000X0.170000X0.140000X-0.170000X0.140000X-0.170000X-0.140000X0*%
%ADD23RoundRect,0.062500X-0.375000X-0.062500X0.375000X-0.062500X0.375000X0.062500X-0.375000X0.062500X0*%
%ADD24RoundRect,0.062500X-0.062500X-0.375000X0.062500X-0.375000X0.062500X0.375000X-0.062500X0.375000X0*%
%ADD25R,1.600000X1.600000*%
%ADD26RoundRect,0.135000X0.185000X-0.135000X0.185000X0.135000X-0.185000X0.135000X-0.185000X-0.135000X0*%
%ADD27RoundRect,0.140000X-0.140000X-0.170000X0.140000X-0.170000X0.140000X0.170000X-0.140000X0.170000X0*%
%ADD28C,0.650000*%
%ADD29R,0.600000X1.450000*%
%ADD30R,0.300000X1.450000*%
%ADD31O,1.000000X2.100000*%
%ADD32O,1.000000X1.600000*%
%ADD33HorizOval,1.200000X0.141421X0.141421X-0.141421X-0.141421X0*%
%ADD34C,1.200000*%
%ADD35R,0.400000X0.800000*%
%ADD36R,0.800000X0.400000*%
%ADD37Outline5P,-0.600000X0.204000X-0.204000X0.600000X0.600000X0.600000X0.600000X-0.600000X-0.600000X-0.600000X90.000000*%
%ADD38R,1.200000X1.200000*%
%ADD39R,0.800000X0.800000*%
%ADD40C,2.200000*%
%ADD41R,0.500000X0.300000*%
%ADD42RoundRect,0.250000X0.250000X0.475000X-0.250000X0.475000X-0.250000X-0.475000X0.250000X-0.475000X0*%
%ADD43RoundRect,0.225000X0.250000X-0.225000X0.250000X0.225000X-0.250000X0.225000X-0.250000X-0.225000X0*%
%ADD44R,1.000000X0.750000*%
%ADD45RoundRect,0.250000X-0.300000X-1.600000X0.300000X-1.600000X0.300000X1.600000X-0.300000X1.600000X0*%
%ADD46RoundRect,0.087500X0.250000X0.087500X-0.250000X0.087500X-0.250000X-0.087500X0.250000X-0.087500X0*%
%ADD47RoundRect,0.150000X-0.512500X-0.150000X0.512500X-0.150000X0.512500X0.150000X-0.512500X0.150000X0*%
%ADD48RoundRect,0.150000X-0.150000X0.587500X-0.150000X-0.587500X0.150000X-0.587500X0.150000X0.587500X0*%
%ADD49R,0.700000X0.700000*%
%ADD50RoundRect,0.087500X0.087500X-0.725000X0.087500X0.725000X-0.087500X0.725000X-0.087500X-0.725000X0*%
%ADD51RoundRect,0.250000X0.250000X1.500000X-0.250000X1.500000X-0.250000X-1.500000X0.250000X-1.500000X0*%
%ADD52RoundRect,0.250001X0.499999X1.449999X-0.499999X1.449999X-0.499999X-1.449999X0.499999X-1.449999X0*%
%ADD53RoundRect,0.250000X-0.250000X-0.475000X0.250000X-0.475000X0.250000X0.475000X-0.250000X0.475000X0*%
G04 APERTURE END LIST*
D10*
X22819048Y-8973866D02*
X23580953Y-8973866D01*
X23200000Y-9354819D02*
X23200000Y-8592914D01*
D11*
X41304762Y-4663855D02*
X41457143Y-4663855D01*
X41457143Y-4663855D02*
X41533333Y-4701950D01*
X41533333Y-4701950D02*
X41609524Y-4778140D01*
X41609524Y-4778140D02*
X41647619Y-4930521D01*
X41647619Y-4930521D02*
X41647619Y-5197188D01*
X41647619Y-5197188D02*
X41609524Y-5349569D01*
X41609524Y-5349569D02*
X41533333Y-5425760D01*
X41533333Y-5425760D02*
X41457143Y-5463855D01*
X41457143Y-5463855D02*
X41304762Y-5463855D01*
X41304762Y-5463855D02*
X41228571Y-5425760D01*
X41228571Y-5425760D02*
X41152381Y-5349569D01*
X41152381Y-5349569D02*
X41114285Y-5197188D01*
X41114285Y-5197188D02*
X41114285Y-4930521D01*
X41114285Y-4930521D02*
X41152381Y-4778140D01*
X41152381Y-4778140D02*
X41228571Y-4701950D01*
X41228571Y-4701950D02*
X41304762Y-4663855D01*
X41990476Y-5463855D02*
X41990476Y-4663855D01*
X41990476Y-4663855D02*
X42447619Y-5463855D01*
X42447619Y-5463855D02*
X42447619Y-4663855D01*
X33961905Y-25813855D02*
X33695238Y-25432902D01*
X33504762Y-25813855D02*
X33504762Y-25013855D01*
X33504762Y-25013855D02*
X33809524Y-25013855D01*
X33809524Y-25013855D02*
X33885714Y-25051950D01*
X33885714Y-25051950D02*
X33923809Y-25090045D01*
X33923809Y-25090045D02*
X33961905Y-25166236D01*
X33961905Y-25166236D02*
X33961905Y-25280521D01*
X33961905Y-25280521D02*
X33923809Y-25356712D01*
X33923809Y-25356712D02*
X33885714Y-25394807D01*
X33885714Y-25394807D02*
X33809524Y-25432902D01*
X33809524Y-25432902D02*
X33504762Y-25432902D01*
X34266666Y-25775760D02*
X34380952Y-25813855D01*
X34380952Y-25813855D02*
X34571428Y-25813855D01*
X34571428Y-25813855D02*
X34647619Y-25775760D01*
X34647619Y-25775760D02*
X34685714Y-25737664D01*
X34685714Y-25737664D02*
X34723809Y-25661474D01*
X34723809Y-25661474D02*
X34723809Y-25585283D01*
X34723809Y-25585283D02*
X34685714Y-25509093D01*
X34685714Y-25509093D02*
X34647619Y-25470998D01*
X34647619Y-25470998D02*
X34571428Y-25432902D01*
X34571428Y-25432902D02*
X34419047Y-25394807D01*
X34419047Y-25394807D02*
X34342857Y-25356712D01*
X34342857Y-25356712D02*
X34304762Y-25318617D01*
X34304762Y-25318617D02*
X34266666Y-25242426D01*
X34266666Y-25242426D02*
X34266666Y-25166236D01*
X34266666Y-25166236D02*
X34304762Y-25090045D01*
X34304762Y-25090045D02*
X34342857Y-25051950D01*
X34342857Y-25051950D02*
X34419047Y-25013855D01*
X34419047Y-25013855D02*
X34609524Y-25013855D01*
X34609524Y-25013855D02*
X34723809Y-25051950D01*
X34952381Y-25013855D02*
X35409524Y-25013855D01*
X35180952Y-25813855D02*
X35180952Y-25013855D01*
D12*
X24200000Y-12272891D02*
X24000000Y-11987177D01*
X23857143Y-12272891D02*
X23857143Y-11672891D01*
X23857143Y-11672891D02*
X24085714Y-11672891D01*
X24085714Y-11672891D02*
X24142857Y-11701462D01*
X24142857Y-11701462D02*
X24171428Y-11730034D01*
X24171428Y-11730034D02*
X24200000Y-11787177D01*
X24200000Y-11787177D02*
X24200000Y-11872891D01*
X24200000Y-11872891D02*
X24171428Y-11930034D01*
X24171428Y-11930034D02*
X24142857Y-11958605D01*
X24142857Y-11958605D02*
X24085714Y-11987177D01*
X24085714Y-11987177D02*
X23857143Y-11987177D01*
X24400000Y-11672891D02*
X24800000Y-12272891D01*
X24800000Y-11672891D02*
X24400000Y-12272891D01*
X21542856Y-11672891D02*
X21885714Y-11672891D01*
X21714285Y-12272891D02*
X21714285Y-11672891D01*
X22028571Y-11672891D02*
X22428571Y-12272891D01*
X22428571Y-11672891D02*
X22028571Y-12272891D01*
D10*
X27019048Y-8973866D02*
X27780953Y-8973866D01*
D12*
X23557142Y-16872891D02*
X23928570Y-16872891D01*
X23928570Y-16872891D02*
X23728570Y-17101462D01*
X23728570Y-17101462D02*
X23814285Y-17101462D01*
X23814285Y-17101462D02*
X23871428Y-17130034D01*
X23871428Y-17130034D02*
X23899999Y-17158605D01*
X23899999Y-17158605D02*
X23928570Y-17215748D01*
X23928570Y-17215748D02*
X23928570Y-17358605D01*
X23928570Y-17358605D02*
X23899999Y-17415748D01*
X23899999Y-17415748D02*
X23871428Y-17444320D01*
X23871428Y-17444320D02*
X23814285Y-17472891D01*
X23814285Y-17472891D02*
X23642856Y-17472891D01*
X23642856Y-17472891D02*
X23585713Y-17444320D01*
X23585713Y-17444320D02*
X23557142Y-17415748D01*
X24099999Y-16872891D02*
X24299999Y-17472891D01*
X24299999Y-17472891D02*
X24499999Y-16872891D01*
X24642857Y-16872891D02*
X25014285Y-16872891D01*
X25014285Y-16872891D02*
X24814285Y-17101462D01*
X24814285Y-17101462D02*
X24900000Y-17101462D01*
X24900000Y-17101462D02*
X24957143Y-17130034D01*
X24957143Y-17130034D02*
X24985714Y-17158605D01*
X24985714Y-17158605D02*
X25014285Y-17215748D01*
X25014285Y-17215748D02*
X25014285Y-17358605D01*
X25014285Y-17358605D02*
X24985714Y-17415748D01*
X24985714Y-17415748D02*
X24957143Y-17444320D01*
X24957143Y-17444320D02*
X24900000Y-17472891D01*
X24900000Y-17472891D02*
X24728571Y-17472891D01*
X24728571Y-17472891D02*
X24671428Y-17444320D01*
X24671428Y-17444320D02*
X24642857Y-17415748D01*
X21542857Y-16901462D02*
X21485715Y-16872891D01*
X21485715Y-16872891D02*
X21400000Y-16872891D01*
X21400000Y-16872891D02*
X21314286Y-16901462D01*
X21314286Y-16901462D02*
X21257143Y-16958605D01*
X21257143Y-16958605D02*
X21228572Y-17015748D01*
X21228572Y-17015748D02*
X21200000Y-17130034D01*
X21200000Y-17130034D02*
X21200000Y-17215748D01*
X21200000Y-17215748D02*
X21228572Y-17330034D01*
X21228572Y-17330034D02*
X21257143Y-17387177D01*
X21257143Y-17387177D02*
X21314286Y-17444320D01*
X21314286Y-17444320D02*
X21400000Y-17472891D01*
X21400000Y-17472891D02*
X21457143Y-17472891D01*
X21457143Y-17472891D02*
X21542857Y-17444320D01*
X21542857Y-17444320D02*
X21571429Y-17415748D01*
X21571429Y-17415748D02*
X21571429Y-17215748D01*
X21571429Y-17215748D02*
X21457143Y-17215748D01*
X21828572Y-17472891D02*
X21828572Y-16872891D01*
X21828572Y-16872891D02*
X22171429Y-17472891D01*
X22171429Y-17472891D02*
X22171429Y-16872891D01*
X22457143Y-17472891D02*
X22457143Y-16872891D01*
X22457143Y-16872891D02*
X22600000Y-16872891D01*
X22600000Y-16872891D02*
X22685714Y-16901462D01*
X22685714Y-16901462D02*
X22742857Y-16958605D01*
X22742857Y-16958605D02*
X22771428Y-17015748D01*
X22771428Y-17015748D02*
X22800000Y-17130034D01*
X22800000Y-17130034D02*
X22800000Y-17215748D01*
X22800000Y-17215748D02*
X22771428Y-17330034D01*
X22771428Y-17330034D02*
X22742857Y-17387177D01*
X22742857Y-17387177D02*
X22685714Y-17444320D01*
X22685714Y-17444320D02*
X22600000Y-17472891D01*
X22600000Y-17472891D02*
X22457143Y-17472891D01*
D11*
X33314285Y-32294807D02*
X33428571Y-32332902D01*
X33428571Y-32332902D02*
X33466666Y-32370998D01*
X33466666Y-32370998D02*
X33504762Y-32447188D01*
X33504762Y-32447188D02*
X33504762Y-32561474D01*
X33504762Y-32561474D02*
X33466666Y-32637664D01*
X33466666Y-32637664D02*
X33428571Y-32675760D01*
X33428571Y-32675760D02*
X33352381Y-32713855D01*
X33352381Y-32713855D02*
X33047619Y-32713855D01*
X33047619Y-32713855D02*
X33047619Y-31913855D01*
X33047619Y-31913855D02*
X33314285Y-31913855D01*
X33314285Y-31913855D02*
X33390476Y-31951950D01*
X33390476Y-31951950D02*
X33428571Y-31990045D01*
X33428571Y-31990045D02*
X33466666Y-32066236D01*
X33466666Y-32066236D02*
X33466666Y-32142426D01*
X33466666Y-32142426D02*
X33428571Y-32218617D01*
X33428571Y-32218617D02*
X33390476Y-32256712D01*
X33390476Y-32256712D02*
X33314285Y-32294807D01*
X33314285Y-32294807D02*
X33047619Y-32294807D01*
X34000000Y-31913855D02*
X34152381Y-31913855D01*
X34152381Y-31913855D02*
X34228571Y-31951950D01*
X34228571Y-31951950D02*
X34304762Y-32028140D01*
X34304762Y-32028140D02*
X34342857Y-32180521D01*
X34342857Y-32180521D02*
X34342857Y-32447188D01*
X34342857Y-32447188D02*
X34304762Y-32599569D01*
X34304762Y-32599569D02*
X34228571Y-32675760D01*
X34228571Y-32675760D02*
X34152381Y-32713855D01*
X34152381Y-32713855D02*
X34000000Y-32713855D01*
X34000000Y-32713855D02*
X33923809Y-32675760D01*
X33923809Y-32675760D02*
X33847619Y-32599569D01*
X33847619Y-32599569D02*
X33809523Y-32447188D01*
X33809523Y-32447188D02*
X33809523Y-32180521D01*
X33809523Y-32180521D02*
X33847619Y-32028140D01*
X33847619Y-32028140D02*
X33923809Y-31951950D01*
X33923809Y-31951950D02*
X34000000Y-31913855D01*
X34838095Y-31913855D02*
X34990476Y-31913855D01*
X34990476Y-31913855D02*
X35066666Y-31951950D01*
X35066666Y-31951950D02*
X35142857Y-32028140D01*
X35142857Y-32028140D02*
X35180952Y-32180521D01*
X35180952Y-32180521D02*
X35180952Y-32447188D01*
X35180952Y-32447188D02*
X35142857Y-32599569D01*
X35142857Y-32599569D02*
X35066666Y-32675760D01*
X35066666Y-32675760D02*
X34990476Y-32713855D01*
X34990476Y-32713855D02*
X34838095Y-32713855D01*
X34838095Y-32713855D02*
X34761904Y-32675760D01*
X34761904Y-32675760D02*
X34685714Y-32599569D01*
X34685714Y-32599569D02*
X34647618Y-32447188D01*
X34647618Y-32447188D02*
X34647618Y-32180521D01*
X34647618Y-32180521D02*
X34685714Y-32028140D01*
X34685714Y-32028140D02*
X34761904Y-31951950D01*
X34761904Y-31951950D02*
X34838095Y-31913855D01*
X35409523Y-31913855D02*
X35866666Y-31913855D01*
X35638094Y-32713855D02*
X35638094Y-31913855D01*
D13*
X42823285Y-1919007D02*
X42909000Y-1947578D01*
X42909000Y-1947578D02*
X43051857Y-1947578D01*
X43051857Y-1947578D02*
X43109000Y-1919007D01*
X43109000Y-1919007D02*
X43137571Y-1890435D01*
X43137571Y-1890435D02*
X43166142Y-1833292D01*
X43166142Y-1833292D02*
X43166142Y-1776149D01*
X43166142Y-1776149D02*
X43137571Y-1719007D01*
X43137571Y-1719007D02*
X43109000Y-1690435D01*
X43109000Y-1690435D02*
X43051857Y-1661864D01*
X43051857Y-1661864D02*
X42937571Y-1633292D01*
X42937571Y-1633292D02*
X42880428Y-1604721D01*
X42880428Y-1604721D02*
X42851857Y-1576149D01*
X42851857Y-1576149D02*
X42823285Y-1519007D01*
X42823285Y-1519007D02*
X42823285Y-1461864D01*
X42823285Y-1461864D02*
X42851857Y-1404721D01*
X42851857Y-1404721D02*
X42880428Y-1376149D01*
X42880428Y-1376149D02*
X42937571Y-1347578D01*
X42937571Y-1347578D02*
X43080428Y-1347578D01*
X43080428Y-1347578D02*
X43166142Y-1376149D01*
X43366143Y-1347578D02*
X43509000Y-1947578D01*
X43509000Y-1947578D02*
X43623286Y-1519007D01*
X43623286Y-1519007D02*
X43737571Y-1947578D01*
X43737571Y-1947578D02*
X43880429Y-1347578D01*
X44423285Y-1947578D02*
X44080428Y-1947578D01*
X44251857Y-1947578D02*
X44251857Y-1347578D01*
X44251857Y-1347578D02*
X44194714Y-1433292D01*
X44194714Y-1433292D02*
X44137571Y-1490435D01*
X44137571Y-1490435D02*
X44080428Y-1519007D01*
X7900000Y-20239915D02*
X7871428Y-20268487D01*
X7871428Y-20268487D02*
X7785714Y-20297058D01*
X7785714Y-20297058D02*
X7728571Y-20297058D01*
X7728571Y-20297058D02*
X7642857Y-20268487D01*
X7642857Y-20268487D02*
X7585714Y-20211344D01*
X7585714Y-20211344D02*
X7557143Y-20154201D01*
X7557143Y-20154201D02*
X7528571Y-20039915D01*
X7528571Y-20039915D02*
X7528571Y-19954201D01*
X7528571Y-19954201D02*
X7557143Y-19839915D01*
X7557143Y-19839915D02*
X7585714Y-19782772D01*
X7585714Y-19782772D02*
X7642857Y-19725629D01*
X7642857Y-19725629D02*
X7728571Y-19697058D01*
X7728571Y-19697058D02*
X7785714Y-19697058D01*
X7785714Y-19697058D02*
X7871428Y-19725629D01*
X7871428Y-19725629D02*
X7900000Y-19754201D01*
X8242857Y-19954201D02*
X8185714Y-19925629D01*
X8185714Y-19925629D02*
X8157143Y-19897058D01*
X8157143Y-19897058D02*
X8128571Y-19839915D01*
X8128571Y-19839915D02*
X8128571Y-19811344D01*
X8128571Y-19811344D02*
X8157143Y-19754201D01*
X8157143Y-19754201D02*
X8185714Y-19725629D01*
X8185714Y-19725629D02*
X8242857Y-19697058D01*
X8242857Y-19697058D02*
X8357143Y-19697058D01*
X8357143Y-19697058D02*
X8414286Y-19725629D01*
X8414286Y-19725629D02*
X8442857Y-19754201D01*
X8442857Y-19754201D02*
X8471428Y-19811344D01*
X8471428Y-19811344D02*
X8471428Y-19839915D01*
X8471428Y-19839915D02*
X8442857Y-19897058D01*
X8442857Y-19897058D02*
X8414286Y-19925629D01*
X8414286Y-19925629D02*
X8357143Y-19954201D01*
X8357143Y-19954201D02*
X8242857Y-19954201D01*
X8242857Y-19954201D02*
X8185714Y-19982772D01*
X8185714Y-19982772D02*
X8157143Y-20011344D01*
X8157143Y-20011344D02*
X8128571Y-20068487D01*
X8128571Y-20068487D02*
X8128571Y-20182772D01*
X8128571Y-20182772D02*
X8157143Y-20239915D01*
X8157143Y-20239915D02*
X8185714Y-20268487D01*
X8185714Y-20268487D02*
X8242857Y-20297058D01*
X8242857Y-20297058D02*
X8357143Y-20297058D01*
X8357143Y-20297058D02*
X8414286Y-20268487D01*
X8414286Y-20268487D02*
X8442857Y-20239915D01*
X8442857Y-20239915D02*
X8471428Y-20182772D01*
X8471428Y-20182772D02*
X8471428Y-20068487D01*
X8471428Y-20068487D02*
X8442857Y-20011344D01*
X8442857Y-20011344D02*
X8414286Y-19982772D01*
X8414286Y-19982772D02*
X8357143Y-19954201D01*
D14*
X40700000Y-16702371D02*
X40500000Y-16416657D01*
X40357143Y-16702371D02*
X40357143Y-16102371D01*
X40357143Y-16102371D02*
X40585714Y-16102371D01*
X40585714Y-16102371D02*
X40642857Y-16130942D01*
X40642857Y-16130942D02*
X40671428Y-16159514D01*
X40671428Y-16159514D02*
X40700000Y-16216657D01*
X40700000Y-16216657D02*
X40700000Y-16302371D01*
X40700000Y-16302371D02*
X40671428Y-16359514D01*
X40671428Y-16359514D02*
X40642857Y-16388085D01*
X40642857Y-16388085D02*
X40585714Y-16416657D01*
X40585714Y-16416657D02*
X40357143Y-16416657D01*
X40900000Y-16102371D02*
X41300000Y-16102371D01*
X41300000Y-16102371D02*
X41042857Y-16702371D01*
D15*
X43516665Y-21117430D02*
X43492856Y-21141240D01*
X43492856Y-21141240D02*
X43421427Y-21165049D01*
X43421427Y-21165049D02*
X43373808Y-21165049D01*
X43373808Y-21165049D02*
X43302380Y-21141240D01*
X43302380Y-21141240D02*
X43254761Y-21093620D01*
X43254761Y-21093620D02*
X43230951Y-21046001D01*
X43230951Y-21046001D02*
X43207142Y-20950763D01*
X43207142Y-20950763D02*
X43207142Y-20879335D01*
X43207142Y-20879335D02*
X43230951Y-20784097D01*
X43230951Y-20784097D02*
X43254761Y-20736478D01*
X43254761Y-20736478D02*
X43302380Y-20688859D01*
X43302380Y-20688859D02*
X43373808Y-20665049D01*
X43373808Y-20665049D02*
X43421427Y-20665049D01*
X43421427Y-20665049D02*
X43492856Y-20688859D01*
X43492856Y-20688859D02*
X43516665Y-20712668D01*
X43707142Y-20712668D02*
X43730951Y-20688859D01*
X43730951Y-20688859D02*
X43778570Y-20665049D01*
X43778570Y-20665049D02*
X43897618Y-20665049D01*
X43897618Y-20665049D02*
X43945237Y-20688859D01*
X43945237Y-20688859D02*
X43969046Y-20712668D01*
X43969046Y-20712668D02*
X43992856Y-20760287D01*
X43992856Y-20760287D02*
X43992856Y-20807906D01*
X43992856Y-20807906D02*
X43969046Y-20879335D01*
X43969046Y-20879335D02*
X43683332Y-21165049D01*
X43683332Y-21165049D02*
X43992856Y-21165049D01*
D13*
X41725285Y-30072579D02*
X41525285Y-29786865D01*
X41382428Y-30072579D02*
X41382428Y-29472579D01*
X41382428Y-29472579D02*
X41610999Y-29472579D01*
X41610999Y-29472579D02*
X41668142Y-29501150D01*
X41668142Y-29501150D02*
X41696713Y-29529722D01*
X41696713Y-29529722D02*
X41725285Y-29586865D01*
X41725285Y-29586865D02*
X41725285Y-29672579D01*
X41725285Y-29672579D02*
X41696713Y-29729722D01*
X41696713Y-29729722D02*
X41668142Y-29758293D01*
X41668142Y-29758293D02*
X41610999Y-29786865D01*
X41610999Y-29786865D02*
X41382428Y-29786865D01*
X42268142Y-29472579D02*
X41982428Y-29472579D01*
X41982428Y-29472579D02*
X41953856Y-29758293D01*
X41953856Y-29758293D02*
X41982428Y-29729722D01*
X41982428Y-29729722D02*
X42039571Y-29701150D01*
X42039571Y-29701150D02*
X42182428Y-29701150D01*
X42182428Y-29701150D02*
X42239571Y-29729722D01*
X42239571Y-29729722D02*
X42268142Y-29758293D01*
X42268142Y-29758293D02*
X42296713Y-29815436D01*
X42296713Y-29815436D02*
X42296713Y-29958293D01*
X42296713Y-29958293D02*
X42268142Y-30015436D01*
X42268142Y-30015436D02*
X42239571Y-30044008D01*
X42239571Y-30044008D02*
X42182428Y-30072579D01*
X42182428Y-30072579D02*
X42039571Y-30072579D01*
X42039571Y-30072579D02*
X41982428Y-30044008D01*
X41982428Y-30044008D02*
X41953856Y-30015436D01*
X7814284Y-27610956D02*
X7785712Y-27639528D01*
X7785712Y-27639528D02*
X7699998Y-27668099D01*
X7699998Y-27668099D02*
X7642855Y-27668099D01*
X7642855Y-27668099D02*
X7557141Y-27639528D01*
X7557141Y-27639528D02*
X7499998Y-27582385D01*
X7499998Y-27582385D02*
X7471427Y-27525242D01*
X7471427Y-27525242D02*
X7442855Y-27410956D01*
X7442855Y-27410956D02*
X7442855Y-27325242D01*
X7442855Y-27325242D02*
X7471427Y-27210956D01*
X7471427Y-27210956D02*
X7499998Y-27153813D01*
X7499998Y-27153813D02*
X7557141Y-27096670D01*
X7557141Y-27096670D02*
X7642855Y-27068099D01*
X7642855Y-27068099D02*
X7699998Y-27068099D01*
X7699998Y-27068099D02*
X7785712Y-27096670D01*
X7785712Y-27096670D02*
X7814284Y-27125242D01*
X8385712Y-27668099D02*
X8042855Y-27668099D01*
X8214284Y-27668099D02*
X8214284Y-27068099D01*
X8214284Y-27068099D02*
X8157141Y-27153813D01*
X8157141Y-27153813D02*
X8099998Y-27210956D01*
X8099998Y-27210956D02*
X8042855Y-27239528D01*
X8928570Y-27068099D02*
X8642856Y-27068099D01*
X8642856Y-27068099D02*
X8614284Y-27353813D01*
X8614284Y-27353813D02*
X8642856Y-27325242D01*
X8642856Y-27325242D02*
X8699999Y-27296670D01*
X8699999Y-27296670D02*
X8842856Y-27296670D01*
X8842856Y-27296670D02*
X8899999Y-27325242D01*
X8899999Y-27325242D02*
X8928570Y-27353813D01*
X8928570Y-27353813D02*
X8957141Y-27410956D01*
X8957141Y-27410956D02*
X8957141Y-27553813D01*
X8957141Y-27553813D02*
X8928570Y-27610956D01*
X8928570Y-27610956D02*
X8899999Y-27639528D01*
X8899999Y-27639528D02*
X8842856Y-27668099D01*
X8842856Y-27668099D02*
X8699999Y-27668099D01*
X8699999Y-27668099D02*
X8642856Y-27639528D01*
X8642856Y-27639528D02*
X8614284Y-27610956D01*
X48174714Y-7372579D02*
X47974714Y-7086865D01*
X47831857Y-7372579D02*
X47831857Y-6772579D01*
X47831857Y-6772579D02*
X48060428Y-6772579D01*
X48060428Y-6772579D02*
X48117571Y-6801150D01*
X48117571Y-6801150D02*
X48146142Y-6829722D01*
X48146142Y-6829722D02*
X48174714Y-6886865D01*
X48174714Y-6886865D02*
X48174714Y-6972579D01*
X48174714Y-6972579D02*
X48146142Y-7029722D01*
X48146142Y-7029722D02*
X48117571Y-7058293D01*
X48117571Y-7058293D02*
X48060428Y-7086865D01*
X48060428Y-7086865D02*
X47831857Y-7086865D01*
X48517571Y-7029722D02*
X48460428Y-7001150D01*
X48460428Y-7001150D02*
X48431857Y-6972579D01*
X48431857Y-6972579D02*
X48403285Y-6915436D01*
X48403285Y-6915436D02*
X48403285Y-6886865D01*
X48403285Y-6886865D02*
X48431857Y-6829722D01*
X48431857Y-6829722D02*
X48460428Y-6801150D01*
X48460428Y-6801150D02*
X48517571Y-6772579D01*
X48517571Y-6772579D02*
X48631857Y-6772579D01*
X48631857Y-6772579D02*
X48689000Y-6801150D01*
X48689000Y-6801150D02*
X48717571Y-6829722D01*
X48717571Y-6829722D02*
X48746142Y-6886865D01*
X48746142Y-6886865D02*
X48746142Y-6915436D01*
X48746142Y-6915436D02*
X48717571Y-6972579D01*
X48717571Y-6972579D02*
X48689000Y-7001150D01*
X48689000Y-7001150D02*
X48631857Y-7029722D01*
X48631857Y-7029722D02*
X48517571Y-7029722D01*
X48517571Y-7029722D02*
X48460428Y-7058293D01*
X48460428Y-7058293D02*
X48431857Y-7086865D01*
X48431857Y-7086865D02*
X48403285Y-7144008D01*
X48403285Y-7144008D02*
X48403285Y-7258293D01*
X48403285Y-7258293D02*
X48431857Y-7315436D01*
X48431857Y-7315436D02*
X48460428Y-7344008D01*
X48460428Y-7344008D02*
X48517571Y-7372579D01*
X48517571Y-7372579D02*
X48631857Y-7372579D01*
X48631857Y-7372579D02*
X48689000Y-7344008D01*
X48689000Y-7344008D02*
X48717571Y-7315436D01*
X48717571Y-7315436D02*
X48746142Y-7258293D01*
X48746142Y-7258293D02*
X48746142Y-7144008D01*
X48746142Y-7144008D02*
X48717571Y-7086865D01*
X48717571Y-7086865D02*
X48689000Y-7058293D01*
X48689000Y-7058293D02*
X48631857Y-7029722D01*
X29724714Y-17615436D02*
X29696142Y-17644008D01*
X29696142Y-17644008D02*
X29610428Y-17672579D01*
X29610428Y-17672579D02*
X29553285Y-17672579D01*
X29553285Y-17672579D02*
X29467571Y-17644008D01*
X29467571Y-17644008D02*
X29410428Y-17586865D01*
X29410428Y-17586865D02*
X29381857Y-17529722D01*
X29381857Y-17529722D02*
X29353285Y-17415436D01*
X29353285Y-17415436D02*
X29353285Y-17329722D01*
X29353285Y-17329722D02*
X29381857Y-17215436D01*
X29381857Y-17215436D02*
X29410428Y-17158293D01*
X29410428Y-17158293D02*
X29467571Y-17101150D01*
X29467571Y-17101150D02*
X29553285Y-17072579D01*
X29553285Y-17072579D02*
X29610428Y-17072579D01*
X29610428Y-17072579D02*
X29696142Y-17101150D01*
X29696142Y-17101150D02*
X29724714Y-17129722D01*
X30239000Y-17272579D02*
X30239000Y-17672579D01*
X30096142Y-17044008D02*
X29953285Y-17472579D01*
X29953285Y-17472579D02*
X30324714Y-17472579D01*
X48031857Y-23172579D02*
X48031857Y-23658293D01*
X48031857Y-23658293D02*
X48060428Y-23715436D01*
X48060428Y-23715436D02*
X48089000Y-23744008D01*
X48089000Y-23744008D02*
X48146142Y-23772579D01*
X48146142Y-23772579D02*
X48260428Y-23772579D01*
X48260428Y-23772579D02*
X48317571Y-23744008D01*
X48317571Y-23744008D02*
X48346142Y-23715436D01*
X48346142Y-23715436D02*
X48374714Y-23658293D01*
X48374714Y-23658293D02*
X48374714Y-23172579D01*
X48631856Y-23229722D02*
X48660428Y-23201150D01*
X48660428Y-23201150D02*
X48717571Y-23172579D01*
X48717571Y-23172579D02*
X48860428Y-23172579D01*
X48860428Y-23172579D02*
X48917571Y-23201150D01*
X48917571Y-23201150D02*
X48946142Y-23229722D01*
X48946142Y-23229722D02*
X48974713Y-23286865D01*
X48974713Y-23286865D02*
X48974713Y-23344008D01*
X48974713Y-23344008D02*
X48946142Y-23429722D01*
X48946142Y-23429722D02*
X48603285Y-23772579D01*
X48603285Y-23772579D02*
X48974713Y-23772579D01*
D14*
X19402371Y-22599999D02*
X19116657Y-22799999D01*
X19402371Y-22942856D02*
X18802371Y-22942856D01*
X18802371Y-22942856D02*
X18802371Y-22714285D01*
X18802371Y-22714285D02*
X18830942Y-22657142D01*
X18830942Y-22657142D02*
X18859514Y-22628571D01*
X18859514Y-22628571D02*
X18916657Y-22599999D01*
X18916657Y-22599999D02*
X19002371Y-22599999D01*
X19002371Y-22599999D02*
X19059514Y-22628571D01*
X19059514Y-22628571D02*
X19088085Y-22657142D01*
X19088085Y-22657142D02*
X19116657Y-22714285D01*
X19116657Y-22714285D02*
X19116657Y-22942856D01*
X19402371Y-22028571D02*
X19402371Y-22371428D01*
X19402371Y-22199999D02*
X18802371Y-22199999D01*
X18802371Y-22199999D02*
X18888085Y-22257142D01*
X18888085Y-22257142D02*
X18945228Y-22314285D01*
X18945228Y-22314285D02*
X18973800Y-22371428D01*
X10900000Y-17655228D02*
X10871428Y-17683800D01*
X10871428Y-17683800D02*
X10785714Y-17712371D01*
X10785714Y-17712371D02*
X10728571Y-17712371D01*
X10728571Y-17712371D02*
X10642857Y-17683800D01*
X10642857Y-17683800D02*
X10585714Y-17626657D01*
X10585714Y-17626657D02*
X10557143Y-17569514D01*
X10557143Y-17569514D02*
X10528571Y-17455228D01*
X10528571Y-17455228D02*
X10528571Y-17369514D01*
X10528571Y-17369514D02*
X10557143Y-17255228D01*
X10557143Y-17255228D02*
X10585714Y-17198085D01*
X10585714Y-17198085D02*
X10642857Y-17140942D01*
X10642857Y-17140942D02*
X10728571Y-17112371D01*
X10728571Y-17112371D02*
X10785714Y-17112371D01*
X10785714Y-17112371D02*
X10871428Y-17140942D01*
X10871428Y-17140942D02*
X10900000Y-17169514D01*
X11185714Y-17712371D02*
X11300000Y-17712371D01*
X11300000Y-17712371D02*
X11357143Y-17683800D01*
X11357143Y-17683800D02*
X11385714Y-17655228D01*
X11385714Y-17655228D02*
X11442857Y-17569514D01*
X11442857Y-17569514D02*
X11471428Y-17455228D01*
X11471428Y-17455228D02*
X11471428Y-17226657D01*
X11471428Y-17226657D02*
X11442857Y-17169514D01*
X11442857Y-17169514D02*
X11414286Y-17140942D01*
X11414286Y-17140942D02*
X11357143Y-17112371D01*
X11357143Y-17112371D02*
X11242857Y-17112371D01*
X11242857Y-17112371D02*
X11185714Y-17140942D01*
X11185714Y-17140942D02*
X11157143Y-17169514D01*
X11157143Y-17169514D02*
X11128571Y-17226657D01*
X11128571Y-17226657D02*
X11128571Y-17369514D01*
X11128571Y-17369514D02*
X11157143Y-17426657D01*
X11157143Y-17426657D02*
X11185714Y-17455228D01*
X11185714Y-17455228D02*
X11242857Y-17483800D01*
X11242857Y-17483800D02*
X11357143Y-17483800D01*
X11357143Y-17483800D02*
X11414286Y-17455228D01*
X11414286Y-17455228D02*
X11442857Y-17426657D01*
X11442857Y-17426657D02*
X11471428Y-17369514D01*
D13*
X37653856Y-19008098D02*
X37453856Y-18722384D01*
X37310999Y-19008098D02*
X37310999Y-18408098D01*
X37310999Y-18408098D02*
X37539570Y-18408098D01*
X37539570Y-18408098D02*
X37596713Y-18436669D01*
X37596713Y-18436669D02*
X37625284Y-18465241D01*
X37625284Y-18465241D02*
X37653856Y-18522384D01*
X37653856Y-18522384D02*
X37653856Y-18608098D01*
X37653856Y-18608098D02*
X37625284Y-18665241D01*
X37625284Y-18665241D02*
X37596713Y-18693812D01*
X37596713Y-18693812D02*
X37539570Y-18722384D01*
X37539570Y-18722384D02*
X37310999Y-18722384D01*
X38225284Y-19008098D02*
X37882427Y-19008098D01*
X38053856Y-19008098D02*
X38053856Y-18408098D01*
X38053856Y-18408098D02*
X37996713Y-18493812D01*
X37996713Y-18493812D02*
X37939570Y-18550955D01*
X37939570Y-18550955D02*
X37882427Y-18579527D01*
X38568142Y-18665241D02*
X38510999Y-18636669D01*
X38510999Y-18636669D02*
X38482428Y-18608098D01*
X38482428Y-18608098D02*
X38453856Y-18550955D01*
X38453856Y-18550955D02*
X38453856Y-18522384D01*
X38453856Y-18522384D02*
X38482428Y-18465241D01*
X38482428Y-18465241D02*
X38510999Y-18436669D01*
X38510999Y-18436669D02*
X38568142Y-18408098D01*
X38568142Y-18408098D02*
X38682428Y-18408098D01*
X38682428Y-18408098D02*
X38739571Y-18436669D01*
X38739571Y-18436669D02*
X38768142Y-18465241D01*
X38768142Y-18465241D02*
X38796713Y-18522384D01*
X38796713Y-18522384D02*
X38796713Y-18550955D01*
X38796713Y-18550955D02*
X38768142Y-18608098D01*
X38768142Y-18608098D02*
X38739571Y-18636669D01*
X38739571Y-18636669D02*
X38682428Y-18665241D01*
X38682428Y-18665241D02*
X38568142Y-18665241D01*
X38568142Y-18665241D02*
X38510999Y-18693812D01*
X38510999Y-18693812D02*
X38482428Y-18722384D01*
X38482428Y-18722384D02*
X38453856Y-18779527D01*
X38453856Y-18779527D02*
X38453856Y-18893812D01*
X38453856Y-18893812D02*
X38482428Y-18950955D01*
X38482428Y-18950955D02*
X38510999Y-18979527D01*
X38510999Y-18979527D02*
X38568142Y-19008098D01*
X38568142Y-19008098D02*
X38682428Y-19008098D01*
X38682428Y-19008098D02*
X38739571Y-18979527D01*
X38739571Y-18979527D02*
X38768142Y-18950955D01*
X38768142Y-18950955D02*
X38796713Y-18893812D01*
X38796713Y-18893812D02*
X38796713Y-18779527D01*
X38796713Y-18779527D02*
X38768142Y-18722384D01*
X38768142Y-18722384D02*
X38739571Y-18693812D01*
X38739571Y-18693812D02*
X38682428Y-18665241D01*
X45274714Y-26872579D02*
X45074714Y-26586865D01*
X44931857Y-26872579D02*
X44931857Y-26272579D01*
X44931857Y-26272579D02*
X45160428Y-26272579D01*
X45160428Y-26272579D02*
X45217571Y-26301150D01*
X45217571Y-26301150D02*
X45246142Y-26329722D01*
X45246142Y-26329722D02*
X45274714Y-26386865D01*
X45274714Y-26386865D02*
X45274714Y-26472579D01*
X45274714Y-26472579D02*
X45246142Y-26529722D01*
X45246142Y-26529722D02*
X45217571Y-26558293D01*
X45217571Y-26558293D02*
X45160428Y-26586865D01*
X45160428Y-26586865D02*
X44931857Y-26586865D01*
X45474714Y-26272579D02*
X45846142Y-26272579D01*
X45846142Y-26272579D02*
X45646142Y-26501150D01*
X45646142Y-26501150D02*
X45731857Y-26501150D01*
X45731857Y-26501150D02*
X45789000Y-26529722D01*
X45789000Y-26529722D02*
X45817571Y-26558293D01*
X45817571Y-26558293D02*
X45846142Y-26615436D01*
X45846142Y-26615436D02*
X45846142Y-26758293D01*
X45846142Y-26758293D02*
X45817571Y-26815436D01*
X45817571Y-26815436D02*
X45789000Y-26844008D01*
X45789000Y-26844008D02*
X45731857Y-26872579D01*
X45731857Y-26872579D02*
X45560428Y-26872579D01*
X45560428Y-26872579D02*
X45503285Y-26844008D01*
X45503285Y-26844008D02*
X45474714Y-26815436D01*
D14*
X23799999Y-23327371D02*
X23799999Y-23755942D01*
X23799999Y-23755942D02*
X23771428Y-23841657D01*
X23771428Y-23841657D02*
X23714285Y-23898800D01*
X23714285Y-23898800D02*
X23628571Y-23927371D01*
X23628571Y-23927371D02*
X23571428Y-23927371D01*
X24399999Y-23927371D02*
X24057142Y-23927371D01*
X24228571Y-23927371D02*
X24228571Y-23327371D01*
X24228571Y-23327371D02*
X24171428Y-23413085D01*
X24171428Y-23413085D02*
X24114285Y-23470228D01*
X24114285Y-23470228D02*
X24057142Y-23498800D01*
X52240904Y-2887299D02*
X52321716Y-2846893D01*
X52321716Y-2846893D02*
X52422731Y-2745878D01*
X52422731Y-2745878D02*
X52442935Y-2685269D01*
X52442935Y-2685269D02*
X52442935Y-2644863D01*
X52442935Y-2644863D02*
X52422731Y-2584253D01*
X52422731Y-2584253D02*
X52382325Y-2543847D01*
X52382325Y-2543847D02*
X52321716Y-2523644D01*
X52321716Y-2523644D02*
X52281310Y-2523644D01*
X52281310Y-2523644D02*
X52220701Y-2543847D01*
X52220701Y-2543847D02*
X52119686Y-2604457D01*
X52119686Y-2604457D02*
X52059077Y-2624660D01*
X52059077Y-2624660D02*
X52018670Y-2624660D01*
X52018670Y-2624660D02*
X51958061Y-2604457D01*
X51958061Y-2604457D02*
X51917655Y-2564050D01*
X51917655Y-2564050D02*
X51897452Y-2503441D01*
X51897452Y-2503441D02*
X51897452Y-2463035D01*
X51897452Y-2463035D02*
X51917655Y-2402426D01*
X51917655Y-2402426D02*
X52018670Y-2301411D01*
X52018670Y-2301411D02*
X52099483Y-2261005D01*
X52907605Y-2261004D02*
X52665168Y-2503441D01*
X52786387Y-2382223D02*
X52362123Y-1957959D01*
X52362123Y-1957959D02*
X52382326Y-2058974D01*
X52382326Y-2058974D02*
X52382326Y-2139786D01*
X52382326Y-2139786D02*
X52362123Y-2200395D01*
D13*
X49974714Y-21337058D02*
X49774714Y-21051344D01*
X49631857Y-21337058D02*
X49631857Y-20737058D01*
X49631857Y-20737058D02*
X49860428Y-20737058D01*
X49860428Y-20737058D02*
X49917571Y-20765629D01*
X49917571Y-20765629D02*
X49946142Y-20794201D01*
X49946142Y-20794201D02*
X49974714Y-20851344D01*
X49974714Y-20851344D02*
X49974714Y-20937058D01*
X49974714Y-20937058D02*
X49946142Y-20994201D01*
X49946142Y-20994201D02*
X49917571Y-21022772D01*
X49917571Y-21022772D02*
X49860428Y-21051344D01*
X49860428Y-21051344D02*
X49631857Y-21051344D01*
X50546142Y-21337058D02*
X50203285Y-21337058D01*
X50374714Y-21337058D02*
X50374714Y-20737058D01*
X50374714Y-20737058D02*
X50317571Y-20822772D01*
X50317571Y-20822772D02*
X50260428Y-20879915D01*
X50260428Y-20879915D02*
X50203285Y-20908487D01*
X50831857Y-21337058D02*
X50946143Y-21337058D01*
X50946143Y-21337058D02*
X51003286Y-21308487D01*
X51003286Y-21308487D02*
X51031857Y-21279915D01*
X51031857Y-21279915D02*
X51089000Y-21194201D01*
X51089000Y-21194201D02*
X51117571Y-21079915D01*
X51117571Y-21079915D02*
X51117571Y-20851344D01*
X51117571Y-20851344D02*
X51089000Y-20794201D01*
X51089000Y-20794201D02*
X51060429Y-20765629D01*
X51060429Y-20765629D02*
X51003286Y-20737058D01*
X51003286Y-20737058D02*
X50889000Y-20737058D01*
X50889000Y-20737058D02*
X50831857Y-20765629D01*
X50831857Y-20765629D02*
X50803286Y-20794201D01*
X50803286Y-20794201D02*
X50774714Y-20851344D01*
X50774714Y-20851344D02*
X50774714Y-20994201D01*
X50774714Y-20994201D02*
X50803286Y-21051344D01*
X50803286Y-21051344D02*
X50831857Y-21079915D01*
X50831857Y-21079915D02*
X50889000Y-21108487D01*
X50889000Y-21108487D02*
X51003286Y-21108487D01*
X51003286Y-21108487D02*
X51060429Y-21079915D01*
X51060429Y-21079915D02*
X51089000Y-21051344D01*
X51089000Y-21051344D02*
X51117571Y-20994201D01*
X37214284Y-13648099D02*
X37014284Y-13362385D01*
X36871427Y-13648099D02*
X36871427Y-13048099D01*
X36871427Y-13048099D02*
X37099998Y-13048099D01*
X37099998Y-13048099D02*
X37157141Y-13076670D01*
X37157141Y-13076670D02*
X37185712Y-13105242D01*
X37185712Y-13105242D02*
X37214284Y-13162385D01*
X37214284Y-13162385D02*
X37214284Y-13248099D01*
X37214284Y-13248099D02*
X37185712Y-13305242D01*
X37185712Y-13305242D02*
X37157141Y-13333813D01*
X37157141Y-13333813D02*
X37099998Y-13362385D01*
X37099998Y-13362385D02*
X36871427Y-13362385D01*
X37785712Y-13648099D02*
X37442855Y-13648099D01*
X37614284Y-13648099D02*
X37614284Y-13048099D01*
X37614284Y-13048099D02*
X37557141Y-13133813D01*
X37557141Y-13133813D02*
X37499998Y-13190956D01*
X37499998Y-13190956D02*
X37442855Y-13219528D01*
X38299999Y-13248099D02*
X38299999Y-13648099D01*
X38157141Y-13019528D02*
X38014284Y-13448099D01*
X38014284Y-13448099D02*
X38385713Y-13448099D01*
D15*
X26297430Y-20452618D02*
X26321240Y-20476427D01*
X26321240Y-20476427D02*
X26345049Y-20547856D01*
X26345049Y-20547856D02*
X26345049Y-20595475D01*
X26345049Y-20595475D02*
X26321240Y-20666903D01*
X26321240Y-20666903D02*
X26273620Y-20714522D01*
X26273620Y-20714522D02*
X26226001Y-20738332D01*
X26226001Y-20738332D02*
X26130763Y-20762141D01*
X26130763Y-20762141D02*
X26059335Y-20762141D01*
X26059335Y-20762141D02*
X25964097Y-20738332D01*
X25964097Y-20738332D02*
X25916478Y-20714522D01*
X25916478Y-20714522D02*
X25868859Y-20666903D01*
X25868859Y-20666903D02*
X25845049Y-20595475D01*
X25845049Y-20595475D02*
X25845049Y-20547856D01*
X25845049Y-20547856D02*
X25868859Y-20476427D01*
X25868859Y-20476427D02*
X25892668Y-20452618D01*
X26345049Y-19976427D02*
X26345049Y-20262141D01*
X26345049Y-20119284D02*
X25845049Y-20119284D01*
X25845049Y-20119284D02*
X25916478Y-20166903D01*
X25916478Y-20166903D02*
X25964097Y-20214522D01*
X25964097Y-20214522D02*
X25987906Y-20262141D01*
X25845049Y-19666904D02*
X25845049Y-19619285D01*
X25845049Y-19619285D02*
X25868859Y-19571666D01*
X25868859Y-19571666D02*
X25892668Y-19547856D01*
X25892668Y-19547856D02*
X25940287Y-19524047D01*
X25940287Y-19524047D02*
X26035525Y-19500237D01*
X26035525Y-19500237D02*
X26154573Y-19500237D01*
X26154573Y-19500237D02*
X26249811Y-19524047D01*
X26249811Y-19524047D02*
X26297430Y-19547856D01*
X26297430Y-19547856D02*
X26321240Y-19571666D01*
X26321240Y-19571666D02*
X26345049Y-19619285D01*
X26345049Y-19619285D02*
X26345049Y-19666904D01*
X26345049Y-19666904D02*
X26321240Y-19714523D01*
X26321240Y-19714523D02*
X26297430Y-19738332D01*
X26297430Y-19738332D02*
X26249811Y-19762142D01*
X26249811Y-19762142D02*
X26154573Y-19785951D01*
X26154573Y-19785951D02*
X26035525Y-19785951D01*
X26035525Y-19785951D02*
X25940287Y-19762142D01*
X25940287Y-19762142D02*
X25892668Y-19738332D01*
X25892668Y-19738332D02*
X25868859Y-19714523D01*
X25868859Y-19714523D02*
X25845049Y-19666904D01*
D13*
X51053856Y-25272579D02*
X50853856Y-24986865D01*
X50710999Y-25272579D02*
X50710999Y-24672579D01*
X50710999Y-24672579D02*
X50939570Y-24672579D01*
X50939570Y-24672579D02*
X50996713Y-24701150D01*
X50996713Y-24701150D02*
X51025284Y-24729722D01*
X51025284Y-24729722D02*
X51053856Y-24786865D01*
X51053856Y-24786865D02*
X51053856Y-24872579D01*
X51053856Y-24872579D02*
X51025284Y-24929722D01*
X51025284Y-24929722D02*
X50996713Y-24958293D01*
X50996713Y-24958293D02*
X50939570Y-24986865D01*
X50939570Y-24986865D02*
X50710999Y-24986865D01*
X51282427Y-24729722D02*
X51310999Y-24701150D01*
X51310999Y-24701150D02*
X51368142Y-24672579D01*
X51368142Y-24672579D02*
X51510999Y-24672579D01*
X51510999Y-24672579D02*
X51568142Y-24701150D01*
X51568142Y-24701150D02*
X51596713Y-24729722D01*
X51596713Y-24729722D02*
X51625284Y-24786865D01*
X51625284Y-24786865D02*
X51625284Y-24844008D01*
X51625284Y-24844008D02*
X51596713Y-24929722D01*
X51596713Y-24929722D02*
X51253856Y-25272579D01*
X51253856Y-25272579D02*
X51625284Y-25272579D01*
X51825285Y-24672579D02*
X52196713Y-24672579D01*
X52196713Y-24672579D02*
X51996713Y-24901150D01*
X51996713Y-24901150D02*
X52082428Y-24901150D01*
X52082428Y-24901150D02*
X52139571Y-24929722D01*
X52139571Y-24929722D02*
X52168142Y-24958293D01*
X52168142Y-24958293D02*
X52196713Y-25015436D01*
X52196713Y-25015436D02*
X52196713Y-25158293D01*
X52196713Y-25158293D02*
X52168142Y-25215436D01*
X52168142Y-25215436D02*
X52139571Y-25244008D01*
X52139571Y-25244008D02*
X52082428Y-25272579D01*
X52082428Y-25272579D02*
X51910999Y-25272579D01*
X51910999Y-25272579D02*
X51853856Y-25244008D01*
X51853856Y-25244008D02*
X51825285Y-25215436D01*
D14*
X5542857Y-26972371D02*
X5542857Y-27458085D01*
X5542857Y-27458085D02*
X5571428Y-27515228D01*
X5571428Y-27515228D02*
X5600000Y-27543800D01*
X5600000Y-27543800D02*
X5657142Y-27572371D01*
X5657142Y-27572371D02*
X5771428Y-27572371D01*
X5771428Y-27572371D02*
X5828571Y-27543800D01*
X5828571Y-27543800D02*
X5857142Y-27515228D01*
X5857142Y-27515228D02*
X5885714Y-27458085D01*
X5885714Y-27458085D02*
X5885714Y-26972371D01*
X6114285Y-26972371D02*
X6514285Y-26972371D01*
X6514285Y-26972371D02*
X6257142Y-27572371D01*
D13*
X41725285Y-28472579D02*
X41525285Y-28186865D01*
X41382428Y-28472579D02*
X41382428Y-27872579D01*
X41382428Y-27872579D02*
X41610999Y-27872579D01*
X41610999Y-27872579D02*
X41668142Y-27901150D01*
X41668142Y-27901150D02*
X41696713Y-27929722D01*
X41696713Y-27929722D02*
X41725285Y-27986865D01*
X41725285Y-27986865D02*
X41725285Y-28072579D01*
X41725285Y-28072579D02*
X41696713Y-28129722D01*
X41696713Y-28129722D02*
X41668142Y-28158293D01*
X41668142Y-28158293D02*
X41610999Y-28186865D01*
X41610999Y-28186865D02*
X41382428Y-28186865D01*
X42239571Y-28072579D02*
X42239571Y-28472579D01*
X42096713Y-27844008D02*
X41953856Y-28272579D01*
X41953856Y-28272579D02*
X42325285Y-28272579D01*
X31214714Y-25772579D02*
X31014714Y-25486865D01*
X30871857Y-25772579D02*
X30871857Y-25172579D01*
X30871857Y-25172579D02*
X31100428Y-25172579D01*
X31100428Y-25172579D02*
X31157571Y-25201150D01*
X31157571Y-25201150D02*
X31186142Y-25229722D01*
X31186142Y-25229722D02*
X31214714Y-25286865D01*
X31214714Y-25286865D02*
X31214714Y-25372579D01*
X31214714Y-25372579D02*
X31186142Y-25429722D01*
X31186142Y-25429722D02*
X31157571Y-25458293D01*
X31157571Y-25458293D02*
X31100428Y-25486865D01*
X31100428Y-25486865D02*
X30871857Y-25486865D01*
X31443285Y-25229722D02*
X31471857Y-25201150D01*
X31471857Y-25201150D02*
X31529000Y-25172579D01*
X31529000Y-25172579D02*
X31671857Y-25172579D01*
X31671857Y-25172579D02*
X31729000Y-25201150D01*
X31729000Y-25201150D02*
X31757571Y-25229722D01*
X31757571Y-25229722D02*
X31786142Y-25286865D01*
X31786142Y-25286865D02*
X31786142Y-25344008D01*
X31786142Y-25344008D02*
X31757571Y-25429722D01*
X31757571Y-25429722D02*
X31414714Y-25772579D01*
X31414714Y-25772579D02*
X31786142Y-25772579D01*
D14*
X43214285Y-3302371D02*
X43014285Y-3016657D01*
X42871428Y-3302371D02*
X42871428Y-2702371D01*
X42871428Y-2702371D02*
X43099999Y-2702371D01*
X43099999Y-2702371D02*
X43157142Y-2730942D01*
X43157142Y-2730942D02*
X43185713Y-2759514D01*
X43185713Y-2759514D02*
X43214285Y-2816657D01*
X43214285Y-2816657D02*
X43214285Y-2902371D01*
X43214285Y-2902371D02*
X43185713Y-2959514D01*
X43185713Y-2959514D02*
X43157142Y-2988085D01*
X43157142Y-2988085D02*
X43099999Y-3016657D01*
X43099999Y-3016657D02*
X42871428Y-3016657D01*
X43785713Y-3302371D02*
X43442856Y-3302371D01*
X43614285Y-3302371D02*
X43614285Y-2702371D01*
X43614285Y-2702371D02*
X43557142Y-2788085D01*
X43557142Y-2788085D02*
X43499999Y-2845228D01*
X43499999Y-2845228D02*
X43442856Y-2873800D01*
X44328571Y-2702371D02*
X44042857Y-2702371D01*
X44042857Y-2702371D02*
X44014285Y-2988085D01*
X44014285Y-2988085D02*
X44042857Y-2959514D01*
X44042857Y-2959514D02*
X44100000Y-2930942D01*
X44100000Y-2930942D02*
X44242857Y-2930942D01*
X44242857Y-2930942D02*
X44300000Y-2959514D01*
X44300000Y-2959514D02*
X44328571Y-2988085D01*
X44328571Y-2988085D02*
X44357142Y-3045228D01*
X44357142Y-3045228D02*
X44357142Y-3188085D01*
X44357142Y-3188085D02*
X44328571Y-3245228D01*
X44328571Y-3245228D02*
X44300000Y-3273800D01*
X44300000Y-3273800D02*
X44242857Y-3302371D01*
X44242857Y-3302371D02*
X44100000Y-3302371D01*
X44100000Y-3302371D02*
X44042857Y-3273800D01*
X44042857Y-3273800D02*
X44014285Y-3245228D01*
D15*
X46416666Y-9805049D02*
X46250000Y-9566954D01*
X46130952Y-9805049D02*
X46130952Y-9305049D01*
X46130952Y-9305049D02*
X46321428Y-9305049D01*
X46321428Y-9305049D02*
X46369047Y-9328859D01*
X46369047Y-9328859D02*
X46392857Y-9352668D01*
X46392857Y-9352668D02*
X46416666Y-9400287D01*
X46416666Y-9400287D02*
X46416666Y-9471716D01*
X46416666Y-9471716D02*
X46392857Y-9519335D01*
X46392857Y-9519335D02*
X46369047Y-9543144D01*
X46369047Y-9543144D02*
X46321428Y-9566954D01*
X46321428Y-9566954D02*
X46130952Y-9566954D01*
X46654762Y-9805049D02*
X46750000Y-9805049D01*
X46750000Y-9805049D02*
X46797619Y-9781240D01*
X46797619Y-9781240D02*
X46821428Y-9757430D01*
X46821428Y-9757430D02*
X46869047Y-9686001D01*
X46869047Y-9686001D02*
X46892857Y-9590763D01*
X46892857Y-9590763D02*
X46892857Y-9400287D01*
X46892857Y-9400287D02*
X46869047Y-9352668D01*
X46869047Y-9352668D02*
X46845238Y-9328859D01*
X46845238Y-9328859D02*
X46797619Y-9305049D01*
X46797619Y-9305049D02*
X46702381Y-9305049D01*
X46702381Y-9305049D02*
X46654762Y-9328859D01*
X46654762Y-9328859D02*
X46630952Y-9352668D01*
X46630952Y-9352668D02*
X46607143Y-9400287D01*
X46607143Y-9400287D02*
X46607143Y-9519335D01*
X46607143Y-9519335D02*
X46630952Y-9566954D01*
X46630952Y-9566954D02*
X46654762Y-9590763D01*
X46654762Y-9590763D02*
X46702381Y-9614573D01*
X46702381Y-9614573D02*
X46797619Y-9614573D01*
X46797619Y-9614573D02*
X46845238Y-9590763D01*
X46845238Y-9590763D02*
X46869047Y-9566954D01*
X46869047Y-9566954D02*
X46892857Y-9519335D01*
X51179761Y-12805049D02*
X51013095Y-12566954D01*
X50894047Y-12805049D02*
X50894047Y-12305049D01*
X50894047Y-12305049D02*
X51084523Y-12305049D01*
X51084523Y-12305049D02*
X51132142Y-12328859D01*
X51132142Y-12328859D02*
X51155952Y-12352668D01*
X51155952Y-12352668D02*
X51179761Y-12400287D01*
X51179761Y-12400287D02*
X51179761Y-12471716D01*
X51179761Y-12471716D02*
X51155952Y-12519335D01*
X51155952Y-12519335D02*
X51132142Y-12543144D01*
X51132142Y-12543144D02*
X51084523Y-12566954D01*
X51084523Y-12566954D02*
X50894047Y-12566954D01*
X51370238Y-12352668D02*
X51394047Y-12328859D01*
X51394047Y-12328859D02*
X51441666Y-12305049D01*
X51441666Y-12305049D02*
X51560714Y-12305049D01*
X51560714Y-12305049D02*
X51608333Y-12328859D01*
X51608333Y-12328859D02*
X51632142Y-12352668D01*
X51632142Y-12352668D02*
X51655952Y-12400287D01*
X51655952Y-12400287D02*
X51655952Y-12447906D01*
X51655952Y-12447906D02*
X51632142Y-12519335D01*
X51632142Y-12519335D02*
X51346428Y-12805049D01*
X51346428Y-12805049D02*
X51655952Y-12805049D01*
X51965475Y-12305049D02*
X52013094Y-12305049D01*
X52013094Y-12305049D02*
X52060713Y-12328859D01*
X52060713Y-12328859D02*
X52084523Y-12352668D01*
X52084523Y-12352668D02*
X52108332Y-12400287D01*
X52108332Y-12400287D02*
X52132142Y-12495525D01*
X52132142Y-12495525D02*
X52132142Y-12614573D01*
X52132142Y-12614573D02*
X52108332Y-12709811D01*
X52108332Y-12709811D02*
X52084523Y-12757430D01*
X52084523Y-12757430D02*
X52060713Y-12781240D01*
X52060713Y-12781240D02*
X52013094Y-12805049D01*
X52013094Y-12805049D02*
X51965475Y-12805049D01*
X51965475Y-12805049D02*
X51917856Y-12781240D01*
X51917856Y-12781240D02*
X51894047Y-12757430D01*
X51894047Y-12757430D02*
X51870237Y-12709811D01*
X51870237Y-12709811D02*
X51846428Y-12614573D01*
X51846428Y-12614573D02*
X51846428Y-12495525D01*
X51846428Y-12495525D02*
X51870237Y-12400287D01*
X51870237Y-12400287D02*
X51894047Y-12352668D01*
X51894047Y-12352668D02*
X51917856Y-12328859D01*
X51917856Y-12328859D02*
X51965475Y-12305049D01*
D13*
X34214285Y-13937059D02*
X34014285Y-13651345D01*
X33871428Y-13937059D02*
X33871428Y-13337059D01*
X33871428Y-13337059D02*
X34099999Y-13337059D01*
X34099999Y-13337059D02*
X34157142Y-13365630D01*
X34157142Y-13365630D02*
X34185713Y-13394202D01*
X34185713Y-13394202D02*
X34214285Y-13451345D01*
X34214285Y-13451345D02*
X34214285Y-13537059D01*
X34214285Y-13537059D02*
X34185713Y-13594202D01*
X34185713Y-13594202D02*
X34157142Y-13622773D01*
X34157142Y-13622773D02*
X34099999Y-13651345D01*
X34099999Y-13651345D02*
X33871428Y-13651345D01*
X34785713Y-13937059D02*
X34442856Y-13937059D01*
X34614285Y-13937059D02*
X34614285Y-13337059D01*
X34614285Y-13337059D02*
X34557142Y-13422773D01*
X34557142Y-13422773D02*
X34499999Y-13479916D01*
X34499999Y-13479916D02*
X34442856Y-13508488D01*
X35157142Y-13337059D02*
X35214285Y-13337059D01*
X35214285Y-13337059D02*
X35271428Y-13365630D01*
X35271428Y-13365630D02*
X35300000Y-13394202D01*
X35300000Y-13394202D02*
X35328571Y-13451345D01*
X35328571Y-13451345D02*
X35357142Y-13565630D01*
X35357142Y-13565630D02*
X35357142Y-13708488D01*
X35357142Y-13708488D02*
X35328571Y-13822773D01*
X35328571Y-13822773D02*
X35300000Y-13879916D01*
X35300000Y-13879916D02*
X35271428Y-13908488D01*
X35271428Y-13908488D02*
X35214285Y-13937059D01*
X35214285Y-13937059D02*
X35157142Y-13937059D01*
X35157142Y-13937059D02*
X35100000Y-13908488D01*
X35100000Y-13908488D02*
X35071428Y-13879916D01*
X35071428Y-13879916D02*
X35042857Y-13822773D01*
X35042857Y-13822773D02*
X35014285Y-13708488D01*
X35014285Y-13708488D02*
X35014285Y-13565630D01*
X35014285Y-13565630D02*
X35042857Y-13451345D01*
X35042857Y-13451345D02*
X35071428Y-13394202D01*
X35071428Y-13394202D02*
X35100000Y-13365630D01*
X35100000Y-13365630D02*
X35157142Y-13337059D01*
D14*
X39700000Y-13395228D02*
X39671428Y-13423800D01*
X39671428Y-13423800D02*
X39585714Y-13452371D01*
X39585714Y-13452371D02*
X39528571Y-13452371D01*
X39528571Y-13452371D02*
X39442857Y-13423800D01*
X39442857Y-13423800D02*
X39385714Y-13366657D01*
X39385714Y-13366657D02*
X39357143Y-13309514D01*
X39357143Y-13309514D02*
X39328571Y-13195228D01*
X39328571Y-13195228D02*
X39328571Y-13109514D01*
X39328571Y-13109514D02*
X39357143Y-12995228D01*
X39357143Y-12995228D02*
X39385714Y-12938085D01*
X39385714Y-12938085D02*
X39442857Y-12880942D01*
X39442857Y-12880942D02*
X39528571Y-12852371D01*
X39528571Y-12852371D02*
X39585714Y-12852371D01*
X39585714Y-12852371D02*
X39671428Y-12880942D01*
X39671428Y-12880942D02*
X39700000Y-12909514D01*
X39900000Y-12852371D02*
X40300000Y-12852371D01*
X40300000Y-12852371D02*
X40042857Y-13452371D01*
D13*
X41100000Y-25839916D02*
X41071428Y-25868488D01*
X41071428Y-25868488D02*
X40985714Y-25897059D01*
X40985714Y-25897059D02*
X40928571Y-25897059D01*
X40928571Y-25897059D02*
X40842857Y-25868488D01*
X40842857Y-25868488D02*
X40785714Y-25811345D01*
X40785714Y-25811345D02*
X40757143Y-25754202D01*
X40757143Y-25754202D02*
X40728571Y-25639916D01*
X40728571Y-25639916D02*
X40728571Y-25554202D01*
X40728571Y-25554202D02*
X40757143Y-25439916D01*
X40757143Y-25439916D02*
X40785714Y-25382773D01*
X40785714Y-25382773D02*
X40842857Y-25325630D01*
X40842857Y-25325630D02*
X40928571Y-25297059D01*
X40928571Y-25297059D02*
X40985714Y-25297059D01*
X40985714Y-25297059D02*
X41071428Y-25325630D01*
X41071428Y-25325630D02*
X41100000Y-25354202D01*
X41300000Y-25297059D02*
X41671428Y-25297059D01*
X41671428Y-25297059D02*
X41471428Y-25525630D01*
X41471428Y-25525630D02*
X41557143Y-25525630D01*
X41557143Y-25525630D02*
X41614286Y-25554202D01*
X41614286Y-25554202D02*
X41642857Y-25582773D01*
X41642857Y-25582773D02*
X41671428Y-25639916D01*
X41671428Y-25639916D02*
X41671428Y-25782773D01*
X41671428Y-25782773D02*
X41642857Y-25839916D01*
X41642857Y-25839916D02*
X41614286Y-25868488D01*
X41614286Y-25868488D02*
X41557143Y-25897059D01*
X41557143Y-25897059D02*
X41385714Y-25897059D01*
X41385714Y-25897059D02*
X41328571Y-25868488D01*
X41328571Y-25868488D02*
X41300000Y-25839916D01*
D14*
X30314285Y-13455228D02*
X30285713Y-13483800D01*
X30285713Y-13483800D02*
X30199999Y-13512371D01*
X30199999Y-13512371D02*
X30142856Y-13512371D01*
X30142856Y-13512371D02*
X30057142Y-13483800D01*
X30057142Y-13483800D02*
X29999999Y-13426657D01*
X29999999Y-13426657D02*
X29971428Y-13369514D01*
X29971428Y-13369514D02*
X29942856Y-13255228D01*
X29942856Y-13255228D02*
X29942856Y-13169514D01*
X29942856Y-13169514D02*
X29971428Y-13055228D01*
X29971428Y-13055228D02*
X29999999Y-12998085D01*
X29999999Y-12998085D02*
X30057142Y-12940942D01*
X30057142Y-12940942D02*
X30142856Y-12912371D01*
X30142856Y-12912371D02*
X30199999Y-12912371D01*
X30199999Y-12912371D02*
X30285713Y-12940942D01*
X30285713Y-12940942D02*
X30314285Y-12969514D01*
X30885713Y-13512371D02*
X30542856Y-13512371D01*
X30714285Y-13512371D02*
X30714285Y-12912371D01*
X30714285Y-12912371D02*
X30657142Y-12998085D01*
X30657142Y-12998085D02*
X30599999Y-13055228D01*
X30599999Y-13055228D02*
X30542856Y-13083800D01*
X31400000Y-12912371D02*
X31285714Y-12912371D01*
X31285714Y-12912371D02*
X31228571Y-12940942D01*
X31228571Y-12940942D02*
X31200000Y-12969514D01*
X31200000Y-12969514D02*
X31142857Y-13055228D01*
X31142857Y-13055228D02*
X31114285Y-13169514D01*
X31114285Y-13169514D02*
X31114285Y-13398085D01*
X31114285Y-13398085D02*
X31142857Y-13455228D01*
X31142857Y-13455228D02*
X31171428Y-13483800D01*
X31171428Y-13483800D02*
X31228571Y-13512371D01*
X31228571Y-13512371D02*
X31342857Y-13512371D01*
X31342857Y-13512371D02*
X31400000Y-13483800D01*
X31400000Y-13483800D02*
X31428571Y-13455228D01*
X31428571Y-13455228D02*
X31457142Y-13398085D01*
X31457142Y-13398085D02*
X31457142Y-13255228D01*
X31457142Y-13255228D02*
X31428571Y-13198085D01*
X31428571Y-13198085D02*
X31400000Y-13169514D01*
X31400000Y-13169514D02*
X31342857Y-13140942D01*
X31342857Y-13140942D02*
X31228571Y-13140942D01*
X31228571Y-13140942D02*
X31171428Y-13169514D01*
X31171428Y-13169514D02*
X31142857Y-13198085D01*
X31142857Y-13198085D02*
X31114285Y-13255228D01*
D13*
X35900000Y-6040956D02*
X35871428Y-6069528D01*
X35871428Y-6069528D02*
X35785714Y-6098099D01*
X35785714Y-6098099D02*
X35728571Y-6098099D01*
X35728571Y-6098099D02*
X35642857Y-6069528D01*
X35642857Y-6069528D02*
X35585714Y-6012385D01*
X35585714Y-6012385D02*
X35557143Y-5955242D01*
X35557143Y-5955242D02*
X35528571Y-5840956D01*
X35528571Y-5840956D02*
X35528571Y-5755242D01*
X35528571Y-5755242D02*
X35557143Y-5640956D01*
X35557143Y-5640956D02*
X35585714Y-5583813D01*
X35585714Y-5583813D02*
X35642857Y-5526670D01*
X35642857Y-5526670D02*
X35728571Y-5498099D01*
X35728571Y-5498099D02*
X35785714Y-5498099D01*
X35785714Y-5498099D02*
X35871428Y-5526670D01*
X35871428Y-5526670D02*
X35900000Y-5555242D01*
X36442857Y-5498099D02*
X36157143Y-5498099D01*
X36157143Y-5498099D02*
X36128571Y-5783813D01*
X36128571Y-5783813D02*
X36157143Y-5755242D01*
X36157143Y-5755242D02*
X36214286Y-5726670D01*
X36214286Y-5726670D02*
X36357143Y-5726670D01*
X36357143Y-5726670D02*
X36414286Y-5755242D01*
X36414286Y-5755242D02*
X36442857Y-5783813D01*
X36442857Y-5783813D02*
X36471428Y-5840956D01*
X36471428Y-5840956D02*
X36471428Y-5983813D01*
X36471428Y-5983813D02*
X36442857Y-6040956D01*
X36442857Y-6040956D02*
X36414286Y-6069528D01*
X36414286Y-6069528D02*
X36357143Y-6098099D01*
X36357143Y-6098099D02*
X36214286Y-6098099D01*
X36214286Y-6098099D02*
X36157143Y-6069528D01*
X36157143Y-6069528D02*
X36128571Y-6040956D01*
X45323856Y-15715436D02*
X45295284Y-15744008D01*
X45295284Y-15744008D02*
X45209570Y-15772579D01*
X45209570Y-15772579D02*
X45152427Y-15772579D01*
X45152427Y-15772579D02*
X45066713Y-15744008D01*
X45066713Y-15744008D02*
X45009570Y-15686865D01*
X45009570Y-15686865D02*
X44980999Y-15629722D01*
X44980999Y-15629722D02*
X44952427Y-15515436D01*
X44952427Y-15515436D02*
X44952427Y-15429722D01*
X44952427Y-15429722D02*
X44980999Y-15315436D01*
X44980999Y-15315436D02*
X45009570Y-15258293D01*
X45009570Y-15258293D02*
X45066713Y-15201150D01*
X45066713Y-15201150D02*
X45152427Y-15172579D01*
X45152427Y-15172579D02*
X45209570Y-15172579D01*
X45209570Y-15172579D02*
X45295284Y-15201150D01*
X45295284Y-15201150D02*
X45323856Y-15229722D01*
X45895284Y-15772579D02*
X45552427Y-15772579D01*
X45723856Y-15772579D02*
X45723856Y-15172579D01*
X45723856Y-15172579D02*
X45666713Y-15258293D01*
X45666713Y-15258293D02*
X45609570Y-15315436D01*
X45609570Y-15315436D02*
X45552427Y-15344008D01*
X46123856Y-15229722D02*
X46152428Y-15201150D01*
X46152428Y-15201150D02*
X46209571Y-15172579D01*
X46209571Y-15172579D02*
X46352428Y-15172579D01*
X46352428Y-15172579D02*
X46409571Y-15201150D01*
X46409571Y-15201150D02*
X46438142Y-15229722D01*
X46438142Y-15229722D02*
X46466713Y-15286865D01*
X46466713Y-15286865D02*
X46466713Y-15344008D01*
X46466713Y-15344008D02*
X46438142Y-15429722D01*
X46438142Y-15429722D02*
X46095285Y-15772579D01*
X46095285Y-15772579D02*
X46466713Y-15772579D01*
X40214713Y-15272579D02*
X40014713Y-14986865D01*
X39871856Y-15272579D02*
X39871856Y-14672579D01*
X39871856Y-14672579D02*
X40100427Y-14672579D01*
X40100427Y-14672579D02*
X40157570Y-14701150D01*
X40157570Y-14701150D02*
X40186141Y-14729722D01*
X40186141Y-14729722D02*
X40214713Y-14786865D01*
X40214713Y-14786865D02*
X40214713Y-14872579D01*
X40214713Y-14872579D02*
X40186141Y-14929722D01*
X40186141Y-14929722D02*
X40157570Y-14958293D01*
X40157570Y-14958293D02*
X40100427Y-14986865D01*
X40100427Y-14986865D02*
X39871856Y-14986865D01*
X40786141Y-15272579D02*
X40443284Y-15272579D01*
X40614713Y-15272579D02*
X40614713Y-14672579D01*
X40614713Y-14672579D02*
X40557570Y-14758293D01*
X40557570Y-14758293D02*
X40500427Y-14815436D01*
X40500427Y-14815436D02*
X40443284Y-14844008D01*
X40986142Y-14672579D02*
X41357570Y-14672579D01*
X41357570Y-14672579D02*
X41157570Y-14901150D01*
X41157570Y-14901150D02*
X41243285Y-14901150D01*
X41243285Y-14901150D02*
X41300428Y-14929722D01*
X41300428Y-14929722D02*
X41328999Y-14958293D01*
X41328999Y-14958293D02*
X41357570Y-15015436D01*
X41357570Y-15015436D02*
X41357570Y-15158293D01*
X41357570Y-15158293D02*
X41328999Y-15215436D01*
X41328999Y-15215436D02*
X41300428Y-15244008D01*
X41300428Y-15244008D02*
X41243285Y-15272579D01*
X41243285Y-15272579D02*
X41071856Y-15272579D01*
X41071856Y-15272579D02*
X41014713Y-15244008D01*
X41014713Y-15244008D02*
X40986142Y-15215436D01*
X36612428Y-11217059D02*
X36326714Y-11217059D01*
X36326714Y-11217059D02*
X36326714Y-10617059D01*
X37126713Y-11217059D02*
X36783856Y-11217059D01*
X36955285Y-11217059D02*
X36955285Y-10617059D01*
X36955285Y-10617059D02*
X36898142Y-10702773D01*
X36898142Y-10702773D02*
X36840999Y-10759916D01*
X36840999Y-10759916D02*
X36783856Y-10788488D01*
X45801857Y-5308099D02*
X45801857Y-5793813D01*
X45801857Y-5793813D02*
X45830428Y-5850956D01*
X45830428Y-5850956D02*
X45859000Y-5879528D01*
X45859000Y-5879528D02*
X45916142Y-5908099D01*
X45916142Y-5908099D02*
X46030428Y-5908099D01*
X46030428Y-5908099D02*
X46087571Y-5879528D01*
X46087571Y-5879528D02*
X46116142Y-5850956D01*
X46116142Y-5850956D02*
X46144714Y-5793813D01*
X46144714Y-5793813D02*
X46144714Y-5308099D01*
X46687571Y-5508099D02*
X46687571Y-5908099D01*
X46544713Y-5279528D02*
X46401856Y-5708099D01*
X46401856Y-5708099D02*
X46773285Y-5708099D01*
X49815435Y-16476143D02*
X49844007Y-16504715D01*
X49844007Y-16504715D02*
X49872578Y-16590429D01*
X49872578Y-16590429D02*
X49872578Y-16647572D01*
X49872578Y-16647572D02*
X49844007Y-16733286D01*
X49844007Y-16733286D02*
X49786864Y-16790429D01*
X49786864Y-16790429D02*
X49729721Y-16819000D01*
X49729721Y-16819000D02*
X49615435Y-16847572D01*
X49615435Y-16847572D02*
X49529721Y-16847572D01*
X49529721Y-16847572D02*
X49415435Y-16819000D01*
X49415435Y-16819000D02*
X49358292Y-16790429D01*
X49358292Y-16790429D02*
X49301149Y-16733286D01*
X49301149Y-16733286D02*
X49272578Y-16647572D01*
X49272578Y-16647572D02*
X49272578Y-16590429D01*
X49272578Y-16590429D02*
X49301149Y-16504715D01*
X49301149Y-16504715D02*
X49329721Y-16476143D01*
X49329721Y-16247572D02*
X49301149Y-16219000D01*
X49301149Y-16219000D02*
X49272578Y-16161858D01*
X49272578Y-16161858D02*
X49272578Y-16019000D01*
X49272578Y-16019000D02*
X49301149Y-15961858D01*
X49301149Y-15961858D02*
X49329721Y-15933286D01*
X49329721Y-15933286D02*
X49386864Y-15904715D01*
X49386864Y-15904715D02*
X49444007Y-15904715D01*
X49444007Y-15904715D02*
X49529721Y-15933286D01*
X49529721Y-15933286D02*
X49872578Y-16276143D01*
X49872578Y-16276143D02*
X49872578Y-15904715D01*
X49272578Y-15533286D02*
X49272578Y-15476143D01*
X49272578Y-15476143D02*
X49301149Y-15419000D01*
X49301149Y-15419000D02*
X49329721Y-15390429D01*
X49329721Y-15390429D02*
X49386864Y-15361857D01*
X49386864Y-15361857D02*
X49501149Y-15333286D01*
X49501149Y-15333286D02*
X49644007Y-15333286D01*
X49644007Y-15333286D02*
X49758292Y-15361857D01*
X49758292Y-15361857D02*
X49815435Y-15390429D01*
X49815435Y-15390429D02*
X49844007Y-15419000D01*
X49844007Y-15419000D02*
X49872578Y-15476143D01*
X49872578Y-15476143D02*
X49872578Y-15533286D01*
X49872578Y-15533286D02*
X49844007Y-15590429D01*
X49844007Y-15590429D02*
X49815435Y-15619000D01*
X49815435Y-15619000D02*
X49758292Y-15647571D01*
X49758292Y-15647571D02*
X49644007Y-15676143D01*
X49644007Y-15676143D02*
X49501149Y-15676143D01*
X49501149Y-15676143D02*
X49386864Y-15647571D01*
X49386864Y-15647571D02*
X49329721Y-15619000D01*
X49329721Y-15619000D02*
X49301149Y-15590429D01*
X49301149Y-15590429D02*
X49272578Y-15533286D01*
X55214285Y-26437058D02*
X55014285Y-26151344D01*
X54871428Y-26437058D02*
X54871428Y-25837058D01*
X54871428Y-25837058D02*
X55099999Y-25837058D01*
X55099999Y-25837058D02*
X55157142Y-25865629D01*
X55157142Y-25865629D02*
X55185713Y-25894201D01*
X55185713Y-25894201D02*
X55214285Y-25951344D01*
X55214285Y-25951344D02*
X55214285Y-26037058D01*
X55214285Y-26037058D02*
X55185713Y-26094201D01*
X55185713Y-26094201D02*
X55157142Y-26122772D01*
X55157142Y-26122772D02*
X55099999Y-26151344D01*
X55099999Y-26151344D02*
X54871428Y-26151344D01*
X55442856Y-25894201D02*
X55471428Y-25865629D01*
X55471428Y-25865629D02*
X55528571Y-25837058D01*
X55528571Y-25837058D02*
X55671428Y-25837058D01*
X55671428Y-25837058D02*
X55728571Y-25865629D01*
X55728571Y-25865629D02*
X55757142Y-25894201D01*
X55757142Y-25894201D02*
X55785713Y-25951344D01*
X55785713Y-25951344D02*
X55785713Y-26008487D01*
X55785713Y-26008487D02*
X55757142Y-26094201D01*
X55757142Y-26094201D02*
X55414285Y-26437058D01*
X55414285Y-26437058D02*
X55785713Y-26437058D01*
X56300000Y-26037058D02*
X56300000Y-26437058D01*
X56157142Y-25808487D02*
X56014285Y-26237058D01*
X56014285Y-26237058D02*
X56385714Y-26237058D01*
X57915436Y-26976143D02*
X57944008Y-27004715D01*
X57944008Y-27004715D02*
X57972579Y-27090429D01*
X57972579Y-27090429D02*
X57972579Y-27147572D01*
X57972579Y-27147572D02*
X57944008Y-27233286D01*
X57944008Y-27233286D02*
X57886865Y-27290429D01*
X57886865Y-27290429D02*
X57829722Y-27319000D01*
X57829722Y-27319000D02*
X57715436Y-27347572D01*
X57715436Y-27347572D02*
X57629722Y-27347572D01*
X57629722Y-27347572D02*
X57515436Y-27319000D01*
X57515436Y-27319000D02*
X57458293Y-27290429D01*
X57458293Y-27290429D02*
X57401150Y-27233286D01*
X57401150Y-27233286D02*
X57372579Y-27147572D01*
X57372579Y-27147572D02*
X57372579Y-27090429D01*
X57372579Y-27090429D02*
X57401150Y-27004715D01*
X57401150Y-27004715D02*
X57429722Y-26976143D01*
X57429722Y-26747572D02*
X57401150Y-26719000D01*
X57401150Y-26719000D02*
X57372579Y-26661858D01*
X57372579Y-26661858D02*
X57372579Y-26519000D01*
X57372579Y-26519000D02*
X57401150Y-26461858D01*
X57401150Y-26461858D02*
X57429722Y-26433286D01*
X57429722Y-26433286D02*
X57486865Y-26404715D01*
X57486865Y-26404715D02*
X57544008Y-26404715D01*
X57544008Y-26404715D02*
X57629722Y-26433286D01*
X57629722Y-26433286D02*
X57972579Y-26776143D01*
X57972579Y-26776143D02*
X57972579Y-26404715D01*
X57372579Y-26204714D02*
X57372579Y-25833286D01*
X57372579Y-25833286D02*
X57601150Y-26033286D01*
X57601150Y-26033286D02*
X57601150Y-25947571D01*
X57601150Y-25947571D02*
X57629722Y-25890429D01*
X57629722Y-25890429D02*
X57658293Y-25861857D01*
X57658293Y-25861857D02*
X57715436Y-25833286D01*
X57715436Y-25833286D02*
X57858293Y-25833286D01*
X57858293Y-25833286D02*
X57915436Y-25861857D01*
X57915436Y-25861857D02*
X57944008Y-25890429D01*
X57944008Y-25890429D02*
X57972579Y-25947571D01*
X57972579Y-25947571D02*
X57972579Y-26119000D01*
X57972579Y-26119000D02*
X57944008Y-26176143D01*
X57944008Y-26176143D02*
X57915436Y-26204714D01*
X30815436Y-7626143D02*
X30844008Y-7654715D01*
X30844008Y-7654715D02*
X30872579Y-7740429D01*
X30872579Y-7740429D02*
X30872579Y-7797572D01*
X30872579Y-7797572D02*
X30844008Y-7883286D01*
X30844008Y-7883286D02*
X30786865Y-7940429D01*
X30786865Y-7940429D02*
X30729722Y-7969000D01*
X30729722Y-7969000D02*
X30615436Y-7997572D01*
X30615436Y-7997572D02*
X30529722Y-7997572D01*
X30529722Y-7997572D02*
X30415436Y-7969000D01*
X30415436Y-7969000D02*
X30358293Y-7940429D01*
X30358293Y-7940429D02*
X30301150Y-7883286D01*
X30301150Y-7883286D02*
X30272579Y-7797572D01*
X30272579Y-7797572D02*
X30272579Y-7740429D01*
X30272579Y-7740429D02*
X30301150Y-7654715D01*
X30301150Y-7654715D02*
X30329722Y-7626143D01*
X30872579Y-7054715D02*
X30872579Y-7397572D01*
X30872579Y-7226143D02*
X30272579Y-7226143D01*
X30272579Y-7226143D02*
X30358293Y-7283286D01*
X30358293Y-7283286D02*
X30415436Y-7340429D01*
X30415436Y-7340429D02*
X30444008Y-7397572D01*
X30872579Y-6483286D02*
X30872579Y-6826143D01*
X30872579Y-6654714D02*
X30272579Y-6654714D01*
X30272579Y-6654714D02*
X30358293Y-6711857D01*
X30358293Y-6711857D02*
X30415436Y-6769000D01*
X30415436Y-6769000D02*
X30444008Y-6826143D01*
X49144559Y-18743957D02*
X49230274Y-18772528D01*
X49230274Y-18772528D02*
X49373131Y-18772528D01*
X49373131Y-18772528D02*
X49430274Y-18743957D01*
X49430274Y-18743957D02*
X49458845Y-18715385D01*
X49458845Y-18715385D02*
X49487416Y-18658242D01*
X49487416Y-18658242D02*
X49487416Y-18601099D01*
X49487416Y-18601099D02*
X49458845Y-18543957D01*
X49458845Y-18543957D02*
X49430274Y-18515385D01*
X49430274Y-18515385D02*
X49373131Y-18486814D01*
X49373131Y-18486814D02*
X49258845Y-18458242D01*
X49258845Y-18458242D02*
X49201702Y-18429671D01*
X49201702Y-18429671D02*
X49173131Y-18401099D01*
X49173131Y-18401099D02*
X49144559Y-18343957D01*
X49144559Y-18343957D02*
X49144559Y-18286814D01*
X49144559Y-18286814D02*
X49173131Y-18229671D01*
X49173131Y-18229671D02*
X49201702Y-18201099D01*
X49201702Y-18201099D02*
X49258845Y-18172528D01*
X49258845Y-18172528D02*
X49401702Y-18172528D01*
X49401702Y-18172528D02*
X49487416Y-18201099D01*
X49715988Y-18229671D02*
X49744560Y-18201099D01*
X49744560Y-18201099D02*
X49801703Y-18172528D01*
X49801703Y-18172528D02*
X49944560Y-18172528D01*
X49944560Y-18172528D02*
X50001703Y-18201099D01*
X50001703Y-18201099D02*
X50030274Y-18229671D01*
X50030274Y-18229671D02*
X50058845Y-18286814D01*
X50058845Y-18286814D02*
X50058845Y-18343957D01*
X50058845Y-18343957D02*
X50030274Y-18429671D01*
X50030274Y-18429671D02*
X49687417Y-18772528D01*
X49687417Y-18772528D02*
X50058845Y-18772528D01*
X25751857Y-23267058D02*
X25751857Y-23752772D01*
X25751857Y-23752772D02*
X25780428Y-23809915D01*
X25780428Y-23809915D02*
X25809000Y-23838487D01*
X25809000Y-23838487D02*
X25866142Y-23867058D01*
X25866142Y-23867058D02*
X25980428Y-23867058D01*
X25980428Y-23867058D02*
X26037571Y-23838487D01*
X26037571Y-23838487D02*
X26066142Y-23809915D01*
X26066142Y-23809915D02*
X26094714Y-23752772D01*
X26094714Y-23752772D02*
X26094714Y-23267058D01*
X26694713Y-23867058D02*
X26351856Y-23867058D01*
X26523285Y-23867058D02*
X26523285Y-23267058D01*
X26523285Y-23267058D02*
X26466142Y-23352772D01*
X26466142Y-23352772D02*
X26408999Y-23409915D01*
X26408999Y-23409915D02*
X26351856Y-23438487D01*
X35814285Y-16819915D02*
X35785713Y-16848487D01*
X35785713Y-16848487D02*
X35699999Y-16877058D01*
X35699999Y-16877058D02*
X35642856Y-16877058D01*
X35642856Y-16877058D02*
X35557142Y-16848487D01*
X35557142Y-16848487D02*
X35499999Y-16791344D01*
X35499999Y-16791344D02*
X35471428Y-16734201D01*
X35471428Y-16734201D02*
X35442856Y-16619915D01*
X35442856Y-16619915D02*
X35442856Y-16534201D01*
X35442856Y-16534201D02*
X35471428Y-16419915D01*
X35471428Y-16419915D02*
X35499999Y-16362772D01*
X35499999Y-16362772D02*
X35557142Y-16305629D01*
X35557142Y-16305629D02*
X35642856Y-16277058D01*
X35642856Y-16277058D02*
X35699999Y-16277058D01*
X35699999Y-16277058D02*
X35785713Y-16305629D01*
X35785713Y-16305629D02*
X35814285Y-16334201D01*
X36385713Y-16877058D02*
X36042856Y-16877058D01*
X36214285Y-16877058D02*
X36214285Y-16277058D01*
X36214285Y-16277058D02*
X36157142Y-16362772D01*
X36157142Y-16362772D02*
X36099999Y-16419915D01*
X36099999Y-16419915D02*
X36042856Y-16448487D01*
X36585714Y-16277058D02*
X36957142Y-16277058D01*
X36957142Y-16277058D02*
X36757142Y-16505629D01*
X36757142Y-16505629D02*
X36842857Y-16505629D01*
X36842857Y-16505629D02*
X36900000Y-16534201D01*
X36900000Y-16534201D02*
X36928571Y-16562772D01*
X36928571Y-16562772D02*
X36957142Y-16619915D01*
X36957142Y-16619915D02*
X36957142Y-16762772D01*
X36957142Y-16762772D02*
X36928571Y-16819915D01*
X36928571Y-16819915D02*
X36900000Y-16848487D01*
X36900000Y-16848487D02*
X36842857Y-16877058D01*
X36842857Y-16877058D02*
X36671428Y-16877058D01*
X36671428Y-16877058D02*
X36614285Y-16848487D01*
X36614285Y-16848487D02*
X36585714Y-16819915D01*
D14*
X34429514Y-10657142D02*
X34400942Y-10714285D01*
X34400942Y-10714285D02*
X34343800Y-10771428D01*
X34343800Y-10771428D02*
X34258085Y-10857142D01*
X34258085Y-10857142D02*
X34229514Y-10914285D01*
X34229514Y-10914285D02*
X34229514Y-10971428D01*
X34372371Y-10942857D02*
X34343800Y-11000000D01*
X34343800Y-11000000D02*
X34286657Y-11057142D01*
X34286657Y-11057142D02*
X34172371Y-11085714D01*
X34172371Y-11085714D02*
X33972371Y-11085714D01*
X33972371Y-11085714D02*
X33858085Y-11057142D01*
X33858085Y-11057142D02*
X33800942Y-11000000D01*
X33800942Y-11000000D02*
X33772371Y-10942857D01*
X33772371Y-10942857D02*
X33772371Y-10828571D01*
X33772371Y-10828571D02*
X33800942Y-10771428D01*
X33800942Y-10771428D02*
X33858085Y-10714285D01*
X33858085Y-10714285D02*
X33972371Y-10685714D01*
X33972371Y-10685714D02*
X34172371Y-10685714D01*
X34172371Y-10685714D02*
X34286657Y-10714285D01*
X34286657Y-10714285D02*
X34343800Y-10771428D01*
X34343800Y-10771428D02*
X34372371Y-10828571D01*
X34372371Y-10828571D02*
X34372371Y-10942857D01*
X34372371Y-10114286D02*
X34372371Y-10457143D01*
X34372371Y-10285714D02*
X33772371Y-10285714D01*
X33772371Y-10285714D02*
X33858085Y-10342857D01*
X33858085Y-10342857D02*
X33915228Y-10400000D01*
X33915228Y-10400000D02*
X33943800Y-10457143D01*
D13*
X33836857Y-4517059D02*
X33836857Y-3917059D01*
X33836857Y-3917059D02*
X33979714Y-3917059D01*
X33979714Y-3917059D02*
X34065428Y-3945630D01*
X34065428Y-3945630D02*
X34122571Y-4002773D01*
X34122571Y-4002773D02*
X34151142Y-4059916D01*
X34151142Y-4059916D02*
X34179714Y-4174202D01*
X34179714Y-4174202D02*
X34179714Y-4259916D01*
X34179714Y-4259916D02*
X34151142Y-4374202D01*
X34151142Y-4374202D02*
X34122571Y-4431345D01*
X34122571Y-4431345D02*
X34065428Y-4488488D01*
X34065428Y-4488488D02*
X33979714Y-4517059D01*
X33979714Y-4517059D02*
X33836857Y-4517059D01*
X34751142Y-4517059D02*
X34408285Y-4517059D01*
X34579714Y-4517059D02*
X34579714Y-3917059D01*
X34579714Y-3917059D02*
X34522571Y-4002773D01*
X34522571Y-4002773D02*
X34465428Y-4059916D01*
X34465428Y-4059916D02*
X34408285Y-4088488D01*
D14*
X42722371Y-15957142D02*
X43208085Y-15957142D01*
X43208085Y-15957142D02*
X43265228Y-15928571D01*
X43265228Y-15928571D02*
X43293800Y-15900000D01*
X43293800Y-15900000D02*
X43322371Y-15842857D01*
X43322371Y-15842857D02*
X43322371Y-15728571D01*
X43322371Y-15728571D02*
X43293800Y-15671428D01*
X43293800Y-15671428D02*
X43265228Y-15642857D01*
X43265228Y-15642857D02*
X43208085Y-15614285D01*
X43208085Y-15614285D02*
X42722371Y-15614285D01*
X42722371Y-15071429D02*
X42722371Y-15185714D01*
X42722371Y-15185714D02*
X42750942Y-15242857D01*
X42750942Y-15242857D02*
X42779514Y-15271429D01*
X42779514Y-15271429D02*
X42865228Y-15328571D01*
X42865228Y-15328571D02*
X42979514Y-15357143D01*
X42979514Y-15357143D02*
X43208085Y-15357143D01*
X43208085Y-15357143D02*
X43265228Y-15328571D01*
X43265228Y-15328571D02*
X43293800Y-15300000D01*
X43293800Y-15300000D02*
X43322371Y-15242857D01*
X43322371Y-15242857D02*
X43322371Y-15128571D01*
X43322371Y-15128571D02*
X43293800Y-15071429D01*
X43293800Y-15071429D02*
X43265228Y-15042857D01*
X43265228Y-15042857D02*
X43208085Y-15014286D01*
X43208085Y-15014286D02*
X43065228Y-15014286D01*
X43065228Y-15014286D02*
X43008085Y-15042857D01*
X43008085Y-15042857D02*
X42979514Y-15071429D01*
X42979514Y-15071429D02*
X42950942Y-15128571D01*
X42950942Y-15128571D02*
X42950942Y-15242857D01*
X42950942Y-15242857D02*
X42979514Y-15300000D01*
X42979514Y-15300000D02*
X43008085Y-15328571D01*
X43008085Y-15328571D02*
X43065228Y-15357143D01*
D13*
X41153856Y-31672579D02*
X40953856Y-31386865D01*
X40810999Y-31672579D02*
X40810999Y-31072579D01*
X40810999Y-31072579D02*
X41039570Y-31072579D01*
X41039570Y-31072579D02*
X41096713Y-31101150D01*
X41096713Y-31101150D02*
X41125284Y-31129722D01*
X41125284Y-31129722D02*
X41153856Y-31186865D01*
X41153856Y-31186865D02*
X41153856Y-31272579D01*
X41153856Y-31272579D02*
X41125284Y-31329722D01*
X41125284Y-31329722D02*
X41096713Y-31358293D01*
X41096713Y-31358293D02*
X41039570Y-31386865D01*
X41039570Y-31386865D02*
X40810999Y-31386865D01*
X41382427Y-31129722D02*
X41410999Y-31101150D01*
X41410999Y-31101150D02*
X41468142Y-31072579D01*
X41468142Y-31072579D02*
X41610999Y-31072579D01*
X41610999Y-31072579D02*
X41668142Y-31101150D01*
X41668142Y-31101150D02*
X41696713Y-31129722D01*
X41696713Y-31129722D02*
X41725284Y-31186865D01*
X41725284Y-31186865D02*
X41725284Y-31244008D01*
X41725284Y-31244008D02*
X41696713Y-31329722D01*
X41696713Y-31329722D02*
X41353856Y-31672579D01*
X41353856Y-31672579D02*
X41725284Y-31672579D01*
X42239571Y-31072579D02*
X42125285Y-31072579D01*
X42125285Y-31072579D02*
X42068142Y-31101150D01*
X42068142Y-31101150D02*
X42039571Y-31129722D01*
X42039571Y-31129722D02*
X41982428Y-31215436D01*
X41982428Y-31215436D02*
X41953856Y-31329722D01*
X41953856Y-31329722D02*
X41953856Y-31558293D01*
X41953856Y-31558293D02*
X41982428Y-31615436D01*
X41982428Y-31615436D02*
X42010999Y-31644008D01*
X42010999Y-31644008D02*
X42068142Y-31672579D01*
X42068142Y-31672579D02*
X42182428Y-31672579D01*
X42182428Y-31672579D02*
X42239571Y-31644008D01*
X42239571Y-31644008D02*
X42268142Y-31615436D01*
X42268142Y-31615436D02*
X42296713Y-31558293D01*
X42296713Y-31558293D02*
X42296713Y-31415436D01*
X42296713Y-31415436D02*
X42268142Y-31358293D01*
X42268142Y-31358293D02*
X42239571Y-31329722D01*
X42239571Y-31329722D02*
X42182428Y-31301150D01*
X42182428Y-31301150D02*
X42068142Y-31301150D01*
X42068142Y-31301150D02*
X42010999Y-31329722D01*
X42010999Y-31329722D02*
X41982428Y-31358293D01*
X41982428Y-31358293D02*
X41953856Y-31415436D01*
D15*
X48289249Y-13321428D02*
X48051154Y-13488094D01*
X48289249Y-13607142D02*
X47789249Y-13607142D01*
X47789249Y-13607142D02*
X47789249Y-13416666D01*
X47789249Y-13416666D02*
X47813059Y-13369047D01*
X47813059Y-13369047D02*
X47836868Y-13345237D01*
X47836868Y-13345237D02*
X47884487Y-13321428D01*
X47884487Y-13321428D02*
X47955916Y-13321428D01*
X47955916Y-13321428D02*
X48003535Y-13345237D01*
X48003535Y-13345237D02*
X48027344Y-13369047D01*
X48027344Y-13369047D02*
X48051154Y-13416666D01*
X48051154Y-13416666D02*
X48051154Y-13607142D01*
X47836868Y-13130951D02*
X47813059Y-13107142D01*
X47813059Y-13107142D02*
X47789249Y-13059523D01*
X47789249Y-13059523D02*
X47789249Y-12940475D01*
X47789249Y-12940475D02*
X47813059Y-12892856D01*
X47813059Y-12892856D02*
X47836868Y-12869047D01*
X47836868Y-12869047D02*
X47884487Y-12845237D01*
X47884487Y-12845237D02*
X47932106Y-12845237D01*
X47932106Y-12845237D02*
X48003535Y-12869047D01*
X48003535Y-12869047D02*
X48289249Y-13154761D01*
X48289249Y-13154761D02*
X48289249Y-12845237D01*
X48289249Y-12369047D02*
X48289249Y-12654761D01*
X48289249Y-12511904D02*
X47789249Y-12511904D01*
X47789249Y-12511904D02*
X47860678Y-12559523D01*
X47860678Y-12559523D02*
X47908297Y-12607142D01*
X47908297Y-12607142D02*
X47932106Y-12654761D01*
D14*
X27042857Y-11272371D02*
X27042857Y-11758085D01*
X27042857Y-11758085D02*
X27071428Y-11815228D01*
X27071428Y-11815228D02*
X27100000Y-11843800D01*
X27100000Y-11843800D02*
X27157142Y-11872371D01*
X27157142Y-11872371D02*
X27271428Y-11872371D01*
X27271428Y-11872371D02*
X27328571Y-11843800D01*
X27328571Y-11843800D02*
X27357142Y-11815228D01*
X27357142Y-11815228D02*
X27385714Y-11758085D01*
X27385714Y-11758085D02*
X27385714Y-11272371D01*
X27614285Y-11272371D02*
X27985713Y-11272371D01*
X27985713Y-11272371D02*
X27785713Y-11500942D01*
X27785713Y-11500942D02*
X27871428Y-11500942D01*
X27871428Y-11500942D02*
X27928571Y-11529514D01*
X27928571Y-11529514D02*
X27957142Y-11558085D01*
X27957142Y-11558085D02*
X27985713Y-11615228D01*
X27985713Y-11615228D02*
X27985713Y-11758085D01*
X27985713Y-11758085D02*
X27957142Y-11815228D01*
X27957142Y-11815228D02*
X27928571Y-11843800D01*
X27928571Y-11843800D02*
X27871428Y-11872371D01*
X27871428Y-11872371D02*
X27699999Y-11872371D01*
X27699999Y-11872371D02*
X27642856Y-11843800D01*
X27642856Y-11843800D02*
X27614285Y-11815228D01*
D13*
X49014285Y-3048098D02*
X48814285Y-2762384D01*
X48671428Y-3048098D02*
X48671428Y-2448098D01*
X48671428Y-2448098D02*
X48899999Y-2448098D01*
X48899999Y-2448098D02*
X48957142Y-2476669D01*
X48957142Y-2476669D02*
X48985713Y-2505241D01*
X48985713Y-2505241D02*
X49014285Y-2562384D01*
X49014285Y-2562384D02*
X49014285Y-2648098D01*
X49014285Y-2648098D02*
X48985713Y-2705241D01*
X48985713Y-2705241D02*
X48957142Y-2733812D01*
X48957142Y-2733812D02*
X48899999Y-2762384D01*
X48899999Y-2762384D02*
X48671428Y-2762384D01*
X49242856Y-2505241D02*
X49271428Y-2476669D01*
X49271428Y-2476669D02*
X49328571Y-2448098D01*
X49328571Y-2448098D02*
X49471428Y-2448098D01*
X49471428Y-2448098D02*
X49528571Y-2476669D01*
X49528571Y-2476669D02*
X49557142Y-2505241D01*
X49557142Y-2505241D02*
X49585713Y-2562384D01*
X49585713Y-2562384D02*
X49585713Y-2619527D01*
X49585713Y-2619527D02*
X49557142Y-2705241D01*
X49557142Y-2705241D02*
X49214285Y-3048098D01*
X49214285Y-3048098D02*
X49585713Y-3048098D01*
X49814285Y-2505241D02*
X49842857Y-2476669D01*
X49842857Y-2476669D02*
X49900000Y-2448098D01*
X49900000Y-2448098D02*
X50042857Y-2448098D01*
X50042857Y-2448098D02*
X50100000Y-2476669D01*
X50100000Y-2476669D02*
X50128571Y-2505241D01*
X50128571Y-2505241D02*
X50157142Y-2562384D01*
X50157142Y-2562384D02*
X50157142Y-2619527D01*
X50157142Y-2619527D02*
X50128571Y-2705241D01*
X50128571Y-2705241D02*
X49785714Y-3048098D01*
X49785714Y-3048098D02*
X50157142Y-3048098D01*
D15*
X25133333Y-10335049D02*
X25133333Y-10692192D01*
X25133333Y-10692192D02*
X25109524Y-10763620D01*
X25109524Y-10763620D02*
X25061905Y-10811240D01*
X25061905Y-10811240D02*
X24990476Y-10835049D01*
X24990476Y-10835049D02*
X24942857Y-10835049D01*
X25347619Y-10382668D02*
X25371428Y-10358859D01*
X25371428Y-10358859D02*
X25419047Y-10335049D01*
X25419047Y-10335049D02*
X25538095Y-10335049D01*
X25538095Y-10335049D02*
X25585714Y-10358859D01*
X25585714Y-10358859D02*
X25609523Y-10382668D01*
X25609523Y-10382668D02*
X25633333Y-10430287D01*
X25633333Y-10430287D02*
X25633333Y-10477906D01*
X25633333Y-10477906D02*
X25609523Y-10549335D01*
X25609523Y-10549335D02*
X25323809Y-10835049D01*
X25323809Y-10835049D02*
X25633333Y-10835049D01*
D13*
X45972579Y-2985285D02*
X45686865Y-3185285D01*
X45972579Y-3328142D02*
X45372579Y-3328142D01*
X45372579Y-3328142D02*
X45372579Y-3099571D01*
X45372579Y-3099571D02*
X45401150Y-3042428D01*
X45401150Y-3042428D02*
X45429722Y-3013857D01*
X45429722Y-3013857D02*
X45486865Y-2985285D01*
X45486865Y-2985285D02*
X45572579Y-2985285D01*
X45572579Y-2985285D02*
X45629722Y-3013857D01*
X45629722Y-3013857D02*
X45658293Y-3042428D01*
X45658293Y-3042428D02*
X45686865Y-3099571D01*
X45686865Y-3099571D02*
X45686865Y-3328142D01*
X45972579Y-2413857D02*
X45972579Y-2756714D01*
X45972579Y-2585285D02*
X45372579Y-2585285D01*
X45372579Y-2585285D02*
X45458293Y-2642428D01*
X45458293Y-2642428D02*
X45515436Y-2699571D01*
X45515436Y-2699571D02*
X45544008Y-2756714D01*
X45372579Y-1899571D02*
X45372579Y-2013856D01*
X45372579Y-2013856D02*
X45401150Y-2070999D01*
X45401150Y-2070999D02*
X45429722Y-2099571D01*
X45429722Y-2099571D02*
X45515436Y-2156713D01*
X45515436Y-2156713D02*
X45629722Y-2185285D01*
X45629722Y-2185285D02*
X45858293Y-2185285D01*
X45858293Y-2185285D02*
X45915436Y-2156713D01*
X45915436Y-2156713D02*
X45944008Y-2128142D01*
X45944008Y-2128142D02*
X45972579Y-2070999D01*
X45972579Y-2070999D02*
X45972579Y-1956713D01*
X45972579Y-1956713D02*
X45944008Y-1899571D01*
X45944008Y-1899571D02*
X45915436Y-1870999D01*
X45915436Y-1870999D02*
X45858293Y-1842428D01*
X45858293Y-1842428D02*
X45715436Y-1842428D01*
X45715436Y-1842428D02*
X45658293Y-1870999D01*
X45658293Y-1870999D02*
X45629722Y-1899571D01*
X45629722Y-1899571D02*
X45601150Y-1956713D01*
X45601150Y-1956713D02*
X45601150Y-2070999D01*
X45601150Y-2070999D02*
X45629722Y-2128142D01*
X45629722Y-2128142D02*
X45658293Y-2156713D01*
X45658293Y-2156713D02*
X45715436Y-2185285D01*
X32372579Y-6986143D02*
X32086865Y-7186143D01*
X32372579Y-7329000D02*
X31772579Y-7329000D01*
X31772579Y-7329000D02*
X31772579Y-7100429D01*
X31772579Y-7100429D02*
X31801150Y-7043286D01*
X31801150Y-7043286D02*
X31829722Y-7014715D01*
X31829722Y-7014715D02*
X31886865Y-6986143D01*
X31886865Y-6986143D02*
X31972579Y-6986143D01*
X31972579Y-6986143D02*
X32029722Y-7014715D01*
X32029722Y-7014715D02*
X32058293Y-7043286D01*
X32058293Y-7043286D02*
X32086865Y-7100429D01*
X32086865Y-7100429D02*
X32086865Y-7329000D01*
X31829722Y-6757572D02*
X31801150Y-6729000D01*
X31801150Y-6729000D02*
X31772579Y-6671858D01*
X31772579Y-6671858D02*
X31772579Y-6529000D01*
X31772579Y-6529000D02*
X31801150Y-6471858D01*
X31801150Y-6471858D02*
X31829722Y-6443286D01*
X31829722Y-6443286D02*
X31886865Y-6414715D01*
X31886865Y-6414715D02*
X31944008Y-6414715D01*
X31944008Y-6414715D02*
X32029722Y-6443286D01*
X32029722Y-6443286D02*
X32372579Y-6786143D01*
X32372579Y-6786143D02*
X32372579Y-6414715D01*
X31772579Y-6214714D02*
X31772579Y-5814714D01*
X31772579Y-5814714D02*
X32372579Y-6071857D01*
X48397059Y-18385285D02*
X48111345Y-18585285D01*
X48397059Y-18728142D02*
X47797059Y-18728142D01*
X47797059Y-18728142D02*
X47797059Y-18499571D01*
X47797059Y-18499571D02*
X47825630Y-18442428D01*
X47825630Y-18442428D02*
X47854202Y-18413857D01*
X47854202Y-18413857D02*
X47911345Y-18385285D01*
X47911345Y-18385285D02*
X47997059Y-18385285D01*
X47997059Y-18385285D02*
X48054202Y-18413857D01*
X48054202Y-18413857D02*
X48082773Y-18442428D01*
X48082773Y-18442428D02*
X48111345Y-18499571D01*
X48111345Y-18499571D02*
X48111345Y-18728142D01*
X48397059Y-17813857D02*
X48397059Y-18156714D01*
X48397059Y-17985285D02*
X47797059Y-17985285D01*
X47797059Y-17985285D02*
X47882773Y-18042428D01*
X47882773Y-18042428D02*
X47939916Y-18099571D01*
X47939916Y-18099571D02*
X47968488Y-18156714D01*
X47797059Y-17613856D02*
X47797059Y-17213856D01*
X47797059Y-17213856D02*
X48397059Y-17470999D01*
D14*
X16102371Y-23385714D02*
X15816657Y-23585714D01*
X16102371Y-23728571D02*
X15502371Y-23728571D01*
X15502371Y-23728571D02*
X15502371Y-23500000D01*
X15502371Y-23500000D02*
X15530942Y-23442857D01*
X15530942Y-23442857D02*
X15559514Y-23414286D01*
X15559514Y-23414286D02*
X15616657Y-23385714D01*
X15616657Y-23385714D02*
X15702371Y-23385714D01*
X15702371Y-23385714D02*
X15759514Y-23414286D01*
X15759514Y-23414286D02*
X15788085Y-23442857D01*
X15788085Y-23442857D02*
X15816657Y-23500000D01*
X15816657Y-23500000D02*
X15816657Y-23728571D01*
X16102371Y-22814286D02*
X16102371Y-23157143D01*
X16102371Y-22985714D02*
X15502371Y-22985714D01*
X15502371Y-22985714D02*
X15588085Y-23042857D01*
X15588085Y-23042857D02*
X15645228Y-23100000D01*
X15645228Y-23100000D02*
X15673800Y-23157143D01*
X15559514Y-22585714D02*
X15530942Y-22557142D01*
X15530942Y-22557142D02*
X15502371Y-22500000D01*
X15502371Y-22500000D02*
X15502371Y-22357142D01*
X15502371Y-22357142D02*
X15530942Y-22300000D01*
X15530942Y-22300000D02*
X15559514Y-22271428D01*
X15559514Y-22271428D02*
X15616657Y-22242857D01*
X15616657Y-22242857D02*
X15673800Y-22242857D01*
X15673800Y-22242857D02*
X15759514Y-22271428D01*
X15759514Y-22271428D02*
X16102371Y-22614285D01*
X16102371Y-22614285D02*
X16102371Y-22242857D01*
D13*
X51614285Y-28037059D02*
X51414285Y-27751345D01*
X51271428Y-28037059D02*
X51271428Y-27437059D01*
X51271428Y-27437059D02*
X51499999Y-27437059D01*
X51499999Y-27437059D02*
X51557142Y-27465630D01*
X51557142Y-27465630D02*
X51585713Y-27494202D01*
X51585713Y-27494202D02*
X51614285Y-27551345D01*
X51614285Y-27551345D02*
X51614285Y-27637059D01*
X51614285Y-27637059D02*
X51585713Y-27694202D01*
X51585713Y-27694202D02*
X51557142Y-27722773D01*
X51557142Y-27722773D02*
X51499999Y-27751345D01*
X51499999Y-27751345D02*
X51271428Y-27751345D01*
X51842856Y-27494202D02*
X51871428Y-27465630D01*
X51871428Y-27465630D02*
X51928571Y-27437059D01*
X51928571Y-27437059D02*
X52071428Y-27437059D01*
X52071428Y-27437059D02*
X52128571Y-27465630D01*
X52128571Y-27465630D02*
X52157142Y-27494202D01*
X52157142Y-27494202D02*
X52185713Y-27551345D01*
X52185713Y-27551345D02*
X52185713Y-27608488D01*
X52185713Y-27608488D02*
X52157142Y-27694202D01*
X52157142Y-27694202D02*
X51814285Y-28037059D01*
X51814285Y-28037059D02*
X52185713Y-28037059D01*
X52728571Y-27437059D02*
X52442857Y-27437059D01*
X52442857Y-27437059D02*
X52414285Y-27722773D01*
X52414285Y-27722773D02*
X52442857Y-27694202D01*
X52442857Y-27694202D02*
X52500000Y-27665630D01*
X52500000Y-27665630D02*
X52642857Y-27665630D01*
X52642857Y-27665630D02*
X52700000Y-27694202D01*
X52700000Y-27694202D02*
X52728571Y-27722773D01*
X52728571Y-27722773D02*
X52757142Y-27779916D01*
X52757142Y-27779916D02*
X52757142Y-27922773D01*
X52757142Y-27922773D02*
X52728571Y-27979916D01*
X52728571Y-27979916D02*
X52700000Y-28008488D01*
X52700000Y-28008488D02*
X52642857Y-28037059D01*
X52642857Y-28037059D02*
X52500000Y-28037059D01*
X52500000Y-28037059D02*
X52442857Y-28008488D01*
X52442857Y-28008488D02*
X52414285Y-27979916D01*
X38555285Y-22215436D02*
X38526713Y-22244008D01*
X38526713Y-22244008D02*
X38440999Y-22272579D01*
X38440999Y-22272579D02*
X38383856Y-22272579D01*
X38383856Y-22272579D02*
X38298142Y-22244008D01*
X38298142Y-22244008D02*
X38240999Y-22186865D01*
X38240999Y-22186865D02*
X38212428Y-22129722D01*
X38212428Y-22129722D02*
X38183856Y-22015436D01*
X38183856Y-22015436D02*
X38183856Y-21929722D01*
X38183856Y-21929722D02*
X38212428Y-21815436D01*
X38212428Y-21815436D02*
X38240999Y-21758293D01*
X38240999Y-21758293D02*
X38298142Y-21701150D01*
X38298142Y-21701150D02*
X38383856Y-21672579D01*
X38383856Y-21672579D02*
X38440999Y-21672579D01*
X38440999Y-21672579D02*
X38526713Y-21701150D01*
X38526713Y-21701150D02*
X38555285Y-21729722D01*
X39126713Y-22272579D02*
X38783856Y-22272579D01*
X38955285Y-22272579D02*
X38955285Y-21672579D01*
X38955285Y-21672579D02*
X38898142Y-21758293D01*
X38898142Y-21758293D02*
X38840999Y-21815436D01*
X38840999Y-21815436D02*
X38783856Y-21844008D01*
X46444714Y-11215436D02*
X46416142Y-11244008D01*
X46416142Y-11244008D02*
X46330428Y-11272579D01*
X46330428Y-11272579D02*
X46273285Y-11272579D01*
X46273285Y-11272579D02*
X46187571Y-11244008D01*
X46187571Y-11244008D02*
X46130428Y-11186865D01*
X46130428Y-11186865D02*
X46101857Y-11129722D01*
X46101857Y-11129722D02*
X46073285Y-11015436D01*
X46073285Y-11015436D02*
X46073285Y-10929722D01*
X46073285Y-10929722D02*
X46101857Y-10815436D01*
X46101857Y-10815436D02*
X46130428Y-10758293D01*
X46130428Y-10758293D02*
X46187571Y-10701150D01*
X46187571Y-10701150D02*
X46273285Y-10672579D01*
X46273285Y-10672579D02*
X46330428Y-10672579D01*
X46330428Y-10672579D02*
X46416142Y-10701150D01*
X46416142Y-10701150D02*
X46444714Y-10729722D01*
X46959000Y-10672579D02*
X46844714Y-10672579D01*
X46844714Y-10672579D02*
X46787571Y-10701150D01*
X46787571Y-10701150D02*
X46759000Y-10729722D01*
X46759000Y-10729722D02*
X46701857Y-10815436D01*
X46701857Y-10815436D02*
X46673285Y-10929722D01*
X46673285Y-10929722D02*
X46673285Y-11158293D01*
X46673285Y-11158293D02*
X46701857Y-11215436D01*
X46701857Y-11215436D02*
X46730428Y-11244008D01*
X46730428Y-11244008D02*
X46787571Y-11272579D01*
X46787571Y-11272579D02*
X46901857Y-11272579D01*
X46901857Y-11272579D02*
X46959000Y-11244008D01*
X46959000Y-11244008D02*
X46987571Y-11215436D01*
X46987571Y-11215436D02*
X47016142Y-11158293D01*
X47016142Y-11158293D02*
X47016142Y-11015436D01*
X47016142Y-11015436D02*
X46987571Y-10958293D01*
X46987571Y-10958293D02*
X46959000Y-10929722D01*
X46959000Y-10929722D02*
X46901857Y-10901150D01*
X46901857Y-10901150D02*
X46787571Y-10901150D01*
X46787571Y-10901150D02*
X46730428Y-10929722D01*
X46730428Y-10929722D02*
X46701857Y-10958293D01*
X46701857Y-10958293D02*
X46673285Y-11015436D01*
X19553856Y-19837058D02*
X19353856Y-19551344D01*
X19210999Y-19837058D02*
X19210999Y-19237058D01*
X19210999Y-19237058D02*
X19439570Y-19237058D01*
X19439570Y-19237058D02*
X19496713Y-19265629D01*
X19496713Y-19265629D02*
X19525284Y-19294201D01*
X19525284Y-19294201D02*
X19553856Y-19351344D01*
X19553856Y-19351344D02*
X19553856Y-19437058D01*
X19553856Y-19437058D02*
X19525284Y-19494201D01*
X19525284Y-19494201D02*
X19496713Y-19522772D01*
X19496713Y-19522772D02*
X19439570Y-19551344D01*
X19439570Y-19551344D02*
X19210999Y-19551344D01*
X20125284Y-19837058D02*
X19782427Y-19837058D01*
X19953856Y-19837058D02*
X19953856Y-19237058D01*
X19953856Y-19237058D02*
X19896713Y-19322772D01*
X19896713Y-19322772D02*
X19839570Y-19379915D01*
X19839570Y-19379915D02*
X19782427Y-19408487D01*
X20696713Y-19837058D02*
X20353856Y-19837058D01*
X20525285Y-19837058D02*
X20525285Y-19237058D01*
X20525285Y-19237058D02*
X20468142Y-19322772D01*
X20468142Y-19322772D02*
X20410999Y-19379915D01*
X20410999Y-19379915D02*
X20353856Y-19408487D01*
X42474714Y-18108099D02*
X42274714Y-17822385D01*
X42131857Y-18108099D02*
X42131857Y-17508099D01*
X42131857Y-17508099D02*
X42360428Y-17508099D01*
X42360428Y-17508099D02*
X42417571Y-17536670D01*
X42417571Y-17536670D02*
X42446142Y-17565242D01*
X42446142Y-17565242D02*
X42474714Y-17622385D01*
X42474714Y-17622385D02*
X42474714Y-17708099D01*
X42474714Y-17708099D02*
X42446142Y-17765242D01*
X42446142Y-17765242D02*
X42417571Y-17793813D01*
X42417571Y-17793813D02*
X42360428Y-17822385D01*
X42360428Y-17822385D02*
X42131857Y-17822385D01*
X42989000Y-17508099D02*
X42874714Y-17508099D01*
X42874714Y-17508099D02*
X42817571Y-17536670D01*
X42817571Y-17536670D02*
X42789000Y-17565242D01*
X42789000Y-17565242D02*
X42731857Y-17650956D01*
X42731857Y-17650956D02*
X42703285Y-17765242D01*
X42703285Y-17765242D02*
X42703285Y-17993813D01*
X42703285Y-17993813D02*
X42731857Y-18050956D01*
X42731857Y-18050956D02*
X42760428Y-18079528D01*
X42760428Y-18079528D02*
X42817571Y-18108099D01*
X42817571Y-18108099D02*
X42931857Y-18108099D01*
X42931857Y-18108099D02*
X42989000Y-18079528D01*
X42989000Y-18079528D02*
X43017571Y-18050956D01*
X43017571Y-18050956D02*
X43046142Y-17993813D01*
X43046142Y-17993813D02*
X43046142Y-17850956D01*
X43046142Y-17850956D02*
X43017571Y-17793813D01*
X43017571Y-17793813D02*
X42989000Y-17765242D01*
X42989000Y-17765242D02*
X42931857Y-17736670D01*
X42931857Y-17736670D02*
X42817571Y-17736670D01*
X42817571Y-17736670D02*
X42760428Y-17765242D01*
X42760428Y-17765242D02*
X42731857Y-17793813D01*
X42731857Y-17793813D02*
X42703285Y-17850956D01*
D11*
%TO.C,SW1*%
X34550000Y-2200000D02*
X34550000Y-1400000D01*
X36600000Y-3300000D02*
X36400000Y-3300000D01*
X39600000Y-3300000D02*
X37900000Y-3300000D01*
X41450000Y-2200000D02*
X41450000Y-1400000D01*
%TO.C,C8*%
X7859420Y-18090000D02*
X8140580Y-18090000D01*
X7859420Y-19110000D02*
X8140580Y-19110000D01*
%TO.C,R7*%
X40646359Y-17220000D02*
X40953641Y-17220000D01*
X40646359Y-17980000D02*
X40953641Y-17980000D01*
%TO.C,C2*%
X43459420Y-19090000D02*
X43740580Y-19090000D01*
X43459420Y-20110000D02*
X43740580Y-20110000D01*
%TO.C,R5*%
X43446359Y-29420000D02*
X43753641Y-29420000D01*
X43446359Y-30180000D02*
X43753641Y-30180000D01*
%TO.C,TP5*%
X34800000Y-6400000D02*
G75*
G02*
X33400000Y-6400000I-700000J0D01*
G01*
X33400000Y-6400000D02*
G75*
G02*
X34800000Y-6400000I700000J0D01*
G01*
%TO.C,C15*%
X7840000Y-29107836D02*
X7840000Y-28892164D01*
X8560000Y-29107836D02*
X8560000Y-28892164D01*
%TO.C,R8*%
X46346359Y-6720000D02*
X46653641Y-6720000D01*
X46346359Y-7480000D02*
X46653641Y-7480000D01*
%TO.C,C4*%
X27359420Y-16890000D02*
X27640580Y-16890000D01*
X27359420Y-17910000D02*
X27640580Y-17910000D01*
%TO.C,U2*%
X43890000Y-21890000D02*
X44365000Y-21890000D01*
X43890000Y-22365000D02*
X43890000Y-21890000D01*
X43890000Y-25110000D02*
X43890000Y-24635000D01*
X44365000Y-25110000D02*
X43890000Y-25110000D01*
X46635000Y-21890000D02*
X47110000Y-21890000D01*
X47110000Y-21890000D02*
X47110000Y-22365000D01*
X47110000Y-24635000D02*
X47110000Y-25110000D01*
X47110000Y-25110000D02*
X46635000Y-25110000D01*
X43360000Y-22750000D02*
X43030000Y-22990000D01*
X43030000Y-22510000D01*
X43360000Y-22750000D01*
G36*
X43360000Y-22750000D02*
G01*
X43030000Y-22990000D01*
X43030000Y-22510000D01*
X43360000Y-22750000D01*
G37*
%TO.C,R1*%
X19920000Y-22653641D02*
X19920000Y-22346359D01*
X20680000Y-22653641D02*
X20680000Y-22346359D01*
%TO.C,C9*%
X10892164Y-18240000D02*
X11107836Y-18240000D01*
X10892164Y-18960000D02*
X11107836Y-18960000D01*
%TO.C,R18*%
X40246359Y-19820000D02*
X40553641Y-19820000D01*
X40246359Y-20580000D02*
X40553641Y-20580000D01*
%TO.C,TP3*%
X22700000Y-15900000D02*
G75*
G02*
X21300000Y-15900000I-700000J0D01*
G01*
X21300000Y-15900000D02*
G75*
G02*
X22700000Y-15900000I700000J0D01*
G01*
%TO.C,R3*%
X43446359Y-26220000D02*
X43753641Y-26220000D01*
X43446359Y-26980000D02*
X43753641Y-26980000D01*
%TO.C,J1*%
X19300000Y-27400000D02*
X19300000Y-29400000D01*
X19300000Y-31300000D02*
X19300000Y-33200000D01*
X19300000Y-33200000D02*
X28700000Y-33200000D01*
X28700000Y-27400000D02*
X28700000Y-29400000D01*
X28700000Y-31300000D02*
X28700000Y-33200000D01*
%TO.C,S1*%
X50570458Y-5959949D02*
X50570458Y-7039949D01*
X50570458Y-7039949D02*
X51720459Y-7039949D01*
X51720459Y-5959948D02*
X50570458Y-5959949D01*
X51720459Y-5959948D02*
G75*
G02*
X51720459Y-7039949I4779592J-540001D01*
G01*
%TO.C,R19*%
X48146359Y-19520000D02*
X48453641Y-19520000D01*
X48146359Y-20280000D02*
X48453641Y-20280000D01*
%TO.C,U5*%
X-800000Y-16575000D02*
X-800000Y-14125000D01*
X-800000Y-16575000D02*
X1650000Y-16575000D01*
X-550000Y-700000D02*
X20150000Y-700000D01*
X-550000Y-16300000D02*
X-550000Y-700000D01*
X20150000Y-700000D02*
X20150000Y-16300000D01*
X20150000Y-16300000D02*
X-550000Y-16300000D01*
X6640000Y-16811000D02*
X6160000Y-16811000D01*
X6400000Y-16475000D01*
X6640000Y-16811000D01*
G36*
X6640000Y-16811000D02*
G01*
X6160000Y-16811000D01*
X6400000Y-16475000D01*
X6640000Y-16811000D01*
G37*
%TO.C,C14*%
X47692164Y-3840000D02*
X47907836Y-3840000D01*
X47692164Y-4560000D02*
X47907836Y-4560000D01*
%TO.C,R14*%
X37220000Y-15153641D02*
X37220000Y-14846359D01*
X37980000Y-15153641D02*
X37980000Y-14846359D01*
%TO.C,C10*%
X24192164Y-18040000D02*
X24407836Y-18040000D01*
X24192164Y-18760000D02*
X24407836Y-18760000D01*
%TO.C,R23*%
X53346359Y-24620000D02*
X53653641Y-24620000D01*
X53346359Y-25380000D02*
X53653641Y-25380000D01*
%TO.C,TP1*%
X22700000Y-13400000D02*
G75*
G02*
X21300000Y-13400000I-700000J0D01*
G01*
X21300000Y-13400000D02*
G75*
G02*
X22700000Y-13400000I700000J0D01*
G01*
%TO.C,U7*%
X5250000Y-28140000D02*
X6750000Y-28140000D01*
X5250000Y-29860000D02*
X6750000Y-29860000D01*
X4800000Y-28400000D02*
X4520000Y-28400000D01*
X4800000Y-28120000D01*
X4800000Y-28400000D01*
G36*
X4800000Y-28400000D02*
G01*
X4520000Y-28400000D01*
X4800000Y-28120000D01*
X4800000Y-28400000D01*
G37*
%TO.C,R4*%
X43446359Y-27820000D02*
X43753641Y-27820000D01*
X43446359Y-28580000D02*
X43753641Y-28580000D01*
%TO.C,R2*%
X29620000Y-25653641D02*
X29620000Y-25346359D01*
X30380000Y-25653641D02*
X30380000Y-25346359D01*
%TO.C,R15*%
X43446359Y-3820000D02*
X43753641Y-3820000D01*
X43446359Y-4580000D02*
X43753641Y-4580000D01*
%TO.C,R9*%
X46346359Y-8120000D02*
X46653641Y-8120000D01*
X46346359Y-8880000D02*
X46653641Y-8880000D01*
%TO.C,R20*%
X49446359Y-11120000D02*
X49753641Y-11120000D01*
X49446359Y-11880000D02*
X49753641Y-11880000D01*
%TO.C,R10*%
X34446359Y-12120000D02*
X34753641Y-12120000D01*
X34446359Y-12880000D02*
X34753641Y-12880000D01*
%TO.C,C7*%
X40061252Y-10765000D02*
X39538748Y-10765000D01*
X40061252Y-12235000D02*
X39538748Y-12235000D01*
%TO.C,C3*%
X41059420Y-23690000D02*
X41340580Y-23690000D01*
X41059420Y-24710000D02*
X41340580Y-24710000D01*
%TO.C,C16*%
X30592164Y-14040000D02*
X30807836Y-14040000D01*
X30592164Y-14760000D02*
X30807836Y-14760000D01*
%TO.C,C5*%
X35490000Y-8140580D02*
X35490000Y-7859420D01*
X36510000Y-8140580D02*
X36510000Y-7859420D01*
%TO.C,TP4*%
X25000000Y-15900000D02*
G75*
G02*
X23600000Y-15900000I-700000J0D01*
G01*
X23600000Y-15900000D02*
G75*
G02*
X25000000Y-15900000I700000J0D01*
G01*
%TO.C,SW3*%
X31650000Y-28000000D02*
X31650000Y-30000000D01*
X32650000Y-26700000D02*
X33100000Y-26250000D01*
X32650000Y-31300000D02*
X33100000Y-31750000D01*
X33100000Y-26250000D02*
X35700000Y-26250000D01*
X33100000Y-31750000D02*
X35700000Y-31750000D01*
X36150000Y-26700000D02*
X35700000Y-26250000D01*
X36150000Y-31300000D02*
X35700000Y-31750000D01*
X37150000Y-28000000D02*
X37150000Y-30000000D01*
%TO.C,C12*%
X47640000Y-15607836D02*
X47640000Y-15392164D01*
X48360000Y-15607836D02*
X48360000Y-15392164D01*
%TO.C,R13*%
X38620000Y-15153641D02*
X38620000Y-14846359D01*
X39380000Y-15153641D02*
X39380000Y-14846359D01*
%TO.C,SW2*%
X31650000Y-20900000D02*
X31650000Y-22900000D01*
X32650000Y-19600000D02*
X33100000Y-19150000D01*
X32650000Y-24200000D02*
X33100000Y-24650000D01*
X33100000Y-19150000D02*
X35700000Y-19150000D01*
X33100000Y-24650000D02*
X35700000Y-24650000D01*
X36150000Y-19600000D02*
X35700000Y-19150000D01*
X36150000Y-24200000D02*
X35700000Y-24650000D01*
X37150000Y-20900000D02*
X37150000Y-22900000D01*
%TO.C,L1*%
X37690000Y-5890000D02*
X41910000Y-5890000D01*
X41910000Y-10110000D02*
X37690000Y-10110000D01*
%TO.C,U4*%
X42790000Y-7065000D02*
X44210000Y-7065000D01*
X43925568Y-8935000D02*
X42790000Y-8935000D01*
X44360000Y-9130000D02*
X44080000Y-9130000D01*
X44220000Y-8940000D01*
X44360000Y-9130000D01*
G36*
X44360000Y-9130000D02*
G01*
X44080000Y-9130000D01*
X44220000Y-8940000D01*
X44360000Y-9130000D01*
G37*
%TO.C,C20*%
X49492164Y-14140000D02*
X49707836Y-14140000D01*
X49492164Y-14860000D02*
X49707836Y-14860000D01*
%TO.C,R24*%
X55446359Y-24620000D02*
X55753641Y-24620000D01*
X55446359Y-25380000D02*
X55753641Y-25380000D01*
%TO.C,C23*%
X57592164Y-24640000D02*
X57807836Y-24640000D01*
X57592164Y-25360000D02*
X57807836Y-25360000D01*
%TO.C,C11*%
X30240000Y-5307836D02*
X30240000Y-5092164D01*
X30960000Y-5307836D02*
X30960000Y-5092164D01*
%TO.C,S2*%
X50570458Y-17959949D02*
X50570458Y-19039949D01*
X50570458Y-19039949D02*
X51720459Y-19039949D01*
X51720459Y-17959948D02*
X50570458Y-17959949D01*
X51720459Y-17959948D02*
G75*
G02*
X51720459Y-19039949I4779592J-540001D01*
G01*
%TO.C,U1*%
X22390000Y-19640000D02*
X24210000Y-19640000D01*
X22390000Y-19690000D02*
X22390000Y-19640000D01*
X22390000Y-22760000D02*
X22390000Y-22710000D01*
X24210000Y-19640000D02*
X24210000Y-19690000D01*
X24210000Y-22710000D02*
X24210000Y-22760000D01*
X24210000Y-22760000D02*
X22390000Y-22760000D01*
X21850000Y-19690000D02*
X21610000Y-19360000D01*
X22090000Y-19360000D01*
X21850000Y-19690000D01*
G36*
X21850000Y-19690000D02*
G01*
X21610000Y-19360000D01*
X22090000Y-19360000D01*
X21850000Y-19690000D01*
G37*
%TO.C,TP6*%
X49300000Y-9000000D02*
G75*
G02*
X47900000Y-9000000I-700000J0D01*
G01*
X47900000Y-9000000D02*
G75*
G02*
X49300000Y-9000000I700000J0D01*
G01*
%TO.C,C13*%
X35840000Y-15107836D02*
X35840000Y-14892164D01*
X36560000Y-15107836D02*
X36560000Y-14892164D01*
%TO.C,Q1*%
X30140000Y-9840000D02*
X30190000Y-9840000D01*
X30140000Y-11360000D02*
X30140000Y-9840000D01*
X31140000Y-11360000D02*
X30140000Y-11360000D01*
X31310000Y-9840000D02*
X32090000Y-9840000D01*
X33210000Y-9840000D02*
X33260000Y-9840000D01*
X33260000Y-9840000D02*
X33260000Y-11360000D01*
X33260000Y-11360000D02*
X32260000Y-11360000D01*
X32080000Y-9300000D02*
X31750000Y-9540000D01*
X31750000Y-9060000D01*
X32080000Y-9300000D01*
G36*
X32080000Y-9300000D02*
G01*
X31750000Y-9540000D01*
X31750000Y-9060000D01*
X32080000Y-9300000D01*
G37*
%TO.C,D1*%
X30200000Y-3450000D02*
X30200000Y-1450000D01*
X30200000Y-3450000D02*
X33400000Y-3450000D01*
X30500000Y-1150000D02*
X30200000Y-1450000D01*
X30500000Y-1150000D02*
X33400000Y-1150000D01*
X33400000Y-1150000D02*
X33400000Y-3450000D01*
%TO.C,TP2*%
X25000000Y-13400000D02*
G75*
G02*
X23600000Y-13400000I-700000J0D01*
G01*
X23600000Y-13400000D02*
G75*
G02*
X25000000Y-13400000I700000J0D01*
G01*
%TO.C,U6*%
X43890000Y-13890000D02*
X44065000Y-13890000D01*
X43890000Y-17110000D02*
X43890000Y-13890000D01*
X44065000Y-17110000D02*
X43890000Y-17110000D01*
X46935000Y-13890000D02*
X47110000Y-13890000D01*
X47110000Y-13890000D02*
X47110000Y-17110000D01*
X47110000Y-17110000D02*
X46935000Y-17110000D01*
X44060000Y-17660000D02*
X43730000Y-17900000D01*
X43730000Y-17420000D01*
X44060000Y-17660000D01*
G36*
X44060000Y-17660000D02*
G01*
X43730000Y-17900000D01*
X43730000Y-17420000D01*
X44060000Y-17660000D01*
G37*
%TO.C,R26*%
X43446359Y-31020000D02*
X43753641Y-31020000D01*
X43446359Y-31780000D02*
X43753641Y-31780000D01*
%TO.C,R21*%
X49446359Y-12620000D02*
X49753641Y-12620000D01*
X49446359Y-13380000D02*
X49753641Y-13380000D01*
%TO.C,U3*%
X26590000Y-12440000D02*
X28410000Y-12440000D01*
X26590000Y-12490000D02*
X26590000Y-12440000D01*
X26590000Y-15560000D02*
X26590000Y-15510000D01*
X28410000Y-12440000D02*
X28410000Y-12490000D01*
X28410000Y-13610000D02*
X28410000Y-14390000D01*
X28410000Y-15510000D02*
X28410000Y-15560000D01*
X28410000Y-15560000D02*
X26590000Y-15560000D01*
X26050000Y-12490000D02*
X25810000Y-12160000D01*
X26290000Y-12160000D01*
X26050000Y-12490000D01*
G36*
X26050000Y-12490000D02*
G01*
X25810000Y-12160000D01*
X26290000Y-12160000D01*
X26050000Y-12490000D01*
G37*
%TO.C,R22*%
X49020000Y-4553641D02*
X49020000Y-4246359D01*
X49780000Y-4553641D02*
X49780000Y-4246359D01*
%TO.C,J2*%
X21240000Y-3960000D02*
X21240000Y-8210000D01*
X21240000Y-8210000D02*
X22260000Y-8210000D01*
X22260000Y-6610000D02*
X23540000Y-6610000D01*
X22260000Y-8210000D02*
X22260000Y-6610000D01*
X27060000Y-6610000D02*
X27060000Y-9500000D01*
X27640000Y-390000D02*
X22960000Y-390000D01*
X28340000Y-6610000D02*
X27060000Y-6610000D01*
X28340000Y-8210000D02*
X28340000Y-6610000D01*
X29360000Y-3960000D02*
X29360000Y-8210000D01*
X29360000Y-8210000D02*
X28340000Y-8210000D01*
%TO.C,R16*%
X45546359Y-3820000D02*
X45853641Y-3820000D01*
X45546359Y-4580000D02*
X45853641Y-4580000D01*
%TO.C,R27*%
X31946359Y-4620000D02*
X32253641Y-4620000D01*
X31946359Y-5380000D02*
X32253641Y-5380000D01*
%TO.C,R17*%
X46046359Y-19520000D02*
X46353641Y-19520000D01*
X46046359Y-20280000D02*
X46353641Y-20280000D01*
%TO.C,R12*%
X16620000Y-23153641D02*
X16620000Y-22846359D01*
X17380000Y-23153641D02*
X17380000Y-22846359D01*
%TO.C,R25*%
X51846359Y-26220000D02*
X52153641Y-26220000D01*
X51846359Y-26980000D02*
X52153641Y-26980000D01*
%TO.C,C1*%
X40938748Y-21265000D02*
X41461252Y-21265000D01*
X40938748Y-22735000D02*
X41461252Y-22735000D01*
%TO.C,C6*%
X43738748Y-10265000D02*
X44261252Y-10265000D01*
X43738748Y-11735000D02*
X44261252Y-11735000D01*
%TO.C,R11*%
X21846359Y-18020000D02*
X22153641Y-18020000D01*
X21846359Y-18780000D02*
X22153641Y-18780000D01*
%TO.C,R6*%
X40646359Y-18620000D02*
X40953641Y-18620000D01*
X40646359Y-19380000D02*
X40953641Y-19380000D01*
%TD*%
%LPC*%
D16*
%TO.C,SW1*%
X39500000Y-1800000D03*
X36500000Y-1800000D03*
D17*
X40250000Y-3750000D03*
X37250000Y-3750000D03*
X35750000Y-3750000D03*
D18*
X41675000Y-2900000D03*
X41675000Y-700000D03*
X34325000Y-2900000D03*
X34325000Y-700000D03*
%TD*%
D19*
%TO.C,C8*%
X7225000Y-18600000D03*
X8775000Y-18600000D03*
%TD*%
D20*
%TO.C,R7*%
X40290000Y-17600000D03*
X41310000Y-17600000D03*
%TD*%
D19*
%TO.C,C2*%
X42825000Y-19600000D03*
X44375000Y-19600000D03*
%TD*%
D20*
%TO.C,R5*%
X43090000Y-29800000D03*
X44110000Y-29800000D03*
%TD*%
D21*
%TO.C,TP5*%
X34100000Y-6400000D03*
%TD*%
D22*
%TO.C,C15*%
X8200000Y-29480000D03*
X8200000Y-28520000D03*
%TD*%
D20*
%TO.C,R8*%
X45990000Y-7100000D03*
X47010000Y-7100000D03*
%TD*%
D19*
%TO.C,C4*%
X26725000Y-17400000D03*
X28275000Y-17400000D03*
%TD*%
D23*
%TO.C,U2*%
X44062500Y-22750000D03*
X44062500Y-23250000D03*
X44062500Y-23750000D03*
X44062500Y-24250000D03*
D24*
X44750000Y-24937500D03*
X45250000Y-24937500D03*
X45750000Y-24937500D03*
X46250000Y-24937500D03*
D23*
X46937500Y-24250000D03*
X46937500Y-23750000D03*
X46937500Y-23250000D03*
X46937500Y-22750000D03*
D24*
X46250000Y-22062500D03*
X45750000Y-22062500D03*
X45250000Y-22062500D03*
X44750000Y-22062500D03*
D25*
X45500000Y-23500000D03*
%TD*%
D26*
%TO.C,R1*%
X20300000Y-23010000D03*
X20300000Y-21990000D03*
%TD*%
D27*
%TO.C,C9*%
X10520000Y-18600000D03*
X11480000Y-18600000D03*
%TD*%
D20*
%TO.C,R18*%
X39890000Y-20200000D03*
X40910000Y-20200000D03*
%TD*%
D21*
%TO.C,TP3*%
X22000000Y-15900000D03*
%TD*%
D20*
%TO.C,R3*%
X43090000Y-26600000D03*
X44110000Y-26600000D03*
%TD*%
D28*
%TO.C,J1*%
X21110000Y-26700000D03*
X26890000Y-26700000D03*
D29*
X20750000Y-25255000D03*
X21550000Y-25255000D03*
D30*
X22750000Y-25255000D03*
X23750000Y-25255000D03*
X24250000Y-25255000D03*
X25250000Y-25255000D03*
D29*
X26450000Y-25255000D03*
X27250000Y-25255000D03*
X27250000Y-25255000D03*
X26450000Y-25255000D03*
D30*
X25750000Y-25255000D03*
X24750000Y-25255000D03*
X23250000Y-25255000D03*
X22250000Y-25255000D03*
D29*
X21550000Y-25255000D03*
X20750000Y-25255000D03*
D31*
X19680000Y-26170000D03*
D32*
X19680000Y-30350000D03*
D31*
X28320000Y-26170000D03*
D32*
X28320000Y-30350000D03*
%TD*%
D33*
%TO.C,S1*%
X54704000Y-8296000D03*
D34*
X58296102Y-8296000D03*
X58296102Y-4703898D03*
X54704000Y-4703898D03*
%TD*%
D20*
%TO.C,R19*%
X47790000Y-19900000D03*
X48810000Y-19900000D03*
%TD*%
D35*
%TO.C,U5*%
X6400000Y-15500000D03*
X7250000Y-15500000D03*
X8100000Y-15500000D03*
X8950000Y-15500000D03*
X9800000Y-15500000D03*
X10650000Y-15500000D03*
X11500000Y-15500000D03*
X12350000Y-15500000D03*
X13200000Y-15500000D03*
X14050000Y-15500000D03*
X14900000Y-15500000D03*
X15750000Y-15500000D03*
X16600000Y-15500000D03*
X17450000Y-15500000D03*
X18300000Y-15500000D03*
D36*
X19350000Y-14450000D03*
X19350000Y-13600000D03*
X19350000Y-12750000D03*
X19350000Y-11900000D03*
X19350000Y-11050000D03*
X19350000Y-10200000D03*
X19350000Y-9350000D03*
X19350000Y-8500000D03*
X19350000Y-7650000D03*
X19350000Y-6800000D03*
X19350000Y-5950000D03*
X19350000Y-5100000D03*
X19350000Y-4250000D03*
X19350000Y-3400000D03*
X19350000Y-2550000D03*
D35*
X18300000Y-1500000D03*
X17450000Y-1500000D03*
X16600000Y-1500000D03*
X15750000Y-1500000D03*
X14900000Y-1500000D03*
X14050000Y-1500000D03*
X13200000Y-1500000D03*
X12350000Y-1500000D03*
X11500000Y-1500000D03*
X10650000Y-1500000D03*
X9800000Y-1500000D03*
X8950000Y-1500000D03*
X8100000Y-1500000D03*
X7250000Y-1500000D03*
X6400000Y-1500000D03*
D36*
X5350000Y-2550000D03*
X5350000Y-3400000D03*
X5350000Y-4250000D03*
X5350000Y-5100000D03*
X5350000Y-5950000D03*
X5350000Y-6800000D03*
X5350000Y-7650000D03*
X5350000Y-8500000D03*
X5350000Y-9350000D03*
X5350000Y-10200000D03*
X5350000Y-11050000D03*
X5350000Y-11900000D03*
X5350000Y-12750000D03*
X5350000Y-13600000D03*
X5350000Y-14450000D03*
D37*
X10700000Y-10150000D03*
D38*
X12350000Y-10150000D03*
X14000000Y-10150000D03*
X10700000Y-8500000D03*
X12350000Y-8500000D03*
X14000000Y-8500000D03*
X10700000Y-6850000D03*
X12350000Y-6850000D03*
X14000000Y-6850000D03*
D39*
X5350000Y-15500000D03*
X19350000Y-15500000D03*
X19350000Y-1500000D03*
X5350000Y-1500000D03*
%TD*%
D40*
%TO.C,H1*%
X56500000Y-30000000D03*
%TD*%
D27*
%TO.C,C14*%
X47320000Y-4200000D03*
X48280000Y-4200000D03*
%TD*%
D26*
%TO.C,R14*%
X37600000Y-15510000D03*
X37600000Y-14490000D03*
%TD*%
D27*
%TO.C,C10*%
X23820000Y-18400000D03*
X24780000Y-18400000D03*
%TD*%
D20*
%TO.C,R23*%
X52990000Y-25000000D03*
X54010000Y-25000000D03*
%TD*%
D21*
%TO.C,TP1*%
X22000000Y-13400000D03*
%TD*%
D41*
%TO.C,U7*%
X5300000Y-28600000D03*
X5300000Y-29400000D03*
X6700000Y-29400000D03*
X6700000Y-28600000D03*
%TD*%
D20*
%TO.C,R4*%
X43090000Y-28200000D03*
X44110000Y-28200000D03*
%TD*%
D26*
%TO.C,R2*%
X30000000Y-26010000D03*
X30000000Y-24990000D03*
%TD*%
D20*
%TO.C,R15*%
X43090000Y-4200000D03*
X44110000Y-4200000D03*
%TD*%
%TO.C,R9*%
X45990000Y-8500000D03*
X47010000Y-8500000D03*
%TD*%
%TO.C,R20*%
X49090000Y-11500000D03*
X50110000Y-11500000D03*
%TD*%
%TO.C,R10*%
X34090000Y-12500000D03*
X35110000Y-12500000D03*
%TD*%
D42*
%TO.C,C7*%
X40750000Y-11500000D03*
X38850000Y-11500000D03*
%TD*%
D19*
%TO.C,C3*%
X40425000Y-24200000D03*
X41975000Y-24200000D03*
%TD*%
D27*
%TO.C,C16*%
X30220000Y-14400000D03*
X31180000Y-14400000D03*
%TD*%
D43*
%TO.C,C5*%
X36000000Y-8775000D03*
X36000000Y-7225000D03*
%TD*%
D21*
%TO.C,TP4*%
X24300000Y-15900000D03*
%TD*%
D44*
%TO.C,SW3*%
X31400000Y-27125000D03*
X37400000Y-27125000D03*
X31400000Y-30875000D03*
X37400000Y-30875000D03*
%TD*%
D22*
%TO.C,C12*%
X48000000Y-15980000D03*
X48000000Y-15020000D03*
%TD*%
D26*
%TO.C,R13*%
X39000000Y-15510000D03*
X39000000Y-14490000D03*
%TD*%
D40*
%TO.C,H2*%
X28000000Y-20600000D03*
%TD*%
D44*
%TO.C,SW2*%
X31400000Y-20025000D03*
X37400000Y-20025000D03*
X31400000Y-23775000D03*
X37400000Y-23775000D03*
%TD*%
D45*
%TO.C,L1*%
X38300000Y-8000000D03*
X41300000Y-8000000D03*
%TD*%
D46*
%TO.C,U4*%
X44212500Y-8500000D03*
X44212500Y-8000000D03*
X44212500Y-7500000D03*
X42787500Y-7500000D03*
X42787500Y-8000000D03*
X42787500Y-8500000D03*
%TD*%
D27*
%TO.C,C20*%
X49120000Y-14500000D03*
X50080000Y-14500000D03*
%TD*%
D20*
%TO.C,R24*%
X55090000Y-25000000D03*
X56110000Y-25000000D03*
%TD*%
D27*
%TO.C,C23*%
X57220000Y-25000000D03*
X58180000Y-25000000D03*
%TD*%
D22*
%TO.C,C11*%
X30600000Y-5680000D03*
X30600000Y-4720000D03*
%TD*%
D33*
%TO.C,S2*%
X54704000Y-20296000D03*
D34*
X58296102Y-20296000D03*
X58296102Y-16703898D03*
X54704000Y-16703898D03*
%TD*%
D47*
%TO.C,U1*%
X22162500Y-20250000D03*
X22162500Y-21200000D03*
X22162500Y-22150000D03*
X24437500Y-22150000D03*
X24437500Y-21200000D03*
X24437500Y-20250000D03*
%TD*%
D21*
%TO.C,TP6*%
X48600000Y-9000000D03*
%TD*%
D22*
%TO.C,C13*%
X36200000Y-15480000D03*
X36200000Y-14520000D03*
%TD*%
D48*
%TO.C,Q1*%
X32650000Y-9662500D03*
X30750000Y-9662500D03*
X31700000Y-11537500D03*
%TD*%
D49*
%TO.C,D1*%
X30885000Y-1750000D03*
X30885000Y-2850000D03*
X32715000Y-2850000D03*
X32715000Y-1750000D03*
%TD*%
D21*
%TO.C,TP2*%
X24300000Y-13400000D03*
%TD*%
D50*
%TO.C,U6*%
X44500000Y-17612500D03*
X45000000Y-17612500D03*
X45500000Y-17612500D03*
X46000000Y-17612500D03*
X46500000Y-17612500D03*
X46500000Y-13387500D03*
X46000000Y-13387500D03*
X45500000Y-13387500D03*
X45000000Y-13387500D03*
X44500000Y-13387500D03*
%TD*%
D20*
%TO.C,R26*%
X43090000Y-31400000D03*
X44110000Y-31400000D03*
%TD*%
%TO.C,R21*%
X49090000Y-13000000D03*
X50110000Y-13000000D03*
%TD*%
D47*
%TO.C,U3*%
X26362500Y-13050000D03*
X26362500Y-14000000D03*
X26362500Y-14950000D03*
X28637500Y-14950000D03*
X28637500Y-13050000D03*
%TD*%
D26*
%TO.C,R22*%
X49400000Y-4910000D03*
X49400000Y-3890000D03*
%TD*%
D51*
%TO.C,J2*%
X26300000Y-7750000D03*
X24300000Y-7750000D03*
D52*
X28650000Y-2000000D03*
X21950000Y-2000000D03*
%TD*%
D20*
%TO.C,R16*%
X45190000Y-4200000D03*
X46210000Y-4200000D03*
%TD*%
%TO.C,R27*%
X31590000Y-5000000D03*
X32610000Y-5000000D03*
%TD*%
%TO.C,R17*%
X45690000Y-19900000D03*
X46710000Y-19900000D03*
%TD*%
D26*
%TO.C,R12*%
X17000000Y-23510000D03*
X17000000Y-22490000D03*
%TD*%
D20*
%TO.C,R25*%
X51490000Y-26600000D03*
X52510000Y-26600000D03*
%TD*%
D53*
%TO.C,C1*%
X40250000Y-22000000D03*
X42150000Y-22000000D03*
%TD*%
%TO.C,C6*%
X43050000Y-11000000D03*
X44950000Y-11000000D03*
%TD*%
D20*
%TO.C,R11*%
X21490000Y-18400000D03*
X22510000Y-18400000D03*
%TD*%
%TO.C,R6*%
X40290000Y-19000000D03*
X41310000Y-19000000D03*
%TD*%
%LPD*%
M02*
