%TF.GenerationSoftware,KiCad,Pcbnew,9.0.5*%
%TF.CreationDate,2026-09-28T20:30:06+01:00*%
%TF.ProjectId,phone_board_mems,70686f6e-655f-4626-9f61-72645f6d656d,rev?*%
%TF.SameCoordinates,Original*%
%TF.FileFunction,Copper,L3,Inr*%
%TF.FilePolarity,Positive*%
%FSLAX46Y46*%
G04 Gerber Fmt 4.6, Leading zero omitted, Abs format (unit mm)*
G04 Created by KiCad (PCBNEW 9.0.5) date 2026-09-28 20:30:06*
%MOMM*%
%LPD*%
G01*
G04 APERTURE LIST*
%TA.AperFunction,HeatsinkPad*%
%ADD10O,1.000000X2.100000*%
%TD*%
%TA.AperFunction,HeatsinkPad*%
%ADD11O,1.000000X1.600000*%
%TD*%
%TA.AperFunction,ViaPad*%
%ADD12C,0.600000*%
%TD*%
%TA.AperFunction,ViaPad*%
%ADD13C,0.500000*%
%TD*%
%TA.AperFunction,Conductor*%
%ADD14C,0.400000*%
%TD*%
%TA.AperFunction,Conductor*%
%ADD15C,0.200000*%
%TD*%
%TA.AperFunction,Conductor*%
%ADD16C,0.500000*%
%TD*%
%TA.AperFunction,Conductor*%
%ADD17C,0.300000*%
%TD*%
G04 APERTURE END LIST*
D10*
%TO.N,/GND*%
%TO.C,J1*%
X26680000Y-24170000D03*
D11*
X26680000Y-28350000D03*
D10*
X35320000Y-24170000D03*
D11*
X35320000Y-28350000D03*
%TD*%
D12*
%TO.N,/GND*%
X26899999Y-6580000D03*
D13*
X11525000Y-9325000D03*
D12*
X42139999Y-1500000D03*
X31979999Y-6580000D03*
X39599999Y-11660000D03*
X34825500Y-21325454D03*
X47219999Y-1500000D03*
X26899999Y-4040000D03*
D13*
X40100000Y-21100000D03*
X13175000Y-9325000D03*
D12*
X44679999Y-29439999D03*
X6200000Y-30000000D03*
X24000000Y-8600000D03*
X39700000Y-17300000D03*
X11660000Y-24359999D03*
X47000000Y-8100000D03*
D13*
X11525000Y-7675000D03*
D12*
X42139999Y-24359999D03*
X20700000Y-15500000D03*
X44679999Y-1500000D03*
X44679999Y-4040000D03*
X36300000Y-8000000D03*
X41250000Y-24000000D03*
X28800000Y-19200000D03*
D13*
X40900000Y-21900000D03*
D12*
X42139999Y-4040000D03*
X31979999Y-9120000D03*
X40451529Y-13441744D03*
X10600000Y-24500000D03*
X25200000Y-10500000D03*
X8886480Y-17192734D03*
D13*
X13175000Y-7675000D03*
D12*
%TO.N,/VBUS*%
X38547800Y-19457700D03*
X32737500Y-21977500D03*
X36822300Y-29818400D03*
X28710700Y-22019200D03*
%TO.N,/CC1*%
X29718400Y-24432400D03*
X29900000Y-21131400D03*
%TO.N,/USB_DP*%
X23059800Y-16701400D03*
X28331100Y-19903400D03*
%TO.N,/USB_DN*%
X28116700Y-18542300D03*
X20213200Y-10858200D03*
%TO.N,/CC2*%
X32750000Y-24460200D03*
X36298200Y-25100000D03*
%TO.N,/BQ_TS*%
X38411400Y-23805100D03*
X38268200Y-20335800D03*
%TO.N,/VBAT*%
X43345700Y-23262500D03*
X38039600Y-21177100D03*
X43311000Y-16489000D03*
X43304100Y-28737500D03*
%TO.N,/BQ_EN1*%
X38061300Y-22246200D03*
X37602200Y-28700000D03*
%TO.N,/PGOOD_N*%
X36606800Y-18569300D03*
X37199500Y-22257000D03*
X14355000Y-16354100D03*
%TO.N,/CHG_N*%
X42835500Y-22250000D03*
X34910000Y-18487100D03*
%TO.N,/VSYS*%
X35259400Y-10216900D03*
X43513700Y-20320200D03*
X36298900Y-17031200D03*
%TO.N,/BQ_ILIM*%
X37500400Y-26789600D03*
X42864400Y-20734200D03*
%TO.N,/BQ_ISET*%
X38617500Y-27122100D03*
X39038100Y-20062500D03*
%TO.N,/+3V3*%
X10520000Y-20500000D03*
X16800000Y-24600000D03*
X21107500Y-9117500D03*
X32558200Y-15505700D03*
X40047800Y-15680200D03*
X47286300Y-12236300D03*
X25687100Y-13961100D03*
%TO.N,/PWR_EN*%
X24962200Y-11450000D03*
X27772300Y-6200000D03*
%TO.N,/+2V8_HTR*%
X53632500Y-8673700D03*
X53400000Y-15745000D03*
X46796100Y-3932300D03*
%TO.N,/CH4_FB*%
X45298100Y-20028500D03*
X10002000Y-16353700D03*
%TO.N,/LPG_FB*%
X50266400Y-21533600D03*
X17304400Y-14623800D03*
%TO.N,/I2C_SDA*%
X43176000Y-6115000D03*
X6400000Y-25600000D03*
X41606200Y-17100100D03*
X15750000Y-16700000D03*
%TO.N,/I2C_SCL*%
X7200000Y-29400000D03*
X42808400Y-8659100D03*
X16600000Y-17900000D03*
X45528800Y-16968800D03*
%TO.N,/ADS_RDY*%
X21062200Y-16201600D03*
X42242100Y-11320700D03*
X43098400Y-18629100D03*
%TO.N,/LED_DIN*%
X24763200Y-8438000D03*
X20439500Y-848300D03*
%TO.N,/TXD0*%
X17766300Y-8301100D03*
X22298900Y-12440100D03*
%TO.N,/RXD0*%
X10587500Y-5437500D03*
X24600000Y-12434100D03*
%TO.N,/ESP_EN*%
X6400000Y-2385900D03*
X21965500Y-8858400D03*
%TO.N,/CH4_TAP*%
X45731500Y-12695500D03*
X48811300Y-20691600D03*
%TO.N,/LPG_TAP*%
X49013900Y-16395300D03*
X52779100Y-19714400D03*
%TO.N,/HTR_SENSE*%
X46146200Y-6127400D03*
X53794100Y-18081200D03*
X49208300Y-17882800D03*
%TD*%
D14*
%TO.N,/VBUS*%
X32111200Y-21977500D02*
X32069500Y-22019200D01*
X32069500Y-22019200D02*
X28710700Y-22019200D01*
X36171700Y-27659800D02*
X36171700Y-29167800D01*
X34880600Y-26368700D02*
X36171700Y-27659800D01*
X36171700Y-29167800D02*
X36822300Y-29818400D01*
X32069500Y-22019200D02*
X32069500Y-24718900D01*
X32069500Y-24718900D02*
X33719300Y-26368700D01*
X32737500Y-21977500D02*
X32111200Y-21977500D01*
X33719300Y-26368700D02*
X34880600Y-26368700D01*
D15*
%TO.N,/CC1*%
X29834200Y-21197200D02*
X29900000Y-21131400D01*
X28738400Y-21197200D02*
X29834200Y-21197200D01*
X28158900Y-21776700D02*
X28738400Y-21197200D01*
X29718400Y-24432400D02*
X28158900Y-22872900D01*
X28158900Y-22872900D02*
X28158900Y-21776700D01*
%TO.N,/USB_DP*%
X26261800Y-19903400D02*
X23059800Y-16701400D01*
X28331100Y-19903400D02*
X26261800Y-19903400D01*
%TO.N,/USB_DN*%
X15505800Y-17255300D02*
X21555900Y-17255300D01*
X22683400Y-16127800D02*
X23348900Y-16127800D01*
X25763400Y-18542300D02*
X28116700Y-18542300D01*
X21555900Y-17255300D02*
X22683400Y-16127800D01*
X15185800Y-16935300D02*
X15505800Y-17255300D01*
X20213200Y-10858200D02*
X15185800Y-15885600D01*
X23348900Y-16127800D02*
X25763400Y-18542300D01*
X15185800Y-15885600D02*
X15185800Y-16935300D01*
%TO.N,/CC2*%
X33513500Y-25476700D02*
X32750000Y-24713200D01*
X36298200Y-25100000D02*
X35921500Y-25476700D01*
X35921500Y-25476700D02*
X33513500Y-25476700D01*
X32750000Y-24713200D02*
X32750000Y-24460200D01*
%TO.N,/BQ_TS*%
X38411400Y-23805100D02*
X38617500Y-23599000D01*
X38617500Y-20685100D02*
X38268200Y-20335800D01*
X38617500Y-23599000D02*
X38617500Y-20685100D01*
D16*
%TO.N,/VBAT*%
X43345700Y-28695900D02*
X43304100Y-28737500D01*
X43345700Y-23262500D02*
X43345700Y-28695900D01*
D15*
%TO.N,/BQ_EN1*%
X37602200Y-28700000D02*
X36871400Y-27969200D01*
X36871400Y-23436100D02*
X38061300Y-22246200D01*
X36871400Y-27969200D02*
X36871400Y-23436100D01*
%TO.N,/PGOOD_N*%
X37199500Y-22257000D02*
X36605700Y-21663200D01*
X36605700Y-20579700D02*
X36605700Y-18570400D01*
X36605700Y-21663200D02*
X36605700Y-20579700D01*
X29671600Y-20579700D02*
X29405800Y-20845500D01*
X14355000Y-16651200D02*
X14355000Y-16354100D01*
X18549300Y-20845500D02*
X14355000Y-16651200D01*
X36605700Y-18570400D02*
X36606800Y-18569300D01*
X29405800Y-20845500D02*
X18549300Y-20845500D01*
X36605700Y-20579700D02*
X29671600Y-20579700D01*
%TO.N,/CHG_N*%
X37982400Y-17960000D02*
X35437100Y-17960000D01*
X42835500Y-22250000D02*
X42272400Y-22250000D01*
X35437100Y-17960000D02*
X34910000Y-18487100D01*
X42272400Y-22250000D02*
X37982400Y-17960000D01*
D16*
%TO.N,/VSYS*%
X38048500Y-17316600D02*
X36584300Y-17316600D01*
X36584300Y-17316600D02*
X36298900Y-17031200D01*
X43513700Y-20320200D02*
X42967300Y-19773800D01*
X42967300Y-19773800D02*
X40505700Y-19773800D01*
X40505700Y-19773800D02*
X38048500Y-17316600D01*
D15*
%TO.N,/BQ_ILIM*%
X43935900Y-21805700D02*
X42864400Y-20734200D01*
X37500400Y-26789600D02*
X40011500Y-29300700D01*
X40011500Y-29300700D02*
X43568100Y-29300700D01*
X43568100Y-29300700D02*
X43935900Y-28932900D01*
X43935900Y-28932900D02*
X43935900Y-21805700D01*
%TO.N,/BQ_ISET*%
X38617500Y-27122100D02*
X39038100Y-26701500D01*
X39038100Y-26701500D02*
X39038100Y-20062500D01*
D17*
%TO.N,/+3V3*%
X21107500Y-9117500D02*
X21107500Y-9848200D01*
X32732700Y-15680200D02*
X32558200Y-15505700D01*
X19997400Y-9848200D02*
X21107500Y-9848200D01*
X21107500Y-9848200D02*
X25220400Y-13961100D01*
X40047800Y-15680200D02*
X32732700Y-15680200D01*
X10520000Y-19325600D02*
X19997400Y-9848200D01*
X10520000Y-20500000D02*
X10520000Y-19325600D01*
X25220400Y-13961100D02*
X25687100Y-13961100D01*
D15*
%TO.N,/PWR_EN*%
X24648300Y-10271500D02*
X24648300Y-11136100D01*
X24648300Y-11136100D02*
X24962200Y-11450000D01*
X27772200Y-6200000D02*
X27772200Y-7147600D01*
X27772300Y-6200000D02*
X27772200Y-6200000D01*
X27772200Y-7147600D02*
X24648300Y-10271500D01*
D16*
%TO.N,/+2V8_HTR*%
X53400000Y-8673700D02*
X53400000Y-15745000D01*
X53400000Y-8673700D02*
X53632500Y-8673700D01*
X46796100Y-3932300D02*
X51537500Y-8673700D01*
X51537500Y-8673700D02*
X53400000Y-8673700D01*
D15*
%TO.N,/LPG_FB*%
X43453900Y-5535000D02*
X42830200Y-5535000D01*
X50266400Y-21533600D02*
X48805100Y-21533600D01*
X33741400Y-14623800D02*
X17304400Y-14623800D01*
X48805100Y-21533600D02*
X46317900Y-19046400D01*
X44529200Y-6610300D02*
X43453900Y-5535000D01*
X42830200Y-5535000D02*
X33741400Y-14623800D01*
X46317900Y-16693200D02*
X44529200Y-14904500D01*
X44529200Y-14904500D02*
X44529200Y-6610300D01*
X46317900Y-19046400D02*
X46317900Y-16693200D01*
%TO.N,/I2C_SDA*%
X41206100Y-16700000D02*
X41206100Y-16238000D01*
X41606200Y-17100100D02*
X41206100Y-16700000D01*
X36783200Y-16238000D02*
X36671500Y-16126300D01*
X22363000Y-15776100D02*
X21337900Y-16801200D01*
X41206100Y-8084900D02*
X43176000Y-6115000D01*
X21337900Y-16801200D02*
X15851200Y-16801200D01*
X41206100Y-16238000D02*
X41206100Y-8084900D01*
X23932400Y-16126300D02*
X23582200Y-15776100D01*
X23582200Y-15776100D02*
X22363000Y-15776100D01*
X15851200Y-16801200D02*
X15750000Y-16700000D01*
X41206100Y-16238000D02*
X36783200Y-16238000D01*
X36671500Y-16126300D02*
X23932400Y-16126300D01*
%TO.N,/I2C_SCL*%
X36747900Y-16700000D02*
X36527400Y-16479500D01*
X19193800Y-20493800D02*
X16600000Y-17900000D01*
X36527400Y-16479500D02*
X33262000Y-16479500D01*
X44179000Y-18332700D02*
X43298300Y-19213400D01*
X44179000Y-16968800D02*
X45528800Y-16968800D01*
X44179000Y-16968800D02*
X44179000Y-18332700D01*
X42858000Y-19213400D02*
X40344600Y-16700000D01*
X29247700Y-20493800D02*
X19193800Y-20493800D01*
X42808400Y-15206200D02*
X42808400Y-8659100D01*
X40344600Y-16700000D02*
X36747900Y-16700000D01*
X44179000Y-16576800D02*
X42808400Y-15206200D01*
X33262000Y-16479500D02*
X29247700Y-20493800D01*
X43298300Y-19213400D02*
X42858000Y-19213400D01*
X44179000Y-16968800D02*
X44179000Y-16576800D01*
%TO.N,/ADS_RDY*%
X42242100Y-17772800D02*
X43098400Y-18629100D01*
X42242100Y-11320700D02*
X42242100Y-17772800D01*
%TO.N,/LED_DIN*%
X20439500Y-4114300D02*
X20439500Y-848300D01*
X24763200Y-8438000D02*
X20439500Y-4114300D01*
%TO.N,/ESP_EN*%
X15493000Y-2385900D02*
X21965500Y-8858400D01*
X6400000Y-2385900D02*
X15493000Y-2385900D01*
%TO.N,/CH4_TAP*%
X45731500Y-15114300D02*
X45731500Y-12695500D01*
X46793500Y-18673800D02*
X46793500Y-16176300D01*
X46793500Y-16176300D02*
X45731500Y-15114300D01*
X48811300Y-20691600D02*
X46793500Y-18673800D01*
%TO.N,/LPG_TAP*%
X52779100Y-19714400D02*
X49460000Y-16395300D01*
X49460000Y-16395300D02*
X49013900Y-16395300D01*
%TO.N,/HTR_SENSE*%
X49208300Y-17882800D02*
X46355800Y-15030300D01*
X46355800Y-6337000D02*
X46146200Y-6127400D01*
X46355800Y-15030300D02*
X46355800Y-6337000D01*
%TD*%
%TA.AperFunction,Conductor*%
%TO.N,/GND*%
G36*
X20027960Y-319407D02*
G01*
X20063924Y-368907D01*
X20063924Y-430093D01*
X20039774Y-469501D01*
X19998991Y-510285D01*
X19998988Y-510288D01*
X19998987Y-510289D01*
X19926517Y-635810D01*
X19889000Y-775825D01*
X19889000Y-920774D01*
X19926517Y-1060789D01*
X19998987Y-1186310D01*
X19998989Y-1186312D01*
X19998991Y-1186315D01*
X20060005Y-1247329D01*
X20087781Y-1301844D01*
X20089000Y-1317331D01*
X20089000Y-4160444D01*
X20112886Y-4249588D01*
X20159030Y-4329512D01*
X24183705Y-8354187D01*
X24211481Y-8408702D01*
X24212700Y-8424189D01*
X24212700Y-8510475D01*
X24218038Y-8530396D01*
X24250217Y-8650489D01*
X24322687Y-8776010D01*
X24322689Y-8776012D01*
X24322691Y-8776015D01*
X24425185Y-8878509D01*
X24425187Y-8878510D01*
X24425189Y-8878512D01*
X24550711Y-8950982D01*
X24550712Y-8950982D01*
X24550715Y-8950984D01*
X24690725Y-8988500D01*
X24690726Y-8988500D01*
X24835674Y-8988500D01*
X24835675Y-8988500D01*
X24975685Y-8950984D01*
X24975687Y-8950982D01*
X24975689Y-8950982D01*
X25101210Y-8878512D01*
X25101210Y-8878511D01*
X25101215Y-8878509D01*
X25203709Y-8776015D01*
X25223572Y-8741612D01*
X25276182Y-8650489D01*
X25276182Y-8650487D01*
X25276184Y-8650485D01*
X25313700Y-8510475D01*
X25313700Y-8365525D01*
X25276184Y-8225515D01*
X25276182Y-8225512D01*
X25276182Y-8225510D01*
X25203712Y-8099989D01*
X25203710Y-8099987D01*
X25203709Y-8099985D01*
X25101215Y-7997491D01*
X25101212Y-7997489D01*
X25101210Y-7997487D01*
X24975688Y-7925017D01*
X24975689Y-7925017D01*
X24946096Y-7917087D01*
X24835675Y-7887500D01*
X24835674Y-7887500D01*
X24749390Y-7887500D01*
X24691199Y-7868593D01*
X24679386Y-7858504D01*
X20818996Y-3998114D01*
X20791219Y-3943597D01*
X20790000Y-3928110D01*
X20790000Y-2497644D01*
X21699500Y-2497644D01*
X21699500Y-2702355D01*
X21731521Y-2904529D01*
X21794780Y-3099219D01*
X21887712Y-3281609D01*
X21887714Y-3281613D01*
X22008029Y-3447213D01*
X22008031Y-3447215D01*
X22008034Y-3447219D01*
X22152781Y-3591966D01*
X22152784Y-3591968D01*
X22152786Y-3591970D01*
X22318386Y-3712285D01*
X22318390Y-3712287D01*
X22500781Y-3805220D01*
X22695466Y-3868477D01*
X22695467Y-3868477D01*
X22695470Y-3868478D01*
X22897645Y-3900500D01*
X22897648Y-3900500D01*
X23102355Y-3900500D01*
X23304529Y-3868478D01*
X23304530Y-3868477D01*
X23304534Y-3868477D01*
X23499219Y-3805220D01*
X23681610Y-3712287D01*
X23847219Y-3591966D01*
X23991966Y-3447219D01*
X24112287Y-3281610D01*
X24205220Y-3099219D01*
X24268477Y-2904534D01*
X24280851Y-2826409D01*
X24285407Y-2797644D01*
X37199500Y-2797644D01*
X37199500Y-3002355D01*
X37231521Y-3204529D01*
X37294780Y-3399219D01*
X37387712Y-3581609D01*
X37387714Y-3581613D01*
X37508029Y-3747213D01*
X37508031Y-3747215D01*
X37508034Y-3747219D01*
X37652781Y-3891966D01*
X37652784Y-3891968D01*
X37652786Y-3891970D01*
X37818386Y-4012285D01*
X37818390Y-4012287D01*
X38000781Y-4105220D01*
X38195466Y-4168477D01*
X38195467Y-4168477D01*
X38195470Y-4168478D01*
X38397645Y-4200500D01*
X38397648Y-4200500D01*
X38602355Y-4200500D01*
X38804529Y-4168478D01*
X38804530Y-4168477D01*
X38804534Y-4168477D01*
X38999219Y-4105220D01*
X39181610Y-4012287D01*
X39191950Y-4004775D01*
X39236813Y-3972180D01*
X39347219Y-3891966D01*
X39379360Y-3859825D01*
X46245600Y-3859825D01*
X46245600Y-4004775D01*
X46247613Y-4012287D01*
X46283117Y-4144789D01*
X46355587Y-4270310D01*
X46355589Y-4270312D01*
X46355591Y-4270315D01*
X46458085Y-4372809D01*
X46458087Y-4372810D01*
X46458089Y-4372812D01*
X46583611Y-4445282D01*
X46583612Y-4445282D01*
X46583615Y-4445284D01*
X46583617Y-4445284D01*
X46589605Y-4447765D01*
X46589122Y-4448929D01*
X46626488Y-4470502D01*
X51136998Y-8981011D01*
X51137000Y-8981014D01*
X51230186Y-9074200D01*
X51230188Y-9074201D01*
X51342196Y-9138870D01*
X51342204Y-9138873D01*
X51344314Y-9140092D01*
X51471607Y-9174200D01*
X51471608Y-9174200D01*
X52800500Y-9174200D01*
X52858691Y-9193107D01*
X52894655Y-9242607D01*
X52899500Y-9273200D01*
X52899500Y-15484365D01*
X52888334Y-15526038D01*
X52889499Y-15526521D01*
X52887016Y-15532513D01*
X52874781Y-15578175D01*
X52849500Y-15672525D01*
X52849500Y-15817475D01*
X52866874Y-15882316D01*
X52887017Y-15957489D01*
X52959487Y-16083010D01*
X52959489Y-16083012D01*
X52959491Y-16083015D01*
X53061985Y-16185509D01*
X53061987Y-16185510D01*
X53061989Y-16185512D01*
X53187511Y-16257982D01*
X53187512Y-16257982D01*
X53187515Y-16257984D01*
X53327525Y-16295500D01*
X53327526Y-16295500D01*
X53472474Y-16295500D01*
X53472475Y-16295500D01*
X53612485Y-16257984D01*
X53612487Y-16257982D01*
X53612489Y-16257982D01*
X53738010Y-16185512D01*
X53738010Y-16185511D01*
X53738015Y-16185509D01*
X53840509Y-16083015D01*
X53848782Y-16068686D01*
X53912982Y-15957489D01*
X53912982Y-15957487D01*
X53912984Y-15957485D01*
X53950500Y-15817475D01*
X53950500Y-15672525D01*
X53912984Y-15532515D01*
X53912983Y-15532513D01*
X53910501Y-15526521D01*
X53911665Y-15526038D01*
X53900500Y-15484365D01*
X53900500Y-9211789D01*
X53919407Y-9153598D01*
X53949998Y-9126053D01*
X53970515Y-9114209D01*
X54073009Y-9011715D01*
X54108072Y-8950984D01*
X54145482Y-8886189D01*
X54145482Y-8886187D01*
X54145484Y-8886185D01*
X54183000Y-8746175D01*
X54183000Y-8601225D01*
X54145484Y-8461215D01*
X54145482Y-8461212D01*
X54145482Y-8461210D01*
X54073012Y-8335689D01*
X54073010Y-8335687D01*
X54073009Y-8335685D01*
X53970515Y-8233191D01*
X53970512Y-8233189D01*
X53970510Y-8233187D01*
X53844988Y-8160717D01*
X53844989Y-8160717D01*
X53815396Y-8152787D01*
X53704975Y-8123200D01*
X53560025Y-8123200D01*
X53513355Y-8135705D01*
X53420013Y-8160716D01*
X53414021Y-8163199D01*
X53413538Y-8162034D01*
X53371865Y-8173200D01*
X51785821Y-8173200D01*
X51727630Y-8154293D01*
X51715817Y-8144204D01*
X47334302Y-3762688D01*
X47312729Y-3725322D01*
X47311565Y-3725805D01*
X47309082Y-3719811D01*
X47236612Y-3594289D01*
X47236610Y-3594287D01*
X47236609Y-3594285D01*
X47134115Y-3491791D01*
X47134112Y-3491789D01*
X47134110Y-3491787D01*
X47008588Y-3419317D01*
X47008589Y-3419317D01*
X46978996Y-3411387D01*
X46868575Y-3381800D01*
X46723625Y-3381800D01*
X46661890Y-3398341D01*
X46583610Y-3419317D01*
X46458089Y-3491787D01*
X46355587Y-3594289D01*
X46283117Y-3719810D01*
X46245600Y-3859825D01*
X39379360Y-3859825D01*
X39491966Y-3747219D01*
X39612287Y-3581610D01*
X39705220Y-3399219D01*
X39768477Y-3204534D01*
X39800500Y-3002352D01*
X39800500Y-2797648D01*
X39800500Y-2797644D01*
X39768478Y-2595470D01*
X39736694Y-2497648D01*
X39705220Y-2400781D01*
X39612287Y-2218390D01*
X39612285Y-2218386D01*
X39491970Y-2052786D01*
X39491968Y-2052784D01*
X39491966Y-2052781D01*
X39347219Y-1908034D01*
X39347215Y-1908031D01*
X39347213Y-1908029D01*
X39181613Y-1787714D01*
X39181609Y-1787712D01*
X38999219Y-1694780D01*
X38804529Y-1631521D01*
X38602355Y-1599500D01*
X38602352Y-1599500D01*
X38397648Y-1599500D01*
X38397645Y-1599500D01*
X38195470Y-1631521D01*
X38000780Y-1694780D01*
X37818390Y-1787712D01*
X37818386Y-1787714D01*
X37652786Y-1908029D01*
X37508029Y-2052786D01*
X37387714Y-2218386D01*
X37387712Y-2218390D01*
X37294780Y-2400780D01*
X37231521Y-2595470D01*
X37199500Y-2797644D01*
X24285407Y-2797644D01*
X24288476Y-2778271D01*
X24300500Y-2702355D01*
X24300500Y-2497644D01*
X24268478Y-2295470D01*
X24243432Y-2218386D01*
X24205220Y-2100781D01*
X24112287Y-1918390D01*
X24112285Y-1918386D01*
X24020260Y-1791724D01*
X24020258Y-1791722D01*
X24017345Y-1787712D01*
X23991966Y-1752781D01*
X23977576Y-1738391D01*
X28874500Y-1738391D01*
X28874500Y-1861608D01*
X28898536Y-1982450D01*
X28945688Y-2096285D01*
X28945689Y-2096286D01*
X29014142Y-2198733D01*
X29101267Y-2285858D01*
X29203714Y-2354311D01*
X29317548Y-2401463D01*
X29438394Y-2425500D01*
X29438396Y-2425500D01*
X29561604Y-2425500D01*
X29561606Y-2425500D01*
X29682452Y-2401463D01*
X29796286Y-2354311D01*
X29898733Y-2285858D01*
X29985858Y-2198733D01*
X30054311Y-2096286D01*
X30101463Y-1982452D01*
X30125500Y-1861606D01*
X30125500Y-1738394D01*
X30125499Y-1738391D01*
X31874500Y-1738391D01*
X31874500Y-1861608D01*
X31898536Y-1982450D01*
X31945688Y-2096285D01*
X31945689Y-2096286D01*
X32014142Y-2198733D01*
X32101267Y-2285858D01*
X32203714Y-2354311D01*
X32317548Y-2401463D01*
X32438394Y-2425500D01*
X32438396Y-2425500D01*
X32561604Y-2425500D01*
X32561606Y-2425500D01*
X32682452Y-2401463D01*
X32796286Y-2354311D01*
X32898733Y-2285858D01*
X32985858Y-2198733D01*
X33054311Y-2096286D01*
X33101463Y-1982452D01*
X33125500Y-1861606D01*
X33125500Y-1738394D01*
X33101463Y-1617548D01*
X33054311Y-1503714D01*
X32985858Y-1401267D01*
X32898733Y-1314142D01*
X32816417Y-1259140D01*
X32796285Y-1245688D01*
X32682450Y-1198536D01*
X32561608Y-1174500D01*
X32561606Y-1174500D01*
X32438394Y-1174500D01*
X32438391Y-1174500D01*
X32317549Y-1198536D01*
X32203714Y-1245688D01*
X32101267Y-1314142D01*
X32101263Y-1314145D01*
X32014145Y-1401263D01*
X32014142Y-1401267D01*
X31945688Y-1503714D01*
X31898536Y-1617549D01*
X31874500Y-1738391D01*
X30125499Y-1738391D01*
X30101463Y-1617548D01*
X30054311Y-1503714D01*
X29985858Y-1401267D01*
X29898733Y-1314142D01*
X29816417Y-1259140D01*
X29796285Y-1245688D01*
X29682450Y-1198536D01*
X29561608Y-1174500D01*
X29561606Y-1174500D01*
X29438394Y-1174500D01*
X29438391Y-1174500D01*
X29317549Y-1198536D01*
X29203714Y-1245688D01*
X29101267Y-1314142D01*
X29101263Y-1314145D01*
X29014145Y-1401263D01*
X29014142Y-1401267D01*
X28945688Y-1503714D01*
X28898536Y-1617549D01*
X28874500Y-1738391D01*
X23977576Y-1738391D01*
X23847219Y-1608034D01*
X23847215Y-1608031D01*
X23847213Y-1608029D01*
X23681613Y-1487714D01*
X23681609Y-1487712D01*
X23499219Y-1394780D01*
X23304529Y-1331521D01*
X23102355Y-1299500D01*
X23102352Y-1299500D01*
X22897648Y-1299500D01*
X22897645Y-1299500D01*
X22695470Y-1331521D01*
X22500780Y-1394780D01*
X22318390Y-1487712D01*
X22318386Y-1487714D01*
X22152786Y-1608029D01*
X22008029Y-1752786D01*
X21887714Y-1918386D01*
X21887712Y-1918390D01*
X21815923Y-2059286D01*
X21794780Y-2100781D01*
X21773694Y-2165676D01*
X21731521Y-2295470D01*
X21699500Y-2497644D01*
X20790000Y-2497644D01*
X20790000Y-1317331D01*
X20808907Y-1259140D01*
X20818990Y-1247333D01*
X20880009Y-1186315D01*
X20880012Y-1186310D01*
X20952482Y-1060789D01*
X20952482Y-1060787D01*
X20952484Y-1060785D01*
X20990000Y-920775D01*
X20990000Y-775825D01*
X20952484Y-635815D01*
X20952482Y-635812D01*
X20952482Y-635810D01*
X20880012Y-510289D01*
X20880010Y-510287D01*
X20880009Y-510285D01*
X20839225Y-469501D01*
X20811450Y-414987D01*
X20821021Y-354555D01*
X20864286Y-311290D01*
X20909231Y-300500D01*
X52952405Y-300500D01*
X52996462Y-300500D01*
X53003523Y-300751D01*
X53234806Y-317293D01*
X53248787Y-319304D01*
X53471881Y-367836D01*
X53485433Y-371815D01*
X53581891Y-407791D01*
X53699366Y-451606D01*
X53712205Y-457469D01*
X53912607Y-566898D01*
X53924483Y-574530D01*
X54107263Y-711357D01*
X54117939Y-720607D01*
X54279392Y-882060D01*
X54288642Y-892736D01*
X54425467Y-1075513D01*
X54433103Y-1087395D01*
X54542526Y-1287786D01*
X54548394Y-1300636D01*
X54628184Y-1514566D01*
X54632163Y-1528118D01*
X54680695Y-1751212D01*
X54682706Y-1765193D01*
X54699248Y-1996475D01*
X54699500Y-2003538D01*
X54699500Y-28996461D01*
X54699248Y-29003524D01*
X54682706Y-29234806D01*
X54680695Y-29248787D01*
X54632163Y-29471881D01*
X54628184Y-29485433D01*
X54548394Y-29699363D01*
X54542526Y-29712213D01*
X54433103Y-29912604D01*
X54425467Y-29924486D01*
X54288642Y-30107263D01*
X54279392Y-30117939D01*
X54117939Y-30279392D01*
X54107263Y-30288642D01*
X53924486Y-30425467D01*
X53912604Y-30433103D01*
X53712213Y-30542526D01*
X53699363Y-30548394D01*
X53485433Y-30628184D01*
X53471881Y-30632163D01*
X53248787Y-30680695D01*
X53234806Y-30682706D01*
X53031124Y-30697274D01*
X53003522Y-30699248D01*
X52996462Y-30699500D01*
X4649000Y-30699500D01*
X4590809Y-30680593D01*
X4554845Y-30631093D01*
X4550000Y-30600500D01*
X4550000Y-29327525D01*
X6649500Y-29327525D01*
X6649500Y-29472474D01*
X6687017Y-29612489D01*
X6759487Y-29738010D01*
X6759489Y-29738012D01*
X6759491Y-29738015D01*
X6861985Y-29840509D01*
X6861987Y-29840510D01*
X6861989Y-29840512D01*
X6987511Y-29912982D01*
X6987512Y-29912982D01*
X6987515Y-29912984D01*
X7127525Y-29950500D01*
X7127526Y-29950500D01*
X7272474Y-29950500D01*
X7272475Y-29950500D01*
X7412485Y-29912984D01*
X7412487Y-29912982D01*
X7412489Y-29912982D01*
X7538010Y-29840512D01*
X7538010Y-29840511D01*
X7538015Y-29840509D01*
X7640509Y-29738015D01*
X7690632Y-29651200D01*
X7712982Y-29612489D01*
X7712982Y-29612487D01*
X7712984Y-29612485D01*
X7750500Y-29472475D01*
X7750500Y-29327525D01*
X7712984Y-29187515D01*
X7712982Y-29187512D01*
X7712982Y-29187510D01*
X7640512Y-29061989D01*
X7640510Y-29061987D01*
X7640509Y-29061985D01*
X7538015Y-28959491D01*
X7538012Y-28959489D01*
X7538010Y-28959487D01*
X7412488Y-28887017D01*
X7412489Y-28887017D01*
X7382896Y-28879087D01*
X7272475Y-28849500D01*
X7127525Y-28849500D01*
X7065790Y-28866041D01*
X6987510Y-28887017D01*
X6861989Y-28959487D01*
X6759487Y-29061989D01*
X6687017Y-29187510D01*
X6649500Y-29327525D01*
X4550000Y-29327525D01*
X4550000Y-27971204D01*
X25880000Y-27971204D01*
X25880000Y-28174999D01*
X25880001Y-28175000D01*
X26380000Y-28175000D01*
X26380000Y-28525000D01*
X25880001Y-28525000D01*
X25880000Y-28525001D01*
X25880000Y-28728795D01*
X25910742Y-28883349D01*
X25971048Y-29028940D01*
X25971052Y-29028949D01*
X26058599Y-29159969D01*
X26058602Y-29159973D01*
X26170026Y-29271397D01*
X26170030Y-29271400D01*
X26301050Y-29358947D01*
X26301059Y-29358951D01*
X26446646Y-29419255D01*
X26446653Y-29419257D01*
X26505000Y-29430862D01*
X26505000Y-28895374D01*
X26564204Y-28929556D01*
X26640504Y-28950000D01*
X26719496Y-28950000D01*
X26795796Y-28929556D01*
X26855000Y-28895374D01*
X26855000Y-29430861D01*
X26913346Y-29419257D01*
X26913353Y-29419255D01*
X27058940Y-29358951D01*
X27058949Y-29358947D01*
X27189969Y-29271400D01*
X27189973Y-29271397D01*
X27301397Y-29159973D01*
X27301400Y-29159969D01*
X27388947Y-29028949D01*
X27388951Y-29028940D01*
X27449257Y-28883349D01*
X27479999Y-28728795D01*
X27480000Y-28728792D01*
X27480000Y-28525001D01*
X27479999Y-28525000D01*
X26980000Y-28525000D01*
X26980000Y-28175000D01*
X27479999Y-28175000D01*
X27480000Y-28174999D01*
X27480000Y-27971207D01*
X27479999Y-27971204D01*
X27449257Y-27816650D01*
X27388951Y-27671059D01*
X27388947Y-27671050D01*
X27301400Y-27540030D01*
X27301397Y-27540026D01*
X27189973Y-27428602D01*
X27189969Y-27428599D01*
X27058949Y-27341052D01*
X27058940Y-27341048D01*
X26913354Y-27280744D01*
X26913348Y-27280742D01*
X26855000Y-27269136D01*
X26855000Y-27804625D01*
X26795796Y-27770444D01*
X26719496Y-27750000D01*
X26640504Y-27750000D01*
X26564204Y-27770444D01*
X26505000Y-27804625D01*
X26505000Y-27269136D01*
X26446651Y-27280742D01*
X26446645Y-27280744D01*
X26301059Y-27341048D01*
X26301050Y-27341052D01*
X26170030Y-27428599D01*
X26170026Y-27428602D01*
X26058602Y-27540026D01*
X26058599Y-27540030D01*
X25971052Y-27671050D01*
X25971048Y-27671059D01*
X25910742Y-27816650D01*
X25880000Y-27971204D01*
X4550000Y-27971204D01*
X4550000Y-27300000D01*
X7200000Y-27300000D01*
X7200001Y-27300000D01*
X9799999Y-27300000D01*
X9800000Y-27300000D01*
X9800000Y-24700000D01*
X7200000Y-24700000D01*
X7200000Y-27300000D01*
X4550000Y-27300000D01*
X4550000Y-25527525D01*
X5849500Y-25527525D01*
X5849500Y-25672475D01*
X5852949Y-25685345D01*
X5887017Y-25812489D01*
X5959487Y-25938010D01*
X5959489Y-25938012D01*
X5959491Y-25938015D01*
X6061985Y-26040509D01*
X6061987Y-26040510D01*
X6061989Y-26040512D01*
X6187511Y-26112982D01*
X6187512Y-26112982D01*
X6187515Y-26112984D01*
X6327525Y-26150500D01*
X6327526Y-26150500D01*
X6472474Y-26150500D01*
X6472475Y-26150500D01*
X6612485Y-26112984D01*
X6612487Y-26112982D01*
X6612489Y-26112982D01*
X6738010Y-26040512D01*
X6738010Y-26040511D01*
X6738015Y-26040509D01*
X6840509Y-25938015D01*
X6894437Y-25844610D01*
X6912982Y-25812489D01*
X6912982Y-25812487D01*
X6912984Y-25812485D01*
X6950500Y-25672475D01*
X6950500Y-25527525D01*
X6912984Y-25387515D01*
X6912982Y-25387512D01*
X6912982Y-25387510D01*
X6840512Y-25261989D01*
X6840510Y-25261987D01*
X6840509Y-25261985D01*
X6738015Y-25159491D01*
X6738012Y-25159489D01*
X6738010Y-25159487D01*
X6612488Y-25087017D01*
X6612489Y-25087017D01*
X6582896Y-25079087D01*
X6472475Y-25049500D01*
X6327525Y-25049500D01*
X6265790Y-25066041D01*
X6187510Y-25087017D01*
X6061989Y-25159487D01*
X5959487Y-25261989D01*
X5887017Y-25387510D01*
X5859754Y-25489257D01*
X5849500Y-25527525D01*
X4550000Y-25527525D01*
X4550000Y-22899500D01*
X4568907Y-22841309D01*
X4618407Y-22805345D01*
X4649000Y-22800500D01*
X14600500Y-22800500D01*
X14658691Y-22819407D01*
X14694655Y-22868907D01*
X14699500Y-22899500D01*
X14699500Y-27539564D01*
X14719978Y-27615988D01*
X14719980Y-27615992D01*
X14759538Y-27684508D01*
X14759540Y-27684511D01*
X14815489Y-27740460D01*
X14815491Y-27740461D01*
X14884007Y-27780019D01*
X14884011Y-27780021D01*
X14960435Y-27800499D01*
X14960437Y-27800500D01*
X14960438Y-27800500D01*
X16039563Y-27800500D01*
X16039563Y-27800499D01*
X16115989Y-27780021D01*
X16184511Y-27740460D01*
X16240460Y-27684511D01*
X16280021Y-27615989D01*
X16300500Y-27539562D01*
X16300500Y-25117349D01*
X16319407Y-25059158D01*
X16368907Y-25023194D01*
X16430093Y-25023194D01*
X16459772Y-25038810D01*
X16461992Y-25040514D01*
X16587511Y-25112982D01*
X16587512Y-25112982D01*
X16587515Y-25112984D01*
X16727525Y-25150500D01*
X16727526Y-25150500D01*
X16872474Y-25150500D01*
X16872475Y-25150500D01*
X17012485Y-25112984D01*
X17012487Y-25112982D01*
X17012489Y-25112982D01*
X17138010Y-25040512D01*
X17138010Y-25040511D01*
X17138015Y-25040509D01*
X17240509Y-24938015D01*
X17260820Y-24902835D01*
X17312982Y-24812489D01*
X17312982Y-24812487D01*
X17312984Y-24812485D01*
X17350500Y-24672475D01*
X17350500Y-24527525D01*
X17312984Y-24387515D01*
X17312982Y-24387512D01*
X17312982Y-24387510D01*
X17293342Y-24353493D01*
X17240512Y-24261989D01*
X17240510Y-24261987D01*
X17240509Y-24261985D01*
X17138015Y-24159491D01*
X17138012Y-24159489D01*
X17138010Y-24159487D01*
X17012488Y-24087017D01*
X17012489Y-24087017D01*
X16982896Y-24079087D01*
X16872475Y-24049500D01*
X16727525Y-24049500D01*
X16665790Y-24066041D01*
X16587510Y-24087017D01*
X16461986Y-24159489D01*
X16459765Y-24161194D01*
X16457874Y-24161863D01*
X16456365Y-24162735D01*
X16456203Y-24162455D01*
X16402088Y-24181616D01*
X16343423Y-24164237D01*
X16306177Y-24115694D01*
X16300500Y-24082650D01*
X16300500Y-23541204D01*
X25880000Y-23541204D01*
X25880000Y-23994999D01*
X25880001Y-23995000D01*
X26380000Y-23995000D01*
X26380000Y-24345000D01*
X25880001Y-24345000D01*
X25880000Y-24345001D01*
X25880000Y-24798795D01*
X25910742Y-24953349D01*
X25971048Y-25098940D01*
X25971052Y-25098949D01*
X26058599Y-25229969D01*
X26058602Y-25229973D01*
X26170026Y-25341397D01*
X26170030Y-25341400D01*
X26301050Y-25428947D01*
X26301059Y-25428951D01*
X26446646Y-25489255D01*
X26446653Y-25489257D01*
X26505000Y-25500862D01*
X26505000Y-24965374D01*
X26564204Y-24999556D01*
X26640504Y-25020000D01*
X26719496Y-25020000D01*
X26795796Y-24999556D01*
X26855000Y-24965374D01*
X26855000Y-25500861D01*
X26913346Y-25489257D01*
X26913353Y-25489255D01*
X27058940Y-25428951D01*
X27058949Y-25428947D01*
X27189969Y-25341400D01*
X27189973Y-25341397D01*
X27301397Y-25229973D01*
X27301400Y-25229969D01*
X27388947Y-25098949D01*
X27388951Y-25098940D01*
X27449257Y-24953348D01*
X27450670Y-24948693D01*
X27451708Y-24949008D01*
X27479142Y-24900022D01*
X27534706Y-24874405D01*
X27594716Y-24886341D01*
X27632078Y-24923216D01*
X27689495Y-25022665D01*
X27787335Y-25120505D01*
X27907164Y-25189688D01*
X28040817Y-25225500D01*
X28040819Y-25225500D01*
X28179181Y-25225500D01*
X28179183Y-25225500D01*
X28312836Y-25189688D01*
X28432665Y-25120505D01*
X28530505Y-25022665D01*
X28599688Y-24902836D01*
X28635500Y-24769183D01*
X28635500Y-24630817D01*
X28599688Y-24497164D01*
X28530505Y-24377335D01*
X28432665Y-24279495D01*
X28312836Y-24210312D01*
X28179183Y-24174500D01*
X28040817Y-24174500D01*
X27907164Y-24210312D01*
X27787335Y-24279495D01*
X27689493Y-24377337D01*
X27664736Y-24420218D01*
X27619266Y-24461159D01*
X27558416Y-24467554D01*
X27505428Y-24436962D01*
X27480542Y-24381066D01*
X27480000Y-24370718D01*
X27480000Y-24345001D01*
X27479999Y-24345000D01*
X26980000Y-24345000D01*
X26980000Y-23995000D01*
X27479999Y-23995000D01*
X27480000Y-23994999D01*
X27480000Y-23541207D01*
X27479999Y-23541204D01*
X27449257Y-23386650D01*
X27388951Y-23241059D01*
X27388947Y-23241050D01*
X27301400Y-23110030D01*
X27301397Y-23110026D01*
X27189973Y-22998602D01*
X27189969Y-22998599D01*
X27058949Y-22911052D01*
X27058940Y-22911048D01*
X26913354Y-22850744D01*
X26913348Y-22850742D01*
X26855000Y-22839136D01*
X26855000Y-23374625D01*
X26795796Y-23340444D01*
X26719496Y-23320000D01*
X26640504Y-23320000D01*
X26564204Y-23340444D01*
X26505000Y-23374625D01*
X26505000Y-22839136D01*
X26446651Y-22850742D01*
X26446645Y-22850744D01*
X26301059Y-22911048D01*
X26301050Y-22911052D01*
X26170030Y-22998599D01*
X26170026Y-22998602D01*
X26058602Y-23110026D01*
X26058599Y-23110030D01*
X25971052Y-23241050D01*
X25971048Y-23241059D01*
X25910742Y-23386650D01*
X25880000Y-23541204D01*
X16300500Y-23541204D01*
X16300500Y-21460437D01*
X16300499Y-21460435D01*
X16280021Y-21384011D01*
X16280019Y-21384007D01*
X16253647Y-21338329D01*
X16240460Y-21315489D01*
X16184511Y-21259540D01*
X16184508Y-21259538D01*
X16115992Y-21219980D01*
X16115988Y-21219978D01*
X16039564Y-21199500D01*
X16039562Y-21199500D01*
X10778903Y-21199500D01*
X10720712Y-21180593D01*
X10684748Y-21131093D01*
X10684748Y-21069907D01*
X10720712Y-21020407D01*
X10729403Y-21014764D01*
X10858010Y-20940512D01*
X10858010Y-20940511D01*
X10858015Y-20940509D01*
X10960509Y-20838015D01*
X10978604Y-20806674D01*
X11032982Y-20712489D01*
X11032982Y-20712487D01*
X11032984Y-20712485D01*
X11070500Y-20572475D01*
X11070500Y-20427525D01*
X11032984Y-20287515D01*
X11032982Y-20287512D01*
X11032982Y-20287510D01*
X10960512Y-20161989D01*
X10960507Y-20161983D01*
X10949494Y-20150969D01*
X10921718Y-20096452D01*
X10920500Y-20080968D01*
X10920500Y-19532500D01*
X10939407Y-19474309D01*
X10949496Y-19462496D01*
X12333392Y-18078600D01*
X13752028Y-16659963D01*
X13806543Y-16632188D01*
X13866975Y-16641759D01*
X13907765Y-16680466D01*
X13914491Y-16692115D01*
X14016985Y-16794609D01*
X14018146Y-16795279D01*
X14019094Y-16796227D01*
X14022134Y-16798560D01*
X14021826Y-16798960D01*
X14054382Y-16831516D01*
X14074526Y-16866407D01*
X14074528Y-16866409D01*
X14074530Y-16866412D01*
X18334088Y-21125970D01*
X18367139Y-21145052D01*
X18393705Y-21160390D01*
X18393708Y-21160391D01*
X18393711Y-21160393D01*
X18414012Y-21172114D01*
X18503156Y-21196000D01*
X28004910Y-21196000D01*
X28063101Y-21214907D01*
X28099065Y-21264407D01*
X28099065Y-21325593D01*
X28074914Y-21365003D01*
X27878430Y-21561487D01*
X27846373Y-21617010D01*
X27846374Y-21617011D01*
X27832286Y-21641410D01*
X27824516Y-21670409D01*
X27808400Y-21730556D01*
X27808400Y-22919044D01*
X27832286Y-23008188D01*
X27878430Y-23088112D01*
X29138905Y-24348587D01*
X29166681Y-24403102D01*
X29167900Y-24418589D01*
X29167900Y-24504875D01*
X29181301Y-24554888D01*
X29205417Y-24644889D01*
X29277887Y-24770410D01*
X29277889Y-24770412D01*
X29277891Y-24770415D01*
X29380385Y-24872909D01*
X29380387Y-24872910D01*
X29380389Y-24872912D01*
X29505911Y-24945382D01*
X29505912Y-24945382D01*
X29505915Y-24945384D01*
X29645925Y-24982900D01*
X29645926Y-24982900D01*
X29790874Y-24982900D01*
X29790875Y-24982900D01*
X29930885Y-24945384D01*
X29930887Y-24945382D01*
X29930889Y-24945382D01*
X30056410Y-24872912D01*
X30056410Y-24872911D01*
X30056415Y-24872909D01*
X30158909Y-24770415D01*
X30159620Y-24769183D01*
X30231382Y-24644889D01*
X30231382Y-24644887D01*
X30231384Y-24644885D01*
X30268900Y-24504875D01*
X30268900Y-24359925D01*
X30231384Y-24219915D01*
X30231382Y-24219912D01*
X30231382Y-24219910D01*
X30158912Y-24094389D01*
X30158910Y-24094387D01*
X30158909Y-24094385D01*
X30056415Y-23991891D01*
X30056412Y-23991889D01*
X30056410Y-23991887D01*
X29930888Y-23919417D01*
X29930889Y-23919417D01*
X29894625Y-23909700D01*
X29790875Y-23881900D01*
X29790874Y-23881900D01*
X29704590Y-23881900D01*
X29646399Y-23862993D01*
X29634586Y-23852904D01*
X28538396Y-22756714D01*
X28534769Y-22749596D01*
X28528307Y-22744901D01*
X28521143Y-22722852D01*
X28510619Y-22702197D01*
X28509400Y-22686710D01*
X28509400Y-22664200D01*
X28528307Y-22606009D01*
X28577807Y-22570045D01*
X28634026Y-22568575D01*
X28638225Y-22569700D01*
X28638227Y-22569700D01*
X28783174Y-22569700D01*
X28783175Y-22569700D01*
X28923185Y-22532184D01*
X29008437Y-22482963D01*
X29057936Y-22469700D01*
X31520000Y-22469700D01*
X31578191Y-22488607D01*
X31614155Y-22538107D01*
X31619000Y-22568700D01*
X31619000Y-24778211D01*
X31639331Y-24854084D01*
X31639332Y-24854088D01*
X31649698Y-24892781D01*
X31649702Y-24892789D01*
X31709007Y-24995509D01*
X31709009Y-24995511D01*
X31709011Y-24995514D01*
X33442687Y-26729190D01*
X33442689Y-26729191D01*
X33537758Y-26784080D01*
X33537767Y-26784083D01*
X33537769Y-26784085D01*
X33545414Y-26788499D01*
X33659991Y-26819200D01*
X34652989Y-26819200D01*
X34711180Y-26838107D01*
X34722993Y-26848196D01*
X35030594Y-27155797D01*
X35058371Y-27210314D01*
X35048800Y-27270746D01*
X35005535Y-27314011D01*
X34998476Y-27317265D01*
X34941059Y-27341048D01*
X34941050Y-27341052D01*
X34810030Y-27428599D01*
X34810026Y-27428602D01*
X34698602Y-27540026D01*
X34698599Y-27540030D01*
X34611052Y-27671050D01*
X34611048Y-27671059D01*
X34550742Y-27816650D01*
X34520000Y-27971204D01*
X34520000Y-28174999D01*
X34520001Y-28175000D01*
X35020000Y-28175000D01*
X35020000Y-28525000D01*
X34520001Y-28525000D01*
X34520000Y-28525001D01*
X34520000Y-28728795D01*
X34550742Y-28883349D01*
X34611048Y-29028940D01*
X34611052Y-29028949D01*
X34698599Y-29159969D01*
X34698602Y-29159973D01*
X34810026Y-29271397D01*
X34810030Y-29271400D01*
X34941050Y-29358947D01*
X34941059Y-29358951D01*
X35086646Y-29419255D01*
X35086653Y-29419257D01*
X35145000Y-29430862D01*
X35145000Y-28895374D01*
X35204204Y-28929556D01*
X35280504Y-28950000D01*
X35359496Y-28950000D01*
X35435796Y-28929556D01*
X35495000Y-28895374D01*
X35495000Y-29430861D01*
X35553346Y-29419257D01*
X35553353Y-29419255D01*
X35669511Y-29371141D01*
X35730508Y-29366340D01*
X35782677Y-29398309D01*
X35793132Y-29413103D01*
X35811207Y-29444409D01*
X35811211Y-29444414D01*
X36258213Y-29891417D01*
X36283835Y-29935795D01*
X36309316Y-30030886D01*
X36309317Y-30030888D01*
X36381787Y-30156410D01*
X36381789Y-30156412D01*
X36381791Y-30156415D01*
X36484285Y-30258909D01*
X36484287Y-30258910D01*
X36484289Y-30258912D01*
X36609811Y-30331382D01*
X36609812Y-30331382D01*
X36609815Y-30331384D01*
X36749825Y-30368900D01*
X36749826Y-30368900D01*
X36894774Y-30368900D01*
X36894775Y-30368900D01*
X37034785Y-30331384D01*
X37034787Y-30331382D01*
X37034789Y-30331382D01*
X37160310Y-30258912D01*
X37160310Y-30258911D01*
X37160315Y-30258909D01*
X37262809Y-30156415D01*
X37335284Y-30030885D01*
X37372800Y-29890875D01*
X37372800Y-29745925D01*
X37335284Y-29605915D01*
X37335282Y-29605912D01*
X37335282Y-29605910D01*
X37262812Y-29480389D01*
X37262810Y-29480387D01*
X37262809Y-29480385D01*
X37160315Y-29377891D01*
X37160312Y-29377889D01*
X37160310Y-29377887D01*
X37034788Y-29305417D01*
X37034786Y-29305416D01*
X36939695Y-29279935D01*
X36895316Y-29254313D01*
X36651196Y-29010193D01*
X36623419Y-28955676D01*
X36622200Y-28940189D01*
X36622200Y-28454689D01*
X36641107Y-28396498D01*
X36690607Y-28360534D01*
X36751793Y-28360534D01*
X36791204Y-28384685D01*
X37022704Y-28616185D01*
X37050481Y-28670702D01*
X37051700Y-28686189D01*
X37051700Y-28772474D01*
X37089217Y-28912489D01*
X37161687Y-29038010D01*
X37161689Y-29038012D01*
X37161691Y-29038015D01*
X37264185Y-29140509D01*
X37264187Y-29140510D01*
X37264189Y-29140512D01*
X37389711Y-29212982D01*
X37389712Y-29212982D01*
X37389715Y-29212984D01*
X37529725Y-29250500D01*
X37529726Y-29250500D01*
X37674674Y-29250500D01*
X37674675Y-29250500D01*
X37814685Y-29212984D01*
X37814687Y-29212982D01*
X37814689Y-29212982D01*
X37940210Y-29140512D01*
X37940210Y-29140511D01*
X37940215Y-29140509D01*
X38042709Y-29038015D01*
X38047943Y-29028949D01*
X38115182Y-28912489D01*
X38115182Y-28912487D01*
X38115184Y-28912485D01*
X38152700Y-28772475D01*
X38152700Y-28627525D01*
X38115184Y-28487515D01*
X38115182Y-28487512D01*
X38115182Y-28487510D01*
X38042712Y-28361989D01*
X38042710Y-28361987D01*
X38042709Y-28361985D01*
X37940215Y-28259491D01*
X37940212Y-28259489D01*
X37940210Y-28259487D01*
X37814688Y-28187017D01*
X37814689Y-28187017D01*
X37769837Y-28174999D01*
X37674675Y-28149500D01*
X37674674Y-28149500D01*
X37588388Y-28149500D01*
X37530197Y-28130593D01*
X37518384Y-28120503D01*
X37250896Y-27853014D01*
X37223119Y-27798498D01*
X37221900Y-27783011D01*
X37221900Y-27413914D01*
X37228660Y-27393106D01*
X37231487Y-27371413D01*
X37237916Y-27364619D01*
X37240807Y-27355723D01*
X37258509Y-27342861D01*
X37273545Y-27326975D01*
X37281713Y-27326002D01*
X37290307Y-27319759D01*
X37333690Y-27315744D01*
X37340187Y-27316590D01*
X37427925Y-27340100D01*
X37520630Y-27340100D01*
X37527000Y-27340930D01*
X37549109Y-27351439D01*
X37572401Y-27359007D01*
X37581651Y-27366907D01*
X37582261Y-27367197D01*
X37582496Y-27367628D01*
X37584214Y-27369096D01*
X39796288Y-29581170D01*
X39876212Y-29627314D01*
X39965356Y-29651200D01*
X39965357Y-29651200D01*
X39965358Y-29651200D01*
X43614242Y-29651200D01*
X43614244Y-29651200D01*
X43703388Y-29627314D01*
X43783312Y-29581170D01*
X44216370Y-29148112D01*
X44262514Y-29068188D01*
X44270599Y-29038015D01*
X44275365Y-29020230D01*
X44281733Y-28996461D01*
X44286400Y-28979044D01*
X44286400Y-21759556D01*
X44262514Y-21670412D01*
X44254782Y-21657020D01*
X44254782Y-21657019D01*
X44216371Y-21590490D01*
X44216370Y-21590488D01*
X43636764Y-21010882D01*
X43608987Y-20956365D01*
X43618558Y-20895933D01*
X43661823Y-20852668D01*
X43681138Y-20845254D01*
X43726185Y-20833184D01*
X43851715Y-20760709D01*
X43954209Y-20658215D01*
X43954212Y-20658210D01*
X44026682Y-20532689D01*
X44026682Y-20532687D01*
X44026684Y-20532685D01*
X44064200Y-20392675D01*
X44064200Y-20247725D01*
X44026684Y-20107715D01*
X43994756Y-20052415D01*
X43963938Y-19999036D01*
X43963937Y-19999034D01*
X43954210Y-19982187D01*
X43954209Y-19982185D01*
X43928049Y-19956025D01*
X44747600Y-19956025D01*
X44747600Y-20100975D01*
X44758941Y-20143300D01*
X44785117Y-20240989D01*
X44857587Y-20366510D01*
X44857589Y-20366512D01*
X44857591Y-20366515D01*
X44960085Y-20469009D01*
X44960087Y-20469010D01*
X44960089Y-20469012D01*
X45085611Y-20541482D01*
X45085612Y-20541482D01*
X45085615Y-20541484D01*
X45225625Y-20579000D01*
X45225626Y-20579000D01*
X45370574Y-20579000D01*
X45370575Y-20579000D01*
X45510585Y-20541484D01*
X45510587Y-20541482D01*
X45510589Y-20541482D01*
X45636110Y-20469012D01*
X45636110Y-20469011D01*
X45636115Y-20469009D01*
X45738609Y-20366515D01*
X45784223Y-20287510D01*
X45811082Y-20240989D01*
X45811082Y-20240987D01*
X45811084Y-20240985D01*
X45848600Y-20100975D01*
X45848600Y-19956025D01*
X45811084Y-19816015D01*
X45811082Y-19816012D01*
X45811082Y-19816010D01*
X45738612Y-19690489D01*
X45738610Y-19690487D01*
X45738609Y-19690485D01*
X45636115Y-19587991D01*
X45636112Y-19587989D01*
X45636110Y-19587987D01*
X45510588Y-19515517D01*
X45510589Y-19515517D01*
X45459807Y-19501910D01*
X45370575Y-19478000D01*
X45225625Y-19478000D01*
X45175273Y-19491492D01*
X45085610Y-19515517D01*
X44960089Y-19587987D01*
X44857587Y-19690489D01*
X44785117Y-19816010D01*
X44781121Y-19830925D01*
X44747600Y-19956025D01*
X43928049Y-19956025D01*
X43851715Y-19879691D01*
X43851712Y-19879689D01*
X43851710Y-19879687D01*
X43726188Y-19807217D01*
X43720191Y-19804733D01*
X43720672Y-19803569D01*
X43683309Y-19781996D01*
X43524351Y-19623038D01*
X43496574Y-19568521D01*
X43506145Y-19508089D01*
X43524348Y-19483033D01*
X44459470Y-18547912D01*
X44505614Y-18467988D01*
X44514420Y-18435124D01*
X44514622Y-18434372D01*
X44520067Y-18414047D01*
X44529500Y-18378844D01*
X44529500Y-17418300D01*
X44548407Y-17360109D01*
X44597907Y-17324145D01*
X44628500Y-17319300D01*
X45059768Y-17319300D01*
X45117959Y-17338207D01*
X45129771Y-17348296D01*
X45190784Y-17409308D01*
X45190789Y-17409312D01*
X45316311Y-17481782D01*
X45316312Y-17481782D01*
X45316315Y-17481784D01*
X45456325Y-17519300D01*
X45456326Y-17519300D01*
X45601274Y-17519300D01*
X45601275Y-17519300D01*
X45741285Y-17481784D01*
X45818900Y-17436972D01*
X45878748Y-17424251D01*
X45934643Y-17449137D01*
X45965236Y-17502125D01*
X45967400Y-17522709D01*
X45967400Y-19092544D01*
X45981454Y-19144993D01*
X45988426Y-19171013D01*
X45988425Y-19171013D01*
X45988426Y-19171015D01*
X45991283Y-19181680D01*
X45991284Y-19181683D01*
X45991286Y-19181688D01*
X46037430Y-19261612D01*
X48589888Y-21814070D01*
X48617280Y-21829885D01*
X48644672Y-21845700D01*
X48644673Y-21845700D01*
X48669812Y-21860214D01*
X48758956Y-21884100D01*
X49797368Y-21884100D01*
X49855559Y-21903007D01*
X49867371Y-21913096D01*
X49928384Y-21974108D01*
X49928389Y-21974112D01*
X50053911Y-22046582D01*
X50053912Y-22046582D01*
X50053915Y-22046584D01*
X50193925Y-22084100D01*
X50193926Y-22084100D01*
X50338874Y-22084100D01*
X50338875Y-22084100D01*
X50478885Y-22046584D01*
X50478887Y-22046582D01*
X50478889Y-22046582D01*
X50604410Y-21974112D01*
X50604410Y-21974111D01*
X50604415Y-21974109D01*
X50706909Y-21871615D01*
X50712901Y-21861237D01*
X50779382Y-21746089D01*
X50779382Y-21746087D01*
X50779384Y-21746085D01*
X50816900Y-21606075D01*
X50816900Y-21461125D01*
X50779384Y-21321115D01*
X50779382Y-21321112D01*
X50779382Y-21321110D01*
X50706912Y-21195589D01*
X50706910Y-21195587D01*
X50706909Y-21195585D01*
X50604415Y-21093091D01*
X50604412Y-21093089D01*
X50604410Y-21093087D01*
X50478888Y-21020617D01*
X50478889Y-21020617D01*
X50378505Y-20993719D01*
X50338875Y-20983100D01*
X50193925Y-20983100D01*
X50154295Y-20993719D01*
X50053910Y-21020617D01*
X49928389Y-21093087D01*
X49928384Y-21093091D01*
X49867371Y-21154104D01*
X49812854Y-21181881D01*
X49797368Y-21183100D01*
X49334668Y-21183100D01*
X49276477Y-21164193D01*
X49240513Y-21114693D01*
X49240513Y-21053507D01*
X49248931Y-21034600D01*
X49263331Y-21009657D01*
X49324284Y-20904085D01*
X49361800Y-20764075D01*
X49361800Y-20619125D01*
X49324284Y-20479115D01*
X49324282Y-20479112D01*
X49324282Y-20479110D01*
X49251812Y-20353589D01*
X49251810Y-20353587D01*
X49251809Y-20353585D01*
X49149315Y-20251091D01*
X49149312Y-20251089D01*
X49149310Y-20251087D01*
X49023788Y-20178617D01*
X49023789Y-20178617D01*
X48961718Y-20161985D01*
X48883775Y-20141100D01*
X48883774Y-20141100D01*
X48797490Y-20141100D01*
X48739299Y-20122193D01*
X48727486Y-20112104D01*
X47172996Y-18557614D01*
X47145219Y-18503097D01*
X47144000Y-18487610D01*
X47144000Y-16553190D01*
X47162907Y-16494999D01*
X47212407Y-16459035D01*
X47273593Y-16459035D01*
X47313004Y-16483186D01*
X48628804Y-17798986D01*
X48656581Y-17853503D01*
X48657800Y-17868990D01*
X48657800Y-17955275D01*
X48677640Y-18029317D01*
X48695317Y-18095289D01*
X48767787Y-18220810D01*
X48767789Y-18220812D01*
X48767791Y-18220815D01*
X48870285Y-18323309D01*
X48870287Y-18323310D01*
X48870289Y-18323312D01*
X48995811Y-18395782D01*
X48995812Y-18395782D01*
X48995815Y-18395784D01*
X49135825Y-18433300D01*
X49135826Y-18433300D01*
X49280774Y-18433300D01*
X49280775Y-18433300D01*
X49420785Y-18395784D01*
X49420787Y-18395782D01*
X49420789Y-18395782D01*
X49546310Y-18323312D01*
X49546310Y-18323311D01*
X49546315Y-18323309D01*
X49648809Y-18220815D01*
X49651292Y-18216514D01*
X49721282Y-18095289D01*
X49721282Y-18095287D01*
X49721284Y-18095285D01*
X49758800Y-17955275D01*
X49758800Y-17810325D01*
X49721284Y-17670315D01*
X49721282Y-17670312D01*
X49721282Y-17670310D01*
X49648812Y-17544789D01*
X49648810Y-17544787D01*
X49648809Y-17544785D01*
X49546315Y-17442291D01*
X49546312Y-17442289D01*
X49546310Y-17442287D01*
X49420788Y-17369817D01*
X49420789Y-17369817D01*
X49340472Y-17348296D01*
X49280775Y-17332300D01*
X49280774Y-17332300D01*
X49194490Y-17332300D01*
X49136299Y-17313393D01*
X49124486Y-17303304D01*
X48935986Y-17114804D01*
X48908209Y-17060287D01*
X48917780Y-16999855D01*
X48961045Y-16956590D01*
X49005990Y-16945800D01*
X49086374Y-16945800D01*
X49086375Y-16945800D01*
X49226385Y-16908284D01*
X49226387Y-16908282D01*
X49226389Y-16908282D01*
X49319672Y-16854425D01*
X49379520Y-16841703D01*
X49435416Y-16866589D01*
X49439176Y-16870157D01*
X52199604Y-19630585D01*
X52227381Y-19685102D01*
X52228600Y-19700589D01*
X52228600Y-19786875D01*
X52240403Y-19830925D01*
X52266117Y-19926889D01*
X52338587Y-20052410D01*
X52338589Y-20052412D01*
X52338591Y-20052415D01*
X52441085Y-20154909D01*
X52441087Y-20154910D01*
X52441089Y-20154912D01*
X52566611Y-20227382D01*
X52566612Y-20227382D01*
X52566615Y-20227384D01*
X52706625Y-20264900D01*
X52706626Y-20264900D01*
X52851574Y-20264900D01*
X52851575Y-20264900D01*
X52991585Y-20227384D01*
X52991587Y-20227382D01*
X52991589Y-20227382D01*
X53117110Y-20154912D01*
X53117110Y-20154911D01*
X53117115Y-20154909D01*
X53219609Y-20052415D01*
X53239088Y-20018677D01*
X53292082Y-19926889D01*
X53292082Y-19926887D01*
X53292084Y-19926885D01*
X53329600Y-19786875D01*
X53329600Y-19641925D01*
X53292084Y-19501915D01*
X53292082Y-19501912D01*
X53292082Y-19501910D01*
X53219612Y-19376389D01*
X53219610Y-19376387D01*
X53219609Y-19376385D01*
X53117115Y-19273891D01*
X53117112Y-19273889D01*
X53117110Y-19273887D01*
X52991588Y-19201417D01*
X52991589Y-19201417D01*
X52917930Y-19181680D01*
X52851575Y-19163900D01*
X52851574Y-19163900D01*
X52765289Y-19163900D01*
X52707098Y-19144993D01*
X52695285Y-19134904D01*
X51569106Y-18008725D01*
X53243600Y-18008725D01*
X53243600Y-18153675D01*
X53252668Y-18187518D01*
X53281117Y-18293689D01*
X53353587Y-18419210D01*
X53353589Y-18419212D01*
X53353591Y-18419215D01*
X53456085Y-18521709D01*
X53456087Y-18521710D01*
X53456089Y-18521712D01*
X53581611Y-18594182D01*
X53581612Y-18594182D01*
X53581615Y-18594184D01*
X53721625Y-18631700D01*
X53721626Y-18631700D01*
X53866574Y-18631700D01*
X53866575Y-18631700D01*
X54006585Y-18594184D01*
X54006587Y-18594182D01*
X54006589Y-18594182D01*
X54132110Y-18521712D01*
X54132110Y-18521711D01*
X54132115Y-18521709D01*
X54234609Y-18419215D01*
X54234612Y-18419210D01*
X54307082Y-18293689D01*
X54307082Y-18293687D01*
X54307084Y-18293685D01*
X54344600Y-18153675D01*
X54344600Y-18008725D01*
X54307084Y-17868715D01*
X54307082Y-17868712D01*
X54307082Y-17868710D01*
X54234612Y-17743189D01*
X54234610Y-17743187D01*
X54234609Y-17743185D01*
X54132115Y-17640691D01*
X54132112Y-17640689D01*
X54132110Y-17640687D01*
X54006588Y-17568217D01*
X54006589Y-17568217D01*
X53976996Y-17560287D01*
X53866575Y-17530700D01*
X53721625Y-17530700D01*
X53702704Y-17535770D01*
X53581610Y-17568217D01*
X53456089Y-17640687D01*
X53353587Y-17743189D01*
X53281117Y-17868710D01*
X53252873Y-17974117D01*
X53243600Y-18008725D01*
X51569106Y-18008725D01*
X51201068Y-17640687D01*
X49675212Y-16114830D01*
X49595288Y-16068686D01*
X49595285Y-16068685D01*
X49583324Y-16065479D01*
X49583324Y-16065480D01*
X49531201Y-16051514D01*
X49506144Y-16044800D01*
X49506143Y-16044800D01*
X49482932Y-16044800D01*
X49424741Y-16025893D01*
X49412929Y-16015804D01*
X49351915Y-15954791D01*
X49351910Y-15954787D01*
X49226388Y-15882317D01*
X49226389Y-15882317D01*
X49193252Y-15873438D01*
X49086375Y-15844800D01*
X48941425Y-15844800D01*
X48899974Y-15855907D01*
X48801410Y-15882317D01*
X48675889Y-15954787D01*
X48573387Y-16057289D01*
X48500917Y-16182810D01*
X48463400Y-16322825D01*
X48463400Y-16403210D01*
X48444493Y-16461401D01*
X48394993Y-16497365D01*
X48333807Y-16497365D01*
X48294396Y-16473214D01*
X46735296Y-14914114D01*
X46707519Y-14859597D01*
X46706300Y-14844110D01*
X46706300Y-12673831D01*
X46725207Y-12615640D01*
X46774707Y-12579676D01*
X46835893Y-12579676D01*
X46875301Y-12603825D01*
X46948285Y-12676809D01*
X46948287Y-12676810D01*
X46948289Y-12676812D01*
X47073811Y-12749282D01*
X47073812Y-12749282D01*
X47073815Y-12749284D01*
X47213825Y-12786800D01*
X47213826Y-12786800D01*
X47358774Y-12786800D01*
X47358775Y-12786800D01*
X47498785Y-12749284D01*
X47498787Y-12749282D01*
X47498789Y-12749282D01*
X47624310Y-12676812D01*
X47624310Y-12676811D01*
X47624315Y-12676809D01*
X47726809Y-12574315D01*
X47762455Y-12512575D01*
X47799282Y-12448789D01*
X47799282Y-12448787D01*
X47799284Y-12448785D01*
X47836800Y-12308775D01*
X47836800Y-12163825D01*
X47799284Y-12023815D01*
X47799282Y-12023812D01*
X47799282Y-12023810D01*
X47726812Y-11898289D01*
X47726810Y-11898287D01*
X47726809Y-11898285D01*
X47624315Y-11795791D01*
X47624312Y-11795789D01*
X47624310Y-11795787D01*
X47498788Y-11723317D01*
X47498789Y-11723317D01*
X47469196Y-11715387D01*
X47358775Y-11685800D01*
X47213825Y-11685800D01*
X47152090Y-11702341D01*
X47073810Y-11723317D01*
X46948289Y-11795787D01*
X46948288Y-11795788D01*
X46948285Y-11795790D01*
X46948285Y-11795791D01*
X46875301Y-11868774D01*
X46820787Y-11896550D01*
X46760355Y-11886979D01*
X46717090Y-11843714D01*
X46706300Y-11798769D01*
X46706300Y-6290857D01*
X46706300Y-6290856D01*
X46696176Y-6253074D01*
X46696179Y-6206355D01*
X46695853Y-6206312D01*
X46696179Y-6203829D01*
X46696180Y-6201814D01*
X46696700Y-6199874D01*
X46696700Y-6054925D01*
X46678636Y-5987510D01*
X46659184Y-5914915D01*
X46659182Y-5914912D01*
X46659182Y-5914910D01*
X46586712Y-5789389D01*
X46586710Y-5789387D01*
X46586709Y-5789385D01*
X46484215Y-5686891D01*
X46484212Y-5686889D01*
X46484210Y-5686887D01*
X46358688Y-5614417D01*
X46358689Y-5614417D01*
X46329096Y-5606487D01*
X46218675Y-5576900D01*
X46073725Y-5576900D01*
X46011990Y-5593441D01*
X45933710Y-5614417D01*
X45808189Y-5686887D01*
X45705687Y-5789389D01*
X45633217Y-5914910D01*
X45623685Y-5950484D01*
X45595700Y-6054925D01*
X45595700Y-6199875D01*
X45603089Y-6227451D01*
X45633217Y-6339889D01*
X45705687Y-6465410D01*
X45705689Y-6465412D01*
X45705691Y-6465415D01*
X45808185Y-6567909D01*
X45808187Y-6567910D01*
X45808189Y-6567912D01*
X45933711Y-6640382D01*
X45933712Y-6640382D01*
X45933715Y-6640384D01*
X45933717Y-6640384D01*
X45939707Y-6642866D01*
X45939023Y-6644516D01*
X45983233Y-6673222D01*
X46005164Y-6730342D01*
X46005300Y-6735530D01*
X46005300Y-12069925D01*
X45986393Y-12128116D01*
X45936893Y-12164080D01*
X45880677Y-12165552D01*
X45831582Y-12152397D01*
X45803975Y-12145000D01*
X45659025Y-12145000D01*
X45597290Y-12161541D01*
X45519010Y-12182517D01*
X45393489Y-12254987D01*
X45290987Y-12357489D01*
X45218517Y-12483010D01*
X45210595Y-12512575D01*
X45181000Y-12623025D01*
X45181000Y-12767975D01*
X45183716Y-12778110D01*
X45218517Y-12907989D01*
X45290987Y-13033510D01*
X45290989Y-13033512D01*
X45290991Y-13033515D01*
X45352005Y-13094529D01*
X45379781Y-13149044D01*
X45381000Y-13164531D01*
X45381000Y-15021610D01*
X45362093Y-15079801D01*
X45312593Y-15115765D01*
X45251407Y-15115765D01*
X45211996Y-15091614D01*
X44908696Y-14788314D01*
X44880919Y-14733797D01*
X44879700Y-14718310D01*
X44879700Y-6564157D01*
X44879700Y-6564156D01*
X44855814Y-6475012D01*
X44840149Y-6447880D01*
X44809670Y-6395088D01*
X43669112Y-5254530D01*
X43589188Y-5208386D01*
X43500044Y-5184500D01*
X42784056Y-5184500D01*
X42694912Y-5208386D01*
X42614988Y-5254530D01*
X33625214Y-14244304D01*
X33570697Y-14272081D01*
X33555210Y-14273300D01*
X26302385Y-14273300D01*
X26244194Y-14254393D01*
X26208230Y-14204893D01*
X26206758Y-14148677D01*
X26218650Y-14104296D01*
X26237600Y-14033575D01*
X26237600Y-13888625D01*
X26200084Y-13748615D01*
X26200082Y-13748612D01*
X26200082Y-13748610D01*
X26127612Y-13623089D01*
X26127610Y-13623087D01*
X26127609Y-13623085D01*
X26025115Y-13520591D01*
X26025112Y-13520589D01*
X26025110Y-13520587D01*
X25899588Y-13448117D01*
X25899589Y-13448117D01*
X25869996Y-13440187D01*
X25759575Y-13410600D01*
X25614625Y-13410600D01*
X25504203Y-13440187D01*
X25474611Y-13448117D01*
X25413096Y-13483633D01*
X25353248Y-13496354D01*
X25297353Y-13471467D01*
X25293593Y-13467900D01*
X24878541Y-13052848D01*
X24850764Y-12998331D01*
X24860335Y-12937899D01*
X24899047Y-12897107D01*
X24938010Y-12874612D01*
X24938010Y-12874611D01*
X24938015Y-12874609D01*
X25040509Y-12772115D01*
X25053692Y-12749282D01*
X25112982Y-12646589D01*
X25112982Y-12646587D01*
X25112984Y-12646585D01*
X25150500Y-12506575D01*
X25150500Y-12361625D01*
X25112984Y-12221615D01*
X25110848Y-12217916D01*
X25056444Y-12123685D01*
X25043723Y-12063837D01*
X25068610Y-12007941D01*
X25116556Y-11978559D01*
X25174685Y-11962984D01*
X25300215Y-11890509D01*
X25402709Y-11788015D01*
X25410660Y-11774244D01*
X25475182Y-11662489D01*
X25475183Y-11662486D01*
X25475184Y-11662485D01*
X25512700Y-11522475D01*
X25512700Y-11377525D01*
X25475184Y-11237515D01*
X25475182Y-11237512D01*
X25475182Y-11237510D01*
X25402712Y-11111989D01*
X25402710Y-11111987D01*
X25402709Y-11111985D01*
X25300215Y-11009491D01*
X25300212Y-11009489D01*
X25300210Y-11009487D01*
X25174690Y-10937018D01*
X25174687Y-10937017D01*
X25174685Y-10937016D01*
X25072174Y-10909548D01*
X25020862Y-10876224D01*
X24998936Y-10819103D01*
X24998800Y-10813922D01*
X24998800Y-10457689D01*
X25017707Y-10399498D01*
X25027790Y-10387691D01*
X25271056Y-10144425D01*
X34708900Y-10144425D01*
X34708900Y-10289375D01*
X34723863Y-10345216D01*
X34746417Y-10429389D01*
X34818887Y-10554910D01*
X34818889Y-10554912D01*
X34818891Y-10554915D01*
X34921385Y-10657409D01*
X34921387Y-10657410D01*
X34921389Y-10657412D01*
X35046911Y-10729882D01*
X35046912Y-10729882D01*
X35046915Y-10729884D01*
X35186925Y-10767400D01*
X35186926Y-10767400D01*
X35331874Y-10767400D01*
X35331875Y-10767400D01*
X35471885Y-10729884D01*
X35471887Y-10729882D01*
X35471889Y-10729882D01*
X35597410Y-10657412D01*
X35597410Y-10657411D01*
X35597415Y-10657409D01*
X35699909Y-10554915D01*
X35719958Y-10520189D01*
X35772382Y-10429389D01*
X35772382Y-10429387D01*
X35772384Y-10429385D01*
X35809900Y-10289375D01*
X35809900Y-10144425D01*
X35772384Y-10004415D01*
X35772382Y-10004412D01*
X35772382Y-10004410D01*
X35699912Y-9878889D01*
X35699910Y-9878887D01*
X35699909Y-9878885D01*
X35597415Y-9776391D01*
X35597412Y-9776389D01*
X35597410Y-9776387D01*
X35471888Y-9703917D01*
X35471889Y-9703917D01*
X35391240Y-9682307D01*
X35331875Y-9666400D01*
X35186925Y-9666400D01*
X35145720Y-9677441D01*
X35046910Y-9703917D01*
X34921389Y-9776387D01*
X34818887Y-9878889D01*
X34746417Y-10004410D01*
X34732516Y-10056289D01*
X34708900Y-10144425D01*
X25271056Y-10144425D01*
X28052670Y-7362812D01*
X28098814Y-7282888D01*
X28122700Y-7193743D01*
X28122700Y-7101456D01*
X28122700Y-6669131D01*
X28141607Y-6610940D01*
X28151690Y-6599133D01*
X28212809Y-6538015D01*
X28285284Y-6412485D01*
X28322800Y-6272475D01*
X28322800Y-6127525D01*
X28285284Y-5987515D01*
X28285282Y-5987512D01*
X28285282Y-5987510D01*
X28212812Y-5861989D01*
X28212810Y-5861987D01*
X28212809Y-5861985D01*
X28110315Y-5759491D01*
X28110312Y-5759489D01*
X28110310Y-5759487D01*
X27984788Y-5687017D01*
X27984789Y-5687017D01*
X27955196Y-5679087D01*
X27844775Y-5649500D01*
X27699825Y-5649500D01*
X27638090Y-5666041D01*
X27559810Y-5687017D01*
X27434289Y-5759487D01*
X27331787Y-5861989D01*
X27259317Y-5987510D01*
X27259316Y-5987515D01*
X27221800Y-6127525D01*
X27221800Y-6272475D01*
X27236540Y-6327485D01*
X27259317Y-6412489D01*
X27331787Y-6538010D01*
X27331789Y-6538012D01*
X27331791Y-6538015D01*
X27392705Y-6598929D01*
X27420481Y-6653444D01*
X27421700Y-6668931D01*
X27421700Y-6961410D01*
X27402793Y-7019601D01*
X27392704Y-7031414D01*
X24367829Y-10056289D01*
X24345991Y-10094112D01*
X24345992Y-10094113D01*
X24321686Y-10136210D01*
X24297800Y-10225357D01*
X24297800Y-11182243D01*
X24311878Y-11234787D01*
X24321684Y-11271384D01*
X24321685Y-11271386D01*
X24321686Y-11271388D01*
X24367830Y-11351312D01*
X24382705Y-11366187D01*
X24410481Y-11420702D01*
X24411700Y-11436189D01*
X24411700Y-11522474D01*
X24449216Y-11662486D01*
X24505755Y-11760414D01*
X24518476Y-11820263D01*
X24493589Y-11876158D01*
X24445642Y-11905540D01*
X24387515Y-11921115D01*
X24387511Y-11921117D01*
X24261989Y-11993587D01*
X24159489Y-12096087D01*
X24136991Y-12135055D01*
X24091521Y-12175995D01*
X24030671Y-12182390D01*
X23981251Y-12155558D01*
X21536996Y-9711303D01*
X21533369Y-9704185D01*
X21526907Y-9699490D01*
X21519743Y-9677441D01*
X21509219Y-9656786D01*
X21508000Y-9641299D01*
X21508000Y-9536531D01*
X21526907Y-9478340D01*
X21536990Y-9466533D01*
X21548009Y-9455515D01*
X21586190Y-9389382D01*
X21631658Y-9348442D01*
X21692508Y-9342046D01*
X21721426Y-9353146D01*
X21753013Y-9371383D01*
X21753015Y-9371384D01*
X21893025Y-9408900D01*
X21893026Y-9408900D01*
X22037974Y-9408900D01*
X22037975Y-9408900D01*
X22177985Y-9371384D01*
X22177987Y-9371382D01*
X22177989Y-9371382D01*
X22303510Y-9298912D01*
X22303510Y-9298911D01*
X22303515Y-9298909D01*
X22406009Y-9196415D01*
X22406011Y-9196410D01*
X22406013Y-9196409D01*
X22478482Y-9070889D01*
X22478482Y-9070887D01*
X22478484Y-9070885D01*
X22516000Y-8930875D01*
X22516000Y-8785925D01*
X22478484Y-8645915D01*
X22478482Y-8645912D01*
X22478482Y-8645910D01*
X22406012Y-8520389D01*
X22406010Y-8520387D01*
X22406009Y-8520385D01*
X22303515Y-8417891D01*
X22303512Y-8417889D01*
X22303510Y-8417887D01*
X22177988Y-8345417D01*
X22177989Y-8345417D01*
X22087196Y-8321089D01*
X22037975Y-8307900D01*
X22037974Y-8307900D01*
X21951689Y-8307900D01*
X21893498Y-8288993D01*
X21881685Y-8278904D01*
X18811167Y-5208386D01*
X15708212Y-2105430D01*
X15628288Y-2059286D01*
X15539144Y-2035400D01*
X15539142Y-2035400D01*
X6869032Y-2035400D01*
X6810841Y-2016493D01*
X6799029Y-2006404D01*
X6738015Y-1945391D01*
X6738010Y-1945387D01*
X6612488Y-1872917D01*
X6612489Y-1872917D01*
X6567436Y-1860845D01*
X6472475Y-1835400D01*
X6327525Y-1835400D01*
X6265790Y-1851941D01*
X6187510Y-1872917D01*
X6061989Y-1945387D01*
X5959487Y-2047889D01*
X5887017Y-2173410D01*
X5849500Y-2313425D01*
X5849500Y-2458374D01*
X5887017Y-2598389D01*
X5959487Y-2723910D01*
X5959489Y-2723912D01*
X5959491Y-2723915D01*
X6061985Y-2826409D01*
X6061987Y-2826410D01*
X6061989Y-2826412D01*
X6187511Y-2898882D01*
X6187512Y-2898882D01*
X6187515Y-2898884D01*
X6327525Y-2936400D01*
X6327526Y-2936400D01*
X6472474Y-2936400D01*
X6472475Y-2936400D01*
X6612485Y-2898884D01*
X6612487Y-2898882D01*
X6612489Y-2898882D01*
X6738010Y-2826412D01*
X6738010Y-2826411D01*
X6738015Y-2826409D01*
X6768522Y-2795902D01*
X6799029Y-2765396D01*
X6853546Y-2737619D01*
X6869032Y-2736400D01*
X15306810Y-2736400D01*
X15365001Y-2755307D01*
X15376814Y-2765396D01*
X18261407Y-5649989D01*
X21026866Y-8415447D01*
X21054643Y-8469964D01*
X21045072Y-8530396D01*
X21001807Y-8573661D01*
X20982486Y-8581077D01*
X20895015Y-8604515D01*
X20895011Y-8604517D01*
X20769489Y-8676987D01*
X20666987Y-8779489D01*
X20594517Y-8905010D01*
X20565927Y-9011710D01*
X20557000Y-9045025D01*
X20557000Y-9189975D01*
X20592665Y-9323077D01*
X20589463Y-9384178D01*
X20550957Y-9431728D01*
X20497038Y-9447700D01*
X20056206Y-9447700D01*
X20056190Y-9447699D01*
X20050127Y-9447699D01*
X19944673Y-9447699D01*
X19944670Y-9447699D01*
X19842813Y-9474992D01*
X19842809Y-9474994D01*
X19751487Y-9527719D01*
X19676919Y-9602286D01*
X19676920Y-9602287D01*
X10199516Y-19079691D01*
X10146794Y-19171009D01*
X10146792Y-19171015D01*
X10135868Y-19211785D01*
X10135868Y-19211786D01*
X10119500Y-19272873D01*
X10119500Y-20080968D01*
X10100593Y-20139159D01*
X10090506Y-20150969D01*
X10079492Y-20161983D01*
X10079487Y-20161989D01*
X10007017Y-20287510D01*
X9979880Y-20388787D01*
X9969500Y-20427525D01*
X9969500Y-20572475D01*
X9971665Y-20580553D01*
X10007017Y-20712489D01*
X10079487Y-20838010D01*
X10079489Y-20838012D01*
X10079491Y-20838015D01*
X10181985Y-20940509D01*
X10181987Y-20940510D01*
X10181989Y-20940512D01*
X10310597Y-21014764D01*
X10351538Y-21060233D01*
X10357934Y-21121083D01*
X10327341Y-21174071D01*
X10271445Y-21198958D01*
X10261097Y-21199500D01*
X4649000Y-21199500D01*
X4590809Y-21180593D01*
X4554845Y-21131093D01*
X4550000Y-21100500D01*
X4550000Y-16281225D01*
X9451500Y-16281225D01*
X9451500Y-16426175D01*
X9459443Y-16455817D01*
X9489017Y-16566189D01*
X9561487Y-16691710D01*
X9561489Y-16691712D01*
X9561491Y-16691715D01*
X9663985Y-16794209D01*
X9663987Y-16794210D01*
X9663989Y-16794212D01*
X9789511Y-16866682D01*
X9789512Y-16866682D01*
X9789515Y-16866684D01*
X9929525Y-16904200D01*
X9929526Y-16904200D01*
X10074474Y-16904200D01*
X10074475Y-16904200D01*
X10214485Y-16866684D01*
X10214487Y-16866682D01*
X10214489Y-16866682D01*
X10340010Y-16794212D01*
X10340010Y-16794211D01*
X10340015Y-16794209D01*
X10442509Y-16691715D01*
X10482069Y-16623195D01*
X10514982Y-16566189D01*
X10514982Y-16566187D01*
X10514984Y-16566185D01*
X10552500Y-16426175D01*
X10552500Y-16281225D01*
X10514984Y-16141215D01*
X10514982Y-16141212D01*
X10514982Y-16141210D01*
X10442512Y-16015689D01*
X10442510Y-16015687D01*
X10442509Y-16015685D01*
X10340015Y-15913191D01*
X10340012Y-15913189D01*
X10340010Y-15913187D01*
X10214488Y-15840717D01*
X10214489Y-15840717D01*
X10181128Y-15831778D01*
X10074475Y-15803200D01*
X9929525Y-15803200D01*
X9876254Y-15817474D01*
X9789510Y-15840717D01*
X9663989Y-15913187D01*
X9561487Y-16015689D01*
X9489017Y-16141210D01*
X9457728Y-16257982D01*
X9451500Y-16281225D01*
X4550000Y-16281225D01*
X4550000Y-8228625D01*
X17215800Y-8228625D01*
X17215800Y-8373575D01*
X17227020Y-8415447D01*
X17253317Y-8513589D01*
X17325787Y-8639110D01*
X17325789Y-8639112D01*
X17325791Y-8639115D01*
X17428285Y-8741609D01*
X17428287Y-8741610D01*
X17428289Y-8741612D01*
X17553811Y-8814082D01*
X17553812Y-8814082D01*
X17553815Y-8814084D01*
X17693825Y-8851600D01*
X17693826Y-8851600D01*
X17838774Y-8851600D01*
X17838775Y-8851600D01*
X17978785Y-8814084D01*
X17978787Y-8814082D01*
X17978789Y-8814082D01*
X18104310Y-8741612D01*
X18104310Y-8741611D01*
X18104315Y-8741609D01*
X18206809Y-8639115D01*
X18226785Y-8604516D01*
X18279282Y-8513589D01*
X18279282Y-8513587D01*
X18279284Y-8513585D01*
X18316800Y-8373575D01*
X18316800Y-8228625D01*
X18279284Y-8088615D01*
X18279282Y-8088612D01*
X18279282Y-8088610D01*
X18206812Y-7963089D01*
X18206810Y-7963087D01*
X18206809Y-7963085D01*
X18104315Y-7860591D01*
X18104312Y-7860589D01*
X18104310Y-7860587D01*
X17978788Y-7788117D01*
X17978789Y-7788117D01*
X17949196Y-7780187D01*
X17838775Y-7750600D01*
X17693825Y-7750600D01*
X17632090Y-7767141D01*
X17553810Y-7788117D01*
X17428289Y-7860587D01*
X17325787Y-7963089D01*
X17253317Y-8088610D01*
X17223646Y-8199344D01*
X17215800Y-8228625D01*
X4550000Y-8228625D01*
X4550000Y-5365025D01*
X10037000Y-5365025D01*
X10037000Y-5509974D01*
X10074517Y-5649989D01*
X10146987Y-5775510D01*
X10146989Y-5775512D01*
X10146991Y-5775515D01*
X10249485Y-5878009D01*
X10249487Y-5878010D01*
X10249489Y-5878012D01*
X10375011Y-5950482D01*
X10375012Y-5950482D01*
X10375015Y-5950484D01*
X10515025Y-5988000D01*
X10515026Y-5988000D01*
X10659974Y-5988000D01*
X10659975Y-5988000D01*
X10799985Y-5950484D01*
X10799987Y-5950482D01*
X10799989Y-5950482D01*
X10925510Y-5878012D01*
X10925510Y-5878011D01*
X10925515Y-5878009D01*
X11028009Y-5775515D01*
X11028012Y-5775510D01*
X11100482Y-5649989D01*
X11100482Y-5649987D01*
X11100484Y-5649985D01*
X11138000Y-5509975D01*
X11138000Y-5365025D01*
X11100484Y-5225015D01*
X11100482Y-5225012D01*
X11100482Y-5225010D01*
X11028012Y-5099489D01*
X11028010Y-5099487D01*
X11028009Y-5099485D01*
X10925515Y-4996991D01*
X10925512Y-4996989D01*
X10925510Y-4996987D01*
X10799988Y-4924517D01*
X10799989Y-4924517D01*
X10770396Y-4916587D01*
X10659975Y-4887000D01*
X10515025Y-4887000D01*
X10453290Y-4903541D01*
X10375010Y-4924517D01*
X10249489Y-4996987D01*
X10146987Y-5099489D01*
X10074517Y-5225010D01*
X10037000Y-5365025D01*
X4550000Y-5365025D01*
X4550000Y-399500D01*
X4568907Y-341309D01*
X4618407Y-305345D01*
X4649000Y-300500D01*
X19969769Y-300500D01*
X20027960Y-319407D01*
G37*
%TD.AperFunction*%
%TA.AperFunction,Conductor*%
G36*
X39709211Y-20185552D02*
G01*
X39725290Y-20198572D01*
X42057188Y-22530470D01*
X42070416Y-22538107D01*
X42119900Y-22566677D01*
X42119903Y-22566678D01*
X42119906Y-22566680D01*
X42137112Y-22576614D01*
X42226256Y-22600500D01*
X42366468Y-22600500D01*
X42424659Y-22619407D01*
X42436471Y-22629496D01*
X42497484Y-22690508D01*
X42497489Y-22690512D01*
X42623011Y-22762982D01*
X42623012Y-22762982D01*
X42623015Y-22762984D01*
X42763025Y-22800500D01*
X42763026Y-22800500D01*
X42805300Y-22800500D01*
X42863491Y-22819407D01*
X42899455Y-22868907D01*
X42899455Y-22930093D01*
X42891037Y-22949000D01*
X42832716Y-23050013D01*
X42816636Y-23110026D01*
X42795200Y-23190025D01*
X42795200Y-23334975D01*
X42832716Y-23474985D01*
X42832718Y-23474990D01*
X42835200Y-23480980D01*
X42834033Y-23481463D01*
X42845200Y-23523134D01*
X42845200Y-28404812D01*
X42831936Y-28454312D01*
X42791117Y-28525010D01*
X42753600Y-28665025D01*
X42753600Y-28809977D01*
X42757780Y-28825576D01*
X42754579Y-28886678D01*
X42716074Y-28934228D01*
X42662154Y-28950200D01*
X40197690Y-28950200D01*
X40139499Y-28931293D01*
X40127686Y-28921204D01*
X38928557Y-27722075D01*
X38900780Y-27667558D01*
X38910351Y-27607126D01*
X38949065Y-27566332D01*
X38955515Y-27562609D01*
X39058009Y-27460115D01*
X39108942Y-27371897D01*
X39130482Y-27334589D01*
X39130482Y-27334587D01*
X39130484Y-27334585D01*
X39168000Y-27194575D01*
X39168000Y-27108289D01*
X39186907Y-27050098D01*
X39196990Y-27038291D01*
X39318570Y-26916712D01*
X39364714Y-26836788D01*
X39364994Y-26835744D01*
X39388600Y-26747644D01*
X39388600Y-20531531D01*
X39407507Y-20473340D01*
X39417590Y-20461533D01*
X39478609Y-20400515D01*
X39481109Y-20396185D01*
X39551082Y-20274989D01*
X39551082Y-20274987D01*
X39551084Y-20274985D01*
X39559666Y-20242956D01*
X39592989Y-20191644D01*
X39650110Y-20169717D01*
X39709211Y-20185552D01*
G37*
%TD.AperFunction*%
%TA.AperFunction,Conductor*%
G36*
X36214391Y-20949107D02*
G01*
X36250355Y-20998607D01*
X36255200Y-21029200D01*
X36255200Y-21709344D01*
X36268655Y-21759557D01*
X36274002Y-21779513D01*
X36274002Y-21779515D01*
X36279083Y-21798482D01*
X36279084Y-21798484D01*
X36279085Y-21798487D01*
X36279086Y-21798488D01*
X36325230Y-21878412D01*
X36620005Y-22173187D01*
X36647781Y-22227702D01*
X36649000Y-22243189D01*
X36649000Y-22329474D01*
X36686517Y-22469489D01*
X36758987Y-22595010D01*
X36758989Y-22595012D01*
X36758991Y-22595015D01*
X36861485Y-22697509D01*
X36906355Y-22723415D01*
X36910033Y-22725538D01*
X36950975Y-22771007D01*
X36957371Y-22831858D01*
X36930538Y-22881278D01*
X36590929Y-23220888D01*
X36561198Y-23272385D01*
X36561198Y-23272386D01*
X36544787Y-23300809D01*
X36544786Y-23300811D01*
X36544786Y-23300812D01*
X36535633Y-23334974D01*
X36520900Y-23389957D01*
X36520900Y-24460733D01*
X36501993Y-24518924D01*
X36452493Y-24554888D01*
X36396278Y-24556360D01*
X36370675Y-24549500D01*
X36225725Y-24549500D01*
X36219236Y-24549500D01*
X36219236Y-24546338D01*
X36171736Y-24537520D01*
X36129632Y-24493126D01*
X36120000Y-24450531D01*
X36120000Y-24345001D01*
X36119999Y-24345000D01*
X35620000Y-24345000D01*
X35620000Y-23995000D01*
X36119999Y-23995000D01*
X36120000Y-23994999D01*
X36120000Y-23541207D01*
X36119999Y-23541204D01*
X36089257Y-23386650D01*
X36028951Y-23241059D01*
X36028947Y-23241050D01*
X35941400Y-23110030D01*
X35941397Y-23110026D01*
X35829973Y-22998602D01*
X35829969Y-22998599D01*
X35698949Y-22911052D01*
X35698940Y-22911048D01*
X35553354Y-22850744D01*
X35553348Y-22850742D01*
X35495000Y-22839136D01*
X35495000Y-23374625D01*
X35435796Y-23340444D01*
X35359496Y-23320000D01*
X35280504Y-23320000D01*
X35204204Y-23340444D01*
X35145000Y-23374625D01*
X35145000Y-22839136D01*
X35086651Y-22850742D01*
X35086645Y-22850744D01*
X34941059Y-22911048D01*
X34941050Y-22911052D01*
X34810030Y-22998599D01*
X34810026Y-22998602D01*
X34698602Y-23110026D01*
X34698599Y-23110030D01*
X34611052Y-23241050D01*
X34611048Y-23241059D01*
X34550742Y-23386650D01*
X34520000Y-23541204D01*
X34520000Y-23994999D01*
X34520001Y-23995000D01*
X35020000Y-23995000D01*
X35020000Y-24345000D01*
X34520001Y-24345000D01*
X34520000Y-24345001D01*
X34520000Y-24370718D01*
X34501093Y-24428909D01*
X34451593Y-24464873D01*
X34390407Y-24464873D01*
X34340907Y-24428909D01*
X34335264Y-24420218D01*
X34312575Y-24380920D01*
X34310505Y-24377335D01*
X34212665Y-24279495D01*
X34092836Y-24210312D01*
X33959183Y-24174500D01*
X33820817Y-24174500D01*
X33687164Y-24210312D01*
X33567335Y-24279495D01*
X33469489Y-24377341D01*
X33465546Y-24382481D01*
X33463512Y-24380920D01*
X33426168Y-24414522D01*
X33365315Y-24420895D01*
X33312338Y-24390283D01*
X33290309Y-24349693D01*
X33262984Y-24247715D01*
X33262982Y-24247712D01*
X33262982Y-24247710D01*
X33190512Y-24122189D01*
X33190510Y-24122187D01*
X33190509Y-24122185D01*
X33088015Y-24019691D01*
X33088012Y-24019689D01*
X33088010Y-24019687D01*
X32962488Y-23947217D01*
X32962489Y-23947217D01*
X32932896Y-23939287D01*
X32822475Y-23909700D01*
X32677525Y-23909700D01*
X32644622Y-23918516D01*
X32583521Y-23915313D01*
X32535971Y-23876808D01*
X32520000Y-23822889D01*
X32520000Y-22618160D01*
X32538907Y-22559969D01*
X32588407Y-22524005D01*
X32644622Y-22522533D01*
X32665025Y-22528000D01*
X32665026Y-22528000D01*
X32809974Y-22528000D01*
X32809975Y-22528000D01*
X32949985Y-22490484D01*
X32949987Y-22490482D01*
X32949989Y-22490482D01*
X33075510Y-22418012D01*
X33075510Y-22418011D01*
X33075515Y-22418009D01*
X33178009Y-22315515D01*
X33243442Y-22202182D01*
X33250482Y-22189989D01*
X33250482Y-22189987D01*
X33250484Y-22189985D01*
X33288000Y-22049975D01*
X33288000Y-21905025D01*
X33250484Y-21765015D01*
X33250482Y-21765012D01*
X33250482Y-21765010D01*
X33178012Y-21639489D01*
X33178010Y-21639487D01*
X33178009Y-21639485D01*
X33075515Y-21536991D01*
X33075512Y-21536989D01*
X33075510Y-21536987D01*
X32949988Y-21464517D01*
X32949989Y-21464517D01*
X32855158Y-21439107D01*
X32809975Y-21427000D01*
X32665025Y-21427000D01*
X32525015Y-21464516D01*
X32525014Y-21464516D01*
X32525012Y-21464517D01*
X32480790Y-21490049D01*
X32439762Y-21513736D01*
X32390264Y-21527000D01*
X32051891Y-21527000D01*
X32032557Y-21532180D01*
X31967003Y-21549745D01*
X31966984Y-21549750D01*
X31964909Y-21550307D01*
X31937313Y-21557701D01*
X31931870Y-21560842D01*
X31921554Y-21564102D01*
X31909276Y-21564001D01*
X31891735Y-21568700D01*
X30454660Y-21568700D01*
X30396469Y-21549793D01*
X30360505Y-21500293D01*
X30360505Y-21439107D01*
X30368924Y-21420200D01*
X30412982Y-21343889D01*
X30412982Y-21343887D01*
X30412984Y-21343885D01*
X30450500Y-21203875D01*
X30450500Y-21058925D01*
X30450500Y-21058924D01*
X30450499Y-21058919D01*
X30449401Y-21054820D01*
X30452605Y-20993719D01*
X30491111Y-20946170D01*
X30545028Y-20930200D01*
X36156200Y-20930200D01*
X36214391Y-20949107D01*
G37*
%TD.AperFunction*%
%TA.AperFunction,Conductor*%
G36*
X32588201Y-16495707D02*
G01*
X32624165Y-16545207D01*
X32624165Y-16606393D01*
X32600014Y-16645804D01*
X29131514Y-20114304D01*
X29124396Y-20117930D01*
X29119701Y-20124393D01*
X29097652Y-20131556D01*
X29076997Y-20142081D01*
X29061510Y-20143300D01*
X28965758Y-20143300D01*
X28907567Y-20124393D01*
X28871603Y-20074893D01*
X28870131Y-20018677D01*
X28875729Y-19997785D01*
X28881600Y-19975875D01*
X28881600Y-19830925D01*
X28844084Y-19690915D01*
X28844082Y-19690912D01*
X28844082Y-19690910D01*
X28771612Y-19565389D01*
X28771610Y-19565387D01*
X28771609Y-19565385D01*
X28669115Y-19462891D01*
X28669112Y-19462889D01*
X28669110Y-19462887D01*
X28543588Y-19390417D01*
X28543589Y-19390417D01*
X28491221Y-19376385D01*
X28403575Y-19352900D01*
X28258625Y-19352900D01*
X28196890Y-19369441D01*
X28118610Y-19390417D01*
X27993089Y-19462887D01*
X27993084Y-19462891D01*
X27932071Y-19523904D01*
X27877554Y-19551681D01*
X27862068Y-19552900D01*
X26447990Y-19552900D01*
X26389799Y-19533993D01*
X26377986Y-19523904D01*
X25915886Y-19061804D01*
X25888109Y-19007287D01*
X25897680Y-18946855D01*
X25940945Y-18903590D01*
X25985890Y-18892800D01*
X27647668Y-18892800D01*
X27705859Y-18911707D01*
X27717671Y-18921796D01*
X27778684Y-18982808D01*
X27778689Y-18982812D01*
X27904211Y-19055282D01*
X27904212Y-19055282D01*
X27904215Y-19055284D01*
X28044225Y-19092800D01*
X28044226Y-19092800D01*
X28189174Y-19092800D01*
X28189175Y-19092800D01*
X28329185Y-19055284D01*
X28329187Y-19055282D01*
X28329189Y-19055282D01*
X28454710Y-18982812D01*
X28454710Y-18982811D01*
X28454715Y-18982809D01*
X28557209Y-18880315D01*
X28614093Y-18781789D01*
X28629682Y-18754789D01*
X28629682Y-18754787D01*
X28629684Y-18754785D01*
X28667200Y-18614775D01*
X28667200Y-18469825D01*
X28629684Y-18329815D01*
X28629682Y-18329812D01*
X28629682Y-18329810D01*
X28557212Y-18204289D01*
X28557210Y-18204287D01*
X28557209Y-18204285D01*
X28454715Y-18101791D01*
X28454712Y-18101789D01*
X28454710Y-18101787D01*
X28329188Y-18029317D01*
X28329189Y-18029317D01*
X28252339Y-18008725D01*
X28189175Y-17991800D01*
X28044225Y-17991800D01*
X27982490Y-18008341D01*
X27904210Y-18029317D01*
X27778689Y-18101787D01*
X27778684Y-18101791D01*
X27717671Y-18162804D01*
X27663154Y-18190581D01*
X27647668Y-18191800D01*
X25949590Y-18191800D01*
X25891399Y-18172893D01*
X25879586Y-18162804D01*
X24362586Y-16645804D01*
X24334809Y-16591287D01*
X24344380Y-16530855D01*
X24387645Y-16487590D01*
X24432590Y-16476800D01*
X32530010Y-16476800D01*
X32588201Y-16495707D01*
G37*
%TD.AperFunction*%
%TA.AperFunction,Conductor*%
G36*
X40216601Y-17069407D02*
G01*
X40228414Y-17079496D01*
X41303025Y-18154107D01*
X42253215Y-19104296D01*
X42280992Y-19158813D01*
X42271421Y-19219245D01*
X42228156Y-19262510D01*
X42183211Y-19273300D01*
X40754022Y-19273300D01*
X40695831Y-19254393D01*
X40684018Y-19244304D01*
X38659218Y-17219504D01*
X38631441Y-17164987D01*
X38641012Y-17104555D01*
X38684277Y-17061290D01*
X38729222Y-17050500D01*
X40158410Y-17050500D01*
X40216601Y-17069407D01*
G37*
%TD.AperFunction*%
%TA.AperFunction,Conductor*%
G36*
X16792945Y-14870878D02*
G01*
X16833736Y-14909587D01*
X16857441Y-14950644D01*
X16863891Y-14961815D01*
X16966385Y-15064309D01*
X16966387Y-15064310D01*
X16966389Y-15064312D01*
X17091911Y-15136782D01*
X17091912Y-15136782D01*
X17091915Y-15136784D01*
X17231925Y-15174300D01*
X17231926Y-15174300D01*
X17376874Y-15174300D01*
X17376875Y-15174300D01*
X17516885Y-15136784D01*
X17516887Y-15136782D01*
X17516889Y-15136782D01*
X17642410Y-15064312D01*
X17642410Y-15064311D01*
X17642415Y-15064309D01*
X17686714Y-15020010D01*
X17703429Y-15003296D01*
X17757946Y-14975519D01*
X17773432Y-14974300D01*
X32072069Y-14974300D01*
X32130260Y-14993207D01*
X32166224Y-15042707D01*
X32166224Y-15103893D01*
X32142074Y-15143301D01*
X32124932Y-15160444D01*
X32117688Y-15167688D01*
X32117687Y-15167689D01*
X32045217Y-15293210D01*
X32007700Y-15433225D01*
X32007700Y-15578174D01*
X32027261Y-15651177D01*
X32024058Y-15712278D01*
X31985553Y-15759828D01*
X31931634Y-15775800D01*
X24118590Y-15775800D01*
X24060399Y-15756893D01*
X24048587Y-15746804D01*
X23797414Y-15495632D01*
X23797412Y-15495630D01*
X23717488Y-15449486D01*
X23628344Y-15425600D01*
X22316856Y-15425600D01*
X22227712Y-15449486D01*
X22227711Y-15449486D01*
X22227709Y-15449487D01*
X22147789Y-15495629D01*
X22147787Y-15495631D01*
X21695373Y-15948044D01*
X21640857Y-15975821D01*
X21580425Y-15966250D01*
X21539634Y-15927541D01*
X21502709Y-15863585D01*
X21400215Y-15761091D01*
X21400212Y-15761089D01*
X21400210Y-15761087D01*
X21274688Y-15688617D01*
X21274689Y-15688617D01*
X21193637Y-15666899D01*
X21134675Y-15651100D01*
X20989725Y-15651100D01*
X20930763Y-15666899D01*
X20849710Y-15688617D01*
X20724189Y-15761087D01*
X20621687Y-15863589D01*
X20549217Y-15989110D01*
X20515530Y-16114830D01*
X20511700Y-16129125D01*
X20511700Y-16274075D01*
X20517441Y-16295500D01*
X20525634Y-16326077D01*
X20522431Y-16387179D01*
X20483926Y-16434728D01*
X20430007Y-16450700D01*
X16298886Y-16450700D01*
X16240695Y-16431793D01*
X16213149Y-16401199D01*
X16190510Y-16361987D01*
X16190509Y-16361985D01*
X16088015Y-16259491D01*
X16088012Y-16259489D01*
X16088010Y-16259487D01*
X15962488Y-16187017D01*
X15962489Y-16187017D01*
X15932896Y-16179087D01*
X15822475Y-16149500D01*
X15677525Y-16149500D01*
X15671091Y-16150347D01*
X15670858Y-16148578D01*
X15618207Y-16145812D01*
X15570662Y-16107302D01*
X15554832Y-16048200D01*
X15576766Y-15991081D01*
X15583682Y-15983398D01*
X16677998Y-14889082D01*
X16732513Y-14861307D01*
X16792945Y-14870878D01*
G37*
%TD.AperFunction*%
%TA.AperFunction,Conductor*%
G36*
X40801545Y-8156079D02*
G01*
X40844810Y-8199344D01*
X40855600Y-8244289D01*
X40855600Y-15788500D01*
X40850755Y-15803411D01*
X40850755Y-15819093D01*
X40841538Y-15831778D01*
X40836693Y-15846691D01*
X40824007Y-15855907D01*
X40814791Y-15868593D01*
X40799878Y-15873438D01*
X40787193Y-15882655D01*
X40756600Y-15887500D01*
X40691193Y-15887500D01*
X40633002Y-15868593D01*
X40597038Y-15819093D01*
X40595567Y-15762876D01*
X40598299Y-15752677D01*
X40598300Y-15752675D01*
X40598300Y-15607725D01*
X40578147Y-15532515D01*
X40560784Y-15467715D01*
X40560782Y-15467712D01*
X40560782Y-15467710D01*
X40488312Y-15342189D01*
X40488310Y-15342187D01*
X40488309Y-15342185D01*
X40385815Y-15239691D01*
X40385812Y-15239689D01*
X40385810Y-15239687D01*
X40260288Y-15167217D01*
X40260289Y-15167217D01*
X40171045Y-15143304D01*
X40120275Y-15129700D01*
X39975325Y-15129700D01*
X39924555Y-15143304D01*
X39835310Y-15167217D01*
X39709789Y-15239687D01*
X39709788Y-15239688D01*
X39709785Y-15239690D01*
X39709785Y-15239691D01*
X39698770Y-15250705D01*
X39644256Y-15278481D01*
X39628769Y-15279700D01*
X33120538Y-15279700D01*
X33105111Y-15274687D01*
X33088892Y-15274506D01*
X33078596Y-15266072D01*
X33062347Y-15260793D01*
X33039798Y-15237990D01*
X33037123Y-15234220D01*
X32998709Y-15167685D01*
X32968420Y-15137396D01*
X32963591Y-15130590D01*
X32956832Y-15108968D01*
X32946550Y-15088787D01*
X32947886Y-15080347D01*
X32945337Y-15072191D01*
X32952577Y-15050727D01*
X32956121Y-15028355D01*
X32962163Y-15022312D01*
X32964895Y-15014216D01*
X32983366Y-15001109D01*
X32999386Y-14985090D01*
X33009295Y-14982710D01*
X33014795Y-14978809D01*
X33025069Y-14978924D01*
X33044331Y-14974300D01*
X33787542Y-14974300D01*
X33787544Y-14974300D01*
X33876688Y-14950414D01*
X33887312Y-14944280D01*
X33956612Y-14904270D01*
X40686596Y-8174284D01*
X40741113Y-8146508D01*
X40801545Y-8156079D01*
G37*
%TD.AperFunction*%
%TD*%
M02*
