M48
; DRILL file {KiCad 9.0.5} date 2026-09-28T20:30:06+0100
; FORMAT={-:-/ absolute / metric / decimal}
; #@! TF.CreationDate,2026-09-28T20:30:06+01:00
; #@! TF.GenerationSoftware,Kicad,Pcbnew,9.0.5
; #@! TF.FileFunction,MixedPlating,1,4
FMAT,2
METRIC
; #@! TA.AperFunction,Plated,PTH,ViaDrill
T1C0.200
; #@! TA.AperFunction,Plated,PTH,ViaDrill
T2C0.300
; #@! TA.AperFunction,Plated,PTH,ComponentDrill
T3C0.600
; #@! TA.AperFunction,NonPlated,NPTH,ComponentDrill
T4C0.650
; #@! TA.AperFunction,NonPlated,NPTH,ComponentDrill
T5C0.850
; #@! TA.AperFunction,NonPlated,NPTH,ComponentDrill
T6C2.200
%
G90
G05
T1
X11.525Y-7.675
X11.525Y-9.325
X13.175Y-7.675
X13.175Y-9.325
X40.1Y-21.1
X40.9Y-21.9
T2
X6.2Y-30.0
X6.4Y-2.386
X6.4Y-25.6
X7.2Y-29.4
X8.886Y-17.193
X10.002Y-16.354
X10.52Y-20.5
X10.588Y-5.438
X10.6Y-24.5
X11.66Y-24.36
X14.355Y-16.354
X15.75Y-16.7
X16.6Y-17.9
X16.8Y-24.6
X17.304Y-14.624
X17.766Y-8.301
X20.213Y-10.858
X20.439Y-0.848
X20.7Y-15.5
X21.062Y-16.202
X21.107Y-9.117
X21.965Y-8.858
X22.299Y-12.44
X23.06Y-16.701
X24.0Y-8.6
X24.6Y-12.434
X24.763Y-8.438
X24.962Y-11.45
X25.2Y-10.5
X25.687Y-13.961
X26.9Y-4.04
X26.9Y-6.58
X27.772Y-6.2
X28.117Y-18.542
X28.331Y-19.903
X28.711Y-22.019
X28.8Y-19.2
X29.718Y-24.432
X29.9Y-21.131
X31.98Y-6.58
X31.98Y-9.12
X32.558Y-15.506
X32.737Y-21.977
X32.75Y-24.46
X34.825Y-21.325
X34.91Y-18.487
X35.259Y-10.217
X36.298Y-25.1
X36.299Y-17.031
X36.3Y-8.0
X36.607Y-18.569
X36.822Y-29.818
X37.2Y-22.257
X37.5Y-26.79
X37.602Y-28.7
X38.04Y-21.177
X38.061Y-22.246
X38.268Y-20.336
X38.411Y-23.805
X38.548Y-19.458
X38.617Y-27.122
X39.038Y-20.062
X39.6Y-11.66
X39.7Y-17.3
X40.048Y-15.68
X40.452Y-13.442
X41.25Y-24.0
X41.606Y-17.1
X42.14Y-1.5
X42.14Y-4.04
X42.14Y-24.36
X42.242Y-11.321
X42.808Y-8.659
X42.835Y-22.25
X42.864Y-20.734
X43.098Y-18.629
X43.176Y-6.115
X43.304Y-28.737
X43.311Y-16.489
X43.346Y-23.262
X43.514Y-20.32
X44.68Y-1.5
X44.68Y-4.04
X44.68Y-29.44
X45.298Y-20.028
X45.529Y-16.969
X45.731Y-12.695
X46.146Y-6.127
X46.796Y-3.932
X47.0Y-8.1
X47.22Y-1.5
X47.286Y-12.236
X48.811Y-20.692
X49.014Y-16.395
X49.208Y-17.883
X50.266Y-21.534
X52.779Y-19.714
X53.4Y-15.745
X53.633Y-8.674
X53.794Y-18.081
T4
X28.11Y-24.7
X33.89Y-24.7
T5
X29.5Y-1.8
X32.5Y-1.8
T6
X23.0Y-2.6
X38.5Y-2.9
T3
X26.68Y-23.62G85X26.68Y-24.72
G05
X26.68Y-28.05G85X26.68Y-28.65
G05
X35.32Y-23.62G85X35.32Y-24.72
G05
X35.32Y-28.05G85X35.32Y-28.65
G05
M30
