%TF.GenerationSoftware,KiCad,Pcbnew,9.0.5*%
%TF.CreationDate,2026-09-28T20:30:06+01:00*%
%TF.ProjectId,phone_board_mems,70686f6e-655f-4626-9f61-72645f6d656d,rev?*%
%TF.SameCoordinates,Original*%
%TF.FileFunction,Legend,Bot*%
%TF.FilePolarity,Positive*%
%FSLAX46Y46*%
G04 Gerber Fmt 4.6, Leading zero omitted, Abs format (unit mm)*
G04 Created by KiCad (PCBNEW 9.0.5) date 2026-09-28 20:30:06*
%MOMM*%
%LPD*%
G01*
G04 APERTURE LIST*
%ADD10C,0.150000*%
%ADD11C,0.850000*%
%ADD12C,0.650000*%
%ADD13O,1.000000X2.100000*%
%ADD14O,1.000000X1.600000*%
%ADD15C,2.200000*%
G04 APERTURE END LIST*
D10*
X39976192Y-14859580D02*
X40023811Y-14907200D01*
X40023811Y-14907200D02*
X40166668Y-14954819D01*
X40166668Y-14954819D02*
X40261906Y-14954819D01*
X40261906Y-14954819D02*
X40404763Y-14907200D01*
X40404763Y-14907200D02*
X40500001Y-14811961D01*
X40500001Y-14811961D02*
X40547620Y-14716723D01*
X40547620Y-14716723D02*
X40595239Y-14526247D01*
X40595239Y-14526247D02*
X40595239Y-14383390D01*
X40595239Y-14383390D02*
X40547620Y-14192914D01*
X40547620Y-14192914D02*
X40500001Y-14097676D01*
X40500001Y-14097676D02*
X40404763Y-14002438D01*
X40404763Y-14002438D02*
X40261906Y-13954819D01*
X40261906Y-13954819D02*
X40166668Y-13954819D01*
X40166668Y-13954819D02*
X40023811Y-14002438D01*
X40023811Y-14002438D02*
X39976192Y-14050057D01*
X39547620Y-14954819D02*
X39547620Y-13954819D01*
X39547620Y-14431009D02*
X38976192Y-14431009D01*
X38976192Y-14954819D02*
X38976192Y-13954819D01*
X38071430Y-14288152D02*
X38071430Y-14954819D01*
X38309525Y-13907200D02*
X38547620Y-14621485D01*
X38547620Y-14621485D02*
X37928573Y-14621485D01*
X36357144Y-14954819D02*
X36357144Y-13954819D01*
X36357144Y-14907200D02*
X36452382Y-14954819D01*
X36452382Y-14954819D02*
X36642858Y-14954819D01*
X36642858Y-14954819D02*
X36738096Y-14907200D01*
X36738096Y-14907200D02*
X36785715Y-14859580D01*
X36785715Y-14859580D02*
X36833334Y-14764342D01*
X36833334Y-14764342D02*
X36833334Y-14478628D01*
X36833334Y-14478628D02*
X36785715Y-14383390D01*
X36785715Y-14383390D02*
X36738096Y-14335771D01*
X36738096Y-14335771D02*
X36642858Y-14288152D01*
X36642858Y-14288152D02*
X36452382Y-14288152D01*
X36452382Y-14288152D02*
X36357144Y-14335771D01*
X35500001Y-14907200D02*
X35595239Y-14954819D01*
X35595239Y-14954819D02*
X35785715Y-14954819D01*
X35785715Y-14954819D02*
X35880953Y-14907200D01*
X35880953Y-14907200D02*
X35928572Y-14811961D01*
X35928572Y-14811961D02*
X35928572Y-14431009D01*
X35928572Y-14431009D02*
X35880953Y-14335771D01*
X35880953Y-14335771D02*
X35785715Y-14288152D01*
X35785715Y-14288152D02*
X35595239Y-14288152D01*
X35595239Y-14288152D02*
X35500001Y-14335771D01*
X35500001Y-14335771D02*
X35452382Y-14431009D01*
X35452382Y-14431009D02*
X35452382Y-14526247D01*
X35452382Y-14526247D02*
X35928572Y-14621485D01*
X35166667Y-14288152D02*
X34785715Y-14288152D01*
X35023810Y-13954819D02*
X35023810Y-14811961D01*
X35023810Y-14811961D02*
X34976191Y-14907200D01*
X34976191Y-14907200D02*
X34880953Y-14954819D01*
X34880953Y-14954819D02*
X34785715Y-14954819D01*
X34071429Y-14907200D02*
X34166667Y-14954819D01*
X34166667Y-14954819D02*
X34357143Y-14954819D01*
X34357143Y-14954819D02*
X34452381Y-14907200D01*
X34452381Y-14907200D02*
X34500000Y-14811961D01*
X34500000Y-14811961D02*
X34500000Y-14431009D01*
X34500000Y-14431009D02*
X34452381Y-14335771D01*
X34452381Y-14335771D02*
X34357143Y-14288152D01*
X34357143Y-14288152D02*
X34166667Y-14288152D01*
X34166667Y-14288152D02*
X34071429Y-14335771D01*
X34071429Y-14335771D02*
X34023810Y-14431009D01*
X34023810Y-14431009D02*
X34023810Y-14526247D01*
X34023810Y-14526247D02*
X34500000Y-14621485D01*
X33166667Y-14907200D02*
X33261905Y-14954819D01*
X33261905Y-14954819D02*
X33452381Y-14954819D01*
X33452381Y-14954819D02*
X33547619Y-14907200D01*
X33547619Y-14907200D02*
X33595238Y-14859580D01*
X33595238Y-14859580D02*
X33642857Y-14764342D01*
X33642857Y-14764342D02*
X33642857Y-14478628D01*
X33642857Y-14478628D02*
X33595238Y-14383390D01*
X33595238Y-14383390D02*
X33547619Y-14335771D01*
X33547619Y-14335771D02*
X33452381Y-14288152D01*
X33452381Y-14288152D02*
X33261905Y-14288152D01*
X33261905Y-14288152D02*
X33166667Y-14335771D01*
X32880952Y-14288152D02*
X32500000Y-14288152D01*
X32738095Y-13954819D02*
X32738095Y-14811961D01*
X32738095Y-14811961D02*
X32690476Y-14907200D01*
X32690476Y-14907200D02*
X32595238Y-14954819D01*
X32595238Y-14954819D02*
X32500000Y-14954819D01*
X32023809Y-14954819D02*
X32119047Y-14907200D01*
X32119047Y-14907200D02*
X32166666Y-14859580D01*
X32166666Y-14859580D02*
X32214285Y-14764342D01*
X32214285Y-14764342D02*
X32214285Y-14478628D01*
X32214285Y-14478628D02*
X32166666Y-14383390D01*
X32166666Y-14383390D02*
X32119047Y-14335771D01*
X32119047Y-14335771D02*
X32023809Y-14288152D01*
X32023809Y-14288152D02*
X31880952Y-14288152D01*
X31880952Y-14288152D02*
X31785714Y-14335771D01*
X31785714Y-14335771D02*
X31738095Y-14383390D01*
X31738095Y-14383390D02*
X31690476Y-14478628D01*
X31690476Y-14478628D02*
X31690476Y-14764342D01*
X31690476Y-14764342D02*
X31738095Y-14859580D01*
X31738095Y-14859580D02*
X31785714Y-14907200D01*
X31785714Y-14907200D02*
X31880952Y-14954819D01*
X31880952Y-14954819D02*
X32023809Y-14954819D01*
X31261904Y-14954819D02*
X31261904Y-14288152D01*
X31261904Y-14478628D02*
X31214285Y-14383390D01*
X31214285Y-14383390D02*
X31166666Y-14335771D01*
X31166666Y-14335771D02*
X31071428Y-14288152D01*
X31071428Y-14288152D02*
X30976190Y-14288152D01*
X29880951Y-14954819D02*
X29880951Y-14288152D01*
X29880951Y-14478628D02*
X29833332Y-14383390D01*
X29833332Y-14383390D02*
X29785713Y-14335771D01*
X29785713Y-14335771D02*
X29690475Y-14288152D01*
X29690475Y-14288152D02*
X29595237Y-14288152D01*
X28880951Y-14907200D02*
X28976189Y-14954819D01*
X28976189Y-14954819D02*
X29166665Y-14954819D01*
X29166665Y-14954819D02*
X29261903Y-14907200D01*
X29261903Y-14907200D02*
X29309522Y-14811961D01*
X29309522Y-14811961D02*
X29309522Y-14431009D01*
X29309522Y-14431009D02*
X29261903Y-14335771D01*
X29261903Y-14335771D02*
X29166665Y-14288152D01*
X29166665Y-14288152D02*
X28976189Y-14288152D01*
X28976189Y-14288152D02*
X28880951Y-14335771D01*
X28880951Y-14335771D02*
X28833332Y-14431009D01*
X28833332Y-14431009D02*
X28833332Y-14526247D01*
X28833332Y-14526247D02*
X29309522Y-14621485D01*
X28499998Y-14288152D02*
X28261903Y-14954819D01*
X28261903Y-14954819D02*
X28023808Y-14288152D01*
X26880950Y-14954819D02*
X26880950Y-13954819D01*
X26880950Y-13954819D02*
X26642855Y-13954819D01*
X26642855Y-13954819D02*
X26499998Y-14002438D01*
X26499998Y-14002438D02*
X26404760Y-14097676D01*
X26404760Y-14097676D02*
X26357141Y-14192914D01*
X26357141Y-14192914D02*
X26309522Y-14383390D01*
X26309522Y-14383390D02*
X26309522Y-14526247D01*
X26309522Y-14526247D02*
X26357141Y-14716723D01*
X26357141Y-14716723D02*
X26404760Y-14811961D01*
X26404760Y-14811961D02*
X26499998Y-14907200D01*
X26499998Y-14907200D02*
X26642855Y-14954819D01*
X26642855Y-14954819D02*
X26880950Y-14954819D01*
X25119045Y-14954819D02*
X25119045Y-13954819D01*
X25119045Y-13954819D02*
X24785712Y-14669104D01*
X24785712Y-14669104D02*
X24452379Y-13954819D01*
X24452379Y-13954819D02*
X24452379Y-14954819D01*
X23976188Y-14431009D02*
X23642855Y-14431009D01*
X23499998Y-14954819D02*
X23976188Y-14954819D01*
X23976188Y-14954819D02*
X23976188Y-13954819D01*
X23976188Y-13954819D02*
X23499998Y-13954819D01*
X23071426Y-14954819D02*
X23071426Y-13954819D01*
X23071426Y-13954819D02*
X22738093Y-14669104D01*
X22738093Y-14669104D02*
X22404760Y-13954819D01*
X22404760Y-13954819D02*
X22404760Y-14954819D01*
X21976188Y-14907200D02*
X21833331Y-14954819D01*
X21833331Y-14954819D02*
X21595236Y-14954819D01*
X21595236Y-14954819D02*
X21499998Y-14907200D01*
X21499998Y-14907200D02*
X21452379Y-14859580D01*
X21452379Y-14859580D02*
X21404760Y-14764342D01*
X21404760Y-14764342D02*
X21404760Y-14669104D01*
X21404760Y-14669104D02*
X21452379Y-14573866D01*
X21452379Y-14573866D02*
X21499998Y-14526247D01*
X21499998Y-14526247D02*
X21595236Y-14478628D01*
X21595236Y-14478628D02*
X21785712Y-14431009D01*
X21785712Y-14431009D02*
X21880950Y-14383390D01*
X21880950Y-14383390D02*
X21928569Y-14335771D01*
X21928569Y-14335771D02*
X21976188Y-14240533D01*
X21976188Y-14240533D02*
X21976188Y-14145295D01*
X21976188Y-14145295D02*
X21928569Y-14050057D01*
X21928569Y-14050057D02*
X21880950Y-14002438D01*
X21880950Y-14002438D02*
X21785712Y-13954819D01*
X21785712Y-13954819D02*
X21547617Y-13954819D01*
X21547617Y-13954819D02*
X21404760Y-14002438D01*
%LPC*%
D11*
%TO.C,SW1*%
X32500000Y-1800000D03*
X29500000Y-1800000D03*
%TD*%
D12*
%TO.C,J1*%
X28110000Y-24700000D03*
X33890000Y-24700000D03*
D13*
X26680000Y-24170000D03*
D14*
X26680000Y-28350000D03*
D13*
X35320000Y-24170000D03*
D14*
X35320000Y-28350000D03*
%TD*%
D15*
%TO.C,H2*%
X23000000Y-2600000D03*
%TD*%
%TO.C,H1*%
X38500000Y-2900000D03*
%TD*%
%LPD*%
M02*
